%FSLAX45Y45*%
G04 Gerber Fmt 4.5, Leading zero omitted, Abs format (unit mm)*
G04 Created by KiCad (PCBNEW (5.1.4)-1) date 2020-08-01 17:35:15*
%MOMM*%
%LPD*%
G04 APERTURE LIST*
%ADD10C,0.050000*%
%ADD11C,0.200000*%
%ADD12C,0.300000*%
G04 APERTURE END LIST*
D10*
X15811500Y-7702550D02*
X15811500Y-7600950D01*
X18351500Y-7702550D02*
X15811500Y-7702550D01*
X18351500Y-7600950D02*
X18351500Y-7702550D01*
X15811500Y-7600950D02*
X18351500Y-7600950D01*
X18618200Y-7277100D02*
X18681700Y-7092950D01*
X15468600Y-5048250D02*
X15500350Y-4972050D01*
X15506700Y-7277100D02*
X15469081Y-7162485D01*
X18351500Y-4152900D02*
X18703021Y-5126893D01*
X18351500Y-4152900D02*
X18351500Y-3873500D01*
X15875000Y-4152900D02*
X15500350Y-4972050D01*
X15875000Y-4152900D02*
X15875000Y-3873500D01*
X18351000Y-8102600D02*
X18618200Y-7277100D01*
X15875000Y-8102600D02*
X15506700Y-7277100D01*
X18703021Y-5126893D02*
G75*
G02X18681700Y-7092950I-1612066J-965662D01*
G01*
X15469081Y-7162485D02*
G75*
G02X15468600Y-5048250I1615919J1057485D01*
G01*
X18351500Y-8382000D02*
X18351000Y-8102600D01*
X15875000Y-8382000D02*
X15875000Y-8102600D01*
X15875000Y-8382000D02*
X18351500Y-8382000D01*
X15875000Y-3873500D02*
X18351500Y-3873500D01*
D11*
X16879570Y-7917688D02*
X16964406Y-8002524D01*
X16964406Y-7917688D02*
X16879570Y-8002524D01*
X17259554Y-7917688D02*
X17344390Y-8002524D01*
X17344390Y-7917688D02*
X17259554Y-8002524D01*
D12*
X15437745Y-8850214D02*
X15437745Y-8550214D01*
X15509173Y-8550214D01*
X15552031Y-8564500D01*
X15580602Y-8593072D01*
X15594888Y-8621643D01*
X15609173Y-8678786D01*
X15609173Y-8721643D01*
X15594888Y-8778786D01*
X15580602Y-8807357D01*
X15552031Y-8835929D01*
X15509173Y-8850214D01*
X15437745Y-8850214D01*
X15737745Y-8850214D02*
X15737745Y-8650214D01*
X15737745Y-8707357D02*
X15752031Y-8678786D01*
X15766316Y-8664500D01*
X15794888Y-8650214D01*
X15823459Y-8650214D01*
X15923459Y-8850214D02*
X15923459Y-8650214D01*
X15923459Y-8550214D02*
X15909173Y-8564500D01*
X15923459Y-8578786D01*
X15937745Y-8564500D01*
X15923459Y-8550214D01*
X15923459Y-8578786D01*
X16109173Y-8850214D02*
X16080602Y-8835929D01*
X16066316Y-8807357D01*
X16066316Y-8550214D01*
X16266316Y-8850214D02*
X16237745Y-8835929D01*
X16223459Y-8807357D01*
X16223459Y-8550214D01*
X16609173Y-8850214D02*
X16609173Y-8550214D01*
X16709173Y-8764500D01*
X16809174Y-8550214D01*
X16809174Y-8850214D01*
X17080602Y-8850214D02*
X17080602Y-8693072D01*
X17066316Y-8664500D01*
X17037745Y-8650214D01*
X16980602Y-8650214D01*
X16952031Y-8664500D01*
X17080602Y-8835929D02*
X17052031Y-8850214D01*
X16980602Y-8850214D01*
X16952031Y-8835929D01*
X16937745Y-8807357D01*
X16937745Y-8778786D01*
X16952031Y-8750214D01*
X16980602Y-8735929D01*
X17052031Y-8735929D01*
X17080602Y-8721643D01*
X17223459Y-8650214D02*
X17223459Y-8950214D01*
X17223459Y-8664500D02*
X17252031Y-8650214D01*
X17309174Y-8650214D01*
X17337745Y-8664500D01*
X17352031Y-8678786D01*
X17366316Y-8707357D01*
X17366316Y-8793072D01*
X17352031Y-8821643D01*
X17337745Y-8835929D01*
X17309174Y-8850214D01*
X17252031Y-8850214D01*
X17223459Y-8835929D01*
X17494888Y-8821643D02*
X17509174Y-8835929D01*
X17494888Y-8850214D01*
X17480602Y-8835929D01*
X17494888Y-8821643D01*
X17494888Y-8850214D01*
X17494888Y-8664500D02*
X17509174Y-8678786D01*
X17494888Y-8693072D01*
X17480602Y-8678786D01*
X17494888Y-8664500D01*
X17494888Y-8693072D01*
X15066480Y-9302082D02*
X15151316Y-9386918D01*
X15151316Y-9302082D02*
X15066480Y-9386918D01*
X15494888Y-9180214D02*
X15523459Y-9180214D01*
X15552031Y-9194500D01*
X15566316Y-9208786D01*
X15580602Y-9237357D01*
X15594888Y-9294500D01*
X15594888Y-9365929D01*
X15580602Y-9423072D01*
X15566316Y-9451643D01*
X15552031Y-9465929D01*
X15523459Y-9480214D01*
X15494888Y-9480214D01*
X15466316Y-9465929D01*
X15452031Y-9451643D01*
X15437745Y-9423072D01*
X15423459Y-9365929D01*
X15423459Y-9294500D01*
X15437745Y-9237357D01*
X15452031Y-9208786D01*
X15466316Y-9194500D01*
X15494888Y-9180214D01*
X15723459Y-9451643D02*
X15737745Y-9465929D01*
X15723459Y-9480214D01*
X15709173Y-9465929D01*
X15723459Y-9451643D01*
X15723459Y-9480214D01*
X15909173Y-9308786D02*
X15880602Y-9294500D01*
X15866316Y-9280214D01*
X15852031Y-9251643D01*
X15852031Y-9237357D01*
X15866316Y-9208786D01*
X15880602Y-9194500D01*
X15909173Y-9180214D01*
X15966316Y-9180214D01*
X15994888Y-9194500D01*
X16009173Y-9208786D01*
X16023459Y-9237357D01*
X16023459Y-9251643D01*
X16009173Y-9280214D01*
X15994888Y-9294500D01*
X15966316Y-9308786D01*
X15909173Y-9308786D01*
X15880602Y-9323072D01*
X15866316Y-9337357D01*
X15852031Y-9365929D01*
X15852031Y-9423072D01*
X15866316Y-9451643D01*
X15880602Y-9465929D01*
X15909173Y-9480214D01*
X15966316Y-9480214D01*
X15994888Y-9465929D01*
X16009173Y-9451643D01*
X16023459Y-9423072D01*
X16023459Y-9365929D01*
X16009173Y-9337357D01*
X15994888Y-9323072D01*
X15966316Y-9308786D01*
X16294888Y-9180214D02*
X16152031Y-9180214D01*
X16137745Y-9323072D01*
X16152031Y-9308786D01*
X16180602Y-9294500D01*
X16252031Y-9294500D01*
X16280602Y-9308786D01*
X16294888Y-9323072D01*
X16309173Y-9351643D01*
X16309173Y-9423072D01*
X16294888Y-9451643D01*
X16280602Y-9465929D01*
X16252031Y-9480214D01*
X16180602Y-9480214D01*
X16152031Y-9465929D01*
X16137745Y-9451643D01*
X16437745Y-9480214D02*
X16437745Y-9280214D01*
X16437745Y-9308786D02*
X16452031Y-9294500D01*
X16480602Y-9280214D01*
X16523459Y-9280214D01*
X16552031Y-9294500D01*
X16566316Y-9323072D01*
X16566316Y-9480214D01*
X16566316Y-9323072D02*
X16580602Y-9294500D01*
X16609173Y-9280214D01*
X16652031Y-9280214D01*
X16680602Y-9294500D01*
X16694888Y-9323072D01*
X16694888Y-9480214D01*
X16837745Y-9480214D02*
X16837745Y-9280214D01*
X16837745Y-9308786D02*
X16852031Y-9294500D01*
X16880602Y-9280214D01*
X16923459Y-9280214D01*
X16952031Y-9294500D01*
X16966316Y-9323072D01*
X16966316Y-9480214D01*
X16966316Y-9323072D02*
X16980602Y-9294500D01*
X17009174Y-9280214D01*
X17052031Y-9280214D01*
X17080602Y-9294500D01*
X17094888Y-9323072D01*
X17094888Y-9480214D01*
X17680602Y-9165929D02*
X17423459Y-9551643D01*
X18066316Y-9180214D02*
X18094888Y-9180214D01*
X18123459Y-9194500D01*
X18137745Y-9208786D01*
X18152031Y-9237357D01*
X18166316Y-9294500D01*
X18166316Y-9365929D01*
X18152031Y-9423072D01*
X18137745Y-9451643D01*
X18123459Y-9465929D01*
X18094888Y-9480214D01*
X18066316Y-9480214D01*
X18037745Y-9465929D01*
X18023459Y-9451643D01*
X18009174Y-9423072D01*
X17994888Y-9365929D01*
X17994888Y-9294500D01*
X18009174Y-9237357D01*
X18023459Y-9208786D01*
X18037745Y-9194500D01*
X18066316Y-9180214D01*
X18294888Y-9451643D02*
X18309174Y-9465929D01*
X18294888Y-9480214D01*
X18280602Y-9465929D01*
X18294888Y-9451643D01*
X18294888Y-9480214D01*
X18494888Y-9180214D02*
X18523459Y-9180214D01*
X18552031Y-9194500D01*
X18566316Y-9208786D01*
X18580602Y-9237357D01*
X18594888Y-9294500D01*
X18594888Y-9365929D01*
X18580602Y-9423072D01*
X18566316Y-9451643D01*
X18552031Y-9465929D01*
X18523459Y-9480214D01*
X18494888Y-9480214D01*
X18466316Y-9465929D01*
X18452031Y-9451643D01*
X18437745Y-9423072D01*
X18423459Y-9365929D01*
X18423459Y-9294500D01*
X18437745Y-9237357D01*
X18452031Y-9208786D01*
X18466316Y-9194500D01*
X18494888Y-9180214D01*
X18694888Y-9180214D02*
X18880602Y-9180214D01*
X18780602Y-9294500D01*
X18823459Y-9294500D01*
X18852031Y-9308786D01*
X18866316Y-9323072D01*
X18880602Y-9351643D01*
X18880602Y-9423072D01*
X18866316Y-9451643D01*
X18852031Y-9465929D01*
X18823459Y-9480214D01*
X18737745Y-9480214D01*
X18709174Y-9465929D01*
X18694888Y-9451643D01*
X18980602Y-9180214D02*
X19166316Y-9180214D01*
X19066316Y-9294500D01*
X19109174Y-9294500D01*
X19137745Y-9308786D01*
X19152031Y-9323072D01*
X19166316Y-9351643D01*
X19166316Y-9423072D01*
X19152031Y-9451643D01*
X19137745Y-9465929D01*
X19109174Y-9480214D01*
X19023459Y-9480214D01*
X18994888Y-9465929D01*
X18980602Y-9451643D01*
X19280602Y-9180214D02*
X19280602Y-9237357D01*
X19394888Y-9180214D02*
X19394888Y-9237357D01*
X19837745Y-9594500D02*
X19823459Y-9580214D01*
X19794888Y-9537357D01*
X19780602Y-9508786D01*
X19766316Y-9465929D01*
X19752031Y-9394500D01*
X19752031Y-9337357D01*
X19766316Y-9265929D01*
X19780602Y-9223072D01*
X19794888Y-9194500D01*
X19823459Y-9151643D01*
X19837745Y-9137357D01*
X19937745Y-9208786D02*
X19952031Y-9194500D01*
X19980602Y-9180214D01*
X20052031Y-9180214D01*
X20080602Y-9194500D01*
X20094888Y-9208786D01*
X20109174Y-9237357D01*
X20109174Y-9265929D01*
X20094888Y-9308786D01*
X19923459Y-9480214D01*
X20109174Y-9480214D01*
X20466316Y-9480214D02*
X20466316Y-9180214D01*
X20594888Y-9480214D02*
X20594888Y-9323072D01*
X20580602Y-9294500D01*
X20552031Y-9280214D01*
X20509174Y-9280214D01*
X20480602Y-9294500D01*
X20466316Y-9308786D01*
X20780602Y-9480214D02*
X20752031Y-9465929D01*
X20737745Y-9451643D01*
X20723459Y-9423072D01*
X20723459Y-9337357D01*
X20737745Y-9308786D01*
X20752031Y-9294500D01*
X20780602Y-9280214D01*
X20823459Y-9280214D01*
X20852031Y-9294500D01*
X20866316Y-9308786D01*
X20880602Y-9337357D01*
X20880602Y-9423072D01*
X20866316Y-9451643D01*
X20852031Y-9465929D01*
X20823459Y-9480214D01*
X20780602Y-9480214D01*
X21052031Y-9480214D02*
X21023459Y-9465929D01*
X21009174Y-9437357D01*
X21009174Y-9180214D01*
X21280602Y-9465929D02*
X21252031Y-9480214D01*
X21194888Y-9480214D01*
X21166316Y-9465929D01*
X21152031Y-9437357D01*
X21152031Y-9323072D01*
X21166316Y-9294500D01*
X21194888Y-9280214D01*
X21252031Y-9280214D01*
X21280602Y-9294500D01*
X21294888Y-9323072D01*
X21294888Y-9351643D01*
X21152031Y-9380214D01*
X21409174Y-9465929D02*
X21437745Y-9480214D01*
X21494888Y-9480214D01*
X21523459Y-9465929D01*
X21537745Y-9437357D01*
X21537745Y-9423072D01*
X21523459Y-9394500D01*
X21494888Y-9380214D01*
X21452031Y-9380214D01*
X21423459Y-9365929D01*
X21409174Y-9337357D01*
X21409174Y-9323072D01*
X21423459Y-9294500D01*
X21452031Y-9280214D01*
X21494888Y-9280214D01*
X21523459Y-9294500D01*
X21637745Y-9594500D02*
X21652031Y-9580214D01*
X21680602Y-9537357D01*
X21694888Y-9508786D01*
X21709174Y-9465929D01*
X21723459Y-9394500D01*
X21723459Y-9337357D01*
X21709174Y-9265929D01*
X21694888Y-9223072D01*
X21680602Y-9194500D01*
X21652031Y-9151643D01*
X21637745Y-9137357D01*
X22180602Y-9594500D02*
X22166316Y-9580214D01*
X22137745Y-9537357D01*
X22123459Y-9508786D01*
X22109174Y-9465929D01*
X22094888Y-9394500D01*
X22094888Y-9337357D01*
X22109174Y-9265929D01*
X22123459Y-9223072D01*
X22137745Y-9194500D01*
X22166316Y-9151643D01*
X22180602Y-9137357D01*
X22294888Y-9280214D02*
X22294888Y-9480214D01*
X22294888Y-9308786D02*
X22309174Y-9294500D01*
X22337745Y-9280214D01*
X22380602Y-9280214D01*
X22409173Y-9294500D01*
X22423459Y-9323072D01*
X22423459Y-9480214D01*
X22609173Y-9480214D02*
X22580602Y-9465929D01*
X22566316Y-9451643D01*
X22552031Y-9423072D01*
X22552031Y-9337357D01*
X22566316Y-9308786D01*
X22580602Y-9294500D01*
X22609173Y-9280214D01*
X22652031Y-9280214D01*
X22680602Y-9294500D01*
X22694888Y-9308786D01*
X22709173Y-9337357D01*
X22709173Y-9423072D01*
X22694888Y-9451643D01*
X22680602Y-9465929D01*
X22652031Y-9480214D01*
X22609173Y-9480214D01*
X22794888Y-9280214D02*
X22909173Y-9280214D01*
X22837745Y-9180214D02*
X22837745Y-9437357D01*
X22852031Y-9465929D01*
X22880602Y-9480214D01*
X22909173Y-9480214D01*
X23237745Y-9280214D02*
X23237745Y-9580214D01*
X23237745Y-9294500D02*
X23266316Y-9280214D01*
X23323459Y-9280214D01*
X23352031Y-9294500D01*
X23366316Y-9308786D01*
X23380602Y-9337357D01*
X23380602Y-9423072D01*
X23366316Y-9451643D01*
X23352031Y-9465929D01*
X23323459Y-9480214D01*
X23266316Y-9480214D01*
X23237745Y-9465929D01*
X23552031Y-9480214D02*
X23523459Y-9465929D01*
X23509173Y-9437357D01*
X23509173Y-9180214D01*
X23794888Y-9480214D02*
X23794888Y-9323072D01*
X23780602Y-9294500D01*
X23752031Y-9280214D01*
X23694888Y-9280214D01*
X23666316Y-9294500D01*
X23794888Y-9465929D02*
X23766316Y-9480214D01*
X23694888Y-9480214D01*
X23666316Y-9465929D01*
X23652031Y-9437357D01*
X23652031Y-9408786D01*
X23666316Y-9380214D01*
X23694888Y-9365929D01*
X23766316Y-9365929D01*
X23794888Y-9351643D01*
X23894888Y-9280214D02*
X24009173Y-9280214D01*
X23937745Y-9180214D02*
X23937745Y-9437357D01*
X23952031Y-9465929D01*
X23980602Y-9480214D01*
X24009173Y-9480214D01*
X24223459Y-9465929D02*
X24194888Y-9480214D01*
X24137745Y-9480214D01*
X24109173Y-9465929D01*
X24094888Y-9437357D01*
X24094888Y-9323072D01*
X24109173Y-9294500D01*
X24137745Y-9280214D01*
X24194888Y-9280214D01*
X24223459Y-9294500D01*
X24237745Y-9323072D01*
X24237745Y-9351643D01*
X24094888Y-9380214D01*
X24494888Y-9480214D02*
X24494888Y-9180214D01*
X24494888Y-9465929D02*
X24466316Y-9480214D01*
X24409173Y-9480214D01*
X24380602Y-9465929D01*
X24366316Y-9451643D01*
X24352031Y-9423072D01*
X24352031Y-9337357D01*
X24366316Y-9308786D01*
X24380602Y-9294500D01*
X24409173Y-9280214D01*
X24466316Y-9280214D01*
X24494888Y-9294500D01*
X24609173Y-9594500D02*
X24623459Y-9580214D01*
X24652031Y-9537357D01*
X24666316Y-9508786D01*
X24680602Y-9465929D01*
X24694888Y-9394500D01*
X24694888Y-9337357D01*
X24680602Y-9265929D01*
X24666316Y-9223072D01*
X24652031Y-9194500D01*
X24623459Y-9151643D01*
X24609173Y-9137357D01*
M02*
