G04 #@! TF.GenerationSoftware,KiCad,Pcbnew,(5.1.4)-1*
G04 #@! TF.CreationDate,2020-08-01T17:35:13+02:00*
G04 #@! TF.ProjectId,ArduinoProMicroUSB,41726475-696e-46f5-9072-6f4d6963726f,rev?*
G04 #@! TF.SameCoordinates,Original*
G04 #@! TF.FileFunction,Soldermask,Bot*
G04 #@! TF.FilePolarity,Negative*
%FSLAX46Y46*%
G04 Gerber Fmt 4.6, Leading zero omitted, Abs format (unit mm)*
G04 Created by KiCad (PCBNEW (5.1.4)-1) date 2020-08-01 17:35:13*
%MOMM*%
%LPD*%
G04 APERTURE LIST*
%ADD10C,0.100000*%
G04 APERTURE END LIST*
D10*
G36*
X175798480Y-82651600D02*
G01*
X173796960Y-82651600D01*
X173796960Y-80949800D01*
X175798480Y-80949800D01*
X175798480Y-82651600D01*
X175798480Y-82651600D01*
G37*
G36*
X172471080Y-82651600D02*
G01*
X169768520Y-82651600D01*
X169768520Y-80949800D01*
X172471080Y-80949800D01*
X172471080Y-82651600D01*
X172471080Y-82651600D01*
G37*
G36*
X168442640Y-82651600D02*
G01*
X166441120Y-82651600D01*
X166441120Y-80949800D01*
X168442640Y-80949800D01*
X168442640Y-82651600D01*
X168442640Y-82651600D01*
G37*
G36*
X172718730Y-78972538D02*
G01*
X172721132Y-78996924D01*
X172728245Y-79020373D01*
X172739796Y-79041984D01*
X172755341Y-79060926D01*
X172774283Y-79076471D01*
X172795894Y-79088022D01*
X172819343Y-79095135D01*
X172843729Y-79097537D01*
X172868115Y-79095135D01*
X172967934Y-79075280D01*
X173071506Y-79075280D01*
X173173084Y-79095485D01*
X173268769Y-79135119D01*
X173354885Y-79192660D01*
X173428120Y-79265895D01*
X173485661Y-79352011D01*
X173525295Y-79447696D01*
X173545500Y-79549274D01*
X173545500Y-79652846D01*
X173525295Y-79754424D01*
X173485661Y-79850109D01*
X173428120Y-79936225D01*
X173354885Y-80009460D01*
X173268769Y-80067001D01*
X173173084Y-80106635D01*
X173071506Y-80126840D01*
X172967934Y-80126840D01*
X172866356Y-80106635D01*
X172770671Y-80067001D01*
X172684555Y-80009460D01*
X172616296Y-79941201D01*
X172597354Y-79925656D01*
X172575743Y-79914105D01*
X172552294Y-79906992D01*
X172527908Y-79904590D01*
X169711692Y-79904590D01*
X169687306Y-79906992D01*
X169663857Y-79914105D01*
X169642246Y-79925656D01*
X169623304Y-79941201D01*
X169555045Y-80009460D01*
X169468929Y-80067001D01*
X169373244Y-80106635D01*
X169271666Y-80126840D01*
X169168094Y-80126840D01*
X169066516Y-80106635D01*
X168970831Y-80067001D01*
X168884715Y-80009460D01*
X168811480Y-79936225D01*
X168753939Y-79850109D01*
X168714305Y-79754424D01*
X168694100Y-79652846D01*
X168694100Y-79549274D01*
X168714305Y-79447696D01*
X168753939Y-79352011D01*
X168811480Y-79265895D01*
X168884715Y-79192660D01*
X168970831Y-79135119D01*
X169066516Y-79095485D01*
X169168094Y-79075280D01*
X169271666Y-79075280D01*
X169371485Y-79095135D01*
X169395871Y-79097537D01*
X169420257Y-79095135D01*
X169443706Y-79088022D01*
X169465317Y-79076471D01*
X169484259Y-79060925D01*
X169499804Y-79041983D01*
X169511355Y-79020373D01*
X169518468Y-78996924D01*
X169520870Y-78972538D01*
X169520870Y-78301850D01*
X172718730Y-78301850D01*
X172718730Y-78972538D01*
X172718730Y-78972538D01*
G37*
G36*
X176023270Y-78439010D02*
G01*
X174720250Y-78439010D01*
X174720250Y-77237590D01*
X176023270Y-77237590D01*
X176023270Y-78439010D01*
X176023270Y-78439010D01*
G37*
G36*
X167468550Y-78439010D02*
G01*
X166165530Y-78439010D01*
X166165530Y-77237590D01*
X167468550Y-77237590D01*
X167468550Y-78439010D01*
X167468550Y-78439010D01*
G37*
G36*
X174326550Y-78439010D02*
G01*
X173023530Y-78439010D01*
X173023530Y-77237590D01*
X174326550Y-77237590D01*
X174326550Y-78439010D01*
X174326550Y-78439010D01*
G37*
G36*
X169165270Y-78439010D02*
G01*
X167862250Y-78439010D01*
X167862250Y-77237590D01*
X169165270Y-77237590D01*
X169165270Y-78439010D01*
X169165270Y-78439010D01*
G37*
G36*
X167241200Y-73756900D02*
G01*
X165339200Y-73756900D01*
X165339200Y-71454900D01*
X167241200Y-71454900D01*
X167241200Y-73756900D01*
X167241200Y-73756900D01*
G37*
G36*
X176541200Y-73756900D02*
G01*
X174639200Y-73756900D01*
X174639200Y-71454900D01*
X176541200Y-71454900D01*
X176541200Y-73756900D01*
X176541200Y-73756900D01*
G37*
G36*
X158415860Y-70706658D02*
G01*
X158588931Y-70778346D01*
X158666283Y-70830031D01*
X158744692Y-70882422D01*
X158877155Y-71014885D01*
X158927875Y-71090793D01*
X158981231Y-71170646D01*
X159052919Y-71343717D01*
X159089465Y-71527445D01*
X159089465Y-71714779D01*
X159052919Y-71898507D01*
X158981231Y-72071578D01*
X158981230Y-72071579D01*
X158877155Y-72227339D01*
X158744692Y-72359802D01*
X158701742Y-72388500D01*
X158588931Y-72463878D01*
X158415860Y-72535566D01*
X158232132Y-72572112D01*
X158044798Y-72572112D01*
X157861070Y-72535566D01*
X157687999Y-72463878D01*
X157575188Y-72388500D01*
X157532238Y-72359802D01*
X157399775Y-72227339D01*
X157295700Y-72071579D01*
X157295699Y-72071578D01*
X157224011Y-71898507D01*
X157187465Y-71714779D01*
X157187465Y-71527445D01*
X157224011Y-71343717D01*
X157295699Y-71170646D01*
X157349055Y-71090793D01*
X157399775Y-71014885D01*
X157532238Y-70882422D01*
X157610647Y-70830031D01*
X157687999Y-70778346D01*
X157861070Y-70706658D01*
X158044798Y-70670112D01*
X158232132Y-70670112D01*
X158415860Y-70706658D01*
X158415860Y-70706658D01*
G37*
G36*
X183411395Y-70523046D02*
G01*
X183584466Y-70594734D01*
X183661818Y-70646419D01*
X183740227Y-70698810D01*
X183872690Y-70831273D01*
X183923410Y-70907181D01*
X183976766Y-70987034D01*
X184048454Y-71160105D01*
X184085000Y-71343833D01*
X184085000Y-71531167D01*
X184048454Y-71714895D01*
X183976766Y-71887966D01*
X183969722Y-71898508D01*
X183872690Y-72043727D01*
X183740227Y-72176190D01*
X183663680Y-72227337D01*
X183584466Y-72280266D01*
X183411395Y-72351954D01*
X183227667Y-72388500D01*
X183040333Y-72388500D01*
X182856605Y-72351954D01*
X182683534Y-72280266D01*
X182604320Y-72227337D01*
X182527773Y-72176190D01*
X182395310Y-72043727D01*
X182298278Y-71898508D01*
X182291234Y-71887966D01*
X182219546Y-71714895D01*
X182183000Y-71531167D01*
X182183000Y-71343833D01*
X182219546Y-71160105D01*
X182291234Y-70987034D01*
X182344590Y-70907181D01*
X182395310Y-70831273D01*
X182527773Y-70698810D01*
X182606182Y-70646419D01*
X182683534Y-70594734D01*
X182856605Y-70523046D01*
X183040333Y-70486500D01*
X183227667Y-70486500D01*
X183411395Y-70523046D01*
X183411395Y-70523046D01*
G37*
G36*
X155522921Y-70618526D02*
G01*
X155651221Y-70671670D01*
X155651223Y-70671671D01*
X155691837Y-70698809D01*
X155766690Y-70748824D01*
X155864890Y-70847024D01*
X155942044Y-70962493D01*
X155995188Y-71090793D01*
X156022280Y-71226996D01*
X156022280Y-71365872D01*
X155995188Y-71502075D01*
X155942044Y-71630375D01*
X155942043Y-71630377D01*
X155864889Y-71745845D01*
X155766691Y-71844043D01*
X155651223Y-71921197D01*
X155651222Y-71921198D01*
X155651221Y-71921198D01*
X155522921Y-71974342D01*
X155386718Y-72001434D01*
X155247842Y-72001434D01*
X155111639Y-71974342D01*
X154983339Y-71921198D01*
X154983338Y-71921198D01*
X154983337Y-71921197D01*
X154867869Y-71844043D01*
X154769671Y-71745845D01*
X154692517Y-71630377D01*
X154692516Y-71630375D01*
X154639372Y-71502075D01*
X154612280Y-71365872D01*
X154612280Y-71226996D01*
X154639372Y-71090793D01*
X154692516Y-70962493D01*
X154769670Y-70847024D01*
X154867870Y-70748824D01*
X154942723Y-70698809D01*
X154983337Y-70671671D01*
X154983339Y-70671670D01*
X155111639Y-70618526D01*
X155247842Y-70591434D01*
X155386718Y-70591434D01*
X155522921Y-70618526D01*
X155522921Y-70618526D01*
G37*
G36*
X186160826Y-70434914D02*
G01*
X186289126Y-70488058D01*
X186289128Y-70488059D01*
X186341489Y-70523046D01*
X186404595Y-70565212D01*
X186502795Y-70663412D01*
X186526447Y-70698810D01*
X186579593Y-70778347D01*
X186579949Y-70778881D01*
X186633093Y-70907181D01*
X186660185Y-71043384D01*
X186660185Y-71182260D01*
X186633093Y-71318463D01*
X186579949Y-71446763D01*
X186526038Y-71527447D01*
X186502794Y-71562233D01*
X186404596Y-71660431D01*
X186289128Y-71737585D01*
X186289127Y-71737586D01*
X186289126Y-71737586D01*
X186160826Y-71790730D01*
X186024623Y-71817822D01*
X185885747Y-71817822D01*
X185749544Y-71790730D01*
X185621244Y-71737586D01*
X185621243Y-71737586D01*
X185621242Y-71737585D01*
X185505774Y-71660431D01*
X185407576Y-71562233D01*
X185384333Y-71527447D01*
X185330421Y-71446763D01*
X185277277Y-71318463D01*
X185250185Y-71182260D01*
X185250185Y-71043384D01*
X185277277Y-70907181D01*
X185330421Y-70778881D01*
X185330778Y-70778347D01*
X185383923Y-70698810D01*
X185407575Y-70663412D01*
X185505775Y-70565212D01*
X185568881Y-70523046D01*
X185621242Y-70488059D01*
X185621244Y-70488058D01*
X185749544Y-70434914D01*
X185885747Y-70407822D01*
X186024623Y-70407822D01*
X186160826Y-70434914D01*
X186160826Y-70434914D01*
G37*
G36*
X173891200Y-70056900D02*
G01*
X167989200Y-70056900D01*
X167989200Y-68654900D01*
X173891200Y-68654900D01*
X173891200Y-70056900D01*
X173891200Y-70056900D01*
G37*
G36*
X185190365Y-67134120D02*
G01*
X185322708Y-67188938D01*
X185379888Y-67212623D01*
X185550454Y-67326592D01*
X185695508Y-67471646D01*
X185809477Y-67642212D01*
X185887980Y-67831735D01*
X185928000Y-68032931D01*
X185928000Y-68238069D01*
X185887980Y-68439265D01*
X185809477Y-68628788D01*
X185695508Y-68799354D01*
X185550454Y-68944408D01*
X185379888Y-69058377D01*
X185379887Y-69058378D01*
X185379886Y-69058378D01*
X185190365Y-69136880D01*
X184989170Y-69176900D01*
X184784030Y-69176900D01*
X184582835Y-69136880D01*
X184393314Y-69058378D01*
X184393313Y-69058378D01*
X184393312Y-69058377D01*
X184222746Y-68944408D01*
X184077692Y-68799354D01*
X183963723Y-68628788D01*
X183885220Y-68439265D01*
X183845200Y-68238069D01*
X183845200Y-68032931D01*
X183885220Y-67831735D01*
X183963723Y-67642212D01*
X184077692Y-67471646D01*
X184222746Y-67326592D01*
X184393312Y-67212623D01*
X184450493Y-67188938D01*
X184582835Y-67134120D01*
X184784030Y-67094100D01*
X184989170Y-67094100D01*
X185190365Y-67134120D01*
X185190365Y-67134120D01*
G37*
G36*
X182650365Y-67134120D02*
G01*
X182782708Y-67188938D01*
X182839888Y-67212623D01*
X183010454Y-67326592D01*
X183155508Y-67471646D01*
X183269477Y-67642212D01*
X183347980Y-67831735D01*
X183388000Y-68032931D01*
X183388000Y-68238069D01*
X183347980Y-68439265D01*
X183269477Y-68628788D01*
X183155508Y-68799354D01*
X183010454Y-68944408D01*
X182839888Y-69058377D01*
X182839887Y-69058378D01*
X182839886Y-69058378D01*
X182650365Y-69136880D01*
X182449170Y-69176900D01*
X182244030Y-69176900D01*
X182042835Y-69136880D01*
X181853314Y-69058378D01*
X181853313Y-69058378D01*
X181853312Y-69058377D01*
X181682746Y-68944408D01*
X181537692Y-68799354D01*
X181423723Y-68628788D01*
X181345220Y-68439265D01*
X181305200Y-68238069D01*
X181305200Y-68032931D01*
X181345220Y-67831735D01*
X181423723Y-67642212D01*
X181537692Y-67471646D01*
X181682746Y-67326592D01*
X181853312Y-67212623D01*
X181910493Y-67188938D01*
X182042835Y-67134120D01*
X182244030Y-67094100D01*
X182449170Y-67094100D01*
X182650365Y-67134120D01*
X182650365Y-67134120D01*
G37*
G36*
X154002641Y-66441592D02*
G01*
X154130941Y-66494736D01*
X154130943Y-66494737D01*
X154189069Y-66533576D01*
X154246410Y-66571890D01*
X154344610Y-66670090D01*
X154421764Y-66785559D01*
X154474908Y-66913859D01*
X154502000Y-67050062D01*
X154502000Y-67188938D01*
X154474908Y-67325141D01*
X154421764Y-67453441D01*
X154421763Y-67453443D01*
X154344609Y-67568911D01*
X154246411Y-67667109D01*
X154130943Y-67744263D01*
X154130942Y-67744264D01*
X154130941Y-67744264D01*
X154002641Y-67797408D01*
X153866438Y-67824500D01*
X153727562Y-67824500D01*
X153591359Y-67797408D01*
X153463059Y-67744264D01*
X153463058Y-67744264D01*
X153463057Y-67744263D01*
X153347589Y-67667109D01*
X153249391Y-67568911D01*
X153172237Y-67453443D01*
X153172236Y-67453441D01*
X153119092Y-67325141D01*
X153092000Y-67188938D01*
X153092000Y-67050062D01*
X153119092Y-66913859D01*
X153172236Y-66785559D01*
X153249390Y-66670090D01*
X153347590Y-66571890D01*
X153404931Y-66533576D01*
X153463057Y-66494737D01*
X153463059Y-66494736D01*
X153591359Y-66441592D01*
X153727562Y-66414500D01*
X153866438Y-66414500D01*
X154002641Y-66441592D01*
X154002641Y-66441592D01*
G37*
G36*
X187681105Y-66257980D02*
G01*
X187809405Y-66311124D01*
X187809407Y-66311125D01*
X187867533Y-66349964D01*
X187924874Y-66388278D01*
X188023074Y-66486478D01*
X188100228Y-66601947D01*
X188153372Y-66730247D01*
X188180464Y-66866450D01*
X188180464Y-67005326D01*
X188153372Y-67141529D01*
X188100228Y-67269829D01*
X188100227Y-67269831D01*
X188023073Y-67385299D01*
X187924875Y-67483497D01*
X187809407Y-67560651D01*
X187809406Y-67560652D01*
X187809405Y-67560652D01*
X187681105Y-67613796D01*
X187544902Y-67640888D01*
X187406026Y-67640888D01*
X187269823Y-67613796D01*
X187141523Y-67560652D01*
X187141522Y-67560652D01*
X187141521Y-67560651D01*
X187026053Y-67483497D01*
X186927855Y-67385299D01*
X186850701Y-67269831D01*
X186850700Y-67269829D01*
X186797556Y-67141529D01*
X186770464Y-67005326D01*
X186770464Y-66866450D01*
X186797556Y-66730247D01*
X186850700Y-66601947D01*
X186927854Y-66486478D01*
X187026054Y-66388278D01*
X187083395Y-66349964D01*
X187141521Y-66311125D01*
X187141523Y-66311124D01*
X187269823Y-66257980D01*
X187406026Y-66230888D01*
X187544902Y-66230888D01*
X187681105Y-66257980D01*
X187681105Y-66257980D01*
G37*
G36*
X156026849Y-64142905D02*
G01*
X156199920Y-64214593D01*
X156277272Y-64266278D01*
X156355681Y-64318669D01*
X156488144Y-64451132D01*
X156488145Y-64451134D01*
X156592220Y-64606893D01*
X156663908Y-64779964D01*
X156700454Y-64963692D01*
X156700454Y-65151026D01*
X156663908Y-65334754D01*
X156592220Y-65507825D01*
X156592219Y-65507826D01*
X156488144Y-65663586D01*
X156355681Y-65796049D01*
X156312731Y-65824747D01*
X156199920Y-65900125D01*
X156026849Y-65971813D01*
X155843121Y-66008359D01*
X155655787Y-66008359D01*
X155472059Y-65971813D01*
X155298988Y-65900125D01*
X155186177Y-65824747D01*
X155143227Y-65796049D01*
X155010764Y-65663586D01*
X154906689Y-65507826D01*
X154906688Y-65507825D01*
X154835000Y-65334754D01*
X154798454Y-65151026D01*
X154798454Y-64963692D01*
X154835000Y-64779964D01*
X154906688Y-64606893D01*
X155010763Y-64451134D01*
X155010764Y-64451132D01*
X155143227Y-64318669D01*
X155221636Y-64266278D01*
X155298988Y-64214593D01*
X155472059Y-64142905D01*
X155655787Y-64106359D01*
X155843121Y-64106359D01*
X156026849Y-64142905D01*
X156026849Y-64142905D01*
G37*
G36*
X164708709Y-59254525D02*
G01*
X164708709Y-59254526D01*
X164834150Y-59379967D01*
X164834150Y-59379966D01*
X165265485Y-59811301D01*
X165265485Y-59811302D01*
X165353867Y-59899684D01*
X165353872Y-59899690D01*
X165408886Y-59954704D01*
X165408886Y-59954703D01*
X165840221Y-60386038D01*
X165840221Y-60386039D01*
X165877274Y-60423092D01*
X165877280Y-60423097D01*
X165965662Y-60511479D01*
X165965662Y-60511478D01*
X166396997Y-60942813D01*
X166396997Y-60942814D01*
X166485379Y-61031196D01*
X166485384Y-61031202D01*
X166540398Y-61086216D01*
X166540398Y-61086215D01*
X166971733Y-61517550D01*
X166971733Y-61517551D01*
X167097174Y-61642992D01*
X167097174Y-61642991D01*
X167528509Y-62074326D01*
X167528509Y-62074327D01*
X167653950Y-62199768D01*
X167653950Y-62199767D01*
X168085285Y-62631102D01*
X168085285Y-62631103D01*
X168140299Y-62686117D01*
X168140305Y-62686122D01*
X168228687Y-62774504D01*
X168228687Y-62774503D01*
X168660022Y-63205838D01*
X168660022Y-63205839D01*
X168748404Y-63294221D01*
X168748409Y-63294227D01*
X168785462Y-63331280D01*
X168785462Y-63331279D01*
X169216797Y-63762614D01*
X169216797Y-63762615D01*
X169271811Y-63817629D01*
X169271817Y-63817634D01*
X169360199Y-63906016D01*
X169360199Y-63906015D01*
X169791534Y-64337350D01*
X169791534Y-64337351D01*
X169916975Y-64462792D01*
X169916975Y-64462791D01*
X170348310Y-64894126D01*
X169234475Y-66007961D01*
X168803140Y-65576626D01*
X168803141Y-65576626D01*
X168677700Y-65451185D01*
X168677699Y-65451185D01*
X168246364Y-65019850D01*
X168246365Y-65019850D01*
X168191351Y-64964836D01*
X168191345Y-64964831D01*
X168102963Y-64876449D01*
X168102962Y-64876449D01*
X167671627Y-64445114D01*
X167671628Y-64445114D01*
X167583246Y-64356732D01*
X167583241Y-64356726D01*
X167546188Y-64319673D01*
X167546187Y-64319673D01*
X167114852Y-63888338D01*
X167114853Y-63888338D01*
X167059839Y-63833324D01*
X167059833Y-63833319D01*
X166971451Y-63744937D01*
X166971450Y-63744937D01*
X166540115Y-63313602D01*
X166540116Y-63313602D01*
X166414675Y-63188161D01*
X166414674Y-63188161D01*
X165983339Y-62756826D01*
X165983340Y-62756826D01*
X165857899Y-62631385D01*
X165857898Y-62631385D01*
X165426563Y-62200050D01*
X165426564Y-62200050D01*
X165338182Y-62111668D01*
X165338177Y-62111662D01*
X165283163Y-62056648D01*
X165283162Y-62056648D01*
X164851827Y-61625313D01*
X164851828Y-61625313D01*
X164814775Y-61588260D01*
X164814769Y-61588255D01*
X164726387Y-61499873D01*
X164726386Y-61499873D01*
X164295051Y-61068538D01*
X164295052Y-61068538D01*
X164206670Y-60980156D01*
X164206665Y-60980150D01*
X164151651Y-60925136D01*
X164151650Y-60925136D01*
X163720315Y-60493801D01*
X163720316Y-60493801D01*
X163594875Y-60368360D01*
X163594874Y-60368360D01*
X163163539Y-59937025D01*
X164277374Y-58823190D01*
X164708709Y-59254525D01*
X164708709Y-59254525D01*
G37*
G36*
X178466461Y-59937025D02*
G01*
X178035126Y-60368360D01*
X177946738Y-60456747D01*
X177909685Y-60493801D01*
X177423336Y-60980150D01*
X177334949Y-61068538D01*
X176903614Y-61499873D01*
X176778173Y-61625313D01*
X176346838Y-62056648D01*
X176203437Y-62200050D01*
X174658550Y-63744937D01*
X174515148Y-63888338D01*
X174083813Y-64319673D01*
X173958373Y-64445114D01*
X173527038Y-64876449D01*
X173438650Y-64964836D01*
X172952301Y-65451185D01*
X172863913Y-65539572D01*
X172826860Y-65576626D01*
X172395525Y-66007961D01*
X171281690Y-64894126D01*
X171713025Y-64462791D01*
X171713026Y-64462792D01*
X171838467Y-64337351D01*
X171838466Y-64337350D01*
X172269801Y-63906015D01*
X172269802Y-63906016D01*
X172358179Y-63817638D01*
X172358190Y-63817629D01*
X172413204Y-63762615D01*
X172413203Y-63762614D01*
X172844538Y-63331279D01*
X172844539Y-63331280D01*
X172881592Y-63294227D01*
X172881601Y-63294216D01*
X172969979Y-63205839D01*
X172969978Y-63205838D01*
X173401313Y-62774503D01*
X173401314Y-62774504D01*
X173489691Y-62686126D01*
X173489702Y-62686117D01*
X173544716Y-62631103D01*
X173544715Y-62631102D01*
X173976050Y-62199767D01*
X173976051Y-62199768D01*
X174064438Y-62111380D01*
X174101492Y-62074327D01*
X174101491Y-62074326D01*
X174532826Y-61642991D01*
X174532827Y-61642992D01*
X174621214Y-61554604D01*
X174658268Y-61517551D01*
X174658267Y-61517550D01*
X175089602Y-61086215D01*
X175089603Y-61086216D01*
X175144617Y-61031202D01*
X175144626Y-61031191D01*
X175233004Y-60942814D01*
X175233003Y-60942813D01*
X175664338Y-60511478D01*
X175664339Y-60511479D01*
X175752716Y-60423101D01*
X175752727Y-60423092D01*
X175789780Y-60386039D01*
X175789779Y-60386038D01*
X176221114Y-59954703D01*
X176221115Y-59954704D01*
X176276129Y-59899690D01*
X176276138Y-59899679D01*
X176364516Y-59811302D01*
X176364515Y-59811301D01*
X176795850Y-59379966D01*
X176795851Y-59379967D01*
X176921292Y-59254526D01*
X176921291Y-59254525D01*
X177352626Y-58823190D01*
X178466461Y-59937025D01*
X178466461Y-59937025D01*
G37*
G36*
X175609072Y-65079960D02*
G01*
X174687698Y-66001334D01*
X173838166Y-65151802D01*
X174759540Y-64230428D01*
X175609072Y-65079960D01*
X175609072Y-65079960D01*
G37*
G36*
X164694870Y-65942210D02*
G01*
X163391850Y-65942210D01*
X163391850Y-64740790D01*
X164694870Y-64740790D01*
X164694870Y-65942210D01*
X164694870Y-65942210D01*
G37*
G36*
X162998150Y-65942210D02*
G01*
X161695130Y-65942210D01*
X161695130Y-64740790D01*
X162998150Y-64740790D01*
X162998150Y-65942210D01*
X162998150Y-65942210D01*
G37*
G36*
X158883350Y-65891410D02*
G01*
X157580330Y-65891410D01*
X157580330Y-64689990D01*
X158883350Y-64689990D01*
X158883350Y-65891410D01*
X158883350Y-65891410D01*
G37*
G36*
X160580070Y-65891410D02*
G01*
X159277050Y-65891410D01*
X159277050Y-64689990D01*
X160580070Y-64689990D01*
X160580070Y-65891410D01*
X160580070Y-65891410D01*
G37*
G36*
X185800406Y-63959293D02*
G01*
X185973477Y-64030981D01*
X185973478Y-64030982D01*
X186129238Y-64135057D01*
X186261701Y-64267520D01*
X186296106Y-64319011D01*
X186365777Y-64423281D01*
X186437465Y-64596352D01*
X186474011Y-64780080D01*
X186474011Y-64967414D01*
X186437465Y-65151142D01*
X186365777Y-65324213D01*
X186358733Y-65334755D01*
X186261701Y-65479974D01*
X186129238Y-65612437D01*
X186052691Y-65663584D01*
X185973477Y-65716513D01*
X185800406Y-65788201D01*
X185616678Y-65824747D01*
X185429344Y-65824747D01*
X185245616Y-65788201D01*
X185072545Y-65716513D01*
X184993331Y-65663584D01*
X184916784Y-65612437D01*
X184784321Y-65479974D01*
X184687289Y-65334755D01*
X184680245Y-65324213D01*
X184608557Y-65151142D01*
X184572011Y-64967414D01*
X184572011Y-64780080D01*
X184608557Y-64596352D01*
X184680245Y-64423281D01*
X184749916Y-64319011D01*
X184784321Y-64267520D01*
X184916784Y-64135057D01*
X185072544Y-64030982D01*
X185072545Y-64030981D01*
X185245616Y-63959293D01*
X185429344Y-63922747D01*
X185616678Y-63922747D01*
X185800406Y-63959293D01*
X185800406Y-63959293D01*
G37*
G36*
X176808834Y-63880198D02*
G01*
X175887460Y-64801572D01*
X175037928Y-63952040D01*
X175959302Y-63030666D01*
X176808834Y-63880198D01*
X176808834Y-63880198D01*
G37*
G36*
X164365231Y-63417505D02*
G01*
X164399209Y-63427813D01*
X164430530Y-63444554D01*
X164457979Y-63467081D01*
X164480506Y-63494530D01*
X164497247Y-63525851D01*
X164507555Y-63559829D01*
X164511640Y-63601310D01*
X164511640Y-64277530D01*
X164507555Y-64319011D01*
X164497247Y-64352989D01*
X164480506Y-64384310D01*
X164457979Y-64411759D01*
X164430530Y-64434286D01*
X164399209Y-64451027D01*
X164365231Y-64461335D01*
X164323750Y-64465420D01*
X163722530Y-64465420D01*
X163681049Y-64461335D01*
X163647071Y-64451027D01*
X163615750Y-64434286D01*
X163588301Y-64411759D01*
X163565774Y-64384310D01*
X163549033Y-64352989D01*
X163538725Y-64319011D01*
X163534640Y-64277530D01*
X163534640Y-63601310D01*
X163538725Y-63559829D01*
X163549033Y-63525851D01*
X163565774Y-63494530D01*
X163588301Y-63467081D01*
X163615750Y-63444554D01*
X163647071Y-63427813D01*
X163681049Y-63417505D01*
X163722530Y-63413420D01*
X164323750Y-63413420D01*
X164365231Y-63417505D01*
X164365231Y-63417505D01*
G37*
G36*
X162790231Y-63417505D02*
G01*
X162824209Y-63427813D01*
X162855530Y-63444554D01*
X162882979Y-63467081D01*
X162905506Y-63494530D01*
X162922247Y-63525851D01*
X162932555Y-63559829D01*
X162936640Y-63601310D01*
X162936640Y-64277530D01*
X162932555Y-64319011D01*
X162922247Y-64352989D01*
X162905506Y-64384310D01*
X162882979Y-64411759D01*
X162855530Y-64434286D01*
X162824209Y-64451027D01*
X162790231Y-64461335D01*
X162748750Y-64465420D01*
X162147530Y-64465420D01*
X162106049Y-64461335D01*
X162072071Y-64451027D01*
X162040750Y-64434286D01*
X162013301Y-64411759D01*
X161990774Y-64384310D01*
X161974033Y-64352989D01*
X161963725Y-64319011D01*
X161959640Y-64277530D01*
X161959640Y-63601310D01*
X161963725Y-63559829D01*
X161974033Y-63525851D01*
X161990774Y-63494530D01*
X162013301Y-63467081D01*
X162040750Y-63444554D01*
X162072071Y-63427813D01*
X162106049Y-63417505D01*
X162147530Y-63413420D01*
X162748750Y-63413420D01*
X162790231Y-63417505D01*
X162790231Y-63417505D01*
G37*
G36*
X158633160Y-63896240D02*
G01*
X157530800Y-63896240D01*
X157530800Y-62895480D01*
X158633160Y-62895480D01*
X158633160Y-63896240D01*
X158633160Y-63896240D01*
G37*
G36*
X155225750Y-63757810D02*
G01*
X153922730Y-63757810D01*
X153922730Y-62556390D01*
X155225750Y-62556390D01*
X155225750Y-63757810D01*
X155225750Y-63757810D01*
G37*
G36*
X156922470Y-63757810D02*
G01*
X155619450Y-63757810D01*
X155619450Y-62556390D01*
X156922470Y-62556390D01*
X156922470Y-63757810D01*
X156922470Y-63757810D01*
G37*
G36*
X163038790Y-63148210D02*
G01*
X161735770Y-63148210D01*
X161735770Y-61946790D01*
X163038790Y-61946790D01*
X163038790Y-63148210D01*
X163038790Y-63148210D01*
G37*
G36*
X164735510Y-63148210D02*
G01*
X163432490Y-63148210D01*
X163432490Y-61946790D01*
X164735510Y-61946790D01*
X164735510Y-63148210D01*
X164735510Y-63148210D01*
G37*
G36*
X182824120Y-63032640D02*
G01*
X181792880Y-63032640D01*
X181792880Y-62199520D01*
X182824120Y-62199520D01*
X182824120Y-63032640D01*
X182824120Y-63032640D01*
G37*
G36*
X160731200Y-62946280D02*
G01*
X159628840Y-62946280D01*
X159628840Y-61945520D01*
X160731200Y-61945520D01*
X160731200Y-62946280D01*
X160731200Y-62946280D01*
G37*
G36*
X181342591Y-61517585D02*
G01*
X181376569Y-61527893D01*
X181407890Y-61544634D01*
X181435339Y-61567161D01*
X181457866Y-61594610D01*
X181474607Y-61625931D01*
X181484915Y-61659909D01*
X181489000Y-61701390D01*
X181489000Y-62377610D01*
X181484915Y-62419091D01*
X181474607Y-62453069D01*
X181457866Y-62484390D01*
X181435339Y-62511839D01*
X181407890Y-62534366D01*
X181376569Y-62551107D01*
X181342591Y-62561415D01*
X181301110Y-62565500D01*
X180699890Y-62565500D01*
X180658409Y-62561415D01*
X180624431Y-62551107D01*
X180593110Y-62534366D01*
X180565661Y-62511839D01*
X180543134Y-62484390D01*
X180526393Y-62453069D01*
X180516085Y-62419091D01*
X180512000Y-62377610D01*
X180512000Y-61701390D01*
X180516085Y-61659909D01*
X180526393Y-61625931D01*
X180543134Y-61594610D01*
X180565661Y-61567161D01*
X180593110Y-61544634D01*
X180624431Y-61527893D01*
X180658409Y-61517585D01*
X180699890Y-61513500D01*
X181301110Y-61513500D01*
X181342591Y-61517585D01*
X181342591Y-61517585D01*
G37*
G36*
X179767591Y-61517585D02*
G01*
X179801569Y-61527893D01*
X179832890Y-61544634D01*
X179860339Y-61567161D01*
X179882866Y-61594610D01*
X179899607Y-61625931D01*
X179909915Y-61659909D01*
X179914000Y-61701390D01*
X179914000Y-62377610D01*
X179909915Y-62419091D01*
X179899607Y-62453069D01*
X179882866Y-62484390D01*
X179860339Y-62511839D01*
X179832890Y-62534366D01*
X179801569Y-62551107D01*
X179767591Y-62561415D01*
X179726110Y-62565500D01*
X179124890Y-62565500D01*
X179083409Y-62561415D01*
X179049431Y-62551107D01*
X179018110Y-62534366D01*
X178990661Y-62511839D01*
X178968134Y-62484390D01*
X178951393Y-62453069D01*
X178941085Y-62419091D01*
X178937000Y-62377610D01*
X178937000Y-61701390D01*
X178941085Y-61659909D01*
X178951393Y-61625931D01*
X178968134Y-61594610D01*
X178990661Y-61567161D01*
X179018110Y-61544634D01*
X179049431Y-61527893D01*
X179083409Y-61517585D01*
X179124890Y-61513500D01*
X179726110Y-61513500D01*
X179767591Y-61517585D01*
X179767591Y-61517585D01*
G37*
G36*
X185050430Y-62081410D02*
G01*
X183249570Y-62081410D01*
X183249570Y-60478670D01*
X185050430Y-60478670D01*
X185050430Y-62081410D01*
X185050430Y-62081410D01*
G37*
G36*
X155261310Y-62081410D02*
G01*
X153958290Y-62081410D01*
X153958290Y-60879990D01*
X155261310Y-60879990D01*
X155261310Y-62081410D01*
X155261310Y-62081410D01*
G37*
G36*
X156958030Y-62081410D02*
G01*
X155655010Y-62081410D01*
X155655010Y-60879990D01*
X156958030Y-60879990D01*
X156958030Y-62081410D01*
X156958030Y-62081410D01*
G37*
G36*
X158633160Y-61996320D02*
G01*
X157530800Y-61996320D01*
X157530800Y-60995560D01*
X158633160Y-60995560D01*
X158633160Y-61996320D01*
X158633160Y-61996320D01*
G37*
G36*
X180016150Y-61116210D02*
G01*
X178713130Y-61116210D01*
X178713130Y-59992130D01*
X178710728Y-59967744D01*
X178703615Y-59944295D01*
X178699729Y-59937025D01*
X178703615Y-59929755D01*
X178708154Y-59914790D01*
X180016150Y-59914790D01*
X180016150Y-61116210D01*
X180016150Y-61116210D01*
G37*
G36*
X182824120Y-60736480D02*
G01*
X181837869Y-60736480D01*
X181813483Y-60738882D01*
X181790034Y-60745995D01*
X181768423Y-60757546D01*
X181749481Y-60773091D01*
X181733936Y-60792033D01*
X181722385Y-60813644D01*
X181715272Y-60837093D01*
X181712870Y-60861479D01*
X181712870Y-61116210D01*
X180409850Y-61116210D01*
X180409850Y-59914790D01*
X181667881Y-59914790D01*
X181692267Y-59912388D01*
X181715716Y-59905275D01*
X181719299Y-59903360D01*
X182824120Y-59903360D01*
X182824120Y-60736480D01*
X182824120Y-60736480D01*
G37*
G36*
X162789870Y-60862210D02*
G01*
X161486850Y-60862210D01*
X161486850Y-59660790D01*
X162789870Y-59660790D01*
X162789870Y-60862210D01*
X162789870Y-60862210D01*
G37*
G36*
X161093150Y-60862210D02*
G01*
X159790130Y-60862210D01*
X159790130Y-59660790D01*
X161093150Y-59660790D01*
X161093150Y-60862210D01*
X161093150Y-60862210D01*
G37*
G36*
X155159710Y-60303410D02*
G01*
X153856690Y-60303410D01*
X153856690Y-59101990D01*
X155159710Y-59101990D01*
X155159710Y-60303410D01*
X155159710Y-60303410D01*
G37*
G36*
X159095440Y-59394090D02*
G01*
X156981429Y-59394090D01*
X156957043Y-59396492D01*
X156933594Y-59403605D01*
X156911983Y-59415156D01*
X156893041Y-59430701D01*
X156877496Y-59449643D01*
X156865945Y-59471254D01*
X156858832Y-59494703D01*
X156856430Y-59519089D01*
X156856430Y-60303410D01*
X155553410Y-60303410D01*
X155553410Y-59101990D01*
X156867321Y-59101990D01*
X156891707Y-59099588D01*
X156915156Y-59092475D01*
X156936767Y-59080924D01*
X156955709Y-59065379D01*
X156971254Y-59046437D01*
X156982805Y-59024826D01*
X156989918Y-59001377D01*
X156992320Y-58976991D01*
X156992320Y-58091070D01*
X159095440Y-58091070D01*
X159095440Y-59394090D01*
X159095440Y-59394090D01*
G37*
G36*
X162793680Y-59394090D02*
G01*
X160690560Y-59394090D01*
X160690560Y-58091070D01*
X162793680Y-58091070D01*
X162793680Y-59394090D01*
X162793680Y-59394090D01*
G37*
G36*
X182562500Y-59347100D02*
G01*
X180911500Y-59347100D01*
X180911500Y-57873900D01*
X182562500Y-57873900D01*
X182562500Y-59347100D01*
X182562500Y-59347100D01*
G37*
G36*
X185050430Y-59282330D02*
G01*
X183249570Y-59282330D01*
X183249570Y-57679590D01*
X185050430Y-57679590D01*
X185050430Y-59282330D01*
X185050430Y-59282330D01*
G37*
G36*
X180414930Y-58969910D02*
G01*
X178614070Y-58969910D01*
X178614070Y-57367170D01*
X180414930Y-57367170D01*
X180414930Y-58969910D01*
X180414930Y-58969910D01*
G37*
G36*
X186110880Y-56772501D02*
G01*
X186113282Y-56796887D01*
X186120395Y-56820336D01*
X186131946Y-56841947D01*
X186147491Y-56860889D01*
X186166433Y-56876434D01*
X186188044Y-56887985D01*
X186211493Y-56895098D01*
X186235879Y-56897500D01*
X186388908Y-56897500D01*
X186572636Y-56934046D01*
X186745707Y-57005734D01*
X186745708Y-57005735D01*
X186901468Y-57109810D01*
X187033931Y-57242273D01*
X187042812Y-57255565D01*
X187138007Y-57398034D01*
X187209695Y-57571105D01*
X187246241Y-57754833D01*
X187246241Y-57942167D01*
X187209695Y-58125895D01*
X187138007Y-58298966D01*
X187138006Y-58298967D01*
X187033931Y-58454727D01*
X186901468Y-58587190D01*
X186823059Y-58639581D01*
X186745707Y-58691266D01*
X186572636Y-58762954D01*
X186388908Y-58799500D01*
X186201574Y-58799500D01*
X186017846Y-58762954D01*
X185844775Y-58691266D01*
X185767423Y-58639581D01*
X185689014Y-58587190D01*
X185556551Y-58454727D01*
X185452476Y-58298967D01*
X185452475Y-58298966D01*
X185380787Y-58125895D01*
X185344241Y-57942167D01*
X185344241Y-57754833D01*
X185380787Y-57571105D01*
X185452475Y-57398034D01*
X185486585Y-57346985D01*
X185498136Y-57325374D01*
X185505249Y-57301926D01*
X185507651Y-57277539D01*
X185505249Y-57253153D01*
X185498136Y-57229704D01*
X185486585Y-57208094D01*
X185471040Y-57189152D01*
X185452098Y-57173606D01*
X185430487Y-57162055D01*
X185407039Y-57154942D01*
X185382652Y-57152540D01*
X183459120Y-57152540D01*
X183459120Y-55750460D01*
X186110880Y-55750460D01*
X186110880Y-56772501D01*
X186110880Y-56772501D01*
G37*
G36*
X155585691Y-56618507D02*
G01*
X155758762Y-56690195D01*
X155758763Y-56690196D01*
X155914523Y-56794271D01*
X156046986Y-56926734D01*
X156051872Y-56934047D01*
X156151062Y-57082495D01*
X156222750Y-57255566D01*
X156259296Y-57439294D01*
X156259296Y-57626628D01*
X156222750Y-57810356D01*
X156151062Y-57983427D01*
X156151061Y-57983428D01*
X156046986Y-58139188D01*
X155914523Y-58271651D01*
X155836114Y-58324042D01*
X155758762Y-58375727D01*
X155585691Y-58447415D01*
X155401963Y-58483961D01*
X155214629Y-58483961D01*
X155030901Y-58447415D01*
X154857830Y-58375727D01*
X154780478Y-58324042D01*
X154702069Y-58271651D01*
X154569606Y-58139188D01*
X154465531Y-57983428D01*
X154465530Y-57983427D01*
X154393842Y-57810356D01*
X154357296Y-57626628D01*
X154357296Y-57439294D01*
X154393842Y-57255566D01*
X154465530Y-57082495D01*
X154564720Y-56934047D01*
X154569606Y-56926734D01*
X154702069Y-56794271D01*
X154857829Y-56690196D01*
X154857830Y-56690195D01*
X155030901Y-56618507D01*
X155214629Y-56581961D01*
X155401963Y-56581961D01*
X155585691Y-56618507D01*
X155585691Y-56618507D01*
G37*
G36*
X170348310Y-51818874D02*
G01*
X169360199Y-52806985D01*
X169216797Y-52950386D01*
X168785462Y-53381721D01*
X168660022Y-53507162D01*
X168228687Y-53938497D01*
X168140299Y-54026884D01*
X167653950Y-54513233D01*
X167565562Y-54601620D01*
X167528509Y-54638674D01*
X167097174Y-55070009D01*
X167008786Y-55158396D01*
X166971733Y-55195450D01*
X166485384Y-55681799D01*
X166396997Y-55770187D01*
X165965662Y-56201522D01*
X165840221Y-56326962D01*
X165408886Y-56758297D01*
X165265485Y-56901699D01*
X164277374Y-57889810D01*
X163163539Y-56775975D01*
X163594874Y-56344640D01*
X163594875Y-56344641D01*
X163683262Y-56256253D01*
X163720316Y-56219200D01*
X163720315Y-56219199D01*
X164151650Y-55787864D01*
X164151651Y-55787865D01*
X164206665Y-55732851D01*
X164206674Y-55732840D01*
X164295052Y-55644463D01*
X164295051Y-55644462D01*
X164726386Y-55213127D01*
X164726387Y-55213128D01*
X164814764Y-55124750D01*
X164814775Y-55124741D01*
X164851828Y-55087688D01*
X164851827Y-55087687D01*
X165283162Y-54656352D01*
X165283163Y-54656353D01*
X165338177Y-54601339D01*
X165338186Y-54601328D01*
X165426564Y-54512951D01*
X165426563Y-54512950D01*
X165857898Y-54081615D01*
X165857899Y-54081616D01*
X165983340Y-53956175D01*
X165983339Y-53956174D01*
X166414674Y-53524839D01*
X166414675Y-53524840D01*
X166540116Y-53399399D01*
X166540115Y-53399398D01*
X166971450Y-52968063D01*
X166971451Y-52968064D01*
X167059828Y-52879686D01*
X167059839Y-52879677D01*
X167114853Y-52824663D01*
X167114852Y-52824662D01*
X167546187Y-52393327D01*
X167546188Y-52393328D01*
X167583241Y-52356275D01*
X167583250Y-52356264D01*
X167671628Y-52267887D01*
X167671627Y-52267886D01*
X168102962Y-51836551D01*
X168102963Y-51836552D01*
X168191340Y-51748174D01*
X168191351Y-51748165D01*
X168246365Y-51693151D01*
X168246364Y-51693150D01*
X168677699Y-51261815D01*
X168677700Y-51261816D01*
X168766087Y-51173428D01*
X168803141Y-51136375D01*
X168803140Y-51136374D01*
X169234475Y-50705039D01*
X170348310Y-51818874D01*
X170348310Y-51818874D01*
G37*
G36*
X172826860Y-51136374D02*
G01*
X172826860Y-51136375D01*
X172952301Y-51261816D01*
X172952301Y-51261815D01*
X173383636Y-51693150D01*
X173383636Y-51693151D01*
X173438650Y-51748165D01*
X173438656Y-51748170D01*
X173527038Y-51836552D01*
X173527038Y-51836551D01*
X173958373Y-52267886D01*
X173958373Y-52267887D01*
X174046755Y-52356269D01*
X174046760Y-52356275D01*
X174083813Y-52393328D01*
X174083813Y-52393327D01*
X174515148Y-52824662D01*
X174515148Y-52824663D01*
X174570162Y-52879677D01*
X174570168Y-52879682D01*
X174658550Y-52968064D01*
X174658550Y-52968063D01*
X174689749Y-52999262D01*
X174708685Y-53014802D01*
X174730296Y-53026353D01*
X174736197Y-53028143D01*
X174737987Y-53034044D01*
X174749538Y-53055655D01*
X174765078Y-53074591D01*
X175089885Y-53399398D01*
X175089885Y-53399399D01*
X175215326Y-53524840D01*
X175215326Y-53524839D01*
X175646661Y-53956174D01*
X175646661Y-53956175D01*
X175772102Y-54081616D01*
X175772102Y-54081615D01*
X176203437Y-54512950D01*
X176203437Y-54512951D01*
X176291819Y-54601333D01*
X176291824Y-54601339D01*
X176346838Y-54656353D01*
X176346838Y-54656352D01*
X176778173Y-55087687D01*
X176778173Y-55087688D01*
X176815226Y-55124741D01*
X176815232Y-55124746D01*
X176903614Y-55213128D01*
X176903614Y-55213127D01*
X177334949Y-55644462D01*
X177334949Y-55644463D01*
X177423331Y-55732845D01*
X177423336Y-55732851D01*
X177478350Y-55787865D01*
X177478350Y-55787864D01*
X177909685Y-56219199D01*
X177909685Y-56219200D01*
X178035126Y-56344641D01*
X178035126Y-56344640D01*
X178466461Y-56775975D01*
X177352626Y-57889810D01*
X176921291Y-57458475D01*
X176921292Y-57458475D01*
X176795851Y-57333034D01*
X176795850Y-57333034D01*
X176364515Y-56901699D01*
X176364516Y-56901699D01*
X176276134Y-56813317D01*
X176276129Y-56813311D01*
X176221115Y-56758297D01*
X176221114Y-56758297D01*
X175789779Y-56326962D01*
X175789780Y-56326962D01*
X175752727Y-56289909D01*
X175752721Y-56289904D01*
X175664339Y-56201522D01*
X175664338Y-56201522D01*
X175233003Y-55770187D01*
X175233004Y-55770187D01*
X175144622Y-55681805D01*
X175144617Y-55681799D01*
X175089603Y-55626785D01*
X175089602Y-55626785D01*
X174658267Y-55195450D01*
X174658268Y-55195450D01*
X174532827Y-55070009D01*
X174532826Y-55070009D01*
X174101491Y-54638674D01*
X174101492Y-54638674D01*
X173976051Y-54513233D01*
X173976050Y-54513233D01*
X173544715Y-54081898D01*
X173544716Y-54081898D01*
X173489702Y-54026884D01*
X173489696Y-54026879D01*
X173401314Y-53938497D01*
X173401313Y-53938497D01*
X172969978Y-53507162D01*
X172969979Y-53507162D01*
X172881597Y-53418780D01*
X172881592Y-53418774D01*
X172844539Y-53381721D01*
X172844538Y-53381721D01*
X172413203Y-52950386D01*
X172413204Y-52950386D01*
X172358190Y-52895372D01*
X172358184Y-52895367D01*
X172269802Y-52806985D01*
X172269801Y-52806985D01*
X171838466Y-52375650D01*
X171838467Y-52375650D01*
X171713026Y-52250209D01*
X171713025Y-52250209D01*
X171281690Y-51818874D01*
X172395525Y-50705039D01*
X172826860Y-51136374D01*
X172826860Y-51136374D01*
G37*
G36*
X182800000Y-57306000D02*
G01*
X180928000Y-57306000D01*
X180928000Y-56264000D01*
X182800000Y-56264000D01*
X182800000Y-57306000D01*
X182800000Y-57306000D01*
G37*
G36*
X159095440Y-57097930D02*
G01*
X156992320Y-57097930D01*
X156992320Y-55794910D01*
X159095440Y-55794910D01*
X159095440Y-57097930D01*
X159095440Y-57097930D01*
G37*
G36*
X162793680Y-57097930D02*
G01*
X160690560Y-57097930D01*
X160690560Y-55794910D01*
X162793680Y-55794910D01*
X162793680Y-57097930D01*
X162793680Y-57097930D01*
G37*
G36*
X188266179Y-54946130D02*
G01*
X188394479Y-54999274D01*
X188394481Y-54999275D01*
X188509949Y-55076429D01*
X188608147Y-55174627D01*
X188651202Y-55239062D01*
X188685302Y-55290097D01*
X188738446Y-55418397D01*
X188765538Y-55554600D01*
X188765538Y-55693476D01*
X188738446Y-55829679D01*
X188695539Y-55933264D01*
X188685301Y-55957981D01*
X188608147Y-56073449D01*
X188509949Y-56171647D01*
X188394481Y-56248801D01*
X188394480Y-56248802D01*
X188394479Y-56248802D01*
X188266179Y-56301946D01*
X188129976Y-56329038D01*
X187991100Y-56329038D01*
X187854897Y-56301946D01*
X187726597Y-56248802D01*
X187726596Y-56248802D01*
X187726595Y-56248801D01*
X187611127Y-56171647D01*
X187512929Y-56073449D01*
X187435775Y-55957981D01*
X187425537Y-55933264D01*
X187382630Y-55829679D01*
X187355538Y-55693476D01*
X187355538Y-55554600D01*
X187382630Y-55418397D01*
X187435774Y-55290097D01*
X187469875Y-55239062D01*
X187512929Y-55174627D01*
X187611127Y-55076429D01*
X187726595Y-54999275D01*
X187726597Y-54999274D01*
X187854897Y-54946130D01*
X187991100Y-54919038D01*
X188129976Y-54919038D01*
X188266179Y-54946130D01*
X188266179Y-54946130D01*
G37*
G36*
X179553870Y-54443091D02*
G01*
X179556272Y-54467477D01*
X179563385Y-54490926D01*
X179574936Y-54512537D01*
X179590481Y-54531479D01*
X179609423Y-54547024D01*
X179631034Y-54558575D01*
X179654483Y-54565688D01*
X179678869Y-54568090D01*
X180414930Y-54568090D01*
X180414930Y-56170830D01*
X178614070Y-56170830D01*
X178614070Y-54446709D01*
X178611668Y-54422323D01*
X178604555Y-54398874D01*
X178593004Y-54377263D01*
X178577459Y-54358321D01*
X178558517Y-54342776D01*
X178536906Y-54331225D01*
X178513457Y-54324112D01*
X178489071Y-54321710D01*
X178250850Y-54321710D01*
X178250850Y-53120290D01*
X179553870Y-53120290D01*
X179553870Y-54443091D01*
X179553870Y-54443091D01*
G37*
G36*
X153748641Y-54630592D02*
G01*
X153876941Y-54683736D01*
X153876943Y-54683737D01*
X153992411Y-54760891D01*
X154090609Y-54859089D01*
X154148769Y-54946130D01*
X154167764Y-54974559D01*
X154220908Y-55102859D01*
X154248000Y-55239062D01*
X154248000Y-55377938D01*
X154220908Y-55514141D01*
X154204148Y-55554602D01*
X154167763Y-55642443D01*
X154090609Y-55757911D01*
X153992411Y-55856109D01*
X153876943Y-55933263D01*
X153876942Y-55933264D01*
X153876941Y-55933264D01*
X153748641Y-55986408D01*
X153612438Y-56013500D01*
X153473562Y-56013500D01*
X153337359Y-55986408D01*
X153209059Y-55933264D01*
X153209058Y-55933264D01*
X153209057Y-55933263D01*
X153093589Y-55856109D01*
X152995391Y-55757911D01*
X152918237Y-55642443D01*
X152881852Y-55554602D01*
X152865092Y-55514141D01*
X152838000Y-55377938D01*
X152838000Y-55239062D01*
X152865092Y-55102859D01*
X152918236Y-54974559D01*
X152937232Y-54946130D01*
X152995391Y-54859089D01*
X153093589Y-54760891D01*
X153209057Y-54683737D01*
X153209059Y-54683736D01*
X153337359Y-54630592D01*
X153473562Y-54603500D01*
X153612438Y-54603500D01*
X153748641Y-54630592D01*
X153748641Y-54630592D01*
G37*
G36*
X163043870Y-55274210D02*
G01*
X161740850Y-55274210D01*
X161740850Y-54072790D01*
X163043870Y-54072790D01*
X163043870Y-55274210D01*
X163043870Y-55274210D01*
G37*
G36*
X161347150Y-55274210D02*
G01*
X160044130Y-55274210D01*
X160044130Y-54072790D01*
X161347150Y-54072790D01*
X161347150Y-55274210D01*
X161347150Y-55274210D01*
G37*
G36*
X158045150Y-55264050D02*
G01*
X156742130Y-55264050D01*
X156742130Y-54062630D01*
X158045150Y-54062630D01*
X158045150Y-55264050D01*
X158045150Y-55264050D01*
G37*
G36*
X159741870Y-55264050D02*
G01*
X158438850Y-55264050D01*
X158438850Y-54062630D01*
X159741870Y-54062630D01*
X159741870Y-55264050D01*
X159741870Y-55264050D01*
G37*
G36*
X184210960Y-54556660D02*
G01*
X183459120Y-54556660D01*
X183459120Y-53154580D01*
X184210960Y-53154580D01*
X184210960Y-54556660D01*
X184210960Y-54556660D01*
G37*
G36*
X186110880Y-54556660D02*
G01*
X185359040Y-54556660D01*
X185359040Y-53154580D01*
X186110880Y-53154580D01*
X186110880Y-54556660D01*
X186110880Y-54556660D01*
G37*
G36*
X182800000Y-54376000D02*
G01*
X180928000Y-54376000D01*
X180928000Y-53184000D01*
X182800000Y-53184000D01*
X182800000Y-54376000D01*
X182800000Y-54376000D01*
G37*
G36*
X177857150Y-54321710D02*
G01*
X176554130Y-54321710D01*
X176554130Y-53120290D01*
X177857150Y-53120290D01*
X177857150Y-54321710D01*
X177857150Y-54321710D01*
G37*
G36*
X179437030Y-52856130D02*
G01*
X178027869Y-52856130D01*
X178003483Y-52858532D01*
X177994655Y-52861210D01*
X176599850Y-52861210D01*
X176599850Y-51659790D01*
X178009011Y-51659790D01*
X178033397Y-51657388D01*
X178042225Y-51654710D01*
X179437030Y-51654710D01*
X179437030Y-52856130D01*
X179437030Y-52856130D01*
G37*
G36*
X176206150Y-52861210D02*
G01*
X174903130Y-52861210D01*
X174903130Y-51659790D01*
X176206150Y-51659790D01*
X176206150Y-52861210D01*
X176206150Y-52861210D01*
G37*
G36*
X181133750Y-52856130D02*
G01*
X179830730Y-52856130D01*
X179830730Y-51654710D01*
X181133750Y-51654710D01*
X181133750Y-52856130D01*
X181133750Y-52856130D01*
G37*
G36*
X183620648Y-50603486D02*
G01*
X183793719Y-50675174D01*
X183871071Y-50726859D01*
X183949480Y-50779250D01*
X184081943Y-50911713D01*
X184100109Y-50938901D01*
X184186019Y-51067474D01*
X184257707Y-51240545D01*
X184294253Y-51424273D01*
X184294253Y-51611607D01*
X184257707Y-51795335D01*
X184186019Y-51968406D01*
X184134901Y-52044910D01*
X184081943Y-52124167D01*
X183949480Y-52256630D01*
X183883824Y-52300500D01*
X183793719Y-52360706D01*
X183620648Y-52432394D01*
X183436920Y-52468940D01*
X183249586Y-52468940D01*
X183065858Y-52432394D01*
X182892787Y-52360706D01*
X182802682Y-52300500D01*
X182737026Y-52256630D01*
X182604563Y-52124167D01*
X182551605Y-52044910D01*
X182500487Y-51968406D01*
X182428799Y-51795335D01*
X182392253Y-51611607D01*
X182392253Y-51424273D01*
X182428799Y-51240545D01*
X182500487Y-51067474D01*
X182586397Y-50938901D01*
X182604563Y-50911713D01*
X182737026Y-50779250D01*
X182815435Y-50726859D01*
X182892787Y-50675174D01*
X183065858Y-50603486D01*
X183249586Y-50566940D01*
X183436920Y-50566940D01*
X183620648Y-50603486D01*
X183620648Y-50603486D01*
G37*
G36*
X186387641Y-50917592D02*
G01*
X186515941Y-50970736D01*
X186515943Y-50970737D01*
X186631411Y-51047891D01*
X186729609Y-51146089D01*
X186772664Y-51210524D01*
X186806764Y-51261559D01*
X186859908Y-51389859D01*
X186887000Y-51526062D01*
X186887000Y-51664938D01*
X186859908Y-51801141D01*
X186817001Y-51904726D01*
X186806763Y-51929443D01*
X186729609Y-52044911D01*
X186631411Y-52143109D01*
X186515943Y-52220263D01*
X186515942Y-52220264D01*
X186515941Y-52220264D01*
X186387641Y-52273408D01*
X186251438Y-52300500D01*
X186112562Y-52300500D01*
X185976359Y-52273408D01*
X185848059Y-52220264D01*
X185848058Y-52220264D01*
X185848057Y-52220263D01*
X185732589Y-52143109D01*
X185634391Y-52044911D01*
X185557237Y-51929443D01*
X185546999Y-51904726D01*
X185504092Y-51801141D01*
X185477000Y-51664938D01*
X185477000Y-51526062D01*
X185504092Y-51389859D01*
X185557236Y-51261559D01*
X185591337Y-51210524D01*
X185634391Y-51146089D01*
X185732589Y-51047891D01*
X185848057Y-50970737D01*
X185848059Y-50970736D01*
X185976359Y-50917592D01*
X186112562Y-50890500D01*
X186251438Y-50890500D01*
X186387641Y-50917592D01*
X186387641Y-50917592D01*
G37*
G36*
X158537680Y-50287948D02*
G01*
X158710751Y-50359636D01*
X158710752Y-50359637D01*
X158866512Y-50463712D01*
X158998975Y-50596175D01*
X159038413Y-50655198D01*
X159103051Y-50751936D01*
X159174739Y-50925007D01*
X159211285Y-51108735D01*
X159211285Y-51296069D01*
X159174739Y-51479797D01*
X159103051Y-51652868D01*
X159103050Y-51652869D01*
X158998975Y-51808629D01*
X158866512Y-51941092D01*
X158825632Y-51968407D01*
X158710751Y-52045168D01*
X158537680Y-52116856D01*
X158353952Y-52153402D01*
X158166618Y-52153402D01*
X157982890Y-52116856D01*
X157809819Y-52045168D01*
X157694938Y-51968407D01*
X157654058Y-51941092D01*
X157521595Y-51808629D01*
X157417520Y-51652869D01*
X157417519Y-51652868D01*
X157345831Y-51479797D01*
X157309285Y-51296069D01*
X157309285Y-51108735D01*
X157345831Y-50925007D01*
X157417519Y-50751936D01*
X157482157Y-50655198D01*
X157521595Y-50596175D01*
X157654058Y-50463712D01*
X157809818Y-50359637D01*
X157809819Y-50359636D01*
X157982890Y-50287948D01*
X158166618Y-50251402D01*
X158353952Y-50251402D01*
X158537680Y-50287948D01*
X158537680Y-50287948D01*
G37*
G36*
X155627179Y-50602054D02*
G01*
X155755479Y-50655198D01*
X155755481Y-50655199D01*
X155870949Y-50732353D01*
X155969147Y-50830551D01*
X156027307Y-50917592D01*
X156046302Y-50946021D01*
X156099446Y-51074321D01*
X156126538Y-51210524D01*
X156126538Y-51349400D01*
X156099446Y-51485603D01*
X156082686Y-51526064D01*
X156046301Y-51613905D01*
X155969147Y-51729373D01*
X155870949Y-51827571D01*
X155755481Y-51904725D01*
X155755480Y-51904726D01*
X155755479Y-51904726D01*
X155627179Y-51957870D01*
X155490976Y-51984962D01*
X155352100Y-51984962D01*
X155215897Y-51957870D01*
X155087597Y-51904726D01*
X155087596Y-51904726D01*
X155087595Y-51904725D01*
X154972127Y-51827571D01*
X154873929Y-51729373D01*
X154796775Y-51613905D01*
X154760390Y-51526064D01*
X154743630Y-51485603D01*
X154716538Y-51349400D01*
X154716538Y-51210524D01*
X154743630Y-51074321D01*
X154796774Y-50946021D01*
X154815770Y-50917592D01*
X154873929Y-50830551D01*
X154972127Y-50732353D01*
X155087595Y-50655199D01*
X155087597Y-50655198D01*
X155215897Y-50602054D01*
X155352100Y-50574962D01*
X155490976Y-50574962D01*
X155627179Y-50602054D01*
X155627179Y-50602054D01*
G37*
G36*
X177902870Y-51210210D02*
G01*
X176599850Y-51210210D01*
X176599850Y-50008790D01*
X177902870Y-50008790D01*
X177902870Y-51210210D01*
X177902870Y-51210210D01*
G37*
G36*
X176206150Y-51210210D02*
G01*
X174903130Y-51210210D01*
X174903130Y-50008790D01*
X176206150Y-50008790D01*
X176206150Y-51210210D01*
X176206150Y-51210210D01*
G37*
G36*
X180580591Y-50087585D02*
G01*
X180614569Y-50097893D01*
X180645890Y-50114634D01*
X180673339Y-50137161D01*
X180695866Y-50164610D01*
X180712607Y-50195931D01*
X180722915Y-50229909D01*
X180727000Y-50271390D01*
X180727000Y-50947610D01*
X180722915Y-50989091D01*
X180712607Y-51023069D01*
X180695866Y-51054390D01*
X180673339Y-51081839D01*
X180645890Y-51104366D01*
X180614569Y-51121107D01*
X180580591Y-51131415D01*
X180539110Y-51135500D01*
X179937890Y-51135500D01*
X179896409Y-51131415D01*
X179862431Y-51121107D01*
X179831110Y-51104366D01*
X179803661Y-51081839D01*
X179781134Y-51054390D01*
X179764393Y-51023069D01*
X179754085Y-50989091D01*
X179750000Y-50947610D01*
X179750000Y-50271390D01*
X179754085Y-50229909D01*
X179764393Y-50195931D01*
X179781134Y-50164610D01*
X179803661Y-50137161D01*
X179831110Y-50114634D01*
X179862431Y-50097893D01*
X179896409Y-50087585D01*
X179937890Y-50083500D01*
X180539110Y-50083500D01*
X180580591Y-50087585D01*
X180580591Y-50087585D01*
G37*
G36*
X179005591Y-50087585D02*
G01*
X179039569Y-50097893D01*
X179070890Y-50114634D01*
X179098339Y-50137161D01*
X179120866Y-50164610D01*
X179137607Y-50195931D01*
X179147915Y-50229909D01*
X179152000Y-50271390D01*
X179152000Y-50947610D01*
X179147915Y-50989091D01*
X179137607Y-51023069D01*
X179120866Y-51054390D01*
X179098339Y-51081839D01*
X179070890Y-51104366D01*
X179039569Y-51121107D01*
X179005591Y-51131415D01*
X178964110Y-51135500D01*
X178362890Y-51135500D01*
X178321409Y-51131415D01*
X178287431Y-51121107D01*
X178256110Y-51104366D01*
X178228661Y-51081839D01*
X178206134Y-51054390D01*
X178189393Y-51023069D01*
X178179085Y-50989091D01*
X178175000Y-50947610D01*
X178175000Y-50271390D01*
X178179085Y-50229909D01*
X178189393Y-50195931D01*
X178206134Y-50164610D01*
X178228661Y-50137161D01*
X178256110Y-50114634D01*
X178287431Y-50097893D01*
X178321409Y-50087585D01*
X178362890Y-50083500D01*
X178964110Y-50083500D01*
X179005591Y-50087585D01*
X179005591Y-50087585D01*
G37*
G36*
X162196928Y-49245264D02*
G01*
X162218009Y-49251660D01*
X162237445Y-49262048D01*
X162254476Y-49276024D01*
X162268452Y-49293055D01*
X162278840Y-49312491D01*
X162285236Y-49333572D01*
X162288000Y-49361640D01*
X162288000Y-49825360D01*
X162285236Y-49853428D01*
X162278840Y-49874509D01*
X162268452Y-49893945D01*
X162254476Y-49910976D01*
X162237445Y-49924952D01*
X162218009Y-49935340D01*
X162196928Y-49941736D01*
X162168860Y-49944500D01*
X160255140Y-49944500D01*
X160227072Y-49941736D01*
X160205991Y-49935340D01*
X160186555Y-49924952D01*
X160169524Y-49910976D01*
X160155548Y-49893945D01*
X160145160Y-49874509D01*
X160138764Y-49853428D01*
X160136000Y-49825360D01*
X160136000Y-49361640D01*
X160138764Y-49333572D01*
X160145160Y-49312491D01*
X160155548Y-49293055D01*
X160169524Y-49276024D01*
X160186555Y-49262048D01*
X160205991Y-49251660D01*
X160227072Y-49245264D01*
X160255140Y-49242500D01*
X162168860Y-49242500D01*
X162196928Y-49245264D01*
X162196928Y-49245264D01*
G37*
G36*
X171496928Y-49245264D02*
G01*
X171518009Y-49251660D01*
X171537445Y-49262048D01*
X171554476Y-49276024D01*
X171568452Y-49293055D01*
X171578840Y-49312491D01*
X171585236Y-49333572D01*
X171588000Y-49361640D01*
X171588000Y-49825360D01*
X171585236Y-49853428D01*
X171578840Y-49874509D01*
X171568452Y-49893945D01*
X171554476Y-49910976D01*
X171537445Y-49924952D01*
X171518009Y-49935340D01*
X171496928Y-49941736D01*
X171468860Y-49944500D01*
X169555140Y-49944500D01*
X169527072Y-49941736D01*
X169505991Y-49935340D01*
X169486555Y-49924952D01*
X169469524Y-49910976D01*
X169455548Y-49893945D01*
X169445160Y-49874509D01*
X169438764Y-49853428D01*
X169436000Y-49825360D01*
X169436000Y-49361640D01*
X169438764Y-49333572D01*
X169445160Y-49312491D01*
X169455548Y-49293055D01*
X169469524Y-49276024D01*
X169486555Y-49262048D01*
X169505991Y-49251660D01*
X169527072Y-49245264D01*
X169555140Y-49242500D01*
X171468860Y-49242500D01*
X171496928Y-49245264D01*
X171496928Y-49245264D01*
G37*
G36*
X182601870Y-49813210D02*
G01*
X181298850Y-49813210D01*
X181298850Y-48611790D01*
X182601870Y-48611790D01*
X182601870Y-49813210D01*
X182601870Y-49813210D01*
G37*
G36*
X180905150Y-49813210D02*
G01*
X179602130Y-49813210D01*
X179602130Y-48611790D01*
X180905150Y-48611790D01*
X180905150Y-49813210D01*
X180905150Y-49813210D01*
G37*
G36*
X179050928Y-48229264D02*
G01*
X179072009Y-48235660D01*
X179091445Y-48246048D01*
X179108476Y-48260024D01*
X179122452Y-48277055D01*
X179132840Y-48296491D01*
X179139236Y-48317572D01*
X179142000Y-48345640D01*
X179142000Y-48809360D01*
X179139236Y-48837428D01*
X179132840Y-48858509D01*
X179122452Y-48877945D01*
X179108476Y-48894976D01*
X179091445Y-48908952D01*
X179072009Y-48919340D01*
X179050928Y-48925736D01*
X179022860Y-48928500D01*
X177209140Y-48928500D01*
X177181072Y-48925736D01*
X177159991Y-48919340D01*
X177140555Y-48908952D01*
X177123524Y-48894976D01*
X177109548Y-48877945D01*
X177099160Y-48858509D01*
X177092764Y-48837428D01*
X177090000Y-48809360D01*
X177090000Y-48345640D01*
X177092764Y-48317572D01*
X177099160Y-48296491D01*
X177109548Y-48277055D01*
X177123524Y-48260024D01*
X177140555Y-48246048D01*
X177159991Y-48235660D01*
X177181072Y-48229264D01*
X177209140Y-48226500D01*
X179022860Y-48226500D01*
X179050928Y-48229264D01*
X179050928Y-48229264D01*
G37*
G36*
X174100928Y-48229264D02*
G01*
X174122009Y-48235660D01*
X174141445Y-48246048D01*
X174158476Y-48260024D01*
X174172452Y-48277055D01*
X174182840Y-48296491D01*
X174189236Y-48317572D01*
X174192000Y-48345640D01*
X174192000Y-48809360D01*
X174189236Y-48837428D01*
X174182840Y-48858509D01*
X174172452Y-48877945D01*
X174158476Y-48894976D01*
X174141445Y-48908952D01*
X174122009Y-48919340D01*
X174100928Y-48925736D01*
X174072860Y-48928500D01*
X172259140Y-48928500D01*
X172231072Y-48925736D01*
X172209991Y-48919340D01*
X172190555Y-48908952D01*
X172173524Y-48894976D01*
X172159548Y-48877945D01*
X172149160Y-48858509D01*
X172142764Y-48837428D01*
X172140000Y-48809360D01*
X172140000Y-48345640D01*
X172142764Y-48317572D01*
X172149160Y-48296491D01*
X172159548Y-48277055D01*
X172173524Y-48260024D01*
X172190555Y-48246048D01*
X172209991Y-48235660D01*
X172231072Y-48229264D01*
X172259140Y-48226500D01*
X174072860Y-48226500D01*
X174100928Y-48229264D01*
X174100928Y-48229264D01*
G37*
G36*
X162196928Y-47975264D02*
G01*
X162218009Y-47981660D01*
X162237445Y-47992048D01*
X162254476Y-48006024D01*
X162268452Y-48023055D01*
X162278840Y-48042491D01*
X162285236Y-48063572D01*
X162288000Y-48091640D01*
X162288000Y-48555360D01*
X162285236Y-48583428D01*
X162278840Y-48604509D01*
X162268452Y-48623945D01*
X162254476Y-48640976D01*
X162237445Y-48654952D01*
X162218009Y-48665340D01*
X162196928Y-48671736D01*
X162168860Y-48674500D01*
X160255140Y-48674500D01*
X160227072Y-48671736D01*
X160205991Y-48665340D01*
X160186555Y-48654952D01*
X160169524Y-48640976D01*
X160155548Y-48623945D01*
X160145160Y-48604509D01*
X160138764Y-48583428D01*
X160136000Y-48555360D01*
X160136000Y-48091640D01*
X160138764Y-48063572D01*
X160145160Y-48042491D01*
X160155548Y-48023055D01*
X160169524Y-48006024D01*
X160186555Y-47992048D01*
X160205991Y-47981660D01*
X160227072Y-47975264D01*
X160255140Y-47972500D01*
X162168860Y-47972500D01*
X162196928Y-47975264D01*
X162196928Y-47975264D01*
G37*
G36*
X171496928Y-47975264D02*
G01*
X171518009Y-47981660D01*
X171537445Y-47992048D01*
X171554476Y-48006024D01*
X171568452Y-48023055D01*
X171578840Y-48042491D01*
X171585236Y-48063572D01*
X171588000Y-48091640D01*
X171588000Y-48555360D01*
X171585236Y-48583428D01*
X171578840Y-48604509D01*
X171568452Y-48623945D01*
X171554476Y-48640976D01*
X171537445Y-48654952D01*
X171518009Y-48665340D01*
X171496928Y-48671736D01*
X171468860Y-48674500D01*
X169555140Y-48674500D01*
X169527072Y-48671736D01*
X169505991Y-48665340D01*
X169486555Y-48654952D01*
X169469524Y-48640976D01*
X169455548Y-48623945D01*
X169445160Y-48604509D01*
X169438764Y-48583428D01*
X169436000Y-48555360D01*
X169436000Y-48091640D01*
X169438764Y-48063572D01*
X169445160Y-48042491D01*
X169455548Y-48023055D01*
X169469524Y-48006024D01*
X169486555Y-47992048D01*
X169505991Y-47981660D01*
X169527072Y-47975264D01*
X169555140Y-47972500D01*
X171468860Y-47972500D01*
X171496928Y-47975264D01*
X171496928Y-47975264D01*
G37*
G36*
X182601870Y-48035210D02*
G01*
X181298850Y-48035210D01*
X181298850Y-46833790D01*
X182601870Y-46833790D01*
X182601870Y-48035210D01*
X182601870Y-48035210D01*
G37*
G36*
X180905150Y-48035210D02*
G01*
X179602130Y-48035210D01*
X179602130Y-46833790D01*
X180905150Y-46833790D01*
X180905150Y-48035210D01*
X180905150Y-48035210D01*
G37*
G36*
X174100928Y-46959264D02*
G01*
X174122009Y-46965660D01*
X174141445Y-46976048D01*
X174158476Y-46990024D01*
X174172452Y-47007055D01*
X174182840Y-47026491D01*
X174189236Y-47047572D01*
X174192000Y-47075640D01*
X174192000Y-47539360D01*
X174189236Y-47567428D01*
X174182840Y-47588509D01*
X174172452Y-47607945D01*
X174158476Y-47624976D01*
X174141445Y-47638952D01*
X174122009Y-47649340D01*
X174100928Y-47655736D01*
X174072860Y-47658500D01*
X172259140Y-47658500D01*
X172231072Y-47655736D01*
X172209991Y-47649340D01*
X172190555Y-47638952D01*
X172173524Y-47624976D01*
X172159548Y-47607945D01*
X172149160Y-47588509D01*
X172142764Y-47567428D01*
X172140000Y-47539360D01*
X172140000Y-47075640D01*
X172142764Y-47047572D01*
X172149160Y-47026491D01*
X172159548Y-47007055D01*
X172173524Y-46990024D01*
X172190555Y-46976048D01*
X172209991Y-46965660D01*
X172231072Y-46959264D01*
X172259140Y-46956500D01*
X174072860Y-46956500D01*
X174100928Y-46959264D01*
X174100928Y-46959264D01*
G37*
G36*
X179050928Y-46959264D02*
G01*
X179072009Y-46965660D01*
X179091445Y-46976048D01*
X179108476Y-46990024D01*
X179122452Y-47007055D01*
X179132840Y-47026491D01*
X179139236Y-47047572D01*
X179142000Y-47075640D01*
X179142000Y-47539360D01*
X179139236Y-47567428D01*
X179132840Y-47588509D01*
X179122452Y-47607945D01*
X179108476Y-47624976D01*
X179091445Y-47638952D01*
X179072009Y-47649340D01*
X179050928Y-47655736D01*
X179022860Y-47658500D01*
X177209140Y-47658500D01*
X177181072Y-47655736D01*
X177159991Y-47649340D01*
X177140555Y-47638952D01*
X177123524Y-47624976D01*
X177109548Y-47607945D01*
X177099160Y-47588509D01*
X177092764Y-47567428D01*
X177090000Y-47539360D01*
X177090000Y-47075640D01*
X177092764Y-47047572D01*
X177099160Y-47026491D01*
X177109548Y-47007055D01*
X177123524Y-46990024D01*
X177140555Y-46976048D01*
X177159991Y-46965660D01*
X177181072Y-46959264D01*
X177209140Y-46956500D01*
X179022860Y-46956500D01*
X179050928Y-46959264D01*
X179050928Y-46959264D01*
G37*
G36*
X162196928Y-46705264D02*
G01*
X162218009Y-46711660D01*
X162237445Y-46722048D01*
X162254476Y-46736024D01*
X162268452Y-46753055D01*
X162278840Y-46772491D01*
X162285236Y-46793572D01*
X162288000Y-46821640D01*
X162288000Y-47285360D01*
X162285236Y-47313428D01*
X162278840Y-47334509D01*
X162268452Y-47353945D01*
X162254476Y-47370976D01*
X162237445Y-47384952D01*
X162218009Y-47395340D01*
X162196928Y-47401736D01*
X162168860Y-47404500D01*
X160255140Y-47404500D01*
X160227072Y-47401736D01*
X160205991Y-47395340D01*
X160186555Y-47384952D01*
X160169524Y-47370976D01*
X160155548Y-47353945D01*
X160145160Y-47334509D01*
X160138764Y-47313428D01*
X160136000Y-47285360D01*
X160136000Y-46821640D01*
X160138764Y-46793572D01*
X160145160Y-46772491D01*
X160155548Y-46753055D01*
X160169524Y-46736024D01*
X160186555Y-46722048D01*
X160205991Y-46711660D01*
X160227072Y-46705264D01*
X160255140Y-46702500D01*
X162168860Y-46702500D01*
X162196928Y-46705264D01*
X162196928Y-46705264D01*
G37*
G36*
X171496928Y-46705264D02*
G01*
X171518009Y-46711660D01*
X171537445Y-46722048D01*
X171554476Y-46736024D01*
X171568452Y-46753055D01*
X171578840Y-46772491D01*
X171585236Y-46793572D01*
X171588000Y-46821640D01*
X171588000Y-47285360D01*
X171585236Y-47313428D01*
X171578840Y-47334509D01*
X171568452Y-47353945D01*
X171554476Y-47370976D01*
X171537445Y-47384952D01*
X171518009Y-47395340D01*
X171496928Y-47401736D01*
X171468860Y-47404500D01*
X169555140Y-47404500D01*
X169527072Y-47401736D01*
X169505991Y-47395340D01*
X169486555Y-47384952D01*
X169469524Y-47370976D01*
X169455548Y-47353945D01*
X169445160Y-47334509D01*
X169438764Y-47313428D01*
X169436000Y-47285360D01*
X169436000Y-46821640D01*
X169438764Y-46793572D01*
X169445160Y-46772491D01*
X169455548Y-46753055D01*
X169469524Y-46736024D01*
X169486555Y-46722048D01*
X169505991Y-46711660D01*
X169527072Y-46705264D01*
X169555140Y-46702500D01*
X171468860Y-46702500D01*
X171496928Y-46705264D01*
X171496928Y-46705264D01*
G37*
G36*
X179050928Y-45689264D02*
G01*
X179072009Y-45695660D01*
X179091445Y-45706048D01*
X179108476Y-45720024D01*
X179122452Y-45737055D01*
X179132840Y-45756491D01*
X179139236Y-45777572D01*
X179142000Y-45805640D01*
X179142000Y-46269360D01*
X179139236Y-46297428D01*
X179132840Y-46318509D01*
X179122452Y-46337945D01*
X179108476Y-46354976D01*
X179091445Y-46368952D01*
X179072009Y-46379340D01*
X179050928Y-46385736D01*
X179022860Y-46388500D01*
X177209140Y-46388500D01*
X177181072Y-46385736D01*
X177159991Y-46379340D01*
X177140555Y-46368952D01*
X177123524Y-46354976D01*
X177109548Y-46337945D01*
X177099160Y-46318509D01*
X177092764Y-46297428D01*
X177090000Y-46269360D01*
X177090000Y-45805640D01*
X177092764Y-45777572D01*
X177099160Y-45756491D01*
X177109548Y-45737055D01*
X177123524Y-45720024D01*
X177140555Y-45706048D01*
X177159991Y-45695660D01*
X177181072Y-45689264D01*
X177209140Y-45686500D01*
X179022860Y-45686500D01*
X179050928Y-45689264D01*
X179050928Y-45689264D01*
G37*
G36*
X174100928Y-45689264D02*
G01*
X174122009Y-45695660D01*
X174141445Y-45706048D01*
X174158476Y-45720024D01*
X174172452Y-45737055D01*
X174182840Y-45756491D01*
X174189236Y-45777572D01*
X174192000Y-45805640D01*
X174192000Y-46269360D01*
X174189236Y-46297428D01*
X174182840Y-46318509D01*
X174172452Y-46337945D01*
X174158476Y-46354976D01*
X174141445Y-46368952D01*
X174122009Y-46379340D01*
X174100928Y-46385736D01*
X174072860Y-46388500D01*
X172259140Y-46388500D01*
X172231072Y-46385736D01*
X172209991Y-46379340D01*
X172190555Y-46368952D01*
X172173524Y-46354976D01*
X172159548Y-46337945D01*
X172149160Y-46318509D01*
X172142764Y-46297428D01*
X172140000Y-46269360D01*
X172140000Y-45805640D01*
X172142764Y-45777572D01*
X172149160Y-45756491D01*
X172159548Y-45737055D01*
X172173524Y-45720024D01*
X172190555Y-45706048D01*
X172209991Y-45695660D01*
X172231072Y-45689264D01*
X172259140Y-45686500D01*
X174072860Y-45686500D01*
X174100928Y-45689264D01*
X174100928Y-45689264D01*
G37*
G36*
X180656591Y-45261585D02*
G01*
X180690569Y-45271893D01*
X180721890Y-45288634D01*
X180749339Y-45311161D01*
X180771866Y-45338610D01*
X180788607Y-45369931D01*
X180798915Y-45403909D01*
X180803000Y-45445390D01*
X180803000Y-46121610D01*
X180798915Y-46163091D01*
X180788607Y-46197069D01*
X180771866Y-46228390D01*
X180749339Y-46255839D01*
X180721890Y-46278366D01*
X180690569Y-46295107D01*
X180656591Y-46305415D01*
X180615110Y-46309500D01*
X180013890Y-46309500D01*
X179972409Y-46305415D01*
X179938431Y-46295107D01*
X179907110Y-46278366D01*
X179879661Y-46255839D01*
X179857134Y-46228390D01*
X179840393Y-46197069D01*
X179830085Y-46163091D01*
X179826000Y-46121610D01*
X179826000Y-45445390D01*
X179830085Y-45403909D01*
X179840393Y-45369931D01*
X179857134Y-45338610D01*
X179879661Y-45311161D01*
X179907110Y-45288634D01*
X179938431Y-45271893D01*
X179972409Y-45261585D01*
X180013890Y-45257500D01*
X180615110Y-45257500D01*
X180656591Y-45261585D01*
X180656591Y-45261585D01*
G37*
G36*
X182231591Y-45261585D02*
G01*
X182265569Y-45271893D01*
X182296890Y-45288634D01*
X182324339Y-45311161D01*
X182346866Y-45338610D01*
X182363607Y-45369931D01*
X182373915Y-45403909D01*
X182378000Y-45445390D01*
X182378000Y-46121610D01*
X182373915Y-46163091D01*
X182363607Y-46197069D01*
X182346866Y-46228390D01*
X182324339Y-46255839D01*
X182296890Y-46278366D01*
X182265569Y-46295107D01*
X182231591Y-46305415D01*
X182190110Y-46309500D01*
X181588890Y-46309500D01*
X181547409Y-46305415D01*
X181513431Y-46295107D01*
X181482110Y-46278366D01*
X181454661Y-46255839D01*
X181432134Y-46228390D01*
X181415393Y-46197069D01*
X181405085Y-46163091D01*
X181401000Y-46121610D01*
X181401000Y-45445390D01*
X181405085Y-45403909D01*
X181415393Y-45369931D01*
X181432134Y-45338610D01*
X181454661Y-45311161D01*
X181482110Y-45288634D01*
X181513431Y-45271893D01*
X181547409Y-45261585D01*
X181588890Y-45257500D01*
X182190110Y-45257500D01*
X182231591Y-45261585D01*
X182231591Y-45261585D01*
G37*
G36*
X162196928Y-45435264D02*
G01*
X162218009Y-45441660D01*
X162237445Y-45452048D01*
X162254476Y-45466024D01*
X162268452Y-45483055D01*
X162278840Y-45502491D01*
X162285236Y-45523572D01*
X162288000Y-45551640D01*
X162288000Y-46015360D01*
X162285236Y-46043428D01*
X162278840Y-46064509D01*
X162268452Y-46083945D01*
X162254476Y-46100976D01*
X162237445Y-46114952D01*
X162218009Y-46125340D01*
X162196928Y-46131736D01*
X162168860Y-46134500D01*
X160255140Y-46134500D01*
X160227072Y-46131736D01*
X160205991Y-46125340D01*
X160186555Y-46114952D01*
X160169524Y-46100976D01*
X160155548Y-46083945D01*
X160145160Y-46064509D01*
X160138764Y-46043428D01*
X160136000Y-46015360D01*
X160136000Y-45551640D01*
X160138764Y-45523572D01*
X160145160Y-45502491D01*
X160155548Y-45483055D01*
X160169524Y-45466024D01*
X160186555Y-45452048D01*
X160205991Y-45441660D01*
X160227072Y-45435264D01*
X160255140Y-45432500D01*
X162168860Y-45432500D01*
X162196928Y-45435264D01*
X162196928Y-45435264D01*
G37*
G36*
X171496928Y-45435264D02*
G01*
X171518009Y-45441660D01*
X171537445Y-45452048D01*
X171554476Y-45466024D01*
X171568452Y-45483055D01*
X171578840Y-45502491D01*
X171585236Y-45523572D01*
X171588000Y-45551640D01*
X171588000Y-46015360D01*
X171585236Y-46043428D01*
X171578840Y-46064509D01*
X171568452Y-46083945D01*
X171554476Y-46100976D01*
X171537445Y-46114952D01*
X171518009Y-46125340D01*
X171496928Y-46131736D01*
X171468860Y-46134500D01*
X169555140Y-46134500D01*
X169527072Y-46131736D01*
X169505991Y-46125340D01*
X169486555Y-46114952D01*
X169469524Y-46100976D01*
X169455548Y-46083945D01*
X169445160Y-46064509D01*
X169438764Y-46043428D01*
X169436000Y-46015360D01*
X169436000Y-45551640D01*
X169438764Y-45523572D01*
X169445160Y-45502491D01*
X169455548Y-45483055D01*
X169469524Y-45466024D01*
X169486555Y-45452048D01*
X169505991Y-45441660D01*
X169527072Y-45435264D01*
X169555140Y-45432500D01*
X171468860Y-45432500D01*
X171496928Y-45435264D01*
X171496928Y-45435264D01*
G37*
G36*
X174100928Y-44419264D02*
G01*
X174122009Y-44425660D01*
X174141445Y-44436048D01*
X174158476Y-44450024D01*
X174172452Y-44467055D01*
X174182840Y-44486491D01*
X174189236Y-44507572D01*
X174192000Y-44535640D01*
X174192000Y-44999360D01*
X174189236Y-45027428D01*
X174182840Y-45048509D01*
X174172452Y-45067945D01*
X174158476Y-45084976D01*
X174141445Y-45098952D01*
X174122009Y-45109340D01*
X174100928Y-45115736D01*
X174072860Y-45118500D01*
X172259140Y-45118500D01*
X172231072Y-45115736D01*
X172209991Y-45109340D01*
X172190555Y-45098952D01*
X172173524Y-45084976D01*
X172159548Y-45067945D01*
X172149160Y-45048509D01*
X172142764Y-45027428D01*
X172140000Y-44999360D01*
X172140000Y-44535640D01*
X172142764Y-44507572D01*
X172149160Y-44486491D01*
X172159548Y-44467055D01*
X172173524Y-44450024D01*
X172190555Y-44436048D01*
X172209991Y-44425660D01*
X172231072Y-44419264D01*
X172259140Y-44416500D01*
X174072860Y-44416500D01*
X174100928Y-44419264D01*
X174100928Y-44419264D01*
G37*
G36*
X179050928Y-44419264D02*
G01*
X179072009Y-44425660D01*
X179091445Y-44436048D01*
X179108476Y-44450024D01*
X179122452Y-44467055D01*
X179132840Y-44486491D01*
X179139236Y-44507572D01*
X179142000Y-44535640D01*
X179142000Y-44999360D01*
X179139236Y-45027428D01*
X179132840Y-45048509D01*
X179122452Y-45067945D01*
X179108476Y-45084976D01*
X179091445Y-45098952D01*
X179072009Y-45109340D01*
X179050928Y-45115736D01*
X179022860Y-45118500D01*
X177209140Y-45118500D01*
X177181072Y-45115736D01*
X177159991Y-45109340D01*
X177140555Y-45098952D01*
X177123524Y-45084976D01*
X177109548Y-45067945D01*
X177099160Y-45048509D01*
X177092764Y-45027428D01*
X177090000Y-44999360D01*
X177090000Y-44535640D01*
X177092764Y-44507572D01*
X177099160Y-44486491D01*
X177109548Y-44467055D01*
X177123524Y-44450024D01*
X177140555Y-44436048D01*
X177159991Y-44425660D01*
X177181072Y-44419264D01*
X177209140Y-44416500D01*
X179022860Y-44416500D01*
X179050928Y-44419264D01*
X179050928Y-44419264D01*
G37*
G36*
X162196928Y-44165264D02*
G01*
X162218009Y-44171660D01*
X162237445Y-44182048D01*
X162254476Y-44196024D01*
X162268452Y-44213055D01*
X162278840Y-44232491D01*
X162285236Y-44253572D01*
X162288000Y-44281640D01*
X162288000Y-44745360D01*
X162285236Y-44773428D01*
X162278840Y-44794509D01*
X162268452Y-44813945D01*
X162254476Y-44830976D01*
X162237445Y-44844952D01*
X162218009Y-44855340D01*
X162196928Y-44861736D01*
X162168860Y-44864500D01*
X160255140Y-44864500D01*
X160227072Y-44861736D01*
X160205991Y-44855340D01*
X160186555Y-44844952D01*
X160169524Y-44830976D01*
X160155548Y-44813945D01*
X160145160Y-44794509D01*
X160138764Y-44773428D01*
X160136000Y-44745360D01*
X160136000Y-44281640D01*
X160138764Y-44253572D01*
X160145160Y-44232491D01*
X160155548Y-44213055D01*
X160169524Y-44196024D01*
X160186555Y-44182048D01*
X160205991Y-44171660D01*
X160227072Y-44165264D01*
X160255140Y-44162500D01*
X162168860Y-44162500D01*
X162196928Y-44165264D01*
X162196928Y-44165264D01*
G37*
G36*
X171496928Y-44165264D02*
G01*
X171518009Y-44171660D01*
X171537445Y-44182048D01*
X171554476Y-44196024D01*
X171568452Y-44213055D01*
X171578840Y-44232491D01*
X171585236Y-44253572D01*
X171588000Y-44281640D01*
X171588000Y-44745360D01*
X171585236Y-44773428D01*
X171578840Y-44794509D01*
X171568452Y-44813945D01*
X171554476Y-44830976D01*
X171537445Y-44844952D01*
X171518009Y-44855340D01*
X171496928Y-44861736D01*
X171468860Y-44864500D01*
X169555140Y-44864500D01*
X169527072Y-44861736D01*
X169505991Y-44855340D01*
X169486555Y-44844952D01*
X169469524Y-44830976D01*
X169455548Y-44813945D01*
X169445160Y-44794509D01*
X169438764Y-44773428D01*
X169436000Y-44745360D01*
X169436000Y-44281640D01*
X169438764Y-44253572D01*
X169445160Y-44232491D01*
X169455548Y-44213055D01*
X169469524Y-44196024D01*
X169486555Y-44182048D01*
X169505991Y-44171660D01*
X169527072Y-44165264D01*
X169555140Y-44162500D01*
X171468860Y-44162500D01*
X171496928Y-44165264D01*
X171496928Y-44165264D01*
G37*
G36*
X180991510Y-44733210D02*
G01*
X179688490Y-44733210D01*
X179688490Y-43531790D01*
X180991510Y-43531790D01*
X180991510Y-44733210D01*
X180991510Y-44733210D01*
G37*
G36*
X182688230Y-44733210D02*
G01*
X181385210Y-44733210D01*
X181385210Y-43531790D01*
X182688230Y-43531790D01*
X182688230Y-44733210D01*
X182688230Y-44733210D01*
G37*
G36*
X162196928Y-42895264D02*
G01*
X162218009Y-42901660D01*
X162237445Y-42912048D01*
X162254476Y-42926024D01*
X162268452Y-42943055D01*
X162278840Y-42962491D01*
X162285236Y-42983572D01*
X162288000Y-43011640D01*
X162288000Y-43475360D01*
X162285236Y-43503428D01*
X162278840Y-43524509D01*
X162268452Y-43543945D01*
X162254476Y-43560976D01*
X162237445Y-43574952D01*
X162218009Y-43585340D01*
X162196928Y-43591736D01*
X162168860Y-43594500D01*
X160255140Y-43594500D01*
X160227072Y-43591736D01*
X160205991Y-43585340D01*
X160186555Y-43574952D01*
X160169524Y-43560976D01*
X160155548Y-43543945D01*
X160145160Y-43524509D01*
X160138764Y-43503428D01*
X160136000Y-43475360D01*
X160136000Y-43011640D01*
X160138764Y-42983572D01*
X160145160Y-42962491D01*
X160155548Y-42943055D01*
X160169524Y-42926024D01*
X160186555Y-42912048D01*
X160205991Y-42901660D01*
X160227072Y-42895264D01*
X160255140Y-42892500D01*
X162168860Y-42892500D01*
X162196928Y-42895264D01*
X162196928Y-42895264D01*
G37*
G36*
X171496928Y-42895264D02*
G01*
X171518009Y-42901660D01*
X171537445Y-42912048D01*
X171554476Y-42926024D01*
X171568452Y-42943055D01*
X171578840Y-42962491D01*
X171585236Y-42983572D01*
X171588000Y-43011640D01*
X171588000Y-43475360D01*
X171585236Y-43503428D01*
X171578840Y-43524509D01*
X171568452Y-43543945D01*
X171554476Y-43560976D01*
X171537445Y-43574952D01*
X171518009Y-43585340D01*
X171496928Y-43591736D01*
X171468860Y-43594500D01*
X169555140Y-43594500D01*
X169527072Y-43591736D01*
X169505991Y-43585340D01*
X169486555Y-43574952D01*
X169469524Y-43560976D01*
X169455548Y-43543945D01*
X169445160Y-43524509D01*
X169438764Y-43503428D01*
X169436000Y-43475360D01*
X169436000Y-43011640D01*
X169438764Y-42983572D01*
X169445160Y-42962491D01*
X169455548Y-42943055D01*
X169469524Y-42926024D01*
X169486555Y-42912048D01*
X169505991Y-42901660D01*
X169527072Y-42895264D01*
X169555140Y-42892500D01*
X171468860Y-42892500D01*
X171496928Y-42895264D01*
X171496928Y-42895264D01*
G37*
G36*
X173514000Y-43297500D02*
G01*
X172512000Y-43297500D01*
X172512000Y-42795500D01*
X173514000Y-42795500D01*
X173514000Y-43297500D01*
X173514000Y-43297500D01*
G37*
G36*
X176943000Y-43297500D02*
G01*
X175941000Y-43297500D01*
X175941000Y-42795500D01*
X176943000Y-42795500D01*
X176943000Y-43297500D01*
X176943000Y-43297500D01*
G37*
G36*
X175214000Y-43297500D02*
G01*
X174212000Y-43297500D01*
X174212000Y-42795500D01*
X175214000Y-42795500D01*
X175214000Y-43297500D01*
X175214000Y-43297500D01*
G37*
G36*
X178643000Y-43297500D02*
G01*
X177641000Y-43297500D01*
X177641000Y-42795500D01*
X178643000Y-42795500D01*
X178643000Y-43297500D01*
X178643000Y-43297500D01*
G37*
G36*
X182601870Y-43082210D02*
G01*
X181298850Y-43082210D01*
X181298850Y-41880790D01*
X182601870Y-41880790D01*
X182601870Y-43082210D01*
X182601870Y-43082210D01*
G37*
G36*
X180905150Y-43082210D02*
G01*
X179602130Y-43082210D01*
X179602130Y-41880790D01*
X180905150Y-41880790D01*
X180905150Y-43082210D01*
X180905150Y-43082210D01*
G37*
G36*
X178643000Y-42497500D02*
G01*
X177641000Y-42497500D01*
X177641000Y-41995500D01*
X178643000Y-41995500D01*
X178643000Y-42497500D01*
X178643000Y-42497500D01*
G37*
G36*
X176943000Y-42497500D02*
G01*
X175941000Y-42497500D01*
X175941000Y-41995500D01*
X176943000Y-41995500D01*
X176943000Y-42497500D01*
X176943000Y-42497500D01*
G37*
G36*
X173514000Y-42497500D02*
G01*
X172512000Y-42497500D01*
X172512000Y-41995500D01*
X173514000Y-41995500D01*
X173514000Y-42497500D01*
X173514000Y-42497500D01*
G37*
G36*
X175214000Y-42497500D02*
G01*
X174212000Y-42497500D01*
X174212000Y-41995500D01*
X175214000Y-41995500D01*
X175214000Y-42497500D01*
X175214000Y-42497500D01*
G37*
G36*
X171496928Y-41625264D02*
G01*
X171518009Y-41631660D01*
X171537445Y-41642048D01*
X171554476Y-41656024D01*
X171568452Y-41673055D01*
X171578840Y-41692491D01*
X171585236Y-41713572D01*
X171588000Y-41741640D01*
X171588000Y-42205360D01*
X171585236Y-42233428D01*
X171578840Y-42254509D01*
X171568452Y-42273945D01*
X171554476Y-42290976D01*
X171537445Y-42304952D01*
X171518009Y-42315340D01*
X171496928Y-42321736D01*
X171468860Y-42324500D01*
X169555140Y-42324500D01*
X169527072Y-42321736D01*
X169505991Y-42315340D01*
X169486555Y-42304952D01*
X169469524Y-42290976D01*
X169455548Y-42273945D01*
X169445160Y-42254509D01*
X169438764Y-42233428D01*
X169436000Y-42205360D01*
X169436000Y-41741640D01*
X169438764Y-41713572D01*
X169445160Y-41692491D01*
X169455548Y-41673055D01*
X169469524Y-41656024D01*
X169486555Y-41642048D01*
X169505991Y-41631660D01*
X169527072Y-41625264D01*
X169555140Y-41622500D01*
X171468860Y-41622500D01*
X171496928Y-41625264D01*
X171496928Y-41625264D01*
G37*
G36*
X162196928Y-41625264D02*
G01*
X162218009Y-41631660D01*
X162237445Y-41642048D01*
X162254476Y-41656024D01*
X162268452Y-41673055D01*
X162278840Y-41692491D01*
X162285236Y-41713572D01*
X162288000Y-41741640D01*
X162288000Y-42205360D01*
X162285236Y-42233428D01*
X162278840Y-42254509D01*
X162268452Y-42273945D01*
X162254476Y-42290976D01*
X162237445Y-42304952D01*
X162218009Y-42315340D01*
X162196928Y-42321736D01*
X162168860Y-42324500D01*
X160255140Y-42324500D01*
X160227072Y-42321736D01*
X160205991Y-42315340D01*
X160186555Y-42304952D01*
X160169524Y-42290976D01*
X160155548Y-42273945D01*
X160145160Y-42254509D01*
X160138764Y-42233428D01*
X160136000Y-42205360D01*
X160136000Y-41741640D01*
X160138764Y-41713572D01*
X160145160Y-41692491D01*
X160155548Y-41673055D01*
X160169524Y-41656024D01*
X160186555Y-41642048D01*
X160205991Y-41631660D01*
X160227072Y-41625264D01*
X160255140Y-41622500D01*
X162168860Y-41622500D01*
X162196928Y-41625264D01*
X162196928Y-41625264D01*
G37*
G36*
X178643000Y-41697500D02*
G01*
X177641000Y-41697500D01*
X177641000Y-41195500D01*
X178643000Y-41195500D01*
X178643000Y-41697500D01*
X178643000Y-41697500D01*
G37*
G36*
X176943000Y-41697500D02*
G01*
X175941000Y-41697500D01*
X175941000Y-41195500D01*
X176943000Y-41195500D01*
X176943000Y-41697500D01*
X176943000Y-41697500D01*
G37*
G36*
X175214000Y-41697500D02*
G01*
X174212000Y-41697500D01*
X174212000Y-41195500D01*
X175214000Y-41195500D01*
X175214000Y-41697500D01*
X175214000Y-41697500D01*
G37*
G36*
X173514000Y-41697500D02*
G01*
X172512000Y-41697500D01*
X172512000Y-41195500D01*
X173514000Y-41195500D01*
X173514000Y-41697500D01*
X173514000Y-41697500D01*
G37*
G36*
X182231591Y-40308585D02*
G01*
X182265569Y-40318893D01*
X182296890Y-40335634D01*
X182324339Y-40358161D01*
X182346866Y-40385610D01*
X182363607Y-40416931D01*
X182373915Y-40450909D01*
X182378000Y-40492390D01*
X182378000Y-41168610D01*
X182373915Y-41210091D01*
X182363607Y-41244069D01*
X182346866Y-41275390D01*
X182324339Y-41302839D01*
X182296890Y-41325366D01*
X182265569Y-41342107D01*
X182231591Y-41352415D01*
X182190110Y-41356500D01*
X181588890Y-41356500D01*
X181547409Y-41352415D01*
X181513431Y-41342107D01*
X181482110Y-41325366D01*
X181454661Y-41302839D01*
X181432134Y-41275390D01*
X181415393Y-41244069D01*
X181405085Y-41210091D01*
X181401000Y-41168610D01*
X181401000Y-40492390D01*
X181405085Y-40450909D01*
X181415393Y-40416931D01*
X181432134Y-40385610D01*
X181454661Y-40358161D01*
X181482110Y-40335634D01*
X181513431Y-40318893D01*
X181547409Y-40308585D01*
X181588890Y-40304500D01*
X182190110Y-40304500D01*
X182231591Y-40308585D01*
X182231591Y-40308585D01*
G37*
G36*
X180656591Y-40308585D02*
G01*
X180690569Y-40318893D01*
X180721890Y-40335634D01*
X180749339Y-40358161D01*
X180771866Y-40385610D01*
X180788607Y-40416931D01*
X180798915Y-40450909D01*
X180803000Y-40492390D01*
X180803000Y-41168610D01*
X180798915Y-41210091D01*
X180788607Y-41244069D01*
X180771866Y-41275390D01*
X180749339Y-41302839D01*
X180721890Y-41325366D01*
X180690569Y-41342107D01*
X180656591Y-41352415D01*
X180615110Y-41356500D01*
X180013890Y-41356500D01*
X179972409Y-41352415D01*
X179938431Y-41342107D01*
X179907110Y-41325366D01*
X179879661Y-41302839D01*
X179857134Y-41275390D01*
X179840393Y-41244069D01*
X179830085Y-41210091D01*
X179826000Y-41168610D01*
X179826000Y-40492390D01*
X179830085Y-40450909D01*
X179840393Y-40416931D01*
X179857134Y-40385610D01*
X179879661Y-40358161D01*
X179907110Y-40335634D01*
X179938431Y-40318893D01*
X179972409Y-40308585D01*
X180013890Y-40304500D01*
X180615110Y-40304500D01*
X180656591Y-40308585D01*
X180656591Y-40308585D01*
G37*
G36*
X162196928Y-40355264D02*
G01*
X162218009Y-40361660D01*
X162237445Y-40372048D01*
X162254476Y-40386024D01*
X162268452Y-40403055D01*
X162278840Y-40422491D01*
X162285236Y-40443572D01*
X162288000Y-40471640D01*
X162288000Y-40935360D01*
X162285236Y-40963428D01*
X162278840Y-40984509D01*
X162268452Y-41003945D01*
X162254476Y-41020976D01*
X162237445Y-41034952D01*
X162218009Y-41045340D01*
X162196928Y-41051736D01*
X162168860Y-41054500D01*
X160255140Y-41054500D01*
X160227072Y-41051736D01*
X160205991Y-41045340D01*
X160186555Y-41034952D01*
X160169524Y-41020976D01*
X160155548Y-41003945D01*
X160145160Y-40984509D01*
X160138764Y-40963428D01*
X160136000Y-40935360D01*
X160136000Y-40471640D01*
X160138764Y-40443572D01*
X160145160Y-40422491D01*
X160155548Y-40403055D01*
X160169524Y-40386024D01*
X160186555Y-40372048D01*
X160205991Y-40361660D01*
X160227072Y-40355264D01*
X160255140Y-40352500D01*
X162168860Y-40352500D01*
X162196928Y-40355264D01*
X162196928Y-40355264D01*
G37*
G36*
X171496928Y-40355264D02*
G01*
X171518009Y-40361660D01*
X171537445Y-40372048D01*
X171554476Y-40386024D01*
X171568452Y-40403055D01*
X171578840Y-40422491D01*
X171585236Y-40443572D01*
X171588000Y-40471640D01*
X171588000Y-40935360D01*
X171585236Y-40963428D01*
X171578840Y-40984509D01*
X171568452Y-41003945D01*
X171554476Y-41020976D01*
X171537445Y-41034952D01*
X171518009Y-41045340D01*
X171496928Y-41051736D01*
X171468860Y-41054500D01*
X169555140Y-41054500D01*
X169527072Y-41051736D01*
X169505991Y-41045340D01*
X169486555Y-41034952D01*
X169469524Y-41020976D01*
X169455548Y-41003945D01*
X169445160Y-40984509D01*
X169438764Y-40963428D01*
X169436000Y-40935360D01*
X169436000Y-40471640D01*
X169438764Y-40443572D01*
X169445160Y-40422491D01*
X169455548Y-40403055D01*
X169469524Y-40386024D01*
X169486555Y-40372048D01*
X169505991Y-40361660D01*
X169527072Y-40355264D01*
X169555140Y-40352500D01*
X171468860Y-40352500D01*
X171496928Y-40355264D01*
X171496928Y-40355264D01*
G37*
G36*
X176943000Y-40897500D02*
G01*
X175941000Y-40897500D01*
X175941000Y-40395500D01*
X176943000Y-40395500D01*
X176943000Y-40897500D01*
X176943000Y-40897500D01*
G37*
G36*
X175214000Y-40897500D02*
G01*
X174212000Y-40897500D01*
X174212000Y-40395500D01*
X175214000Y-40395500D01*
X175214000Y-40897500D01*
X175214000Y-40897500D01*
G37*
G36*
X173514000Y-40897500D02*
G01*
X172512000Y-40897500D01*
X172512000Y-40395500D01*
X173514000Y-40395500D01*
X173514000Y-40897500D01*
X173514000Y-40897500D01*
G37*
G36*
X178643000Y-40897500D02*
G01*
X177641000Y-40897500D01*
X177641000Y-40395500D01*
X178643000Y-40395500D01*
X178643000Y-40897500D01*
X178643000Y-40897500D01*
G37*
M02*
