G04 #@! TF.GenerationSoftware,KiCad,Pcbnew,(5.1.4)-1*
G04 #@! TF.CreationDate,2020-08-01T17:35:12+02:00*
G04 #@! TF.ProjectId,ArduinoProMicroUSB,41726475-696e-46f5-9072-6f4d6963726f,rev?*
G04 #@! TF.SameCoordinates,Original*
G04 #@! TF.FileFunction,Soldermask,Top*
G04 #@! TF.FilePolarity,Negative*
%FSLAX46Y46*%
G04 Gerber Fmt 4.6, Leading zero omitted, Abs format (unit mm)*
G04 Created by KiCad (PCBNEW (5.1.4)-1) date 2020-08-01 17:35:12*
%MOMM*%
%LPD*%
G04 APERTURE LIST*
%ADD10C,0.100000*%
G04 APERTURE END LIST*
D10*
G36*
X173173084Y-79095485D02*
G01*
X173268769Y-79135119D01*
X173354885Y-79192660D01*
X173428120Y-79265895D01*
X173485661Y-79352011D01*
X173525295Y-79447696D01*
X173545500Y-79549274D01*
X173545500Y-79652846D01*
X173525295Y-79754424D01*
X173485661Y-79850109D01*
X173428120Y-79936225D01*
X173354885Y-80009460D01*
X173268769Y-80067001D01*
X173173084Y-80106635D01*
X173071506Y-80126840D01*
X172967934Y-80126840D01*
X172866356Y-80106635D01*
X172770671Y-80067001D01*
X172684555Y-80009460D01*
X172611320Y-79936225D01*
X172553779Y-79850109D01*
X172514145Y-79754424D01*
X172493940Y-79652846D01*
X172493940Y-79549274D01*
X172514145Y-79447696D01*
X172553779Y-79352011D01*
X172611320Y-79265895D01*
X172684555Y-79192660D01*
X172770671Y-79135119D01*
X172866356Y-79095485D01*
X172967934Y-79075280D01*
X173071506Y-79075280D01*
X173173084Y-79095485D01*
X173173084Y-79095485D01*
G37*
G36*
X169373244Y-79095485D02*
G01*
X169468929Y-79135119D01*
X169555045Y-79192660D01*
X169628280Y-79265895D01*
X169685821Y-79352011D01*
X169725455Y-79447696D01*
X169745660Y-79549274D01*
X169745660Y-79652846D01*
X169725455Y-79754424D01*
X169685821Y-79850109D01*
X169628280Y-79936225D01*
X169555045Y-80009460D01*
X169468929Y-80067001D01*
X169373244Y-80106635D01*
X169271666Y-80126840D01*
X169168094Y-80126840D01*
X169066516Y-80106635D01*
X168970831Y-80067001D01*
X168884715Y-80009460D01*
X168811480Y-79936225D01*
X168753939Y-79850109D01*
X168714305Y-79754424D01*
X168694100Y-79652846D01*
X168694100Y-79549274D01*
X168714305Y-79447696D01*
X168753939Y-79352011D01*
X168811480Y-79265895D01*
X168884715Y-79192660D01*
X168970831Y-79135119D01*
X169066516Y-79095485D01*
X169168094Y-79075280D01*
X169271666Y-79075280D01*
X169373244Y-79095485D01*
X169373244Y-79095485D01*
G37*
G36*
X158415860Y-70706658D02*
G01*
X158588931Y-70778346D01*
X158666283Y-70830031D01*
X158744692Y-70882422D01*
X158877155Y-71014885D01*
X158927875Y-71090793D01*
X158981231Y-71170646D01*
X159052919Y-71343717D01*
X159089465Y-71527445D01*
X159089465Y-71714779D01*
X159052919Y-71898507D01*
X158981231Y-72071578D01*
X158981230Y-72071579D01*
X158877155Y-72227339D01*
X158744692Y-72359802D01*
X158701742Y-72388500D01*
X158588931Y-72463878D01*
X158415860Y-72535566D01*
X158232132Y-72572112D01*
X158044798Y-72572112D01*
X157861070Y-72535566D01*
X157687999Y-72463878D01*
X157575188Y-72388500D01*
X157532238Y-72359802D01*
X157399775Y-72227339D01*
X157295700Y-72071579D01*
X157295699Y-72071578D01*
X157224011Y-71898507D01*
X157187465Y-71714779D01*
X157187465Y-71527445D01*
X157224011Y-71343717D01*
X157295699Y-71170646D01*
X157349055Y-71090793D01*
X157399775Y-71014885D01*
X157532238Y-70882422D01*
X157610647Y-70830031D01*
X157687999Y-70778346D01*
X157861070Y-70706658D01*
X158044798Y-70670112D01*
X158232132Y-70670112D01*
X158415860Y-70706658D01*
X158415860Y-70706658D01*
G37*
G36*
X183411395Y-70523046D02*
G01*
X183584466Y-70594734D01*
X183661818Y-70646419D01*
X183740227Y-70698810D01*
X183872690Y-70831273D01*
X183923410Y-70907181D01*
X183976766Y-70987034D01*
X184048454Y-71160105D01*
X184085000Y-71343833D01*
X184085000Y-71531167D01*
X184048454Y-71714895D01*
X183976766Y-71887966D01*
X183969722Y-71898508D01*
X183872690Y-72043727D01*
X183740227Y-72176190D01*
X183663680Y-72227337D01*
X183584466Y-72280266D01*
X183411395Y-72351954D01*
X183227667Y-72388500D01*
X183040333Y-72388500D01*
X182856605Y-72351954D01*
X182683534Y-72280266D01*
X182604320Y-72227337D01*
X182527773Y-72176190D01*
X182395310Y-72043727D01*
X182298278Y-71898508D01*
X182291234Y-71887966D01*
X182219546Y-71714895D01*
X182183000Y-71531167D01*
X182183000Y-71343833D01*
X182219546Y-71160105D01*
X182291234Y-70987034D01*
X182344590Y-70907181D01*
X182395310Y-70831273D01*
X182527773Y-70698810D01*
X182606182Y-70646419D01*
X182683534Y-70594734D01*
X182856605Y-70523046D01*
X183040333Y-70486500D01*
X183227667Y-70486500D01*
X183411395Y-70523046D01*
X183411395Y-70523046D01*
G37*
G36*
X155522921Y-70618526D02*
G01*
X155651221Y-70671670D01*
X155651223Y-70671671D01*
X155691837Y-70698809D01*
X155766690Y-70748824D01*
X155864890Y-70847024D01*
X155942044Y-70962493D01*
X155995188Y-71090793D01*
X156022280Y-71226996D01*
X156022280Y-71365872D01*
X155995188Y-71502075D01*
X155942044Y-71630375D01*
X155942043Y-71630377D01*
X155864889Y-71745845D01*
X155766691Y-71844043D01*
X155651223Y-71921197D01*
X155651222Y-71921198D01*
X155651221Y-71921198D01*
X155522921Y-71974342D01*
X155386718Y-72001434D01*
X155247842Y-72001434D01*
X155111639Y-71974342D01*
X154983339Y-71921198D01*
X154983338Y-71921198D01*
X154983337Y-71921197D01*
X154867869Y-71844043D01*
X154769671Y-71745845D01*
X154692517Y-71630377D01*
X154692516Y-71630375D01*
X154639372Y-71502075D01*
X154612280Y-71365872D01*
X154612280Y-71226996D01*
X154639372Y-71090793D01*
X154692516Y-70962493D01*
X154769670Y-70847024D01*
X154867870Y-70748824D01*
X154942723Y-70698809D01*
X154983337Y-70671671D01*
X154983339Y-70671670D01*
X155111639Y-70618526D01*
X155247842Y-70591434D01*
X155386718Y-70591434D01*
X155522921Y-70618526D01*
X155522921Y-70618526D01*
G37*
G36*
X186160826Y-70434914D02*
G01*
X186289126Y-70488058D01*
X186289128Y-70488059D01*
X186341489Y-70523046D01*
X186404595Y-70565212D01*
X186502795Y-70663412D01*
X186526447Y-70698810D01*
X186579593Y-70778347D01*
X186579949Y-70778881D01*
X186633093Y-70907181D01*
X186660185Y-71043384D01*
X186660185Y-71182260D01*
X186633093Y-71318463D01*
X186579949Y-71446763D01*
X186526038Y-71527447D01*
X186502794Y-71562233D01*
X186404596Y-71660431D01*
X186289128Y-71737585D01*
X186289127Y-71737586D01*
X186289126Y-71737586D01*
X186160826Y-71790730D01*
X186024623Y-71817822D01*
X185885747Y-71817822D01*
X185749544Y-71790730D01*
X185621244Y-71737586D01*
X185621243Y-71737586D01*
X185621242Y-71737585D01*
X185505774Y-71660431D01*
X185407576Y-71562233D01*
X185384333Y-71527447D01*
X185330421Y-71446763D01*
X185277277Y-71318463D01*
X185250185Y-71182260D01*
X185250185Y-71043384D01*
X185277277Y-70907181D01*
X185330421Y-70778881D01*
X185330778Y-70778347D01*
X185383923Y-70698810D01*
X185407575Y-70663412D01*
X185505775Y-70565212D01*
X185568881Y-70523046D01*
X185621242Y-70488059D01*
X185621244Y-70488058D01*
X185749544Y-70434914D01*
X185885747Y-70407822D01*
X186024623Y-70407822D01*
X186160826Y-70434914D01*
X186160826Y-70434914D01*
G37*
G36*
X182650365Y-67134120D02*
G01*
X182782708Y-67188938D01*
X182839888Y-67212623D01*
X183010454Y-67326592D01*
X183155508Y-67471646D01*
X183269477Y-67642212D01*
X183347980Y-67831735D01*
X183388000Y-68032931D01*
X183388000Y-68238069D01*
X183347980Y-68439265D01*
X183269477Y-68628788D01*
X183155508Y-68799354D01*
X183010454Y-68944408D01*
X182839888Y-69058377D01*
X182839887Y-69058378D01*
X182839886Y-69058378D01*
X182650365Y-69136880D01*
X182449170Y-69176900D01*
X182244030Y-69176900D01*
X182042835Y-69136880D01*
X181853314Y-69058378D01*
X181853313Y-69058378D01*
X181853312Y-69058377D01*
X181682746Y-68944408D01*
X181537692Y-68799354D01*
X181423723Y-68628788D01*
X181345220Y-68439265D01*
X181305200Y-68238069D01*
X181305200Y-68032931D01*
X181345220Y-67831735D01*
X181423723Y-67642212D01*
X181537692Y-67471646D01*
X181682746Y-67326592D01*
X181853312Y-67212623D01*
X181910493Y-67188938D01*
X182042835Y-67134120D01*
X182244030Y-67094100D01*
X182449170Y-67094100D01*
X182650365Y-67134120D01*
X182650365Y-67134120D01*
G37*
G36*
X185190365Y-67134120D02*
G01*
X185322708Y-67188938D01*
X185379888Y-67212623D01*
X185550454Y-67326592D01*
X185695508Y-67471646D01*
X185809477Y-67642212D01*
X185887980Y-67831735D01*
X185928000Y-68032931D01*
X185928000Y-68238069D01*
X185887980Y-68439265D01*
X185809477Y-68628788D01*
X185695508Y-68799354D01*
X185550454Y-68944408D01*
X185379888Y-69058377D01*
X185379887Y-69058378D01*
X185379886Y-69058378D01*
X185190365Y-69136880D01*
X184989170Y-69176900D01*
X184784030Y-69176900D01*
X184582835Y-69136880D01*
X184393314Y-69058378D01*
X184393313Y-69058378D01*
X184393312Y-69058377D01*
X184222746Y-68944408D01*
X184077692Y-68799354D01*
X183963723Y-68628788D01*
X183885220Y-68439265D01*
X183845200Y-68238069D01*
X183845200Y-68032931D01*
X183885220Y-67831735D01*
X183963723Y-67642212D01*
X184077692Y-67471646D01*
X184222746Y-67326592D01*
X184393312Y-67212623D01*
X184450493Y-67188938D01*
X184582835Y-67134120D01*
X184784030Y-67094100D01*
X184989170Y-67094100D01*
X185190365Y-67134120D01*
X185190365Y-67134120D01*
G37*
G36*
X154002641Y-66441592D02*
G01*
X154130941Y-66494736D01*
X154130943Y-66494737D01*
X154189069Y-66533576D01*
X154246410Y-66571890D01*
X154344610Y-66670090D01*
X154421764Y-66785559D01*
X154474908Y-66913859D01*
X154502000Y-67050062D01*
X154502000Y-67188938D01*
X154474908Y-67325141D01*
X154421764Y-67453441D01*
X154421763Y-67453443D01*
X154344609Y-67568911D01*
X154246411Y-67667109D01*
X154130943Y-67744263D01*
X154130942Y-67744264D01*
X154130941Y-67744264D01*
X154002641Y-67797408D01*
X153866438Y-67824500D01*
X153727562Y-67824500D01*
X153591359Y-67797408D01*
X153463059Y-67744264D01*
X153463058Y-67744264D01*
X153463057Y-67744263D01*
X153347589Y-67667109D01*
X153249391Y-67568911D01*
X153172237Y-67453443D01*
X153172236Y-67453441D01*
X153119092Y-67325141D01*
X153092000Y-67188938D01*
X153092000Y-67050062D01*
X153119092Y-66913859D01*
X153172236Y-66785559D01*
X153249390Y-66670090D01*
X153347590Y-66571890D01*
X153404931Y-66533576D01*
X153463057Y-66494737D01*
X153463059Y-66494736D01*
X153591359Y-66441592D01*
X153727562Y-66414500D01*
X153866438Y-66414500D01*
X154002641Y-66441592D01*
X154002641Y-66441592D01*
G37*
G36*
X187681105Y-66257980D02*
G01*
X187809405Y-66311124D01*
X187809407Y-66311125D01*
X187867533Y-66349964D01*
X187924874Y-66388278D01*
X188023074Y-66486478D01*
X188100228Y-66601947D01*
X188153372Y-66730247D01*
X188180464Y-66866450D01*
X188180464Y-67005326D01*
X188153372Y-67141529D01*
X188100228Y-67269829D01*
X188100227Y-67269831D01*
X188023073Y-67385299D01*
X187924875Y-67483497D01*
X187809407Y-67560651D01*
X187809406Y-67560652D01*
X187809405Y-67560652D01*
X187681105Y-67613796D01*
X187544902Y-67640888D01*
X187406026Y-67640888D01*
X187269823Y-67613796D01*
X187141523Y-67560652D01*
X187141522Y-67560652D01*
X187141521Y-67560651D01*
X187026053Y-67483497D01*
X186927855Y-67385299D01*
X186850701Y-67269831D01*
X186850700Y-67269829D01*
X186797556Y-67141529D01*
X186770464Y-67005326D01*
X186770464Y-66866450D01*
X186797556Y-66730247D01*
X186850700Y-66601947D01*
X186927854Y-66486478D01*
X187026054Y-66388278D01*
X187083395Y-66349964D01*
X187141521Y-66311125D01*
X187141523Y-66311124D01*
X187269823Y-66257980D01*
X187406026Y-66230888D01*
X187544902Y-66230888D01*
X187681105Y-66257980D01*
X187681105Y-66257980D01*
G37*
G36*
X156026849Y-64142905D02*
G01*
X156199920Y-64214593D01*
X156199921Y-64214594D01*
X156355681Y-64318669D01*
X156488144Y-64451132D01*
X156488145Y-64451134D01*
X156592220Y-64606893D01*
X156663908Y-64779964D01*
X156700454Y-64963692D01*
X156700454Y-65151026D01*
X156663908Y-65334754D01*
X156592220Y-65507825D01*
X156592219Y-65507826D01*
X156488144Y-65663586D01*
X156355681Y-65796049D01*
X156312731Y-65824747D01*
X156199920Y-65900125D01*
X156026849Y-65971813D01*
X155843121Y-66008359D01*
X155655787Y-66008359D01*
X155472059Y-65971813D01*
X155298988Y-65900125D01*
X155186177Y-65824747D01*
X155143227Y-65796049D01*
X155010764Y-65663586D01*
X154906689Y-65507826D01*
X154906688Y-65507825D01*
X154835000Y-65334754D01*
X154798454Y-65151026D01*
X154798454Y-64963692D01*
X154835000Y-64779964D01*
X154906688Y-64606893D01*
X155010763Y-64451134D01*
X155010764Y-64451132D01*
X155143227Y-64318669D01*
X155298987Y-64214594D01*
X155298988Y-64214593D01*
X155472059Y-64142905D01*
X155655787Y-64106359D01*
X155843121Y-64106359D01*
X156026849Y-64142905D01*
X156026849Y-64142905D01*
G37*
G36*
X185800406Y-63959293D02*
G01*
X185973477Y-64030981D01*
X185973478Y-64030982D01*
X186129238Y-64135057D01*
X186261701Y-64267520D01*
X186314092Y-64345929D01*
X186365777Y-64423281D01*
X186437465Y-64596352D01*
X186474011Y-64780080D01*
X186474011Y-64967414D01*
X186437465Y-65151142D01*
X186365777Y-65324213D01*
X186358733Y-65334755D01*
X186261701Y-65479974D01*
X186129238Y-65612437D01*
X186052691Y-65663584D01*
X185973477Y-65716513D01*
X185800406Y-65788201D01*
X185616678Y-65824747D01*
X185429344Y-65824747D01*
X185245616Y-65788201D01*
X185072545Y-65716513D01*
X184993331Y-65663584D01*
X184916784Y-65612437D01*
X184784321Y-65479974D01*
X184687289Y-65334755D01*
X184680245Y-65324213D01*
X184608557Y-65151142D01*
X184572011Y-64967414D01*
X184572011Y-64780080D01*
X184608557Y-64596352D01*
X184680245Y-64423281D01*
X184731930Y-64345929D01*
X184784321Y-64267520D01*
X184916784Y-64135057D01*
X185072544Y-64030982D01*
X185072545Y-64030981D01*
X185245616Y-63959293D01*
X185429344Y-63922747D01*
X185616678Y-63922747D01*
X185800406Y-63959293D01*
X185800406Y-63959293D01*
G37*
G36*
X186572636Y-56934046D02*
G01*
X186745707Y-57005734D01*
X186745708Y-57005735D01*
X186901468Y-57109810D01*
X187033931Y-57242273D01*
X187033932Y-57242275D01*
X187138007Y-57398034D01*
X187209695Y-57571105D01*
X187246241Y-57754833D01*
X187246241Y-57942167D01*
X187209695Y-58125895D01*
X187138007Y-58298966D01*
X187138006Y-58298967D01*
X187033931Y-58454727D01*
X186901468Y-58587190D01*
X186823059Y-58639581D01*
X186745707Y-58691266D01*
X186572636Y-58762954D01*
X186388908Y-58799500D01*
X186201574Y-58799500D01*
X186017846Y-58762954D01*
X185844775Y-58691266D01*
X185767423Y-58639581D01*
X185689014Y-58587190D01*
X185556551Y-58454727D01*
X185452476Y-58298967D01*
X185452475Y-58298966D01*
X185380787Y-58125895D01*
X185344241Y-57942167D01*
X185344241Y-57754833D01*
X185380787Y-57571105D01*
X185452475Y-57398034D01*
X185556550Y-57242275D01*
X185556551Y-57242273D01*
X185689014Y-57109810D01*
X185844774Y-57005735D01*
X185844775Y-57005734D01*
X186017846Y-56934046D01*
X186201574Y-56897500D01*
X186388908Y-56897500D01*
X186572636Y-56934046D01*
X186572636Y-56934046D01*
G37*
G36*
X155585691Y-56618507D02*
G01*
X155758762Y-56690195D01*
X155758763Y-56690196D01*
X155914523Y-56794271D01*
X156046986Y-56926734D01*
X156051872Y-56934047D01*
X156151062Y-57082495D01*
X156222750Y-57255566D01*
X156259296Y-57439294D01*
X156259296Y-57626628D01*
X156222750Y-57810356D01*
X156151062Y-57983427D01*
X156151061Y-57983428D01*
X156046986Y-58139188D01*
X155914523Y-58271651D01*
X155836114Y-58324042D01*
X155758762Y-58375727D01*
X155585691Y-58447415D01*
X155401963Y-58483961D01*
X155214629Y-58483961D01*
X155030901Y-58447415D01*
X154857830Y-58375727D01*
X154780478Y-58324042D01*
X154702069Y-58271651D01*
X154569606Y-58139188D01*
X154465531Y-57983428D01*
X154465530Y-57983427D01*
X154393842Y-57810356D01*
X154357296Y-57626628D01*
X154357296Y-57439294D01*
X154393842Y-57255566D01*
X154465530Y-57082495D01*
X154564720Y-56934047D01*
X154569606Y-56926734D01*
X154702069Y-56794271D01*
X154857829Y-56690196D01*
X154857830Y-56690195D01*
X155030901Y-56618507D01*
X155214629Y-56581961D01*
X155401963Y-56581961D01*
X155585691Y-56618507D01*
X155585691Y-56618507D01*
G37*
G36*
X188266179Y-54946130D02*
G01*
X188394479Y-54999274D01*
X188394481Y-54999275D01*
X188509949Y-55076429D01*
X188608147Y-55174627D01*
X188651202Y-55239062D01*
X188685302Y-55290097D01*
X188738446Y-55418397D01*
X188765538Y-55554600D01*
X188765538Y-55693476D01*
X188738446Y-55829679D01*
X188695539Y-55933264D01*
X188685301Y-55957981D01*
X188608147Y-56073449D01*
X188509949Y-56171647D01*
X188394481Y-56248801D01*
X188394480Y-56248802D01*
X188394479Y-56248802D01*
X188266179Y-56301946D01*
X188129976Y-56329038D01*
X187991100Y-56329038D01*
X187854897Y-56301946D01*
X187726597Y-56248802D01*
X187726596Y-56248802D01*
X187726595Y-56248801D01*
X187611127Y-56171647D01*
X187512929Y-56073449D01*
X187435775Y-55957981D01*
X187425537Y-55933264D01*
X187382630Y-55829679D01*
X187355538Y-55693476D01*
X187355538Y-55554600D01*
X187382630Y-55418397D01*
X187435774Y-55290097D01*
X187469875Y-55239062D01*
X187512929Y-55174627D01*
X187611127Y-55076429D01*
X187726595Y-54999275D01*
X187726597Y-54999274D01*
X187854897Y-54946130D01*
X187991100Y-54919038D01*
X188129976Y-54919038D01*
X188266179Y-54946130D01*
X188266179Y-54946130D01*
G37*
G36*
X153748641Y-54630592D02*
G01*
X153876941Y-54683736D01*
X153876943Y-54683737D01*
X153992411Y-54760891D01*
X154090609Y-54859089D01*
X154148769Y-54946130D01*
X154167764Y-54974559D01*
X154220908Y-55102859D01*
X154248000Y-55239062D01*
X154248000Y-55377938D01*
X154220908Y-55514141D01*
X154204148Y-55554602D01*
X154167763Y-55642443D01*
X154090609Y-55757911D01*
X153992411Y-55856109D01*
X153876943Y-55933263D01*
X153876942Y-55933264D01*
X153876941Y-55933264D01*
X153748641Y-55986408D01*
X153612438Y-56013500D01*
X153473562Y-56013500D01*
X153337359Y-55986408D01*
X153209059Y-55933264D01*
X153209058Y-55933264D01*
X153209057Y-55933263D01*
X153093589Y-55856109D01*
X152995391Y-55757911D01*
X152918237Y-55642443D01*
X152881852Y-55554602D01*
X152865092Y-55514141D01*
X152838000Y-55377938D01*
X152838000Y-55239062D01*
X152865092Y-55102859D01*
X152918236Y-54974559D01*
X152937232Y-54946130D01*
X152995391Y-54859089D01*
X153093589Y-54760891D01*
X153209057Y-54683737D01*
X153209059Y-54683736D01*
X153337359Y-54630592D01*
X153473562Y-54603500D01*
X153612438Y-54603500D01*
X153748641Y-54630592D01*
X153748641Y-54630592D01*
G37*
G36*
X183620648Y-50603486D02*
G01*
X183793719Y-50675174D01*
X183793720Y-50675175D01*
X183949480Y-50779250D01*
X184081943Y-50911713D01*
X184104865Y-50946019D01*
X184186019Y-51067474D01*
X184257707Y-51240545D01*
X184294253Y-51424273D01*
X184294253Y-51611607D01*
X184257707Y-51795335D01*
X184186019Y-51968406D01*
X184134901Y-52044910D01*
X184081943Y-52124167D01*
X183949480Y-52256630D01*
X183883824Y-52300500D01*
X183793719Y-52360706D01*
X183620648Y-52432394D01*
X183436920Y-52468940D01*
X183249586Y-52468940D01*
X183065858Y-52432394D01*
X182892787Y-52360706D01*
X182802682Y-52300500D01*
X182737026Y-52256630D01*
X182604563Y-52124167D01*
X182551605Y-52044910D01*
X182500487Y-51968406D01*
X182428799Y-51795335D01*
X182392253Y-51611607D01*
X182392253Y-51424273D01*
X182428799Y-51240545D01*
X182500487Y-51067474D01*
X182581641Y-50946019D01*
X182604563Y-50911713D01*
X182737026Y-50779250D01*
X182892786Y-50675175D01*
X182892787Y-50675174D01*
X183065858Y-50603486D01*
X183249586Y-50566940D01*
X183436920Y-50566940D01*
X183620648Y-50603486D01*
X183620648Y-50603486D01*
G37*
G36*
X186387641Y-50917592D02*
G01*
X186515941Y-50970736D01*
X186515943Y-50970737D01*
X186631411Y-51047891D01*
X186729609Y-51146089D01*
X186772664Y-51210524D01*
X186806764Y-51261559D01*
X186859908Y-51389859D01*
X186887000Y-51526062D01*
X186887000Y-51664938D01*
X186859908Y-51801141D01*
X186817001Y-51904726D01*
X186806763Y-51929443D01*
X186729609Y-52044911D01*
X186631411Y-52143109D01*
X186515943Y-52220263D01*
X186515942Y-52220264D01*
X186515941Y-52220264D01*
X186387641Y-52273408D01*
X186251438Y-52300500D01*
X186112562Y-52300500D01*
X185976359Y-52273408D01*
X185848059Y-52220264D01*
X185848058Y-52220264D01*
X185848057Y-52220263D01*
X185732589Y-52143109D01*
X185634391Y-52044911D01*
X185557237Y-51929443D01*
X185546999Y-51904726D01*
X185504092Y-51801141D01*
X185477000Y-51664938D01*
X185477000Y-51526062D01*
X185504092Y-51389859D01*
X185557236Y-51261559D01*
X185591337Y-51210524D01*
X185634391Y-51146089D01*
X185732589Y-51047891D01*
X185848057Y-50970737D01*
X185848059Y-50970736D01*
X185976359Y-50917592D01*
X186112562Y-50890500D01*
X186251438Y-50890500D01*
X186387641Y-50917592D01*
X186387641Y-50917592D01*
G37*
G36*
X158537680Y-50287948D02*
G01*
X158710751Y-50359636D01*
X158710752Y-50359637D01*
X158866512Y-50463712D01*
X158998975Y-50596175D01*
X159038413Y-50655198D01*
X159103051Y-50751936D01*
X159174739Y-50925007D01*
X159211285Y-51108735D01*
X159211285Y-51296069D01*
X159174739Y-51479797D01*
X159103051Y-51652868D01*
X159103050Y-51652869D01*
X158998975Y-51808629D01*
X158866512Y-51941092D01*
X158825632Y-51968407D01*
X158710751Y-52045168D01*
X158537680Y-52116856D01*
X158353952Y-52153402D01*
X158166618Y-52153402D01*
X157982890Y-52116856D01*
X157809819Y-52045168D01*
X157694938Y-51968407D01*
X157654058Y-51941092D01*
X157521595Y-51808629D01*
X157417520Y-51652869D01*
X157417519Y-51652868D01*
X157345831Y-51479797D01*
X157309285Y-51296069D01*
X157309285Y-51108735D01*
X157345831Y-50925007D01*
X157417519Y-50751936D01*
X157482157Y-50655198D01*
X157521595Y-50596175D01*
X157654058Y-50463712D01*
X157809818Y-50359637D01*
X157809819Y-50359636D01*
X157982890Y-50287948D01*
X158166618Y-50251402D01*
X158353952Y-50251402D01*
X158537680Y-50287948D01*
X158537680Y-50287948D01*
G37*
G36*
X155627179Y-50602054D02*
G01*
X155755479Y-50655198D01*
X155755481Y-50655199D01*
X155870949Y-50732353D01*
X155969147Y-50830551D01*
X156027307Y-50917592D01*
X156046302Y-50946021D01*
X156099446Y-51074321D01*
X156126538Y-51210524D01*
X156126538Y-51349400D01*
X156099446Y-51485603D01*
X156082686Y-51526064D01*
X156046301Y-51613905D01*
X155969147Y-51729373D01*
X155870949Y-51827571D01*
X155755481Y-51904725D01*
X155755480Y-51904726D01*
X155755479Y-51904726D01*
X155627179Y-51957870D01*
X155490976Y-51984962D01*
X155352100Y-51984962D01*
X155215897Y-51957870D01*
X155087597Y-51904726D01*
X155087596Y-51904726D01*
X155087595Y-51904725D01*
X154972127Y-51827571D01*
X154873929Y-51729373D01*
X154796775Y-51613905D01*
X154760390Y-51526064D01*
X154743630Y-51485603D01*
X154716538Y-51349400D01*
X154716538Y-51210524D01*
X154743630Y-51074321D01*
X154796774Y-50946021D01*
X154815770Y-50917592D01*
X154873929Y-50830551D01*
X154972127Y-50732353D01*
X155087595Y-50655199D01*
X155087597Y-50655198D01*
X155215897Y-50602054D01*
X155352100Y-50574962D01*
X155490976Y-50574962D01*
X155627179Y-50602054D01*
X155627179Y-50602054D01*
G37*
M02*
