M48
; DRILL file {KiCad (5.1.4)-1} date 8/1/2020 5:35:18 PM
; FORMAT={-:-/ absolute / inch / decimal}
; #@! TF.CreationDate,2020-08-01T17:35:18+02:00
; #@! TF.GenerationSoftware,Kicad,Pcbnew,(5.1.4)-1
; #@! TF.FileFunction,Plated,1,2,PTH
FMAT,2
INCH
T1C0.0118
T2C0.0157
T3C0.0315
T4C0.0400
T5C0.0472
%
G90
G05
T1
X6.4025Y-1.775
T2
X6.46Y-1.7475
X6.46Y-2.1625
X6.48Y-1.5875
X6.507Y-3.0665
X6.537Y-2.6945
X6.5589Y-2.5464
X6.5793Y-2.6922
X6.585Y-2.3925
X6.59Y-2.0275
X6.591Y-2.6085
X6.609Y-3.1305
X6.625Y-2.1875
X6.645Y-1.9025
X6.649Y-2.4625
X6.675Y-2.4825
X6.693Y-2.6525
X6.697Y-2.5045
X6.73Y-2.1875
X6.775Y-2.1125
X6.843Y-2.179
X6.8665Y-2.203
X6.889Y-2.226
X6.89Y-1.7975
X6.89Y-1.8425
X6.9105Y-2.2505
X6.945Y-1.9425
X6.952Y-2.2905
X6.969Y-3.0645
X7.01Y-2.4275
X7.07Y-1.5575
X7.11Y-1.5575
X7.387Y-2.3045
T3
X6.045Y-2.1775
X6.119Y-2.0189
X6.055Y-2.6425
X6.1149Y-2.8069
X7.33Y-2.0313
X7.404Y-2.1899
X7.3211Y-2.7997
X7.3809Y-2.6353
T4
X7.179Y-2.6825
X7.279Y-2.6825
T5
X6.1319Y-2.5613
X6.2259Y-2.8197
X7.2182Y-2.0283
X7.3345Y-2.2775
X7.21Y-2.8125
X7.3041Y-2.5541
X6.1145Y-2.2651
X6.2307Y-2.0158
T0
M30
