%TF.GenerationSoftware,KiCad,Pcbnew,(5.1.6)-1*%
%TF.CreationDate,2021-05-28T10:30:19+02:00*%
%TF.ProjectId,Kicad_Smart_Watch,4b696361-645f-4536-9d61-72745f576174,rev?*%
%TF.SameCoordinates,Original*%
%TF.FileFunction,Copper,L2,Bot*%
%TF.FilePolarity,Positive*%
%FSLAX46Y46*%
G04 Gerber Fmt 4.6, Leading zero omitted, Abs format (unit mm)*
G04 Created by KiCad (PCBNEW (5.1.6)-1) date 2021-05-28 10:30:19*
%MOMM*%
%LPD*%
G01*
G04 APERTURE LIST*
%TA.AperFunction,EtchedComponent*%
%ADD10C,0.001000*%
%TD*%
%TA.AperFunction,Conductor*%
%ADD11R,0.100000X0.100000*%
%TD*%
%TA.AperFunction,SMDPad,CuDef*%
%ADD12R,0.950000X0.430000*%
%TD*%
%TA.AperFunction,ComponentPad*%
%ADD13C,1.879600*%
%TD*%
%TA.AperFunction,SMDPad,CuDef*%
%ADD14R,1.524000X0.345000*%
%TD*%
%TA.AperFunction,ViaPad*%
%ADD15C,0.600000*%
%TD*%
%TA.AperFunction,ViaPad*%
%ADD16C,0.800000*%
%TD*%
%TA.AperFunction,Conductor*%
%ADD17C,0.200000*%
%TD*%
%TA.AperFunction,Conductor*%
%ADD18C,0.250000*%
%TD*%
%TA.AperFunction,Conductor*%
%ADD19C,0.254000*%
%TD*%
G04 APERTURE END LIST*
D10*
%TO.C,U3*%
G36*
X85217000Y-74163500D02*
G01*
X85217000Y-74463500D01*
X84567000Y-74463500D01*
X84535598Y-74462678D01*
X84504283Y-74460213D01*
X84473139Y-74456113D01*
X84442253Y-74450389D01*
X84411709Y-74443055D01*
X84381590Y-74434134D01*
X84351979Y-74423648D01*
X84322958Y-74411627D01*
X84294606Y-74398104D01*
X84267000Y-74383115D01*
X84240217Y-74366702D01*
X84214329Y-74348910D01*
X84189408Y-74329788D01*
X84165522Y-74309387D01*
X84142736Y-74287764D01*
X84121113Y-74264978D01*
X84100712Y-74241092D01*
X84081590Y-74216171D01*
X84063798Y-74190283D01*
X84047385Y-74163500D01*
X84032396Y-74135894D01*
X84018873Y-74107542D01*
X84006852Y-74078521D01*
X83996366Y-74048910D01*
X83987445Y-74018791D01*
X83980111Y-73988247D01*
X83974387Y-73957361D01*
X83970287Y-73926217D01*
X83967822Y-73894902D01*
X83967000Y-73863500D01*
X83967822Y-73832098D01*
X83970287Y-73800783D01*
X83974387Y-73769639D01*
X83980111Y-73738753D01*
X83987445Y-73708209D01*
X83996366Y-73678090D01*
X84006852Y-73648479D01*
X84018873Y-73619458D01*
X84032396Y-73591106D01*
X84047385Y-73563500D01*
X84063798Y-73536717D01*
X84081590Y-73510829D01*
X84100712Y-73485908D01*
X84121113Y-73462022D01*
X84142736Y-73439236D01*
X84165522Y-73417613D01*
X84189408Y-73397212D01*
X84214329Y-73378090D01*
X84240217Y-73360298D01*
X84267000Y-73343885D01*
X84294606Y-73328896D01*
X84322958Y-73315373D01*
X84351979Y-73303352D01*
X84381590Y-73292866D01*
X84411709Y-73283945D01*
X84442253Y-73276611D01*
X84473139Y-73270887D01*
X84504283Y-73266787D01*
X84535598Y-73264322D01*
X84567000Y-73263500D01*
X85217000Y-73263500D01*
X85217000Y-73563500D01*
X84567000Y-73563500D01*
X84551299Y-73563911D01*
X84535641Y-73565143D01*
X84520070Y-73567193D01*
X84504626Y-73570056D01*
X84489354Y-73573722D01*
X84474295Y-73578183D01*
X84459490Y-73583426D01*
X84444979Y-73589436D01*
X84430803Y-73596198D01*
X84417000Y-73603692D01*
X84403608Y-73611899D01*
X84390664Y-73620795D01*
X84378204Y-73630356D01*
X84366261Y-73640557D01*
X84354868Y-73651368D01*
X84344057Y-73662761D01*
X84333856Y-73674704D01*
X84324295Y-73687164D01*
X84315399Y-73700108D01*
X84307192Y-73713500D01*
X84299698Y-73727303D01*
X84292936Y-73741479D01*
X84286926Y-73755990D01*
X84281683Y-73770795D01*
X84277222Y-73785854D01*
X84273556Y-73801126D01*
X84270693Y-73816570D01*
X84268643Y-73832141D01*
X84267411Y-73847799D01*
X84267000Y-73863500D01*
X84267411Y-73879201D01*
X84268643Y-73894859D01*
X84270693Y-73910430D01*
X84273556Y-73925874D01*
X84277222Y-73941146D01*
X84281683Y-73956205D01*
X84286926Y-73971010D01*
X84292936Y-73985521D01*
X84299698Y-73999697D01*
X84307192Y-74013500D01*
X84315399Y-74026892D01*
X84324295Y-74039836D01*
X84333856Y-74052296D01*
X84344057Y-74064239D01*
X84354868Y-74075632D01*
X84366261Y-74086443D01*
X84378204Y-74096644D01*
X84390664Y-74106205D01*
X84403608Y-74115101D01*
X84417000Y-74123308D01*
X84430803Y-74130802D01*
X84444979Y-74137564D01*
X84459490Y-74143574D01*
X84474295Y-74148817D01*
X84489354Y-74153278D01*
X84504626Y-74156944D01*
X84520070Y-74159807D01*
X84535641Y-74161857D01*
X84551299Y-74163089D01*
X84567000Y-74163500D01*
X85217000Y-74163500D01*
G37*
X85217000Y-74163500D02*
X85217000Y-74463500D01*
X84567000Y-74463500D01*
X84535598Y-74462678D01*
X84504283Y-74460213D01*
X84473139Y-74456113D01*
X84442253Y-74450389D01*
X84411709Y-74443055D01*
X84381590Y-74434134D01*
X84351979Y-74423648D01*
X84322958Y-74411627D01*
X84294606Y-74398104D01*
X84267000Y-74383115D01*
X84240217Y-74366702D01*
X84214329Y-74348910D01*
X84189408Y-74329788D01*
X84165522Y-74309387D01*
X84142736Y-74287764D01*
X84121113Y-74264978D01*
X84100712Y-74241092D01*
X84081590Y-74216171D01*
X84063798Y-74190283D01*
X84047385Y-74163500D01*
X84032396Y-74135894D01*
X84018873Y-74107542D01*
X84006852Y-74078521D01*
X83996366Y-74048910D01*
X83987445Y-74018791D01*
X83980111Y-73988247D01*
X83974387Y-73957361D01*
X83970287Y-73926217D01*
X83967822Y-73894902D01*
X83967000Y-73863500D01*
X83967822Y-73832098D01*
X83970287Y-73800783D01*
X83974387Y-73769639D01*
X83980111Y-73738753D01*
X83987445Y-73708209D01*
X83996366Y-73678090D01*
X84006852Y-73648479D01*
X84018873Y-73619458D01*
X84032396Y-73591106D01*
X84047385Y-73563500D01*
X84063798Y-73536717D01*
X84081590Y-73510829D01*
X84100712Y-73485908D01*
X84121113Y-73462022D01*
X84142736Y-73439236D01*
X84165522Y-73417613D01*
X84189408Y-73397212D01*
X84214329Y-73378090D01*
X84240217Y-73360298D01*
X84267000Y-73343885D01*
X84294606Y-73328896D01*
X84322958Y-73315373D01*
X84351979Y-73303352D01*
X84381590Y-73292866D01*
X84411709Y-73283945D01*
X84442253Y-73276611D01*
X84473139Y-73270887D01*
X84504283Y-73266787D01*
X84535598Y-73264322D01*
X84567000Y-73263500D01*
X85217000Y-73263500D01*
X85217000Y-73563500D01*
X84567000Y-73563500D01*
X84551299Y-73563911D01*
X84535641Y-73565143D01*
X84520070Y-73567193D01*
X84504626Y-73570056D01*
X84489354Y-73573722D01*
X84474295Y-73578183D01*
X84459490Y-73583426D01*
X84444979Y-73589436D01*
X84430803Y-73596198D01*
X84417000Y-73603692D01*
X84403608Y-73611899D01*
X84390664Y-73620795D01*
X84378204Y-73630356D01*
X84366261Y-73640557D01*
X84354868Y-73651368D01*
X84344057Y-73662761D01*
X84333856Y-73674704D01*
X84324295Y-73687164D01*
X84315399Y-73700108D01*
X84307192Y-73713500D01*
X84299698Y-73727303D01*
X84292936Y-73741479D01*
X84286926Y-73755990D01*
X84281683Y-73770795D01*
X84277222Y-73785854D01*
X84273556Y-73801126D01*
X84270693Y-73816570D01*
X84268643Y-73832141D01*
X84267411Y-73847799D01*
X84267000Y-73863500D01*
X84267411Y-73879201D01*
X84268643Y-73894859D01*
X84270693Y-73910430D01*
X84273556Y-73925874D01*
X84277222Y-73941146D01*
X84281683Y-73956205D01*
X84286926Y-73971010D01*
X84292936Y-73985521D01*
X84299698Y-73999697D01*
X84307192Y-74013500D01*
X84315399Y-74026892D01*
X84324295Y-74039836D01*
X84333856Y-74052296D01*
X84344057Y-74064239D01*
X84354868Y-74075632D01*
X84366261Y-74086443D01*
X84378204Y-74096644D01*
X84390664Y-74106205D01*
X84403608Y-74115101D01*
X84417000Y-74123308D01*
X84430803Y-74130802D01*
X84444979Y-74137564D01*
X84459490Y-74143574D01*
X84474295Y-74148817D01*
X84489354Y-74153278D01*
X84504626Y-74156944D01*
X84520070Y-74159807D01*
X84535641Y-74161857D01*
X84551299Y-74163089D01*
X84567000Y-74163500D01*
X85217000Y-74163500D01*
G36*
X85217000Y-73563500D02*
G01*
X85217000Y-73263500D01*
X85867000Y-73263500D01*
X85898402Y-73264322D01*
X85929717Y-73266787D01*
X85960861Y-73270887D01*
X85991747Y-73276611D01*
X86022291Y-73283945D01*
X86052410Y-73292866D01*
X86082021Y-73303352D01*
X86111042Y-73315373D01*
X86139394Y-73328896D01*
X86167000Y-73343885D01*
X86193783Y-73360298D01*
X86219671Y-73378090D01*
X86244592Y-73397212D01*
X86268478Y-73417613D01*
X86291264Y-73439236D01*
X86312887Y-73462022D01*
X86333288Y-73485908D01*
X86352410Y-73510829D01*
X86370202Y-73536717D01*
X86386615Y-73563500D01*
X86401604Y-73591106D01*
X86415127Y-73619458D01*
X86427148Y-73648479D01*
X86437634Y-73678090D01*
X86446555Y-73708209D01*
X86453889Y-73738753D01*
X86459613Y-73769639D01*
X86463713Y-73800783D01*
X86466178Y-73832098D01*
X86467000Y-73863500D01*
X86466178Y-73894902D01*
X86463713Y-73926217D01*
X86459613Y-73957361D01*
X86453889Y-73988247D01*
X86446555Y-74018791D01*
X86437634Y-74048910D01*
X86427148Y-74078521D01*
X86415127Y-74107542D01*
X86401604Y-74135894D01*
X86386615Y-74163500D01*
X86370202Y-74190283D01*
X86352410Y-74216171D01*
X86333288Y-74241092D01*
X86312887Y-74264978D01*
X86291264Y-74287764D01*
X86268478Y-74309387D01*
X86244592Y-74329788D01*
X86219671Y-74348910D01*
X86193783Y-74366702D01*
X86167000Y-74383115D01*
X86139394Y-74398104D01*
X86111042Y-74411627D01*
X86082021Y-74423648D01*
X86052410Y-74434134D01*
X86022291Y-74443055D01*
X85991747Y-74450389D01*
X85960861Y-74456113D01*
X85929717Y-74460213D01*
X85898402Y-74462678D01*
X85867000Y-74463500D01*
X85217000Y-74463500D01*
X85217000Y-74163500D01*
X85867000Y-74163500D01*
X85882701Y-74163089D01*
X85898359Y-74161857D01*
X85913930Y-74159807D01*
X85929374Y-74156944D01*
X85944646Y-74153278D01*
X85959705Y-74148817D01*
X85974510Y-74143574D01*
X85989021Y-74137564D01*
X86003197Y-74130802D01*
X86017000Y-74123308D01*
X86030392Y-74115101D01*
X86043336Y-74106205D01*
X86055796Y-74096644D01*
X86067739Y-74086443D01*
X86079132Y-74075632D01*
X86089943Y-74064239D01*
X86100144Y-74052296D01*
X86109705Y-74039836D01*
X86118601Y-74026892D01*
X86126808Y-74013500D01*
X86134302Y-73999697D01*
X86141064Y-73985521D01*
X86147074Y-73971010D01*
X86152317Y-73956205D01*
X86156778Y-73941146D01*
X86160444Y-73925874D01*
X86163307Y-73910430D01*
X86165357Y-73894859D01*
X86166589Y-73879201D01*
X86167000Y-73863500D01*
X86166589Y-73847799D01*
X86165357Y-73832141D01*
X86163307Y-73816570D01*
X86160444Y-73801126D01*
X86156778Y-73785854D01*
X86152317Y-73770795D01*
X86147074Y-73755990D01*
X86141064Y-73741479D01*
X86134302Y-73727303D01*
X86126808Y-73713500D01*
X86118601Y-73700108D01*
X86109705Y-73687164D01*
X86100144Y-73674704D01*
X86089943Y-73662761D01*
X86079132Y-73651368D01*
X86067739Y-73640557D01*
X86055796Y-73630356D01*
X86043336Y-73620795D01*
X86030392Y-73611899D01*
X86017000Y-73603692D01*
X86003197Y-73596198D01*
X85989021Y-73589436D01*
X85974510Y-73583426D01*
X85959705Y-73578183D01*
X85944646Y-73573722D01*
X85929374Y-73570056D01*
X85913930Y-73567193D01*
X85898359Y-73565143D01*
X85882701Y-73563911D01*
X85867000Y-73563500D01*
X85217000Y-73563500D01*
G37*
X85217000Y-73563500D02*
X85217000Y-73263500D01*
X85867000Y-73263500D01*
X85898402Y-73264322D01*
X85929717Y-73266787D01*
X85960861Y-73270887D01*
X85991747Y-73276611D01*
X86022291Y-73283945D01*
X86052410Y-73292866D01*
X86082021Y-73303352D01*
X86111042Y-73315373D01*
X86139394Y-73328896D01*
X86167000Y-73343885D01*
X86193783Y-73360298D01*
X86219671Y-73378090D01*
X86244592Y-73397212D01*
X86268478Y-73417613D01*
X86291264Y-73439236D01*
X86312887Y-73462022D01*
X86333288Y-73485908D01*
X86352410Y-73510829D01*
X86370202Y-73536717D01*
X86386615Y-73563500D01*
X86401604Y-73591106D01*
X86415127Y-73619458D01*
X86427148Y-73648479D01*
X86437634Y-73678090D01*
X86446555Y-73708209D01*
X86453889Y-73738753D01*
X86459613Y-73769639D01*
X86463713Y-73800783D01*
X86466178Y-73832098D01*
X86467000Y-73863500D01*
X86466178Y-73894902D01*
X86463713Y-73926217D01*
X86459613Y-73957361D01*
X86453889Y-73988247D01*
X86446555Y-74018791D01*
X86437634Y-74048910D01*
X86427148Y-74078521D01*
X86415127Y-74107542D01*
X86401604Y-74135894D01*
X86386615Y-74163500D01*
X86370202Y-74190283D01*
X86352410Y-74216171D01*
X86333288Y-74241092D01*
X86312887Y-74264978D01*
X86291264Y-74287764D01*
X86268478Y-74309387D01*
X86244592Y-74329788D01*
X86219671Y-74348910D01*
X86193783Y-74366702D01*
X86167000Y-74383115D01*
X86139394Y-74398104D01*
X86111042Y-74411627D01*
X86082021Y-74423648D01*
X86052410Y-74434134D01*
X86022291Y-74443055D01*
X85991747Y-74450389D01*
X85960861Y-74456113D01*
X85929717Y-74460213D01*
X85898402Y-74462678D01*
X85867000Y-74463500D01*
X85217000Y-74463500D01*
X85217000Y-74163500D01*
X85867000Y-74163500D01*
X85882701Y-74163089D01*
X85898359Y-74161857D01*
X85913930Y-74159807D01*
X85929374Y-74156944D01*
X85944646Y-74153278D01*
X85959705Y-74148817D01*
X85974510Y-74143574D01*
X85989021Y-74137564D01*
X86003197Y-74130802D01*
X86017000Y-74123308D01*
X86030392Y-74115101D01*
X86043336Y-74106205D01*
X86055796Y-74096644D01*
X86067739Y-74086443D01*
X86079132Y-74075632D01*
X86089943Y-74064239D01*
X86100144Y-74052296D01*
X86109705Y-74039836D01*
X86118601Y-74026892D01*
X86126808Y-74013500D01*
X86134302Y-73999697D01*
X86141064Y-73985521D01*
X86147074Y-73971010D01*
X86152317Y-73956205D01*
X86156778Y-73941146D01*
X86160444Y-73925874D01*
X86163307Y-73910430D01*
X86165357Y-73894859D01*
X86166589Y-73879201D01*
X86167000Y-73863500D01*
X86166589Y-73847799D01*
X86165357Y-73832141D01*
X86163307Y-73816570D01*
X86160444Y-73801126D01*
X86156778Y-73785854D01*
X86152317Y-73770795D01*
X86147074Y-73755990D01*
X86141064Y-73741479D01*
X86134302Y-73727303D01*
X86126808Y-73713500D01*
X86118601Y-73700108D01*
X86109705Y-73687164D01*
X86100144Y-73674704D01*
X86089943Y-73662761D01*
X86079132Y-73651368D01*
X86067739Y-73640557D01*
X86055796Y-73630356D01*
X86043336Y-73620795D01*
X86030392Y-73611899D01*
X86017000Y-73603692D01*
X86003197Y-73596198D01*
X85989021Y-73589436D01*
X85974510Y-73583426D01*
X85959705Y-73578183D01*
X85944646Y-73573722D01*
X85929374Y-73570056D01*
X85913930Y-73567193D01*
X85898359Y-73565143D01*
X85882701Y-73563911D01*
X85867000Y-73563500D01*
X85217000Y-73563500D01*
G36*
X85217000Y-84043500D02*
G01*
X85217000Y-84343500D01*
X84567000Y-84343500D01*
X84535598Y-84342678D01*
X84504283Y-84340213D01*
X84473139Y-84336113D01*
X84442253Y-84330389D01*
X84411709Y-84323055D01*
X84381590Y-84314134D01*
X84351979Y-84303648D01*
X84322958Y-84291627D01*
X84294606Y-84278104D01*
X84267000Y-84263115D01*
X84240217Y-84246702D01*
X84214329Y-84228910D01*
X84189408Y-84209788D01*
X84165522Y-84189387D01*
X84142736Y-84167764D01*
X84121113Y-84144978D01*
X84100712Y-84121092D01*
X84081590Y-84096171D01*
X84063798Y-84070283D01*
X84047385Y-84043500D01*
X84032396Y-84015894D01*
X84018873Y-83987542D01*
X84006852Y-83958521D01*
X83996366Y-83928910D01*
X83987445Y-83898791D01*
X83980111Y-83868247D01*
X83974387Y-83837361D01*
X83970287Y-83806217D01*
X83967822Y-83774902D01*
X83967000Y-83743500D01*
X83967822Y-83712098D01*
X83970287Y-83680783D01*
X83974387Y-83649639D01*
X83980111Y-83618753D01*
X83987445Y-83588209D01*
X83996366Y-83558090D01*
X84006852Y-83528479D01*
X84018873Y-83499458D01*
X84032396Y-83471106D01*
X84047385Y-83443500D01*
X84063798Y-83416717D01*
X84081590Y-83390829D01*
X84100712Y-83365908D01*
X84121113Y-83342022D01*
X84142736Y-83319236D01*
X84165522Y-83297613D01*
X84189408Y-83277212D01*
X84214329Y-83258090D01*
X84240217Y-83240298D01*
X84267000Y-83223885D01*
X84294606Y-83208896D01*
X84322958Y-83195373D01*
X84351979Y-83183352D01*
X84381590Y-83172866D01*
X84411709Y-83163945D01*
X84442253Y-83156611D01*
X84473139Y-83150887D01*
X84504283Y-83146787D01*
X84535598Y-83144322D01*
X84567000Y-83143500D01*
X85217000Y-83143500D01*
X85217000Y-83443500D01*
X84567000Y-83443500D01*
X84551299Y-83443911D01*
X84535641Y-83445143D01*
X84520070Y-83447193D01*
X84504626Y-83450056D01*
X84489354Y-83453722D01*
X84474295Y-83458183D01*
X84459490Y-83463426D01*
X84444979Y-83469436D01*
X84430803Y-83476198D01*
X84417000Y-83483692D01*
X84403608Y-83491899D01*
X84390664Y-83500795D01*
X84378204Y-83510356D01*
X84366261Y-83520557D01*
X84354868Y-83531368D01*
X84344057Y-83542761D01*
X84333856Y-83554704D01*
X84324295Y-83567164D01*
X84315399Y-83580108D01*
X84307192Y-83593500D01*
X84299698Y-83607303D01*
X84292936Y-83621479D01*
X84286926Y-83635990D01*
X84281683Y-83650795D01*
X84277222Y-83665854D01*
X84273556Y-83681126D01*
X84270693Y-83696570D01*
X84268643Y-83712141D01*
X84267411Y-83727799D01*
X84267000Y-83743500D01*
X84267411Y-83759201D01*
X84268643Y-83774859D01*
X84270693Y-83790430D01*
X84273556Y-83805874D01*
X84277222Y-83821146D01*
X84281683Y-83836205D01*
X84286926Y-83851010D01*
X84292936Y-83865521D01*
X84299698Y-83879697D01*
X84307192Y-83893500D01*
X84315399Y-83906892D01*
X84324295Y-83919836D01*
X84333856Y-83932296D01*
X84344057Y-83944239D01*
X84354868Y-83955632D01*
X84366261Y-83966443D01*
X84378204Y-83976644D01*
X84390664Y-83986205D01*
X84403608Y-83995101D01*
X84417000Y-84003308D01*
X84430803Y-84010802D01*
X84444979Y-84017564D01*
X84459490Y-84023574D01*
X84474295Y-84028817D01*
X84489354Y-84033278D01*
X84504626Y-84036944D01*
X84520070Y-84039807D01*
X84535641Y-84041857D01*
X84551299Y-84043089D01*
X84567000Y-84043500D01*
X85217000Y-84043500D01*
G37*
X85217000Y-84043500D02*
X85217000Y-84343500D01*
X84567000Y-84343500D01*
X84535598Y-84342678D01*
X84504283Y-84340213D01*
X84473139Y-84336113D01*
X84442253Y-84330389D01*
X84411709Y-84323055D01*
X84381590Y-84314134D01*
X84351979Y-84303648D01*
X84322958Y-84291627D01*
X84294606Y-84278104D01*
X84267000Y-84263115D01*
X84240217Y-84246702D01*
X84214329Y-84228910D01*
X84189408Y-84209788D01*
X84165522Y-84189387D01*
X84142736Y-84167764D01*
X84121113Y-84144978D01*
X84100712Y-84121092D01*
X84081590Y-84096171D01*
X84063798Y-84070283D01*
X84047385Y-84043500D01*
X84032396Y-84015894D01*
X84018873Y-83987542D01*
X84006852Y-83958521D01*
X83996366Y-83928910D01*
X83987445Y-83898791D01*
X83980111Y-83868247D01*
X83974387Y-83837361D01*
X83970287Y-83806217D01*
X83967822Y-83774902D01*
X83967000Y-83743500D01*
X83967822Y-83712098D01*
X83970287Y-83680783D01*
X83974387Y-83649639D01*
X83980111Y-83618753D01*
X83987445Y-83588209D01*
X83996366Y-83558090D01*
X84006852Y-83528479D01*
X84018873Y-83499458D01*
X84032396Y-83471106D01*
X84047385Y-83443500D01*
X84063798Y-83416717D01*
X84081590Y-83390829D01*
X84100712Y-83365908D01*
X84121113Y-83342022D01*
X84142736Y-83319236D01*
X84165522Y-83297613D01*
X84189408Y-83277212D01*
X84214329Y-83258090D01*
X84240217Y-83240298D01*
X84267000Y-83223885D01*
X84294606Y-83208896D01*
X84322958Y-83195373D01*
X84351979Y-83183352D01*
X84381590Y-83172866D01*
X84411709Y-83163945D01*
X84442253Y-83156611D01*
X84473139Y-83150887D01*
X84504283Y-83146787D01*
X84535598Y-83144322D01*
X84567000Y-83143500D01*
X85217000Y-83143500D01*
X85217000Y-83443500D01*
X84567000Y-83443500D01*
X84551299Y-83443911D01*
X84535641Y-83445143D01*
X84520070Y-83447193D01*
X84504626Y-83450056D01*
X84489354Y-83453722D01*
X84474295Y-83458183D01*
X84459490Y-83463426D01*
X84444979Y-83469436D01*
X84430803Y-83476198D01*
X84417000Y-83483692D01*
X84403608Y-83491899D01*
X84390664Y-83500795D01*
X84378204Y-83510356D01*
X84366261Y-83520557D01*
X84354868Y-83531368D01*
X84344057Y-83542761D01*
X84333856Y-83554704D01*
X84324295Y-83567164D01*
X84315399Y-83580108D01*
X84307192Y-83593500D01*
X84299698Y-83607303D01*
X84292936Y-83621479D01*
X84286926Y-83635990D01*
X84281683Y-83650795D01*
X84277222Y-83665854D01*
X84273556Y-83681126D01*
X84270693Y-83696570D01*
X84268643Y-83712141D01*
X84267411Y-83727799D01*
X84267000Y-83743500D01*
X84267411Y-83759201D01*
X84268643Y-83774859D01*
X84270693Y-83790430D01*
X84273556Y-83805874D01*
X84277222Y-83821146D01*
X84281683Y-83836205D01*
X84286926Y-83851010D01*
X84292936Y-83865521D01*
X84299698Y-83879697D01*
X84307192Y-83893500D01*
X84315399Y-83906892D01*
X84324295Y-83919836D01*
X84333856Y-83932296D01*
X84344057Y-83944239D01*
X84354868Y-83955632D01*
X84366261Y-83966443D01*
X84378204Y-83976644D01*
X84390664Y-83986205D01*
X84403608Y-83995101D01*
X84417000Y-84003308D01*
X84430803Y-84010802D01*
X84444979Y-84017564D01*
X84459490Y-84023574D01*
X84474295Y-84028817D01*
X84489354Y-84033278D01*
X84504626Y-84036944D01*
X84520070Y-84039807D01*
X84535641Y-84041857D01*
X84551299Y-84043089D01*
X84567000Y-84043500D01*
X85217000Y-84043500D01*
G36*
X85217000Y-83443500D02*
G01*
X85217000Y-83143500D01*
X85867000Y-83143500D01*
X85898402Y-83144322D01*
X85929717Y-83146787D01*
X85960861Y-83150887D01*
X85991747Y-83156611D01*
X86022291Y-83163945D01*
X86052410Y-83172866D01*
X86082021Y-83183352D01*
X86111042Y-83195373D01*
X86139394Y-83208896D01*
X86167000Y-83223885D01*
X86193783Y-83240298D01*
X86219671Y-83258090D01*
X86244592Y-83277212D01*
X86268478Y-83297613D01*
X86291264Y-83319236D01*
X86312887Y-83342022D01*
X86333288Y-83365908D01*
X86352410Y-83390829D01*
X86370202Y-83416717D01*
X86386615Y-83443500D01*
X86401604Y-83471106D01*
X86415127Y-83499458D01*
X86427148Y-83528479D01*
X86437634Y-83558090D01*
X86446555Y-83588209D01*
X86453889Y-83618753D01*
X86459613Y-83649639D01*
X86463713Y-83680783D01*
X86466178Y-83712098D01*
X86467000Y-83743500D01*
X86466178Y-83774902D01*
X86463713Y-83806217D01*
X86459613Y-83837361D01*
X86453889Y-83868247D01*
X86446555Y-83898791D01*
X86437634Y-83928910D01*
X86427148Y-83958521D01*
X86415127Y-83987542D01*
X86401604Y-84015894D01*
X86386615Y-84043500D01*
X86370202Y-84070283D01*
X86352410Y-84096171D01*
X86333288Y-84121092D01*
X86312887Y-84144978D01*
X86291264Y-84167764D01*
X86268478Y-84189387D01*
X86244592Y-84209788D01*
X86219671Y-84228910D01*
X86193783Y-84246702D01*
X86167000Y-84263115D01*
X86139394Y-84278104D01*
X86111042Y-84291627D01*
X86082021Y-84303648D01*
X86052410Y-84314134D01*
X86022291Y-84323055D01*
X85991747Y-84330389D01*
X85960861Y-84336113D01*
X85929717Y-84340213D01*
X85898402Y-84342678D01*
X85867000Y-84343500D01*
X85217000Y-84343500D01*
X85217000Y-84043500D01*
X85867000Y-84043500D01*
X85882701Y-84043089D01*
X85898359Y-84041857D01*
X85913930Y-84039807D01*
X85929374Y-84036944D01*
X85944646Y-84033278D01*
X85959705Y-84028817D01*
X85974510Y-84023574D01*
X85989021Y-84017564D01*
X86003197Y-84010802D01*
X86017000Y-84003308D01*
X86030392Y-83995101D01*
X86043336Y-83986205D01*
X86055796Y-83976644D01*
X86067739Y-83966443D01*
X86079132Y-83955632D01*
X86089943Y-83944239D01*
X86100144Y-83932296D01*
X86109705Y-83919836D01*
X86118601Y-83906892D01*
X86126808Y-83893500D01*
X86134302Y-83879697D01*
X86141064Y-83865521D01*
X86147074Y-83851010D01*
X86152317Y-83836205D01*
X86156778Y-83821146D01*
X86160444Y-83805874D01*
X86163307Y-83790430D01*
X86165357Y-83774859D01*
X86166589Y-83759201D01*
X86167000Y-83743500D01*
X86166589Y-83727799D01*
X86165357Y-83712141D01*
X86163307Y-83696570D01*
X86160444Y-83681126D01*
X86156778Y-83665854D01*
X86152317Y-83650795D01*
X86147074Y-83635990D01*
X86141064Y-83621479D01*
X86134302Y-83607303D01*
X86126808Y-83593500D01*
X86118601Y-83580108D01*
X86109705Y-83567164D01*
X86100144Y-83554704D01*
X86089943Y-83542761D01*
X86079132Y-83531368D01*
X86067739Y-83520557D01*
X86055796Y-83510356D01*
X86043336Y-83500795D01*
X86030392Y-83491899D01*
X86017000Y-83483692D01*
X86003197Y-83476198D01*
X85989021Y-83469436D01*
X85974510Y-83463426D01*
X85959705Y-83458183D01*
X85944646Y-83453722D01*
X85929374Y-83450056D01*
X85913930Y-83447193D01*
X85898359Y-83445143D01*
X85882701Y-83443911D01*
X85867000Y-83443500D01*
X85217000Y-83443500D01*
G37*
X85217000Y-83443500D02*
X85217000Y-83143500D01*
X85867000Y-83143500D01*
X85898402Y-83144322D01*
X85929717Y-83146787D01*
X85960861Y-83150887D01*
X85991747Y-83156611D01*
X86022291Y-83163945D01*
X86052410Y-83172866D01*
X86082021Y-83183352D01*
X86111042Y-83195373D01*
X86139394Y-83208896D01*
X86167000Y-83223885D01*
X86193783Y-83240298D01*
X86219671Y-83258090D01*
X86244592Y-83277212D01*
X86268478Y-83297613D01*
X86291264Y-83319236D01*
X86312887Y-83342022D01*
X86333288Y-83365908D01*
X86352410Y-83390829D01*
X86370202Y-83416717D01*
X86386615Y-83443500D01*
X86401604Y-83471106D01*
X86415127Y-83499458D01*
X86427148Y-83528479D01*
X86437634Y-83558090D01*
X86446555Y-83588209D01*
X86453889Y-83618753D01*
X86459613Y-83649639D01*
X86463713Y-83680783D01*
X86466178Y-83712098D01*
X86467000Y-83743500D01*
X86466178Y-83774902D01*
X86463713Y-83806217D01*
X86459613Y-83837361D01*
X86453889Y-83868247D01*
X86446555Y-83898791D01*
X86437634Y-83928910D01*
X86427148Y-83958521D01*
X86415127Y-83987542D01*
X86401604Y-84015894D01*
X86386615Y-84043500D01*
X86370202Y-84070283D01*
X86352410Y-84096171D01*
X86333288Y-84121092D01*
X86312887Y-84144978D01*
X86291264Y-84167764D01*
X86268478Y-84189387D01*
X86244592Y-84209788D01*
X86219671Y-84228910D01*
X86193783Y-84246702D01*
X86167000Y-84263115D01*
X86139394Y-84278104D01*
X86111042Y-84291627D01*
X86082021Y-84303648D01*
X86052410Y-84314134D01*
X86022291Y-84323055D01*
X85991747Y-84330389D01*
X85960861Y-84336113D01*
X85929717Y-84340213D01*
X85898402Y-84342678D01*
X85867000Y-84343500D01*
X85217000Y-84343500D01*
X85217000Y-84043500D01*
X85867000Y-84043500D01*
X85882701Y-84043089D01*
X85898359Y-84041857D01*
X85913930Y-84039807D01*
X85929374Y-84036944D01*
X85944646Y-84033278D01*
X85959705Y-84028817D01*
X85974510Y-84023574D01*
X85989021Y-84017564D01*
X86003197Y-84010802D01*
X86017000Y-84003308D01*
X86030392Y-83995101D01*
X86043336Y-83986205D01*
X86055796Y-83976644D01*
X86067739Y-83966443D01*
X86079132Y-83955632D01*
X86089943Y-83944239D01*
X86100144Y-83932296D01*
X86109705Y-83919836D01*
X86118601Y-83906892D01*
X86126808Y-83893500D01*
X86134302Y-83879697D01*
X86141064Y-83865521D01*
X86147074Y-83851010D01*
X86152317Y-83836205D01*
X86156778Y-83821146D01*
X86160444Y-83805874D01*
X86163307Y-83790430D01*
X86165357Y-83774859D01*
X86166589Y-83759201D01*
X86167000Y-83743500D01*
X86166589Y-83727799D01*
X86165357Y-83712141D01*
X86163307Y-83696570D01*
X86160444Y-83681126D01*
X86156778Y-83665854D01*
X86152317Y-83650795D01*
X86147074Y-83635990D01*
X86141064Y-83621479D01*
X86134302Y-83607303D01*
X86126808Y-83593500D01*
X86118601Y-83580108D01*
X86109705Y-83567164D01*
X86100144Y-83554704D01*
X86089943Y-83542761D01*
X86079132Y-83531368D01*
X86067739Y-83520557D01*
X86055796Y-83510356D01*
X86043336Y-83500795D01*
X86030392Y-83491899D01*
X86017000Y-83483692D01*
X86003197Y-83476198D01*
X85989021Y-83469436D01*
X85974510Y-83463426D01*
X85959705Y-83458183D01*
X85944646Y-83453722D01*
X85929374Y-83450056D01*
X85913930Y-83447193D01*
X85898359Y-83445143D01*
X85882701Y-83443911D01*
X85867000Y-83443500D01*
X85217000Y-83443500D01*
%TD*%
D11*
%TO.N,N/C*%
%TO.C,U3*%
X86307000Y-73863500D03*
X86307000Y-83743500D03*
D12*
%TD*%
%TO.P,U3,GND*%
%TO.N,GND*%
X88692000Y-77503500D03*
%TO.P,U3,ID*%
%TO.N,Net-(U3-PadID)*%
X88692000Y-78153500D03*
%TO.P,U3,D+*%
%TO.N,Net-(R7-Pad2)*%
X88692000Y-78803500D03*
%TO.P,U3,D-*%
%TO.N,Net-(R5-Pad2)*%
X88692000Y-79453500D03*
%TO.P,U3,VBUS*%
%TO.N,VBUS*%
X88692000Y-80103500D03*
%TD*%
D13*
%TO.P,SW1,2*%
%TO.N,GND*%
X106970000Y-96877000D03*
%TO.P,SW1,1*%
%TO.N,/BTN3*%
X112010000Y-96877000D03*
%TD*%
%TO.P,SW3,1*%
%TO.N,/BTN4*%
X96814200Y-96877000D03*
%TO.P,SW3,2*%
%TO.N,GND*%
X91774200Y-96877000D03*
%TD*%
%TO.P,SW4,2*%
%TO.N,GND*%
X112010000Y-70788400D03*
%TO.P,SW4,1*%
%TO.N,/BTN2*%
X106970000Y-70788400D03*
%TD*%
%TO.P,SW2,2*%
%TO.N,GND*%
X91774200Y-70788400D03*
%TO.P,SW2,1*%
%TO.N,/BTN1*%
X96814200Y-70788400D03*
%TD*%
D14*
%TO.P,J3,10*%
%TO.N,/MOSI*%
X95618300Y-83830160D03*
%TO.P,J3,12*%
%TO.N,GND*%
X95618300Y-85211920D03*
%TO.P,J3,9*%
%TO.N,/SCK*%
X95618300Y-83139280D03*
%TO.P,J3,11*%
%TO.N,/D5*%
X95618300Y-84521040D03*
%TO.P,J3,6*%
%TO.N,GND*%
X95618300Y-81066640D03*
%TO.P,J3,8*%
%TO.N,/D12*%
X95618300Y-82448400D03*
%TO.P,J3,5*%
%TO.N,GND*%
X95618300Y-80375760D03*
%TO.P,J3,7*%
%TO.N,/D4*%
X95618300Y-81757520D03*
%TO.P,J3,4*%
%TO.N,3.3V*%
X95618300Y-79682340D03*
%TO.P,J3,3*%
X95618300Y-78991460D03*
%TO.P,J3,2*%
%TO.N,/LEDK*%
X95618300Y-78300580D03*
%TO.P,J3,1*%
%TO.N,GND*%
X95618300Y-77609700D03*
%TD*%
D13*
%TO.P,J1,2*%
%TO.N,/BAT+*%
X103200200Y-70788400D03*
%TO.P,J1,1*%
%TO.N,GND*%
X100660200Y-70788400D03*
%TD*%
D15*
%TO.N,3.3V*%
X99314000Y-87757000D03*
X110871000Y-93535500D03*
X111760000Y-85471000D03*
X116103400Y-76835000D03*
X112090200Y-75895200D03*
%TO.N,GND*%
X92773500Y-86931500D03*
X94107000Y-77724000D03*
X89979500Y-77533500D03*
X95377000Y-92456000D03*
X105283000Y-91948000D03*
X106680000Y-88138000D03*
X107569000Y-74104500D03*
X100584000Y-74612500D03*
X97713800Y-85801200D03*
X110464600Y-84455000D03*
X112090200Y-77216000D03*
X114249200Y-83235800D03*
X115125500Y-75057000D03*
X99885500Y-92989400D03*
D16*
X114490500Y-91694000D03*
D15*
%TO.N,/BTN1*%
X101396800Y-76631800D03*
%TO.N,VCC*%
X99441000Y-75501500D03*
X93789500Y-92392500D03*
X94742000Y-87223600D03*
%TO.N,/BTN3*%
X111861600Y-81026000D03*
%TO.N,/BTN4*%
X111836200Y-80162400D03*
%TO.N,/BTN2*%
X112090200Y-79070200D03*
%TO.N,/LEDK*%
X92075000Y-82486500D03*
%TO.N,/D4*%
X111734600Y-84201000D03*
%TO.N,/D5*%
X102044500Y-82296000D03*
X101854000Y-85153500D03*
X112090200Y-78028800D03*
%TO.N,/SCK*%
X101854000Y-83947000D03*
X103911400Y-92938600D03*
%TO.N,/MOSI*%
X102425500Y-84582000D03*
X101828600Y-92938600D03*
%TO.N,Net-(R5-Pad2)*%
X89979500Y-79375000D03*
%TO.N,Net-(R7-Pad2)*%
X89979500Y-78676500D03*
%TO.N,/D3*%
X98361500Y-97345500D03*
X110236000Y-88582500D03*
%TO.N,/D2*%
X98425000Y-96469200D03*
X109537500Y-88328500D03*
X109220000Y-89598500D03*
%TO.N,/D12*%
X112344200Y-84836000D03*
X104838500Y-93472000D03*
%TO.N,VBUS*%
X89979500Y-80137000D03*
X91376500Y-86931500D03*
X91630500Y-78422500D03*
X93281500Y-77533500D03*
X97993200Y-81889600D03*
%TO.N,/BAT+*%
X90614500Y-84137500D03*
%TO.N,/INT*%
X109232700Y-84963000D03*
X110947200Y-88468200D03*
%TD*%
D17*
%TO.N,3.3V*%
X112519191Y-91239609D02*
X112519191Y-86103191D01*
X112519191Y-86103191D02*
X111760000Y-85344000D01*
X111429800Y-92329000D02*
X112519191Y-91239609D01*
X112305412Y-75895200D02*
X113245212Y-76835000D01*
X113245212Y-76835000D02*
X116103400Y-76835000D01*
X112090200Y-75895200D02*
X112305412Y-75895200D01*
X95618300Y-79682340D02*
X95618300Y-78991460D01*
X95555477Y-86623599D02*
X93662500Y-84730622D01*
X99174300Y-87706200D02*
X98091699Y-86623599D01*
X98091699Y-86623599D02*
X95555477Y-86623599D01*
X93662500Y-84730622D02*
X93662500Y-80391000D01*
X94371160Y-79682340D02*
X95618300Y-79682340D01*
X93662500Y-80391000D02*
X94371160Y-79682340D01*
X111429800Y-92329000D02*
X111125000Y-92329000D01*
X110871000Y-92583000D02*
X110871000Y-93535500D01*
X111125000Y-92329000D02*
X110871000Y-92583000D01*
%TO.N,GND*%
X97129600Y-85852000D02*
X97764600Y-85852000D01*
X96489520Y-85211920D02*
X97129600Y-85852000D01*
X95618300Y-85211920D02*
X96489520Y-85211920D01*
X96401922Y-77609700D02*
X95618300Y-77609700D01*
X97282000Y-78489778D02*
X96401922Y-77609700D01*
X97282000Y-79674060D02*
X97282000Y-78489778D01*
X96580300Y-80375760D02*
X97282000Y-79674060D01*
X95618300Y-80375760D02*
X96580300Y-80375760D01*
X94834678Y-85211920D02*
X94170500Y-84547742D01*
X95618300Y-85211920D02*
X94834678Y-85211920D01*
X94170500Y-84547742D02*
X94170500Y-80899000D01*
X94693740Y-80375760D02*
X95618300Y-80375760D01*
X94170500Y-80899000D02*
X94693740Y-80375760D01*
D18*
X95519401Y-92313599D02*
X95377000Y-92456000D01*
X97836001Y-92313599D02*
X95519401Y-92313599D01*
D17*
X100660200Y-70788400D02*
X99528749Y-71919851D01*
X99528749Y-72937251D02*
X100584000Y-73992502D01*
X100584000Y-73992502D02*
X100584000Y-74612500D01*
X99528749Y-71919851D02*
X99528749Y-72937251D01*
X94234000Y-77787500D02*
X94551500Y-77787500D01*
X94729300Y-77609700D02*
X95618300Y-77609700D01*
X94551500Y-77787500D02*
X94729300Y-77609700D01*
D18*
X105283000Y-89535000D02*
X106680000Y-88138000D01*
X105283000Y-91948000D02*
X105283000Y-89535000D01*
D17*
X88912500Y-77533500D02*
X88882500Y-77503500D01*
X89979500Y-77533500D02*
X88912500Y-77533500D01*
%TO.N,/BTN1*%
X99983999Y-73958199D02*
X96814200Y-70788400D01*
X99983999Y-75218999D02*
X99983999Y-73958199D01*
X101396800Y-76631800D02*
X99983999Y-75218999D01*
%TO.N,VCC*%
X94742000Y-91287600D02*
X94742000Y-87376000D01*
X94742000Y-87376000D02*
X94894400Y-87223600D01*
X93700600Y-92329000D02*
X94742000Y-91287600D01*
X94742000Y-86375820D02*
X94742000Y-87223600D01*
X91474999Y-83108819D02*
X94742000Y-86375820D01*
X91474999Y-79688703D02*
X91474999Y-83108819D01*
X99441000Y-75501500D02*
X98679000Y-76263500D01*
X91474999Y-79688703D02*
X92361249Y-78802453D01*
X92361249Y-78802453D02*
X92361249Y-78263251D01*
X92173499Y-78075501D02*
X92173499Y-77499499D01*
X93409498Y-76263500D02*
X95250000Y-76263500D01*
X92361249Y-78263251D02*
X92173499Y-78075501D01*
X98679000Y-76263500D02*
X95250000Y-76263500D01*
X92173499Y-77499499D02*
X93409498Y-76263500D01*
X95250000Y-76263500D02*
X94900202Y-76263500D01*
%TO.N,/BTN3*%
X112969201Y-94624999D02*
X112969201Y-84495801D01*
X111861600Y-83388200D02*
X111861600Y-81026000D01*
X112969201Y-84495801D02*
X111861600Y-83388200D01*
D18*
X112316305Y-96641801D02*
X112316305Y-97192601D01*
X112969201Y-95917799D02*
X112010000Y-96877000D01*
X112969201Y-94624999D02*
X112969201Y-95917799D01*
D17*
%TO.N,/BTN4*%
X112486601Y-81326001D02*
X112318800Y-81493802D01*
X112486601Y-80725999D02*
X112486601Y-81326001D01*
X112318800Y-81493802D02*
X112318800Y-83208990D01*
X111923002Y-80162400D02*
X112486601Y-80725999D01*
X111836200Y-80162400D02*
X111923002Y-80162400D01*
X113419210Y-84309400D02*
X112318800Y-83208990D01*
X113419210Y-95538896D02*
X113419210Y-84309400D01*
D18*
X112617105Y-98141801D02*
X111032301Y-98141801D01*
X113419210Y-97339696D02*
X112617105Y-98141801D01*
X113419210Y-95538896D02*
X113419210Y-97339696D01*
X111367105Y-98141801D02*
X111032301Y-98141801D01*
X104613699Y-98141801D02*
X104584500Y-98171000D01*
X105253801Y-98141801D02*
X104613699Y-98141801D01*
X105253801Y-98141801D02*
X105058199Y-98141801D01*
X111032301Y-98141801D02*
X105253801Y-98141801D01*
X98108200Y-98171000D02*
X96814200Y-96877000D01*
X104584500Y-98171000D02*
X98108200Y-98171000D01*
D17*
%TO.N,/BTN2*%
X112090200Y-79070200D02*
X112715201Y-78445199D01*
X112715201Y-78445199D02*
X112715201Y-76941399D01*
X112715201Y-76941399D02*
X112294003Y-76520201D01*
X112294003Y-76520201D02*
X111790199Y-76520201D01*
X111790199Y-76520201D02*
X111465199Y-76195201D01*
X111465199Y-76195201D02*
X111465199Y-75041599D01*
D18*
X108508100Y-72326500D02*
X106970000Y-70788400D01*
X110172500Y-72326500D02*
X108508100Y-72326500D01*
X111465199Y-75041599D02*
X111465199Y-73619199D01*
X111465199Y-73619199D02*
X110172500Y-72326500D01*
D17*
%TO.N,/LEDK*%
X92303600Y-79425800D02*
X93428820Y-78300580D01*
X93428820Y-78300580D02*
X95618300Y-78300580D01*
X92303600Y-82321400D02*
X92303600Y-79425800D01*
%TO.N,/D4*%
X97586800Y-82897398D02*
X110430998Y-82897398D01*
X110430998Y-82897398D02*
X111734600Y-84201000D01*
X97586800Y-82897398D02*
X96446922Y-81757520D01*
X96446922Y-81757520D02*
X95618300Y-81757520D01*
%TO.N,/D5*%
X110972600Y-79146400D02*
X112090200Y-78028800D01*
X110972600Y-81381600D02*
X110972600Y-79146400D01*
X96555862Y-84521040D02*
X97201022Y-85166200D01*
X101803200Y-85166200D02*
X101854000Y-85115400D01*
X95618300Y-84521040D02*
X96555862Y-84521040D01*
X97201022Y-85166200D02*
X101803200Y-85166200D01*
X102468764Y-82296000D02*
X102670152Y-82497388D01*
X102044500Y-82296000D02*
X102468764Y-82296000D01*
X102670152Y-82497388D02*
X109856812Y-82497388D01*
X109956600Y-82397600D02*
X110051850Y-82302350D01*
X109856812Y-82497388D02*
X110051850Y-82302350D01*
X110051850Y-82302350D02*
X110972600Y-81381600D01*
%TO.N,/SCK*%
X103098600Y-92049600D02*
X103911400Y-92862400D01*
X103098600Y-84241198D02*
X103098600Y-92049600D01*
X102122798Y-83896200D02*
X102138199Y-83880799D01*
X101854000Y-83896200D02*
X102122798Y-83896200D01*
X102738201Y-83880799D02*
X103098600Y-84241198D01*
X102138199Y-83880799D02*
X102738201Y-83880799D01*
X96446922Y-83139280D02*
X97254642Y-83947000D01*
X95618300Y-83139280D02*
X96446922Y-83139280D01*
X97254642Y-83947000D02*
X101803200Y-83947000D01*
X101803200Y-83947000D02*
X101854000Y-83896200D01*
%TO.N,/MOSI*%
X102648590Y-92236000D02*
X101828600Y-93055990D01*
X102438200Y-84759800D02*
X102648590Y-84970190D01*
X102438200Y-84505800D02*
X102438200Y-84759800D01*
X102648590Y-84970190D02*
X102648590Y-92236000D01*
X102438200Y-84505800D02*
X102371999Y-84572001D01*
X102371999Y-84572001D02*
X97243233Y-84572001D01*
X97243233Y-84572001D02*
X96501392Y-83830160D01*
X96501392Y-83830160D02*
X95618300Y-83830160D01*
%TO.N,Net-(R5-Pad2)*%
X88897500Y-79438500D02*
X88882500Y-79453500D01*
X89979500Y-79438500D02*
X88897500Y-79438500D01*
%TO.N,Net-(R7-Pad2)*%
X88882500Y-78803500D02*
X89979500Y-78803500D01*
%TO.N,/D3*%
X110236000Y-89607818D02*
X103406808Y-96437010D01*
X110236000Y-88582500D02*
X110236000Y-89607818D01*
X99345192Y-96437010D02*
X99485010Y-96437010D01*
X98361500Y-97345500D02*
X98436702Y-97345500D01*
X98436702Y-97345500D02*
X99345192Y-96437010D01*
X103406808Y-96437010D02*
X99485010Y-96437010D01*
X99485010Y-96437010D02*
X99333490Y-96437010D01*
D18*
%TO.N,/D2*%
X109220000Y-90022764D02*
X103230764Y-96012000D01*
X109220000Y-89598500D02*
X109220000Y-90022764D01*
X103230764Y-96012000D02*
X98615500Y-96012000D01*
D17*
X109220000Y-88646000D02*
X109537500Y-88328500D01*
X109220000Y-89598500D02*
X109220000Y-88646000D01*
X98425000Y-96202500D02*
X98615500Y-96012000D01*
X98425000Y-96469200D02*
X98425000Y-96202500D01*
%TO.N,/D12*%
X110244598Y-83347408D02*
X103037793Y-83347407D01*
X103037793Y-83347407D02*
X103037793Y-83543981D01*
X103037793Y-83347407D02*
X97400399Y-83347407D01*
X103037793Y-83543981D02*
X103548610Y-84054798D01*
X111109599Y-84212409D02*
X110244598Y-83347408D01*
X111109599Y-84464999D02*
X111109599Y-84212409D01*
X112344200Y-84836000D02*
X111480600Y-84836000D01*
X111480600Y-84836000D02*
X111109599Y-84464999D01*
X97400399Y-83347407D02*
X96501392Y-82448400D01*
X96501392Y-82448400D02*
X95618300Y-82448400D01*
X103548610Y-84054798D02*
X103548610Y-91863200D01*
X103548610Y-91863200D02*
X103548610Y-91898556D01*
X103988653Y-92338599D02*
X104214097Y-92338599D01*
X104214097Y-92338599D02*
X104839498Y-92964000D01*
X103548610Y-91898556D02*
X103988653Y-92338599D01*
D18*
X104839498Y-93471002D02*
X104838500Y-93472000D01*
X104839498Y-92964000D02*
X104839498Y-93471002D01*
D17*
%TO.N,VBUS*%
X97993200Y-81889600D02*
X97993200Y-78465098D01*
X97993200Y-78465098D02*
X96640301Y-77112199D01*
X94782301Y-77112199D02*
X94641299Y-77112199D01*
X96640301Y-77112199D02*
X94782301Y-77112199D01*
X89946000Y-80103500D02*
X89979500Y-80137000D01*
X88882500Y-80103500D02*
X89946000Y-80103500D01*
X91059000Y-78930500D02*
X91154250Y-78835250D01*
X91154250Y-78835250D02*
X91694000Y-78295500D01*
X91154250Y-78835250D02*
X91074989Y-78914511D01*
X91376500Y-86931500D02*
X91376500Y-83576018D01*
X91074989Y-83274507D02*
X91074989Y-82915011D01*
X91376500Y-83576018D02*
X91074989Y-83274507D01*
X91074989Y-78914511D02*
X91074989Y-82915011D01*
D18*
X94769101Y-77098999D02*
X94782301Y-77112199D01*
X93716001Y-77098999D02*
X94769101Y-77098999D01*
X93281500Y-77533500D02*
X93716001Y-77098999D01*
D17*
%TO.N,/BAT+*%
X103200200Y-70788400D02*
X101960399Y-69548599D01*
X101960399Y-69548599D02*
X96219095Y-69548599D01*
D18*
X90633990Y-78437954D02*
X93233454Y-75838490D01*
X101935399Y-69523599D02*
X103200200Y-70788400D01*
X96207095Y-69523599D02*
X101935399Y-69523599D01*
X93233454Y-72497240D02*
X96207095Y-69523599D01*
X93233454Y-75838490D02*
X93233454Y-72497240D01*
D17*
X90633990Y-78437954D02*
X90579501Y-78492443D01*
X90579501Y-78492443D02*
X90579501Y-83346999D01*
D18*
X90579501Y-84102501D02*
X90614500Y-84137500D01*
X90579501Y-83346999D02*
X90579501Y-84102501D01*
D17*
%TO.N,/INT*%
X110947200Y-87884000D02*
X110947200Y-88468200D01*
D18*
X110947200Y-87884000D02*
X110947200Y-86817200D01*
X110947200Y-86817200D02*
X109283500Y-85153500D01*
%TD*%
D19*
%TO.N,GND*%
G36*
X111587726Y-69267844D02*
G01*
X111344914Y-69352535D01*
X111185623Y-69437677D01*
X111097129Y-69695924D01*
X112010000Y-70608795D01*
X112922871Y-69695924D01*
X112834377Y-69437677D01*
X112555024Y-69302803D01*
X112420586Y-69267981D01*
X115683787Y-69268516D01*
X115802294Y-69288742D01*
X116634450Y-69670554D01*
X116739584Y-69769578D01*
X117047213Y-70231022D01*
X117109343Y-70368531D01*
X117169605Y-70627201D01*
X117196001Y-71207904D01*
X117196000Y-73149973D01*
X117195650Y-73162827D01*
X117197261Y-73172263D01*
X117198200Y-73181796D01*
X117199775Y-73186989D01*
X117200689Y-73192341D01*
X117204112Y-73201285D01*
X117206891Y-73210448D01*
X117209450Y-73215236D01*
X117211390Y-73220305D01*
X117216489Y-73228405D01*
X117221005Y-73236854D01*
X117224451Y-73241053D01*
X117227341Y-73245644D01*
X117233921Y-73252592D01*
X117240000Y-73260000D01*
X117244199Y-73263446D01*
X117247928Y-73267384D01*
X117255734Y-73272913D01*
X117263145Y-73278995D01*
X117267940Y-73281558D01*
X117270173Y-73283140D01*
X117264768Y-74462859D01*
X117103914Y-74623713D01*
X116953218Y-74849246D01*
X116849417Y-75099844D01*
X116796500Y-75365877D01*
X116796500Y-75637123D01*
X116849417Y-75903156D01*
X116953218Y-76153754D01*
X117103914Y-76379287D01*
X117255293Y-76530666D01*
X117187019Y-91431608D01*
X117103914Y-91514713D01*
X116953218Y-91740246D01*
X116849417Y-91990844D01*
X116796500Y-92256877D01*
X116796500Y-92528123D01*
X116849417Y-92794156D01*
X116953218Y-93044754D01*
X117103914Y-93270287D01*
X117178253Y-93344626D01*
X117170201Y-95102076D01*
X117170467Y-95110887D01*
X117194148Y-95475593D01*
X117192644Y-96123447D01*
X117043299Y-97417772D01*
X117006987Y-97499659D01*
X116147448Y-98260965D01*
X116009404Y-98314746D01*
X115692700Y-98371078D01*
X115566999Y-98376001D01*
X113022233Y-98375896D01*
X113723115Y-97675015D01*
X113740369Y-97660855D01*
X113796853Y-97592029D01*
X113838824Y-97513506D01*
X113848664Y-97481068D01*
X113864670Y-97428304D01*
X113873397Y-97339696D01*
X113871210Y-97317491D01*
X113871210Y-95516691D01*
X113864670Y-95450289D01*
X113846210Y-95389434D01*
X113846210Y-84330367D01*
X113848275Y-84309400D01*
X113846210Y-84288433D01*
X113846210Y-84288422D01*
X113840032Y-84225693D01*
X113815615Y-84145204D01*
X113802609Y-84120871D01*
X113775966Y-84071023D01*
X113735978Y-84022299D01*
X113735974Y-84022295D01*
X113722605Y-84006005D01*
X113706315Y-83992636D01*
X112745800Y-83032122D01*
X112745800Y-81670670D01*
X112773701Y-81642769D01*
X112789996Y-81629396D01*
X112843356Y-81564377D01*
X112883006Y-81490197D01*
X112907423Y-81409708D01*
X112913601Y-81346979D01*
X112913601Y-81346967D01*
X112915666Y-81326002D01*
X112913601Y-81305037D01*
X112913601Y-80746963D01*
X112915666Y-80725998D01*
X112913601Y-80705033D01*
X112913601Y-80705021D01*
X112907423Y-80642292D01*
X112883006Y-80561803D01*
X112843357Y-80487624D01*
X112843356Y-80487622D01*
X112803369Y-80438897D01*
X112803360Y-80438888D01*
X112789996Y-80422604D01*
X112773713Y-80409241D01*
X112462724Y-80098253D01*
X112439105Y-79979511D01*
X112391840Y-79865404D01*
X112323223Y-79762711D01*
X112240166Y-79679654D01*
X112273089Y-79673105D01*
X112387196Y-79625840D01*
X112489889Y-79557223D01*
X112577223Y-79469889D01*
X112645840Y-79367196D01*
X112693105Y-79253089D01*
X112717200Y-79131954D01*
X112717200Y-79047069D01*
X113002307Y-78761962D01*
X113018596Y-78748594D01*
X113031965Y-78732304D01*
X113031969Y-78732300D01*
X113071956Y-78683576D01*
X113097166Y-78636410D01*
X113111606Y-78609395D01*
X113136023Y-78528906D01*
X113142201Y-78466177D01*
X113142201Y-78466166D01*
X113144266Y-78445199D01*
X113142201Y-78424232D01*
X113142201Y-77249966D01*
X113161505Y-77255822D01*
X113224234Y-77262000D01*
X113224245Y-77262000D01*
X113245212Y-77264065D01*
X113266179Y-77262000D01*
X115643688Y-77262000D01*
X115703711Y-77322023D01*
X115806404Y-77390640D01*
X115920511Y-77437905D01*
X116041646Y-77462000D01*
X116165154Y-77462000D01*
X116286289Y-77437905D01*
X116400396Y-77390640D01*
X116503089Y-77322023D01*
X116590423Y-77234689D01*
X116659040Y-77131996D01*
X116706305Y-77017889D01*
X116730400Y-76896754D01*
X116730400Y-76773246D01*
X116706305Y-76652111D01*
X116659040Y-76538004D01*
X116590423Y-76435311D01*
X116503089Y-76347977D01*
X116400396Y-76279360D01*
X116286289Y-76232095D01*
X116165154Y-76208000D01*
X116041646Y-76208000D01*
X115920511Y-76232095D01*
X115806404Y-76279360D01*
X115703711Y-76347977D01*
X115643688Y-76408000D01*
X113422081Y-76408000D01*
X112669568Y-75655488D01*
X112645840Y-75598204D01*
X112577223Y-75495511D01*
X112489889Y-75408177D01*
X112387196Y-75339560D01*
X112273089Y-75292295D01*
X112151954Y-75268200D01*
X112028446Y-75268200D01*
X111907311Y-75292295D01*
X111892199Y-75298555D01*
X111892199Y-75191061D01*
X111910659Y-75130206D01*
X111917199Y-75063804D01*
X111917199Y-73641401D01*
X111919386Y-73619198D01*
X111917158Y-73596578D01*
X111910659Y-73530592D01*
X111884813Y-73445389D01*
X111842842Y-73366866D01*
X111786358Y-73298040D01*
X111769109Y-73283884D01*
X110507823Y-72022600D01*
X110493659Y-72005341D01*
X110424833Y-71948857D01*
X110346310Y-71906886D01*
X110261107Y-71881040D01*
X110259442Y-71880876D01*
X111097129Y-71880876D01*
X111185623Y-72139123D01*
X111464976Y-72273997D01*
X111765275Y-72351781D01*
X112074977Y-72369484D01*
X112382184Y-72326427D01*
X112675086Y-72224265D01*
X112834377Y-72139123D01*
X112922871Y-71880876D01*
X112010000Y-70968005D01*
X111097129Y-71880876D01*
X110259442Y-71880876D01*
X110194705Y-71874500D01*
X110172500Y-71872313D01*
X110150295Y-71874500D01*
X108695324Y-71874500D01*
X108126791Y-71305968D01*
X108188118Y-71157912D01*
X108236800Y-70913169D01*
X108236800Y-70853377D01*
X110428916Y-70853377D01*
X110471973Y-71160584D01*
X110574135Y-71453486D01*
X110659277Y-71612777D01*
X110917524Y-71701271D01*
X111830395Y-70788400D01*
X112189605Y-70788400D01*
X113102476Y-71701271D01*
X113360723Y-71612777D01*
X113495597Y-71333424D01*
X113573381Y-71033125D01*
X113591084Y-70723423D01*
X113548027Y-70416216D01*
X113445865Y-70123314D01*
X113360723Y-69964023D01*
X113102476Y-69875529D01*
X112189605Y-70788400D01*
X111830395Y-70788400D01*
X110917524Y-69875529D01*
X110659277Y-69964023D01*
X110524403Y-70243376D01*
X110446619Y-70543675D01*
X110428916Y-70853377D01*
X108236800Y-70853377D01*
X108236800Y-70663631D01*
X108188118Y-70418888D01*
X108092624Y-70188345D01*
X107953988Y-69980862D01*
X107777538Y-69804412D01*
X107570055Y-69665776D01*
X107339512Y-69570282D01*
X107094769Y-69521600D01*
X106845231Y-69521600D01*
X106600488Y-69570282D01*
X106369945Y-69665776D01*
X106162462Y-69804412D01*
X105986012Y-69980862D01*
X105847376Y-70188345D01*
X105751882Y-70418888D01*
X105703200Y-70663631D01*
X105703200Y-70913169D01*
X105751882Y-71157912D01*
X105847376Y-71388455D01*
X105986012Y-71595938D01*
X106162462Y-71772388D01*
X106369945Y-71911024D01*
X106600488Y-72006518D01*
X106845231Y-72055200D01*
X107094769Y-72055200D01*
X107339512Y-72006518D01*
X107487568Y-71945191D01*
X108172781Y-72630405D01*
X108186941Y-72647659D01*
X108255767Y-72704143D01*
X108334290Y-72746114D01*
X108419492Y-72771960D01*
X108508100Y-72780687D01*
X108530305Y-72778500D01*
X109985277Y-72778500D01*
X111013200Y-73806425D01*
X111013199Y-75063803D01*
X111019739Y-75130205D01*
X111038200Y-75191062D01*
X111038199Y-76174234D01*
X111036134Y-76195201D01*
X111038199Y-76216168D01*
X111038199Y-76216178D01*
X111044377Y-76278907D01*
X111068794Y-76359396D01*
X111068795Y-76359397D01*
X111108444Y-76433577D01*
X111148431Y-76482301D01*
X111161804Y-76498596D01*
X111178099Y-76511969D01*
X111473435Y-76807306D01*
X111486804Y-76823596D01*
X111503094Y-76836965D01*
X111503097Y-76836968D01*
X111551822Y-76876956D01*
X111579055Y-76891512D01*
X111626003Y-76916606D01*
X111706492Y-76941023D01*
X111769221Y-76947201D01*
X111769233Y-76947201D01*
X111790198Y-76949266D01*
X111811163Y-76947201D01*
X112117135Y-76947201D01*
X112288202Y-77118269D01*
X112288202Y-77432155D01*
X112273089Y-77425895D01*
X112151954Y-77401800D01*
X112028446Y-77401800D01*
X111907311Y-77425895D01*
X111793204Y-77473160D01*
X111690511Y-77541777D01*
X111603177Y-77629111D01*
X111534560Y-77731804D01*
X111487295Y-77845911D01*
X111463200Y-77967046D01*
X111463200Y-78051931D01*
X110685495Y-78829637D01*
X110669206Y-78843005D01*
X110655837Y-78859295D01*
X110655832Y-78859300D01*
X110615845Y-78908024D01*
X110579880Y-78975311D01*
X110576196Y-78982204D01*
X110551779Y-79062693D01*
X110551040Y-79070200D01*
X110543535Y-79146400D01*
X110545601Y-79167377D01*
X110545600Y-81204730D01*
X109764754Y-81985578D01*
X109764749Y-81985582D01*
X109679943Y-82070388D01*
X102847020Y-82070388D01*
X102785532Y-82008900D01*
X102772159Y-81992605D01*
X102707140Y-81939245D01*
X102632960Y-81899595D01*
X102552471Y-81875178D01*
X102505793Y-81870581D01*
X102444189Y-81808977D01*
X102341496Y-81740360D01*
X102227389Y-81693095D01*
X102106254Y-81669000D01*
X101982746Y-81669000D01*
X101861611Y-81693095D01*
X101747504Y-81740360D01*
X101644811Y-81808977D01*
X101557477Y-81896311D01*
X101488860Y-81999004D01*
X101441595Y-82113111D01*
X101417500Y-82234246D01*
X101417500Y-82357754D01*
X101439906Y-82470398D01*
X98229460Y-82470398D01*
X98290196Y-82445240D01*
X98392889Y-82376623D01*
X98480223Y-82289289D01*
X98548840Y-82186596D01*
X98596105Y-82072489D01*
X98620200Y-81951354D01*
X98620200Y-81827846D01*
X98596105Y-81706711D01*
X98548840Y-81592604D01*
X98480223Y-81489911D01*
X98420200Y-81429888D01*
X98420200Y-78486064D01*
X98422265Y-78465097D01*
X98420200Y-78444130D01*
X98420200Y-78444120D01*
X98414022Y-78381391D01*
X98389605Y-78300902D01*
X98357037Y-78239971D01*
X98349955Y-78226721D01*
X98309968Y-78177997D01*
X98309964Y-78177993D01*
X98296595Y-78161703D01*
X98280305Y-78148334D01*
X96957069Y-76825099D01*
X96943696Y-76808804D01*
X96878677Y-76755444D01*
X96804497Y-76715794D01*
X96724008Y-76691377D01*
X96715103Y-76690500D01*
X98658033Y-76690500D01*
X98679000Y-76692565D01*
X98699967Y-76690500D01*
X98699978Y-76690500D01*
X98762707Y-76684322D01*
X98843196Y-76659905D01*
X98917376Y-76620255D01*
X98982395Y-76566895D01*
X98995768Y-76550600D01*
X99417869Y-76128500D01*
X99502754Y-76128500D01*
X99623889Y-76104405D01*
X99737996Y-76057140D01*
X99840689Y-75988523D01*
X99928023Y-75901189D01*
X99981815Y-75820683D01*
X100769800Y-76608670D01*
X100769800Y-76693554D01*
X100793895Y-76814689D01*
X100841160Y-76928796D01*
X100909777Y-77031489D01*
X100997111Y-77118823D01*
X101099804Y-77187440D01*
X101213911Y-77234705D01*
X101335046Y-77258800D01*
X101458554Y-77258800D01*
X101579689Y-77234705D01*
X101693796Y-77187440D01*
X101796489Y-77118823D01*
X101883823Y-77031489D01*
X101952440Y-76928796D01*
X101999705Y-76814689D01*
X102023800Y-76693554D01*
X102023800Y-76570046D01*
X101999705Y-76448911D01*
X101952440Y-76334804D01*
X101883823Y-76232111D01*
X101796489Y-76144777D01*
X101693796Y-76076160D01*
X101579689Y-76028895D01*
X101458554Y-76004800D01*
X101373670Y-76004800D01*
X100410999Y-75042131D01*
X100410999Y-73979166D01*
X100413064Y-73958199D01*
X100410999Y-73937232D01*
X100410999Y-73937221D01*
X100404821Y-73874492D01*
X100380404Y-73794003D01*
X100367631Y-73770106D01*
X100340755Y-73719822D01*
X100300767Y-73671098D01*
X100300763Y-73671094D01*
X100287394Y-73654804D01*
X100271104Y-73641435D01*
X98510545Y-71880876D01*
X99747329Y-71880876D01*
X99835823Y-72139123D01*
X100115176Y-72273997D01*
X100415475Y-72351781D01*
X100725177Y-72369484D01*
X101032384Y-72326427D01*
X101325286Y-72224265D01*
X101484577Y-72139123D01*
X101573071Y-71880876D01*
X100660200Y-70968005D01*
X99747329Y-71880876D01*
X98510545Y-71880876D01*
X97960636Y-71330968D01*
X98032318Y-71157912D01*
X98081000Y-70913169D01*
X98081000Y-70663631D01*
X98032318Y-70418888D01*
X97936824Y-70188345D01*
X97798188Y-69980862D01*
X97792925Y-69975599D01*
X99303888Y-69975599D01*
X99174603Y-70243376D01*
X99096819Y-70543675D01*
X99079116Y-70853377D01*
X99122173Y-71160584D01*
X99224335Y-71453486D01*
X99309477Y-71612777D01*
X99567724Y-71701271D01*
X100480595Y-70788400D01*
X100466453Y-70774258D01*
X100646058Y-70594653D01*
X100660200Y-70608795D01*
X100674343Y-70594653D01*
X100853948Y-70774258D01*
X100839805Y-70788400D01*
X101752676Y-71701271D01*
X102010923Y-71612777D01*
X102101756Y-71424643D01*
X102216212Y-71595938D01*
X102392662Y-71772388D01*
X102600145Y-71911024D01*
X102830688Y-72006518D01*
X103075431Y-72055200D01*
X103324969Y-72055200D01*
X103569712Y-72006518D01*
X103800255Y-71911024D01*
X104007738Y-71772388D01*
X104184188Y-71595938D01*
X104322824Y-71388455D01*
X104418318Y-71157912D01*
X104467000Y-70913169D01*
X104467000Y-70663631D01*
X104418318Y-70418888D01*
X104322824Y-70188345D01*
X104184188Y-69980862D01*
X104007738Y-69804412D01*
X103800255Y-69665776D01*
X103569712Y-69570282D01*
X103324969Y-69521600D01*
X103075431Y-69521600D01*
X102830688Y-69570282D01*
X102682632Y-69631609D01*
X102317347Y-69266324D01*
X111587726Y-69267844D01*
G37*
X111587726Y-69267844D02*
X111344914Y-69352535D01*
X111185623Y-69437677D01*
X111097129Y-69695924D01*
X112010000Y-70608795D01*
X112922871Y-69695924D01*
X112834377Y-69437677D01*
X112555024Y-69302803D01*
X112420586Y-69267981D01*
X115683787Y-69268516D01*
X115802294Y-69288742D01*
X116634450Y-69670554D01*
X116739584Y-69769578D01*
X117047213Y-70231022D01*
X117109343Y-70368531D01*
X117169605Y-70627201D01*
X117196001Y-71207904D01*
X117196000Y-73149973D01*
X117195650Y-73162827D01*
X117197261Y-73172263D01*
X117198200Y-73181796D01*
X117199775Y-73186989D01*
X117200689Y-73192341D01*
X117204112Y-73201285D01*
X117206891Y-73210448D01*
X117209450Y-73215236D01*
X117211390Y-73220305D01*
X117216489Y-73228405D01*
X117221005Y-73236854D01*
X117224451Y-73241053D01*
X117227341Y-73245644D01*
X117233921Y-73252592D01*
X117240000Y-73260000D01*
X117244199Y-73263446D01*
X117247928Y-73267384D01*
X117255734Y-73272913D01*
X117263145Y-73278995D01*
X117267940Y-73281558D01*
X117270173Y-73283140D01*
X117264768Y-74462859D01*
X117103914Y-74623713D01*
X116953218Y-74849246D01*
X116849417Y-75099844D01*
X116796500Y-75365877D01*
X116796500Y-75637123D01*
X116849417Y-75903156D01*
X116953218Y-76153754D01*
X117103914Y-76379287D01*
X117255293Y-76530666D01*
X117187019Y-91431608D01*
X117103914Y-91514713D01*
X116953218Y-91740246D01*
X116849417Y-91990844D01*
X116796500Y-92256877D01*
X116796500Y-92528123D01*
X116849417Y-92794156D01*
X116953218Y-93044754D01*
X117103914Y-93270287D01*
X117178253Y-93344626D01*
X117170201Y-95102076D01*
X117170467Y-95110887D01*
X117194148Y-95475593D01*
X117192644Y-96123447D01*
X117043299Y-97417772D01*
X117006987Y-97499659D01*
X116147448Y-98260965D01*
X116009404Y-98314746D01*
X115692700Y-98371078D01*
X115566999Y-98376001D01*
X113022233Y-98375896D01*
X113723115Y-97675015D01*
X113740369Y-97660855D01*
X113796853Y-97592029D01*
X113838824Y-97513506D01*
X113848664Y-97481068D01*
X113864670Y-97428304D01*
X113873397Y-97339696D01*
X113871210Y-97317491D01*
X113871210Y-95516691D01*
X113864670Y-95450289D01*
X113846210Y-95389434D01*
X113846210Y-84330367D01*
X113848275Y-84309400D01*
X113846210Y-84288433D01*
X113846210Y-84288422D01*
X113840032Y-84225693D01*
X113815615Y-84145204D01*
X113802609Y-84120871D01*
X113775966Y-84071023D01*
X113735978Y-84022299D01*
X113735974Y-84022295D01*
X113722605Y-84006005D01*
X113706315Y-83992636D01*
X112745800Y-83032122D01*
X112745800Y-81670670D01*
X112773701Y-81642769D01*
X112789996Y-81629396D01*
X112843356Y-81564377D01*
X112883006Y-81490197D01*
X112907423Y-81409708D01*
X112913601Y-81346979D01*
X112913601Y-81346967D01*
X112915666Y-81326002D01*
X112913601Y-81305037D01*
X112913601Y-80746963D01*
X112915666Y-80725998D01*
X112913601Y-80705033D01*
X112913601Y-80705021D01*
X112907423Y-80642292D01*
X112883006Y-80561803D01*
X112843357Y-80487624D01*
X112843356Y-80487622D01*
X112803369Y-80438897D01*
X112803360Y-80438888D01*
X112789996Y-80422604D01*
X112773713Y-80409241D01*
X112462724Y-80098253D01*
X112439105Y-79979511D01*
X112391840Y-79865404D01*
X112323223Y-79762711D01*
X112240166Y-79679654D01*
X112273089Y-79673105D01*
X112387196Y-79625840D01*
X112489889Y-79557223D01*
X112577223Y-79469889D01*
X112645840Y-79367196D01*
X112693105Y-79253089D01*
X112717200Y-79131954D01*
X112717200Y-79047069D01*
X113002307Y-78761962D01*
X113018596Y-78748594D01*
X113031965Y-78732304D01*
X113031969Y-78732300D01*
X113071956Y-78683576D01*
X113097166Y-78636410D01*
X113111606Y-78609395D01*
X113136023Y-78528906D01*
X113142201Y-78466177D01*
X113142201Y-78466166D01*
X113144266Y-78445199D01*
X113142201Y-78424232D01*
X113142201Y-77249966D01*
X113161505Y-77255822D01*
X113224234Y-77262000D01*
X113224245Y-77262000D01*
X113245212Y-77264065D01*
X113266179Y-77262000D01*
X115643688Y-77262000D01*
X115703711Y-77322023D01*
X115806404Y-77390640D01*
X115920511Y-77437905D01*
X116041646Y-77462000D01*
X116165154Y-77462000D01*
X116286289Y-77437905D01*
X116400396Y-77390640D01*
X116503089Y-77322023D01*
X116590423Y-77234689D01*
X116659040Y-77131996D01*
X116706305Y-77017889D01*
X116730400Y-76896754D01*
X116730400Y-76773246D01*
X116706305Y-76652111D01*
X116659040Y-76538004D01*
X116590423Y-76435311D01*
X116503089Y-76347977D01*
X116400396Y-76279360D01*
X116286289Y-76232095D01*
X116165154Y-76208000D01*
X116041646Y-76208000D01*
X115920511Y-76232095D01*
X115806404Y-76279360D01*
X115703711Y-76347977D01*
X115643688Y-76408000D01*
X113422081Y-76408000D01*
X112669568Y-75655488D01*
X112645840Y-75598204D01*
X112577223Y-75495511D01*
X112489889Y-75408177D01*
X112387196Y-75339560D01*
X112273089Y-75292295D01*
X112151954Y-75268200D01*
X112028446Y-75268200D01*
X111907311Y-75292295D01*
X111892199Y-75298555D01*
X111892199Y-75191061D01*
X111910659Y-75130206D01*
X111917199Y-75063804D01*
X111917199Y-73641401D01*
X111919386Y-73619198D01*
X111917158Y-73596578D01*
X111910659Y-73530592D01*
X111884813Y-73445389D01*
X111842842Y-73366866D01*
X111786358Y-73298040D01*
X111769109Y-73283884D01*
X110507823Y-72022600D01*
X110493659Y-72005341D01*
X110424833Y-71948857D01*
X110346310Y-71906886D01*
X110261107Y-71881040D01*
X110259442Y-71880876D01*
X111097129Y-71880876D01*
X111185623Y-72139123D01*
X111464976Y-72273997D01*
X111765275Y-72351781D01*
X112074977Y-72369484D01*
X112382184Y-72326427D01*
X112675086Y-72224265D01*
X112834377Y-72139123D01*
X112922871Y-71880876D01*
X112010000Y-70968005D01*
X111097129Y-71880876D01*
X110259442Y-71880876D01*
X110194705Y-71874500D01*
X110172500Y-71872313D01*
X110150295Y-71874500D01*
X108695324Y-71874500D01*
X108126791Y-71305968D01*
X108188118Y-71157912D01*
X108236800Y-70913169D01*
X108236800Y-70853377D01*
X110428916Y-70853377D01*
X110471973Y-71160584D01*
X110574135Y-71453486D01*
X110659277Y-71612777D01*
X110917524Y-71701271D01*
X111830395Y-70788400D01*
X112189605Y-70788400D01*
X113102476Y-71701271D01*
X113360723Y-71612777D01*
X113495597Y-71333424D01*
X113573381Y-71033125D01*
X113591084Y-70723423D01*
X113548027Y-70416216D01*
X113445865Y-70123314D01*
X113360723Y-69964023D01*
X113102476Y-69875529D01*
X112189605Y-70788400D01*
X111830395Y-70788400D01*
X110917524Y-69875529D01*
X110659277Y-69964023D01*
X110524403Y-70243376D01*
X110446619Y-70543675D01*
X110428916Y-70853377D01*
X108236800Y-70853377D01*
X108236800Y-70663631D01*
X108188118Y-70418888D01*
X108092624Y-70188345D01*
X107953988Y-69980862D01*
X107777538Y-69804412D01*
X107570055Y-69665776D01*
X107339512Y-69570282D01*
X107094769Y-69521600D01*
X106845231Y-69521600D01*
X106600488Y-69570282D01*
X106369945Y-69665776D01*
X106162462Y-69804412D01*
X105986012Y-69980862D01*
X105847376Y-70188345D01*
X105751882Y-70418888D01*
X105703200Y-70663631D01*
X105703200Y-70913169D01*
X105751882Y-71157912D01*
X105847376Y-71388455D01*
X105986012Y-71595938D01*
X106162462Y-71772388D01*
X106369945Y-71911024D01*
X106600488Y-72006518D01*
X106845231Y-72055200D01*
X107094769Y-72055200D01*
X107339512Y-72006518D01*
X107487568Y-71945191D01*
X108172781Y-72630405D01*
X108186941Y-72647659D01*
X108255767Y-72704143D01*
X108334290Y-72746114D01*
X108419492Y-72771960D01*
X108508100Y-72780687D01*
X108530305Y-72778500D01*
X109985277Y-72778500D01*
X111013200Y-73806425D01*
X111013199Y-75063803D01*
X111019739Y-75130205D01*
X111038200Y-75191062D01*
X111038199Y-76174234D01*
X111036134Y-76195201D01*
X111038199Y-76216168D01*
X111038199Y-76216178D01*
X111044377Y-76278907D01*
X111068794Y-76359396D01*
X111068795Y-76359397D01*
X111108444Y-76433577D01*
X111148431Y-76482301D01*
X111161804Y-76498596D01*
X111178099Y-76511969D01*
X111473435Y-76807306D01*
X111486804Y-76823596D01*
X111503094Y-76836965D01*
X111503097Y-76836968D01*
X111551822Y-76876956D01*
X111579055Y-76891512D01*
X111626003Y-76916606D01*
X111706492Y-76941023D01*
X111769221Y-76947201D01*
X111769233Y-76947201D01*
X111790198Y-76949266D01*
X111811163Y-76947201D01*
X112117135Y-76947201D01*
X112288202Y-77118269D01*
X112288202Y-77432155D01*
X112273089Y-77425895D01*
X112151954Y-77401800D01*
X112028446Y-77401800D01*
X111907311Y-77425895D01*
X111793204Y-77473160D01*
X111690511Y-77541777D01*
X111603177Y-77629111D01*
X111534560Y-77731804D01*
X111487295Y-77845911D01*
X111463200Y-77967046D01*
X111463200Y-78051931D01*
X110685495Y-78829637D01*
X110669206Y-78843005D01*
X110655837Y-78859295D01*
X110655832Y-78859300D01*
X110615845Y-78908024D01*
X110579880Y-78975311D01*
X110576196Y-78982204D01*
X110551779Y-79062693D01*
X110551040Y-79070200D01*
X110543535Y-79146400D01*
X110545601Y-79167377D01*
X110545600Y-81204730D01*
X109764754Y-81985578D01*
X109764749Y-81985582D01*
X109679943Y-82070388D01*
X102847020Y-82070388D01*
X102785532Y-82008900D01*
X102772159Y-81992605D01*
X102707140Y-81939245D01*
X102632960Y-81899595D01*
X102552471Y-81875178D01*
X102505793Y-81870581D01*
X102444189Y-81808977D01*
X102341496Y-81740360D01*
X102227389Y-81693095D01*
X102106254Y-81669000D01*
X101982746Y-81669000D01*
X101861611Y-81693095D01*
X101747504Y-81740360D01*
X101644811Y-81808977D01*
X101557477Y-81896311D01*
X101488860Y-81999004D01*
X101441595Y-82113111D01*
X101417500Y-82234246D01*
X101417500Y-82357754D01*
X101439906Y-82470398D01*
X98229460Y-82470398D01*
X98290196Y-82445240D01*
X98392889Y-82376623D01*
X98480223Y-82289289D01*
X98548840Y-82186596D01*
X98596105Y-82072489D01*
X98620200Y-81951354D01*
X98620200Y-81827846D01*
X98596105Y-81706711D01*
X98548840Y-81592604D01*
X98480223Y-81489911D01*
X98420200Y-81429888D01*
X98420200Y-78486064D01*
X98422265Y-78465097D01*
X98420200Y-78444130D01*
X98420200Y-78444120D01*
X98414022Y-78381391D01*
X98389605Y-78300902D01*
X98357037Y-78239971D01*
X98349955Y-78226721D01*
X98309968Y-78177997D01*
X98309964Y-78177993D01*
X98296595Y-78161703D01*
X98280305Y-78148334D01*
X96957069Y-76825099D01*
X96943696Y-76808804D01*
X96878677Y-76755444D01*
X96804497Y-76715794D01*
X96724008Y-76691377D01*
X96715103Y-76690500D01*
X98658033Y-76690500D01*
X98679000Y-76692565D01*
X98699967Y-76690500D01*
X98699978Y-76690500D01*
X98762707Y-76684322D01*
X98843196Y-76659905D01*
X98917376Y-76620255D01*
X98982395Y-76566895D01*
X98995768Y-76550600D01*
X99417869Y-76128500D01*
X99502754Y-76128500D01*
X99623889Y-76104405D01*
X99737996Y-76057140D01*
X99840689Y-75988523D01*
X99928023Y-75901189D01*
X99981815Y-75820683D01*
X100769800Y-76608670D01*
X100769800Y-76693554D01*
X100793895Y-76814689D01*
X100841160Y-76928796D01*
X100909777Y-77031489D01*
X100997111Y-77118823D01*
X101099804Y-77187440D01*
X101213911Y-77234705D01*
X101335046Y-77258800D01*
X101458554Y-77258800D01*
X101579689Y-77234705D01*
X101693796Y-77187440D01*
X101796489Y-77118823D01*
X101883823Y-77031489D01*
X101952440Y-76928796D01*
X101999705Y-76814689D01*
X102023800Y-76693554D01*
X102023800Y-76570046D01*
X101999705Y-76448911D01*
X101952440Y-76334804D01*
X101883823Y-76232111D01*
X101796489Y-76144777D01*
X101693796Y-76076160D01*
X101579689Y-76028895D01*
X101458554Y-76004800D01*
X101373670Y-76004800D01*
X100410999Y-75042131D01*
X100410999Y-73979166D01*
X100413064Y-73958199D01*
X100410999Y-73937232D01*
X100410999Y-73937221D01*
X100404821Y-73874492D01*
X100380404Y-73794003D01*
X100367631Y-73770106D01*
X100340755Y-73719822D01*
X100300767Y-73671098D01*
X100300763Y-73671094D01*
X100287394Y-73654804D01*
X100271104Y-73641435D01*
X98510545Y-71880876D01*
X99747329Y-71880876D01*
X99835823Y-72139123D01*
X100115176Y-72273997D01*
X100415475Y-72351781D01*
X100725177Y-72369484D01*
X101032384Y-72326427D01*
X101325286Y-72224265D01*
X101484577Y-72139123D01*
X101573071Y-71880876D01*
X100660200Y-70968005D01*
X99747329Y-71880876D01*
X98510545Y-71880876D01*
X97960636Y-71330968D01*
X98032318Y-71157912D01*
X98081000Y-70913169D01*
X98081000Y-70663631D01*
X98032318Y-70418888D01*
X97936824Y-70188345D01*
X97798188Y-69980862D01*
X97792925Y-69975599D01*
X99303888Y-69975599D01*
X99174603Y-70243376D01*
X99096819Y-70543675D01*
X99079116Y-70853377D01*
X99122173Y-71160584D01*
X99224335Y-71453486D01*
X99309477Y-71612777D01*
X99567724Y-71701271D01*
X100480595Y-70788400D01*
X100466453Y-70774258D01*
X100646058Y-70594653D01*
X100660200Y-70608795D01*
X100674343Y-70594653D01*
X100853948Y-70774258D01*
X100839805Y-70788400D01*
X101752676Y-71701271D01*
X102010923Y-71612777D01*
X102101756Y-71424643D01*
X102216212Y-71595938D01*
X102392662Y-71772388D01*
X102600145Y-71911024D01*
X102830688Y-72006518D01*
X103075431Y-72055200D01*
X103324969Y-72055200D01*
X103569712Y-72006518D01*
X103800255Y-71911024D01*
X104007738Y-71772388D01*
X104184188Y-71595938D01*
X104322824Y-71388455D01*
X104418318Y-71157912D01*
X104467000Y-70913169D01*
X104467000Y-70663631D01*
X104418318Y-70418888D01*
X104322824Y-70188345D01*
X104184188Y-69980862D01*
X104007738Y-69804412D01*
X103800255Y-69665776D01*
X103569712Y-69570282D01*
X103324969Y-69521600D01*
X103075431Y-69521600D01*
X102830688Y-69570282D01*
X102682632Y-69631609D01*
X102317347Y-69266324D01*
X111587726Y-69267844D01*
G36*
X89492477Y-80536689D02*
G01*
X89579811Y-80624023D01*
X89682504Y-80692640D01*
X89796611Y-80739905D01*
X89917746Y-80764000D01*
X90041254Y-80764000D01*
X90152501Y-80741872D01*
X90152502Y-83197535D01*
X90134041Y-83258393D01*
X90127501Y-83324795D01*
X90127502Y-83737786D01*
X90127477Y-83737811D01*
X90058860Y-83840504D01*
X90011595Y-83954611D01*
X89987500Y-84075746D01*
X89987500Y-84199254D01*
X90011595Y-84320389D01*
X90058860Y-84434496D01*
X90127477Y-84537189D01*
X90214811Y-84624523D01*
X90317504Y-84693140D01*
X90431611Y-84740405D01*
X90552746Y-84764500D01*
X90676254Y-84764500D01*
X90797389Y-84740405D01*
X90911496Y-84693140D01*
X90949501Y-84667746D01*
X90949500Y-86471788D01*
X90889477Y-86531811D01*
X90820860Y-86634504D01*
X90773595Y-86748611D01*
X90749500Y-86869746D01*
X90749500Y-86993254D01*
X90773595Y-87114389D01*
X90820860Y-87228496D01*
X90889477Y-87331189D01*
X90976811Y-87418523D01*
X91079504Y-87487140D01*
X91193611Y-87534405D01*
X91314746Y-87558500D01*
X91438254Y-87558500D01*
X91559389Y-87534405D01*
X91673496Y-87487140D01*
X91776189Y-87418523D01*
X91863523Y-87331189D01*
X91932140Y-87228496D01*
X91979405Y-87114389D01*
X92003500Y-86993254D01*
X92003500Y-86869746D01*
X91979405Y-86748611D01*
X91932140Y-86634504D01*
X91863523Y-86531811D01*
X91803500Y-86471788D01*
X91803500Y-84041188D01*
X94315000Y-86552689D01*
X94315000Y-86763888D01*
X94254977Y-86823911D01*
X94186360Y-86926604D01*
X94139095Y-87040711D01*
X94115000Y-87161846D01*
X94115000Y-87285354D01*
X94139095Y-87406489D01*
X94186360Y-87520596D01*
X94254977Y-87623289D01*
X94315001Y-87683313D01*
X94315000Y-91110731D01*
X93643468Y-91782264D01*
X93606611Y-91789595D01*
X93492504Y-91836860D01*
X93389811Y-91905477D01*
X93302477Y-91992811D01*
X93233860Y-92095504D01*
X93186595Y-92209611D01*
X93162500Y-92330746D01*
X93162500Y-92454254D01*
X93186595Y-92575389D01*
X93233860Y-92689496D01*
X93302477Y-92792189D01*
X93389811Y-92879523D01*
X93492504Y-92948140D01*
X93606611Y-92995405D01*
X93727746Y-93019500D01*
X93851254Y-93019500D01*
X93972389Y-92995405D01*
X94086496Y-92948140D01*
X94189189Y-92879523D01*
X94276523Y-92792189D01*
X94345140Y-92689496D01*
X94392405Y-92575389D01*
X94416500Y-92454254D01*
X94416500Y-92330746D01*
X94397623Y-92235845D01*
X95029106Y-91604363D01*
X95045395Y-91590995D01*
X95058764Y-91574705D01*
X95058768Y-91574701D01*
X95098755Y-91525977D01*
X95138404Y-91451797D01*
X95138405Y-91451796D01*
X95162822Y-91371307D01*
X95169000Y-91308578D01*
X95169000Y-91308568D01*
X95171065Y-91287601D01*
X95169000Y-91266634D01*
X95169000Y-87683312D01*
X95229023Y-87623289D01*
X95297640Y-87520596D01*
X95344905Y-87406489D01*
X95369000Y-87285354D01*
X95369000Y-87161846D01*
X95344905Y-87040711D01*
X95320702Y-86982280D01*
X95374015Y-87010775D01*
X95391281Y-87020004D01*
X95471770Y-87044421D01*
X95534499Y-87050599D01*
X95534510Y-87050599D01*
X95555477Y-87052664D01*
X95576444Y-87050599D01*
X97914831Y-87050599D01*
X98687997Y-87823766D01*
X98711095Y-87939889D01*
X98758360Y-88053996D01*
X98826977Y-88156689D01*
X98914311Y-88244023D01*
X99017004Y-88312640D01*
X99131111Y-88359905D01*
X99252246Y-88384000D01*
X99375754Y-88384000D01*
X99496889Y-88359905D01*
X99610996Y-88312640D01*
X99713689Y-88244023D01*
X99801023Y-88156689D01*
X99869640Y-88053996D01*
X99916905Y-87939889D01*
X99941000Y-87818754D01*
X99941000Y-87695246D01*
X99916905Y-87574111D01*
X99869640Y-87460004D01*
X99801023Y-87357311D01*
X99713689Y-87269977D01*
X99610996Y-87201360D01*
X99496889Y-87154095D01*
X99375754Y-87130000D01*
X99252246Y-87130000D01*
X99210310Y-87138341D01*
X98408466Y-86336498D01*
X98395094Y-86320204D01*
X98330075Y-86266844D01*
X98255895Y-86227194D01*
X98175406Y-86202777D01*
X98112677Y-86196599D01*
X98112666Y-86196599D01*
X98091699Y-86194534D01*
X98070732Y-86196599D01*
X95732346Y-86196599D01*
X95443858Y-85908112D01*
X95491300Y-85860670D01*
X95491300Y-85257420D01*
X95471300Y-85257420D01*
X95471300Y-85166420D01*
X95491300Y-85166420D01*
X95491300Y-85064920D01*
X95745300Y-85064920D01*
X95745300Y-85166420D01*
X95765300Y-85166420D01*
X95765300Y-85257420D01*
X95745300Y-85257420D01*
X95745300Y-85860670D01*
X95904050Y-86019420D01*
X96370918Y-86022423D01*
X96495566Y-86011994D01*
X96615785Y-85977448D01*
X96726954Y-85920113D01*
X96824802Y-85842191D01*
X96905568Y-85746677D01*
X96966147Y-85637241D01*
X96996823Y-85541223D01*
X97002295Y-85544148D01*
X97036826Y-85562605D01*
X97117315Y-85587022D01*
X97180044Y-85593200D01*
X97180054Y-85593200D01*
X97201021Y-85595265D01*
X97221988Y-85593200D01*
X101406988Y-85593200D01*
X101454311Y-85640523D01*
X101557004Y-85709140D01*
X101671111Y-85756405D01*
X101792246Y-85780500D01*
X101915754Y-85780500D01*
X102036889Y-85756405D01*
X102150996Y-85709140D01*
X102221590Y-85661971D01*
X102221591Y-92059130D01*
X101956053Y-92324668D01*
X101890354Y-92311600D01*
X101766846Y-92311600D01*
X101645711Y-92335695D01*
X101531604Y-92382960D01*
X101428911Y-92451577D01*
X101341577Y-92538911D01*
X101272960Y-92641604D01*
X101225695Y-92755711D01*
X101201600Y-92876846D01*
X101201600Y-93000354D01*
X101225695Y-93121489D01*
X101272960Y-93235596D01*
X101341577Y-93338289D01*
X101428911Y-93425623D01*
X101531604Y-93494240D01*
X101645711Y-93541505D01*
X101766846Y-93565600D01*
X101890354Y-93565600D01*
X102011489Y-93541505D01*
X102125596Y-93494240D01*
X102228289Y-93425623D01*
X102315623Y-93338289D01*
X102384240Y-93235596D01*
X102431505Y-93121489D01*
X102447529Y-93040929D01*
X102935695Y-92552764D01*
X102951985Y-92539395D01*
X102965354Y-92523105D01*
X102965358Y-92523101D01*
X102966654Y-92521522D01*
X103290634Y-92845503D01*
X103284400Y-92876846D01*
X103284400Y-93000354D01*
X103308495Y-93121489D01*
X103355760Y-93235596D01*
X103424377Y-93338289D01*
X103511711Y-93425623D01*
X103614404Y-93494240D01*
X103728511Y-93541505D01*
X103849646Y-93565600D01*
X103973154Y-93565600D01*
X104094289Y-93541505D01*
X104208396Y-93494240D01*
X104211500Y-93492166D01*
X104211500Y-93533754D01*
X104235595Y-93654889D01*
X104282860Y-93768996D01*
X104351477Y-93871689D01*
X104438811Y-93959023D01*
X104541504Y-94027640D01*
X104565826Y-94037715D01*
X103043541Y-95560000D01*
X98593295Y-95560000D01*
X98526893Y-95566540D01*
X98441690Y-95592386D01*
X98363167Y-95634357D01*
X98294341Y-95690841D01*
X98237857Y-95759667D01*
X98207878Y-95815754D01*
X98137896Y-95885736D01*
X98121606Y-95899105D01*
X98108237Y-95915395D01*
X98108232Y-95915400D01*
X98087569Y-95940578D01*
X98025311Y-95982177D01*
X97937977Y-96069511D01*
X97869360Y-96172204D01*
X97868395Y-96174534D01*
X97798188Y-96069462D01*
X97621738Y-95893012D01*
X97414255Y-95754376D01*
X97183712Y-95658882D01*
X96938969Y-95610200D01*
X96689431Y-95610200D01*
X96444688Y-95658882D01*
X96214145Y-95754376D01*
X96006662Y-95893012D01*
X95830212Y-96069462D01*
X95691576Y-96276945D01*
X95596082Y-96507488D01*
X95547400Y-96752231D01*
X95547400Y-97001769D01*
X95596082Y-97246512D01*
X95691576Y-97477055D01*
X95830212Y-97684538D01*
X96006662Y-97860988D01*
X96214145Y-97999624D01*
X96444688Y-98095118D01*
X96689431Y-98143800D01*
X96938969Y-98143800D01*
X97183712Y-98095118D01*
X97331767Y-98033792D01*
X97673238Y-98375263D01*
X92261028Y-98375040D01*
X92439286Y-98312865D01*
X92598577Y-98227723D01*
X92687071Y-97969476D01*
X91774200Y-97056605D01*
X90861329Y-97969476D01*
X90949823Y-98227723D01*
X91229176Y-98362597D01*
X91277057Y-98374999D01*
X88084704Y-98374868D01*
X87806902Y-98337577D01*
X86877328Y-97764061D01*
X86759009Y-97610169D01*
X86755759Y-97603608D01*
X86564234Y-96941977D01*
X90193116Y-96941977D01*
X90236173Y-97249184D01*
X90338335Y-97542086D01*
X90423477Y-97701377D01*
X90681724Y-97789871D01*
X91594595Y-96877000D01*
X91953805Y-96877000D01*
X92866676Y-97789871D01*
X93124923Y-97701377D01*
X93259797Y-97422024D01*
X93337581Y-97121725D01*
X93355284Y-96812023D01*
X93312227Y-96504816D01*
X93210065Y-96211914D01*
X93124923Y-96052623D01*
X92866676Y-95964129D01*
X91953805Y-96877000D01*
X91594595Y-96877000D01*
X90681724Y-95964129D01*
X90423477Y-96052623D01*
X90288603Y-96331976D01*
X90210819Y-96632275D01*
X90193116Y-96941977D01*
X86564234Y-96941977D01*
X86514100Y-96768789D01*
X86512000Y-96743659D01*
X86512000Y-96289263D01*
X86586470Y-95887822D01*
X86588589Y-95863016D01*
X86585348Y-95836101D01*
X86573446Y-95784524D01*
X90861329Y-95784524D01*
X91774200Y-96697395D01*
X92687071Y-95784524D01*
X92598577Y-95526277D01*
X92319224Y-95391403D01*
X92018925Y-95313619D01*
X91709223Y-95295916D01*
X91402016Y-95338973D01*
X91109114Y-95441135D01*
X90949823Y-95526277D01*
X90861329Y-95784524D01*
X86573446Y-95784524D01*
X86512000Y-95518260D01*
X86512000Y-94744047D01*
X86512351Y-94731173D01*
X86510738Y-94721729D01*
X86509800Y-94712203D01*
X86508225Y-94707011D01*
X86507311Y-94701658D01*
X86503888Y-94692714D01*
X86501109Y-94683551D01*
X86498550Y-94678763D01*
X86496610Y-94673694D01*
X86491509Y-94665590D01*
X86486995Y-94657145D01*
X86483553Y-94652951D01*
X86480660Y-94648355D01*
X86474071Y-94641397D01*
X86468000Y-94634000D01*
X86463806Y-94630558D01*
X86460072Y-94626615D01*
X86452257Y-94621080D01*
X86444855Y-94615005D01*
X86440066Y-94612445D01*
X86436867Y-94610180D01*
X86438186Y-93436187D01*
X86604086Y-93270287D01*
X86754782Y-93044754D01*
X86858583Y-92794156D01*
X86911500Y-92528123D01*
X86911500Y-92256877D01*
X86858583Y-91990844D01*
X86754782Y-91740246D01*
X86604086Y-91514713D01*
X86440529Y-91351156D01*
X86441875Y-90153069D01*
X86442217Y-90152266D01*
X86443905Y-90144192D01*
X86446300Y-90136297D01*
X86446963Y-90129570D01*
X86448345Y-90122959D01*
X86448426Y-90114717D01*
X86448500Y-90113962D01*
X86448500Y-90107120D01*
X86448638Y-90093019D01*
X86448500Y-90092288D01*
X86448500Y-84779962D01*
X86449235Y-84772500D01*
X86447936Y-84759309D01*
X86448266Y-84465583D01*
X86448567Y-84465301D01*
X86453791Y-84461764D01*
X86457289Y-84458819D01*
X86481174Y-84438418D01*
X86485546Y-84433874D01*
X86490574Y-84430072D01*
X86493914Y-84426948D01*
X86516700Y-84405324D01*
X86520827Y-84400560D01*
X86525654Y-84396495D01*
X86528825Y-84393200D01*
X86550448Y-84370413D01*
X86554322Y-84365436D01*
X86558923Y-84361131D01*
X86561918Y-84357675D01*
X86582318Y-84333789D01*
X86585928Y-84328615D01*
X86590305Y-84324066D01*
X86593114Y-84320458D01*
X86612236Y-84295537D01*
X86615571Y-84290179D01*
X86619696Y-84285417D01*
X86622313Y-84281667D01*
X86640105Y-84255779D01*
X86643153Y-84250257D01*
X86647023Y-84245286D01*
X86649440Y-84241404D01*
X86665853Y-84214621D01*
X86668608Y-84208947D01*
X86672217Y-84203774D01*
X86674427Y-84199771D01*
X86689416Y-84172165D01*
X86691872Y-84166352D01*
X86695204Y-84160998D01*
X86697202Y-84156885D01*
X86710725Y-84128533D01*
X86712872Y-84122602D01*
X86715918Y-84117084D01*
X86717697Y-84112872D01*
X86729718Y-84083851D01*
X86731551Y-84077819D01*
X86734306Y-84072145D01*
X86735862Y-84067845D01*
X86746348Y-84038233D01*
X86747864Y-84032109D01*
X86750320Y-84026294D01*
X86751649Y-84021919D01*
X86760570Y-83991800D01*
X86761761Y-83985617D01*
X86763905Y-83979694D01*
X86765004Y-83975255D01*
X86772338Y-83944711D01*
X86773206Y-83938455D01*
X86775041Y-83932416D01*
X86775906Y-83927925D01*
X86781630Y-83897039D01*
X86782169Y-83890755D01*
X86783683Y-83884636D01*
X86784311Y-83880106D01*
X86788411Y-83848962D01*
X86788620Y-83842663D01*
X86789812Y-83836473D01*
X86790203Y-83831917D01*
X86792668Y-83800602D01*
X86792547Y-83794292D01*
X86793414Y-83788043D01*
X86793566Y-83783472D01*
X86794388Y-83752070D01*
X86793937Y-83745784D01*
X86794476Y-83739503D01*
X86794388Y-83734930D01*
X86793566Y-83703528D01*
X86792786Y-83697264D01*
X86792995Y-83690959D01*
X86792668Y-83686398D01*
X86790203Y-83655083D01*
X86789098Y-83648880D01*
X86788977Y-83642576D01*
X86788411Y-83638038D01*
X86784311Y-83606894D01*
X86782883Y-83600757D01*
X86782432Y-83594463D01*
X86781630Y-83589961D01*
X86775906Y-83559075D01*
X86774154Y-83553005D01*
X86773374Y-83546743D01*
X86772338Y-83542289D01*
X86765004Y-83511745D01*
X86762941Y-83505789D01*
X86761838Y-83499594D01*
X86760570Y-83495200D01*
X86751649Y-83465081D01*
X86749276Y-83459235D01*
X86747845Y-83453088D01*
X86746348Y-83448767D01*
X86735862Y-83419155D01*
X86733188Y-83413447D01*
X86731439Y-83407386D01*
X86729718Y-83403149D01*
X86717697Y-83374128D01*
X86714726Y-83368564D01*
X86712664Y-83362609D01*
X86710725Y-83358467D01*
X86697202Y-83330115D01*
X86693942Y-83324711D01*
X86691570Y-83318869D01*
X86689416Y-83314835D01*
X86674427Y-83287229D01*
X86670890Y-83282004D01*
X86668215Y-83276295D01*
X86665853Y-83272379D01*
X86649440Y-83245596D01*
X86645635Y-83240565D01*
X86642668Y-83235008D01*
X86640105Y-83231221D01*
X86622313Y-83205333D01*
X86618251Y-83200510D01*
X86614995Y-83195111D01*
X86612236Y-83191463D01*
X86593114Y-83166542D01*
X86588801Y-83161933D01*
X86585264Y-83156709D01*
X86582318Y-83153211D01*
X86561918Y-83129325D01*
X86557375Y-83124953D01*
X86553573Y-83119926D01*
X86550448Y-83116587D01*
X86528825Y-83093800D01*
X86524054Y-83089667D01*
X86519995Y-83084847D01*
X86516700Y-83081676D01*
X86493914Y-83060052D01*
X86488937Y-83056177D01*
X86484631Y-83051576D01*
X86481174Y-83048582D01*
X86457289Y-83028181D01*
X86452111Y-83024569D01*
X86449887Y-83022429D01*
X86449962Y-82956000D01*
X88194038Y-82956000D01*
X88201500Y-82956735D01*
X88231297Y-82953800D01*
X88259949Y-82945109D01*
X88286355Y-82930995D01*
X88309500Y-82912000D01*
X88328495Y-82888855D01*
X88342609Y-82862449D01*
X88351300Y-82833797D01*
X88353500Y-82811462D01*
X88354235Y-82804000D01*
X88353500Y-82796538D01*
X88353500Y-80647082D01*
X89167000Y-80647082D01*
X89231103Y-80640768D01*
X89292743Y-80622070D01*
X89349550Y-80591706D01*
X89399343Y-80550843D01*
X89416038Y-80530500D01*
X89488342Y-80530500D01*
X89492477Y-80536689D01*
G37*
X89492477Y-80536689D02*
X89579811Y-80624023D01*
X89682504Y-80692640D01*
X89796611Y-80739905D01*
X89917746Y-80764000D01*
X90041254Y-80764000D01*
X90152501Y-80741872D01*
X90152502Y-83197535D01*
X90134041Y-83258393D01*
X90127501Y-83324795D01*
X90127502Y-83737786D01*
X90127477Y-83737811D01*
X90058860Y-83840504D01*
X90011595Y-83954611D01*
X89987500Y-84075746D01*
X89987500Y-84199254D01*
X90011595Y-84320389D01*
X90058860Y-84434496D01*
X90127477Y-84537189D01*
X90214811Y-84624523D01*
X90317504Y-84693140D01*
X90431611Y-84740405D01*
X90552746Y-84764500D01*
X90676254Y-84764500D01*
X90797389Y-84740405D01*
X90911496Y-84693140D01*
X90949501Y-84667746D01*
X90949500Y-86471788D01*
X90889477Y-86531811D01*
X90820860Y-86634504D01*
X90773595Y-86748611D01*
X90749500Y-86869746D01*
X90749500Y-86993254D01*
X90773595Y-87114389D01*
X90820860Y-87228496D01*
X90889477Y-87331189D01*
X90976811Y-87418523D01*
X91079504Y-87487140D01*
X91193611Y-87534405D01*
X91314746Y-87558500D01*
X91438254Y-87558500D01*
X91559389Y-87534405D01*
X91673496Y-87487140D01*
X91776189Y-87418523D01*
X91863523Y-87331189D01*
X91932140Y-87228496D01*
X91979405Y-87114389D01*
X92003500Y-86993254D01*
X92003500Y-86869746D01*
X91979405Y-86748611D01*
X91932140Y-86634504D01*
X91863523Y-86531811D01*
X91803500Y-86471788D01*
X91803500Y-84041188D01*
X94315000Y-86552689D01*
X94315000Y-86763888D01*
X94254977Y-86823911D01*
X94186360Y-86926604D01*
X94139095Y-87040711D01*
X94115000Y-87161846D01*
X94115000Y-87285354D01*
X94139095Y-87406489D01*
X94186360Y-87520596D01*
X94254977Y-87623289D01*
X94315001Y-87683313D01*
X94315000Y-91110731D01*
X93643468Y-91782264D01*
X93606611Y-91789595D01*
X93492504Y-91836860D01*
X93389811Y-91905477D01*
X93302477Y-91992811D01*
X93233860Y-92095504D01*
X93186595Y-92209611D01*
X93162500Y-92330746D01*
X93162500Y-92454254D01*
X93186595Y-92575389D01*
X93233860Y-92689496D01*
X93302477Y-92792189D01*
X93389811Y-92879523D01*
X93492504Y-92948140D01*
X93606611Y-92995405D01*
X93727746Y-93019500D01*
X93851254Y-93019500D01*
X93972389Y-92995405D01*
X94086496Y-92948140D01*
X94189189Y-92879523D01*
X94276523Y-92792189D01*
X94345140Y-92689496D01*
X94392405Y-92575389D01*
X94416500Y-92454254D01*
X94416500Y-92330746D01*
X94397623Y-92235845D01*
X95029106Y-91604363D01*
X95045395Y-91590995D01*
X95058764Y-91574705D01*
X95058768Y-91574701D01*
X95098755Y-91525977D01*
X95138404Y-91451797D01*
X95138405Y-91451796D01*
X95162822Y-91371307D01*
X95169000Y-91308578D01*
X95169000Y-91308568D01*
X95171065Y-91287601D01*
X95169000Y-91266634D01*
X95169000Y-87683312D01*
X95229023Y-87623289D01*
X95297640Y-87520596D01*
X95344905Y-87406489D01*
X95369000Y-87285354D01*
X95369000Y-87161846D01*
X95344905Y-87040711D01*
X95320702Y-86982280D01*
X95374015Y-87010775D01*
X95391281Y-87020004D01*
X95471770Y-87044421D01*
X95534499Y-87050599D01*
X95534510Y-87050599D01*
X95555477Y-87052664D01*
X95576444Y-87050599D01*
X97914831Y-87050599D01*
X98687997Y-87823766D01*
X98711095Y-87939889D01*
X98758360Y-88053996D01*
X98826977Y-88156689D01*
X98914311Y-88244023D01*
X99017004Y-88312640D01*
X99131111Y-88359905D01*
X99252246Y-88384000D01*
X99375754Y-88384000D01*
X99496889Y-88359905D01*
X99610996Y-88312640D01*
X99713689Y-88244023D01*
X99801023Y-88156689D01*
X99869640Y-88053996D01*
X99916905Y-87939889D01*
X99941000Y-87818754D01*
X99941000Y-87695246D01*
X99916905Y-87574111D01*
X99869640Y-87460004D01*
X99801023Y-87357311D01*
X99713689Y-87269977D01*
X99610996Y-87201360D01*
X99496889Y-87154095D01*
X99375754Y-87130000D01*
X99252246Y-87130000D01*
X99210310Y-87138341D01*
X98408466Y-86336498D01*
X98395094Y-86320204D01*
X98330075Y-86266844D01*
X98255895Y-86227194D01*
X98175406Y-86202777D01*
X98112677Y-86196599D01*
X98112666Y-86196599D01*
X98091699Y-86194534D01*
X98070732Y-86196599D01*
X95732346Y-86196599D01*
X95443858Y-85908112D01*
X95491300Y-85860670D01*
X95491300Y-85257420D01*
X95471300Y-85257420D01*
X95471300Y-85166420D01*
X95491300Y-85166420D01*
X95491300Y-85064920D01*
X95745300Y-85064920D01*
X95745300Y-85166420D01*
X95765300Y-85166420D01*
X95765300Y-85257420D01*
X95745300Y-85257420D01*
X95745300Y-85860670D01*
X95904050Y-86019420D01*
X96370918Y-86022423D01*
X96495566Y-86011994D01*
X96615785Y-85977448D01*
X96726954Y-85920113D01*
X96824802Y-85842191D01*
X96905568Y-85746677D01*
X96966147Y-85637241D01*
X96996823Y-85541223D01*
X97002295Y-85544148D01*
X97036826Y-85562605D01*
X97117315Y-85587022D01*
X97180044Y-85593200D01*
X97180054Y-85593200D01*
X97201021Y-85595265D01*
X97221988Y-85593200D01*
X101406988Y-85593200D01*
X101454311Y-85640523D01*
X101557004Y-85709140D01*
X101671111Y-85756405D01*
X101792246Y-85780500D01*
X101915754Y-85780500D01*
X102036889Y-85756405D01*
X102150996Y-85709140D01*
X102221590Y-85661971D01*
X102221591Y-92059130D01*
X101956053Y-92324668D01*
X101890354Y-92311600D01*
X101766846Y-92311600D01*
X101645711Y-92335695D01*
X101531604Y-92382960D01*
X101428911Y-92451577D01*
X101341577Y-92538911D01*
X101272960Y-92641604D01*
X101225695Y-92755711D01*
X101201600Y-92876846D01*
X101201600Y-93000354D01*
X101225695Y-93121489D01*
X101272960Y-93235596D01*
X101341577Y-93338289D01*
X101428911Y-93425623D01*
X101531604Y-93494240D01*
X101645711Y-93541505D01*
X101766846Y-93565600D01*
X101890354Y-93565600D01*
X102011489Y-93541505D01*
X102125596Y-93494240D01*
X102228289Y-93425623D01*
X102315623Y-93338289D01*
X102384240Y-93235596D01*
X102431505Y-93121489D01*
X102447529Y-93040929D01*
X102935695Y-92552764D01*
X102951985Y-92539395D01*
X102965354Y-92523105D01*
X102965358Y-92523101D01*
X102966654Y-92521522D01*
X103290634Y-92845503D01*
X103284400Y-92876846D01*
X103284400Y-93000354D01*
X103308495Y-93121489D01*
X103355760Y-93235596D01*
X103424377Y-93338289D01*
X103511711Y-93425623D01*
X103614404Y-93494240D01*
X103728511Y-93541505D01*
X103849646Y-93565600D01*
X103973154Y-93565600D01*
X104094289Y-93541505D01*
X104208396Y-93494240D01*
X104211500Y-93492166D01*
X104211500Y-93533754D01*
X104235595Y-93654889D01*
X104282860Y-93768996D01*
X104351477Y-93871689D01*
X104438811Y-93959023D01*
X104541504Y-94027640D01*
X104565826Y-94037715D01*
X103043541Y-95560000D01*
X98593295Y-95560000D01*
X98526893Y-95566540D01*
X98441690Y-95592386D01*
X98363167Y-95634357D01*
X98294341Y-95690841D01*
X98237857Y-95759667D01*
X98207878Y-95815754D01*
X98137896Y-95885736D01*
X98121606Y-95899105D01*
X98108237Y-95915395D01*
X98108232Y-95915400D01*
X98087569Y-95940578D01*
X98025311Y-95982177D01*
X97937977Y-96069511D01*
X97869360Y-96172204D01*
X97868395Y-96174534D01*
X97798188Y-96069462D01*
X97621738Y-95893012D01*
X97414255Y-95754376D01*
X97183712Y-95658882D01*
X96938969Y-95610200D01*
X96689431Y-95610200D01*
X96444688Y-95658882D01*
X96214145Y-95754376D01*
X96006662Y-95893012D01*
X95830212Y-96069462D01*
X95691576Y-96276945D01*
X95596082Y-96507488D01*
X95547400Y-96752231D01*
X95547400Y-97001769D01*
X95596082Y-97246512D01*
X95691576Y-97477055D01*
X95830212Y-97684538D01*
X96006662Y-97860988D01*
X96214145Y-97999624D01*
X96444688Y-98095118D01*
X96689431Y-98143800D01*
X96938969Y-98143800D01*
X97183712Y-98095118D01*
X97331767Y-98033792D01*
X97673238Y-98375263D01*
X92261028Y-98375040D01*
X92439286Y-98312865D01*
X92598577Y-98227723D01*
X92687071Y-97969476D01*
X91774200Y-97056605D01*
X90861329Y-97969476D01*
X90949823Y-98227723D01*
X91229176Y-98362597D01*
X91277057Y-98374999D01*
X88084704Y-98374868D01*
X87806902Y-98337577D01*
X86877328Y-97764061D01*
X86759009Y-97610169D01*
X86755759Y-97603608D01*
X86564234Y-96941977D01*
X90193116Y-96941977D01*
X90236173Y-97249184D01*
X90338335Y-97542086D01*
X90423477Y-97701377D01*
X90681724Y-97789871D01*
X91594595Y-96877000D01*
X91953805Y-96877000D01*
X92866676Y-97789871D01*
X93124923Y-97701377D01*
X93259797Y-97422024D01*
X93337581Y-97121725D01*
X93355284Y-96812023D01*
X93312227Y-96504816D01*
X93210065Y-96211914D01*
X93124923Y-96052623D01*
X92866676Y-95964129D01*
X91953805Y-96877000D01*
X91594595Y-96877000D01*
X90681724Y-95964129D01*
X90423477Y-96052623D01*
X90288603Y-96331976D01*
X90210819Y-96632275D01*
X90193116Y-96941977D01*
X86564234Y-96941977D01*
X86514100Y-96768789D01*
X86512000Y-96743659D01*
X86512000Y-96289263D01*
X86586470Y-95887822D01*
X86588589Y-95863016D01*
X86585348Y-95836101D01*
X86573446Y-95784524D01*
X90861329Y-95784524D01*
X91774200Y-96697395D01*
X92687071Y-95784524D01*
X92598577Y-95526277D01*
X92319224Y-95391403D01*
X92018925Y-95313619D01*
X91709223Y-95295916D01*
X91402016Y-95338973D01*
X91109114Y-95441135D01*
X90949823Y-95526277D01*
X90861329Y-95784524D01*
X86573446Y-95784524D01*
X86512000Y-95518260D01*
X86512000Y-94744047D01*
X86512351Y-94731173D01*
X86510738Y-94721729D01*
X86509800Y-94712203D01*
X86508225Y-94707011D01*
X86507311Y-94701658D01*
X86503888Y-94692714D01*
X86501109Y-94683551D01*
X86498550Y-94678763D01*
X86496610Y-94673694D01*
X86491509Y-94665590D01*
X86486995Y-94657145D01*
X86483553Y-94652951D01*
X86480660Y-94648355D01*
X86474071Y-94641397D01*
X86468000Y-94634000D01*
X86463806Y-94630558D01*
X86460072Y-94626615D01*
X86452257Y-94621080D01*
X86444855Y-94615005D01*
X86440066Y-94612445D01*
X86436867Y-94610180D01*
X86438186Y-93436187D01*
X86604086Y-93270287D01*
X86754782Y-93044754D01*
X86858583Y-92794156D01*
X86911500Y-92528123D01*
X86911500Y-92256877D01*
X86858583Y-91990844D01*
X86754782Y-91740246D01*
X86604086Y-91514713D01*
X86440529Y-91351156D01*
X86441875Y-90153069D01*
X86442217Y-90152266D01*
X86443905Y-90144192D01*
X86446300Y-90136297D01*
X86446963Y-90129570D01*
X86448345Y-90122959D01*
X86448426Y-90114717D01*
X86448500Y-90113962D01*
X86448500Y-90107120D01*
X86448638Y-90093019D01*
X86448500Y-90092288D01*
X86448500Y-84779962D01*
X86449235Y-84772500D01*
X86447936Y-84759309D01*
X86448266Y-84465583D01*
X86448567Y-84465301D01*
X86453791Y-84461764D01*
X86457289Y-84458819D01*
X86481174Y-84438418D01*
X86485546Y-84433874D01*
X86490574Y-84430072D01*
X86493914Y-84426948D01*
X86516700Y-84405324D01*
X86520827Y-84400560D01*
X86525654Y-84396495D01*
X86528825Y-84393200D01*
X86550448Y-84370413D01*
X86554322Y-84365436D01*
X86558923Y-84361131D01*
X86561918Y-84357675D01*
X86582318Y-84333789D01*
X86585928Y-84328615D01*
X86590305Y-84324066D01*
X86593114Y-84320458D01*
X86612236Y-84295537D01*
X86615571Y-84290179D01*
X86619696Y-84285417D01*
X86622313Y-84281667D01*
X86640105Y-84255779D01*
X86643153Y-84250257D01*
X86647023Y-84245286D01*
X86649440Y-84241404D01*
X86665853Y-84214621D01*
X86668608Y-84208947D01*
X86672217Y-84203774D01*
X86674427Y-84199771D01*
X86689416Y-84172165D01*
X86691872Y-84166352D01*
X86695204Y-84160998D01*
X86697202Y-84156885D01*
X86710725Y-84128533D01*
X86712872Y-84122602D01*
X86715918Y-84117084D01*
X86717697Y-84112872D01*
X86729718Y-84083851D01*
X86731551Y-84077819D01*
X86734306Y-84072145D01*
X86735862Y-84067845D01*
X86746348Y-84038233D01*
X86747864Y-84032109D01*
X86750320Y-84026294D01*
X86751649Y-84021919D01*
X86760570Y-83991800D01*
X86761761Y-83985617D01*
X86763905Y-83979694D01*
X86765004Y-83975255D01*
X86772338Y-83944711D01*
X86773206Y-83938455D01*
X86775041Y-83932416D01*
X86775906Y-83927925D01*
X86781630Y-83897039D01*
X86782169Y-83890755D01*
X86783683Y-83884636D01*
X86784311Y-83880106D01*
X86788411Y-83848962D01*
X86788620Y-83842663D01*
X86789812Y-83836473D01*
X86790203Y-83831917D01*
X86792668Y-83800602D01*
X86792547Y-83794292D01*
X86793414Y-83788043D01*
X86793566Y-83783472D01*
X86794388Y-83752070D01*
X86793937Y-83745784D01*
X86794476Y-83739503D01*
X86794388Y-83734930D01*
X86793566Y-83703528D01*
X86792786Y-83697264D01*
X86792995Y-83690959D01*
X86792668Y-83686398D01*
X86790203Y-83655083D01*
X86789098Y-83648880D01*
X86788977Y-83642576D01*
X86788411Y-83638038D01*
X86784311Y-83606894D01*
X86782883Y-83600757D01*
X86782432Y-83594463D01*
X86781630Y-83589961D01*
X86775906Y-83559075D01*
X86774154Y-83553005D01*
X86773374Y-83546743D01*
X86772338Y-83542289D01*
X86765004Y-83511745D01*
X86762941Y-83505789D01*
X86761838Y-83499594D01*
X86760570Y-83495200D01*
X86751649Y-83465081D01*
X86749276Y-83459235D01*
X86747845Y-83453088D01*
X86746348Y-83448767D01*
X86735862Y-83419155D01*
X86733188Y-83413447D01*
X86731439Y-83407386D01*
X86729718Y-83403149D01*
X86717697Y-83374128D01*
X86714726Y-83368564D01*
X86712664Y-83362609D01*
X86710725Y-83358467D01*
X86697202Y-83330115D01*
X86693942Y-83324711D01*
X86691570Y-83318869D01*
X86689416Y-83314835D01*
X86674427Y-83287229D01*
X86670890Y-83282004D01*
X86668215Y-83276295D01*
X86665853Y-83272379D01*
X86649440Y-83245596D01*
X86645635Y-83240565D01*
X86642668Y-83235008D01*
X86640105Y-83231221D01*
X86622313Y-83205333D01*
X86618251Y-83200510D01*
X86614995Y-83195111D01*
X86612236Y-83191463D01*
X86593114Y-83166542D01*
X86588801Y-83161933D01*
X86585264Y-83156709D01*
X86582318Y-83153211D01*
X86561918Y-83129325D01*
X86557375Y-83124953D01*
X86553573Y-83119926D01*
X86550448Y-83116587D01*
X86528825Y-83093800D01*
X86524054Y-83089667D01*
X86519995Y-83084847D01*
X86516700Y-83081676D01*
X86493914Y-83060052D01*
X86488937Y-83056177D01*
X86484631Y-83051576D01*
X86481174Y-83048582D01*
X86457289Y-83028181D01*
X86452111Y-83024569D01*
X86449887Y-83022429D01*
X86449962Y-82956000D01*
X88194038Y-82956000D01*
X88201500Y-82956735D01*
X88231297Y-82953800D01*
X88259949Y-82945109D01*
X88286355Y-82930995D01*
X88309500Y-82912000D01*
X88328495Y-82888855D01*
X88342609Y-82862449D01*
X88351300Y-82833797D01*
X88353500Y-82811462D01*
X88354235Y-82804000D01*
X88353500Y-82796538D01*
X88353500Y-80647082D01*
X89167000Y-80647082D01*
X89231103Y-80640768D01*
X89292743Y-80622070D01*
X89349550Y-80591706D01*
X89399343Y-80550843D01*
X89416038Y-80530500D01*
X89488342Y-80530500D01*
X89492477Y-80536689D01*
G36*
X110067730Y-83774408D02*
G01*
X110682599Y-84389279D01*
X110682599Y-84444032D01*
X110680534Y-84464999D01*
X110682599Y-84485966D01*
X110682599Y-84485976D01*
X110688777Y-84548705D01*
X110713194Y-84629194D01*
X110727366Y-84655708D01*
X110752844Y-84703375D01*
X110792831Y-84752099D01*
X110806204Y-84768394D01*
X110822499Y-84781767D01*
X111163836Y-85123105D01*
X111177205Y-85139395D01*
X111193495Y-85152764D01*
X111193499Y-85152768D01*
X111209678Y-85166046D01*
X111204360Y-85174004D01*
X111157095Y-85288111D01*
X111133000Y-85409246D01*
X111133000Y-85532754D01*
X111157095Y-85653889D01*
X111204360Y-85767996D01*
X111272977Y-85870689D01*
X111360311Y-85958023D01*
X111463004Y-86026640D01*
X111577111Y-86073905D01*
X111698246Y-86098000D01*
X111821754Y-86098000D01*
X111895468Y-86083337D01*
X112092192Y-86280062D01*
X112092191Y-91062740D01*
X111252932Y-91902000D01*
X111145964Y-91902000D01*
X111124999Y-91899935D01*
X111104034Y-91902000D01*
X111104022Y-91902000D01*
X111041293Y-91908178D01*
X110960804Y-91932595D01*
X110942846Y-91942194D01*
X110886623Y-91972245D01*
X110837899Y-92012232D01*
X110837895Y-92012236D01*
X110821605Y-92025605D01*
X110808236Y-92041895D01*
X110583900Y-92266232D01*
X110567605Y-92279605D01*
X110554233Y-92295899D01*
X110554232Y-92295900D01*
X110514245Y-92344624D01*
X110509771Y-92352995D01*
X110474595Y-92418805D01*
X110450178Y-92499294D01*
X110444000Y-92562023D01*
X110444000Y-92562033D01*
X110441935Y-92583000D01*
X110444000Y-92603968D01*
X110444001Y-93075787D01*
X110383977Y-93135811D01*
X110315360Y-93238504D01*
X110268095Y-93352611D01*
X110244000Y-93473746D01*
X110244000Y-93597254D01*
X110268095Y-93718389D01*
X110315360Y-93832496D01*
X110383977Y-93935189D01*
X110471311Y-94022523D01*
X110574004Y-94091140D01*
X110688111Y-94138405D01*
X110809246Y-94162500D01*
X110932754Y-94162500D01*
X111053889Y-94138405D01*
X111167996Y-94091140D01*
X111270689Y-94022523D01*
X111358023Y-93935189D01*
X111426640Y-93832496D01*
X111473905Y-93718389D01*
X111498000Y-93597254D01*
X111498000Y-93473746D01*
X111473905Y-93352611D01*
X111426640Y-93238504D01*
X111358023Y-93135811D01*
X111298000Y-93075788D01*
X111298000Y-92759868D01*
X111301869Y-92756000D01*
X111408833Y-92756000D01*
X111429800Y-92758065D01*
X111450767Y-92756000D01*
X111450778Y-92756000D01*
X111513507Y-92749822D01*
X111593996Y-92725405D01*
X111668176Y-92685755D01*
X111733195Y-92632395D01*
X111746568Y-92616100D01*
X112542201Y-91820467D01*
X112542201Y-94475538D01*
X112523741Y-94536393D01*
X112517201Y-94602795D01*
X112517202Y-95715915D01*
X112379512Y-95658882D01*
X112134769Y-95610200D01*
X111885231Y-95610200D01*
X111640488Y-95658882D01*
X111409945Y-95754376D01*
X111202462Y-95893012D01*
X111026012Y-96069462D01*
X110887376Y-96276945D01*
X110791882Y-96507488D01*
X110743200Y-96752231D01*
X110743200Y-97001769D01*
X110791882Y-97246512D01*
X110887376Y-97477055D01*
X111026012Y-97684538D01*
X111031275Y-97689801D01*
X108326312Y-97689801D01*
X108455597Y-97422024D01*
X108533381Y-97121725D01*
X108551084Y-96812023D01*
X108508027Y-96504816D01*
X108405865Y-96211914D01*
X108320723Y-96052623D01*
X108062476Y-95964129D01*
X107149605Y-96877000D01*
X107163748Y-96891143D01*
X106984143Y-97070748D01*
X106970000Y-97056605D01*
X106955858Y-97070748D01*
X106776253Y-96891143D01*
X106790395Y-96877000D01*
X105877524Y-95964129D01*
X105619277Y-96052623D01*
X105484403Y-96331976D01*
X105406619Y-96632275D01*
X105388916Y-96941977D01*
X105431973Y-97249184D01*
X105534135Y-97542086D01*
X105613090Y-97689801D01*
X104635904Y-97689801D01*
X104613699Y-97687614D01*
X104591494Y-97689801D01*
X104525092Y-97696341D01*
X104450395Y-97719000D01*
X98866022Y-97719000D01*
X98917140Y-97642496D01*
X98964405Y-97528389D01*
X98988500Y-97407254D01*
X98988500Y-97397570D01*
X99522061Y-96864010D01*
X103385841Y-96864010D01*
X103406808Y-96866075D01*
X103427775Y-96864010D01*
X103427786Y-96864010D01*
X103490515Y-96857832D01*
X103571004Y-96833415D01*
X103645184Y-96793765D01*
X103710203Y-96740405D01*
X103723576Y-96724110D01*
X104663162Y-95784524D01*
X106057129Y-95784524D01*
X106970000Y-96697395D01*
X107882871Y-95784524D01*
X107794377Y-95526277D01*
X107515024Y-95391403D01*
X107214725Y-95313619D01*
X106905023Y-95295916D01*
X106597816Y-95338973D01*
X106304914Y-95441135D01*
X106145623Y-95526277D01*
X106057129Y-95784524D01*
X104663162Y-95784524D01*
X110523105Y-89924582D01*
X110539395Y-89911213D01*
X110552764Y-89894923D01*
X110552768Y-89894919D01*
X110592755Y-89846195D01*
X110632404Y-89772015D01*
X110632405Y-89772014D01*
X110656822Y-89691525D01*
X110663000Y-89628796D01*
X110663000Y-89628785D01*
X110665065Y-89607818D01*
X110663000Y-89586851D01*
X110663000Y-89042212D01*
X110672243Y-89032969D01*
X110764311Y-89071105D01*
X110885446Y-89095200D01*
X111008954Y-89095200D01*
X111130089Y-89071105D01*
X111244196Y-89023840D01*
X111346889Y-88955223D01*
X111434223Y-88867889D01*
X111502840Y-88765196D01*
X111550105Y-88651089D01*
X111574200Y-88529954D01*
X111574200Y-88406446D01*
X111550105Y-88285311D01*
X111502840Y-88171204D01*
X111434223Y-88068511D01*
X111380012Y-88014300D01*
X111392660Y-87972607D01*
X111399200Y-87906205D01*
X111399200Y-86839404D01*
X111401387Y-86817199D01*
X111392660Y-86728592D01*
X111366814Y-86643390D01*
X111362064Y-86634504D01*
X111324843Y-86564867D01*
X111268359Y-86496041D01*
X111251110Y-86481886D01*
X109848796Y-85079573D01*
X109859700Y-85024754D01*
X109859700Y-84901246D01*
X109835605Y-84780111D01*
X109788340Y-84666004D01*
X109719723Y-84563311D01*
X109632389Y-84475977D01*
X109529696Y-84407360D01*
X109415589Y-84360095D01*
X109294454Y-84336000D01*
X109170946Y-84336000D01*
X109049811Y-84360095D01*
X108935704Y-84407360D01*
X108833011Y-84475977D01*
X108745677Y-84563311D01*
X108677060Y-84666004D01*
X108629795Y-84780111D01*
X108605700Y-84901246D01*
X108605700Y-85024754D01*
X108629795Y-85145889D01*
X108677060Y-85259996D01*
X108745677Y-85362689D01*
X108833011Y-85450023D01*
X108935704Y-85518640D01*
X109049811Y-85565905D01*
X109058388Y-85567611D01*
X110495201Y-87004426D01*
X110495200Y-87906204D01*
X110501740Y-87972606D01*
X110514388Y-88014300D01*
X110510957Y-88017731D01*
X110418889Y-87979595D01*
X110297754Y-87955500D01*
X110174246Y-87955500D01*
X110057829Y-87978657D01*
X110024523Y-87928811D01*
X109937189Y-87841477D01*
X109834496Y-87772860D01*
X109720389Y-87725595D01*
X109599254Y-87701500D01*
X109475746Y-87701500D01*
X109354611Y-87725595D01*
X109240504Y-87772860D01*
X109137811Y-87841477D01*
X109050477Y-87928811D01*
X108981860Y-88031504D01*
X108934595Y-88145611D01*
X108910500Y-88266746D01*
X108910500Y-88350045D01*
X108903237Y-88358895D01*
X108903232Y-88358900D01*
X108863245Y-88407624D01*
X108823596Y-88481804D01*
X108799179Y-88562294D01*
X108790935Y-88646000D01*
X108793001Y-88666977D01*
X108793000Y-89138788D01*
X108732977Y-89198811D01*
X108664360Y-89301504D01*
X108617095Y-89415611D01*
X108593000Y-89536746D01*
X108593000Y-89660254D01*
X108617095Y-89781389D01*
X108664360Y-89895496D01*
X108681857Y-89921683D01*
X105404215Y-93199326D01*
X105394140Y-93175004D01*
X105325523Y-93072311D01*
X105291498Y-93038286D01*
X105291498Y-92941795D01*
X105284958Y-92875393D01*
X105259112Y-92790190D01*
X105217141Y-92711667D01*
X105160657Y-92642841D01*
X105091830Y-92586357D01*
X105035747Y-92556380D01*
X104530864Y-92051498D01*
X104517492Y-92035204D01*
X104452473Y-91981844D01*
X104378293Y-91942194D01*
X104297804Y-91917777D01*
X104235075Y-91911599D01*
X104235064Y-91911599D01*
X104214097Y-91909534D01*
X104193130Y-91911599D01*
X104165522Y-91911599D01*
X103975610Y-91721688D01*
X103975610Y-84075762D01*
X103977675Y-84054797D01*
X103975610Y-84033832D01*
X103975610Y-84033820D01*
X103969432Y-83971091D01*
X103945015Y-83890602D01*
X103924592Y-83852393D01*
X103905365Y-83816421D01*
X103870885Y-83774406D01*
X110067730Y-83774408D01*
G37*
X110067730Y-83774408D02*
X110682599Y-84389279D01*
X110682599Y-84444032D01*
X110680534Y-84464999D01*
X110682599Y-84485966D01*
X110682599Y-84485976D01*
X110688777Y-84548705D01*
X110713194Y-84629194D01*
X110727366Y-84655708D01*
X110752844Y-84703375D01*
X110792831Y-84752099D01*
X110806204Y-84768394D01*
X110822499Y-84781767D01*
X111163836Y-85123105D01*
X111177205Y-85139395D01*
X111193495Y-85152764D01*
X111193499Y-85152768D01*
X111209678Y-85166046D01*
X111204360Y-85174004D01*
X111157095Y-85288111D01*
X111133000Y-85409246D01*
X111133000Y-85532754D01*
X111157095Y-85653889D01*
X111204360Y-85767996D01*
X111272977Y-85870689D01*
X111360311Y-85958023D01*
X111463004Y-86026640D01*
X111577111Y-86073905D01*
X111698246Y-86098000D01*
X111821754Y-86098000D01*
X111895468Y-86083337D01*
X112092192Y-86280062D01*
X112092191Y-91062740D01*
X111252932Y-91902000D01*
X111145964Y-91902000D01*
X111124999Y-91899935D01*
X111104034Y-91902000D01*
X111104022Y-91902000D01*
X111041293Y-91908178D01*
X110960804Y-91932595D01*
X110942846Y-91942194D01*
X110886623Y-91972245D01*
X110837899Y-92012232D01*
X110837895Y-92012236D01*
X110821605Y-92025605D01*
X110808236Y-92041895D01*
X110583900Y-92266232D01*
X110567605Y-92279605D01*
X110554233Y-92295899D01*
X110554232Y-92295900D01*
X110514245Y-92344624D01*
X110509771Y-92352995D01*
X110474595Y-92418805D01*
X110450178Y-92499294D01*
X110444000Y-92562023D01*
X110444000Y-92562033D01*
X110441935Y-92583000D01*
X110444000Y-92603968D01*
X110444001Y-93075787D01*
X110383977Y-93135811D01*
X110315360Y-93238504D01*
X110268095Y-93352611D01*
X110244000Y-93473746D01*
X110244000Y-93597254D01*
X110268095Y-93718389D01*
X110315360Y-93832496D01*
X110383977Y-93935189D01*
X110471311Y-94022523D01*
X110574004Y-94091140D01*
X110688111Y-94138405D01*
X110809246Y-94162500D01*
X110932754Y-94162500D01*
X111053889Y-94138405D01*
X111167996Y-94091140D01*
X111270689Y-94022523D01*
X111358023Y-93935189D01*
X111426640Y-93832496D01*
X111473905Y-93718389D01*
X111498000Y-93597254D01*
X111498000Y-93473746D01*
X111473905Y-93352611D01*
X111426640Y-93238504D01*
X111358023Y-93135811D01*
X111298000Y-93075788D01*
X111298000Y-92759868D01*
X111301869Y-92756000D01*
X111408833Y-92756000D01*
X111429800Y-92758065D01*
X111450767Y-92756000D01*
X111450778Y-92756000D01*
X111513507Y-92749822D01*
X111593996Y-92725405D01*
X111668176Y-92685755D01*
X111733195Y-92632395D01*
X111746568Y-92616100D01*
X112542201Y-91820467D01*
X112542201Y-94475538D01*
X112523741Y-94536393D01*
X112517201Y-94602795D01*
X112517202Y-95715915D01*
X112379512Y-95658882D01*
X112134769Y-95610200D01*
X111885231Y-95610200D01*
X111640488Y-95658882D01*
X111409945Y-95754376D01*
X111202462Y-95893012D01*
X111026012Y-96069462D01*
X110887376Y-96276945D01*
X110791882Y-96507488D01*
X110743200Y-96752231D01*
X110743200Y-97001769D01*
X110791882Y-97246512D01*
X110887376Y-97477055D01*
X111026012Y-97684538D01*
X111031275Y-97689801D01*
X108326312Y-97689801D01*
X108455597Y-97422024D01*
X108533381Y-97121725D01*
X108551084Y-96812023D01*
X108508027Y-96504816D01*
X108405865Y-96211914D01*
X108320723Y-96052623D01*
X108062476Y-95964129D01*
X107149605Y-96877000D01*
X107163748Y-96891143D01*
X106984143Y-97070748D01*
X106970000Y-97056605D01*
X106955858Y-97070748D01*
X106776253Y-96891143D01*
X106790395Y-96877000D01*
X105877524Y-95964129D01*
X105619277Y-96052623D01*
X105484403Y-96331976D01*
X105406619Y-96632275D01*
X105388916Y-96941977D01*
X105431973Y-97249184D01*
X105534135Y-97542086D01*
X105613090Y-97689801D01*
X104635904Y-97689801D01*
X104613699Y-97687614D01*
X104591494Y-97689801D01*
X104525092Y-97696341D01*
X104450395Y-97719000D01*
X98866022Y-97719000D01*
X98917140Y-97642496D01*
X98964405Y-97528389D01*
X98988500Y-97407254D01*
X98988500Y-97397570D01*
X99522061Y-96864010D01*
X103385841Y-96864010D01*
X103406808Y-96866075D01*
X103427775Y-96864010D01*
X103427786Y-96864010D01*
X103490515Y-96857832D01*
X103571004Y-96833415D01*
X103645184Y-96793765D01*
X103710203Y-96740405D01*
X103723576Y-96724110D01*
X104663162Y-95784524D01*
X106057129Y-95784524D01*
X106970000Y-96697395D01*
X107882871Y-95784524D01*
X107794377Y-95526277D01*
X107515024Y-95391403D01*
X107214725Y-95313619D01*
X106905023Y-95295916D01*
X106597816Y-95338973D01*
X106304914Y-95441135D01*
X106145623Y-95526277D01*
X106057129Y-95784524D01*
X104663162Y-95784524D01*
X110523105Y-89924582D01*
X110539395Y-89911213D01*
X110552764Y-89894923D01*
X110552768Y-89894919D01*
X110592755Y-89846195D01*
X110632404Y-89772015D01*
X110632405Y-89772014D01*
X110656822Y-89691525D01*
X110663000Y-89628796D01*
X110663000Y-89628785D01*
X110665065Y-89607818D01*
X110663000Y-89586851D01*
X110663000Y-89042212D01*
X110672243Y-89032969D01*
X110764311Y-89071105D01*
X110885446Y-89095200D01*
X111008954Y-89095200D01*
X111130089Y-89071105D01*
X111244196Y-89023840D01*
X111346889Y-88955223D01*
X111434223Y-88867889D01*
X111502840Y-88765196D01*
X111550105Y-88651089D01*
X111574200Y-88529954D01*
X111574200Y-88406446D01*
X111550105Y-88285311D01*
X111502840Y-88171204D01*
X111434223Y-88068511D01*
X111380012Y-88014300D01*
X111392660Y-87972607D01*
X111399200Y-87906205D01*
X111399200Y-86839404D01*
X111401387Y-86817199D01*
X111392660Y-86728592D01*
X111366814Y-86643390D01*
X111362064Y-86634504D01*
X111324843Y-86564867D01*
X111268359Y-86496041D01*
X111251110Y-86481886D01*
X109848796Y-85079573D01*
X109859700Y-85024754D01*
X109859700Y-84901246D01*
X109835605Y-84780111D01*
X109788340Y-84666004D01*
X109719723Y-84563311D01*
X109632389Y-84475977D01*
X109529696Y-84407360D01*
X109415589Y-84360095D01*
X109294454Y-84336000D01*
X109170946Y-84336000D01*
X109049811Y-84360095D01*
X108935704Y-84407360D01*
X108833011Y-84475977D01*
X108745677Y-84563311D01*
X108677060Y-84666004D01*
X108629795Y-84780111D01*
X108605700Y-84901246D01*
X108605700Y-85024754D01*
X108629795Y-85145889D01*
X108677060Y-85259996D01*
X108745677Y-85362689D01*
X108833011Y-85450023D01*
X108935704Y-85518640D01*
X109049811Y-85565905D01*
X109058388Y-85567611D01*
X110495201Y-87004426D01*
X110495200Y-87906204D01*
X110501740Y-87972606D01*
X110514388Y-88014300D01*
X110510957Y-88017731D01*
X110418889Y-87979595D01*
X110297754Y-87955500D01*
X110174246Y-87955500D01*
X110057829Y-87978657D01*
X110024523Y-87928811D01*
X109937189Y-87841477D01*
X109834496Y-87772860D01*
X109720389Y-87725595D01*
X109599254Y-87701500D01*
X109475746Y-87701500D01*
X109354611Y-87725595D01*
X109240504Y-87772860D01*
X109137811Y-87841477D01*
X109050477Y-87928811D01*
X108981860Y-88031504D01*
X108934595Y-88145611D01*
X108910500Y-88266746D01*
X108910500Y-88350045D01*
X108903237Y-88358895D01*
X108903232Y-88358900D01*
X108863245Y-88407624D01*
X108823596Y-88481804D01*
X108799179Y-88562294D01*
X108790935Y-88646000D01*
X108793001Y-88666977D01*
X108793000Y-89138788D01*
X108732977Y-89198811D01*
X108664360Y-89301504D01*
X108617095Y-89415611D01*
X108593000Y-89536746D01*
X108593000Y-89660254D01*
X108617095Y-89781389D01*
X108664360Y-89895496D01*
X108681857Y-89921683D01*
X105404215Y-93199326D01*
X105394140Y-93175004D01*
X105325523Y-93072311D01*
X105291498Y-93038286D01*
X105291498Y-92941795D01*
X105284958Y-92875393D01*
X105259112Y-92790190D01*
X105217141Y-92711667D01*
X105160657Y-92642841D01*
X105091830Y-92586357D01*
X105035747Y-92556380D01*
X104530864Y-92051498D01*
X104517492Y-92035204D01*
X104452473Y-91981844D01*
X104378293Y-91942194D01*
X104297804Y-91917777D01*
X104235075Y-91911599D01*
X104235064Y-91911599D01*
X104214097Y-91909534D01*
X104193130Y-91911599D01*
X104165522Y-91911599D01*
X103975610Y-91721688D01*
X103975610Y-84075762D01*
X103977675Y-84054797D01*
X103975610Y-84033832D01*
X103975610Y-84033820D01*
X103969432Y-83971091D01*
X103945015Y-83890602D01*
X103924592Y-83852393D01*
X103905365Y-83816421D01*
X103870885Y-83774406D01*
X110067730Y-83774408D01*
G36*
X94221300Y-80502762D02*
G01*
X94298548Y-80502762D01*
X94221300Y-80580010D01*
X94232386Y-80681930D01*
X94244932Y-80721200D01*
X94232386Y-80760470D01*
X94221300Y-80862390D01*
X94380050Y-81021140D01*
X94430771Y-81021140D01*
X94509646Y-81083953D01*
X94564299Y-81112140D01*
X94380050Y-81112140D01*
X94221300Y-81270890D01*
X94232386Y-81372810D01*
X94270453Y-81491961D01*
X94331032Y-81601397D01*
X94411798Y-81696911D01*
X94509646Y-81774833D01*
X94527718Y-81784154D01*
X94527718Y-81930020D01*
X94534032Y-81994123D01*
X94552730Y-82055763D01*
X94577957Y-82102960D01*
X94552730Y-82150157D01*
X94534032Y-82211797D01*
X94527718Y-82275900D01*
X94527718Y-82620900D01*
X94534032Y-82685003D01*
X94552730Y-82746643D01*
X94577957Y-82793840D01*
X94552730Y-82841037D01*
X94534032Y-82902677D01*
X94527718Y-82966780D01*
X94527718Y-83311780D01*
X94534032Y-83375883D01*
X94552730Y-83437523D01*
X94577957Y-83484720D01*
X94552730Y-83531917D01*
X94534032Y-83593557D01*
X94527718Y-83657660D01*
X94527718Y-84002660D01*
X94534032Y-84066763D01*
X94552730Y-84128403D01*
X94577957Y-84175600D01*
X94552730Y-84222797D01*
X94534032Y-84284437D01*
X94527718Y-84348540D01*
X94527718Y-84494406D01*
X94509646Y-84503727D01*
X94411798Y-84581649D01*
X94331032Y-84677163D01*
X94288943Y-84753197D01*
X94089500Y-84553754D01*
X94089500Y-80567868D01*
X94221300Y-80436068D01*
X94221300Y-80502762D01*
G37*
X94221300Y-80502762D02*
X94298548Y-80502762D01*
X94221300Y-80580010D01*
X94232386Y-80681930D01*
X94244932Y-80721200D01*
X94232386Y-80760470D01*
X94221300Y-80862390D01*
X94380050Y-81021140D01*
X94430771Y-81021140D01*
X94509646Y-81083953D01*
X94564299Y-81112140D01*
X94380050Y-81112140D01*
X94221300Y-81270890D01*
X94232386Y-81372810D01*
X94270453Y-81491961D01*
X94331032Y-81601397D01*
X94411798Y-81696911D01*
X94509646Y-81774833D01*
X94527718Y-81784154D01*
X94527718Y-81930020D01*
X94534032Y-81994123D01*
X94552730Y-82055763D01*
X94577957Y-82102960D01*
X94552730Y-82150157D01*
X94534032Y-82211797D01*
X94527718Y-82275900D01*
X94527718Y-82620900D01*
X94534032Y-82685003D01*
X94552730Y-82746643D01*
X94577957Y-82793840D01*
X94552730Y-82841037D01*
X94534032Y-82902677D01*
X94527718Y-82966780D01*
X94527718Y-83311780D01*
X94534032Y-83375883D01*
X94552730Y-83437523D01*
X94577957Y-83484720D01*
X94552730Y-83531917D01*
X94534032Y-83593557D01*
X94527718Y-83657660D01*
X94527718Y-84002660D01*
X94534032Y-84066763D01*
X94552730Y-84128403D01*
X94577957Y-84175600D01*
X94552730Y-84222797D01*
X94534032Y-84284437D01*
X94527718Y-84348540D01*
X94527718Y-84494406D01*
X94509646Y-84503727D01*
X94411798Y-84581649D01*
X94331032Y-84677163D01*
X94288943Y-84753197D01*
X94089500Y-84553754D01*
X94089500Y-80567868D01*
X94221300Y-80436068D01*
X94221300Y-80502762D01*
G36*
X97566201Y-78641968D02*
G01*
X97566200Y-81429888D01*
X97506177Y-81489911D01*
X97437560Y-81592604D01*
X97390295Y-81706711D01*
X97366200Y-81827846D01*
X97366200Y-81951354D01*
X97390295Y-82072489D01*
X97407644Y-82114374D01*
X96900574Y-81607303D01*
X96905568Y-81601397D01*
X96966147Y-81491961D01*
X97004214Y-81372810D01*
X97015300Y-81270890D01*
X96856550Y-81112140D01*
X96672301Y-81112140D01*
X96726954Y-81083953D01*
X96805829Y-81021140D01*
X96856550Y-81021140D01*
X97015300Y-80862390D01*
X97004214Y-80760470D01*
X96991668Y-80721200D01*
X97004214Y-80681930D01*
X97015300Y-80580010D01*
X96856550Y-80421260D01*
X96805829Y-80421260D01*
X96726954Y-80358447D01*
X96672301Y-80330260D01*
X96856550Y-80330260D01*
X97015300Y-80171510D01*
X97004214Y-80069590D01*
X96966147Y-79950439D01*
X96905568Y-79841003D01*
X96824802Y-79745489D01*
X96726954Y-79667567D01*
X96708882Y-79658246D01*
X96708882Y-79509840D01*
X96702568Y-79445737D01*
X96683870Y-79384097D01*
X96658643Y-79336900D01*
X96683870Y-79289703D01*
X96702568Y-79228063D01*
X96708882Y-79163960D01*
X96708882Y-78818960D01*
X96702568Y-78754857D01*
X96683870Y-78693217D01*
X96658643Y-78646020D01*
X96683870Y-78598823D01*
X96702568Y-78537183D01*
X96708882Y-78473080D01*
X96708882Y-78327214D01*
X96726954Y-78317893D01*
X96824802Y-78239971D01*
X96905568Y-78144457D01*
X96963691Y-78039458D01*
X97566201Y-78641968D01*
G37*
X97566201Y-78641968D02*
X97566200Y-81429888D01*
X97506177Y-81489911D01*
X97437560Y-81592604D01*
X97390295Y-81706711D01*
X97366200Y-81827846D01*
X97366200Y-81951354D01*
X97390295Y-82072489D01*
X97407644Y-82114374D01*
X96900574Y-81607303D01*
X96905568Y-81601397D01*
X96966147Y-81491961D01*
X97004214Y-81372810D01*
X97015300Y-81270890D01*
X96856550Y-81112140D01*
X96672301Y-81112140D01*
X96726954Y-81083953D01*
X96805829Y-81021140D01*
X96856550Y-81021140D01*
X97015300Y-80862390D01*
X97004214Y-80760470D01*
X96991668Y-80721200D01*
X97004214Y-80681930D01*
X97015300Y-80580010D01*
X96856550Y-80421260D01*
X96805829Y-80421260D01*
X96726954Y-80358447D01*
X96672301Y-80330260D01*
X96856550Y-80330260D01*
X97015300Y-80171510D01*
X97004214Y-80069590D01*
X96966147Y-79950439D01*
X96905568Y-79841003D01*
X96824802Y-79745489D01*
X96726954Y-79667567D01*
X96708882Y-79658246D01*
X96708882Y-79509840D01*
X96702568Y-79445737D01*
X96683870Y-79384097D01*
X96658643Y-79336900D01*
X96683870Y-79289703D01*
X96702568Y-79228063D01*
X96708882Y-79163960D01*
X96708882Y-78818960D01*
X96702568Y-78754857D01*
X96683870Y-78693217D01*
X96658643Y-78646020D01*
X96683870Y-78598823D01*
X96702568Y-78537183D01*
X96708882Y-78473080D01*
X96708882Y-78327214D01*
X96726954Y-78317893D01*
X96824802Y-78239971D01*
X96905568Y-78144457D01*
X96963691Y-78039458D01*
X97566201Y-78641968D01*
G36*
X95745300Y-80330260D02*
G01*
X95832930Y-80330260D01*
X95745300Y-80417890D01*
X95745300Y-81024510D01*
X95832930Y-81112140D01*
X95745300Y-81112140D01*
X95745300Y-81213640D01*
X95491300Y-81213640D01*
X95491300Y-81112140D01*
X95403670Y-81112140D01*
X95491300Y-81024510D01*
X95491300Y-80417890D01*
X95471300Y-80397890D01*
X95471300Y-80330260D01*
X95491300Y-80330260D01*
X95491300Y-80228760D01*
X95745300Y-80228760D01*
X95745300Y-80330260D01*
G37*
X95745300Y-80330260D02*
X95832930Y-80330260D01*
X95745300Y-80417890D01*
X95745300Y-81024510D01*
X95832930Y-81112140D01*
X95745300Y-81112140D01*
X95745300Y-81213640D01*
X95491300Y-81213640D01*
X95491300Y-81112140D01*
X95403670Y-81112140D01*
X95491300Y-81024510D01*
X95491300Y-80417890D01*
X95471300Y-80397890D01*
X95471300Y-80330260D01*
X95491300Y-80330260D01*
X95491300Y-80228760D01*
X95745300Y-80228760D01*
X95745300Y-80330260D01*
G36*
X91361434Y-69264528D02*
G01*
X91109114Y-69352535D01*
X90949823Y-69437677D01*
X90861329Y-69695924D01*
X91774200Y-70608795D01*
X92687071Y-69695924D01*
X92598577Y-69437677D01*
X92319224Y-69302803D01*
X92171969Y-69264661D01*
X95826209Y-69265260D01*
X92929550Y-72161921D01*
X92912296Y-72176081D01*
X92861569Y-72237892D01*
X92855812Y-72244907D01*
X92813840Y-72323431D01*
X92787994Y-72408633D01*
X92779267Y-72497240D01*
X92781455Y-72519455D01*
X92781454Y-75651265D01*
X90298677Y-78134044D01*
X90297809Y-78135101D01*
X90276496Y-78120860D01*
X90162389Y-78073595D01*
X90041254Y-78049500D01*
X89917746Y-78049500D01*
X89796611Y-78073595D01*
X89682504Y-78120860D01*
X89626390Y-78158354D01*
X89690331Y-78083548D01*
X89751493Y-77974437D01*
X89790193Y-77855490D01*
X89802000Y-77750250D01*
X89643250Y-77591500D01*
X88819000Y-77591500D01*
X88819000Y-77609918D01*
X88565000Y-77609918D01*
X88565000Y-77591500D01*
X88353500Y-77591500D01*
X88353500Y-77415500D01*
X88565000Y-77415500D01*
X88565000Y-76812250D01*
X88819000Y-76812250D01*
X88819000Y-77415500D01*
X89643250Y-77415500D01*
X89802000Y-77256750D01*
X89790193Y-77151510D01*
X89751493Y-77032563D01*
X89690331Y-76923452D01*
X89609058Y-76828369D01*
X89510797Y-76750969D01*
X89399324Y-76694226D01*
X89278923Y-76660321D01*
X89154221Y-76650556D01*
X88977750Y-76653500D01*
X88819000Y-76812250D01*
X88565000Y-76812250D01*
X88406250Y-76653500D01*
X88353500Y-76652620D01*
X88353500Y-74810462D01*
X88354235Y-74803000D01*
X88351300Y-74773203D01*
X88342609Y-74744551D01*
X88328495Y-74718145D01*
X88309500Y-74695000D01*
X88286355Y-74676005D01*
X88259949Y-74661891D01*
X88231297Y-74653200D01*
X88208962Y-74651000D01*
X88201500Y-74650265D01*
X88194038Y-74651000D01*
X86459293Y-74651000D01*
X86459376Y-74577036D01*
X86481174Y-74558418D01*
X86485546Y-74553874D01*
X86490574Y-74550072D01*
X86493914Y-74546948D01*
X86516700Y-74525324D01*
X86520827Y-74520560D01*
X86525654Y-74516495D01*
X86528825Y-74513200D01*
X86550448Y-74490413D01*
X86554322Y-74485436D01*
X86558923Y-74481131D01*
X86561918Y-74477675D01*
X86582318Y-74453789D01*
X86585928Y-74448615D01*
X86590305Y-74444066D01*
X86593114Y-74440458D01*
X86612236Y-74415537D01*
X86615571Y-74410179D01*
X86619696Y-74405417D01*
X86622313Y-74401667D01*
X86640105Y-74375779D01*
X86643153Y-74370257D01*
X86647023Y-74365286D01*
X86649440Y-74361404D01*
X86665853Y-74334621D01*
X86668608Y-74328947D01*
X86672217Y-74323774D01*
X86674427Y-74319771D01*
X86689416Y-74292165D01*
X86691872Y-74286352D01*
X86695204Y-74280998D01*
X86697202Y-74276885D01*
X86710725Y-74248533D01*
X86712872Y-74242602D01*
X86715918Y-74237084D01*
X86717697Y-74232872D01*
X86729718Y-74203851D01*
X86731551Y-74197819D01*
X86734306Y-74192145D01*
X86735862Y-74187845D01*
X86746348Y-74158233D01*
X86747864Y-74152109D01*
X86750320Y-74146294D01*
X86751649Y-74141919D01*
X86760570Y-74111800D01*
X86761761Y-74105617D01*
X86763905Y-74099694D01*
X86765004Y-74095255D01*
X86772338Y-74064711D01*
X86773206Y-74058455D01*
X86775041Y-74052416D01*
X86775906Y-74047925D01*
X86781630Y-74017039D01*
X86782169Y-74010755D01*
X86783683Y-74004636D01*
X86784311Y-74000106D01*
X86788411Y-73968962D01*
X86788620Y-73962663D01*
X86789812Y-73956473D01*
X86790203Y-73951917D01*
X86792668Y-73920602D01*
X86792547Y-73914292D01*
X86793414Y-73908043D01*
X86793566Y-73903472D01*
X86794388Y-73872070D01*
X86793937Y-73865784D01*
X86794476Y-73859503D01*
X86794388Y-73854930D01*
X86793566Y-73823528D01*
X86792786Y-73817264D01*
X86792995Y-73810959D01*
X86792668Y-73806398D01*
X86790203Y-73775083D01*
X86789098Y-73768880D01*
X86788977Y-73762576D01*
X86788411Y-73758038D01*
X86784311Y-73726894D01*
X86782883Y-73720757D01*
X86782432Y-73714463D01*
X86781630Y-73709961D01*
X86775906Y-73679075D01*
X86774154Y-73673005D01*
X86773374Y-73666743D01*
X86772338Y-73662289D01*
X86765004Y-73631745D01*
X86762941Y-73625789D01*
X86761838Y-73619594D01*
X86760570Y-73615200D01*
X86751649Y-73585081D01*
X86749276Y-73579235D01*
X86747845Y-73573088D01*
X86746348Y-73568767D01*
X86735862Y-73539155D01*
X86733188Y-73533447D01*
X86731439Y-73527386D01*
X86729718Y-73523149D01*
X86717697Y-73494128D01*
X86714726Y-73488564D01*
X86712664Y-73482609D01*
X86710725Y-73478467D01*
X86697202Y-73450115D01*
X86693942Y-73444711D01*
X86691570Y-73438869D01*
X86689416Y-73434835D01*
X86674427Y-73407229D01*
X86670890Y-73402004D01*
X86668215Y-73396295D01*
X86665853Y-73392379D01*
X86649440Y-73365596D01*
X86645635Y-73360565D01*
X86642668Y-73355008D01*
X86640105Y-73351221D01*
X86622313Y-73325333D01*
X86618251Y-73320510D01*
X86614995Y-73315111D01*
X86612236Y-73311463D01*
X86593114Y-73286542D01*
X86588801Y-73281933D01*
X86585264Y-73276709D01*
X86582318Y-73273211D01*
X86561918Y-73249325D01*
X86557375Y-73244953D01*
X86553573Y-73239926D01*
X86550448Y-73236587D01*
X86528825Y-73213800D01*
X86524054Y-73209667D01*
X86519995Y-73204847D01*
X86516700Y-73201676D01*
X86493914Y-73180052D01*
X86488937Y-73176177D01*
X86484631Y-73171576D01*
X86481174Y-73168582D01*
X86460978Y-73151332D01*
X86461207Y-72948093D01*
X86467764Y-72942735D01*
X86467869Y-72942607D01*
X86468000Y-72942500D01*
X86477585Y-72930821D01*
X86486809Y-72919631D01*
X86486886Y-72919488D01*
X86486995Y-72919355D01*
X86494122Y-72906021D01*
X86500981Y-72893256D01*
X86501029Y-72893098D01*
X86501109Y-72892949D01*
X86505486Y-72878519D01*
X86509734Y-72864623D01*
X86509750Y-72864461D01*
X86509800Y-72864297D01*
X86511274Y-72849335D01*
X86511983Y-72842293D01*
X86511983Y-72842131D01*
X86512735Y-72834500D01*
X86512016Y-72827200D01*
X86513558Y-72120095D01*
X86537077Y-71900588D01*
X86537263Y-71880876D01*
X90861329Y-71880876D01*
X90949823Y-72139123D01*
X91229176Y-72273997D01*
X91529475Y-72351781D01*
X91839177Y-72369484D01*
X92146384Y-72326427D01*
X92439286Y-72224265D01*
X92598577Y-72139123D01*
X92687071Y-71880876D01*
X91774200Y-70968005D01*
X90861329Y-71880876D01*
X86537263Y-71880876D01*
X86537310Y-71875911D01*
X86514652Y-71618751D01*
X86516321Y-70853377D01*
X90193116Y-70853377D01*
X90236173Y-71160584D01*
X90338335Y-71453486D01*
X90423477Y-71612777D01*
X90681724Y-71701271D01*
X91594595Y-70788400D01*
X91953805Y-70788400D01*
X92866676Y-71701271D01*
X93124923Y-71612777D01*
X93259797Y-71333424D01*
X93337581Y-71033125D01*
X93355284Y-70723423D01*
X93312227Y-70416216D01*
X93210065Y-70123314D01*
X93124923Y-69964023D01*
X92866676Y-69875529D01*
X91953805Y-70788400D01*
X91594595Y-70788400D01*
X90681724Y-69875529D01*
X90423477Y-69964023D01*
X90288603Y-70243376D01*
X90210819Y-70543675D01*
X90193116Y-70853377D01*
X86516321Y-70853377D01*
X86516489Y-70776369D01*
X86565368Y-70489984D01*
X86595861Y-70394342D01*
X86683308Y-70165171D01*
X86851796Y-69896428D01*
X87069280Y-69665523D01*
X87327465Y-69481263D01*
X87616531Y-69350657D01*
X87927859Y-69278127D01*
X88142980Y-69264000D01*
X91361434Y-69264528D01*
G37*
X91361434Y-69264528D02*
X91109114Y-69352535D01*
X90949823Y-69437677D01*
X90861329Y-69695924D01*
X91774200Y-70608795D01*
X92687071Y-69695924D01*
X92598577Y-69437677D01*
X92319224Y-69302803D01*
X92171969Y-69264661D01*
X95826209Y-69265260D01*
X92929550Y-72161921D01*
X92912296Y-72176081D01*
X92861569Y-72237892D01*
X92855812Y-72244907D01*
X92813840Y-72323431D01*
X92787994Y-72408633D01*
X92779267Y-72497240D01*
X92781455Y-72519455D01*
X92781454Y-75651265D01*
X90298677Y-78134044D01*
X90297809Y-78135101D01*
X90276496Y-78120860D01*
X90162389Y-78073595D01*
X90041254Y-78049500D01*
X89917746Y-78049500D01*
X89796611Y-78073595D01*
X89682504Y-78120860D01*
X89626390Y-78158354D01*
X89690331Y-78083548D01*
X89751493Y-77974437D01*
X89790193Y-77855490D01*
X89802000Y-77750250D01*
X89643250Y-77591500D01*
X88819000Y-77591500D01*
X88819000Y-77609918D01*
X88565000Y-77609918D01*
X88565000Y-77591500D01*
X88353500Y-77591500D01*
X88353500Y-77415500D01*
X88565000Y-77415500D01*
X88565000Y-76812250D01*
X88819000Y-76812250D01*
X88819000Y-77415500D01*
X89643250Y-77415500D01*
X89802000Y-77256750D01*
X89790193Y-77151510D01*
X89751493Y-77032563D01*
X89690331Y-76923452D01*
X89609058Y-76828369D01*
X89510797Y-76750969D01*
X89399324Y-76694226D01*
X89278923Y-76660321D01*
X89154221Y-76650556D01*
X88977750Y-76653500D01*
X88819000Y-76812250D01*
X88565000Y-76812250D01*
X88406250Y-76653500D01*
X88353500Y-76652620D01*
X88353500Y-74810462D01*
X88354235Y-74803000D01*
X88351300Y-74773203D01*
X88342609Y-74744551D01*
X88328495Y-74718145D01*
X88309500Y-74695000D01*
X88286355Y-74676005D01*
X88259949Y-74661891D01*
X88231297Y-74653200D01*
X88208962Y-74651000D01*
X88201500Y-74650265D01*
X88194038Y-74651000D01*
X86459293Y-74651000D01*
X86459376Y-74577036D01*
X86481174Y-74558418D01*
X86485546Y-74553874D01*
X86490574Y-74550072D01*
X86493914Y-74546948D01*
X86516700Y-74525324D01*
X86520827Y-74520560D01*
X86525654Y-74516495D01*
X86528825Y-74513200D01*
X86550448Y-74490413D01*
X86554322Y-74485436D01*
X86558923Y-74481131D01*
X86561918Y-74477675D01*
X86582318Y-74453789D01*
X86585928Y-74448615D01*
X86590305Y-74444066D01*
X86593114Y-74440458D01*
X86612236Y-74415537D01*
X86615571Y-74410179D01*
X86619696Y-74405417D01*
X86622313Y-74401667D01*
X86640105Y-74375779D01*
X86643153Y-74370257D01*
X86647023Y-74365286D01*
X86649440Y-74361404D01*
X86665853Y-74334621D01*
X86668608Y-74328947D01*
X86672217Y-74323774D01*
X86674427Y-74319771D01*
X86689416Y-74292165D01*
X86691872Y-74286352D01*
X86695204Y-74280998D01*
X86697202Y-74276885D01*
X86710725Y-74248533D01*
X86712872Y-74242602D01*
X86715918Y-74237084D01*
X86717697Y-74232872D01*
X86729718Y-74203851D01*
X86731551Y-74197819D01*
X86734306Y-74192145D01*
X86735862Y-74187845D01*
X86746348Y-74158233D01*
X86747864Y-74152109D01*
X86750320Y-74146294D01*
X86751649Y-74141919D01*
X86760570Y-74111800D01*
X86761761Y-74105617D01*
X86763905Y-74099694D01*
X86765004Y-74095255D01*
X86772338Y-74064711D01*
X86773206Y-74058455D01*
X86775041Y-74052416D01*
X86775906Y-74047925D01*
X86781630Y-74017039D01*
X86782169Y-74010755D01*
X86783683Y-74004636D01*
X86784311Y-74000106D01*
X86788411Y-73968962D01*
X86788620Y-73962663D01*
X86789812Y-73956473D01*
X86790203Y-73951917D01*
X86792668Y-73920602D01*
X86792547Y-73914292D01*
X86793414Y-73908043D01*
X86793566Y-73903472D01*
X86794388Y-73872070D01*
X86793937Y-73865784D01*
X86794476Y-73859503D01*
X86794388Y-73854930D01*
X86793566Y-73823528D01*
X86792786Y-73817264D01*
X86792995Y-73810959D01*
X86792668Y-73806398D01*
X86790203Y-73775083D01*
X86789098Y-73768880D01*
X86788977Y-73762576D01*
X86788411Y-73758038D01*
X86784311Y-73726894D01*
X86782883Y-73720757D01*
X86782432Y-73714463D01*
X86781630Y-73709961D01*
X86775906Y-73679075D01*
X86774154Y-73673005D01*
X86773374Y-73666743D01*
X86772338Y-73662289D01*
X86765004Y-73631745D01*
X86762941Y-73625789D01*
X86761838Y-73619594D01*
X86760570Y-73615200D01*
X86751649Y-73585081D01*
X86749276Y-73579235D01*
X86747845Y-73573088D01*
X86746348Y-73568767D01*
X86735862Y-73539155D01*
X86733188Y-73533447D01*
X86731439Y-73527386D01*
X86729718Y-73523149D01*
X86717697Y-73494128D01*
X86714726Y-73488564D01*
X86712664Y-73482609D01*
X86710725Y-73478467D01*
X86697202Y-73450115D01*
X86693942Y-73444711D01*
X86691570Y-73438869D01*
X86689416Y-73434835D01*
X86674427Y-73407229D01*
X86670890Y-73402004D01*
X86668215Y-73396295D01*
X86665853Y-73392379D01*
X86649440Y-73365596D01*
X86645635Y-73360565D01*
X86642668Y-73355008D01*
X86640105Y-73351221D01*
X86622313Y-73325333D01*
X86618251Y-73320510D01*
X86614995Y-73315111D01*
X86612236Y-73311463D01*
X86593114Y-73286542D01*
X86588801Y-73281933D01*
X86585264Y-73276709D01*
X86582318Y-73273211D01*
X86561918Y-73249325D01*
X86557375Y-73244953D01*
X86553573Y-73239926D01*
X86550448Y-73236587D01*
X86528825Y-73213800D01*
X86524054Y-73209667D01*
X86519995Y-73204847D01*
X86516700Y-73201676D01*
X86493914Y-73180052D01*
X86488937Y-73176177D01*
X86484631Y-73171576D01*
X86481174Y-73168582D01*
X86460978Y-73151332D01*
X86461207Y-72948093D01*
X86467764Y-72942735D01*
X86467869Y-72942607D01*
X86468000Y-72942500D01*
X86477585Y-72930821D01*
X86486809Y-72919631D01*
X86486886Y-72919488D01*
X86486995Y-72919355D01*
X86494122Y-72906021D01*
X86500981Y-72893256D01*
X86501029Y-72893098D01*
X86501109Y-72892949D01*
X86505486Y-72878519D01*
X86509734Y-72864623D01*
X86509750Y-72864461D01*
X86509800Y-72864297D01*
X86511274Y-72849335D01*
X86511983Y-72842293D01*
X86511983Y-72842131D01*
X86512735Y-72834500D01*
X86512016Y-72827200D01*
X86513558Y-72120095D01*
X86537077Y-71900588D01*
X86537263Y-71880876D01*
X90861329Y-71880876D01*
X90949823Y-72139123D01*
X91229176Y-72273997D01*
X91529475Y-72351781D01*
X91839177Y-72369484D01*
X92146384Y-72326427D01*
X92439286Y-72224265D01*
X92598577Y-72139123D01*
X92687071Y-71880876D01*
X91774200Y-70968005D01*
X90861329Y-71880876D01*
X86537263Y-71880876D01*
X86537310Y-71875911D01*
X86514652Y-71618751D01*
X86516321Y-70853377D01*
X90193116Y-70853377D01*
X90236173Y-71160584D01*
X90338335Y-71453486D01*
X90423477Y-71612777D01*
X90681724Y-71701271D01*
X91594595Y-70788400D01*
X91953805Y-70788400D01*
X92866676Y-71701271D01*
X93124923Y-71612777D01*
X93259797Y-71333424D01*
X93337581Y-71033125D01*
X93355284Y-70723423D01*
X93312227Y-70416216D01*
X93210065Y-70123314D01*
X93124923Y-69964023D01*
X92866676Y-69875529D01*
X91953805Y-70788400D01*
X91594595Y-70788400D01*
X90681724Y-69875529D01*
X90423477Y-69964023D01*
X90288603Y-70243376D01*
X90210819Y-70543675D01*
X90193116Y-70853377D01*
X86516321Y-70853377D01*
X86516489Y-70776369D01*
X86565368Y-70489984D01*
X86595861Y-70394342D01*
X86683308Y-70165171D01*
X86851796Y-69896428D01*
X87069280Y-69665523D01*
X87327465Y-69481263D01*
X87616531Y-69350657D01*
X87927859Y-69278127D01*
X88142980Y-69264000D01*
X91361434Y-69264528D01*
G36*
X95745300Y-77564200D02*
G01*
X95765300Y-77564200D01*
X95765300Y-77655200D01*
X95745300Y-77655200D01*
X95745300Y-77756700D01*
X95491300Y-77756700D01*
X95491300Y-77655200D01*
X94380050Y-77655200D01*
X94221300Y-77813950D01*
X94227786Y-77873580D01*
X93808352Y-77873580D01*
X93837140Y-77830496D01*
X93884405Y-77716389D01*
X93908500Y-77595254D01*
X93908500Y-77550999D01*
X94366849Y-77550999D01*
X94380050Y-77564200D01*
X94760106Y-77564200D01*
X94782301Y-77566386D01*
X94804496Y-77564200D01*
X95491300Y-77564200D01*
X95491300Y-77539199D01*
X95745300Y-77539199D01*
X95745300Y-77564200D01*
G37*
X95745300Y-77564200D02*
X95765300Y-77564200D01*
X95765300Y-77655200D01*
X95745300Y-77655200D01*
X95745300Y-77756700D01*
X95491300Y-77756700D01*
X95491300Y-77655200D01*
X94380050Y-77655200D01*
X94221300Y-77813950D01*
X94227786Y-77873580D01*
X93808352Y-77873580D01*
X93837140Y-77830496D01*
X93884405Y-77716389D01*
X93908500Y-77595254D01*
X93908500Y-77550999D01*
X94366849Y-77550999D01*
X94380050Y-77564200D01*
X94760106Y-77564200D01*
X94782301Y-77566386D01*
X94804496Y-77564200D01*
X95491300Y-77564200D01*
X95491300Y-77539199D01*
X95745300Y-77539199D01*
X95745300Y-77564200D01*
%TD*%
M02*
