M48
; DRILL file {KiCad (5.1.6)-1} date 12/06/20 14:18:52
; FORMAT={-:-/ absolute / inch / decimal}
; #@! TF.CreationDate,2020-12-06T14:18:52+01:00
; #@! TF.GenerationSoftware,Kicad,Pcbnew,(5.1.6)-1
; #@! TF.FileFunction,Plated,1,2,PTH
FMAT,2
INCH
T1C0.0118
T2C0.0400
%
G90
G05
T1
X3.54Y-3.22
X3.586Y-3.077
X3.625Y-3.2475
X3.656Y-3.421
X3.6925Y-3.6375
X3.73Y-3.434
X3.755Y-3.64
X3.84Y-3.659
X3.847Y-3.378
X3.858Y-3.224
X3.9125Y-3.4525
X3.924Y-3.661
X3.96Y-2.9375
X3.992Y-3.017
X4.009Y-3.659
X4.01Y-3.305
X4.01Y-3.3525
X4.0175Y-3.24
X4.033Y-3.327
X4.091Y-3.659
X4.1025Y-3.309
X4.145Y-3.62
X4.1775Y-3.66
X4.2Y-3.47
X4.235Y-2.9175
X4.3Y-3.5275
X4.327Y-3.484
X4.349Y-3.325
X4.365Y-3.6825
X4.368Y-3.483
X4.399Y-3.315
X4.4Y-3.365
X4.403Y-3.156
X4.404Y-3.19
X4.413Y-2.988
X4.413Y-3.04
X4.413Y-3.072
X4.413Y-3.113
X4.423Y-3.34
X4.498Y-3.277
X4.5325Y-2.955
X4.571Y-3.025
T2
X3.623Y-2.846
X3.723Y-2.846
X4.3Y-2.846
X4.4Y-2.846
X3.622Y-3.755
X3.722Y-3.755
X3.963Y-2.846
X4.063Y-2.846
X4.298Y-3.755
X4.398Y-3.755
T0
M30
