%TF.GenerationSoftware,KiCad,Pcbnew,(5.1.6)-1*%
%TF.CreationDate,2021-05-28T10:30:19+02:00*%
%TF.ProjectId,Kicad_Smart_Watch,4b696361-645f-4536-9d61-72745f576174,rev?*%
%TF.SameCoordinates,Original*%
%TF.FileFunction,Legend,Top*%
%TF.FilePolarity,Positive*%
%FSLAX46Y46*%
G04 Gerber Fmt 4.6, Leading zero omitted, Abs format (unit mm)*
G04 Created by KiCad (PCBNEW (5.1.6)-1) date 2021-05-28 10:30:19*
%MOMM*%
%LPD*%
G01*
G04 APERTURE LIST*
%ADD10C,0.120000*%
%ADD11C,0.150000*%
%ADD12C,0.066040*%
%ADD13C,0.127000*%
%ADD14C,0.200000*%
%ADD15C,0.203200*%
%ADD16C,0.254000*%
G04 APERTURE END LIST*
D10*
X91313000Y-87566500D02*
X92138500Y-87566500D01*
X91249500Y-84899500D02*
X91313000Y-87566500D01*
X90170000Y-84899500D02*
X91249500Y-84899500D01*
X90170000Y-83502500D02*
X90170000Y-84899500D01*
X86741000Y-83502500D02*
X90170000Y-83502500D01*
X86741000Y-85090000D02*
X86741000Y-83502500D01*
X86741000Y-85090000D02*
X86614000Y-85090000D01*
X86614000Y-87693500D02*
X86614000Y-85090000D01*
X87185500Y-87693500D02*
X86614000Y-87693500D01*
X87185500Y-90995500D02*
X87185500Y-87693500D01*
X92075000Y-90995500D02*
X87185500Y-90995500D01*
D11*
X100536547Y-72778928D02*
X101298452Y-72778928D01*
X102536547Y-72778928D02*
X103298452Y-72778928D01*
X102917500Y-73159880D02*
X102917500Y-72397976D01*
D10*
X110172500Y-76454000D02*
X111506000Y-76454000D01*
X106680000Y-76454000D02*
X106680000Y-76390500D01*
X103060500Y-76454000D02*
X106680000Y-76454000D01*
X99631500Y-76454000D02*
X103060500Y-76454000D01*
X106489500Y-74295000D02*
X106489500Y-75946000D01*
X103124000Y-75946000D02*
X106489500Y-75946000D01*
X103124000Y-76390500D02*
X103124000Y-75946000D01*
D11*
X114990619Y-94868785D02*
X114943000Y-94821166D01*
X114895380Y-94725928D01*
X114895380Y-94487833D01*
X114943000Y-94392595D01*
X114990619Y-94344976D01*
X115085857Y-94297357D01*
X115181095Y-94297357D01*
X115323952Y-94344976D01*
X115895380Y-94916404D01*
X115895380Y-94297357D01*
X114895380Y-93678309D02*
X114895380Y-93583071D01*
X114943000Y-93487833D01*
X114990619Y-93440214D01*
X115085857Y-93392595D01*
X115276333Y-93344976D01*
X115514428Y-93344976D01*
X115704904Y-93392595D01*
X115800142Y-93440214D01*
X115847761Y-93487833D01*
X115895380Y-93583071D01*
X115895380Y-93678309D01*
X115847761Y-93773547D01*
X115800142Y-93821166D01*
X115704904Y-93868785D01*
X115514428Y-93916404D01*
X115276333Y-93916404D01*
X115085857Y-93868785D01*
X114990619Y-93821166D01*
X114943000Y-93773547D01*
X114895380Y-93678309D01*
X114990619Y-92964023D02*
X114943000Y-92916404D01*
X114895380Y-92821166D01*
X114895380Y-92583071D01*
X114943000Y-92487833D01*
X114990619Y-92440214D01*
X115085857Y-92392595D01*
X115181095Y-92392595D01*
X115323952Y-92440214D01*
X115895380Y-93011642D01*
X115895380Y-92392595D01*
X115895380Y-91440214D02*
X115895380Y-92011642D01*
X115895380Y-91725928D02*
X114895380Y-91725928D01*
X115038238Y-91821166D01*
X115133476Y-91916404D01*
X115181095Y-92011642D01*
X114530666Y-90566571D02*
X114530666Y-90090380D01*
X114816380Y-90661809D02*
X113816380Y-90328476D01*
X114816380Y-89995142D01*
X114816380Y-89661809D02*
X113816380Y-89661809D01*
X113816380Y-89423714D01*
X113864000Y-89280857D01*
X113959238Y-89185619D01*
X114054476Y-89138000D01*
X114244952Y-89090380D01*
X114387809Y-89090380D01*
X114578285Y-89138000D01*
X114673523Y-89185619D01*
X114768761Y-89280857D01*
X114816380Y-89423714D01*
X114816380Y-89661809D01*
X114816380Y-88090380D02*
X114340190Y-88423714D01*
X114816380Y-88661809D02*
X113816380Y-88661809D01*
X113816380Y-88280857D01*
X113864000Y-88185619D01*
X113911619Y-88138000D01*
X114006857Y-88090380D01*
X114149714Y-88090380D01*
X114244952Y-88138000D01*
X114292571Y-88185619D01*
X114340190Y-88280857D01*
X114340190Y-88661809D01*
X114816380Y-87661809D02*
X113816380Y-87661809D01*
X114530666Y-87233238D02*
X114530666Y-86757047D01*
X114816380Y-87328476D02*
X113816380Y-86995142D01*
X114816380Y-86661809D01*
X114816380Y-86328476D02*
X113816380Y-86328476D01*
X114816380Y-85757047D01*
X113816380Y-85757047D01*
X115942571Y-90376095D02*
X115942571Y-90709428D01*
X116466380Y-90709428D02*
X115466380Y-90709428D01*
X115466380Y-90233238D01*
X116466380Y-89376095D02*
X116466380Y-89852285D01*
X115466380Y-89852285D01*
X115466380Y-89042761D02*
X116275904Y-89042761D01*
X116371142Y-88995142D01*
X116418761Y-88947523D01*
X116466380Y-88852285D01*
X116466380Y-88661809D01*
X116418761Y-88566571D01*
X116371142Y-88518952D01*
X116275904Y-88471333D01*
X115466380Y-88471333D01*
X116466380Y-87995142D02*
X115466380Y-87995142D01*
X115466380Y-87757047D01*
X115514000Y-87614190D01*
X115609238Y-87518952D01*
X115704476Y-87471333D01*
X115894952Y-87423714D01*
X116037809Y-87423714D01*
X116228285Y-87471333D01*
X116323523Y-87518952D01*
X116418761Y-87614190D01*
X116466380Y-87757047D01*
X116466380Y-87995142D01*
X115942571Y-86995142D02*
X115942571Y-86661809D01*
X116466380Y-86518952D02*
X116466380Y-86995142D01*
X115466380Y-86995142D01*
X115466380Y-86518952D01*
X116466380Y-85518952D02*
X115990190Y-85852285D01*
X116466380Y-86090380D02*
X115466380Y-86090380D01*
X115466380Y-85709428D01*
X115514000Y-85614190D01*
X115561619Y-85566571D01*
X115656857Y-85518952D01*
X115799714Y-85518952D01*
X115894952Y-85566571D01*
X115942571Y-85614190D01*
X115990190Y-85709428D01*
X115990190Y-86090380D01*
X105513714Y-94876880D02*
X105513714Y-93876880D01*
X105751809Y-93876880D01*
X105894666Y-93924500D01*
X105989904Y-94019738D01*
X106037523Y-94114976D01*
X106085142Y-94305452D01*
X106085142Y-94448309D01*
X106037523Y-94638785D01*
X105989904Y-94734023D01*
X105894666Y-94829261D01*
X105751809Y-94876880D01*
X105513714Y-94876880D01*
X106418476Y-93876880D02*
X107037523Y-93876880D01*
X106704190Y-94257833D01*
X106847047Y-94257833D01*
X106942285Y-94305452D01*
X106989904Y-94353071D01*
X107037523Y-94448309D01*
X107037523Y-94686404D01*
X106989904Y-94781642D01*
X106942285Y-94829261D01*
X106847047Y-94876880D01*
X106561333Y-94876880D01*
X106466095Y-94829261D01*
X106418476Y-94781642D01*
X108180380Y-93829261D02*
X107323238Y-95114976D01*
X108513714Y-94876880D02*
X108513714Y-93876880D01*
X108751809Y-93876880D01*
X108894666Y-93924500D01*
X108989904Y-94019738D01*
X109037523Y-94114976D01*
X109085142Y-94305452D01*
X109085142Y-94448309D01*
X109037523Y-94638785D01*
X108989904Y-94734023D01*
X108894666Y-94829261D01*
X108751809Y-94876880D01*
X108513714Y-94876880D01*
X109466095Y-93972119D02*
X109513714Y-93924500D01*
X109608952Y-93876880D01*
X109847047Y-93876880D01*
X109942285Y-93924500D01*
X109989904Y-93972119D01*
X110037523Y-94067357D01*
X110037523Y-94162595D01*
X109989904Y-94305452D01*
X109418476Y-94876880D01*
X110037523Y-94876880D01*
X111180380Y-93829261D02*
X110323238Y-95114976D01*
X111513714Y-94876880D02*
X111513714Y-93876880D01*
X111751809Y-93876880D01*
X111894666Y-93924500D01*
X111989904Y-94019738D01*
X112037523Y-94114976D01*
X112085142Y-94305452D01*
X112085142Y-94448309D01*
X112037523Y-94638785D01*
X111989904Y-94734023D01*
X111894666Y-94829261D01*
X111751809Y-94876880D01*
X111513714Y-94876880D01*
X113037523Y-94876880D02*
X112466095Y-94876880D01*
X112751809Y-94876880D02*
X112751809Y-93876880D01*
X112656571Y-94019738D01*
X112561333Y-94114976D01*
X112466095Y-94162595D01*
X113418476Y-93972119D02*
X113466095Y-93924500D01*
X113561333Y-93876880D01*
X113799428Y-93876880D01*
X113894666Y-93924500D01*
X113942285Y-93972119D01*
X113989904Y-94067357D01*
X113989904Y-94162595D01*
X113942285Y-94305452D01*
X113370857Y-94876880D01*
X113989904Y-94876880D01*
X99044571Y-93289380D02*
X99044571Y-92289380D01*
X99377904Y-93003666D01*
X99711238Y-92289380D01*
X99711238Y-93289380D01*
X100377904Y-92289380D02*
X100568380Y-92289380D01*
X100663619Y-92337000D01*
X100758857Y-92432238D01*
X100806476Y-92622714D01*
X100806476Y-92956047D01*
X100758857Y-93146523D01*
X100663619Y-93241761D01*
X100568380Y-93289380D01*
X100377904Y-93289380D01*
X100282666Y-93241761D01*
X100187428Y-93146523D01*
X100139809Y-92956047D01*
X100139809Y-92622714D01*
X100187428Y-92432238D01*
X100282666Y-92337000D01*
X100377904Y-92289380D01*
X101187428Y-93241761D02*
X101330285Y-93289380D01*
X101568380Y-93289380D01*
X101663619Y-93241761D01*
X101711238Y-93194142D01*
X101758857Y-93098904D01*
X101758857Y-93003666D01*
X101711238Y-92908428D01*
X101663619Y-92860809D01*
X101568380Y-92813190D01*
X101377904Y-92765571D01*
X101282666Y-92717952D01*
X101235047Y-92670333D01*
X101187428Y-92575095D01*
X101187428Y-92479857D01*
X101235047Y-92384619D01*
X101282666Y-92337000D01*
X101377904Y-92289380D01*
X101616000Y-92289380D01*
X101758857Y-92337000D01*
X102187428Y-93289380D02*
X102187428Y-92289380D01*
X103377904Y-92241761D02*
X102520761Y-93527476D01*
X103663619Y-93241761D02*
X103806476Y-93289380D01*
X104044571Y-93289380D01*
X104139809Y-93241761D01*
X104187428Y-93194142D01*
X104235047Y-93098904D01*
X104235047Y-93003666D01*
X104187428Y-92908428D01*
X104139809Y-92860809D01*
X104044571Y-92813190D01*
X103854095Y-92765571D01*
X103758857Y-92717952D01*
X103711238Y-92670333D01*
X103663619Y-92575095D01*
X103663619Y-92479857D01*
X103711238Y-92384619D01*
X103758857Y-92337000D01*
X103854095Y-92289380D01*
X104092190Y-92289380D01*
X104235047Y-92337000D01*
X105235047Y-93194142D02*
X105187428Y-93241761D01*
X105044571Y-93289380D01*
X104949333Y-93289380D01*
X104806476Y-93241761D01*
X104711238Y-93146523D01*
X104663619Y-93051285D01*
X104616000Y-92860809D01*
X104616000Y-92717952D01*
X104663619Y-92527476D01*
X104711238Y-92432238D01*
X104806476Y-92337000D01*
X104949333Y-92289380D01*
X105044571Y-92289380D01*
X105187428Y-92337000D01*
X105235047Y-92384619D01*
X105663619Y-93289380D02*
X105663619Y-92289380D01*
X106235047Y-93289380D02*
X105806476Y-92717952D01*
X106235047Y-92289380D02*
X105663619Y-92860809D01*
X96202595Y-94051500D02*
X96107357Y-94003880D01*
X95964500Y-94003880D01*
X95821642Y-94051500D01*
X95726404Y-94146738D01*
X95678785Y-94241976D01*
X95631166Y-94432452D01*
X95631166Y-94575309D01*
X95678785Y-94765785D01*
X95726404Y-94861023D01*
X95821642Y-94956261D01*
X95964500Y-95003880D01*
X96059738Y-95003880D01*
X96202595Y-94956261D01*
X96250214Y-94908642D01*
X96250214Y-94575309D01*
X96059738Y-94575309D01*
X96678785Y-95003880D02*
X96678785Y-94003880D01*
X97250214Y-95003880D01*
X97250214Y-94003880D01*
X97726404Y-95003880D02*
X97726404Y-94003880D01*
X97964500Y-94003880D01*
X98107357Y-94051500D01*
X98202595Y-94146738D01*
X98250214Y-94241976D01*
X98297833Y-94432452D01*
X98297833Y-94575309D01*
X98250214Y-94765785D01*
X98202595Y-94861023D01*
X98107357Y-94956261D01*
X97964500Y-95003880D01*
X97726404Y-95003880D01*
D10*
X98425000Y-95440500D02*
X90233500Y-95440500D01*
X98425000Y-98488500D02*
X98425000Y-95440500D01*
X90233500Y-98488500D02*
X98425000Y-98488500D01*
X90233500Y-95440500D02*
X90233500Y-98488500D01*
X113538000Y-95440500D02*
X105346500Y-95440500D01*
X113538000Y-98488500D02*
X113538000Y-95440500D01*
X105346500Y-98488500D02*
X113538000Y-98488500D01*
X105346500Y-95440500D02*
X105346500Y-98488500D01*
X113474500Y-69151500D02*
X105283000Y-69151500D01*
X113474500Y-72199500D02*
X113474500Y-69151500D01*
X105283000Y-72199500D02*
X113474500Y-72199500D01*
X105283000Y-69151500D02*
X105283000Y-72199500D01*
X98488500Y-69151500D02*
X90297000Y-69151500D01*
X98488500Y-72199500D02*
X98488500Y-69151500D01*
X90297000Y-72199500D02*
X98488500Y-72199500D01*
X90297000Y-69151500D02*
X90297000Y-72199500D01*
X96202500Y-79692500D02*
X96393000Y-79692500D01*
X96329500Y-80391000D02*
X96456500Y-80391000D01*
X96329500Y-83439000D02*
X96329500Y-80391000D01*
X96456500Y-80391000D02*
X99695000Y-80391000D01*
X103060500Y-80391000D02*
X103124000Y-84899500D01*
X101219000Y-81851500D02*
X101219000Y-84899500D01*
X101155500Y-81851500D02*
X101219000Y-81851500D01*
X99695000Y-81851500D02*
X101155500Y-81851500D01*
X99695000Y-80391000D02*
X99695000Y-81851500D01*
X99250500Y-76009500D02*
X95821500Y-76009500D01*
X95821500Y-72898000D02*
X95821500Y-76009500D01*
X99250500Y-72898000D02*
X95821500Y-72898000D01*
X99250500Y-76009500D02*
X99250500Y-72898000D01*
X92900500Y-84391500D02*
X96520000Y-84391500D01*
X92900500Y-86233000D02*
X92900500Y-84391500D01*
X91313000Y-86233000D02*
X92900500Y-86233000D01*
X91249500Y-82804000D02*
X91249500Y-86233000D01*
X92964000Y-82804000D02*
X91249500Y-82804000D01*
X92964000Y-79692500D02*
X92964000Y-82804000D01*
X96202500Y-79692500D02*
X92964000Y-79692500D01*
X101219000Y-85217000D02*
X101219000Y-84899500D01*
X96520000Y-85217000D02*
X101219000Y-85217000D01*
X96520000Y-83439000D02*
X96520000Y-85217000D01*
X96329500Y-83439000D02*
X96520000Y-83439000D01*
X103060500Y-76454000D02*
X103060500Y-80391000D01*
X99631500Y-74739500D02*
X99631500Y-76454000D01*
X102933500Y-74739500D02*
X99631500Y-74739500D01*
X102933500Y-74295000D02*
X102933500Y-74739500D01*
X106489500Y-74295000D02*
X102933500Y-74295000D01*
X96393000Y-80073500D02*
X102997000Y-80073500D01*
X96393000Y-76771500D02*
X96393000Y-80073500D01*
X102997000Y-76708000D02*
X96393000Y-76771500D01*
X111506000Y-84899500D02*
X112585500Y-84899500D01*
X112839500Y-88900000D02*
X112839500Y-84963000D01*
X111506000Y-84899500D02*
X109410500Y-84899500D01*
X111506000Y-84836000D02*
X111506000Y-84899500D01*
X111506000Y-76454000D02*
X111506000Y-84836000D01*
X110172500Y-74358500D02*
X110172500Y-76454000D01*
X106680000Y-74358500D02*
X110172500Y-74358500D01*
X106680000Y-76390500D02*
X106680000Y-74358500D01*
X109410500Y-84899500D02*
X102997000Y-84899500D01*
X109410500Y-88265000D02*
X109410500Y-84899500D01*
X110934500Y-88265000D02*
X109410500Y-88265000D01*
X110934500Y-88900000D02*
X110934500Y-88265000D01*
X112839500Y-88900000D02*
X110934500Y-88900000D01*
X109410500Y-89090500D02*
X109410500Y-89852500D01*
X113474500Y-89090500D02*
X109410500Y-89090500D01*
X112585500Y-84899500D02*
X112585500Y-75120500D01*
X116014500Y-84899500D02*
X112585500Y-84899500D01*
X116014500Y-75120500D02*
X116014500Y-84899500D01*
X112585500Y-75120500D02*
X116014500Y-75120500D01*
D11*
X87058666Y-91654380D02*
X87392000Y-92654380D01*
X87725333Y-91654380D01*
X88630095Y-92559142D02*
X88582476Y-92606761D01*
X88439619Y-92654380D01*
X88344380Y-92654380D01*
X88201523Y-92606761D01*
X88106285Y-92511523D01*
X88058666Y-92416285D01*
X88011047Y-92225809D01*
X88011047Y-92082952D01*
X88058666Y-91892476D01*
X88106285Y-91797238D01*
X88201523Y-91702000D01*
X88344380Y-91654380D01*
X88439619Y-91654380D01*
X88582476Y-91702000D01*
X88630095Y-91749619D01*
X89630095Y-92559142D02*
X89582476Y-92606761D01*
X89439619Y-92654380D01*
X89344380Y-92654380D01*
X89201523Y-92606761D01*
X89106285Y-92511523D01*
X89058666Y-92416285D01*
X89011047Y-92225809D01*
X89011047Y-92082952D01*
X89058666Y-91892476D01*
X89106285Y-91797238D01*
X89201523Y-91702000D01*
X89344380Y-91654380D01*
X89439619Y-91654380D01*
X89582476Y-91702000D01*
X89630095Y-91749619D01*
D10*
X109410500Y-89852500D02*
X106489500Y-89852500D01*
X113474500Y-93472000D02*
X113474500Y-89090500D01*
X106426000Y-93472000D02*
X113474500Y-93472000D01*
X106426000Y-91630500D02*
X106426000Y-93472000D01*
X106362500Y-91630500D02*
X106426000Y-91630500D01*
X106235500Y-85471000D02*
X106299000Y-85471000D01*
X102933500Y-85471000D02*
X106235500Y-85471000D01*
X102933500Y-85471000D02*
X102933500Y-85534500D01*
X106299000Y-86995000D02*
X106299000Y-85471000D01*
X102933500Y-86995000D02*
X106299000Y-86995000D01*
X102933500Y-85534500D02*
X102933500Y-86995000D01*
X100203000Y-91630500D02*
X100203000Y-91503500D01*
X106426000Y-91630500D02*
X100203000Y-91630500D01*
X106426000Y-89344500D02*
X106426000Y-91630500D01*
X108585000Y-89344500D02*
X106426000Y-89344500D01*
X108585000Y-85979000D02*
X108585000Y-89344500D01*
X106807000Y-85979000D02*
X108585000Y-85979000D01*
X106807000Y-87693500D02*
X106807000Y-85979000D01*
X102552500Y-87693500D02*
X106807000Y-87693500D01*
X102552500Y-85788500D02*
X102552500Y-87693500D01*
X99123500Y-85788500D02*
X102552500Y-85788500D01*
X99123500Y-87376000D02*
X99123500Y-85788500D01*
X100203000Y-87376000D02*
X99123500Y-87376000D01*
X100203000Y-88011000D02*
X100203000Y-87376000D01*
X98679000Y-93662500D02*
X98806000Y-93662500D01*
X98679000Y-98488500D02*
X98679000Y-93662500D01*
X105092500Y-98488500D02*
X98679000Y-98488500D01*
X105092500Y-93662500D02*
X105092500Y-98488500D01*
X98806000Y-93662500D02*
X105092500Y-93662500D01*
X92138500Y-92329000D02*
X92202000Y-92329000D01*
X92138500Y-87566500D02*
X92138500Y-92329000D01*
X95504000Y-87566500D02*
X92138500Y-87566500D01*
X95504000Y-86423500D02*
X95504000Y-87566500D01*
X98806000Y-86423500D02*
X95504000Y-86423500D01*
X98806000Y-88011000D02*
X98806000Y-86423500D01*
X100203000Y-88011000D02*
X98806000Y-88011000D01*
X100203000Y-91503500D02*
X100203000Y-88011000D01*
X98806000Y-91503500D02*
X100203000Y-91503500D01*
X98806000Y-92329000D02*
X98806000Y-91503500D01*
X92202000Y-92329000D02*
X98806000Y-92329000D01*
%TO.C,VCC*%
X90295500Y-92838500D02*
X90295500Y-91438500D01*
X91695500Y-92838500D02*
X90295500Y-92838500D01*
X91695500Y-91438500D02*
X91695500Y-92838500D01*
X90295500Y-91438500D02*
X91695500Y-91438500D01*
%TO.C,GND*%
X99185500Y-95468800D02*
X99185500Y-94068800D01*
X100585500Y-95468800D02*
X99185500Y-95468800D01*
X100585500Y-94068800D02*
X100585500Y-95468800D01*
X99185500Y-94068800D02*
X100585500Y-94068800D01*
%TO.C,TP2*%
X101166700Y-95468800D02*
X101166700Y-94068800D01*
X102566700Y-95468800D02*
X101166700Y-95468800D01*
X102566700Y-94068800D02*
X102566700Y-95468800D01*
X101166700Y-94068800D02*
X102566700Y-94068800D01*
%TO.C,TP3*%
X103122500Y-95468800D02*
X103122500Y-94068800D01*
X104522500Y-95468800D02*
X103122500Y-95468800D01*
X104522500Y-94068800D02*
X104522500Y-95468800D01*
X103122500Y-94068800D02*
X104522500Y-94068800D01*
%TO.C,TP1*%
X103122500Y-97601000D02*
X103122500Y-96201000D01*
X104522500Y-97601000D02*
X103122500Y-97601000D01*
X104522500Y-96201000D02*
X104522500Y-97601000D01*
X103122500Y-96201000D02*
X104522500Y-96201000D01*
D12*
%TO.C,C7*%
X94825820Y-80218280D02*
X94825820Y-80817720D01*
X94825820Y-80817720D02*
X94429580Y-80817720D01*
X94429580Y-80218280D02*
X94429580Y-80817720D01*
X94825820Y-80218280D02*
X94429580Y-80218280D01*
D13*
%TO.C,U4*%
X96151000Y-90613000D02*
X97651000Y-90613000D01*
X96151000Y-88203000D02*
X97651000Y-88203000D01*
D14*
X95256000Y-88658000D02*
G75*
G03*
X95256000Y-88658000I-100000J0D01*
G01*
D13*
%TO.C,U5*%
X103776900Y-77132300D02*
X103776900Y-77682300D01*
X103776900Y-84132300D02*
X103776900Y-83582300D01*
X110776900Y-77132300D02*
X110776900Y-77682300D01*
X110776900Y-84132300D02*
X110776900Y-83582300D01*
X103776900Y-77132300D02*
X104326900Y-77132300D01*
X103776900Y-84132300D02*
X104326900Y-84132300D01*
X110776900Y-77132300D02*
X110226900Y-77132300D01*
X110776900Y-84132300D02*
X110226900Y-84132300D01*
D14*
X102806900Y-78132300D02*
G75*
G03*
X102806900Y-78132300I-100000J0D01*
G01*
D10*
%TO.C,D2*%
X112647400Y-88683200D02*
X112647400Y-86398200D01*
X111177400Y-88683200D02*
X112647400Y-88683200D01*
X111177400Y-86398200D02*
X111177400Y-88683200D01*
D15*
%TO.C,Y1*%
X105925620Y-90012520D02*
X105925620Y-89413080D01*
X102727760Y-88013540D02*
X103926640Y-88013540D01*
X100728780Y-90012520D02*
X100728780Y-89413080D01*
X103926640Y-91412060D02*
X102727760Y-91412060D01*
D16*
X106502200Y-87553800D02*
G75*
G03*
X106502200Y-87553800I-127000J0D01*
G01*
D10*
%TO.C,D3*%
X99529000Y-83618400D02*
X97244000Y-83618400D01*
X99529000Y-85088400D02*
X99529000Y-83618400D01*
X97244000Y-85088400D02*
X99529000Y-85088400D01*
D12*
%TO.C,C9*%
X101594920Y-75290680D02*
X101594920Y-75890120D01*
X101594920Y-75890120D02*
X101198680Y-75890120D01*
X101198680Y-75290680D02*
X101198680Y-75890120D01*
X101594920Y-75290680D02*
X101198680Y-75290680D01*
D14*
%TO.C,U1*%
X112930600Y-88924000D02*
G75*
G03*
X112930600Y-88924000I-100000J0D01*
G01*
D15*
%TO.C,J1*%
X104470200Y-70153400D02*
X104470200Y-71423400D01*
X101295200Y-72058400D02*
X100025200Y-72058400D01*
X99390200Y-71423400D02*
X100025200Y-72058400D01*
X100025200Y-69518400D02*
X99390200Y-70153400D01*
X99390200Y-70153400D02*
X99390200Y-71423400D01*
X102565200Y-72058400D02*
X101930200Y-71423400D01*
X103835200Y-72058400D02*
X102565200Y-72058400D01*
X104470200Y-71423400D02*
X103835200Y-72058400D01*
X103835200Y-69518400D02*
X104470200Y-70153400D01*
X102565200Y-69518400D02*
X103835200Y-69518400D01*
X101930200Y-70153400D02*
X102565200Y-69518400D01*
X101930200Y-71423400D02*
X101295200Y-72058400D01*
X101295200Y-69518400D02*
X101930200Y-70153400D01*
X100025200Y-69518400D02*
X101295200Y-69518400D01*
D13*
%TO.C,D4*%
X100048400Y-79384400D02*
G75*
G03*
X100048400Y-79384400I-50000J0D01*
G01*
D15*
%TO.C,Q1*%
X95465900Y-87353140D02*
X94668340Y-87353140D01*
X95465900Y-86751160D02*
X95465900Y-87353140D01*
X95465900Y-84554060D02*
X94668340Y-84554060D01*
X95465900Y-85156040D02*
X95465900Y-84554060D01*
D12*
%TO.C,C2*%
X107678220Y-91701620D02*
X107078780Y-91701620D01*
X107078780Y-91701620D02*
X107078780Y-91305380D01*
X107678220Y-91305380D02*
X107078780Y-91305380D01*
X107678220Y-91701620D02*
X107678220Y-91305380D01*
%TO.C,C5*%
X100563680Y-86888320D02*
X100563680Y-86288880D01*
X100563680Y-86288880D02*
X100959920Y-86288880D01*
X100959920Y-86888320D02*
X100959920Y-86288880D01*
X100563680Y-86888320D02*
X100959920Y-86888320D01*
%TO.C,C6*%
X107995720Y-87904320D02*
X107396280Y-87904320D01*
X107396280Y-87904320D02*
X107396280Y-87508080D01*
X107995720Y-87508080D02*
X107396280Y-87508080D01*
X107995720Y-87904320D02*
X107995720Y-87508080D01*
%TO.C,C10*%
X108234480Y-75432920D02*
X108234480Y-74833480D01*
X108234480Y-74833480D02*
X108630720Y-74833480D01*
X108630720Y-75432920D02*
X108630720Y-74833480D01*
X108234480Y-75432920D02*
X108630720Y-75432920D01*
%TO.C,C11*%
X97795080Y-81325720D02*
X97795080Y-80726280D01*
X97795080Y-80726280D02*
X98191320Y-80726280D01*
X98191320Y-81325720D02*
X98191320Y-80726280D01*
X97795080Y-81325720D02*
X98191320Y-81325720D01*
%TO.C,C12*%
X98164060Y-82402680D02*
X98164060Y-83002120D01*
X98164060Y-83002120D02*
X97767820Y-83002120D01*
X97767820Y-82402680D02*
X97767820Y-83002120D01*
X98164060Y-82402680D02*
X97767820Y-82402680D01*
%TO.C,C14*%
X114051080Y-82633820D02*
X114051080Y-82034380D01*
X114051080Y-82034380D02*
X114447320Y-82034380D01*
X114447320Y-82633820D02*
X114447320Y-82034380D01*
X114051080Y-82633820D02*
X114447320Y-82633820D01*
%TO.C,C15*%
X114051080Y-81109820D02*
X114051080Y-80510380D01*
X114051080Y-80510380D02*
X114447320Y-80510380D01*
X114447320Y-81109820D02*
X114447320Y-80510380D01*
X114051080Y-81109820D02*
X114447320Y-81109820D01*
%TO.C,C16*%
X114051080Y-76347320D02*
X114051080Y-75747880D01*
X114051080Y-75747880D02*
X114447320Y-75747880D01*
X114447320Y-76347320D02*
X114447320Y-75747880D01*
X114051080Y-76347320D02*
X114447320Y-76347320D01*
%TO.C,C17*%
X93974920Y-88041480D02*
X93974920Y-88640920D01*
X93974920Y-88640920D02*
X93578680Y-88640920D01*
X93578680Y-88041480D02*
X93578680Y-88640920D01*
X93974920Y-88041480D02*
X93578680Y-88041480D01*
%TO.C,C18*%
X97289620Y-87012780D02*
X97289620Y-87612220D01*
X97289620Y-87612220D02*
X96893380Y-87612220D01*
X96893380Y-87012780D02*
X96893380Y-87612220D01*
X97289620Y-87012780D02*
X96893380Y-87012780D01*
%TO.C,L1*%
X99689920Y-89936320D02*
X99090480Y-89936320D01*
X99090480Y-89936320D02*
X99090480Y-89540080D01*
X99689920Y-89540080D02*
X99090480Y-89540080D01*
X99689920Y-89936320D02*
X99689920Y-89540080D01*
%TO.C,R1*%
X94429580Y-82316320D02*
X94429580Y-81716880D01*
X94429580Y-81716880D02*
X94825820Y-81716880D01*
X94825820Y-82316320D02*
X94825820Y-81716880D01*
X94429580Y-82316320D02*
X94825820Y-82316320D01*
%TO.C,R2*%
X93974920Y-89641680D02*
X93974920Y-90241120D01*
X93974920Y-90241120D02*
X93578680Y-90241120D01*
X93578680Y-89641680D02*
X93578680Y-90241120D01*
X93974920Y-89641680D02*
X93578680Y-89641680D01*
%TO.C,R3*%
X94429580Y-83916520D02*
X94429580Y-83317080D01*
X94429580Y-83317080D02*
X94825820Y-83317080D01*
X94825820Y-83916520D02*
X94825820Y-83317080D01*
X94429580Y-83916520D02*
X94825820Y-83916520D01*
%TO.C,R4*%
X104820720Y-85907880D02*
X104820720Y-86507320D01*
X104820720Y-86507320D02*
X104424480Y-86507320D01*
X104424480Y-85907880D02*
X104424480Y-86507320D01*
X104820720Y-85907880D02*
X104424480Y-85907880D01*
%TO.C,R5*%
X98369120Y-77297280D02*
X97972880Y-77297280D01*
X97972880Y-77297280D02*
X97972880Y-77896720D01*
X98369120Y-77896720D02*
X97972880Y-77896720D01*
X98369120Y-77297280D02*
X98369120Y-77896720D01*
%TO.C,R6*%
X110012480Y-86314280D02*
X110611920Y-86314280D01*
X110611920Y-86314280D02*
X110611920Y-86710520D01*
X110012480Y-86710520D02*
X110611920Y-86710520D01*
X110012480Y-86314280D02*
X110012480Y-86710520D01*
%TO.C,R7*%
X98369120Y-78897480D02*
X97972880Y-78897480D01*
X97972880Y-78897480D02*
X97972880Y-79496920D01*
X98369120Y-79496920D02*
X97972880Y-79496920D01*
X98369120Y-78897480D02*
X98369120Y-79496920D01*
%TO.C,R8*%
X91775280Y-84307680D02*
X92374720Y-84307680D01*
X92374720Y-84307680D02*
X92374720Y-84703920D01*
X91775280Y-84703920D02*
X92374720Y-84703920D01*
X91775280Y-84307680D02*
X91775280Y-84703920D01*
%TO.C,R9*%
X111394240Y-92946220D02*
X111394240Y-92346780D01*
X111394240Y-92346780D02*
X111790480Y-92346780D01*
X111790480Y-92946220D02*
X111790480Y-92346780D01*
X111394240Y-92946220D02*
X111790480Y-92946220D01*
%TO.C,R10*%
X93578680Y-91765120D02*
X93578680Y-91165680D01*
X93578680Y-91165680D02*
X93974920Y-91165680D01*
X93974920Y-91765120D02*
X93974920Y-91165680D01*
X93578680Y-91765120D02*
X93974920Y-91765120D01*
%TO.C,R11*%
X100081080Y-83327220D02*
X100680520Y-83327220D01*
X100680520Y-83327220D02*
X100680520Y-83723460D01*
X100081080Y-83723460D02*
X100680520Y-83723460D01*
X100081080Y-83327220D02*
X100081080Y-83723460D01*
%TO.C,R12*%
X104947720Y-74833480D02*
X104947720Y-75432920D01*
X104947720Y-75432920D02*
X104551480Y-75432920D01*
X104551480Y-74833480D02*
X104551480Y-75432920D01*
X104947720Y-74833480D02*
X104551480Y-74833480D01*
%TO.C,R13*%
X114447320Y-83850480D02*
X114447320Y-84449920D01*
X114447320Y-84449920D02*
X114051080Y-84449920D01*
X114051080Y-83850480D02*
X114051080Y-84449920D01*
X114447320Y-83850480D02*
X114051080Y-83850480D01*
%TO.C,R14*%
X114447320Y-78922880D02*
X114447320Y-79522320D01*
X114447320Y-79522320D02*
X114051080Y-79522320D01*
X114051080Y-78922880D02*
X114051080Y-79522320D01*
X114447320Y-78922880D02*
X114051080Y-78922880D01*
%TO.C,R15*%
X114447320Y-77335380D02*
X114447320Y-77934820D01*
X114447320Y-77934820D02*
X114051080Y-77934820D01*
X114051080Y-77335380D02*
X114051080Y-77934820D01*
X114447320Y-77335380D02*
X114051080Y-77335380D01*
%TO.C,R16*%
X97226120Y-91165680D02*
X97226120Y-91765120D01*
X97226120Y-91765120D02*
X96829880Y-91765120D01*
X96829880Y-91165680D02*
X96829880Y-91765120D01*
X97226120Y-91165680D02*
X96829880Y-91165680D01*
%TO.C,C3*%
X89298780Y-89082880D02*
X89898220Y-89082880D01*
X89898220Y-89082880D02*
X89898220Y-89479120D01*
X89298780Y-89479120D02*
X89898220Y-89479120D01*
X89298780Y-89082880D02*
X89298780Y-89479120D01*
%TO.C,C4*%
X90886280Y-89082880D02*
X90886280Y-89479120D01*
X90886280Y-89479120D02*
X91485720Y-89479120D01*
X91485720Y-89082880D02*
X91485720Y-89479120D01*
X90886280Y-89082880D02*
X91485720Y-89082880D01*
%TO.C,D1*%
X97734120Y-74884280D02*
X97337880Y-74884280D01*
X97337880Y-74884280D02*
X97337880Y-75483720D01*
X97734120Y-75483720D02*
X97337880Y-75483720D01*
X97734120Y-74884280D02*
X97734120Y-75483720D01*
%TO.C,D5*%
X97734120Y-73360280D02*
X97734120Y-73959720D01*
X97734120Y-73959720D02*
X97337880Y-73959720D01*
X97337880Y-73360280D02*
X97337880Y-73959720D01*
X97734120Y-73360280D02*
X97337880Y-73360280D01*
%TO.C,D6*%
X88193880Y-84564220D02*
X88193880Y-83964780D01*
X88193880Y-83964780D02*
X88590120Y-83964780D01*
X88590120Y-84564220D02*
X88590120Y-83964780D01*
X88193880Y-84564220D02*
X88590120Y-84564220D01*
%TO.C,R17*%
X87711280Y-89082880D02*
X87711280Y-89479120D01*
X87711280Y-89479120D02*
X88310720Y-89479120D01*
X88310720Y-89082880D02*
X88310720Y-89479120D01*
X87711280Y-89082880D02*
X88310720Y-89082880D01*
D10*
%TO.C,TP4*%
X99185500Y-97601000D02*
X99185500Y-96201000D01*
X100585500Y-97601000D02*
X99185500Y-97601000D01*
X100585500Y-96201000D02*
X100585500Y-97601000D01*
X99185500Y-96201000D02*
X100585500Y-96201000D01*
%TO.C,TP5*%
X101166700Y-96201000D02*
X102566700Y-96201000D01*
X102566700Y-96201000D02*
X102566700Y-97601000D01*
X102566700Y-97601000D02*
X101166700Y-97601000D01*
X101166700Y-97601000D02*
X101166700Y-96201000D01*
D13*
%TO.C,Q2*%
X90400000Y-87496500D02*
X87400000Y-87496500D01*
X87400000Y-85096500D02*
X90400000Y-85096500D01*
D14*
X91500000Y-87096500D02*
G75*
G03*
X91500000Y-87096500I-100000J0D01*
G01*
D12*
%TO.C,R18*%
X109202220Y-91701620D02*
X108602780Y-91701620D01*
X108602780Y-91701620D02*
X108602780Y-91305380D01*
X109202220Y-91305380D02*
X108602780Y-91305380D01*
X109202220Y-91701620D02*
X109202220Y-91305380D01*
%TD*%
M02*
