M48
; DRILL file {KiCad (5.1.6)-1} date 05/28/21 10:30:21
; FORMAT={-:-/ absolute / inch / decimal}
; #@! TF.CreationDate,2021-05-28T10:30:21+02:00
; #@! TF.GenerationSoftware,Kicad,Pcbnew,(5.1.6)-1
; #@! TF.FileFunction,Plated,1,2,PTH
FMAT,2
INCH
T1C0.0118
T2C0.0157
T3C0.0400
%
G90
G05
T1
X3.5425Y-3.0525
X3.5425Y-3.0975
X3.5425Y-3.125
X3.5425Y-3.155
X3.5675Y-3.3125
X3.5975Y-3.4225
X3.6075Y-3.0875
X3.625Y-3.2475
X3.6525Y-3.4225
X3.6725Y-3.0525
X3.6925Y-3.6375
X3.705Y-3.06
X3.73Y-3.434
X3.755Y-3.64
X3.847Y-3.378
X3.858Y-3.224
X3.8725Y-3.8325
X3.875Y-3.798
X3.91Y-3.455
X3.915Y-2.9725
X3.9325Y-3.661
X3.96Y-2.9375
X3.992Y-3.017
X4.009Y-3.659
X4.01Y-3.305
X4.01Y-3.3525
X4.0175Y-3.24
X4.0325Y-3.33
X4.091Y-3.659
X4.1275Y-3.68
X4.145Y-3.62
X4.2Y-3.47
X4.235Y-2.9175
X4.3Y-3.5275
X4.3005Y-3.345
X4.3125Y-3.4775
X4.34Y-3.4875
X4.349Y-3.325
X4.365Y-3.6825
X4.368Y-3.483
X4.399Y-3.315
X4.4Y-3.365
X4.403Y-3.156
X4.404Y-3.19
X4.413Y-2.988
X4.413Y-3.04
X4.413Y-3.072
X4.413Y-3.113
X4.423Y-3.34
X4.498Y-3.277
X4.5325Y-2.955
X4.571Y-3.025
T2
X4.5075Y-3.61
T3
X3.6132Y-3.8141
X3.8116Y-3.8141
X4.2114Y-3.8141
X4.4098Y-3.8141
X4.2114Y-2.7869
X4.4098Y-2.7869
X3.6132Y-2.7869
X3.8116Y-2.7869
X3.963Y-2.7869
X4.063Y-2.7869
T0
M30
