%TF.GenerationSoftware,KiCad,Pcbnew,(5.1.6)-1*%
%TF.CreationDate,2021-05-28T10:30:19+02:00*%
%TF.ProjectId,Kicad_Smart_Watch,4b696361-645f-4536-9d61-72745f576174,rev?*%
%TF.SameCoordinates,Original*%
%TF.FileFunction,Copper,L1,Top*%
%TF.FilePolarity,Positive*%
%FSLAX46Y46*%
G04 Gerber Fmt 4.6, Leading zero omitted, Abs format (unit mm)*
G04 Created by KiCad (PCBNEW (5.1.6)-1) date 2021-05-28 10:30:19*
%MOMM*%
%LPD*%
G01*
G04 APERTURE LIST*
%TA.AperFunction,EtchedComponent*%
%ADD10C,0.001000*%
%TD*%
%TA.AperFunction,SMDPad,CuDef*%
%ADD11R,1.000000X1.000000*%
%TD*%
%TA.AperFunction,ComponentPad*%
%ADD12C,1.879600*%
%TD*%
%TA.AperFunction,SMDPad,CuDef*%
%ADD13R,1.099820X0.998220*%
%TD*%
%TA.AperFunction,SMDPad,CuDef*%
%ADD14R,0.860000X0.270000*%
%TD*%
%TA.AperFunction,SMDPad,CuDef*%
%ADD15R,0.260000X1.010000*%
%TD*%
%TA.AperFunction,SMDPad,CuDef*%
%ADD16R,1.010000X0.260000*%
%TD*%
%TA.AperFunction,SMDPad,CuDef*%
%ADD17R,1.899920X1.099820*%
%TD*%
%TA.AperFunction,SMDPad,CuDef*%
%ADD18R,0.500000X0.800000*%
%TD*%
%TA.AperFunction,SMDPad,CuDef*%
%ADD19R,0.600000X0.700000*%
%TD*%
%TA.AperFunction,SMDPad,CuDef*%
%ADD20R,1.000000X0.700000*%
%TD*%
%TA.AperFunction,SMDPad,CuDef*%
%ADD21R,0.899160X0.797560*%
%TD*%
%TA.AperFunction,SMDPad,CuDef*%
%ADD22R,0.998220X1.099820*%
%TD*%
%TA.AperFunction,SMDPad,CuDef*%
%ADD23R,1.625000X1.425000*%
%TD*%
%TA.AperFunction,SMDPad,CuDef*%
%ADD24R,0.840000X0.270000*%
%TD*%
%TA.AperFunction,ViaPad*%
%ADD25C,0.600000*%
%TD*%
%TA.AperFunction,ViaPad*%
%ADD26C,0.800000*%
%TD*%
%TA.AperFunction,Conductor*%
%ADD27C,0.200000*%
%TD*%
%TA.AperFunction,Conductor*%
%ADD28C,0.250000*%
%TD*%
G04 APERTURE END LIST*
D10*
%TO.C,U3*%
G36*
X85217000Y-74163500D02*
G01*
X85217000Y-74463500D01*
X84567000Y-74463500D01*
X84535598Y-74462678D01*
X84504283Y-74460213D01*
X84473139Y-74456113D01*
X84442253Y-74450389D01*
X84411709Y-74443055D01*
X84381590Y-74434134D01*
X84351979Y-74423648D01*
X84322958Y-74411627D01*
X84294606Y-74398104D01*
X84267000Y-74383115D01*
X84240217Y-74366702D01*
X84214329Y-74348910D01*
X84189408Y-74329788D01*
X84165522Y-74309387D01*
X84142736Y-74287764D01*
X84121113Y-74264978D01*
X84100712Y-74241092D01*
X84081590Y-74216171D01*
X84063798Y-74190283D01*
X84047385Y-74163500D01*
X84032396Y-74135894D01*
X84018873Y-74107542D01*
X84006852Y-74078521D01*
X83996366Y-74048910D01*
X83987445Y-74018791D01*
X83980111Y-73988247D01*
X83974387Y-73957361D01*
X83970287Y-73926217D01*
X83967822Y-73894902D01*
X83967000Y-73863500D01*
X83967822Y-73832098D01*
X83970287Y-73800783D01*
X83974387Y-73769639D01*
X83980111Y-73738753D01*
X83987445Y-73708209D01*
X83996366Y-73678090D01*
X84006852Y-73648479D01*
X84018873Y-73619458D01*
X84032396Y-73591106D01*
X84047385Y-73563500D01*
X84063798Y-73536717D01*
X84081590Y-73510829D01*
X84100712Y-73485908D01*
X84121113Y-73462022D01*
X84142736Y-73439236D01*
X84165522Y-73417613D01*
X84189408Y-73397212D01*
X84214329Y-73378090D01*
X84240217Y-73360298D01*
X84267000Y-73343885D01*
X84294606Y-73328896D01*
X84322958Y-73315373D01*
X84351979Y-73303352D01*
X84381590Y-73292866D01*
X84411709Y-73283945D01*
X84442253Y-73276611D01*
X84473139Y-73270887D01*
X84504283Y-73266787D01*
X84535598Y-73264322D01*
X84567000Y-73263500D01*
X85217000Y-73263500D01*
X85217000Y-73563500D01*
X84567000Y-73563500D01*
X84551299Y-73563911D01*
X84535641Y-73565143D01*
X84520070Y-73567193D01*
X84504626Y-73570056D01*
X84489354Y-73573722D01*
X84474295Y-73578183D01*
X84459490Y-73583426D01*
X84444979Y-73589436D01*
X84430803Y-73596198D01*
X84417000Y-73603692D01*
X84403608Y-73611899D01*
X84390664Y-73620795D01*
X84378204Y-73630356D01*
X84366261Y-73640557D01*
X84354868Y-73651368D01*
X84344057Y-73662761D01*
X84333856Y-73674704D01*
X84324295Y-73687164D01*
X84315399Y-73700108D01*
X84307192Y-73713500D01*
X84299698Y-73727303D01*
X84292936Y-73741479D01*
X84286926Y-73755990D01*
X84281683Y-73770795D01*
X84277222Y-73785854D01*
X84273556Y-73801126D01*
X84270693Y-73816570D01*
X84268643Y-73832141D01*
X84267411Y-73847799D01*
X84267000Y-73863500D01*
X84267411Y-73879201D01*
X84268643Y-73894859D01*
X84270693Y-73910430D01*
X84273556Y-73925874D01*
X84277222Y-73941146D01*
X84281683Y-73956205D01*
X84286926Y-73971010D01*
X84292936Y-73985521D01*
X84299698Y-73999697D01*
X84307192Y-74013500D01*
X84315399Y-74026892D01*
X84324295Y-74039836D01*
X84333856Y-74052296D01*
X84344057Y-74064239D01*
X84354868Y-74075632D01*
X84366261Y-74086443D01*
X84378204Y-74096644D01*
X84390664Y-74106205D01*
X84403608Y-74115101D01*
X84417000Y-74123308D01*
X84430803Y-74130802D01*
X84444979Y-74137564D01*
X84459490Y-74143574D01*
X84474295Y-74148817D01*
X84489354Y-74153278D01*
X84504626Y-74156944D01*
X84520070Y-74159807D01*
X84535641Y-74161857D01*
X84551299Y-74163089D01*
X84567000Y-74163500D01*
X85217000Y-74163500D01*
G37*
X85217000Y-74163500D02*
X85217000Y-74463500D01*
X84567000Y-74463500D01*
X84535598Y-74462678D01*
X84504283Y-74460213D01*
X84473139Y-74456113D01*
X84442253Y-74450389D01*
X84411709Y-74443055D01*
X84381590Y-74434134D01*
X84351979Y-74423648D01*
X84322958Y-74411627D01*
X84294606Y-74398104D01*
X84267000Y-74383115D01*
X84240217Y-74366702D01*
X84214329Y-74348910D01*
X84189408Y-74329788D01*
X84165522Y-74309387D01*
X84142736Y-74287764D01*
X84121113Y-74264978D01*
X84100712Y-74241092D01*
X84081590Y-74216171D01*
X84063798Y-74190283D01*
X84047385Y-74163500D01*
X84032396Y-74135894D01*
X84018873Y-74107542D01*
X84006852Y-74078521D01*
X83996366Y-74048910D01*
X83987445Y-74018791D01*
X83980111Y-73988247D01*
X83974387Y-73957361D01*
X83970287Y-73926217D01*
X83967822Y-73894902D01*
X83967000Y-73863500D01*
X83967822Y-73832098D01*
X83970287Y-73800783D01*
X83974387Y-73769639D01*
X83980111Y-73738753D01*
X83987445Y-73708209D01*
X83996366Y-73678090D01*
X84006852Y-73648479D01*
X84018873Y-73619458D01*
X84032396Y-73591106D01*
X84047385Y-73563500D01*
X84063798Y-73536717D01*
X84081590Y-73510829D01*
X84100712Y-73485908D01*
X84121113Y-73462022D01*
X84142736Y-73439236D01*
X84165522Y-73417613D01*
X84189408Y-73397212D01*
X84214329Y-73378090D01*
X84240217Y-73360298D01*
X84267000Y-73343885D01*
X84294606Y-73328896D01*
X84322958Y-73315373D01*
X84351979Y-73303352D01*
X84381590Y-73292866D01*
X84411709Y-73283945D01*
X84442253Y-73276611D01*
X84473139Y-73270887D01*
X84504283Y-73266787D01*
X84535598Y-73264322D01*
X84567000Y-73263500D01*
X85217000Y-73263500D01*
X85217000Y-73563500D01*
X84567000Y-73563500D01*
X84551299Y-73563911D01*
X84535641Y-73565143D01*
X84520070Y-73567193D01*
X84504626Y-73570056D01*
X84489354Y-73573722D01*
X84474295Y-73578183D01*
X84459490Y-73583426D01*
X84444979Y-73589436D01*
X84430803Y-73596198D01*
X84417000Y-73603692D01*
X84403608Y-73611899D01*
X84390664Y-73620795D01*
X84378204Y-73630356D01*
X84366261Y-73640557D01*
X84354868Y-73651368D01*
X84344057Y-73662761D01*
X84333856Y-73674704D01*
X84324295Y-73687164D01*
X84315399Y-73700108D01*
X84307192Y-73713500D01*
X84299698Y-73727303D01*
X84292936Y-73741479D01*
X84286926Y-73755990D01*
X84281683Y-73770795D01*
X84277222Y-73785854D01*
X84273556Y-73801126D01*
X84270693Y-73816570D01*
X84268643Y-73832141D01*
X84267411Y-73847799D01*
X84267000Y-73863500D01*
X84267411Y-73879201D01*
X84268643Y-73894859D01*
X84270693Y-73910430D01*
X84273556Y-73925874D01*
X84277222Y-73941146D01*
X84281683Y-73956205D01*
X84286926Y-73971010D01*
X84292936Y-73985521D01*
X84299698Y-73999697D01*
X84307192Y-74013500D01*
X84315399Y-74026892D01*
X84324295Y-74039836D01*
X84333856Y-74052296D01*
X84344057Y-74064239D01*
X84354868Y-74075632D01*
X84366261Y-74086443D01*
X84378204Y-74096644D01*
X84390664Y-74106205D01*
X84403608Y-74115101D01*
X84417000Y-74123308D01*
X84430803Y-74130802D01*
X84444979Y-74137564D01*
X84459490Y-74143574D01*
X84474295Y-74148817D01*
X84489354Y-74153278D01*
X84504626Y-74156944D01*
X84520070Y-74159807D01*
X84535641Y-74161857D01*
X84551299Y-74163089D01*
X84567000Y-74163500D01*
X85217000Y-74163500D01*
G36*
X85217000Y-73563500D02*
G01*
X85217000Y-73263500D01*
X85867000Y-73263500D01*
X85898402Y-73264322D01*
X85929717Y-73266787D01*
X85960861Y-73270887D01*
X85991747Y-73276611D01*
X86022291Y-73283945D01*
X86052410Y-73292866D01*
X86082021Y-73303352D01*
X86111042Y-73315373D01*
X86139394Y-73328896D01*
X86167000Y-73343885D01*
X86193783Y-73360298D01*
X86219671Y-73378090D01*
X86244592Y-73397212D01*
X86268478Y-73417613D01*
X86291264Y-73439236D01*
X86312887Y-73462022D01*
X86333288Y-73485908D01*
X86352410Y-73510829D01*
X86370202Y-73536717D01*
X86386615Y-73563500D01*
X86401604Y-73591106D01*
X86415127Y-73619458D01*
X86427148Y-73648479D01*
X86437634Y-73678090D01*
X86446555Y-73708209D01*
X86453889Y-73738753D01*
X86459613Y-73769639D01*
X86463713Y-73800783D01*
X86466178Y-73832098D01*
X86467000Y-73863500D01*
X86466178Y-73894902D01*
X86463713Y-73926217D01*
X86459613Y-73957361D01*
X86453889Y-73988247D01*
X86446555Y-74018791D01*
X86437634Y-74048910D01*
X86427148Y-74078521D01*
X86415127Y-74107542D01*
X86401604Y-74135894D01*
X86386615Y-74163500D01*
X86370202Y-74190283D01*
X86352410Y-74216171D01*
X86333288Y-74241092D01*
X86312887Y-74264978D01*
X86291264Y-74287764D01*
X86268478Y-74309387D01*
X86244592Y-74329788D01*
X86219671Y-74348910D01*
X86193783Y-74366702D01*
X86167000Y-74383115D01*
X86139394Y-74398104D01*
X86111042Y-74411627D01*
X86082021Y-74423648D01*
X86052410Y-74434134D01*
X86022291Y-74443055D01*
X85991747Y-74450389D01*
X85960861Y-74456113D01*
X85929717Y-74460213D01*
X85898402Y-74462678D01*
X85867000Y-74463500D01*
X85217000Y-74463500D01*
X85217000Y-74163500D01*
X85867000Y-74163500D01*
X85882701Y-74163089D01*
X85898359Y-74161857D01*
X85913930Y-74159807D01*
X85929374Y-74156944D01*
X85944646Y-74153278D01*
X85959705Y-74148817D01*
X85974510Y-74143574D01*
X85989021Y-74137564D01*
X86003197Y-74130802D01*
X86017000Y-74123308D01*
X86030392Y-74115101D01*
X86043336Y-74106205D01*
X86055796Y-74096644D01*
X86067739Y-74086443D01*
X86079132Y-74075632D01*
X86089943Y-74064239D01*
X86100144Y-74052296D01*
X86109705Y-74039836D01*
X86118601Y-74026892D01*
X86126808Y-74013500D01*
X86134302Y-73999697D01*
X86141064Y-73985521D01*
X86147074Y-73971010D01*
X86152317Y-73956205D01*
X86156778Y-73941146D01*
X86160444Y-73925874D01*
X86163307Y-73910430D01*
X86165357Y-73894859D01*
X86166589Y-73879201D01*
X86167000Y-73863500D01*
X86166589Y-73847799D01*
X86165357Y-73832141D01*
X86163307Y-73816570D01*
X86160444Y-73801126D01*
X86156778Y-73785854D01*
X86152317Y-73770795D01*
X86147074Y-73755990D01*
X86141064Y-73741479D01*
X86134302Y-73727303D01*
X86126808Y-73713500D01*
X86118601Y-73700108D01*
X86109705Y-73687164D01*
X86100144Y-73674704D01*
X86089943Y-73662761D01*
X86079132Y-73651368D01*
X86067739Y-73640557D01*
X86055796Y-73630356D01*
X86043336Y-73620795D01*
X86030392Y-73611899D01*
X86017000Y-73603692D01*
X86003197Y-73596198D01*
X85989021Y-73589436D01*
X85974510Y-73583426D01*
X85959705Y-73578183D01*
X85944646Y-73573722D01*
X85929374Y-73570056D01*
X85913930Y-73567193D01*
X85898359Y-73565143D01*
X85882701Y-73563911D01*
X85867000Y-73563500D01*
X85217000Y-73563500D01*
G37*
X85217000Y-73563500D02*
X85217000Y-73263500D01*
X85867000Y-73263500D01*
X85898402Y-73264322D01*
X85929717Y-73266787D01*
X85960861Y-73270887D01*
X85991747Y-73276611D01*
X86022291Y-73283945D01*
X86052410Y-73292866D01*
X86082021Y-73303352D01*
X86111042Y-73315373D01*
X86139394Y-73328896D01*
X86167000Y-73343885D01*
X86193783Y-73360298D01*
X86219671Y-73378090D01*
X86244592Y-73397212D01*
X86268478Y-73417613D01*
X86291264Y-73439236D01*
X86312887Y-73462022D01*
X86333288Y-73485908D01*
X86352410Y-73510829D01*
X86370202Y-73536717D01*
X86386615Y-73563500D01*
X86401604Y-73591106D01*
X86415127Y-73619458D01*
X86427148Y-73648479D01*
X86437634Y-73678090D01*
X86446555Y-73708209D01*
X86453889Y-73738753D01*
X86459613Y-73769639D01*
X86463713Y-73800783D01*
X86466178Y-73832098D01*
X86467000Y-73863500D01*
X86466178Y-73894902D01*
X86463713Y-73926217D01*
X86459613Y-73957361D01*
X86453889Y-73988247D01*
X86446555Y-74018791D01*
X86437634Y-74048910D01*
X86427148Y-74078521D01*
X86415127Y-74107542D01*
X86401604Y-74135894D01*
X86386615Y-74163500D01*
X86370202Y-74190283D01*
X86352410Y-74216171D01*
X86333288Y-74241092D01*
X86312887Y-74264978D01*
X86291264Y-74287764D01*
X86268478Y-74309387D01*
X86244592Y-74329788D01*
X86219671Y-74348910D01*
X86193783Y-74366702D01*
X86167000Y-74383115D01*
X86139394Y-74398104D01*
X86111042Y-74411627D01*
X86082021Y-74423648D01*
X86052410Y-74434134D01*
X86022291Y-74443055D01*
X85991747Y-74450389D01*
X85960861Y-74456113D01*
X85929717Y-74460213D01*
X85898402Y-74462678D01*
X85867000Y-74463500D01*
X85217000Y-74463500D01*
X85217000Y-74163500D01*
X85867000Y-74163500D01*
X85882701Y-74163089D01*
X85898359Y-74161857D01*
X85913930Y-74159807D01*
X85929374Y-74156944D01*
X85944646Y-74153278D01*
X85959705Y-74148817D01*
X85974510Y-74143574D01*
X85989021Y-74137564D01*
X86003197Y-74130802D01*
X86017000Y-74123308D01*
X86030392Y-74115101D01*
X86043336Y-74106205D01*
X86055796Y-74096644D01*
X86067739Y-74086443D01*
X86079132Y-74075632D01*
X86089943Y-74064239D01*
X86100144Y-74052296D01*
X86109705Y-74039836D01*
X86118601Y-74026892D01*
X86126808Y-74013500D01*
X86134302Y-73999697D01*
X86141064Y-73985521D01*
X86147074Y-73971010D01*
X86152317Y-73956205D01*
X86156778Y-73941146D01*
X86160444Y-73925874D01*
X86163307Y-73910430D01*
X86165357Y-73894859D01*
X86166589Y-73879201D01*
X86167000Y-73863500D01*
X86166589Y-73847799D01*
X86165357Y-73832141D01*
X86163307Y-73816570D01*
X86160444Y-73801126D01*
X86156778Y-73785854D01*
X86152317Y-73770795D01*
X86147074Y-73755990D01*
X86141064Y-73741479D01*
X86134302Y-73727303D01*
X86126808Y-73713500D01*
X86118601Y-73700108D01*
X86109705Y-73687164D01*
X86100144Y-73674704D01*
X86089943Y-73662761D01*
X86079132Y-73651368D01*
X86067739Y-73640557D01*
X86055796Y-73630356D01*
X86043336Y-73620795D01*
X86030392Y-73611899D01*
X86017000Y-73603692D01*
X86003197Y-73596198D01*
X85989021Y-73589436D01*
X85974510Y-73583426D01*
X85959705Y-73578183D01*
X85944646Y-73573722D01*
X85929374Y-73570056D01*
X85913930Y-73567193D01*
X85898359Y-73565143D01*
X85882701Y-73563911D01*
X85867000Y-73563500D01*
X85217000Y-73563500D01*
G36*
X85217000Y-84043500D02*
G01*
X85217000Y-84343500D01*
X84567000Y-84343500D01*
X84535598Y-84342678D01*
X84504283Y-84340213D01*
X84473139Y-84336113D01*
X84442253Y-84330389D01*
X84411709Y-84323055D01*
X84381590Y-84314134D01*
X84351979Y-84303648D01*
X84322958Y-84291627D01*
X84294606Y-84278104D01*
X84267000Y-84263115D01*
X84240217Y-84246702D01*
X84214329Y-84228910D01*
X84189408Y-84209788D01*
X84165522Y-84189387D01*
X84142736Y-84167764D01*
X84121113Y-84144978D01*
X84100712Y-84121092D01*
X84081590Y-84096171D01*
X84063798Y-84070283D01*
X84047385Y-84043500D01*
X84032396Y-84015894D01*
X84018873Y-83987542D01*
X84006852Y-83958521D01*
X83996366Y-83928910D01*
X83987445Y-83898791D01*
X83980111Y-83868247D01*
X83974387Y-83837361D01*
X83970287Y-83806217D01*
X83967822Y-83774902D01*
X83967000Y-83743500D01*
X83967822Y-83712098D01*
X83970287Y-83680783D01*
X83974387Y-83649639D01*
X83980111Y-83618753D01*
X83987445Y-83588209D01*
X83996366Y-83558090D01*
X84006852Y-83528479D01*
X84018873Y-83499458D01*
X84032396Y-83471106D01*
X84047385Y-83443500D01*
X84063798Y-83416717D01*
X84081590Y-83390829D01*
X84100712Y-83365908D01*
X84121113Y-83342022D01*
X84142736Y-83319236D01*
X84165522Y-83297613D01*
X84189408Y-83277212D01*
X84214329Y-83258090D01*
X84240217Y-83240298D01*
X84267000Y-83223885D01*
X84294606Y-83208896D01*
X84322958Y-83195373D01*
X84351979Y-83183352D01*
X84381590Y-83172866D01*
X84411709Y-83163945D01*
X84442253Y-83156611D01*
X84473139Y-83150887D01*
X84504283Y-83146787D01*
X84535598Y-83144322D01*
X84567000Y-83143500D01*
X85217000Y-83143500D01*
X85217000Y-83443500D01*
X84567000Y-83443500D01*
X84551299Y-83443911D01*
X84535641Y-83445143D01*
X84520070Y-83447193D01*
X84504626Y-83450056D01*
X84489354Y-83453722D01*
X84474295Y-83458183D01*
X84459490Y-83463426D01*
X84444979Y-83469436D01*
X84430803Y-83476198D01*
X84417000Y-83483692D01*
X84403608Y-83491899D01*
X84390664Y-83500795D01*
X84378204Y-83510356D01*
X84366261Y-83520557D01*
X84354868Y-83531368D01*
X84344057Y-83542761D01*
X84333856Y-83554704D01*
X84324295Y-83567164D01*
X84315399Y-83580108D01*
X84307192Y-83593500D01*
X84299698Y-83607303D01*
X84292936Y-83621479D01*
X84286926Y-83635990D01*
X84281683Y-83650795D01*
X84277222Y-83665854D01*
X84273556Y-83681126D01*
X84270693Y-83696570D01*
X84268643Y-83712141D01*
X84267411Y-83727799D01*
X84267000Y-83743500D01*
X84267411Y-83759201D01*
X84268643Y-83774859D01*
X84270693Y-83790430D01*
X84273556Y-83805874D01*
X84277222Y-83821146D01*
X84281683Y-83836205D01*
X84286926Y-83851010D01*
X84292936Y-83865521D01*
X84299698Y-83879697D01*
X84307192Y-83893500D01*
X84315399Y-83906892D01*
X84324295Y-83919836D01*
X84333856Y-83932296D01*
X84344057Y-83944239D01*
X84354868Y-83955632D01*
X84366261Y-83966443D01*
X84378204Y-83976644D01*
X84390664Y-83986205D01*
X84403608Y-83995101D01*
X84417000Y-84003308D01*
X84430803Y-84010802D01*
X84444979Y-84017564D01*
X84459490Y-84023574D01*
X84474295Y-84028817D01*
X84489354Y-84033278D01*
X84504626Y-84036944D01*
X84520070Y-84039807D01*
X84535641Y-84041857D01*
X84551299Y-84043089D01*
X84567000Y-84043500D01*
X85217000Y-84043500D01*
G37*
X85217000Y-84043500D02*
X85217000Y-84343500D01*
X84567000Y-84343500D01*
X84535598Y-84342678D01*
X84504283Y-84340213D01*
X84473139Y-84336113D01*
X84442253Y-84330389D01*
X84411709Y-84323055D01*
X84381590Y-84314134D01*
X84351979Y-84303648D01*
X84322958Y-84291627D01*
X84294606Y-84278104D01*
X84267000Y-84263115D01*
X84240217Y-84246702D01*
X84214329Y-84228910D01*
X84189408Y-84209788D01*
X84165522Y-84189387D01*
X84142736Y-84167764D01*
X84121113Y-84144978D01*
X84100712Y-84121092D01*
X84081590Y-84096171D01*
X84063798Y-84070283D01*
X84047385Y-84043500D01*
X84032396Y-84015894D01*
X84018873Y-83987542D01*
X84006852Y-83958521D01*
X83996366Y-83928910D01*
X83987445Y-83898791D01*
X83980111Y-83868247D01*
X83974387Y-83837361D01*
X83970287Y-83806217D01*
X83967822Y-83774902D01*
X83967000Y-83743500D01*
X83967822Y-83712098D01*
X83970287Y-83680783D01*
X83974387Y-83649639D01*
X83980111Y-83618753D01*
X83987445Y-83588209D01*
X83996366Y-83558090D01*
X84006852Y-83528479D01*
X84018873Y-83499458D01*
X84032396Y-83471106D01*
X84047385Y-83443500D01*
X84063798Y-83416717D01*
X84081590Y-83390829D01*
X84100712Y-83365908D01*
X84121113Y-83342022D01*
X84142736Y-83319236D01*
X84165522Y-83297613D01*
X84189408Y-83277212D01*
X84214329Y-83258090D01*
X84240217Y-83240298D01*
X84267000Y-83223885D01*
X84294606Y-83208896D01*
X84322958Y-83195373D01*
X84351979Y-83183352D01*
X84381590Y-83172866D01*
X84411709Y-83163945D01*
X84442253Y-83156611D01*
X84473139Y-83150887D01*
X84504283Y-83146787D01*
X84535598Y-83144322D01*
X84567000Y-83143500D01*
X85217000Y-83143500D01*
X85217000Y-83443500D01*
X84567000Y-83443500D01*
X84551299Y-83443911D01*
X84535641Y-83445143D01*
X84520070Y-83447193D01*
X84504626Y-83450056D01*
X84489354Y-83453722D01*
X84474295Y-83458183D01*
X84459490Y-83463426D01*
X84444979Y-83469436D01*
X84430803Y-83476198D01*
X84417000Y-83483692D01*
X84403608Y-83491899D01*
X84390664Y-83500795D01*
X84378204Y-83510356D01*
X84366261Y-83520557D01*
X84354868Y-83531368D01*
X84344057Y-83542761D01*
X84333856Y-83554704D01*
X84324295Y-83567164D01*
X84315399Y-83580108D01*
X84307192Y-83593500D01*
X84299698Y-83607303D01*
X84292936Y-83621479D01*
X84286926Y-83635990D01*
X84281683Y-83650795D01*
X84277222Y-83665854D01*
X84273556Y-83681126D01*
X84270693Y-83696570D01*
X84268643Y-83712141D01*
X84267411Y-83727799D01*
X84267000Y-83743500D01*
X84267411Y-83759201D01*
X84268643Y-83774859D01*
X84270693Y-83790430D01*
X84273556Y-83805874D01*
X84277222Y-83821146D01*
X84281683Y-83836205D01*
X84286926Y-83851010D01*
X84292936Y-83865521D01*
X84299698Y-83879697D01*
X84307192Y-83893500D01*
X84315399Y-83906892D01*
X84324295Y-83919836D01*
X84333856Y-83932296D01*
X84344057Y-83944239D01*
X84354868Y-83955632D01*
X84366261Y-83966443D01*
X84378204Y-83976644D01*
X84390664Y-83986205D01*
X84403608Y-83995101D01*
X84417000Y-84003308D01*
X84430803Y-84010802D01*
X84444979Y-84017564D01*
X84459490Y-84023574D01*
X84474295Y-84028817D01*
X84489354Y-84033278D01*
X84504626Y-84036944D01*
X84520070Y-84039807D01*
X84535641Y-84041857D01*
X84551299Y-84043089D01*
X84567000Y-84043500D01*
X85217000Y-84043500D01*
G36*
X85217000Y-83443500D02*
G01*
X85217000Y-83143500D01*
X85867000Y-83143500D01*
X85898402Y-83144322D01*
X85929717Y-83146787D01*
X85960861Y-83150887D01*
X85991747Y-83156611D01*
X86022291Y-83163945D01*
X86052410Y-83172866D01*
X86082021Y-83183352D01*
X86111042Y-83195373D01*
X86139394Y-83208896D01*
X86167000Y-83223885D01*
X86193783Y-83240298D01*
X86219671Y-83258090D01*
X86244592Y-83277212D01*
X86268478Y-83297613D01*
X86291264Y-83319236D01*
X86312887Y-83342022D01*
X86333288Y-83365908D01*
X86352410Y-83390829D01*
X86370202Y-83416717D01*
X86386615Y-83443500D01*
X86401604Y-83471106D01*
X86415127Y-83499458D01*
X86427148Y-83528479D01*
X86437634Y-83558090D01*
X86446555Y-83588209D01*
X86453889Y-83618753D01*
X86459613Y-83649639D01*
X86463713Y-83680783D01*
X86466178Y-83712098D01*
X86467000Y-83743500D01*
X86466178Y-83774902D01*
X86463713Y-83806217D01*
X86459613Y-83837361D01*
X86453889Y-83868247D01*
X86446555Y-83898791D01*
X86437634Y-83928910D01*
X86427148Y-83958521D01*
X86415127Y-83987542D01*
X86401604Y-84015894D01*
X86386615Y-84043500D01*
X86370202Y-84070283D01*
X86352410Y-84096171D01*
X86333288Y-84121092D01*
X86312887Y-84144978D01*
X86291264Y-84167764D01*
X86268478Y-84189387D01*
X86244592Y-84209788D01*
X86219671Y-84228910D01*
X86193783Y-84246702D01*
X86167000Y-84263115D01*
X86139394Y-84278104D01*
X86111042Y-84291627D01*
X86082021Y-84303648D01*
X86052410Y-84314134D01*
X86022291Y-84323055D01*
X85991747Y-84330389D01*
X85960861Y-84336113D01*
X85929717Y-84340213D01*
X85898402Y-84342678D01*
X85867000Y-84343500D01*
X85217000Y-84343500D01*
X85217000Y-84043500D01*
X85867000Y-84043500D01*
X85882701Y-84043089D01*
X85898359Y-84041857D01*
X85913930Y-84039807D01*
X85929374Y-84036944D01*
X85944646Y-84033278D01*
X85959705Y-84028817D01*
X85974510Y-84023574D01*
X85989021Y-84017564D01*
X86003197Y-84010802D01*
X86017000Y-84003308D01*
X86030392Y-83995101D01*
X86043336Y-83986205D01*
X86055796Y-83976644D01*
X86067739Y-83966443D01*
X86079132Y-83955632D01*
X86089943Y-83944239D01*
X86100144Y-83932296D01*
X86109705Y-83919836D01*
X86118601Y-83906892D01*
X86126808Y-83893500D01*
X86134302Y-83879697D01*
X86141064Y-83865521D01*
X86147074Y-83851010D01*
X86152317Y-83836205D01*
X86156778Y-83821146D01*
X86160444Y-83805874D01*
X86163307Y-83790430D01*
X86165357Y-83774859D01*
X86166589Y-83759201D01*
X86167000Y-83743500D01*
X86166589Y-83727799D01*
X86165357Y-83712141D01*
X86163307Y-83696570D01*
X86160444Y-83681126D01*
X86156778Y-83665854D01*
X86152317Y-83650795D01*
X86147074Y-83635990D01*
X86141064Y-83621479D01*
X86134302Y-83607303D01*
X86126808Y-83593500D01*
X86118601Y-83580108D01*
X86109705Y-83567164D01*
X86100144Y-83554704D01*
X86089943Y-83542761D01*
X86079132Y-83531368D01*
X86067739Y-83520557D01*
X86055796Y-83510356D01*
X86043336Y-83500795D01*
X86030392Y-83491899D01*
X86017000Y-83483692D01*
X86003197Y-83476198D01*
X85989021Y-83469436D01*
X85974510Y-83463426D01*
X85959705Y-83458183D01*
X85944646Y-83453722D01*
X85929374Y-83450056D01*
X85913930Y-83447193D01*
X85898359Y-83445143D01*
X85882701Y-83443911D01*
X85867000Y-83443500D01*
X85217000Y-83443500D01*
G37*
X85217000Y-83443500D02*
X85217000Y-83143500D01*
X85867000Y-83143500D01*
X85898402Y-83144322D01*
X85929717Y-83146787D01*
X85960861Y-83150887D01*
X85991747Y-83156611D01*
X86022291Y-83163945D01*
X86052410Y-83172866D01*
X86082021Y-83183352D01*
X86111042Y-83195373D01*
X86139394Y-83208896D01*
X86167000Y-83223885D01*
X86193783Y-83240298D01*
X86219671Y-83258090D01*
X86244592Y-83277212D01*
X86268478Y-83297613D01*
X86291264Y-83319236D01*
X86312887Y-83342022D01*
X86333288Y-83365908D01*
X86352410Y-83390829D01*
X86370202Y-83416717D01*
X86386615Y-83443500D01*
X86401604Y-83471106D01*
X86415127Y-83499458D01*
X86427148Y-83528479D01*
X86437634Y-83558090D01*
X86446555Y-83588209D01*
X86453889Y-83618753D01*
X86459613Y-83649639D01*
X86463713Y-83680783D01*
X86466178Y-83712098D01*
X86467000Y-83743500D01*
X86466178Y-83774902D01*
X86463713Y-83806217D01*
X86459613Y-83837361D01*
X86453889Y-83868247D01*
X86446555Y-83898791D01*
X86437634Y-83928910D01*
X86427148Y-83958521D01*
X86415127Y-83987542D01*
X86401604Y-84015894D01*
X86386615Y-84043500D01*
X86370202Y-84070283D01*
X86352410Y-84096171D01*
X86333288Y-84121092D01*
X86312887Y-84144978D01*
X86291264Y-84167764D01*
X86268478Y-84189387D01*
X86244592Y-84209788D01*
X86219671Y-84228910D01*
X86193783Y-84246702D01*
X86167000Y-84263115D01*
X86139394Y-84278104D01*
X86111042Y-84291627D01*
X86082021Y-84303648D01*
X86052410Y-84314134D01*
X86022291Y-84323055D01*
X85991747Y-84330389D01*
X85960861Y-84336113D01*
X85929717Y-84340213D01*
X85898402Y-84342678D01*
X85867000Y-84343500D01*
X85217000Y-84343500D01*
X85217000Y-84043500D01*
X85867000Y-84043500D01*
X85882701Y-84043089D01*
X85898359Y-84041857D01*
X85913930Y-84039807D01*
X85929374Y-84036944D01*
X85944646Y-84033278D01*
X85959705Y-84028817D01*
X85974510Y-84023574D01*
X85989021Y-84017564D01*
X86003197Y-84010802D01*
X86017000Y-84003308D01*
X86030392Y-83995101D01*
X86043336Y-83986205D01*
X86055796Y-83976644D01*
X86067739Y-83966443D01*
X86079132Y-83955632D01*
X86089943Y-83944239D01*
X86100144Y-83932296D01*
X86109705Y-83919836D01*
X86118601Y-83906892D01*
X86126808Y-83893500D01*
X86134302Y-83879697D01*
X86141064Y-83865521D01*
X86147074Y-83851010D01*
X86152317Y-83836205D01*
X86156778Y-83821146D01*
X86160444Y-83805874D01*
X86163307Y-83790430D01*
X86165357Y-83774859D01*
X86166589Y-83759201D01*
X86167000Y-83743500D01*
X86166589Y-83727799D01*
X86165357Y-83712141D01*
X86163307Y-83696570D01*
X86160444Y-83681126D01*
X86156778Y-83665854D01*
X86152317Y-83650795D01*
X86147074Y-83635990D01*
X86141064Y-83621479D01*
X86134302Y-83607303D01*
X86126808Y-83593500D01*
X86118601Y-83580108D01*
X86109705Y-83567164D01*
X86100144Y-83554704D01*
X86089943Y-83542761D01*
X86079132Y-83531368D01*
X86067739Y-83520557D01*
X86055796Y-83510356D01*
X86043336Y-83500795D01*
X86030392Y-83491899D01*
X86017000Y-83483692D01*
X86003197Y-83476198D01*
X85989021Y-83469436D01*
X85974510Y-83463426D01*
X85959705Y-83458183D01*
X85944646Y-83453722D01*
X85929374Y-83450056D01*
X85913930Y-83447193D01*
X85898359Y-83445143D01*
X85882701Y-83443911D01*
X85867000Y-83443500D01*
X85217000Y-83443500D01*
%TD*%
D11*
%TO.P,VCC,1*%
%TO.N,VCC*%
X90995500Y-92138500D03*
%TD*%
%TO.P,GND,1*%
%TO.N,GND*%
X99885500Y-94768800D03*
%TD*%
%TO.P,TP2,1*%
%TO.N,/MOSI*%
X101866700Y-94768800D03*
%TD*%
%TO.P,TP3,1*%
%TO.N,/SCK*%
X103822500Y-94768800D03*
%TD*%
%TO.P,TP1,1*%
%TO.N,/D12*%
X103822500Y-96901000D03*
%TD*%
D12*
%TO.P,SW1,2*%
%TO.N,GND*%
X106970000Y-96877000D03*
%TO.P,SW1,1*%
%TO.N,/BTN3*%
X112010000Y-96877000D03*
%TD*%
%TO.P,SW3,1*%
%TO.N,/BTN4*%
X96814200Y-96877000D03*
%TO.P,SW3,2*%
%TO.N,GND*%
X91774200Y-96877000D03*
%TD*%
%TO.P,SW4,2*%
%TO.N,GND*%
X112010000Y-70788400D03*
%TO.P,SW4,1*%
%TO.N,/BTN2*%
X106970000Y-70788400D03*
%TD*%
%TO.P,SW2,2*%
%TO.N,GND*%
X91774200Y-70788400D03*
%TO.P,SW2,1*%
%TO.N,/BTN1*%
X96814200Y-70788400D03*
%TD*%
D13*
%TO.P,C7,2*%
%TO.N,GND*%
X93779340Y-80518000D03*
%TO.P,C7,1*%
%TO.N,3.3V*%
X95476060Y-80518000D03*
%TD*%
D14*
%TO.P,U4,1*%
%TO.N,GND*%
X96216000Y-88658000D03*
%TO.P,U4,2*%
%TO.N,VCC*%
X96216000Y-89158000D03*
%TO.P,U4,3*%
%TO.N,Net-(R2-Pad1)*%
X96216000Y-89658000D03*
%TO.P,U4,4*%
%TO.N,Net-(R10-Pad2)*%
X96216000Y-90158000D03*
%TO.P,U4,5*%
%TO.N,Net-(R16-Pad1)*%
X97586000Y-90158000D03*
%TO.P,U4,6*%
%TO.N,Net-(U4-Pad6)*%
X97586000Y-89658000D03*
%TO.P,U4,7*%
%TO.N,Net-(L1-Pad1)*%
X97586000Y-89158000D03*
%TO.P,U4,8*%
%TO.N,3.3V*%
X97586000Y-88658000D03*
%TD*%
D15*
%TO.P,U5,12*%
%TO.N,/D11*%
X104776900Y-83992300D03*
%TO.P,U5,13*%
%TO.N,Net-(R4-Pad2)*%
X105276900Y-83992300D03*
%TO.P,U5,14*%
%TO.N,3.3V*%
X105776900Y-83992300D03*
%TO.P,U5,15*%
%TO.N,GND*%
X106276900Y-83992300D03*
%TO.P,U5,16*%
%TO.N,Net-(C6-Pad1)*%
X106776900Y-83992300D03*
%TO.P,U5,17*%
%TO.N,Net-(C5-Pad1)*%
X107276900Y-83992300D03*
%TO.P,U5,18*%
%TO.N,/D3*%
X107776900Y-83992300D03*
%TO.P,U5,19*%
%TO.N,/D2*%
X108276900Y-83992300D03*
%TO.P,U5,20*%
%TO.N,/RXI*%
X108776900Y-83992300D03*
%TO.P,U5,21*%
%TO.N,/INT*%
X109276900Y-83992300D03*
%TO.P,U5,22*%
%TO.N,Net-(R6-Pad1)*%
X109776900Y-83992300D03*
%TO.P,U5,34*%
%TO.N,3.3V*%
X109776900Y-77272300D03*
%TO.P,U5,35*%
%TO.N,GND*%
X109276900Y-77272300D03*
%TO.P,U5,36*%
%TO.N,Net-(U5-Pad36)*%
X108776900Y-77272300D03*
%TO.P,U5,37*%
%TO.N,Net-(U5-Pad37)*%
X108276900Y-77272300D03*
%TO.P,U5,38*%
%TO.N,Net-(U5-Pad38)*%
X107776900Y-77272300D03*
%TO.P,U5,39*%
%TO.N,Net-(U5-Pad39)*%
X107276900Y-77272300D03*
%TO.P,U5,40*%
%TO.N,Net-(U5-Pad40)*%
X106776900Y-77272300D03*
%TO.P,U5,41*%
%TO.N,Net-(U5-Pad41)*%
X106276900Y-77272300D03*
%TO.P,U5,42*%
%TO.N,/AREF*%
X105776900Y-77272300D03*
%TO.P,U5,43*%
%TO.N,GND*%
X105276900Y-77272300D03*
%TO.P,U5,44*%
%TO.N,3.3V*%
X104776900Y-77272300D03*
D16*
%TO.P,U5,1*%
%TO.N,/BTN1*%
X103916900Y-78132300D03*
%TO.P,U5,2*%
%TO.N,Net-(U5-Pad2)*%
X103916900Y-78632300D03*
%TO.P,U5,3*%
%TO.N,/D-*%
X103916900Y-79132300D03*
%TO.P,U5,4*%
%TO.N,/D+*%
X103916900Y-79632300D03*
%TO.P,U5,5*%
%TO.N,GND*%
X103916900Y-80132300D03*
%TO.P,U5,6*%
%TO.N,3.3V*%
X103916900Y-80632300D03*
%TO.P,U5,7*%
%TO.N,VBUS*%
X103916900Y-81132300D03*
%TO.P,U5,8*%
%TO.N,/D14*%
X103916900Y-81632300D03*
%TO.P,U5,9*%
%TO.N,/SCK*%
X103916900Y-82132300D03*
%TO.P,U5,10*%
%TO.N,/MOSI*%
X103916900Y-82632300D03*
%TO.P,U5,11*%
%TO.N,/MISO*%
X103916900Y-83132300D03*
%TO.P,U5,23*%
%TO.N,GND*%
X110636900Y-83132300D03*
%TO.P,U5,24*%
%TO.N,3.3V*%
X110636900Y-82632300D03*
%TO.P,U5,25*%
%TO.N,/D4*%
X110636900Y-82132300D03*
%TO.P,U5,26*%
%TO.N,/D12*%
X110636900Y-81632300D03*
%TO.P,U5,27*%
%TO.N,/D6*%
X110636900Y-81132300D03*
%TO.P,U5,28*%
%TO.N,/BTN3*%
X110636900Y-80632300D03*
%TO.P,U5,29*%
%TO.N,/BTN4*%
X110636900Y-80132300D03*
%TO.P,U5,30*%
%TO.N,/BTN2*%
X110636900Y-79632300D03*
%TO.P,U5,31*%
%TO.N,/D5*%
X110636900Y-79132300D03*
%TO.P,U5,32*%
%TO.N,/D13*%
X110636900Y-78632300D03*
%TO.P,U5,33*%
%TO.N,GND*%
X110636900Y-78132300D03*
%TD*%
%TO.P,D2,A*%
%TO.N,3.3V*%
%TA.AperFunction,SMDPad,CuDef*%
G36*
G01*
X112168650Y-86848200D02*
X111656150Y-86848200D01*
G75*
G02*
X111437400Y-86629450I0J218750D01*
G01*
X111437400Y-86191950D01*
G75*
G02*
X111656150Y-85973200I218750J0D01*
G01*
X112168650Y-85973200D01*
G75*
G02*
X112387400Y-86191950I0J-218750D01*
G01*
X112387400Y-86629450D01*
G75*
G02*
X112168650Y-86848200I-218750J0D01*
G01*
G37*
%TD.AperFunction*%
%TO.P,D2,C*%
%TO.N,Net-(D2-PadC)*%
%TA.AperFunction,SMDPad,CuDef*%
G36*
G01*
X112168650Y-88423200D02*
X111656150Y-88423200D01*
G75*
G02*
X111437400Y-88204450I0J218750D01*
G01*
X111437400Y-87766950D01*
G75*
G02*
X111656150Y-87548200I218750J0D01*
G01*
X112168650Y-87548200D01*
G75*
G02*
X112387400Y-87766950I0J-218750D01*
G01*
X112387400Y-88204450D01*
G75*
G02*
X112168650Y-88423200I-218750J0D01*
G01*
G37*
%TD.AperFunction*%
%TD*%
D17*
%TO.P,Y1,4*%
%TO.N,N/C*%
X105176320Y-90860880D03*
%TO.P,Y1,3*%
%TO.N,Net-(C5-Pad1)*%
X101478080Y-90860880D03*
%TO.P,Y1,2*%
%TO.N,N/C*%
X101478080Y-88564720D03*
%TO.P,Y1,1*%
%TO.N,Net-(C6-Pad1)*%
X105176320Y-88564720D03*
%TD*%
%TO.P,D3,A*%
%TO.N,3.3V*%
%TA.AperFunction,SMDPad,CuDef*%
G36*
G01*
X97694000Y-84097150D02*
X97694000Y-84609650D01*
G75*
G02*
X97475250Y-84828400I-218750J0D01*
G01*
X97037750Y-84828400D01*
G75*
G02*
X96819000Y-84609650I0J218750D01*
G01*
X96819000Y-84097150D01*
G75*
G02*
X97037750Y-83878400I218750J0D01*
G01*
X97475250Y-83878400D01*
G75*
G02*
X97694000Y-84097150I0J-218750D01*
G01*
G37*
%TD.AperFunction*%
%TO.P,D3,C*%
%TO.N,Net-(D3-PadC)*%
%TA.AperFunction,SMDPad,CuDef*%
G36*
G01*
X99269000Y-84097150D02*
X99269000Y-84609650D01*
G75*
G02*
X99050250Y-84828400I-218750J0D01*
G01*
X98612750Y-84828400D01*
G75*
G02*
X98394000Y-84609650I0J218750D01*
G01*
X98394000Y-84097150D01*
G75*
G02*
X98612750Y-83878400I218750J0D01*
G01*
X99050250Y-83878400D01*
G75*
G02*
X99269000Y-84097150I0J-218750D01*
G01*
G37*
%TD.AperFunction*%
%TD*%
D13*
%TO.P,C9,2*%
%TO.N,GND*%
X100548440Y-75590400D03*
%TO.P,C9,1*%
%TO.N,/BTN1*%
X102245160Y-75590400D03*
%TD*%
D18*
%TO.P,U1,1*%
%TO.N,Net-(U1-Pad1)*%
X112830600Y-89824000D03*
%TO.P,U1,2*%
%TO.N,/INT*%
X111930600Y-89824000D03*
%TO.P,U1,3*%
%TO.N,/D3*%
X111030600Y-89824000D03*
%TO.P,U1,4*%
%TO.N,/D2*%
X110130600Y-89824000D03*
%TO.P,U1,5*%
%TO.N,GND*%
X110130600Y-91024000D03*
%TO.P,U1,6*%
%TO.N,Net-(R18-Pad1)*%
X111030600Y-91024000D03*
%TO.P,U1,7*%
%TO.N,3.3V*%
X111930600Y-91024000D03*
%TO.P,U1,8*%
%TO.N,Net-(R9-Pad2)*%
X112830600Y-91024000D03*
%TD*%
D12*
%TO.P,J1,2*%
%TO.N,/BAT+*%
X103200200Y-70788400D03*
%TO.P,J1,1*%
%TO.N,GND*%
X100660200Y-70788400D03*
%TD*%
D19*
%TO.P,D4,4*%
%TO.N,VBUS*%
X100548400Y-77384400D03*
%TO.P,D4,3*%
%TO.N,/D-*%
X102448400Y-77384400D03*
%TO.P,D4,2*%
%TO.N,/D+*%
X102448400Y-79384400D03*
D20*
%TO.P,D4,1*%
%TO.N,GND*%
X100748400Y-79384400D03*
%TD*%
D21*
%TO.P,Q1,3*%
%TO.N,Net-(Q1-Pad3)*%
X95867220Y-85953600D03*
%TO.P,Q1,2*%
%TO.N,GND*%
X93769180Y-86903560D03*
%TO.P,Q1,1*%
%TO.N,Net-(Q1-Pad1)*%
X93769180Y-85003640D03*
%TD*%
D22*
%TO.P,C2,2*%
%TO.N,GND*%
X107378500Y-90655140D03*
%TO.P,C2,1*%
%TO.N,3.3V*%
X107378500Y-92351860D03*
%TD*%
D13*
%TO.P,C5,2*%
%TO.N,GND*%
X101610160Y-86588600D03*
%TO.P,C5,1*%
%TO.N,Net-(C5-Pad1)*%
X99913440Y-86588600D03*
%TD*%
D22*
%TO.P,C6,2*%
%TO.N,GND*%
X107696000Y-86857840D03*
%TO.P,C6,1*%
%TO.N,Net-(C6-Pad1)*%
X107696000Y-88554560D03*
%TD*%
D13*
%TO.P,C10,2*%
%TO.N,/AREF*%
X109280960Y-75133200D03*
%TO.P,C10,1*%
%TO.N,GND*%
X107584240Y-75133200D03*
%TD*%
%TO.P,C11,2*%
%TO.N,3.3V*%
X98841560Y-81026000D03*
%TO.P,C11,1*%
%TO.N,GND*%
X97144840Y-81026000D03*
%TD*%
%TO.P,C12,2*%
%TO.N,GND*%
X97117580Y-82702400D03*
%TO.P,C12,1*%
%TO.N,VBUS*%
X98814300Y-82702400D03*
%TD*%
%TO.P,C14,2*%
%TO.N,GND*%
X115097560Y-82334100D03*
%TO.P,C14,1*%
%TO.N,/BTN3*%
X113400840Y-82334100D03*
%TD*%
%TO.P,C15,2*%
%TO.N,GND*%
X115097560Y-80810100D03*
%TO.P,C15,1*%
%TO.N,/BTN4*%
X113400840Y-80810100D03*
%TD*%
%TO.P,C16,2*%
%TO.N,GND*%
X115097560Y-76047600D03*
%TO.P,C16,1*%
%TO.N,/BTN2*%
X113400840Y-76047600D03*
%TD*%
%TO.P,C17,2*%
%TO.N,GND*%
X92928440Y-88341200D03*
%TO.P,C17,1*%
%TO.N,VCC*%
X94625160Y-88341200D03*
%TD*%
%TO.P,C18,2*%
%TO.N,GND*%
X96243140Y-87312500D03*
%TO.P,C18,1*%
%TO.N,3.3V*%
X97939860Y-87312500D03*
%TD*%
D22*
%TO.P,L1,2*%
%TO.N,3.3V*%
X99390200Y-88889840D03*
%TO.P,L1,1*%
%TO.N,Net-(L1-Pad1)*%
X99390200Y-90586560D03*
%TD*%
D13*
%TO.P,R1,2*%
%TO.N,3.3V*%
X95476060Y-82016600D03*
%TO.P,R1,1*%
%TO.N,Net-(Q1-Pad1)*%
X93779340Y-82016600D03*
%TD*%
%TO.P,R2,2*%
%TO.N,GND*%
X92928440Y-89941400D03*
%TO.P,R2,1*%
%TO.N,Net-(R2-Pad1)*%
X94625160Y-89941400D03*
%TD*%
%TO.P,R3,2*%
%TO.N,3.3V*%
X95476060Y-83616800D03*
%TO.P,R3,1*%
%TO.N,Net-(Q1-Pad1)*%
X93779340Y-83616800D03*
%TD*%
%TO.P,R4,2*%
%TO.N,Net-(R4-Pad2)*%
X103774240Y-86207600D03*
%TO.P,R4,1*%
%TO.N,3.3V*%
X105470960Y-86207600D03*
%TD*%
%TO.P,R5,1*%
%TO.N,/D-*%
X99019360Y-77597000D03*
%TO.P,R5,2*%
%TO.N,Net-(R5-Pad2)*%
X97322640Y-77597000D03*
%TD*%
D22*
%TO.P,R6,2*%
%TO.N,Net-(D2-PadC)*%
X110312200Y-87360760D03*
%TO.P,R6,1*%
%TO.N,Net-(R6-Pad1)*%
X110312200Y-85664040D03*
%TD*%
D13*
%TO.P,R7,1*%
%TO.N,/D+*%
X99019360Y-79197200D03*
%TO.P,R7,2*%
%TO.N,Net-(R7-Pad2)*%
X97322640Y-79197200D03*
%TD*%
D22*
%TO.P,R8,2*%
%TO.N,Net-(Q1-Pad3)*%
X92075000Y-85354160D03*
%TO.P,R8,1*%
%TO.N,/LEDK*%
X92075000Y-83657440D03*
%TD*%
D13*
%TO.P,R9,2*%
%TO.N,Net-(R9-Pad2)*%
X112440720Y-92646500D03*
%TO.P,R9,1*%
%TO.N,3.3V*%
X110744000Y-92646500D03*
%TD*%
%TO.P,R10,2*%
%TO.N,Net-(R10-Pad2)*%
X94625160Y-91465400D03*
%TO.P,R10,1*%
%TO.N,VCC*%
X92928440Y-91465400D03*
%TD*%
D22*
%TO.P,R11,2*%
%TO.N,Net-(D3-PadC)*%
X100380800Y-84373700D03*
%TO.P,R11,1*%
%TO.N,/D14*%
X100380800Y-82676980D03*
%TD*%
D13*
%TO.P,R12,2*%
%TO.N,/BTN1*%
X103901240Y-75133200D03*
%TO.P,R12,1*%
%TO.N,3.3V*%
X105597960Y-75133200D03*
%TD*%
%TO.P,R13,2*%
%TO.N,/BTN3*%
X113400840Y-84150200D03*
%TO.P,R13,1*%
%TO.N,3.3V*%
X115097560Y-84150200D03*
%TD*%
%TO.P,R14,2*%
%TO.N,/BTN4*%
X113400840Y-79222600D03*
%TO.P,R14,1*%
%TO.N,3.3V*%
X115097560Y-79222600D03*
%TD*%
%TO.P,R15,2*%
%TO.N,/BTN2*%
X113400840Y-77635100D03*
%TO.P,R15,1*%
%TO.N,3.3V*%
X115097560Y-77635100D03*
%TD*%
%TO.P,R16,2*%
%TO.N,GND*%
X96179640Y-91465400D03*
%TO.P,R16,1*%
%TO.N,Net-(R16-Pad1)*%
X97876360Y-91465400D03*
%TD*%
D22*
%TO.P,C3,1*%
%TO.N,VBUS*%
X89598500Y-88432640D03*
%TO.P,C3,2*%
%TO.N,GND*%
X89598500Y-90129360D03*
%TD*%
%TO.P,C4,2*%
%TO.N,GND*%
X91186000Y-90129360D03*
%TO.P,C4,1*%
%TO.N,/BAT+*%
X91186000Y-88432640D03*
%TD*%
D13*
%TO.P,D1,2*%
%TO.N,VBUS*%
X96687640Y-75184000D03*
%TO.P,D1,1*%
%TO.N,VCC*%
X98384360Y-75184000D03*
%TD*%
%TO.P,D5,1*%
%TO.N,VCC*%
X98384360Y-73660000D03*
%TO.P,D5,2*%
%TO.N,/BAT+*%
X96687640Y-73660000D03*
%TD*%
%TO.P,D6,1*%
%TO.N,GND*%
X87543640Y-84264500D03*
%TO.P,D6,2*%
%TO.N,Net-(D6-Pad2)*%
X89240360Y-84264500D03*
%TD*%
D22*
%TO.P,R17,2*%
%TO.N,GND*%
X88011000Y-90129360D03*
%TO.P,R17,1*%
%TO.N,Net-(Q2-Pad8)*%
X88011000Y-88432640D03*
%TD*%
D11*
%TO.P,TP4,1*%
%TO.N,/D3*%
X99885500Y-96901000D03*
%TD*%
%TO.P,TP5,1*%
%TO.N,/D2*%
X101866700Y-96901000D03*
%TD*%
D23*
%TO.P,Q2,9*%
%TO.N,N/C*%
X88900000Y-86296500D03*
D24*
%TO.P,Q2,8*%
%TO.N,Net-(Q2-Pad8)*%
X87465000Y-87046500D03*
%TO.P,Q2,7*%
%TO.N,Net-(Q2-Pad7)*%
X87465000Y-86546500D03*
%TO.P,Q2,6*%
%TO.N,GND*%
X87465000Y-86046500D03*
%TO.P,Q2,5*%
%TO.N,Net-(D6-Pad2)*%
X87465000Y-85546500D03*
%TO.P,Q2,4*%
%TO.N,/BAT+*%
X90335000Y-85546500D03*
%TO.P,Q2,3*%
X90335000Y-86046500D03*
%TO.P,Q2,2*%
%TO.N,VBUS*%
X90335000Y-86546500D03*
%TO.P,Q2,1*%
X90335000Y-87046500D03*
%TD*%
D22*
%TO.P,R18,1*%
%TO.N,Net-(R18-Pad1)*%
X108902500Y-92351860D03*
%TO.P,R18,2*%
%TO.N,GND*%
X108902500Y-90655140D03*
%TD*%
D25*
%TO.N,3.3V*%
X99314000Y-87757000D03*
X110871000Y-93535500D03*
X111760000Y-85471000D03*
X116103400Y-76835000D03*
X112090200Y-75895200D03*
%TO.N,GND*%
X92773500Y-86931500D03*
X94107000Y-77724000D03*
X89979500Y-77533500D03*
X95377000Y-92456000D03*
X105283000Y-91948000D03*
X106680000Y-88138000D03*
X107569000Y-74104500D03*
X100584000Y-74612500D03*
X97713800Y-85801200D03*
X110464600Y-84455000D03*
X112090200Y-77216000D03*
X114249200Y-83235800D03*
X115125500Y-75057000D03*
X99885500Y-92989400D03*
D26*
X114490500Y-91694000D03*
D25*
%TO.N,/BTN1*%
X101396800Y-76631800D03*
%TO.N,VCC*%
X99441000Y-75501500D03*
X93789500Y-92392500D03*
X94742000Y-87223600D03*
%TO.N,/BTN3*%
X111861600Y-81026000D03*
%TO.N,/BTN4*%
X111836200Y-80162400D03*
%TO.N,/BTN2*%
X112090200Y-79070200D03*
%TO.N,/LEDK*%
X92075000Y-82486500D03*
%TO.N,/D4*%
X111734600Y-84201000D03*
%TO.N,/D5*%
X102044500Y-82296000D03*
X101854000Y-85153500D03*
X112090200Y-78028800D03*
%TO.N,/SCK*%
X101854000Y-83947000D03*
X103911400Y-92938600D03*
%TO.N,/MOSI*%
X102425500Y-84582000D03*
X101828600Y-92938600D03*
%TO.N,Net-(R5-Pad2)*%
X89979500Y-79375000D03*
%TO.N,Net-(R7-Pad2)*%
X89979500Y-78676500D03*
%TO.N,/D3*%
X98361500Y-97345500D03*
X110236000Y-88582500D03*
%TO.N,/D2*%
X98425000Y-96469200D03*
X109537500Y-88328500D03*
X109220000Y-89598500D03*
%TO.N,/D12*%
X112344200Y-84836000D03*
X104838500Y-93472000D03*
%TO.N,VBUS*%
X89979500Y-80137000D03*
X91376500Y-86931500D03*
X91630500Y-78422500D03*
X93281500Y-77533500D03*
X97993200Y-81889600D03*
%TO.N,/BAT+*%
X90614500Y-84137500D03*
%TO.N,/INT*%
X109232700Y-84963000D03*
X110947200Y-88468200D03*
%TD*%
D27*
%TO.N,Net-(R18-Pad1)*%
X110884180Y-91170420D02*
X111030600Y-91024000D01*
%TO.N,3.3V*%
X104776900Y-82882100D02*
X104952800Y-83058000D01*
X104952800Y-83058000D02*
X105956200Y-83058000D01*
X104776900Y-80492302D02*
X104776900Y-82882100D01*
X115097560Y-77635100D02*
X115097560Y-79222600D01*
X115972471Y-83275289D02*
X115972471Y-80097511D01*
X115972471Y-80097511D02*
X115097560Y-79222600D01*
X115097560Y-84150200D02*
X115972471Y-83275289D01*
X109776900Y-77272300D02*
X109776900Y-77370300D01*
X115097560Y-77635100D02*
X115227100Y-77635100D01*
X115227100Y-77635100D02*
X116001800Y-76860400D01*
X109776900Y-77272300D02*
X109776900Y-77595100D01*
X105597960Y-75401030D02*
X105597960Y-75133200D01*
X104776900Y-77272300D02*
X104776900Y-76222090D01*
X104776900Y-76222090D02*
X105597960Y-75401030D01*
X105470960Y-86207600D02*
X105776900Y-85901660D01*
X105470960Y-86207600D02*
X104646849Y-87031711D01*
X102964329Y-87031711D02*
X102964329Y-87013129D01*
X104646849Y-87031711D02*
X102964329Y-87031711D01*
X105776900Y-83237300D02*
X105956200Y-83058000D01*
X105776900Y-83992300D02*
X105776900Y-83237300D01*
X109916898Y-82632300D02*
X110636900Y-82632300D01*
X109499400Y-83049798D02*
X109916898Y-82632300D01*
X109499400Y-83058000D02*
X109499400Y-83049798D01*
X111109599Y-84693599D02*
X111760000Y-85344000D01*
X111334300Y-82632300D02*
X111480600Y-82778600D01*
X111480600Y-82778600D02*
X111480600Y-83529998D01*
X110636900Y-82632300D02*
X111334300Y-82632300D01*
X111480600Y-83529998D02*
X111109599Y-83900999D01*
X111109599Y-83900999D02*
X111109599Y-84693599D01*
X111760000Y-86258300D02*
X111912400Y-86410700D01*
X111760000Y-85344000D02*
X111760000Y-86258300D01*
X115034862Y-84150200D02*
X115097560Y-84150200D01*
X98841560Y-81102200D02*
X99085400Y-81102200D01*
X102069900Y-80632300D02*
X101866700Y-80632300D01*
X103916900Y-80632300D02*
X102069900Y-80632300D01*
X104636902Y-80632300D02*
X103916900Y-80632300D01*
X104776900Y-80492302D02*
X104636902Y-80632300D01*
X104776900Y-77272300D02*
X104776900Y-80492302D01*
X105956200Y-83058000D02*
X109499400Y-83058000D01*
X95412560Y-83604100D02*
X95425260Y-83616800D01*
X95463360Y-80518000D02*
X95463360Y-83604100D01*
X95476060Y-83616800D02*
X95961200Y-83616800D01*
X96697800Y-84353400D02*
X97256500Y-84353400D01*
X95961200Y-83616800D02*
X96697800Y-84353400D01*
X97586000Y-87691760D02*
X97977960Y-87299800D01*
X97586000Y-88658000D02*
X97586000Y-87691760D01*
X99158360Y-88658000D02*
X99390200Y-88889840D01*
X97586000Y-88658000D02*
X99158360Y-88658000D01*
X97088799Y-84521101D02*
X97256500Y-84353400D01*
X97977960Y-86990362D02*
X97088799Y-86101201D01*
X97977960Y-87299800D02*
X97977960Y-86990362D01*
X105470960Y-86207600D02*
X105470960Y-85473540D01*
X105776900Y-85167600D02*
X105776900Y-83992300D01*
X105470960Y-85473540D02*
X105776900Y-85167600D01*
X100320562Y-80632300D02*
X100914200Y-80632300D01*
X99926862Y-81026000D02*
X100320562Y-80632300D01*
X98841560Y-81026000D02*
X99926862Y-81026000D01*
X102069900Y-80632300D02*
X100914200Y-80632300D01*
X100914200Y-80632300D02*
X100723700Y-80632300D01*
X110884180Y-93522320D02*
X110871000Y-93535500D01*
X110884180Y-92481400D02*
X110884180Y-93522320D01*
X112597202Y-85471000D02*
X113093500Y-84974702D01*
X111760000Y-85471000D02*
X112597202Y-85471000D01*
X114298449Y-84949311D02*
X115097560Y-84150200D01*
X113093500Y-84963000D02*
X113107189Y-84949311D01*
X113107189Y-84949311D02*
X114298449Y-84949311D01*
X113093500Y-84974702D02*
X113093500Y-84963000D01*
X112090200Y-76327998D02*
X112090200Y-75895200D01*
X112090200Y-76327998D02*
X112076502Y-76327998D01*
X111132200Y-77272300D02*
X109776900Y-77272300D01*
X112076502Y-76327998D02*
X111132200Y-77272300D01*
X99377500Y-88877140D02*
X99390200Y-88889840D01*
X99377500Y-87693500D02*
X99377500Y-88877140D01*
X102743000Y-86810382D02*
X102964329Y-87031711D01*
X102503089Y-85764489D02*
X102743000Y-86004400D01*
X101422459Y-85764489D02*
X102503089Y-85764489D01*
X102743000Y-86004400D02*
X102743000Y-86810382D01*
X97622860Y-84353400D02*
X98397870Y-85128410D01*
X97256500Y-84353400D02*
X97622860Y-84353400D01*
X100972449Y-85314479D02*
X101422459Y-85764489D01*
X98397870Y-85128410D02*
X98399910Y-85128410D01*
X98399910Y-85128410D02*
X98585979Y-85314479D01*
X98585979Y-85314479D02*
X100972449Y-85314479D01*
X97088799Y-86101201D02*
X97088799Y-85283201D01*
X97256500Y-85115500D02*
X97256500Y-84353400D01*
X97088799Y-85283201D02*
X97256500Y-85115500D01*
X111930600Y-91459900D02*
X110744000Y-92646500D01*
X111930600Y-91024000D02*
X111930600Y-91459900D01*
X108228411Y-93201771D02*
X107378500Y-92351860D01*
X110188729Y-93201771D02*
X108228411Y-93201771D01*
X110744000Y-92646500D02*
X110188729Y-93201771D01*
%TO.N,GND*%
X93769180Y-86903560D02*
X92923360Y-86903560D01*
X96281240Y-91465400D02*
X96281240Y-91475560D01*
X115097560Y-80810100D02*
X115097560Y-82334100D01*
X115097560Y-76047600D02*
X115097560Y-75879960D01*
X114960400Y-82471260D02*
X115097560Y-82334100D01*
X115097560Y-76047600D02*
X115097560Y-75930760D01*
X115097560Y-82387440D02*
X114249200Y-83235800D01*
X115097560Y-82334100D02*
X115097560Y-82387440D01*
X109416898Y-78132300D02*
X110636900Y-78132300D01*
X109276900Y-77992302D02*
X109416898Y-78132300D01*
X109276900Y-77272300D02*
X109276900Y-77992302D01*
X110464600Y-84455000D02*
X110464600Y-83845400D01*
X110636900Y-83673100D02*
X110636900Y-83132300D01*
X110464600Y-83845400D02*
X110636900Y-83673100D01*
X106760129Y-75957311D02*
X107584240Y-75133200D01*
X105678089Y-75957311D02*
X106760129Y-75957311D01*
X105276900Y-76358500D02*
X105678089Y-75957311D01*
X105276900Y-77272300D02*
X105276900Y-76358500D01*
X107231982Y-75133200D02*
X107584240Y-75133200D01*
X101610160Y-86588600D02*
X101650800Y-86588600D01*
X97750511Y-85764489D02*
X97713800Y-85801200D01*
X100786049Y-85764489D02*
X97750511Y-85764489D01*
X101610160Y-86588600D02*
X100786049Y-85764489D01*
X103912200Y-80137000D02*
X103916900Y-80132300D01*
X100748400Y-79384400D02*
X100898200Y-79384400D01*
X103916900Y-80132300D02*
X101646100Y-80132300D01*
X97348040Y-82626200D02*
X97322640Y-82651600D01*
X97144840Y-82677000D02*
X97119440Y-82702400D01*
X97144840Y-81026000D02*
X97144840Y-82677000D01*
X97144840Y-81026000D02*
X97144840Y-80616258D01*
X96222471Y-79693889D02*
X95007311Y-79693889D01*
X95007311Y-79693889D02*
X94539951Y-79693889D01*
X93766640Y-79921338D02*
X93994089Y-79693889D01*
X93766640Y-80518000D02*
X93766640Y-79921338D01*
X93994089Y-79693889D02*
X95007311Y-79693889D01*
X96222471Y-79756453D02*
X96598318Y-80132300D01*
X96222471Y-79693889D02*
X96222471Y-79756453D01*
X97658300Y-80132300D02*
X97404300Y-80132300D01*
X97144840Y-80264760D02*
X97277300Y-80132300D01*
X96870900Y-80183100D02*
X97144840Y-80457040D01*
X96870900Y-80132300D02*
X96870900Y-80183100D01*
X96598318Y-80132300D02*
X96870900Y-80132300D01*
X96870900Y-80132300D02*
X97277300Y-80132300D01*
X97144840Y-81026000D02*
X97144840Y-80457040D01*
X97144840Y-80457040D02*
X97144840Y-80264760D01*
X97144840Y-80401160D02*
X97413700Y-80132300D01*
X97144840Y-80457040D02*
X97144840Y-80401160D01*
X97277300Y-80132300D02*
X97413700Y-80132300D01*
X97413700Y-80132300D02*
X97658300Y-80132300D01*
X96216000Y-87365040D02*
X96281240Y-87299800D01*
X96216000Y-88658000D02*
X96216000Y-87365040D01*
X92953840Y-88341200D02*
X92953840Y-89941400D01*
X92953840Y-88341200D02*
X92953840Y-88150700D01*
X92953840Y-89941400D02*
X92760800Y-89941400D01*
X95895602Y-87299800D02*
X95194401Y-86598599D01*
X96281240Y-87299800D02*
X95895602Y-87299800D01*
X100548440Y-75590400D02*
X100548440Y-75498960D01*
X96179640Y-91653360D02*
X96179640Y-91465400D01*
X95377000Y-92456000D02*
X96179640Y-91653360D01*
X105232200Y-91897200D02*
X105283000Y-91948000D01*
X103893536Y-91897200D02*
X105232200Y-91897200D01*
X103682800Y-90269528D02*
X103682800Y-91686464D01*
X103682800Y-91686464D02*
X103893536Y-91897200D01*
X106680000Y-88138000D02*
X106680000Y-87834691D01*
X107656851Y-86857840D02*
X107696000Y-86857840D01*
X106680000Y-87834691D02*
X107656851Y-86857840D01*
X104833249Y-87481721D02*
X102777928Y-87481720D01*
X104833249Y-87481721D02*
X105167570Y-87147400D01*
X102777928Y-87481720D02*
X102235000Y-86938792D01*
X102235000Y-86938792D02*
X101960352Y-86938792D01*
X106320871Y-85468489D02*
X106320871Y-86946711D01*
X101960352Y-86938792D02*
X101610160Y-86588600D01*
X106120182Y-87147400D02*
X105167570Y-87147400D01*
X106320871Y-86946711D02*
X106120182Y-87147400D01*
X106276900Y-85424518D02*
X106320871Y-85468489D01*
X106276900Y-83992300D02*
X106276900Y-85424518D01*
X112020899Y-77216000D02*
X112090200Y-77216000D01*
X111104599Y-78132300D02*
X112020899Y-77216000D01*
X110636900Y-78132300D02*
X111104599Y-78132300D01*
X107571540Y-75120500D02*
X107584240Y-75133200D01*
X107569000Y-75117960D02*
X107584240Y-75133200D01*
X107569000Y-74104500D02*
X107569000Y-75117960D01*
X100584000Y-75554840D02*
X100548440Y-75590400D01*
X100584000Y-74612500D02*
X100584000Y-75554840D01*
X115125500Y-76019660D02*
X115097560Y-76047600D01*
X115125500Y-75057000D02*
X115125500Y-76019660D01*
X92862400Y-88275160D02*
X92928440Y-88341200D01*
X94074141Y-86598599D02*
X95194401Y-86598599D01*
X93769180Y-86903560D02*
X94074141Y-86598599D01*
X93082081Y-79693889D02*
X93409889Y-79693889D01*
X93597611Y-79752309D02*
X93766640Y-79921338D01*
X93597611Y-79693889D02*
X93597611Y-79752309D01*
X93597611Y-79693889D02*
X93994089Y-79693889D01*
X93409889Y-79693889D02*
X93597611Y-79693889D01*
X100748400Y-79782100D02*
X100398200Y-80132300D01*
X100748400Y-79384400D02*
X100748400Y-79782100D01*
X100398200Y-80132300D02*
X97658300Y-80132300D01*
X100748400Y-79793400D02*
X101087300Y-80132300D01*
X100748400Y-79384400D02*
X100748400Y-79793400D01*
X101646100Y-80132300D02*
X101087300Y-80132300D01*
X100748400Y-80099600D02*
X100715700Y-80132300D01*
X100748400Y-79793400D02*
X100748400Y-80099600D01*
X101087300Y-80132300D02*
X100715700Y-80132300D01*
X100715700Y-80132300D02*
X100398200Y-80132300D01*
D28*
X99885500Y-93408500D02*
X99885500Y-94768800D01*
D27*
X96056919Y-76708000D02*
X96520429Y-76244490D01*
X94955360Y-76708000D02*
X96056919Y-76708000D01*
X99894350Y-76244490D02*
X100548440Y-75590400D01*
X96520429Y-76244490D02*
X99894350Y-76244490D01*
X92940659Y-79693889D02*
X92620860Y-80013688D01*
X93409889Y-79693889D02*
X92940659Y-79693889D01*
X94234000Y-77429360D02*
X94955360Y-76708000D01*
X94234000Y-77787500D02*
X94234000Y-77429360D01*
X92620860Y-80013688D02*
X92122210Y-80013688D01*
X89360121Y-81537021D02*
X88579479Y-80756379D01*
X92122210Y-80013688D02*
X90598877Y-81537021D01*
X88579479Y-80756379D02*
X88579479Y-79251021D01*
X90598877Y-81537021D02*
X89360121Y-81537021D01*
X89979500Y-77851000D02*
X89979500Y-77533500D01*
X88579479Y-79251021D02*
X89979500Y-77851000D01*
X91894784Y-77533500D02*
X89979500Y-77533500D01*
X100495187Y-72282490D02*
X97453010Y-72282490D01*
X100660200Y-70788400D02*
X100660200Y-72117477D01*
X100660200Y-72117477D02*
X100495187Y-72282490D01*
X89598500Y-90129360D02*
X91186000Y-90129360D01*
X92740480Y-90129360D02*
X92928440Y-89941400D01*
X91186000Y-90129360D02*
X92740480Y-90129360D01*
X87924640Y-89852500D02*
X87884000Y-89852500D01*
X87884000Y-89811860D02*
X87924640Y-89852500D01*
X86869998Y-86046500D02*
X86744999Y-86171499D01*
X86744999Y-86171499D02*
X86744999Y-88863359D01*
X87465000Y-86046500D02*
X86869998Y-86046500D01*
X92138500Y-80518000D02*
X93779340Y-80518000D01*
X93969405Y-75458879D02*
X91894784Y-77533500D01*
X96964500Y-72771000D02*
X96964500Y-72782086D01*
X97453010Y-72282490D02*
X96964500Y-72771000D01*
X94882067Y-75458879D02*
X93969405Y-75458879D01*
X96964500Y-72782086D02*
X95976532Y-72782086D01*
X95976532Y-72782086D02*
X95631000Y-73127618D01*
X95631000Y-73127618D02*
X95631000Y-74709946D01*
X95631000Y-74709946D02*
X94882067Y-75458879D01*
D28*
X99885500Y-93408500D02*
X99885500Y-92989400D01*
X86744999Y-88863359D02*
X86744999Y-89538999D01*
X87335360Y-90129360D02*
X88011000Y-90129360D01*
X86744999Y-89538999D02*
X87335360Y-90129360D01*
X92773500Y-88186260D02*
X92928440Y-88341200D01*
X92773500Y-86931500D02*
X92773500Y-88186260D01*
X88400890Y-83407250D02*
X89249250Y-83407250D01*
X87543640Y-84264500D02*
X88400890Y-83407250D01*
D27*
X89249250Y-83407250D02*
X92138500Y-80518000D01*
D28*
X89598500Y-90129360D02*
X88011000Y-90129360D01*
D27*
X107246011Y-90655140D02*
X107378500Y-90655140D01*
X106576840Y-89985969D02*
X107246011Y-90655140D01*
X103966359Y-89985969D02*
X106576840Y-89985969D01*
X103745264Y-90207064D02*
X103966359Y-89985969D01*
X107416600Y-90693240D02*
X107378500Y-90655140D01*
X109362240Y-90693240D02*
X107416600Y-90693240D01*
X110130600Y-91024000D02*
X109693000Y-91024000D01*
X109693000Y-91024000D02*
X109362240Y-90693240D01*
X110582999Y-94135501D02*
X110363499Y-93916001D01*
X112614684Y-94135501D02*
X110582999Y-94135501D01*
X114490500Y-92259685D02*
X112614684Y-94135501D01*
X114490500Y-91694000D02*
X114490500Y-92259685D01*
X110543501Y-94096003D02*
X110363499Y-93916001D01*
X110049279Y-93601781D02*
X106492281Y-93601781D01*
X110363499Y-93916001D02*
X110049279Y-93601781D01*
X105791000Y-91948000D02*
X105283000Y-91948000D01*
X106492281Y-93601781D02*
X106172000Y-93281500D01*
X106172000Y-93281500D02*
X106172000Y-92329000D01*
X106172000Y-92329000D02*
X105791000Y-91948000D01*
%TO.N,Net-(C5-Pad1)*%
X101346000Y-90728800D02*
X101478080Y-90860880D01*
X101478080Y-90860880D02*
X101900233Y-90438727D01*
X100203119Y-86878279D02*
X99913440Y-86588600D01*
X101478080Y-90860880D02*
X100203119Y-89585919D01*
X99913440Y-87465130D02*
X99913440Y-86588600D01*
X100203119Y-87754809D02*
X99913440Y-87465130D01*
X100203119Y-89585919D02*
X100203119Y-87754809D01*
X102458520Y-90860880D02*
X101478080Y-90860880D01*
X102877191Y-90442209D02*
X102458520Y-90860880D01*
X108623980Y-89292820D02*
X108153200Y-89763600D01*
X108623980Y-86196798D02*
X108623980Y-89292820D01*
X102877191Y-90438727D02*
X102877191Y-90442209D01*
X108153200Y-89763600D02*
X106920170Y-89763600D01*
X108435111Y-86007929D02*
X108623980Y-86196798D01*
X106920170Y-89763600D02*
X106692529Y-89535959D01*
X106692529Y-89535959D02*
X103779958Y-89535960D01*
X103779958Y-89535960D02*
X102877191Y-90438727D01*
X107276900Y-83992300D02*
X107276900Y-85369400D01*
X107915429Y-86007929D02*
X108435111Y-86007929D01*
X107276900Y-85369400D02*
X107915429Y-86007929D01*
%TO.N,Net-(C6-Pad1)*%
X106795881Y-84011281D02*
X106776900Y-83992300D01*
X107375960Y-88874600D02*
X107696000Y-88554560D01*
X105186480Y-88554560D02*
X105176320Y-88564720D01*
X105176320Y-87775060D02*
X105176320Y-88564720D01*
X105353970Y-87597410D02*
X105176320Y-87775060D01*
X106351582Y-87597410D02*
X105353970Y-87597410D01*
X106795881Y-87153111D02*
X106351582Y-87597410D01*
X106795881Y-87153111D02*
X106795881Y-84011281D01*
X107512559Y-88738001D02*
X107696000Y-88554560D01*
X106391999Y-88738001D02*
X107512559Y-88738001D01*
X106218718Y-88564720D02*
X106391999Y-88738001D01*
X105176320Y-88564720D02*
X106218718Y-88564720D01*
%TO.N,/BTN1*%
X101854000Y-76657200D02*
X101396800Y-76657200D01*
X102245160Y-76266040D02*
X101854000Y-76657200D01*
X102245160Y-75590400D02*
X102245160Y-76266040D01*
X103911400Y-75143360D02*
X103901240Y-75133200D01*
X104089200Y-75321160D02*
X103901240Y-75133200D01*
X103916900Y-75148860D02*
X103901240Y-75133200D01*
X103901240Y-76260960D02*
X103901240Y-75133200D01*
X103916900Y-76276620D02*
X103901240Y-76260960D01*
X103916900Y-78132300D02*
X103916900Y-76276620D01*
X102245160Y-75590400D02*
X102743000Y-75590400D01*
X103200200Y-75133200D02*
X103901240Y-75133200D01*
X102743000Y-75590400D02*
X103200200Y-75133200D01*
%TO.N,/AREF*%
X105776900Y-76552298D02*
X105900598Y-76428600D01*
X105900598Y-76428600D02*
X108864400Y-76428600D01*
X109280960Y-76012040D02*
X109280960Y-75234800D01*
X108864400Y-76428600D02*
X109280960Y-76012040D01*
X105776900Y-76552298D02*
X105776900Y-77272300D01*
%TO.N,VCC*%
X95467360Y-89158000D02*
X96216000Y-89158000D01*
X94650560Y-88341200D02*
X95467360Y-89158000D01*
X92928440Y-91465400D02*
X92928440Y-91556840D01*
X92928440Y-91556840D02*
X93675200Y-92303600D01*
X94742000Y-88224360D02*
X94625160Y-88341200D01*
X94742000Y-87223600D02*
X94742000Y-88224360D01*
D28*
X98701860Y-75501500D02*
X98384360Y-75184000D01*
D27*
X90995500Y-92138500D02*
X91503500Y-92138500D01*
X92176600Y-91465400D02*
X92928440Y-91465400D01*
X91503500Y-92138500D02*
X92176600Y-91465400D01*
D28*
X98384360Y-73660000D02*
X98384360Y-75184000D01*
X99441000Y-75501500D02*
X98701860Y-75501500D01*
D27*
%TO.N,/BTN3*%
X113400840Y-82334100D02*
X113296700Y-82334100D01*
X113400840Y-82334100D02*
X113161722Y-82334100D01*
X111810800Y-81051400D02*
X111810800Y-81074260D01*
X111810800Y-81026000D02*
X112764016Y-81979216D01*
X113045956Y-81979216D02*
X113400840Y-82334100D01*
X112764016Y-81979216D02*
X113045956Y-81979216D01*
X111749398Y-81026000D02*
X111810800Y-81026000D01*
X111355698Y-80632300D02*
X111749398Y-81026000D01*
X110636900Y-80632300D02*
X111355698Y-80632300D01*
X113400840Y-82334100D02*
X113400840Y-84150200D01*
%TO.N,/BTN4*%
X110866300Y-80132300D02*
X110871000Y-80137000D01*
X110636900Y-80132300D02*
X110866300Y-80132300D01*
X113172240Y-79451200D02*
X113400840Y-79222600D01*
X113121440Y-79502000D02*
X113400840Y-79222600D01*
X113337340Y-80873600D02*
X113400840Y-80810100D01*
X110636900Y-80132300D02*
X111629722Y-80132300D01*
X113375440Y-79248000D02*
X113400840Y-79222600D01*
X113362740Y-80848200D02*
X113400840Y-80810100D01*
X113273840Y-79349600D02*
X113400840Y-79222600D01*
X113235740Y-80645000D02*
X113400840Y-80810100D01*
X113400840Y-79222600D02*
X113400840Y-80810100D01*
X111836200Y-80162400D02*
X111897602Y-80162400D01*
X112837402Y-79222600D02*
X113400840Y-79222600D01*
X111897602Y-80162400D02*
X112837402Y-79222600D01*
%TO.N,/BTN2*%
X110636900Y-79632300D02*
X110823500Y-79632300D01*
X113400840Y-77635100D02*
X113400840Y-76047600D01*
X111963200Y-79171800D02*
X111963200Y-79072740D01*
X111493312Y-79632300D02*
X110636900Y-79632300D01*
X112090200Y-79035412D02*
X111493312Y-79632300D01*
X112090200Y-79070200D02*
X112090200Y-79035412D01*
X112090200Y-78945740D02*
X113400840Y-77635100D01*
X112090200Y-79070200D02*
X112090200Y-78945740D01*
%TO.N,/D-*%
X102448400Y-77764600D02*
X102448400Y-77384400D01*
X102127010Y-78085990D02*
X102448400Y-77764600D01*
X99019360Y-77597000D02*
X99250500Y-77597000D01*
X99250500Y-77597000D02*
X99739490Y-78085990D01*
X102339992Y-78085990D02*
X103073401Y-78819399D01*
X102127010Y-78085990D02*
X102339992Y-78085990D01*
X102339992Y-78085990D02*
X101936510Y-78085990D01*
X103111899Y-79032299D02*
X103111899Y-78857897D01*
X103211900Y-79132300D02*
X103111899Y-79032299D01*
X103916900Y-79132300D02*
X103211900Y-79132300D01*
X101936510Y-78085990D02*
X102127010Y-78085990D01*
X103111899Y-78857897D02*
X102339992Y-78085990D01*
X99739490Y-78085990D02*
X101936510Y-78085990D01*
%TO.N,/D+*%
X102448400Y-79384400D02*
X102448400Y-78953400D01*
X102448400Y-78953400D02*
X101981000Y-78486000D01*
X99730560Y-78486000D02*
X99019360Y-79197200D01*
X101981000Y-78486000D02*
X99730560Y-78486000D01*
X102898301Y-79384400D02*
X103142901Y-79629000D01*
X102448400Y-79384400D02*
X102898301Y-79384400D01*
X103913600Y-79629000D02*
X103916900Y-79632300D01*
X103142901Y-79629000D02*
X103913600Y-79629000D01*
%TO.N,/LEDK*%
X92075000Y-82486500D02*
X92075000Y-83657440D01*
%TO.N,/D4*%
X111493312Y-82132300D02*
X111930610Y-82569598D01*
X110636900Y-82132300D02*
X111493312Y-82132300D01*
X111930610Y-82569598D02*
X111930610Y-83667600D01*
X111930610Y-83667600D02*
X111930610Y-83674790D01*
X111930610Y-84004990D02*
X111734600Y-84201000D01*
X111930610Y-83667600D02*
X111930610Y-84004990D01*
%TO.N,/D5*%
X101228999Y-83596199D02*
X101228999Y-84515799D01*
X101553999Y-83271199D02*
X101228999Y-83596199D01*
X101228999Y-84515799D02*
X101854000Y-85140800D01*
X102122380Y-82437380D02*
X102082600Y-82397600D01*
X101553999Y-83271199D02*
X101831301Y-83271199D01*
X102044500Y-83058000D02*
X102044500Y-82296000D01*
X101831301Y-83271199D02*
X102044500Y-83058000D01*
X111490199Y-78628801D02*
X112090200Y-78028800D01*
X111490199Y-79009801D02*
X111490199Y-78628801D01*
X111367700Y-79132300D02*
X111490199Y-79009801D01*
X110636900Y-79132300D02*
X111367700Y-79132300D01*
%TO.N,/SCK*%
X103060488Y-82132300D02*
X102572390Y-82620398D01*
X103916900Y-82132300D02*
X103060488Y-82132300D01*
X101869401Y-83880799D02*
X101854000Y-83896200D01*
X102402801Y-83880799D02*
X101869401Y-83880799D01*
X102548400Y-83735200D02*
X102402801Y-83880799D01*
X102548400Y-83330210D02*
X102572390Y-83306220D01*
X102572390Y-83306220D02*
X102572390Y-82620398D01*
X102548400Y-83735200D02*
X102548400Y-83330210D01*
D28*
X103911400Y-94679900D02*
X103822500Y-94768800D01*
X103911400Y-92938600D02*
X103911400Y-94679900D01*
D27*
%TO.N,/MOSI*%
X103196898Y-82632300D02*
X103022400Y-82806798D01*
X103916900Y-82632300D02*
X103196898Y-82632300D01*
X103022400Y-83921600D02*
X102438200Y-84505800D01*
X103022400Y-82806798D02*
X103022400Y-83921600D01*
D28*
X101803200Y-92964000D02*
X101828600Y-92938600D01*
X101828600Y-94730700D02*
X101866700Y-94768800D01*
X101828600Y-92938600D02*
X101828600Y-94730700D01*
D27*
%TO.N,Net-(L1-Pad1)*%
X98191002Y-89158000D02*
X97586000Y-89158000D01*
X98316001Y-90211471D02*
X98316001Y-89282999D01*
X98691090Y-90586560D02*
X98316001Y-90211471D01*
X98316001Y-89282999D02*
X98191002Y-89158000D01*
X99390200Y-90586560D02*
X98691090Y-90586560D01*
%TO.N,Net-(Q1-Pad1)*%
X93741240Y-83604100D02*
X93728540Y-83616800D01*
X93792040Y-82016600D02*
X93792040Y-83604100D01*
X93779340Y-84993480D02*
X93769180Y-85003640D01*
X93779340Y-83616800D02*
X93779340Y-84993480D01*
%TO.N,Net-(Q1-Pad3)*%
X93497400Y-85953600D02*
X93285778Y-85953600D01*
X95867220Y-85953600D02*
X93497400Y-85953600D01*
X92075000Y-85354160D02*
X92674440Y-85953600D01*
X92674440Y-85953600D02*
X93497400Y-85953600D01*
%TO.N,Net-(R2-Pad1)*%
X94933960Y-89658000D02*
X96216000Y-89658000D01*
X94650560Y-89941400D02*
X94933960Y-89658000D01*
%TO.N,Net-(R4-Pad2)*%
X105276900Y-83992300D02*
X105276900Y-84943700D01*
X105276900Y-84943700D02*
X104927400Y-85293200D01*
X104927400Y-85293200D02*
X104038400Y-85293200D01*
X103774240Y-85557360D02*
X103774240Y-86207600D01*
X104038400Y-85293200D02*
X103774240Y-85557360D01*
%TO.N,Net-(R5-Pad2)*%
X97322640Y-77597000D02*
X97271840Y-77597000D01*
X96172450Y-78747190D02*
X97322640Y-77597000D01*
X92755960Y-78747190D02*
X96172450Y-78747190D01*
X92755960Y-78747190D02*
X92289482Y-79213668D01*
X92289482Y-79213668D02*
X91537832Y-79213668D01*
X89379499Y-79614237D02*
X89555236Y-79438500D01*
X89691499Y-80737001D02*
X89379499Y-80425001D01*
X90267501Y-80737001D02*
X89691499Y-80737001D01*
X91049480Y-79955022D02*
X90267501Y-80737001D01*
X89555236Y-79438500D02*
X89979500Y-79438500D01*
X91049480Y-79702020D02*
X91049480Y-79955022D01*
X89379499Y-80425001D02*
X89379499Y-79614237D01*
X91537832Y-79213668D02*
X91049480Y-79702020D01*
%TO.N,Net-(D2-PadC)*%
X111287460Y-87360760D02*
X111912400Y-87985700D01*
X110312200Y-87360760D02*
X111287460Y-87360760D01*
%TO.N,Net-(R6-Pad1)*%
X109776900Y-85128740D02*
X110312200Y-85664040D01*
X109776900Y-83992300D02*
X109776900Y-85128740D01*
%TO.N,Net-(R7-Pad2)*%
X89624537Y-78803500D02*
X89979500Y-78803500D01*
X90433190Y-81137011D02*
X89525810Y-81137011D01*
X91468848Y-80101352D02*
X90433190Y-81137011D01*
X97322640Y-79197200D02*
X92871648Y-79197200D01*
X88979489Y-79448548D02*
X89624537Y-78803500D01*
X91468849Y-79848349D02*
X91468848Y-80101352D01*
X92871648Y-79197200D02*
X92455171Y-79613678D01*
X92455171Y-79613678D02*
X91703520Y-79613678D01*
X88979489Y-80590690D02*
X88979489Y-79448548D01*
X89525810Y-81137011D02*
X88979489Y-80590690D01*
X91703520Y-79613678D02*
X91468849Y-79848349D01*
%TO.N,Net-(R9-Pad2)*%
X112830600Y-91024000D02*
X112830600Y-92231700D01*
X112830600Y-92231700D02*
X112580900Y-92481400D01*
%TO.N,Net-(R10-Pad2)*%
X95983360Y-90158000D02*
X96216000Y-90158000D01*
X94625160Y-91465400D02*
X94675960Y-91465400D01*
X95997582Y-90158000D02*
X96216000Y-90158000D01*
X94690182Y-91465400D02*
X95997582Y-90158000D01*
X94625160Y-91465400D02*
X94690182Y-91465400D01*
%TO.N,/D14*%
X103781100Y-81632300D02*
X103776779Y-81636621D01*
X103916900Y-81632300D02*
X103781100Y-81632300D01*
X100587300Y-81632300D02*
X103916900Y-81632300D01*
X100380800Y-81838800D02*
X100587300Y-81632300D01*
X100380800Y-82692240D02*
X100380800Y-81838800D01*
%TO.N,Net-(D3-PadC)*%
X98867060Y-84388960D02*
X98831500Y-84353400D01*
X100380800Y-84388960D02*
X98867060Y-84388960D01*
%TO.N,Net-(R16-Pad1)*%
X97586000Y-91073440D02*
X97977960Y-91465400D01*
X97586000Y-90158000D02*
X97586000Y-91073440D01*
%TO.N,/D3*%
X109023990Y-86130800D02*
X109023990Y-86392590D01*
X109023990Y-86392590D02*
X109023991Y-88342983D01*
X110640601Y-89098999D02*
X109605201Y-89098999D01*
X111030600Y-89824000D02*
X111030600Y-89488998D01*
X111030600Y-89488998D02*
X110640601Y-89098999D01*
X107776900Y-85234400D02*
X108150419Y-85607919D01*
X107776900Y-83992300D02*
X107776900Y-85234400D01*
X109023990Y-86031109D02*
X109023990Y-86392590D01*
X108600800Y-85607919D02*
X109023990Y-86031109D01*
X108150419Y-85607919D02*
X108600800Y-85607919D01*
X110236000Y-88694398D02*
X110640601Y-89098999D01*
X110236000Y-88582500D02*
X110236000Y-88694398D01*
X98361500Y-97345500D02*
X98425000Y-97345500D01*
X98869500Y-96901000D02*
X99885500Y-96901000D01*
X98425000Y-97345500D02*
X98869500Y-96901000D01*
X109605201Y-89098999D02*
X109023991Y-88517789D01*
X109023991Y-88517789D02*
X109023991Y-88342983D01*
%TO.N,/D2*%
X109892400Y-89585800D02*
X110130600Y-89824000D01*
X109029500Y-89585800D02*
X109892400Y-89585800D01*
X108276900Y-85035900D02*
X108448909Y-85207909D01*
X108276900Y-83992300D02*
X108276900Y-85035900D01*
X108766489Y-85207909D02*
X109474000Y-85915420D01*
X108448909Y-85207909D02*
X108766489Y-85207909D01*
X109474000Y-85915420D02*
X109474000Y-86741000D01*
X109474000Y-86309200D02*
X109474000Y-86741000D01*
X109474000Y-88265000D02*
X109537500Y-88328500D01*
X109474000Y-86741000D02*
X109474000Y-88265000D01*
X101066699Y-96100999D02*
X101866700Y-96901000D01*
X98793201Y-96100999D02*
X101066699Y-96100999D01*
X98425000Y-96469200D02*
X98793201Y-96100999D01*
%TO.N,/D11*%
X104776900Y-83992300D02*
X104776900Y-84351500D01*
X104776900Y-83992300D02*
X104776900Y-84046700D01*
%TO.N,/D12*%
X112380620Y-82383198D02*
X112380620Y-84799580D01*
X111648423Y-81651001D02*
X112380620Y-82383198D01*
X110636900Y-81632300D02*
X110655601Y-81651001D01*
X112380620Y-84799580D02*
X112344200Y-84836000D01*
X110655601Y-81651001D02*
X111648423Y-81651001D01*
D28*
X104838500Y-95885000D02*
X103822500Y-96901000D01*
X104838500Y-93472000D02*
X104838500Y-95885000D01*
D27*
%TO.N,VBUS*%
X103916900Y-81132300D02*
X101985700Y-81132300D01*
X101985700Y-81132300D02*
X101757100Y-81132300D01*
X100386260Y-81132300D02*
X101985700Y-81132300D01*
X98816160Y-82702400D02*
X100386260Y-81132300D01*
X100440782Y-77384400D02*
X100548400Y-77384400D01*
X98816160Y-82702400D02*
X98806000Y-82702400D01*
X98806000Y-82702400D02*
X98018600Y-81915000D01*
X92548976Y-78388476D02*
X92590270Y-78347182D01*
X92548976Y-78388476D02*
X92641952Y-78295500D01*
X99808500Y-76644500D02*
X100548400Y-77384400D01*
X96329500Y-78024442D02*
X96329500Y-77001118D01*
X96686118Y-76644500D02*
X99808500Y-76644500D01*
X92123794Y-78813658D02*
X92641952Y-78295500D01*
X96329500Y-77001118D02*
X96686118Y-76644500D01*
X96058442Y-78295500D02*
X96329500Y-78024442D01*
X95186500Y-78295500D02*
X96058442Y-78295500D01*
X91694000Y-78676500D02*
X91831158Y-78813658D01*
X91694000Y-78295500D02*
X91694000Y-78676500D01*
X91831158Y-78813658D02*
X92123794Y-78813658D01*
X92641952Y-78295500D02*
X95186500Y-78295500D01*
X92773500Y-78163952D02*
X92641952Y-78295500D01*
X91269736Y-78295500D02*
X91694000Y-78295500D01*
X90649470Y-78915766D02*
X91269736Y-78295500D01*
X90649470Y-79682310D02*
X90649470Y-78915766D01*
X90194780Y-80137000D02*
X90649470Y-79682310D01*
X89979500Y-80137000D02*
X90194780Y-80137000D01*
X90335000Y-86546500D02*
X90335000Y-87046500D01*
X90335000Y-87696140D02*
X89598500Y-88432640D01*
X90335000Y-87046500D02*
X90335000Y-87696140D01*
X91376500Y-86931500D02*
X91059000Y-86614000D01*
X90402500Y-86614000D02*
X90335000Y-86546500D01*
X91059000Y-86614000D02*
X90402500Y-86614000D01*
D28*
X93258640Y-76770698D02*
X94145449Y-75883889D01*
X94145449Y-75883889D02*
X95058111Y-75883889D01*
X95758000Y-75184000D02*
X96687640Y-75184000D01*
X95058111Y-75883889D02*
X95758000Y-75184000D01*
X92773500Y-78041500D02*
X93281500Y-77533500D01*
X92773500Y-78163952D02*
X92773500Y-78041500D01*
X93281500Y-76793558D02*
X93258640Y-76770698D01*
X93281500Y-77533500D02*
X93281500Y-76793558D01*
D27*
%TO.N,/BAT+*%
X103200200Y-70788400D02*
X101281100Y-72707500D01*
D28*
X101281100Y-72707500D02*
X97640140Y-72707500D01*
D27*
X90930002Y-86046500D02*
X90335000Y-86046500D01*
X90335000Y-85546500D02*
X90335000Y-86046500D01*
X91976501Y-87642139D02*
X91186000Y-88432640D01*
X91537073Y-86204071D02*
X91976501Y-86643499D01*
X91087573Y-86204071D02*
X91537073Y-86204071D01*
X91976501Y-86643499D02*
X91976501Y-87642139D01*
X90930002Y-86046500D02*
X91087573Y-86204071D01*
X90335000Y-84874000D02*
X90335000Y-85546500D01*
D28*
X97640140Y-72707500D02*
X96687640Y-73660000D01*
X90335000Y-84417000D02*
X90614500Y-84137500D01*
X90335000Y-84874000D02*
X90335000Y-84417000D01*
D27*
%TO.N,Net-(D6-Pad2)*%
X87465000Y-85546500D02*
X87727501Y-85283999D01*
D28*
X87752501Y-85258999D02*
X87465000Y-85546500D01*
X88994971Y-85258999D02*
X87752501Y-85258999D01*
X89240360Y-85013610D02*
X88994971Y-85258999D01*
X89240360Y-84264500D02*
X89240360Y-85013610D01*
D27*
%TO.N,/INT*%
X111930600Y-89174000D02*
X111631200Y-88874600D01*
X111930600Y-89824000D02*
X111930600Y-89174000D01*
X111631200Y-88874600D02*
X111226600Y-88874600D01*
X111226600Y-88874600D02*
X110896400Y-88544400D01*
D28*
X109276900Y-84918800D02*
X109232700Y-84963000D01*
X109276900Y-83992300D02*
X109276900Y-84918800D01*
D27*
%TO.N,Net-(Q2-Pad8)*%
X87465000Y-87886640D02*
X88011000Y-88432640D01*
X87465000Y-87046500D02*
X87465000Y-87886640D01*
%TO.N,Net-(R18-Pad1)*%
X111030600Y-91624000D02*
X110833600Y-91821000D01*
X111030600Y-91024000D02*
X111030600Y-91624000D01*
X109433360Y-91821000D02*
X108902500Y-92351860D01*
X110833600Y-91821000D02*
X109433360Y-91821000D01*
%TD*%
M02*
