%TF.GenerationSoftware,KiCad,Pcbnew,(5.1.6)-1*%
%TF.CreationDate,2020-12-06T14:18:51+01:00*%
%TF.ProjectId,Kicad_Smart_Watch,4b696361-645f-4536-9d61-72745f576174,rev?*%
%TF.SameCoordinates,Original*%
%TF.FileFunction,Copper,L2,Bot*%
%TF.FilePolarity,Positive*%
%FSLAX46Y46*%
G04 Gerber Fmt 4.6, Leading zero omitted, Abs format (unit mm)*
G04 Created by KiCad (PCBNEW (5.1.6)-1) date 2020-12-06 14:18:51*
%MOMM*%
%LPD*%
G01*
G04 APERTURE LIST*
%TA.AperFunction,ComponentPad*%
%ADD10C,1.879600*%
%TD*%
%TA.AperFunction,SMDPad,CuDef*%
%ADD11R,1.524000X0.345000*%
%TD*%
%TA.AperFunction,ViaPad*%
%ADD12C,0.600000*%
%TD*%
%TA.AperFunction,Conductor*%
%ADD13C,0.200000*%
%TD*%
%TA.AperFunction,Conductor*%
%ADD14C,0.254000*%
%TD*%
G04 APERTURE END LIST*
D10*
%TO.P,SW1,2*%
%TO.N,GND*%
X109169200Y-95377000D03*
%TO.P,SW1,1*%
%TO.N,/BTN3*%
X111709200Y-95377000D03*
%TD*%
%TO.P,SW3,2*%
%TO.N,GND*%
X91998800Y-95377000D03*
%TO.P,SW3,1*%
%TO.N,/BTN4*%
X94538800Y-95377000D03*
%TD*%
%TO.P,SW4,2*%
%TO.N,GND*%
X111760000Y-72288400D03*
%TO.P,SW4,1*%
%TO.N,/BTN2*%
X109220000Y-72288400D03*
%TD*%
%TO.P,SW2,2*%
%TO.N,GND*%
X92024200Y-72288400D03*
%TO.P,SW2,1*%
%TO.N,/BTN1*%
X94564200Y-72288400D03*
%TD*%
D11*
%TO.P,J3,10*%
%TO.N,/MOSI*%
X95618300Y-83830160D03*
%TO.P,J3,12*%
%TO.N,GND*%
X95618300Y-85211920D03*
%TO.P,J3,9*%
%TO.N,/SCK*%
X95618300Y-83139280D03*
%TO.P,J3,11*%
%TO.N,/D5*%
X95618300Y-84521040D03*
%TO.P,J3,6*%
%TO.N,GND*%
X95618300Y-81066640D03*
%TO.P,J3,8*%
%TO.N,/D12*%
X95618300Y-82448400D03*
%TO.P,J3,5*%
%TO.N,GND*%
X95618300Y-80375760D03*
%TO.P,J3,7*%
%TO.N,/D4*%
X95618300Y-81757520D03*
%TO.P,J3,4*%
%TO.N,3.3V*%
X95618300Y-79682340D03*
%TO.P,J3,3*%
X95618300Y-78991460D03*
%TO.P,J3,2*%
%TO.N,/LEDK*%
X95618300Y-78300580D03*
%TO.P,J3,1*%
%TO.N,GND*%
X95618300Y-77609700D03*
%TD*%
D10*
%TO.P,J1,2*%
%TO.N,GND*%
X103200200Y-72288400D03*
%TO.P,J1,1*%
%TO.N,VCC*%
X100660200Y-72288400D03*
%TD*%
D12*
%TO.N,3.3V*%
X99377500Y-87693500D03*
X110871000Y-93535500D03*
X111760000Y-85471000D03*
X116103400Y-76835000D03*
X112090200Y-75895200D03*
%TO.N,GND*%
X89916000Y-81788000D03*
X92862400Y-86893400D03*
X95377000Y-92456000D03*
X105283000Y-91948000D03*
X106680000Y-88138000D03*
X99669600Y-92989400D03*
X107569000Y-74104500D03*
X100584000Y-74612500D03*
X97713800Y-85801200D03*
X110464600Y-84455000D03*
X112090200Y-77216000D03*
X114249200Y-83235800D03*
X115125500Y-75057000D03*
%TO.N,/BTN1*%
X101396800Y-76631800D03*
%TO.N,VCC*%
X97536000Y-92938600D03*
X91084400Y-78155800D03*
X97993200Y-81889600D03*
X93789500Y-92392500D03*
X94742000Y-87223600D03*
%TO.N,/BTN3*%
X111861600Y-81026000D03*
%TO.N,/BTN4*%
X111836200Y-80162400D03*
%TO.N,/BTN2*%
X112090200Y-79070200D03*
%TO.N,/LEDK*%
X92075000Y-82486500D03*
%TO.N,/D4*%
X111734600Y-84201000D03*
%TO.N,/D5*%
X102044500Y-82296000D03*
X101854000Y-85153500D03*
X112090200Y-78028800D03*
%TO.N,/SCK*%
X103911400Y-92938600D03*
X101854000Y-83947000D03*
%TO.N,/MOSI*%
X101828600Y-92938600D03*
X102438200Y-84505800D03*
%TO.N,/D2*%
X109905800Y-88493600D03*
X109220000Y-89598500D03*
%TO.N,/D11*%
X110947200Y-88468200D03*
X104203500Y-84048600D03*
%TO.N,/D12*%
X106108500Y-92964000D03*
X112344200Y-84836000D03*
%TD*%
D13*
%TO.N,3.3V*%
X112519191Y-91239609D02*
X112519191Y-86103191D01*
X112519191Y-86103191D02*
X111760000Y-85344000D01*
X111429800Y-92329000D02*
X112519191Y-91239609D01*
X112305412Y-75895200D02*
X113245212Y-76835000D01*
X113245212Y-76835000D02*
X116103400Y-76835000D01*
X112090200Y-75895200D02*
X112305412Y-75895200D01*
X95618300Y-79682340D02*
X95618300Y-78991460D01*
X95555477Y-86623599D02*
X93662500Y-84730622D01*
X99174300Y-87706200D02*
X98091699Y-86623599D01*
X98091699Y-86623599D02*
X95555477Y-86623599D01*
X93662500Y-84730622D02*
X93662500Y-80391000D01*
X94371160Y-79682340D02*
X95618300Y-79682340D01*
X93662500Y-80391000D02*
X94371160Y-79682340D01*
X111429800Y-92329000D02*
X111125000Y-92329000D01*
X110871000Y-92583000D02*
X110871000Y-93535500D01*
X111125000Y-92329000D02*
X110871000Y-92583000D01*
%TO.N,GND*%
X97129600Y-85852000D02*
X97764600Y-85852000D01*
X96489520Y-85211920D02*
X97129600Y-85852000D01*
X95618300Y-85211920D02*
X96489520Y-85211920D01*
X96401922Y-77609700D02*
X95618300Y-77609700D01*
X97282000Y-78489778D02*
X96401922Y-77609700D01*
X97282000Y-79674060D02*
X97282000Y-78489778D01*
X96580300Y-80375760D02*
X97282000Y-79674060D01*
X95618300Y-80375760D02*
X96580300Y-80375760D01*
X94834678Y-85211920D02*
X94170500Y-84547742D01*
X95618300Y-85211920D02*
X94834678Y-85211920D01*
X94170500Y-84547742D02*
X94170500Y-80899000D01*
X94693740Y-80375760D02*
X95618300Y-80375760D01*
X94170500Y-80899000D02*
X94693740Y-80375760D01*
%TO.N,/BTN1*%
X101396800Y-76631800D02*
X100126800Y-76631800D01*
X96291400Y-72796400D02*
X94564200Y-72796400D01*
X100126800Y-76631800D02*
X96291400Y-72796400D01*
%TO.N,VCC*%
X91084400Y-78155800D02*
X91084400Y-83413600D01*
X91084400Y-83413600D02*
X94894400Y-87223600D01*
X97993200Y-81889600D02*
X97993200Y-78465098D01*
X92128001Y-77112199D02*
X91084400Y-78155800D01*
X97993200Y-78465098D02*
X96640301Y-77112199D01*
X96640301Y-77112199D02*
X92128001Y-77112199D01*
X94742000Y-91287600D02*
X94742000Y-87376000D01*
X94742000Y-87376000D02*
X94894400Y-87223600D01*
X93700600Y-92329000D02*
X94742000Y-91287600D01*
X94635599Y-93238599D02*
X93789500Y-92392500D01*
X97236001Y-93238599D02*
X94635599Y-93238599D01*
X97536000Y-92938600D02*
X97236001Y-93238599D01*
%TO.N,/BTN3*%
X112969201Y-94624999D02*
X112969201Y-84495801D01*
X111861600Y-83388200D02*
X111861600Y-81026000D01*
X112969201Y-84495801D02*
X111861600Y-83388200D01*
X111709200Y-95885000D02*
X112969201Y-94624999D01*
%TO.N,/BTN4*%
X112486601Y-81326001D02*
X112318800Y-81493802D01*
X112486601Y-80725999D02*
X112486601Y-81326001D01*
X112318800Y-81493802D02*
X112318800Y-83208990D01*
X111923002Y-80162400D02*
X112486601Y-80725999D01*
X111836200Y-80162400D02*
X111923002Y-80162400D01*
X113419210Y-84309400D02*
X112318800Y-83208990D01*
X112316305Y-96641801D02*
X113419210Y-95538896D01*
X107264200Y-95377000D02*
X108529001Y-96641801D01*
X94538800Y-95377000D02*
X107264200Y-95377000D01*
X113419210Y-95538896D02*
X113419210Y-84309400D01*
X108529001Y-96641801D02*
X112316305Y-96641801D01*
%TO.N,/BTN2*%
X112090200Y-79070200D02*
X112715201Y-78445199D01*
X112715201Y-78445199D02*
X112715201Y-76941399D01*
X112715201Y-76941399D02*
X112294003Y-76520201D01*
X112294003Y-76520201D02*
X111790199Y-76520201D01*
X111790199Y-76520201D02*
X111465199Y-76195201D01*
X111465199Y-75041599D02*
X109220000Y-72796400D01*
X111465199Y-76195201D02*
X111465199Y-75041599D01*
%TO.N,/LEDK*%
X92303600Y-79425800D02*
X93428820Y-78300580D01*
X93428820Y-78300580D02*
X95618300Y-78300580D01*
X92303600Y-82321400D02*
X92303600Y-79425800D01*
%TO.N,/D4*%
X97586800Y-82897398D02*
X110430998Y-82897398D01*
X110430998Y-82897398D02*
X111734600Y-84201000D01*
X97586800Y-82897398D02*
X96446922Y-81757520D01*
X96446922Y-81757520D02*
X95618300Y-81757520D01*
%TO.N,/D5*%
X110972600Y-79146400D02*
X112090200Y-78028800D01*
X110972600Y-81381600D02*
X110972600Y-79146400D01*
X96555862Y-84521040D02*
X97201022Y-85166200D01*
X101803200Y-85166200D02*
X101854000Y-85115400D01*
X95618300Y-84521040D02*
X96555862Y-84521040D01*
X97201022Y-85166200D02*
X101803200Y-85166200D01*
X102468764Y-82296000D02*
X102670152Y-82497388D01*
X102044500Y-82296000D02*
X102468764Y-82296000D01*
X102670152Y-82497388D02*
X109856812Y-82497388D01*
X109956600Y-82397600D02*
X110051850Y-82302350D01*
X109856812Y-82497388D02*
X110051850Y-82302350D01*
X110051850Y-82302350D02*
X110972600Y-81381600D01*
%TO.N,/SCK*%
X103098600Y-92049600D02*
X103911400Y-92862400D01*
X103098600Y-84241198D02*
X103098600Y-92049600D01*
X102122798Y-83896200D02*
X102138199Y-83880799D01*
X101854000Y-83896200D02*
X102122798Y-83896200D01*
X102738201Y-83880799D02*
X103098600Y-84241198D01*
X102138199Y-83880799D02*
X102738201Y-83880799D01*
X96446922Y-83139280D02*
X97254642Y-83947000D01*
X95618300Y-83139280D02*
X96446922Y-83139280D01*
X97254642Y-83947000D02*
X101803200Y-83947000D01*
X101803200Y-83947000D02*
X101854000Y-83896200D01*
%TO.N,/MOSI*%
X102648590Y-92236000D02*
X101828600Y-93055990D01*
X102438200Y-84759800D02*
X102648590Y-84970190D01*
X102438200Y-84505800D02*
X102438200Y-84759800D01*
X102648590Y-84970190D02*
X102648590Y-92236000D01*
X102438200Y-84505800D02*
X102371999Y-84572001D01*
X102371999Y-84572001D02*
X97243233Y-84572001D01*
X97243233Y-84572001D02*
X96501392Y-83830160D01*
X96501392Y-83830160D02*
X95618300Y-83830160D01*
%TO.N,/D2*%
X109220000Y-89179400D02*
X109905800Y-88493600D01*
X109220000Y-89598500D02*
X109220000Y-89179400D01*
%TO.N,/D11*%
X109575600Y-86512400D02*
X110947200Y-87884000D01*
X110947200Y-87884000D02*
X110947200Y-88468200D01*
X106603800Y-86512400D02*
X109575600Y-86512400D01*
X104140000Y-84048600D02*
X106603800Y-86512400D01*
%TO.N,/D12*%
X110244598Y-83347408D02*
X103037793Y-83347407D01*
X103037793Y-83347407D02*
X103037793Y-83543981D01*
X103037793Y-83347407D02*
X97400399Y-83347407D01*
X103037793Y-83543981D02*
X103548610Y-84054798D01*
X111109599Y-84212409D02*
X110244598Y-83347408D01*
X111109599Y-84464999D02*
X111109599Y-84212409D01*
X112344200Y-84836000D02*
X111480600Y-84836000D01*
X111480600Y-84836000D02*
X111109599Y-84464999D01*
X97400399Y-83347407D02*
X96501392Y-82448400D01*
X96501392Y-82448400D02*
X95618300Y-82448400D01*
X103548610Y-84054798D02*
X103548610Y-91863200D01*
X103548610Y-91863200D02*
X103548610Y-91898556D01*
X104839498Y-92964000D02*
X106108500Y-92964000D01*
X103988653Y-92338599D02*
X104214097Y-92338599D01*
X104214097Y-92338599D02*
X104839498Y-92964000D01*
X103548610Y-91898556D02*
X103988653Y-92338599D01*
%TD*%
D14*
%TO.N,GND*%
G36*
X91611316Y-70764569D02*
G01*
X91359114Y-70852535D01*
X91199823Y-70937677D01*
X91111329Y-71195924D01*
X92024200Y-72108795D01*
X92937071Y-71195924D01*
X92848577Y-70937677D01*
X92569224Y-70802803D01*
X92422127Y-70764702D01*
X102782065Y-70766400D01*
X102535114Y-70852535D01*
X102375823Y-70937677D01*
X102287329Y-71195924D01*
X103200200Y-72108795D01*
X104113071Y-71195924D01*
X104024577Y-70937677D01*
X103745224Y-70802803D01*
X103605206Y-70766535D01*
X111337843Y-70767803D01*
X111094914Y-70852535D01*
X110935623Y-70937677D01*
X110847129Y-71195924D01*
X111760000Y-72108795D01*
X112672871Y-71195924D01*
X112584377Y-70937677D01*
X112305024Y-70802803D01*
X112170428Y-70767940D01*
X115683787Y-70768516D01*
X115998470Y-70822224D01*
X116294829Y-70935308D01*
X116563572Y-71103796D01*
X116794477Y-71321280D01*
X116978737Y-71579465D01*
X117109343Y-71868531D01*
X117181873Y-72179859D01*
X117196000Y-72394973D01*
X117192452Y-90245847D01*
X117170230Y-95095819D01*
X117098727Y-95787016D01*
X116344345Y-96674523D01*
X116304967Y-96699596D01*
X116171385Y-96751639D01*
X115380270Y-96855733D01*
X115025970Y-96875979D01*
X112686092Y-96875882D01*
X113706322Y-95855654D01*
X113722605Y-95842291D01*
X113735969Y-95826007D01*
X113735978Y-95825998D01*
X113775965Y-95777273D01*
X113806822Y-95719543D01*
X113815615Y-95703092D01*
X113840032Y-95622603D01*
X113846210Y-95559874D01*
X113846210Y-95559864D01*
X113848275Y-95538897D01*
X113846210Y-95517930D01*
X113846210Y-94987377D01*
X114066000Y-94987377D01*
X114066000Y-95258623D01*
X114118917Y-95524656D01*
X114222718Y-95775254D01*
X114373414Y-96000787D01*
X114565213Y-96192586D01*
X114790746Y-96343282D01*
X115041344Y-96447083D01*
X115307377Y-96500000D01*
X115578623Y-96500000D01*
X115844656Y-96447083D01*
X116095254Y-96343282D01*
X116320787Y-96192586D01*
X116512586Y-96000787D01*
X116663282Y-95775254D01*
X116767083Y-95524656D01*
X116820000Y-95258623D01*
X116820000Y-94987377D01*
X116767083Y-94721344D01*
X116663282Y-94470746D01*
X116512586Y-94245213D01*
X116320787Y-94053414D01*
X116095254Y-93902718D01*
X115844656Y-93798917D01*
X115578623Y-93746000D01*
X115307377Y-93746000D01*
X115041344Y-93798917D01*
X114790746Y-93902718D01*
X114565213Y-94053414D01*
X114373414Y-94245213D01*
X114222718Y-94470746D01*
X114118917Y-94721344D01*
X114066000Y-94987377D01*
X113846210Y-94987377D01*
X113846210Y-84330367D01*
X113848275Y-84309400D01*
X113846210Y-84288433D01*
X113846210Y-84288422D01*
X113840032Y-84225693D01*
X113815615Y-84145204D01*
X113801702Y-84119175D01*
X113775966Y-84071023D01*
X113735978Y-84022299D01*
X113735974Y-84022295D01*
X113722605Y-84006005D01*
X113706315Y-83992636D01*
X112745800Y-83032122D01*
X112745800Y-81670670D01*
X112773701Y-81642769D01*
X112789996Y-81629396D01*
X112843356Y-81564377D01*
X112883006Y-81490197D01*
X112907423Y-81409708D01*
X112913601Y-81346979D01*
X112913601Y-81346967D01*
X112915666Y-81326002D01*
X112913601Y-81305037D01*
X112913601Y-80746963D01*
X112915666Y-80725998D01*
X112913601Y-80705033D01*
X112913601Y-80705021D01*
X112907423Y-80642292D01*
X112883006Y-80561803D01*
X112843357Y-80487624D01*
X112843356Y-80487622D01*
X112803369Y-80438897D01*
X112803360Y-80438888D01*
X112789996Y-80422604D01*
X112773713Y-80409241D01*
X112462724Y-80098253D01*
X112439105Y-79979511D01*
X112391840Y-79865404D01*
X112323223Y-79762711D01*
X112240166Y-79679654D01*
X112273089Y-79673105D01*
X112387196Y-79625840D01*
X112489889Y-79557223D01*
X112577223Y-79469889D01*
X112645840Y-79367196D01*
X112693105Y-79253089D01*
X112717200Y-79131954D01*
X112717200Y-79047069D01*
X113002307Y-78761962D01*
X113018596Y-78748594D01*
X113031965Y-78732304D01*
X113031969Y-78732300D01*
X113071956Y-78683576D01*
X113097166Y-78636410D01*
X113111606Y-78609395D01*
X113136023Y-78528906D01*
X113142201Y-78466177D01*
X113142201Y-78466166D01*
X113144266Y-78445199D01*
X113142201Y-78424232D01*
X113142201Y-77249966D01*
X113161505Y-77255822D01*
X113224234Y-77262000D01*
X113224245Y-77262000D01*
X113245212Y-77264065D01*
X113266179Y-77262000D01*
X115643688Y-77262000D01*
X115703711Y-77322023D01*
X115806404Y-77390640D01*
X115920511Y-77437905D01*
X116041646Y-77462000D01*
X116165154Y-77462000D01*
X116286289Y-77437905D01*
X116400396Y-77390640D01*
X116503089Y-77322023D01*
X116590423Y-77234689D01*
X116659040Y-77131996D01*
X116706305Y-77017889D01*
X116730400Y-76896754D01*
X116730400Y-76773246D01*
X116706305Y-76652111D01*
X116659040Y-76538004D01*
X116590423Y-76435311D01*
X116503089Y-76347977D01*
X116400396Y-76279360D01*
X116286289Y-76232095D01*
X116165154Y-76208000D01*
X116041646Y-76208000D01*
X115920511Y-76232095D01*
X115806404Y-76279360D01*
X115703711Y-76347977D01*
X115643688Y-76408000D01*
X113422081Y-76408000D01*
X112669568Y-75655488D01*
X112645840Y-75598204D01*
X112577223Y-75495511D01*
X112489889Y-75408177D01*
X112387196Y-75339560D01*
X112273089Y-75292295D01*
X112151954Y-75268200D01*
X112028446Y-75268200D01*
X111907311Y-75292295D01*
X111892199Y-75298555D01*
X111892199Y-75062566D01*
X111894264Y-75041599D01*
X111892199Y-75020632D01*
X111892199Y-75020621D01*
X111886021Y-74957892D01*
X111861604Y-74877403D01*
X111843147Y-74842872D01*
X111821954Y-74803222D01*
X111781967Y-74754498D01*
X111781963Y-74754494D01*
X111768594Y-74738204D01*
X111752304Y-74724835D01*
X110408345Y-73380876D01*
X110847129Y-73380876D01*
X110935623Y-73639123D01*
X111214976Y-73773997D01*
X111515275Y-73851781D01*
X111824977Y-73869484D01*
X112132184Y-73826427D01*
X112425086Y-73724265D01*
X112584377Y-73639123D01*
X112672871Y-73380876D01*
X111760000Y-72468005D01*
X110847129Y-73380876D01*
X110408345Y-73380876D01*
X110163697Y-73136229D01*
X110203988Y-73095938D01*
X110315573Y-72928939D01*
X110324135Y-72953486D01*
X110409277Y-73112777D01*
X110667524Y-73201271D01*
X111580395Y-72288400D01*
X111939605Y-72288400D01*
X112852476Y-73201271D01*
X113110723Y-73112777D01*
X113245597Y-72833424D01*
X113323381Y-72533125D01*
X113329151Y-72432177D01*
X114066000Y-72432177D01*
X114066000Y-72703423D01*
X114118917Y-72969456D01*
X114222718Y-73220054D01*
X114373414Y-73445587D01*
X114565213Y-73637386D01*
X114790746Y-73788082D01*
X115041344Y-73891883D01*
X115307377Y-73944800D01*
X115578623Y-73944800D01*
X115844656Y-73891883D01*
X116095254Y-73788082D01*
X116320787Y-73637386D01*
X116512586Y-73445587D01*
X116663282Y-73220054D01*
X116767083Y-72969456D01*
X116820000Y-72703423D01*
X116820000Y-72432177D01*
X116767083Y-72166144D01*
X116663282Y-71915546D01*
X116512586Y-71690013D01*
X116320787Y-71498214D01*
X116095254Y-71347518D01*
X115844656Y-71243717D01*
X115578623Y-71190800D01*
X115307377Y-71190800D01*
X115041344Y-71243717D01*
X114790746Y-71347518D01*
X114565213Y-71498214D01*
X114373414Y-71690013D01*
X114222718Y-71915546D01*
X114118917Y-72166144D01*
X114066000Y-72432177D01*
X113329151Y-72432177D01*
X113341084Y-72223423D01*
X113298027Y-71916216D01*
X113195865Y-71623314D01*
X113110723Y-71464023D01*
X112852476Y-71375529D01*
X111939605Y-72288400D01*
X111580395Y-72288400D01*
X110667524Y-71375529D01*
X110409277Y-71464023D01*
X110318444Y-71652157D01*
X110203988Y-71480862D01*
X110027538Y-71304412D01*
X109820055Y-71165776D01*
X109589512Y-71070282D01*
X109344769Y-71021600D01*
X109095231Y-71021600D01*
X108850488Y-71070282D01*
X108619945Y-71165776D01*
X108412462Y-71304412D01*
X108236012Y-71480862D01*
X108097376Y-71688345D01*
X108001882Y-71918888D01*
X107953200Y-72163631D01*
X107953200Y-72413169D01*
X108001882Y-72657912D01*
X108097376Y-72888455D01*
X108236012Y-73095938D01*
X108412462Y-73272388D01*
X108619945Y-73411024D01*
X108850488Y-73506518D01*
X109095231Y-73555200D01*
X109344769Y-73555200D01*
X109369928Y-73550196D01*
X111038200Y-75218469D01*
X111038199Y-76174234D01*
X111036134Y-76195201D01*
X111038199Y-76216168D01*
X111038199Y-76216178D01*
X111044377Y-76278907D01*
X111068794Y-76359396D01*
X111068795Y-76359397D01*
X111108444Y-76433577D01*
X111148431Y-76482301D01*
X111161804Y-76498596D01*
X111178099Y-76511969D01*
X111473435Y-76807306D01*
X111486804Y-76823596D01*
X111503094Y-76836965D01*
X111503097Y-76836968D01*
X111551822Y-76876956D01*
X111588862Y-76896754D01*
X111626003Y-76916606D01*
X111706492Y-76941023D01*
X111769221Y-76947201D01*
X111769233Y-76947201D01*
X111790198Y-76949266D01*
X111811163Y-76947201D01*
X112117135Y-76947201D01*
X112288202Y-77118269D01*
X112288202Y-77432155D01*
X112273089Y-77425895D01*
X112151954Y-77401800D01*
X112028446Y-77401800D01*
X111907311Y-77425895D01*
X111793204Y-77473160D01*
X111690511Y-77541777D01*
X111603177Y-77629111D01*
X111534560Y-77731804D01*
X111487295Y-77845911D01*
X111463200Y-77967046D01*
X111463200Y-78051931D01*
X110685495Y-78829637D01*
X110669206Y-78843005D01*
X110655837Y-78859295D01*
X110655832Y-78859300D01*
X110615845Y-78908024D01*
X110576196Y-78982204D01*
X110551779Y-79062693D01*
X110551040Y-79070200D01*
X110543535Y-79146400D01*
X110545601Y-79167377D01*
X110545600Y-81204730D01*
X109764754Y-81985578D01*
X109764749Y-81985582D01*
X109679943Y-82070388D01*
X102847020Y-82070388D01*
X102785532Y-82008900D01*
X102772159Y-81992605D01*
X102707140Y-81939245D01*
X102632960Y-81899595D01*
X102552471Y-81875178D01*
X102505793Y-81870581D01*
X102444189Y-81808977D01*
X102341496Y-81740360D01*
X102227389Y-81693095D01*
X102106254Y-81669000D01*
X101982746Y-81669000D01*
X101861611Y-81693095D01*
X101747504Y-81740360D01*
X101644811Y-81808977D01*
X101557477Y-81896311D01*
X101488860Y-81999004D01*
X101441595Y-82113111D01*
X101417500Y-82234246D01*
X101417500Y-82357754D01*
X101439906Y-82470398D01*
X98229460Y-82470398D01*
X98290196Y-82445240D01*
X98392889Y-82376623D01*
X98480223Y-82289289D01*
X98548840Y-82186596D01*
X98596105Y-82072489D01*
X98620200Y-81951354D01*
X98620200Y-81827846D01*
X98596105Y-81706711D01*
X98548840Y-81592604D01*
X98480223Y-81489911D01*
X98420200Y-81429888D01*
X98420200Y-78486064D01*
X98422265Y-78465097D01*
X98420200Y-78444130D01*
X98420200Y-78444120D01*
X98414022Y-78381391D01*
X98389605Y-78300902D01*
X98357037Y-78239971D01*
X98349955Y-78226721D01*
X98309968Y-78177997D01*
X98309964Y-78177993D01*
X98296595Y-78161703D01*
X98280305Y-78148334D01*
X96957069Y-76825099D01*
X96943696Y-76808804D01*
X96878677Y-76755444D01*
X96804497Y-76715794D01*
X96724008Y-76691377D01*
X96661279Y-76685199D01*
X96661268Y-76685199D01*
X96640301Y-76683134D01*
X96619334Y-76685199D01*
X92148968Y-76685199D01*
X92128001Y-76683134D01*
X92107034Y-76685199D01*
X92107023Y-76685199D01*
X92044294Y-76691377D01*
X91963805Y-76715794D01*
X91946539Y-76725023D01*
X91889624Y-76755443D01*
X91840900Y-76795431D01*
X91840896Y-76795435D01*
X91824606Y-76808804D01*
X91811237Y-76825094D01*
X91107532Y-77528800D01*
X91022646Y-77528800D01*
X90901511Y-77552895D01*
X90787404Y-77600160D01*
X90684711Y-77668777D01*
X90597377Y-77756111D01*
X90528760Y-77858804D01*
X90481495Y-77972911D01*
X90457400Y-78094046D01*
X90457400Y-78217554D01*
X90481495Y-78338689D01*
X90528760Y-78452796D01*
X90597377Y-78555489D01*
X90657400Y-78615512D01*
X90657401Y-83392623D01*
X90655335Y-83413600D01*
X90657401Y-83434577D01*
X90657401Y-83434578D01*
X90663579Y-83497307D01*
X90684102Y-83564959D01*
X90687996Y-83577796D01*
X90727645Y-83651976D01*
X90767632Y-83700700D01*
X90767637Y-83700705D01*
X90781006Y-83716995D01*
X90797296Y-83730364D01*
X94133877Y-87066946D01*
X94115000Y-87161846D01*
X94115000Y-87285354D01*
X94139095Y-87406489D01*
X94186360Y-87520596D01*
X94254977Y-87623289D01*
X94315001Y-87683313D01*
X94315000Y-91110731D01*
X93643468Y-91782264D01*
X93606611Y-91789595D01*
X93492504Y-91836860D01*
X93389811Y-91905477D01*
X93302477Y-91992811D01*
X93233860Y-92095504D01*
X93186595Y-92209611D01*
X93162500Y-92330746D01*
X93162500Y-92454254D01*
X93186595Y-92575389D01*
X93233860Y-92689496D01*
X93302477Y-92792189D01*
X93389811Y-92879523D01*
X93492504Y-92948140D01*
X93606611Y-92995405D01*
X93727746Y-93019500D01*
X93812632Y-93019500D01*
X94318835Y-93525704D01*
X94332204Y-93541994D01*
X94348494Y-93555363D01*
X94348498Y-93555367D01*
X94397222Y-93595355D01*
X94454137Y-93625775D01*
X94471403Y-93635004D01*
X94551892Y-93659421D01*
X94614621Y-93665599D01*
X94614632Y-93665599D01*
X94635599Y-93667664D01*
X94656566Y-93665599D01*
X97215034Y-93665599D01*
X97236001Y-93667664D01*
X97256968Y-93665599D01*
X97256979Y-93665599D01*
X97319708Y-93659421D01*
X97400197Y-93635004D01*
X97474377Y-93595354D01*
X97510632Y-93565600D01*
X97597754Y-93565600D01*
X97718889Y-93541505D01*
X97832996Y-93494240D01*
X97935689Y-93425623D01*
X98023023Y-93338289D01*
X98091640Y-93235596D01*
X98138905Y-93121489D01*
X98163000Y-93000354D01*
X98163000Y-92876846D01*
X98138905Y-92755711D01*
X98091640Y-92641604D01*
X98023023Y-92538911D01*
X97935689Y-92451577D01*
X97832996Y-92382960D01*
X97718889Y-92335695D01*
X97597754Y-92311600D01*
X97474246Y-92311600D01*
X97353111Y-92335695D01*
X97239004Y-92382960D01*
X97136311Y-92451577D01*
X97048977Y-92538911D01*
X96980360Y-92641604D01*
X96933095Y-92755711D01*
X96921978Y-92811599D01*
X94812468Y-92811599D01*
X94416500Y-92415632D01*
X94416500Y-92330746D01*
X94397623Y-92235845D01*
X95029106Y-91604363D01*
X95045395Y-91590995D01*
X95058764Y-91574705D01*
X95058768Y-91574701D01*
X95098755Y-91525977D01*
X95138404Y-91451797D01*
X95138405Y-91451796D01*
X95162822Y-91371307D01*
X95169000Y-91308578D01*
X95169000Y-91308568D01*
X95171065Y-91287601D01*
X95169000Y-91266634D01*
X95169000Y-87683312D01*
X95229023Y-87623289D01*
X95297640Y-87520596D01*
X95344905Y-87406489D01*
X95369000Y-87285354D01*
X95369000Y-87161846D01*
X95344905Y-87040711D01*
X95320702Y-86982280D01*
X95374015Y-87010775D01*
X95391281Y-87020004D01*
X95471770Y-87044421D01*
X95534499Y-87050599D01*
X95534510Y-87050599D01*
X95555477Y-87052664D01*
X95576444Y-87050599D01*
X97914831Y-87050599D01*
X98798619Y-87934388D01*
X98821860Y-87990496D01*
X98890477Y-88093189D01*
X98977811Y-88180523D01*
X99080504Y-88249140D01*
X99194611Y-88296405D01*
X99315746Y-88320500D01*
X99439254Y-88320500D01*
X99560389Y-88296405D01*
X99674496Y-88249140D01*
X99777189Y-88180523D01*
X99864523Y-88093189D01*
X99933140Y-87990496D01*
X99980405Y-87876389D01*
X100004500Y-87755254D01*
X100004500Y-87631746D01*
X99980405Y-87510611D01*
X99933140Y-87396504D01*
X99864523Y-87293811D01*
X99777189Y-87206477D01*
X99674496Y-87137860D01*
X99560389Y-87090595D01*
X99439254Y-87066500D01*
X99315746Y-87066500D01*
X99194611Y-87090595D01*
X99171950Y-87099981D01*
X98408466Y-86336498D01*
X98395094Y-86320204D01*
X98330075Y-86266844D01*
X98255895Y-86227194D01*
X98175406Y-86202777D01*
X98112677Y-86196599D01*
X98112666Y-86196599D01*
X98091699Y-86194534D01*
X98070732Y-86196599D01*
X95732346Y-86196599D01*
X95443858Y-85908112D01*
X95491300Y-85860670D01*
X95491300Y-85257420D01*
X95471300Y-85257420D01*
X95471300Y-85166420D01*
X95491300Y-85166420D01*
X95491300Y-85064920D01*
X95745300Y-85064920D01*
X95745300Y-85166420D01*
X95765300Y-85166420D01*
X95765300Y-85257420D01*
X95745300Y-85257420D01*
X95745300Y-85860670D01*
X95904050Y-86019420D01*
X96370918Y-86022423D01*
X96495566Y-86011994D01*
X96615785Y-85977448D01*
X96726954Y-85920113D01*
X96824802Y-85842191D01*
X96905568Y-85746677D01*
X96966147Y-85637241D01*
X96996823Y-85541223D01*
X97002295Y-85544148D01*
X97036826Y-85562605D01*
X97117315Y-85587022D01*
X97180044Y-85593200D01*
X97180054Y-85593200D01*
X97201021Y-85595265D01*
X97221988Y-85593200D01*
X101406988Y-85593200D01*
X101454311Y-85640523D01*
X101557004Y-85709140D01*
X101671111Y-85756405D01*
X101792246Y-85780500D01*
X101915754Y-85780500D01*
X102036889Y-85756405D01*
X102150996Y-85709140D01*
X102221590Y-85661971D01*
X102221591Y-92059130D01*
X101956053Y-92324668D01*
X101890354Y-92311600D01*
X101766846Y-92311600D01*
X101645711Y-92335695D01*
X101531604Y-92382960D01*
X101428911Y-92451577D01*
X101341577Y-92538911D01*
X101272960Y-92641604D01*
X101225695Y-92755711D01*
X101201600Y-92876846D01*
X101201600Y-93000354D01*
X101225695Y-93121489D01*
X101272960Y-93235596D01*
X101341577Y-93338289D01*
X101428911Y-93425623D01*
X101531604Y-93494240D01*
X101645711Y-93541505D01*
X101766846Y-93565600D01*
X101890354Y-93565600D01*
X102011489Y-93541505D01*
X102125596Y-93494240D01*
X102228289Y-93425623D01*
X102315623Y-93338289D01*
X102384240Y-93235596D01*
X102431505Y-93121489D01*
X102447529Y-93040929D01*
X102935695Y-92552764D01*
X102951985Y-92539395D01*
X102965354Y-92523105D01*
X102965358Y-92523101D01*
X102966654Y-92521522D01*
X103290634Y-92845503D01*
X103284400Y-92876846D01*
X103284400Y-93000354D01*
X103308495Y-93121489D01*
X103355760Y-93235596D01*
X103424377Y-93338289D01*
X103511711Y-93425623D01*
X103614404Y-93494240D01*
X103728511Y-93541505D01*
X103849646Y-93565600D01*
X103973154Y-93565600D01*
X104094289Y-93541505D01*
X104208396Y-93494240D01*
X104311089Y-93425623D01*
X104398423Y-93338289D01*
X104467040Y-93235596D01*
X104478810Y-93207181D01*
X104522734Y-93251105D01*
X104536103Y-93267395D01*
X104552393Y-93280764D01*
X104552397Y-93280768D01*
X104601121Y-93320756D01*
X104675301Y-93360405D01*
X104686127Y-93363689D01*
X104755791Y-93384822D01*
X104818520Y-93391000D01*
X104818531Y-93391000D01*
X104839498Y-93393065D01*
X104860465Y-93391000D01*
X105648788Y-93391000D01*
X105708811Y-93451023D01*
X105811504Y-93519640D01*
X105925611Y-93566905D01*
X106046746Y-93591000D01*
X106170254Y-93591000D01*
X106291389Y-93566905D01*
X106405496Y-93519640D01*
X106508189Y-93451023D01*
X106595523Y-93363689D01*
X106664140Y-93260996D01*
X106711405Y-93146889D01*
X106735500Y-93025754D01*
X106735500Y-92902246D01*
X106711405Y-92781111D01*
X106664140Y-92667004D01*
X106595523Y-92564311D01*
X106508189Y-92476977D01*
X106405496Y-92408360D01*
X106291389Y-92361095D01*
X106170254Y-92337000D01*
X106046746Y-92337000D01*
X105925611Y-92361095D01*
X105811504Y-92408360D01*
X105708811Y-92476977D01*
X105648788Y-92537000D01*
X105016367Y-92537000D01*
X104530864Y-92051498D01*
X104517492Y-92035204D01*
X104452473Y-91981844D01*
X104378293Y-91942194D01*
X104297804Y-91917777D01*
X104235075Y-91911599D01*
X104235064Y-91911599D01*
X104214097Y-91909534D01*
X104193130Y-91911599D01*
X104165522Y-91911599D01*
X103975610Y-91721688D01*
X103975610Y-84632865D01*
X104020611Y-84651505D01*
X104141746Y-84675600D01*
X104163132Y-84675600D01*
X106287041Y-86799511D01*
X106300405Y-86815795D01*
X106316689Y-86829159D01*
X106316698Y-86829168D01*
X106365423Y-86869155D01*
X106405073Y-86890348D01*
X106439604Y-86908805D01*
X106520093Y-86933222D01*
X106582822Y-86939400D01*
X106582834Y-86939400D01*
X106603799Y-86941465D01*
X106624764Y-86939400D01*
X109398732Y-86939400D01*
X110494009Y-88034679D01*
X110460177Y-88068511D01*
X110418014Y-88131612D01*
X110392823Y-88093911D01*
X110305489Y-88006577D01*
X110202796Y-87937960D01*
X110088689Y-87890695D01*
X109967554Y-87866600D01*
X109844046Y-87866600D01*
X109722911Y-87890695D01*
X109608804Y-87937960D01*
X109506111Y-88006577D01*
X109418777Y-88093911D01*
X109350160Y-88196604D01*
X109302895Y-88310711D01*
X109278800Y-88431846D01*
X109278800Y-88516731D01*
X108932895Y-88862637D01*
X108916606Y-88876005D01*
X108903237Y-88892295D01*
X108903232Y-88892300D01*
X108863245Y-88941024D01*
X108834077Y-88995595D01*
X108823596Y-89015204D01*
X108799179Y-89095693D01*
X108795145Y-89136643D01*
X108732977Y-89198811D01*
X108664360Y-89301504D01*
X108617095Y-89415611D01*
X108593000Y-89536746D01*
X108593000Y-89660254D01*
X108617095Y-89781389D01*
X108664360Y-89895496D01*
X108732977Y-89998189D01*
X108820311Y-90085523D01*
X108923004Y-90154140D01*
X109037111Y-90201405D01*
X109158246Y-90225500D01*
X109281754Y-90225500D01*
X109402889Y-90201405D01*
X109516996Y-90154140D01*
X109619689Y-90085523D01*
X109707023Y-89998189D01*
X109775640Y-89895496D01*
X109822905Y-89781389D01*
X109847000Y-89660254D01*
X109847000Y-89536746D01*
X109822905Y-89415611D01*
X109775640Y-89301504D01*
X109746050Y-89257219D01*
X109882669Y-89120600D01*
X109967554Y-89120600D01*
X110088689Y-89096505D01*
X110202796Y-89049240D01*
X110305489Y-88980623D01*
X110392823Y-88893289D01*
X110434986Y-88830188D01*
X110460177Y-88867889D01*
X110547511Y-88955223D01*
X110650204Y-89023840D01*
X110764311Y-89071105D01*
X110885446Y-89095200D01*
X111008954Y-89095200D01*
X111130089Y-89071105D01*
X111244196Y-89023840D01*
X111346889Y-88955223D01*
X111434223Y-88867889D01*
X111502840Y-88765196D01*
X111550105Y-88651089D01*
X111574200Y-88529954D01*
X111574200Y-88406446D01*
X111550105Y-88285311D01*
X111502840Y-88171204D01*
X111434223Y-88068511D01*
X111374200Y-88008488D01*
X111374200Y-87904964D01*
X111376265Y-87883999D01*
X111374200Y-87863034D01*
X111374200Y-87863022D01*
X111368022Y-87800293D01*
X111343605Y-87719804D01*
X111322006Y-87679395D01*
X111303955Y-87645623D01*
X111263968Y-87596898D01*
X111263959Y-87596889D01*
X111250595Y-87580605D01*
X111234312Y-87567242D01*
X109892366Y-86225298D01*
X109878995Y-86209005D01*
X109813976Y-86155645D01*
X109739796Y-86115995D01*
X109659307Y-86091578D01*
X109596578Y-86085400D01*
X109596567Y-86085400D01*
X109575600Y-86083335D01*
X109554633Y-86085400D01*
X106780670Y-86085400D01*
X104826373Y-84131104D01*
X104830500Y-84110354D01*
X104830500Y-83986846D01*
X104806405Y-83865711D01*
X104768585Y-83774406D01*
X110067730Y-83774408D01*
X110682599Y-84389279D01*
X110682599Y-84444032D01*
X110680534Y-84464999D01*
X110682599Y-84485966D01*
X110682599Y-84485976D01*
X110688777Y-84548705D01*
X110713194Y-84629194D01*
X110727366Y-84655708D01*
X110752844Y-84703375D01*
X110792831Y-84752099D01*
X110806204Y-84768394D01*
X110822499Y-84781767D01*
X111163836Y-85123105D01*
X111177205Y-85139395D01*
X111193495Y-85152764D01*
X111193499Y-85152768D01*
X111209678Y-85166046D01*
X111204360Y-85174004D01*
X111157095Y-85288111D01*
X111133000Y-85409246D01*
X111133000Y-85532754D01*
X111157095Y-85653889D01*
X111204360Y-85767996D01*
X111272977Y-85870689D01*
X111360311Y-85958023D01*
X111463004Y-86026640D01*
X111577111Y-86073905D01*
X111698246Y-86098000D01*
X111821754Y-86098000D01*
X111895468Y-86083337D01*
X112092192Y-86280062D01*
X112092191Y-91062740D01*
X111252932Y-91902000D01*
X111145964Y-91902000D01*
X111124999Y-91899935D01*
X111104034Y-91902000D01*
X111104022Y-91902000D01*
X111041293Y-91908178D01*
X110960804Y-91932595D01*
X110942846Y-91942194D01*
X110886623Y-91972245D01*
X110837899Y-92012232D01*
X110837895Y-92012236D01*
X110821605Y-92025605D01*
X110808236Y-92041895D01*
X110583900Y-92266232D01*
X110567605Y-92279605D01*
X110554233Y-92295899D01*
X110554232Y-92295900D01*
X110514245Y-92344624D01*
X110493755Y-92382960D01*
X110474595Y-92418805D01*
X110450178Y-92499294D01*
X110444000Y-92562023D01*
X110444000Y-92562033D01*
X110441935Y-92583000D01*
X110444000Y-92603968D01*
X110444001Y-93075787D01*
X110383977Y-93135811D01*
X110315360Y-93238504D01*
X110268095Y-93352611D01*
X110244000Y-93473746D01*
X110244000Y-93597254D01*
X110268095Y-93718389D01*
X110315360Y-93832496D01*
X110383977Y-93935189D01*
X110471311Y-94022523D01*
X110574004Y-94091140D01*
X110688111Y-94138405D01*
X110809246Y-94162500D01*
X110932754Y-94162500D01*
X111053889Y-94138405D01*
X111167996Y-94091140D01*
X111270689Y-94022523D01*
X111358023Y-93935189D01*
X111426640Y-93832496D01*
X111473905Y-93718389D01*
X111498000Y-93597254D01*
X111498000Y-93473746D01*
X111473905Y-93352611D01*
X111426640Y-93238504D01*
X111358023Y-93135811D01*
X111298000Y-93075788D01*
X111298000Y-92759868D01*
X111301869Y-92756000D01*
X111408833Y-92756000D01*
X111429800Y-92758065D01*
X111450767Y-92756000D01*
X111450778Y-92756000D01*
X111513507Y-92749822D01*
X111593996Y-92725405D01*
X111668176Y-92685755D01*
X111733195Y-92632395D01*
X111746568Y-92616100D01*
X112542201Y-91820467D01*
X112542201Y-94418475D01*
X112516738Y-94393012D01*
X112309255Y-94254376D01*
X112078712Y-94158882D01*
X111833969Y-94110200D01*
X111584431Y-94110200D01*
X111339688Y-94158882D01*
X111109145Y-94254376D01*
X110901662Y-94393012D01*
X110725212Y-94569462D01*
X110613627Y-94736461D01*
X110605065Y-94711914D01*
X110519923Y-94552623D01*
X110261676Y-94464129D01*
X109348805Y-95377000D01*
X109362948Y-95391143D01*
X109183343Y-95570748D01*
X109169200Y-95556605D01*
X109155058Y-95570748D01*
X108975453Y-95391143D01*
X108989595Y-95377000D01*
X108076724Y-94464129D01*
X107818477Y-94552623D01*
X107683603Y-94831976D01*
X107609424Y-95118356D01*
X107580968Y-95089900D01*
X107567595Y-95073605D01*
X107502576Y-95020245D01*
X107428396Y-94980595D01*
X107347907Y-94956178D01*
X107285178Y-94950000D01*
X107285167Y-94950000D01*
X107264200Y-94947935D01*
X107243233Y-94950000D01*
X95733106Y-94950000D01*
X95661424Y-94776945D01*
X95522788Y-94569462D01*
X95346338Y-94393012D01*
X95183975Y-94284524D01*
X108256329Y-94284524D01*
X109169200Y-95197395D01*
X110082071Y-94284524D01*
X109993577Y-94026277D01*
X109714224Y-93891403D01*
X109413925Y-93813619D01*
X109104223Y-93795916D01*
X108797016Y-93838973D01*
X108504114Y-93941135D01*
X108344823Y-94026277D01*
X108256329Y-94284524D01*
X95183975Y-94284524D01*
X95138855Y-94254376D01*
X94908312Y-94158882D01*
X94663569Y-94110200D01*
X94414031Y-94110200D01*
X94169288Y-94158882D01*
X93938745Y-94254376D01*
X93731262Y-94393012D01*
X93554812Y-94569462D01*
X93443227Y-94736461D01*
X93434665Y-94711914D01*
X93349523Y-94552623D01*
X93091276Y-94464129D01*
X92178405Y-95377000D01*
X93091276Y-96289871D01*
X93349523Y-96201377D01*
X93440356Y-96013243D01*
X93554812Y-96184538D01*
X93731262Y-96360988D01*
X93938745Y-96499624D01*
X94169288Y-96595118D01*
X94414031Y-96643800D01*
X94663569Y-96643800D01*
X94908312Y-96595118D01*
X95138855Y-96499624D01*
X95346338Y-96360988D01*
X95522788Y-96184538D01*
X95661424Y-95977055D01*
X95733106Y-95804000D01*
X107087332Y-95804000D01*
X108159026Y-96875695D01*
X98382165Y-96875292D01*
X92516997Y-96864099D01*
X92663886Y-96812865D01*
X92823177Y-96727723D01*
X92911671Y-96469476D01*
X91998800Y-95556605D01*
X91085929Y-96469476D01*
X91174423Y-96727723D01*
X91452680Y-96862068D01*
X87939399Y-96855363D01*
X87842636Y-96842374D01*
X87698355Y-96809079D01*
X87465419Y-96729575D01*
X87190846Y-96570759D01*
X86952347Y-96361635D01*
X86759009Y-96110169D01*
X86618198Y-95825941D01*
X86534988Y-95518712D01*
X86512001Y-95243667D01*
X86512051Y-94987377D01*
X86951500Y-94987377D01*
X86951500Y-95258623D01*
X87004417Y-95524656D01*
X87108218Y-95775254D01*
X87258914Y-96000787D01*
X87450713Y-96192586D01*
X87676246Y-96343282D01*
X87926844Y-96447083D01*
X88192877Y-96500000D01*
X88464123Y-96500000D01*
X88730156Y-96447083D01*
X88980754Y-96343282D01*
X89206287Y-96192586D01*
X89398086Y-96000787D01*
X89548782Y-95775254D01*
X89652583Y-95524656D01*
X89669028Y-95441977D01*
X90417716Y-95441977D01*
X90460773Y-95749184D01*
X90562935Y-96042086D01*
X90648077Y-96201377D01*
X90906324Y-96289871D01*
X91819195Y-95377000D01*
X90906324Y-94464129D01*
X90648077Y-94552623D01*
X90513203Y-94831976D01*
X90435419Y-95132275D01*
X90417716Y-95441977D01*
X89669028Y-95441977D01*
X89705500Y-95258623D01*
X89705500Y-94987377D01*
X89652583Y-94721344D01*
X89548782Y-94470746D01*
X89424353Y-94284524D01*
X91085929Y-94284524D01*
X91998800Y-95197395D01*
X92911671Y-94284524D01*
X92823177Y-94026277D01*
X92543824Y-93891403D01*
X92243525Y-93813619D01*
X91933823Y-93795916D01*
X91626616Y-93838973D01*
X91333714Y-93941135D01*
X91174423Y-94026277D01*
X91085929Y-94284524D01*
X89424353Y-94284524D01*
X89398086Y-94245213D01*
X89206287Y-94053414D01*
X88980754Y-93902718D01*
X88730156Y-93798917D01*
X88464123Y-93746000D01*
X88192877Y-93746000D01*
X87926844Y-93798917D01*
X87676246Y-93902718D01*
X87450713Y-94053414D01*
X87258914Y-94245213D01*
X87108218Y-94470746D01*
X87004417Y-94721344D01*
X86951500Y-94987377D01*
X86512051Y-94987377D01*
X86516506Y-72317877D01*
X86951500Y-72317877D01*
X86951500Y-72589123D01*
X87004417Y-72855156D01*
X87108218Y-73105754D01*
X87258914Y-73331287D01*
X87450713Y-73523086D01*
X87676246Y-73673782D01*
X87926844Y-73777583D01*
X88192877Y-73830500D01*
X88464123Y-73830500D01*
X88730156Y-73777583D01*
X88980754Y-73673782D01*
X89206287Y-73523086D01*
X89348497Y-73380876D01*
X91111329Y-73380876D01*
X91199823Y-73639123D01*
X91479176Y-73773997D01*
X91779475Y-73851781D01*
X92089177Y-73869484D01*
X92396384Y-73826427D01*
X92689286Y-73724265D01*
X92848577Y-73639123D01*
X92937071Y-73380876D01*
X92024200Y-72468005D01*
X91111329Y-73380876D01*
X89348497Y-73380876D01*
X89398086Y-73331287D01*
X89548782Y-73105754D01*
X89652583Y-72855156D01*
X89705500Y-72589123D01*
X89705500Y-72353377D01*
X90443116Y-72353377D01*
X90486173Y-72660584D01*
X90588335Y-72953486D01*
X90673477Y-73112777D01*
X90931724Y-73201271D01*
X91844595Y-72288400D01*
X92203805Y-72288400D01*
X93116676Y-73201271D01*
X93374923Y-73112777D01*
X93465756Y-72924643D01*
X93580212Y-73095938D01*
X93756662Y-73272388D01*
X93964145Y-73411024D01*
X94194688Y-73506518D01*
X94439431Y-73555200D01*
X94688969Y-73555200D01*
X94933712Y-73506518D01*
X95164255Y-73411024D01*
X95371738Y-73272388D01*
X95420726Y-73223400D01*
X96114532Y-73223400D01*
X99810036Y-76918905D01*
X99823405Y-76935195D01*
X99839695Y-76948564D01*
X99839699Y-76948568D01*
X99888423Y-76988556D01*
X99943304Y-77017889D01*
X99962604Y-77028205D01*
X100043093Y-77052622D01*
X100105822Y-77058800D01*
X100105833Y-77058800D01*
X100126800Y-77060865D01*
X100147767Y-77058800D01*
X100937088Y-77058800D01*
X100997111Y-77118823D01*
X101099804Y-77187440D01*
X101213911Y-77234705D01*
X101335046Y-77258800D01*
X101458554Y-77258800D01*
X101579689Y-77234705D01*
X101693796Y-77187440D01*
X101796489Y-77118823D01*
X101883823Y-77031489D01*
X101952440Y-76928796D01*
X101999705Y-76814689D01*
X102023800Y-76693554D01*
X102023800Y-76570046D01*
X101999705Y-76448911D01*
X101952440Y-76334804D01*
X101883823Y-76232111D01*
X101796489Y-76144777D01*
X101693796Y-76076160D01*
X101579689Y-76028895D01*
X101458554Y-76004800D01*
X101335046Y-76004800D01*
X101213911Y-76028895D01*
X101099804Y-76076160D01*
X100997111Y-76144777D01*
X100937088Y-76204800D01*
X100303669Y-76204800D01*
X96608168Y-72509300D01*
X96594795Y-72493005D01*
X96529776Y-72439645D01*
X96455596Y-72399995D01*
X96375107Y-72375578D01*
X96312378Y-72369400D01*
X96312367Y-72369400D01*
X96291400Y-72367335D01*
X96270433Y-72369400D01*
X95831000Y-72369400D01*
X95831000Y-72163631D01*
X99393400Y-72163631D01*
X99393400Y-72413169D01*
X99442082Y-72657912D01*
X99537576Y-72888455D01*
X99676212Y-73095938D01*
X99852662Y-73272388D01*
X100060145Y-73411024D01*
X100290688Y-73506518D01*
X100535431Y-73555200D01*
X100784969Y-73555200D01*
X101029712Y-73506518D01*
X101260255Y-73411024D01*
X101305374Y-73380876D01*
X102287329Y-73380876D01*
X102375823Y-73639123D01*
X102655176Y-73773997D01*
X102955475Y-73851781D01*
X103265177Y-73869484D01*
X103572384Y-73826427D01*
X103865286Y-73724265D01*
X104024577Y-73639123D01*
X104113071Y-73380876D01*
X103200200Y-72468005D01*
X102287329Y-73380876D01*
X101305374Y-73380876D01*
X101467738Y-73272388D01*
X101644188Y-73095938D01*
X101755773Y-72928939D01*
X101764335Y-72953486D01*
X101849477Y-73112777D01*
X102107724Y-73201271D01*
X103020595Y-72288400D01*
X103379805Y-72288400D01*
X104292676Y-73201271D01*
X104550923Y-73112777D01*
X104685797Y-72833424D01*
X104763581Y-72533125D01*
X104781284Y-72223423D01*
X104738227Y-71916216D01*
X104636065Y-71623314D01*
X104550923Y-71464023D01*
X104292676Y-71375529D01*
X103379805Y-72288400D01*
X103020595Y-72288400D01*
X102107724Y-71375529D01*
X101849477Y-71464023D01*
X101758644Y-71652157D01*
X101644188Y-71480862D01*
X101467738Y-71304412D01*
X101260255Y-71165776D01*
X101029712Y-71070282D01*
X100784969Y-71021600D01*
X100535431Y-71021600D01*
X100290688Y-71070282D01*
X100060145Y-71165776D01*
X99852662Y-71304412D01*
X99676212Y-71480862D01*
X99537576Y-71688345D01*
X99442082Y-71918888D01*
X99393400Y-72163631D01*
X95831000Y-72163631D01*
X95782318Y-71918888D01*
X95686824Y-71688345D01*
X95548188Y-71480862D01*
X95371738Y-71304412D01*
X95164255Y-71165776D01*
X94933712Y-71070282D01*
X94688969Y-71021600D01*
X94439431Y-71021600D01*
X94194688Y-71070282D01*
X93964145Y-71165776D01*
X93756662Y-71304412D01*
X93580212Y-71480862D01*
X93468627Y-71647861D01*
X93460065Y-71623314D01*
X93374923Y-71464023D01*
X93116676Y-71375529D01*
X92203805Y-72288400D01*
X91844595Y-72288400D01*
X90931724Y-71375529D01*
X90673477Y-71464023D01*
X90538603Y-71743376D01*
X90460819Y-72043675D01*
X90443116Y-72353377D01*
X89705500Y-72353377D01*
X89705500Y-72317877D01*
X89652583Y-72051844D01*
X89548782Y-71801246D01*
X89398086Y-71575713D01*
X89206287Y-71383914D01*
X88980754Y-71233218D01*
X88730156Y-71129417D01*
X88464123Y-71076500D01*
X88192877Y-71076500D01*
X87926844Y-71129417D01*
X87676246Y-71233218D01*
X87450713Y-71383914D01*
X87258914Y-71575713D01*
X87108218Y-71801246D01*
X87004417Y-72051844D01*
X86951500Y-72317877D01*
X86516506Y-72317877D01*
X86516515Y-72276217D01*
X86570224Y-71961530D01*
X86683308Y-71665171D01*
X86851796Y-71396428D01*
X87069280Y-71165523D01*
X87302885Y-70998805D01*
X87436478Y-70932009D01*
X87616531Y-70850657D01*
X87927859Y-70778127D01*
X88142980Y-70764000D01*
X91611316Y-70764569D01*
G37*
X91611316Y-70764569D02*
X91359114Y-70852535D01*
X91199823Y-70937677D01*
X91111329Y-71195924D01*
X92024200Y-72108795D01*
X92937071Y-71195924D01*
X92848577Y-70937677D01*
X92569224Y-70802803D01*
X92422127Y-70764702D01*
X102782065Y-70766400D01*
X102535114Y-70852535D01*
X102375823Y-70937677D01*
X102287329Y-71195924D01*
X103200200Y-72108795D01*
X104113071Y-71195924D01*
X104024577Y-70937677D01*
X103745224Y-70802803D01*
X103605206Y-70766535D01*
X111337843Y-70767803D01*
X111094914Y-70852535D01*
X110935623Y-70937677D01*
X110847129Y-71195924D01*
X111760000Y-72108795D01*
X112672871Y-71195924D01*
X112584377Y-70937677D01*
X112305024Y-70802803D01*
X112170428Y-70767940D01*
X115683787Y-70768516D01*
X115998470Y-70822224D01*
X116294829Y-70935308D01*
X116563572Y-71103796D01*
X116794477Y-71321280D01*
X116978737Y-71579465D01*
X117109343Y-71868531D01*
X117181873Y-72179859D01*
X117196000Y-72394973D01*
X117192452Y-90245847D01*
X117170230Y-95095819D01*
X117098727Y-95787016D01*
X116344345Y-96674523D01*
X116304967Y-96699596D01*
X116171385Y-96751639D01*
X115380270Y-96855733D01*
X115025970Y-96875979D01*
X112686092Y-96875882D01*
X113706322Y-95855654D01*
X113722605Y-95842291D01*
X113735969Y-95826007D01*
X113735978Y-95825998D01*
X113775965Y-95777273D01*
X113806822Y-95719543D01*
X113815615Y-95703092D01*
X113840032Y-95622603D01*
X113846210Y-95559874D01*
X113846210Y-95559864D01*
X113848275Y-95538897D01*
X113846210Y-95517930D01*
X113846210Y-94987377D01*
X114066000Y-94987377D01*
X114066000Y-95258623D01*
X114118917Y-95524656D01*
X114222718Y-95775254D01*
X114373414Y-96000787D01*
X114565213Y-96192586D01*
X114790746Y-96343282D01*
X115041344Y-96447083D01*
X115307377Y-96500000D01*
X115578623Y-96500000D01*
X115844656Y-96447083D01*
X116095254Y-96343282D01*
X116320787Y-96192586D01*
X116512586Y-96000787D01*
X116663282Y-95775254D01*
X116767083Y-95524656D01*
X116820000Y-95258623D01*
X116820000Y-94987377D01*
X116767083Y-94721344D01*
X116663282Y-94470746D01*
X116512586Y-94245213D01*
X116320787Y-94053414D01*
X116095254Y-93902718D01*
X115844656Y-93798917D01*
X115578623Y-93746000D01*
X115307377Y-93746000D01*
X115041344Y-93798917D01*
X114790746Y-93902718D01*
X114565213Y-94053414D01*
X114373414Y-94245213D01*
X114222718Y-94470746D01*
X114118917Y-94721344D01*
X114066000Y-94987377D01*
X113846210Y-94987377D01*
X113846210Y-84330367D01*
X113848275Y-84309400D01*
X113846210Y-84288433D01*
X113846210Y-84288422D01*
X113840032Y-84225693D01*
X113815615Y-84145204D01*
X113801702Y-84119175D01*
X113775966Y-84071023D01*
X113735978Y-84022299D01*
X113735974Y-84022295D01*
X113722605Y-84006005D01*
X113706315Y-83992636D01*
X112745800Y-83032122D01*
X112745800Y-81670670D01*
X112773701Y-81642769D01*
X112789996Y-81629396D01*
X112843356Y-81564377D01*
X112883006Y-81490197D01*
X112907423Y-81409708D01*
X112913601Y-81346979D01*
X112913601Y-81346967D01*
X112915666Y-81326002D01*
X112913601Y-81305037D01*
X112913601Y-80746963D01*
X112915666Y-80725998D01*
X112913601Y-80705033D01*
X112913601Y-80705021D01*
X112907423Y-80642292D01*
X112883006Y-80561803D01*
X112843357Y-80487624D01*
X112843356Y-80487622D01*
X112803369Y-80438897D01*
X112803360Y-80438888D01*
X112789996Y-80422604D01*
X112773713Y-80409241D01*
X112462724Y-80098253D01*
X112439105Y-79979511D01*
X112391840Y-79865404D01*
X112323223Y-79762711D01*
X112240166Y-79679654D01*
X112273089Y-79673105D01*
X112387196Y-79625840D01*
X112489889Y-79557223D01*
X112577223Y-79469889D01*
X112645840Y-79367196D01*
X112693105Y-79253089D01*
X112717200Y-79131954D01*
X112717200Y-79047069D01*
X113002307Y-78761962D01*
X113018596Y-78748594D01*
X113031965Y-78732304D01*
X113031969Y-78732300D01*
X113071956Y-78683576D01*
X113097166Y-78636410D01*
X113111606Y-78609395D01*
X113136023Y-78528906D01*
X113142201Y-78466177D01*
X113142201Y-78466166D01*
X113144266Y-78445199D01*
X113142201Y-78424232D01*
X113142201Y-77249966D01*
X113161505Y-77255822D01*
X113224234Y-77262000D01*
X113224245Y-77262000D01*
X113245212Y-77264065D01*
X113266179Y-77262000D01*
X115643688Y-77262000D01*
X115703711Y-77322023D01*
X115806404Y-77390640D01*
X115920511Y-77437905D01*
X116041646Y-77462000D01*
X116165154Y-77462000D01*
X116286289Y-77437905D01*
X116400396Y-77390640D01*
X116503089Y-77322023D01*
X116590423Y-77234689D01*
X116659040Y-77131996D01*
X116706305Y-77017889D01*
X116730400Y-76896754D01*
X116730400Y-76773246D01*
X116706305Y-76652111D01*
X116659040Y-76538004D01*
X116590423Y-76435311D01*
X116503089Y-76347977D01*
X116400396Y-76279360D01*
X116286289Y-76232095D01*
X116165154Y-76208000D01*
X116041646Y-76208000D01*
X115920511Y-76232095D01*
X115806404Y-76279360D01*
X115703711Y-76347977D01*
X115643688Y-76408000D01*
X113422081Y-76408000D01*
X112669568Y-75655488D01*
X112645840Y-75598204D01*
X112577223Y-75495511D01*
X112489889Y-75408177D01*
X112387196Y-75339560D01*
X112273089Y-75292295D01*
X112151954Y-75268200D01*
X112028446Y-75268200D01*
X111907311Y-75292295D01*
X111892199Y-75298555D01*
X111892199Y-75062566D01*
X111894264Y-75041599D01*
X111892199Y-75020632D01*
X111892199Y-75020621D01*
X111886021Y-74957892D01*
X111861604Y-74877403D01*
X111843147Y-74842872D01*
X111821954Y-74803222D01*
X111781967Y-74754498D01*
X111781963Y-74754494D01*
X111768594Y-74738204D01*
X111752304Y-74724835D01*
X110408345Y-73380876D01*
X110847129Y-73380876D01*
X110935623Y-73639123D01*
X111214976Y-73773997D01*
X111515275Y-73851781D01*
X111824977Y-73869484D01*
X112132184Y-73826427D01*
X112425086Y-73724265D01*
X112584377Y-73639123D01*
X112672871Y-73380876D01*
X111760000Y-72468005D01*
X110847129Y-73380876D01*
X110408345Y-73380876D01*
X110163697Y-73136229D01*
X110203988Y-73095938D01*
X110315573Y-72928939D01*
X110324135Y-72953486D01*
X110409277Y-73112777D01*
X110667524Y-73201271D01*
X111580395Y-72288400D01*
X111939605Y-72288400D01*
X112852476Y-73201271D01*
X113110723Y-73112777D01*
X113245597Y-72833424D01*
X113323381Y-72533125D01*
X113329151Y-72432177D01*
X114066000Y-72432177D01*
X114066000Y-72703423D01*
X114118917Y-72969456D01*
X114222718Y-73220054D01*
X114373414Y-73445587D01*
X114565213Y-73637386D01*
X114790746Y-73788082D01*
X115041344Y-73891883D01*
X115307377Y-73944800D01*
X115578623Y-73944800D01*
X115844656Y-73891883D01*
X116095254Y-73788082D01*
X116320787Y-73637386D01*
X116512586Y-73445587D01*
X116663282Y-73220054D01*
X116767083Y-72969456D01*
X116820000Y-72703423D01*
X116820000Y-72432177D01*
X116767083Y-72166144D01*
X116663282Y-71915546D01*
X116512586Y-71690013D01*
X116320787Y-71498214D01*
X116095254Y-71347518D01*
X115844656Y-71243717D01*
X115578623Y-71190800D01*
X115307377Y-71190800D01*
X115041344Y-71243717D01*
X114790746Y-71347518D01*
X114565213Y-71498214D01*
X114373414Y-71690013D01*
X114222718Y-71915546D01*
X114118917Y-72166144D01*
X114066000Y-72432177D01*
X113329151Y-72432177D01*
X113341084Y-72223423D01*
X113298027Y-71916216D01*
X113195865Y-71623314D01*
X113110723Y-71464023D01*
X112852476Y-71375529D01*
X111939605Y-72288400D01*
X111580395Y-72288400D01*
X110667524Y-71375529D01*
X110409277Y-71464023D01*
X110318444Y-71652157D01*
X110203988Y-71480862D01*
X110027538Y-71304412D01*
X109820055Y-71165776D01*
X109589512Y-71070282D01*
X109344769Y-71021600D01*
X109095231Y-71021600D01*
X108850488Y-71070282D01*
X108619945Y-71165776D01*
X108412462Y-71304412D01*
X108236012Y-71480862D01*
X108097376Y-71688345D01*
X108001882Y-71918888D01*
X107953200Y-72163631D01*
X107953200Y-72413169D01*
X108001882Y-72657912D01*
X108097376Y-72888455D01*
X108236012Y-73095938D01*
X108412462Y-73272388D01*
X108619945Y-73411024D01*
X108850488Y-73506518D01*
X109095231Y-73555200D01*
X109344769Y-73555200D01*
X109369928Y-73550196D01*
X111038200Y-75218469D01*
X111038199Y-76174234D01*
X111036134Y-76195201D01*
X111038199Y-76216168D01*
X111038199Y-76216178D01*
X111044377Y-76278907D01*
X111068794Y-76359396D01*
X111068795Y-76359397D01*
X111108444Y-76433577D01*
X111148431Y-76482301D01*
X111161804Y-76498596D01*
X111178099Y-76511969D01*
X111473435Y-76807306D01*
X111486804Y-76823596D01*
X111503094Y-76836965D01*
X111503097Y-76836968D01*
X111551822Y-76876956D01*
X111588862Y-76896754D01*
X111626003Y-76916606D01*
X111706492Y-76941023D01*
X111769221Y-76947201D01*
X111769233Y-76947201D01*
X111790198Y-76949266D01*
X111811163Y-76947201D01*
X112117135Y-76947201D01*
X112288202Y-77118269D01*
X112288202Y-77432155D01*
X112273089Y-77425895D01*
X112151954Y-77401800D01*
X112028446Y-77401800D01*
X111907311Y-77425895D01*
X111793204Y-77473160D01*
X111690511Y-77541777D01*
X111603177Y-77629111D01*
X111534560Y-77731804D01*
X111487295Y-77845911D01*
X111463200Y-77967046D01*
X111463200Y-78051931D01*
X110685495Y-78829637D01*
X110669206Y-78843005D01*
X110655837Y-78859295D01*
X110655832Y-78859300D01*
X110615845Y-78908024D01*
X110576196Y-78982204D01*
X110551779Y-79062693D01*
X110551040Y-79070200D01*
X110543535Y-79146400D01*
X110545601Y-79167377D01*
X110545600Y-81204730D01*
X109764754Y-81985578D01*
X109764749Y-81985582D01*
X109679943Y-82070388D01*
X102847020Y-82070388D01*
X102785532Y-82008900D01*
X102772159Y-81992605D01*
X102707140Y-81939245D01*
X102632960Y-81899595D01*
X102552471Y-81875178D01*
X102505793Y-81870581D01*
X102444189Y-81808977D01*
X102341496Y-81740360D01*
X102227389Y-81693095D01*
X102106254Y-81669000D01*
X101982746Y-81669000D01*
X101861611Y-81693095D01*
X101747504Y-81740360D01*
X101644811Y-81808977D01*
X101557477Y-81896311D01*
X101488860Y-81999004D01*
X101441595Y-82113111D01*
X101417500Y-82234246D01*
X101417500Y-82357754D01*
X101439906Y-82470398D01*
X98229460Y-82470398D01*
X98290196Y-82445240D01*
X98392889Y-82376623D01*
X98480223Y-82289289D01*
X98548840Y-82186596D01*
X98596105Y-82072489D01*
X98620200Y-81951354D01*
X98620200Y-81827846D01*
X98596105Y-81706711D01*
X98548840Y-81592604D01*
X98480223Y-81489911D01*
X98420200Y-81429888D01*
X98420200Y-78486064D01*
X98422265Y-78465097D01*
X98420200Y-78444130D01*
X98420200Y-78444120D01*
X98414022Y-78381391D01*
X98389605Y-78300902D01*
X98357037Y-78239971D01*
X98349955Y-78226721D01*
X98309968Y-78177997D01*
X98309964Y-78177993D01*
X98296595Y-78161703D01*
X98280305Y-78148334D01*
X96957069Y-76825099D01*
X96943696Y-76808804D01*
X96878677Y-76755444D01*
X96804497Y-76715794D01*
X96724008Y-76691377D01*
X96661279Y-76685199D01*
X96661268Y-76685199D01*
X96640301Y-76683134D01*
X96619334Y-76685199D01*
X92148968Y-76685199D01*
X92128001Y-76683134D01*
X92107034Y-76685199D01*
X92107023Y-76685199D01*
X92044294Y-76691377D01*
X91963805Y-76715794D01*
X91946539Y-76725023D01*
X91889624Y-76755443D01*
X91840900Y-76795431D01*
X91840896Y-76795435D01*
X91824606Y-76808804D01*
X91811237Y-76825094D01*
X91107532Y-77528800D01*
X91022646Y-77528800D01*
X90901511Y-77552895D01*
X90787404Y-77600160D01*
X90684711Y-77668777D01*
X90597377Y-77756111D01*
X90528760Y-77858804D01*
X90481495Y-77972911D01*
X90457400Y-78094046D01*
X90457400Y-78217554D01*
X90481495Y-78338689D01*
X90528760Y-78452796D01*
X90597377Y-78555489D01*
X90657400Y-78615512D01*
X90657401Y-83392623D01*
X90655335Y-83413600D01*
X90657401Y-83434577D01*
X90657401Y-83434578D01*
X90663579Y-83497307D01*
X90684102Y-83564959D01*
X90687996Y-83577796D01*
X90727645Y-83651976D01*
X90767632Y-83700700D01*
X90767637Y-83700705D01*
X90781006Y-83716995D01*
X90797296Y-83730364D01*
X94133877Y-87066946D01*
X94115000Y-87161846D01*
X94115000Y-87285354D01*
X94139095Y-87406489D01*
X94186360Y-87520596D01*
X94254977Y-87623289D01*
X94315001Y-87683313D01*
X94315000Y-91110731D01*
X93643468Y-91782264D01*
X93606611Y-91789595D01*
X93492504Y-91836860D01*
X93389811Y-91905477D01*
X93302477Y-91992811D01*
X93233860Y-92095504D01*
X93186595Y-92209611D01*
X93162500Y-92330746D01*
X93162500Y-92454254D01*
X93186595Y-92575389D01*
X93233860Y-92689496D01*
X93302477Y-92792189D01*
X93389811Y-92879523D01*
X93492504Y-92948140D01*
X93606611Y-92995405D01*
X93727746Y-93019500D01*
X93812632Y-93019500D01*
X94318835Y-93525704D01*
X94332204Y-93541994D01*
X94348494Y-93555363D01*
X94348498Y-93555367D01*
X94397222Y-93595355D01*
X94454137Y-93625775D01*
X94471403Y-93635004D01*
X94551892Y-93659421D01*
X94614621Y-93665599D01*
X94614632Y-93665599D01*
X94635599Y-93667664D01*
X94656566Y-93665599D01*
X97215034Y-93665599D01*
X97236001Y-93667664D01*
X97256968Y-93665599D01*
X97256979Y-93665599D01*
X97319708Y-93659421D01*
X97400197Y-93635004D01*
X97474377Y-93595354D01*
X97510632Y-93565600D01*
X97597754Y-93565600D01*
X97718889Y-93541505D01*
X97832996Y-93494240D01*
X97935689Y-93425623D01*
X98023023Y-93338289D01*
X98091640Y-93235596D01*
X98138905Y-93121489D01*
X98163000Y-93000354D01*
X98163000Y-92876846D01*
X98138905Y-92755711D01*
X98091640Y-92641604D01*
X98023023Y-92538911D01*
X97935689Y-92451577D01*
X97832996Y-92382960D01*
X97718889Y-92335695D01*
X97597754Y-92311600D01*
X97474246Y-92311600D01*
X97353111Y-92335695D01*
X97239004Y-92382960D01*
X97136311Y-92451577D01*
X97048977Y-92538911D01*
X96980360Y-92641604D01*
X96933095Y-92755711D01*
X96921978Y-92811599D01*
X94812468Y-92811599D01*
X94416500Y-92415632D01*
X94416500Y-92330746D01*
X94397623Y-92235845D01*
X95029106Y-91604363D01*
X95045395Y-91590995D01*
X95058764Y-91574705D01*
X95058768Y-91574701D01*
X95098755Y-91525977D01*
X95138404Y-91451797D01*
X95138405Y-91451796D01*
X95162822Y-91371307D01*
X95169000Y-91308578D01*
X95169000Y-91308568D01*
X95171065Y-91287601D01*
X95169000Y-91266634D01*
X95169000Y-87683312D01*
X95229023Y-87623289D01*
X95297640Y-87520596D01*
X95344905Y-87406489D01*
X95369000Y-87285354D01*
X95369000Y-87161846D01*
X95344905Y-87040711D01*
X95320702Y-86982280D01*
X95374015Y-87010775D01*
X95391281Y-87020004D01*
X95471770Y-87044421D01*
X95534499Y-87050599D01*
X95534510Y-87050599D01*
X95555477Y-87052664D01*
X95576444Y-87050599D01*
X97914831Y-87050599D01*
X98798619Y-87934388D01*
X98821860Y-87990496D01*
X98890477Y-88093189D01*
X98977811Y-88180523D01*
X99080504Y-88249140D01*
X99194611Y-88296405D01*
X99315746Y-88320500D01*
X99439254Y-88320500D01*
X99560389Y-88296405D01*
X99674496Y-88249140D01*
X99777189Y-88180523D01*
X99864523Y-88093189D01*
X99933140Y-87990496D01*
X99980405Y-87876389D01*
X100004500Y-87755254D01*
X100004500Y-87631746D01*
X99980405Y-87510611D01*
X99933140Y-87396504D01*
X99864523Y-87293811D01*
X99777189Y-87206477D01*
X99674496Y-87137860D01*
X99560389Y-87090595D01*
X99439254Y-87066500D01*
X99315746Y-87066500D01*
X99194611Y-87090595D01*
X99171950Y-87099981D01*
X98408466Y-86336498D01*
X98395094Y-86320204D01*
X98330075Y-86266844D01*
X98255895Y-86227194D01*
X98175406Y-86202777D01*
X98112677Y-86196599D01*
X98112666Y-86196599D01*
X98091699Y-86194534D01*
X98070732Y-86196599D01*
X95732346Y-86196599D01*
X95443858Y-85908112D01*
X95491300Y-85860670D01*
X95491300Y-85257420D01*
X95471300Y-85257420D01*
X95471300Y-85166420D01*
X95491300Y-85166420D01*
X95491300Y-85064920D01*
X95745300Y-85064920D01*
X95745300Y-85166420D01*
X95765300Y-85166420D01*
X95765300Y-85257420D01*
X95745300Y-85257420D01*
X95745300Y-85860670D01*
X95904050Y-86019420D01*
X96370918Y-86022423D01*
X96495566Y-86011994D01*
X96615785Y-85977448D01*
X96726954Y-85920113D01*
X96824802Y-85842191D01*
X96905568Y-85746677D01*
X96966147Y-85637241D01*
X96996823Y-85541223D01*
X97002295Y-85544148D01*
X97036826Y-85562605D01*
X97117315Y-85587022D01*
X97180044Y-85593200D01*
X97180054Y-85593200D01*
X97201021Y-85595265D01*
X97221988Y-85593200D01*
X101406988Y-85593200D01*
X101454311Y-85640523D01*
X101557004Y-85709140D01*
X101671111Y-85756405D01*
X101792246Y-85780500D01*
X101915754Y-85780500D01*
X102036889Y-85756405D01*
X102150996Y-85709140D01*
X102221590Y-85661971D01*
X102221591Y-92059130D01*
X101956053Y-92324668D01*
X101890354Y-92311600D01*
X101766846Y-92311600D01*
X101645711Y-92335695D01*
X101531604Y-92382960D01*
X101428911Y-92451577D01*
X101341577Y-92538911D01*
X101272960Y-92641604D01*
X101225695Y-92755711D01*
X101201600Y-92876846D01*
X101201600Y-93000354D01*
X101225695Y-93121489D01*
X101272960Y-93235596D01*
X101341577Y-93338289D01*
X101428911Y-93425623D01*
X101531604Y-93494240D01*
X101645711Y-93541505D01*
X101766846Y-93565600D01*
X101890354Y-93565600D01*
X102011489Y-93541505D01*
X102125596Y-93494240D01*
X102228289Y-93425623D01*
X102315623Y-93338289D01*
X102384240Y-93235596D01*
X102431505Y-93121489D01*
X102447529Y-93040929D01*
X102935695Y-92552764D01*
X102951985Y-92539395D01*
X102965354Y-92523105D01*
X102965358Y-92523101D01*
X102966654Y-92521522D01*
X103290634Y-92845503D01*
X103284400Y-92876846D01*
X103284400Y-93000354D01*
X103308495Y-93121489D01*
X103355760Y-93235596D01*
X103424377Y-93338289D01*
X103511711Y-93425623D01*
X103614404Y-93494240D01*
X103728511Y-93541505D01*
X103849646Y-93565600D01*
X103973154Y-93565600D01*
X104094289Y-93541505D01*
X104208396Y-93494240D01*
X104311089Y-93425623D01*
X104398423Y-93338289D01*
X104467040Y-93235596D01*
X104478810Y-93207181D01*
X104522734Y-93251105D01*
X104536103Y-93267395D01*
X104552393Y-93280764D01*
X104552397Y-93280768D01*
X104601121Y-93320756D01*
X104675301Y-93360405D01*
X104686127Y-93363689D01*
X104755791Y-93384822D01*
X104818520Y-93391000D01*
X104818531Y-93391000D01*
X104839498Y-93393065D01*
X104860465Y-93391000D01*
X105648788Y-93391000D01*
X105708811Y-93451023D01*
X105811504Y-93519640D01*
X105925611Y-93566905D01*
X106046746Y-93591000D01*
X106170254Y-93591000D01*
X106291389Y-93566905D01*
X106405496Y-93519640D01*
X106508189Y-93451023D01*
X106595523Y-93363689D01*
X106664140Y-93260996D01*
X106711405Y-93146889D01*
X106735500Y-93025754D01*
X106735500Y-92902246D01*
X106711405Y-92781111D01*
X106664140Y-92667004D01*
X106595523Y-92564311D01*
X106508189Y-92476977D01*
X106405496Y-92408360D01*
X106291389Y-92361095D01*
X106170254Y-92337000D01*
X106046746Y-92337000D01*
X105925611Y-92361095D01*
X105811504Y-92408360D01*
X105708811Y-92476977D01*
X105648788Y-92537000D01*
X105016367Y-92537000D01*
X104530864Y-92051498D01*
X104517492Y-92035204D01*
X104452473Y-91981844D01*
X104378293Y-91942194D01*
X104297804Y-91917777D01*
X104235075Y-91911599D01*
X104235064Y-91911599D01*
X104214097Y-91909534D01*
X104193130Y-91911599D01*
X104165522Y-91911599D01*
X103975610Y-91721688D01*
X103975610Y-84632865D01*
X104020611Y-84651505D01*
X104141746Y-84675600D01*
X104163132Y-84675600D01*
X106287041Y-86799511D01*
X106300405Y-86815795D01*
X106316689Y-86829159D01*
X106316698Y-86829168D01*
X106365423Y-86869155D01*
X106405073Y-86890348D01*
X106439604Y-86908805D01*
X106520093Y-86933222D01*
X106582822Y-86939400D01*
X106582834Y-86939400D01*
X106603799Y-86941465D01*
X106624764Y-86939400D01*
X109398732Y-86939400D01*
X110494009Y-88034679D01*
X110460177Y-88068511D01*
X110418014Y-88131612D01*
X110392823Y-88093911D01*
X110305489Y-88006577D01*
X110202796Y-87937960D01*
X110088689Y-87890695D01*
X109967554Y-87866600D01*
X109844046Y-87866600D01*
X109722911Y-87890695D01*
X109608804Y-87937960D01*
X109506111Y-88006577D01*
X109418777Y-88093911D01*
X109350160Y-88196604D01*
X109302895Y-88310711D01*
X109278800Y-88431846D01*
X109278800Y-88516731D01*
X108932895Y-88862637D01*
X108916606Y-88876005D01*
X108903237Y-88892295D01*
X108903232Y-88892300D01*
X108863245Y-88941024D01*
X108834077Y-88995595D01*
X108823596Y-89015204D01*
X108799179Y-89095693D01*
X108795145Y-89136643D01*
X108732977Y-89198811D01*
X108664360Y-89301504D01*
X108617095Y-89415611D01*
X108593000Y-89536746D01*
X108593000Y-89660254D01*
X108617095Y-89781389D01*
X108664360Y-89895496D01*
X108732977Y-89998189D01*
X108820311Y-90085523D01*
X108923004Y-90154140D01*
X109037111Y-90201405D01*
X109158246Y-90225500D01*
X109281754Y-90225500D01*
X109402889Y-90201405D01*
X109516996Y-90154140D01*
X109619689Y-90085523D01*
X109707023Y-89998189D01*
X109775640Y-89895496D01*
X109822905Y-89781389D01*
X109847000Y-89660254D01*
X109847000Y-89536746D01*
X109822905Y-89415611D01*
X109775640Y-89301504D01*
X109746050Y-89257219D01*
X109882669Y-89120600D01*
X109967554Y-89120600D01*
X110088689Y-89096505D01*
X110202796Y-89049240D01*
X110305489Y-88980623D01*
X110392823Y-88893289D01*
X110434986Y-88830188D01*
X110460177Y-88867889D01*
X110547511Y-88955223D01*
X110650204Y-89023840D01*
X110764311Y-89071105D01*
X110885446Y-89095200D01*
X111008954Y-89095200D01*
X111130089Y-89071105D01*
X111244196Y-89023840D01*
X111346889Y-88955223D01*
X111434223Y-88867889D01*
X111502840Y-88765196D01*
X111550105Y-88651089D01*
X111574200Y-88529954D01*
X111574200Y-88406446D01*
X111550105Y-88285311D01*
X111502840Y-88171204D01*
X111434223Y-88068511D01*
X111374200Y-88008488D01*
X111374200Y-87904964D01*
X111376265Y-87883999D01*
X111374200Y-87863034D01*
X111374200Y-87863022D01*
X111368022Y-87800293D01*
X111343605Y-87719804D01*
X111322006Y-87679395D01*
X111303955Y-87645623D01*
X111263968Y-87596898D01*
X111263959Y-87596889D01*
X111250595Y-87580605D01*
X111234312Y-87567242D01*
X109892366Y-86225298D01*
X109878995Y-86209005D01*
X109813976Y-86155645D01*
X109739796Y-86115995D01*
X109659307Y-86091578D01*
X109596578Y-86085400D01*
X109596567Y-86085400D01*
X109575600Y-86083335D01*
X109554633Y-86085400D01*
X106780670Y-86085400D01*
X104826373Y-84131104D01*
X104830500Y-84110354D01*
X104830500Y-83986846D01*
X104806405Y-83865711D01*
X104768585Y-83774406D01*
X110067730Y-83774408D01*
X110682599Y-84389279D01*
X110682599Y-84444032D01*
X110680534Y-84464999D01*
X110682599Y-84485966D01*
X110682599Y-84485976D01*
X110688777Y-84548705D01*
X110713194Y-84629194D01*
X110727366Y-84655708D01*
X110752844Y-84703375D01*
X110792831Y-84752099D01*
X110806204Y-84768394D01*
X110822499Y-84781767D01*
X111163836Y-85123105D01*
X111177205Y-85139395D01*
X111193495Y-85152764D01*
X111193499Y-85152768D01*
X111209678Y-85166046D01*
X111204360Y-85174004D01*
X111157095Y-85288111D01*
X111133000Y-85409246D01*
X111133000Y-85532754D01*
X111157095Y-85653889D01*
X111204360Y-85767996D01*
X111272977Y-85870689D01*
X111360311Y-85958023D01*
X111463004Y-86026640D01*
X111577111Y-86073905D01*
X111698246Y-86098000D01*
X111821754Y-86098000D01*
X111895468Y-86083337D01*
X112092192Y-86280062D01*
X112092191Y-91062740D01*
X111252932Y-91902000D01*
X111145964Y-91902000D01*
X111124999Y-91899935D01*
X111104034Y-91902000D01*
X111104022Y-91902000D01*
X111041293Y-91908178D01*
X110960804Y-91932595D01*
X110942846Y-91942194D01*
X110886623Y-91972245D01*
X110837899Y-92012232D01*
X110837895Y-92012236D01*
X110821605Y-92025605D01*
X110808236Y-92041895D01*
X110583900Y-92266232D01*
X110567605Y-92279605D01*
X110554233Y-92295899D01*
X110554232Y-92295900D01*
X110514245Y-92344624D01*
X110493755Y-92382960D01*
X110474595Y-92418805D01*
X110450178Y-92499294D01*
X110444000Y-92562023D01*
X110444000Y-92562033D01*
X110441935Y-92583000D01*
X110444000Y-92603968D01*
X110444001Y-93075787D01*
X110383977Y-93135811D01*
X110315360Y-93238504D01*
X110268095Y-93352611D01*
X110244000Y-93473746D01*
X110244000Y-93597254D01*
X110268095Y-93718389D01*
X110315360Y-93832496D01*
X110383977Y-93935189D01*
X110471311Y-94022523D01*
X110574004Y-94091140D01*
X110688111Y-94138405D01*
X110809246Y-94162500D01*
X110932754Y-94162500D01*
X111053889Y-94138405D01*
X111167996Y-94091140D01*
X111270689Y-94022523D01*
X111358023Y-93935189D01*
X111426640Y-93832496D01*
X111473905Y-93718389D01*
X111498000Y-93597254D01*
X111498000Y-93473746D01*
X111473905Y-93352611D01*
X111426640Y-93238504D01*
X111358023Y-93135811D01*
X111298000Y-93075788D01*
X111298000Y-92759868D01*
X111301869Y-92756000D01*
X111408833Y-92756000D01*
X111429800Y-92758065D01*
X111450767Y-92756000D01*
X111450778Y-92756000D01*
X111513507Y-92749822D01*
X111593996Y-92725405D01*
X111668176Y-92685755D01*
X111733195Y-92632395D01*
X111746568Y-92616100D01*
X112542201Y-91820467D01*
X112542201Y-94418475D01*
X112516738Y-94393012D01*
X112309255Y-94254376D01*
X112078712Y-94158882D01*
X111833969Y-94110200D01*
X111584431Y-94110200D01*
X111339688Y-94158882D01*
X111109145Y-94254376D01*
X110901662Y-94393012D01*
X110725212Y-94569462D01*
X110613627Y-94736461D01*
X110605065Y-94711914D01*
X110519923Y-94552623D01*
X110261676Y-94464129D01*
X109348805Y-95377000D01*
X109362948Y-95391143D01*
X109183343Y-95570748D01*
X109169200Y-95556605D01*
X109155058Y-95570748D01*
X108975453Y-95391143D01*
X108989595Y-95377000D01*
X108076724Y-94464129D01*
X107818477Y-94552623D01*
X107683603Y-94831976D01*
X107609424Y-95118356D01*
X107580968Y-95089900D01*
X107567595Y-95073605D01*
X107502576Y-95020245D01*
X107428396Y-94980595D01*
X107347907Y-94956178D01*
X107285178Y-94950000D01*
X107285167Y-94950000D01*
X107264200Y-94947935D01*
X107243233Y-94950000D01*
X95733106Y-94950000D01*
X95661424Y-94776945D01*
X95522788Y-94569462D01*
X95346338Y-94393012D01*
X95183975Y-94284524D01*
X108256329Y-94284524D01*
X109169200Y-95197395D01*
X110082071Y-94284524D01*
X109993577Y-94026277D01*
X109714224Y-93891403D01*
X109413925Y-93813619D01*
X109104223Y-93795916D01*
X108797016Y-93838973D01*
X108504114Y-93941135D01*
X108344823Y-94026277D01*
X108256329Y-94284524D01*
X95183975Y-94284524D01*
X95138855Y-94254376D01*
X94908312Y-94158882D01*
X94663569Y-94110200D01*
X94414031Y-94110200D01*
X94169288Y-94158882D01*
X93938745Y-94254376D01*
X93731262Y-94393012D01*
X93554812Y-94569462D01*
X93443227Y-94736461D01*
X93434665Y-94711914D01*
X93349523Y-94552623D01*
X93091276Y-94464129D01*
X92178405Y-95377000D01*
X93091276Y-96289871D01*
X93349523Y-96201377D01*
X93440356Y-96013243D01*
X93554812Y-96184538D01*
X93731262Y-96360988D01*
X93938745Y-96499624D01*
X94169288Y-96595118D01*
X94414031Y-96643800D01*
X94663569Y-96643800D01*
X94908312Y-96595118D01*
X95138855Y-96499624D01*
X95346338Y-96360988D01*
X95522788Y-96184538D01*
X95661424Y-95977055D01*
X95733106Y-95804000D01*
X107087332Y-95804000D01*
X108159026Y-96875695D01*
X98382165Y-96875292D01*
X92516997Y-96864099D01*
X92663886Y-96812865D01*
X92823177Y-96727723D01*
X92911671Y-96469476D01*
X91998800Y-95556605D01*
X91085929Y-96469476D01*
X91174423Y-96727723D01*
X91452680Y-96862068D01*
X87939399Y-96855363D01*
X87842636Y-96842374D01*
X87698355Y-96809079D01*
X87465419Y-96729575D01*
X87190846Y-96570759D01*
X86952347Y-96361635D01*
X86759009Y-96110169D01*
X86618198Y-95825941D01*
X86534988Y-95518712D01*
X86512001Y-95243667D01*
X86512051Y-94987377D01*
X86951500Y-94987377D01*
X86951500Y-95258623D01*
X87004417Y-95524656D01*
X87108218Y-95775254D01*
X87258914Y-96000787D01*
X87450713Y-96192586D01*
X87676246Y-96343282D01*
X87926844Y-96447083D01*
X88192877Y-96500000D01*
X88464123Y-96500000D01*
X88730156Y-96447083D01*
X88980754Y-96343282D01*
X89206287Y-96192586D01*
X89398086Y-96000787D01*
X89548782Y-95775254D01*
X89652583Y-95524656D01*
X89669028Y-95441977D01*
X90417716Y-95441977D01*
X90460773Y-95749184D01*
X90562935Y-96042086D01*
X90648077Y-96201377D01*
X90906324Y-96289871D01*
X91819195Y-95377000D01*
X90906324Y-94464129D01*
X90648077Y-94552623D01*
X90513203Y-94831976D01*
X90435419Y-95132275D01*
X90417716Y-95441977D01*
X89669028Y-95441977D01*
X89705500Y-95258623D01*
X89705500Y-94987377D01*
X89652583Y-94721344D01*
X89548782Y-94470746D01*
X89424353Y-94284524D01*
X91085929Y-94284524D01*
X91998800Y-95197395D01*
X92911671Y-94284524D01*
X92823177Y-94026277D01*
X92543824Y-93891403D01*
X92243525Y-93813619D01*
X91933823Y-93795916D01*
X91626616Y-93838973D01*
X91333714Y-93941135D01*
X91174423Y-94026277D01*
X91085929Y-94284524D01*
X89424353Y-94284524D01*
X89398086Y-94245213D01*
X89206287Y-94053414D01*
X88980754Y-93902718D01*
X88730156Y-93798917D01*
X88464123Y-93746000D01*
X88192877Y-93746000D01*
X87926844Y-93798917D01*
X87676246Y-93902718D01*
X87450713Y-94053414D01*
X87258914Y-94245213D01*
X87108218Y-94470746D01*
X87004417Y-94721344D01*
X86951500Y-94987377D01*
X86512051Y-94987377D01*
X86516506Y-72317877D01*
X86951500Y-72317877D01*
X86951500Y-72589123D01*
X87004417Y-72855156D01*
X87108218Y-73105754D01*
X87258914Y-73331287D01*
X87450713Y-73523086D01*
X87676246Y-73673782D01*
X87926844Y-73777583D01*
X88192877Y-73830500D01*
X88464123Y-73830500D01*
X88730156Y-73777583D01*
X88980754Y-73673782D01*
X89206287Y-73523086D01*
X89348497Y-73380876D01*
X91111329Y-73380876D01*
X91199823Y-73639123D01*
X91479176Y-73773997D01*
X91779475Y-73851781D01*
X92089177Y-73869484D01*
X92396384Y-73826427D01*
X92689286Y-73724265D01*
X92848577Y-73639123D01*
X92937071Y-73380876D01*
X92024200Y-72468005D01*
X91111329Y-73380876D01*
X89348497Y-73380876D01*
X89398086Y-73331287D01*
X89548782Y-73105754D01*
X89652583Y-72855156D01*
X89705500Y-72589123D01*
X89705500Y-72353377D01*
X90443116Y-72353377D01*
X90486173Y-72660584D01*
X90588335Y-72953486D01*
X90673477Y-73112777D01*
X90931724Y-73201271D01*
X91844595Y-72288400D01*
X92203805Y-72288400D01*
X93116676Y-73201271D01*
X93374923Y-73112777D01*
X93465756Y-72924643D01*
X93580212Y-73095938D01*
X93756662Y-73272388D01*
X93964145Y-73411024D01*
X94194688Y-73506518D01*
X94439431Y-73555200D01*
X94688969Y-73555200D01*
X94933712Y-73506518D01*
X95164255Y-73411024D01*
X95371738Y-73272388D01*
X95420726Y-73223400D01*
X96114532Y-73223400D01*
X99810036Y-76918905D01*
X99823405Y-76935195D01*
X99839695Y-76948564D01*
X99839699Y-76948568D01*
X99888423Y-76988556D01*
X99943304Y-77017889D01*
X99962604Y-77028205D01*
X100043093Y-77052622D01*
X100105822Y-77058800D01*
X100105833Y-77058800D01*
X100126800Y-77060865D01*
X100147767Y-77058800D01*
X100937088Y-77058800D01*
X100997111Y-77118823D01*
X101099804Y-77187440D01*
X101213911Y-77234705D01*
X101335046Y-77258800D01*
X101458554Y-77258800D01*
X101579689Y-77234705D01*
X101693796Y-77187440D01*
X101796489Y-77118823D01*
X101883823Y-77031489D01*
X101952440Y-76928796D01*
X101999705Y-76814689D01*
X102023800Y-76693554D01*
X102023800Y-76570046D01*
X101999705Y-76448911D01*
X101952440Y-76334804D01*
X101883823Y-76232111D01*
X101796489Y-76144777D01*
X101693796Y-76076160D01*
X101579689Y-76028895D01*
X101458554Y-76004800D01*
X101335046Y-76004800D01*
X101213911Y-76028895D01*
X101099804Y-76076160D01*
X100997111Y-76144777D01*
X100937088Y-76204800D01*
X100303669Y-76204800D01*
X96608168Y-72509300D01*
X96594795Y-72493005D01*
X96529776Y-72439645D01*
X96455596Y-72399995D01*
X96375107Y-72375578D01*
X96312378Y-72369400D01*
X96312367Y-72369400D01*
X96291400Y-72367335D01*
X96270433Y-72369400D01*
X95831000Y-72369400D01*
X95831000Y-72163631D01*
X99393400Y-72163631D01*
X99393400Y-72413169D01*
X99442082Y-72657912D01*
X99537576Y-72888455D01*
X99676212Y-73095938D01*
X99852662Y-73272388D01*
X100060145Y-73411024D01*
X100290688Y-73506518D01*
X100535431Y-73555200D01*
X100784969Y-73555200D01*
X101029712Y-73506518D01*
X101260255Y-73411024D01*
X101305374Y-73380876D01*
X102287329Y-73380876D01*
X102375823Y-73639123D01*
X102655176Y-73773997D01*
X102955475Y-73851781D01*
X103265177Y-73869484D01*
X103572384Y-73826427D01*
X103865286Y-73724265D01*
X104024577Y-73639123D01*
X104113071Y-73380876D01*
X103200200Y-72468005D01*
X102287329Y-73380876D01*
X101305374Y-73380876D01*
X101467738Y-73272388D01*
X101644188Y-73095938D01*
X101755773Y-72928939D01*
X101764335Y-72953486D01*
X101849477Y-73112777D01*
X102107724Y-73201271D01*
X103020595Y-72288400D01*
X103379805Y-72288400D01*
X104292676Y-73201271D01*
X104550923Y-73112777D01*
X104685797Y-72833424D01*
X104763581Y-72533125D01*
X104781284Y-72223423D01*
X104738227Y-71916216D01*
X104636065Y-71623314D01*
X104550923Y-71464023D01*
X104292676Y-71375529D01*
X103379805Y-72288400D01*
X103020595Y-72288400D01*
X102107724Y-71375529D01*
X101849477Y-71464023D01*
X101758644Y-71652157D01*
X101644188Y-71480862D01*
X101467738Y-71304412D01*
X101260255Y-71165776D01*
X101029712Y-71070282D01*
X100784969Y-71021600D01*
X100535431Y-71021600D01*
X100290688Y-71070282D01*
X100060145Y-71165776D01*
X99852662Y-71304412D01*
X99676212Y-71480862D01*
X99537576Y-71688345D01*
X99442082Y-71918888D01*
X99393400Y-72163631D01*
X95831000Y-72163631D01*
X95782318Y-71918888D01*
X95686824Y-71688345D01*
X95548188Y-71480862D01*
X95371738Y-71304412D01*
X95164255Y-71165776D01*
X94933712Y-71070282D01*
X94688969Y-71021600D01*
X94439431Y-71021600D01*
X94194688Y-71070282D01*
X93964145Y-71165776D01*
X93756662Y-71304412D01*
X93580212Y-71480862D01*
X93468627Y-71647861D01*
X93460065Y-71623314D01*
X93374923Y-71464023D01*
X93116676Y-71375529D01*
X92203805Y-72288400D01*
X91844595Y-72288400D01*
X90931724Y-71375529D01*
X90673477Y-71464023D01*
X90538603Y-71743376D01*
X90460819Y-72043675D01*
X90443116Y-72353377D01*
X89705500Y-72353377D01*
X89705500Y-72317877D01*
X89652583Y-72051844D01*
X89548782Y-71801246D01*
X89398086Y-71575713D01*
X89206287Y-71383914D01*
X88980754Y-71233218D01*
X88730156Y-71129417D01*
X88464123Y-71076500D01*
X88192877Y-71076500D01*
X87926844Y-71129417D01*
X87676246Y-71233218D01*
X87450713Y-71383914D01*
X87258914Y-71575713D01*
X87108218Y-71801246D01*
X87004417Y-72051844D01*
X86951500Y-72317877D01*
X86516506Y-72317877D01*
X86516515Y-72276217D01*
X86570224Y-71961530D01*
X86683308Y-71665171D01*
X86851796Y-71396428D01*
X87069280Y-71165523D01*
X87302885Y-70998805D01*
X87436478Y-70932009D01*
X87616531Y-70850657D01*
X87927859Y-70778127D01*
X88142980Y-70764000D01*
X91611316Y-70764569D01*
G36*
X94221300Y-80502762D02*
G01*
X94298548Y-80502762D01*
X94221300Y-80580010D01*
X94232386Y-80681930D01*
X94244932Y-80721200D01*
X94232386Y-80760470D01*
X94221300Y-80862390D01*
X94380050Y-81021140D01*
X94430771Y-81021140D01*
X94509646Y-81083953D01*
X94564299Y-81112140D01*
X94380050Y-81112140D01*
X94221300Y-81270890D01*
X94232386Y-81372810D01*
X94270453Y-81491961D01*
X94331032Y-81601397D01*
X94411798Y-81696911D01*
X94509646Y-81774833D01*
X94527718Y-81784154D01*
X94527718Y-81930020D01*
X94534032Y-81994123D01*
X94552730Y-82055763D01*
X94577957Y-82102960D01*
X94552730Y-82150157D01*
X94534032Y-82211797D01*
X94527718Y-82275900D01*
X94527718Y-82620900D01*
X94534032Y-82685003D01*
X94552730Y-82746643D01*
X94577957Y-82793840D01*
X94552730Y-82841037D01*
X94534032Y-82902677D01*
X94527718Y-82966780D01*
X94527718Y-83311780D01*
X94534032Y-83375883D01*
X94552730Y-83437523D01*
X94577957Y-83484720D01*
X94552730Y-83531917D01*
X94534032Y-83593557D01*
X94527718Y-83657660D01*
X94527718Y-84002660D01*
X94534032Y-84066763D01*
X94552730Y-84128403D01*
X94577957Y-84175600D01*
X94552730Y-84222797D01*
X94534032Y-84284437D01*
X94527718Y-84348540D01*
X94527718Y-84494406D01*
X94509646Y-84503727D01*
X94411798Y-84581649D01*
X94331032Y-84677163D01*
X94288943Y-84753197D01*
X94089500Y-84553754D01*
X94089500Y-80567868D01*
X94221300Y-80436068D01*
X94221300Y-80502762D01*
G37*
X94221300Y-80502762D02*
X94298548Y-80502762D01*
X94221300Y-80580010D01*
X94232386Y-80681930D01*
X94244932Y-80721200D01*
X94232386Y-80760470D01*
X94221300Y-80862390D01*
X94380050Y-81021140D01*
X94430771Y-81021140D01*
X94509646Y-81083953D01*
X94564299Y-81112140D01*
X94380050Y-81112140D01*
X94221300Y-81270890D01*
X94232386Y-81372810D01*
X94270453Y-81491961D01*
X94331032Y-81601397D01*
X94411798Y-81696911D01*
X94509646Y-81774833D01*
X94527718Y-81784154D01*
X94527718Y-81930020D01*
X94534032Y-81994123D01*
X94552730Y-82055763D01*
X94577957Y-82102960D01*
X94552730Y-82150157D01*
X94534032Y-82211797D01*
X94527718Y-82275900D01*
X94527718Y-82620900D01*
X94534032Y-82685003D01*
X94552730Y-82746643D01*
X94577957Y-82793840D01*
X94552730Y-82841037D01*
X94534032Y-82902677D01*
X94527718Y-82966780D01*
X94527718Y-83311780D01*
X94534032Y-83375883D01*
X94552730Y-83437523D01*
X94577957Y-83484720D01*
X94552730Y-83531917D01*
X94534032Y-83593557D01*
X94527718Y-83657660D01*
X94527718Y-84002660D01*
X94534032Y-84066763D01*
X94552730Y-84128403D01*
X94577957Y-84175600D01*
X94552730Y-84222797D01*
X94534032Y-84284437D01*
X94527718Y-84348540D01*
X94527718Y-84494406D01*
X94509646Y-84503727D01*
X94411798Y-84581649D01*
X94331032Y-84677163D01*
X94288943Y-84753197D01*
X94089500Y-84553754D01*
X94089500Y-80567868D01*
X94221300Y-80436068D01*
X94221300Y-80502762D01*
G36*
X94380050Y-77564200D02*
G01*
X95491300Y-77564200D01*
X95491300Y-77539199D01*
X95745300Y-77539199D01*
X95745300Y-77564200D01*
X95765300Y-77564200D01*
X95765300Y-77655200D01*
X95745300Y-77655200D01*
X95745300Y-77756700D01*
X95491300Y-77756700D01*
X95491300Y-77655200D01*
X94380050Y-77655200D01*
X94221300Y-77813950D01*
X94227786Y-77873580D01*
X93449784Y-77873580D01*
X93428819Y-77871515D01*
X93407854Y-77873580D01*
X93407842Y-77873580D01*
X93345113Y-77879758D01*
X93264624Y-77904175D01*
X93242744Y-77915870D01*
X93190443Y-77943825D01*
X93141718Y-77983812D01*
X93141709Y-77983821D01*
X93125425Y-77997185D01*
X93112061Y-78013469D01*
X92016495Y-79109037D01*
X92000206Y-79122405D01*
X91986837Y-79138695D01*
X91986832Y-79138700D01*
X91946845Y-79187424D01*
X91911747Y-79253089D01*
X91907196Y-79261604D01*
X91882779Y-79342093D01*
X91879150Y-79378945D01*
X91874535Y-79425800D01*
X91876601Y-79446777D01*
X91876600Y-81890020D01*
X91778004Y-81930860D01*
X91675311Y-81999477D01*
X91587977Y-82086811D01*
X91519360Y-82189504D01*
X91511400Y-82208721D01*
X91511400Y-78615512D01*
X91571423Y-78555489D01*
X91640040Y-78452796D01*
X91687305Y-78338689D01*
X91711400Y-78217554D01*
X91711400Y-78132668D01*
X92304870Y-77539199D01*
X94355049Y-77539199D01*
X94380050Y-77564200D01*
G37*
X94380050Y-77564200D02*
X95491300Y-77564200D01*
X95491300Y-77539199D01*
X95745300Y-77539199D01*
X95745300Y-77564200D01*
X95765300Y-77564200D01*
X95765300Y-77655200D01*
X95745300Y-77655200D01*
X95745300Y-77756700D01*
X95491300Y-77756700D01*
X95491300Y-77655200D01*
X94380050Y-77655200D01*
X94221300Y-77813950D01*
X94227786Y-77873580D01*
X93449784Y-77873580D01*
X93428819Y-77871515D01*
X93407854Y-77873580D01*
X93407842Y-77873580D01*
X93345113Y-77879758D01*
X93264624Y-77904175D01*
X93242744Y-77915870D01*
X93190443Y-77943825D01*
X93141718Y-77983812D01*
X93141709Y-77983821D01*
X93125425Y-77997185D01*
X93112061Y-78013469D01*
X92016495Y-79109037D01*
X92000206Y-79122405D01*
X91986837Y-79138695D01*
X91986832Y-79138700D01*
X91946845Y-79187424D01*
X91911747Y-79253089D01*
X91907196Y-79261604D01*
X91882779Y-79342093D01*
X91879150Y-79378945D01*
X91874535Y-79425800D01*
X91876601Y-79446777D01*
X91876600Y-81890020D01*
X91778004Y-81930860D01*
X91675311Y-81999477D01*
X91587977Y-82086811D01*
X91519360Y-82189504D01*
X91511400Y-82208721D01*
X91511400Y-78615512D01*
X91571423Y-78555489D01*
X91640040Y-78452796D01*
X91687305Y-78338689D01*
X91711400Y-78217554D01*
X91711400Y-78132668D01*
X92304870Y-77539199D01*
X94355049Y-77539199D01*
X94380050Y-77564200D01*
G36*
X97566201Y-78641968D02*
G01*
X97566200Y-81429888D01*
X97506177Y-81489911D01*
X97437560Y-81592604D01*
X97390295Y-81706711D01*
X97366200Y-81827846D01*
X97366200Y-81951354D01*
X97390295Y-82072489D01*
X97407644Y-82114374D01*
X96900574Y-81607303D01*
X96905568Y-81601397D01*
X96966147Y-81491961D01*
X97004214Y-81372810D01*
X97015300Y-81270890D01*
X96856550Y-81112140D01*
X96672301Y-81112140D01*
X96726954Y-81083953D01*
X96805829Y-81021140D01*
X96856550Y-81021140D01*
X97015300Y-80862390D01*
X97004214Y-80760470D01*
X96991668Y-80721200D01*
X97004214Y-80681930D01*
X97015300Y-80580010D01*
X96856550Y-80421260D01*
X96805829Y-80421260D01*
X96726954Y-80358447D01*
X96672301Y-80330260D01*
X96856550Y-80330260D01*
X97015300Y-80171510D01*
X97004214Y-80069590D01*
X96966147Y-79950439D01*
X96905568Y-79841003D01*
X96824802Y-79745489D01*
X96726954Y-79667567D01*
X96708882Y-79658246D01*
X96708882Y-79509840D01*
X96702568Y-79445737D01*
X96683870Y-79384097D01*
X96658643Y-79336900D01*
X96683870Y-79289703D01*
X96702568Y-79228063D01*
X96708882Y-79163960D01*
X96708882Y-78818960D01*
X96702568Y-78754857D01*
X96683870Y-78693217D01*
X96658643Y-78646020D01*
X96683870Y-78598823D01*
X96702568Y-78537183D01*
X96708882Y-78473080D01*
X96708882Y-78327214D01*
X96726954Y-78317893D01*
X96824802Y-78239971D01*
X96905568Y-78144457D01*
X96963691Y-78039458D01*
X97566201Y-78641968D01*
G37*
X97566201Y-78641968D02*
X97566200Y-81429888D01*
X97506177Y-81489911D01*
X97437560Y-81592604D01*
X97390295Y-81706711D01*
X97366200Y-81827846D01*
X97366200Y-81951354D01*
X97390295Y-82072489D01*
X97407644Y-82114374D01*
X96900574Y-81607303D01*
X96905568Y-81601397D01*
X96966147Y-81491961D01*
X97004214Y-81372810D01*
X97015300Y-81270890D01*
X96856550Y-81112140D01*
X96672301Y-81112140D01*
X96726954Y-81083953D01*
X96805829Y-81021140D01*
X96856550Y-81021140D01*
X97015300Y-80862390D01*
X97004214Y-80760470D01*
X96991668Y-80721200D01*
X97004214Y-80681930D01*
X97015300Y-80580010D01*
X96856550Y-80421260D01*
X96805829Y-80421260D01*
X96726954Y-80358447D01*
X96672301Y-80330260D01*
X96856550Y-80330260D01*
X97015300Y-80171510D01*
X97004214Y-80069590D01*
X96966147Y-79950439D01*
X96905568Y-79841003D01*
X96824802Y-79745489D01*
X96726954Y-79667567D01*
X96708882Y-79658246D01*
X96708882Y-79509840D01*
X96702568Y-79445737D01*
X96683870Y-79384097D01*
X96658643Y-79336900D01*
X96683870Y-79289703D01*
X96702568Y-79228063D01*
X96708882Y-79163960D01*
X96708882Y-78818960D01*
X96702568Y-78754857D01*
X96683870Y-78693217D01*
X96658643Y-78646020D01*
X96683870Y-78598823D01*
X96702568Y-78537183D01*
X96708882Y-78473080D01*
X96708882Y-78327214D01*
X96726954Y-78317893D01*
X96824802Y-78239971D01*
X96905568Y-78144457D01*
X96963691Y-78039458D01*
X97566201Y-78641968D01*
G36*
X95745300Y-80330260D02*
G01*
X95832930Y-80330260D01*
X95745300Y-80417890D01*
X95745300Y-81024510D01*
X95832930Y-81112140D01*
X95745300Y-81112140D01*
X95745300Y-81213640D01*
X95491300Y-81213640D01*
X95491300Y-81112140D01*
X95403670Y-81112140D01*
X95491300Y-81024510D01*
X95491300Y-80417890D01*
X95471300Y-80397890D01*
X95471300Y-80330260D01*
X95491300Y-80330260D01*
X95491300Y-80228760D01*
X95745300Y-80228760D01*
X95745300Y-80330260D01*
G37*
X95745300Y-80330260D02*
X95832930Y-80330260D01*
X95745300Y-80417890D01*
X95745300Y-81024510D01*
X95832930Y-81112140D01*
X95745300Y-81112140D01*
X95745300Y-81213640D01*
X95491300Y-81213640D01*
X95491300Y-81112140D01*
X95403670Y-81112140D01*
X95491300Y-81024510D01*
X95491300Y-80417890D01*
X95471300Y-80397890D01*
X95471300Y-80330260D01*
X95491300Y-80330260D01*
X95491300Y-80228760D01*
X95745300Y-80228760D01*
X95745300Y-80330260D01*
%TD*%
M02*
