%TF.GenerationSoftware,KiCad,Pcbnew,(5.1.6)-1*%
%TF.CreationDate,2020-12-06T14:18:51+01:00*%
%TF.ProjectId,Kicad_Smart_Watch,4b696361-645f-4536-9d61-72745f576174,rev?*%
%TF.SameCoordinates,Original*%
%TF.FileFunction,Soldermask,Bot*%
%TF.FilePolarity,Negative*%
%FSLAX46Y46*%
G04 Gerber Fmt 4.6, Leading zero omitted, Abs format (unit mm)*
G04 Created by KiCad (PCBNEW (5.1.6)-1) date 2020-12-06 14:18:51*
%MOMM*%
%LPD*%
G01*
G04 APERTURE LIST*
%ADD10C,0.100000*%
G04 APERTURE END LIST*
D10*
G36*
X109472965Y-94375620D02*
G01*
X109662488Y-94454123D01*
X109833054Y-94568092D01*
X109978108Y-94713146D01*
X109978109Y-94713148D01*
X110092078Y-94883714D01*
X110170580Y-95073235D01*
X110202049Y-95231439D01*
X110210600Y-95274431D01*
X110210600Y-95479569D01*
X110170580Y-95680765D01*
X110092077Y-95870288D01*
X109978108Y-96040854D01*
X109833054Y-96185908D01*
X109662488Y-96299877D01*
X109662487Y-96299878D01*
X109662486Y-96299878D01*
X109472965Y-96378380D01*
X109271770Y-96418400D01*
X109066630Y-96418400D01*
X108865435Y-96378380D01*
X108675914Y-96299878D01*
X108675913Y-96299878D01*
X108675912Y-96299877D01*
X108505346Y-96185908D01*
X108360292Y-96040854D01*
X108246323Y-95870288D01*
X108167820Y-95680765D01*
X108127800Y-95479569D01*
X108127800Y-95274431D01*
X108136352Y-95231439D01*
X108167820Y-95073235D01*
X108246322Y-94883714D01*
X108360291Y-94713148D01*
X108360292Y-94713146D01*
X108505346Y-94568092D01*
X108675912Y-94454123D01*
X108865435Y-94375620D01*
X109066630Y-94335600D01*
X109271770Y-94335600D01*
X109472965Y-94375620D01*
G37*
G36*
X94842565Y-94375620D02*
G01*
X95032088Y-94454123D01*
X95202654Y-94568092D01*
X95347708Y-94713146D01*
X95347709Y-94713148D01*
X95461678Y-94883714D01*
X95540180Y-95073235D01*
X95571649Y-95231439D01*
X95580200Y-95274431D01*
X95580200Y-95479569D01*
X95540180Y-95680765D01*
X95461677Y-95870288D01*
X95347708Y-96040854D01*
X95202654Y-96185908D01*
X95032088Y-96299877D01*
X95032087Y-96299878D01*
X95032086Y-96299878D01*
X94842565Y-96378380D01*
X94641370Y-96418400D01*
X94436230Y-96418400D01*
X94235035Y-96378380D01*
X94045514Y-96299878D01*
X94045513Y-96299878D01*
X94045512Y-96299877D01*
X93874946Y-96185908D01*
X93729892Y-96040854D01*
X93615923Y-95870288D01*
X93537420Y-95680765D01*
X93497400Y-95479569D01*
X93497400Y-95274431D01*
X93505952Y-95231439D01*
X93537420Y-95073235D01*
X93615922Y-94883714D01*
X93729891Y-94713148D01*
X93729892Y-94713146D01*
X93874946Y-94568092D01*
X94045512Y-94454123D01*
X94235035Y-94375620D01*
X94436230Y-94335600D01*
X94641370Y-94335600D01*
X94842565Y-94375620D01*
G37*
G36*
X92302565Y-94375620D02*
G01*
X92492088Y-94454123D01*
X92662654Y-94568092D01*
X92807708Y-94713146D01*
X92807709Y-94713148D01*
X92921678Y-94883714D01*
X93000180Y-95073235D01*
X93031649Y-95231439D01*
X93040200Y-95274431D01*
X93040200Y-95479569D01*
X93000180Y-95680765D01*
X92921677Y-95870288D01*
X92807708Y-96040854D01*
X92662654Y-96185908D01*
X92492088Y-96299877D01*
X92492087Y-96299878D01*
X92492086Y-96299878D01*
X92302565Y-96378380D01*
X92101370Y-96418400D01*
X91896230Y-96418400D01*
X91695035Y-96378380D01*
X91505514Y-96299878D01*
X91505513Y-96299878D01*
X91505512Y-96299877D01*
X91334946Y-96185908D01*
X91189892Y-96040854D01*
X91075923Y-95870288D01*
X90997420Y-95680765D01*
X90957400Y-95479569D01*
X90957400Y-95274431D01*
X90965952Y-95231439D01*
X90997420Y-95073235D01*
X91075922Y-94883714D01*
X91189891Y-94713148D01*
X91189892Y-94713146D01*
X91334946Y-94568092D01*
X91505512Y-94454123D01*
X91695035Y-94375620D01*
X91896230Y-94335600D01*
X92101370Y-94335600D01*
X92302565Y-94375620D01*
G37*
G36*
X112012965Y-94375620D02*
G01*
X112202488Y-94454123D01*
X112373054Y-94568092D01*
X112518108Y-94713146D01*
X112518109Y-94713148D01*
X112632078Y-94883714D01*
X112710580Y-95073235D01*
X112742049Y-95231439D01*
X112750600Y-95274431D01*
X112750600Y-95479569D01*
X112710580Y-95680765D01*
X112632077Y-95870288D01*
X112518108Y-96040854D01*
X112373054Y-96185908D01*
X112202488Y-96299877D01*
X112202487Y-96299878D01*
X112202486Y-96299878D01*
X112012965Y-96378380D01*
X111811770Y-96418400D01*
X111606630Y-96418400D01*
X111405435Y-96378380D01*
X111215914Y-96299878D01*
X111215913Y-96299878D01*
X111215912Y-96299877D01*
X111045346Y-96185908D01*
X110900292Y-96040854D01*
X110786323Y-95870288D01*
X110707820Y-95680765D01*
X110667800Y-95479569D01*
X110667800Y-95274431D01*
X110676352Y-95231439D01*
X110707820Y-95073235D01*
X110786322Y-94883714D01*
X110900291Y-94713148D01*
X110900292Y-94713146D01*
X111045346Y-94568092D01*
X111215912Y-94454123D01*
X111405435Y-94375620D01*
X111606630Y-94335600D01*
X111811770Y-94335600D01*
X112012965Y-94375620D01*
G37*
G36*
X88543295Y-94043156D02*
G01*
X88649650Y-94064311D01*
X88850020Y-94147307D01*
X89030344Y-94267795D01*
X89183705Y-94421156D01*
X89304193Y-94601480D01*
X89387189Y-94801851D01*
X89429500Y-95014560D01*
X89429500Y-95231440D01*
X89387189Y-95444149D01*
X89304193Y-95644520D01*
X89183705Y-95824844D01*
X89030344Y-95978205D01*
X88850020Y-96098693D01*
X88749834Y-96140191D01*
X88649650Y-96181689D01*
X88543295Y-96202844D01*
X88436940Y-96224000D01*
X88220060Y-96224000D01*
X88113705Y-96202844D01*
X88007350Y-96181689D01*
X87806980Y-96098693D01*
X87626656Y-95978205D01*
X87473295Y-95824844D01*
X87352807Y-95644520D01*
X87269811Y-95444149D01*
X87227500Y-95231440D01*
X87227500Y-95014560D01*
X87269811Y-94801851D01*
X87352807Y-94601480D01*
X87473295Y-94421156D01*
X87626656Y-94267795D01*
X87806980Y-94147307D01*
X88007350Y-94064311D01*
X88113705Y-94043156D01*
X88220060Y-94022000D01*
X88436940Y-94022000D01*
X88543295Y-94043156D01*
G37*
G36*
X115657795Y-94043156D02*
G01*
X115764150Y-94064311D01*
X115964520Y-94147307D01*
X116144844Y-94267795D01*
X116298205Y-94421156D01*
X116418693Y-94601480D01*
X116501689Y-94801851D01*
X116544000Y-95014560D01*
X116544000Y-95231440D01*
X116501689Y-95444149D01*
X116418693Y-95644520D01*
X116298205Y-95824844D01*
X116144844Y-95978205D01*
X115964520Y-96098693D01*
X115864334Y-96140191D01*
X115764150Y-96181689D01*
X115657795Y-96202844D01*
X115551440Y-96224000D01*
X115334560Y-96224000D01*
X115228205Y-96202844D01*
X115121850Y-96181689D01*
X114921480Y-96098693D01*
X114741156Y-95978205D01*
X114587795Y-95824844D01*
X114467307Y-95644520D01*
X114384311Y-95444149D01*
X114342000Y-95231440D01*
X114342000Y-95014560D01*
X114384311Y-94801851D01*
X114467307Y-94601480D01*
X114587795Y-94421156D01*
X114741156Y-94267795D01*
X114921480Y-94147307D01*
X115121850Y-94064311D01*
X115228205Y-94043156D01*
X115334560Y-94022000D01*
X115551440Y-94022000D01*
X115657795Y-94043156D01*
G37*
G36*
X96431300Y-85435420D02*
G01*
X94805300Y-85435420D01*
X94805300Y-77386200D01*
X96431300Y-77386200D01*
X96431300Y-85435420D01*
G37*
G36*
X115606775Y-71477807D02*
G01*
X115764150Y-71509111D01*
X115964520Y-71592107D01*
X116144844Y-71712595D01*
X116298205Y-71865956D01*
X116418693Y-72046280D01*
X116501689Y-72246651D01*
X116544000Y-72459360D01*
X116544000Y-72676240D01*
X116501689Y-72888949D01*
X116418693Y-73089320D01*
X116298205Y-73269644D01*
X116144844Y-73423005D01*
X115964520Y-73543493D01*
X115764150Y-73626489D01*
X115657795Y-73647644D01*
X115551440Y-73668800D01*
X115334560Y-73668800D01*
X115228205Y-73647644D01*
X115121850Y-73626489D01*
X114921480Y-73543493D01*
X114741156Y-73423005D01*
X114587795Y-73269644D01*
X114467307Y-73089320D01*
X114384311Y-72888949D01*
X114342000Y-72676240D01*
X114342000Y-72459360D01*
X114384311Y-72246651D01*
X114467307Y-72046280D01*
X114587795Y-71865956D01*
X114741156Y-71712595D01*
X114921480Y-71592107D01*
X115021666Y-71550609D01*
X115121850Y-71509111D01*
X115279225Y-71477807D01*
X115334560Y-71466800D01*
X115551440Y-71466800D01*
X115606775Y-71477807D01*
G37*
G36*
X88502405Y-71365522D02*
G01*
X88649650Y-71394811D01*
X88850020Y-71477807D01*
X89030344Y-71598295D01*
X89183705Y-71751656D01*
X89304193Y-71931980D01*
X89304193Y-71931981D01*
X89387189Y-72132350D01*
X89429500Y-72345061D01*
X89429500Y-72561939D01*
X89387189Y-72774650D01*
X89304193Y-72975020D01*
X89183705Y-73155344D01*
X89030344Y-73308705D01*
X88850020Y-73429193D01*
X88649650Y-73512189D01*
X88543295Y-73533344D01*
X88436940Y-73554500D01*
X88220060Y-73554500D01*
X88113705Y-73533344D01*
X88007350Y-73512189D01*
X87806980Y-73429193D01*
X87626656Y-73308705D01*
X87473295Y-73155344D01*
X87352807Y-72975020D01*
X87269811Y-72774650D01*
X87227500Y-72561939D01*
X87227500Y-72345061D01*
X87269811Y-72132350D01*
X87352807Y-71931981D01*
X87352807Y-71931980D01*
X87473295Y-71751656D01*
X87626656Y-71598295D01*
X87806980Y-71477807D01*
X88007350Y-71394811D01*
X88154595Y-71365522D01*
X88220060Y-71352500D01*
X88436940Y-71352500D01*
X88502405Y-71365522D01*
G37*
G36*
X100963965Y-71287020D02*
G01*
X101153488Y-71365523D01*
X101324054Y-71479492D01*
X101469108Y-71624546D01*
X101583077Y-71795112D01*
X101661580Y-71984635D01*
X101701600Y-72185831D01*
X101701600Y-72390969D01*
X101661580Y-72592165D01*
X101583077Y-72781688D01*
X101469108Y-72952254D01*
X101324054Y-73097308D01*
X101153488Y-73211277D01*
X101153487Y-73211278D01*
X101153486Y-73211278D01*
X100963965Y-73289780D01*
X100762770Y-73329800D01*
X100557630Y-73329800D01*
X100356435Y-73289780D01*
X100166914Y-73211278D01*
X100166913Y-73211278D01*
X100166912Y-73211277D01*
X99996346Y-73097308D01*
X99851292Y-72952254D01*
X99737323Y-72781688D01*
X99658820Y-72592165D01*
X99618800Y-72390969D01*
X99618800Y-72185831D01*
X99658820Y-71984635D01*
X99737323Y-71795112D01*
X99851292Y-71624546D01*
X99996346Y-71479492D01*
X100166912Y-71365523D01*
X100356435Y-71287020D01*
X100557630Y-71247000D01*
X100762770Y-71247000D01*
X100963965Y-71287020D01*
G37*
G36*
X103503965Y-71287020D02*
G01*
X103693488Y-71365523D01*
X103864054Y-71479492D01*
X104009108Y-71624546D01*
X104123077Y-71795112D01*
X104201580Y-71984635D01*
X104241600Y-72185831D01*
X104241600Y-72390969D01*
X104201580Y-72592165D01*
X104123077Y-72781688D01*
X104009108Y-72952254D01*
X103864054Y-73097308D01*
X103693488Y-73211277D01*
X103693487Y-73211278D01*
X103693486Y-73211278D01*
X103503965Y-73289780D01*
X103302770Y-73329800D01*
X103097630Y-73329800D01*
X102896435Y-73289780D01*
X102706914Y-73211278D01*
X102706913Y-73211278D01*
X102706912Y-73211277D01*
X102536346Y-73097308D01*
X102391292Y-72952254D01*
X102277323Y-72781688D01*
X102198820Y-72592165D01*
X102158800Y-72390969D01*
X102158800Y-72185831D01*
X102198820Y-71984635D01*
X102277323Y-71795112D01*
X102391292Y-71624546D01*
X102536346Y-71479492D01*
X102706912Y-71365523D01*
X102896435Y-71287020D01*
X103097630Y-71247000D01*
X103302770Y-71247000D01*
X103503965Y-71287020D01*
G37*
G36*
X94867965Y-71287020D02*
G01*
X95057488Y-71365523D01*
X95228054Y-71479492D01*
X95373108Y-71624546D01*
X95487077Y-71795112D01*
X95565580Y-71984635D01*
X95605600Y-72185831D01*
X95605600Y-72390969D01*
X95565580Y-72592165D01*
X95487077Y-72781688D01*
X95373108Y-72952254D01*
X95228054Y-73097308D01*
X95057488Y-73211277D01*
X95057487Y-73211278D01*
X95057486Y-73211278D01*
X94867965Y-73289780D01*
X94666770Y-73329800D01*
X94461630Y-73329800D01*
X94260435Y-73289780D01*
X94070914Y-73211278D01*
X94070913Y-73211278D01*
X94070912Y-73211277D01*
X93900346Y-73097308D01*
X93755292Y-72952254D01*
X93641323Y-72781688D01*
X93562820Y-72592165D01*
X93522800Y-72390969D01*
X93522800Y-72185831D01*
X93562820Y-71984635D01*
X93641323Y-71795112D01*
X93755292Y-71624546D01*
X93900346Y-71479492D01*
X94070912Y-71365523D01*
X94260435Y-71287020D01*
X94461630Y-71247000D01*
X94666770Y-71247000D01*
X94867965Y-71287020D01*
G37*
G36*
X92327965Y-71287020D02*
G01*
X92517488Y-71365523D01*
X92688054Y-71479492D01*
X92833108Y-71624546D01*
X92947077Y-71795112D01*
X93025580Y-71984635D01*
X93065600Y-72185831D01*
X93065600Y-72390969D01*
X93025580Y-72592165D01*
X92947077Y-72781688D01*
X92833108Y-72952254D01*
X92688054Y-73097308D01*
X92517488Y-73211277D01*
X92517487Y-73211278D01*
X92517486Y-73211278D01*
X92327965Y-73289780D01*
X92126770Y-73329800D01*
X91921630Y-73329800D01*
X91720435Y-73289780D01*
X91530914Y-73211278D01*
X91530913Y-73211278D01*
X91530912Y-73211277D01*
X91360346Y-73097308D01*
X91215292Y-72952254D01*
X91101323Y-72781688D01*
X91022820Y-72592165D01*
X90982800Y-72390969D01*
X90982800Y-72185831D01*
X91022820Y-71984635D01*
X91101323Y-71795112D01*
X91215292Y-71624546D01*
X91360346Y-71479492D01*
X91530912Y-71365523D01*
X91720435Y-71287020D01*
X91921630Y-71247000D01*
X92126770Y-71247000D01*
X92327965Y-71287020D01*
G37*
G36*
X109523765Y-71287020D02*
G01*
X109713288Y-71365523D01*
X109883854Y-71479492D01*
X110028908Y-71624546D01*
X110142877Y-71795112D01*
X110221380Y-71984635D01*
X110261400Y-72185831D01*
X110261400Y-72390969D01*
X110221380Y-72592165D01*
X110142877Y-72781688D01*
X110028908Y-72952254D01*
X109883854Y-73097308D01*
X109713288Y-73211277D01*
X109713287Y-73211278D01*
X109713286Y-73211278D01*
X109523765Y-73289780D01*
X109322570Y-73329800D01*
X109117430Y-73329800D01*
X108916235Y-73289780D01*
X108726714Y-73211278D01*
X108726713Y-73211278D01*
X108726712Y-73211277D01*
X108556146Y-73097308D01*
X108411092Y-72952254D01*
X108297123Y-72781688D01*
X108218620Y-72592165D01*
X108178600Y-72390969D01*
X108178600Y-72185831D01*
X108218620Y-71984635D01*
X108297123Y-71795112D01*
X108411092Y-71624546D01*
X108556146Y-71479492D01*
X108726712Y-71365523D01*
X108916235Y-71287020D01*
X109117430Y-71247000D01*
X109322570Y-71247000D01*
X109523765Y-71287020D01*
G37*
G36*
X112063765Y-71287020D02*
G01*
X112253288Y-71365523D01*
X112423854Y-71479492D01*
X112568908Y-71624546D01*
X112682877Y-71795112D01*
X112761380Y-71984635D01*
X112801400Y-72185831D01*
X112801400Y-72390969D01*
X112761380Y-72592165D01*
X112682877Y-72781688D01*
X112568908Y-72952254D01*
X112423854Y-73097308D01*
X112253288Y-73211277D01*
X112253287Y-73211278D01*
X112253286Y-73211278D01*
X112063765Y-73289780D01*
X111862570Y-73329800D01*
X111657430Y-73329800D01*
X111456235Y-73289780D01*
X111266714Y-73211278D01*
X111266713Y-73211278D01*
X111266712Y-73211277D01*
X111096146Y-73097308D01*
X110951092Y-72952254D01*
X110837123Y-72781688D01*
X110758620Y-72592165D01*
X110718600Y-72390969D01*
X110718600Y-72185831D01*
X110758620Y-71984635D01*
X110837123Y-71795112D01*
X110951092Y-71624546D01*
X111096146Y-71479492D01*
X111266712Y-71365523D01*
X111456235Y-71287020D01*
X111657430Y-71247000D01*
X111862570Y-71247000D01*
X112063765Y-71287020D01*
G37*
M02*
