%TF.GenerationSoftware,KiCad,Pcbnew,(5.1.6)-1*%
%TF.CreationDate,2021-05-28T10:30:19+02:00*%
%TF.ProjectId,Kicad_Smart_Watch,4b696361-645f-4536-9d61-72745f576174,rev?*%
%TF.SameCoordinates,Original*%
%TF.FileFunction,Soldermask,Top*%
%TF.FilePolarity,Negative*%
%FSLAX46Y46*%
G04 Gerber Fmt 4.6, Leading zero omitted, Abs format (unit mm)*
G04 Created by KiCad (PCBNEW (5.1.6)-1) date 2021-05-28 10:30:19*
%MOMM*%
%LPD*%
G01*
G04 APERTURE LIST*
%ADD10C,0.010000*%
%ADD11C,0.100000*%
G04 APERTURE END LIST*
D10*
%TO.C,U3*%
G36*
X86567000Y-74560110D02*
G01*
X86567000Y-73163500D01*
X83865920Y-73163500D01*
X83865920Y-74560110D01*
X86567000Y-74560110D01*
G37*
X86567000Y-74560110D02*
X86567000Y-73163500D01*
X83865920Y-73163500D01*
X83865920Y-74560110D01*
X86567000Y-74560110D01*
G36*
X86567000Y-84446720D02*
G01*
X86567000Y-83043500D01*
X83866230Y-83043500D01*
X83866230Y-84446720D01*
X86567000Y-84446720D01*
G37*
X86567000Y-84446720D02*
X86567000Y-83043500D01*
X83866230Y-83043500D01*
X83866230Y-84446720D01*
X86567000Y-84446720D01*
D11*
G36*
X112313765Y-95875620D02*
G01*
X112503288Y-95954123D01*
X112673854Y-96068092D01*
X112818908Y-96213146D01*
X112932877Y-96383712D01*
X113011380Y-96573235D01*
X113051400Y-96774431D01*
X113051400Y-96979569D01*
X113011380Y-97180765D01*
X112932877Y-97370288D01*
X112818908Y-97540854D01*
X112673854Y-97685908D01*
X112503288Y-97799877D01*
X112503287Y-97799878D01*
X112503286Y-97799878D01*
X112313765Y-97878380D01*
X112112570Y-97918400D01*
X111907430Y-97918400D01*
X111706235Y-97878380D01*
X111516714Y-97799878D01*
X111516713Y-97799878D01*
X111516712Y-97799877D01*
X111346146Y-97685908D01*
X111201092Y-97540854D01*
X111087123Y-97370288D01*
X111008620Y-97180765D01*
X110968600Y-96979569D01*
X110968600Y-96774431D01*
X111008620Y-96573235D01*
X111087123Y-96383712D01*
X111201092Y-96213146D01*
X111346146Y-96068092D01*
X111516712Y-95954123D01*
X111706235Y-95875620D01*
X111907430Y-95835600D01*
X112112570Y-95835600D01*
X112313765Y-95875620D01*
G37*
G36*
X107273765Y-95875620D02*
G01*
X107463288Y-95954123D01*
X107633854Y-96068092D01*
X107778908Y-96213146D01*
X107892877Y-96383712D01*
X107971380Y-96573235D01*
X108011400Y-96774431D01*
X108011400Y-96979569D01*
X107971380Y-97180765D01*
X107892877Y-97370288D01*
X107778908Y-97540854D01*
X107633854Y-97685908D01*
X107463288Y-97799877D01*
X107463287Y-97799878D01*
X107463286Y-97799878D01*
X107273765Y-97878380D01*
X107072570Y-97918400D01*
X106867430Y-97918400D01*
X106666235Y-97878380D01*
X106476714Y-97799878D01*
X106476713Y-97799878D01*
X106476712Y-97799877D01*
X106306146Y-97685908D01*
X106161092Y-97540854D01*
X106047123Y-97370288D01*
X105968620Y-97180765D01*
X105928600Y-96979569D01*
X105928600Y-96774431D01*
X105968620Y-96573235D01*
X106047123Y-96383712D01*
X106161092Y-96213146D01*
X106306146Y-96068092D01*
X106476712Y-95954123D01*
X106666235Y-95875620D01*
X106867430Y-95835600D01*
X107072570Y-95835600D01*
X107273765Y-95875620D01*
G37*
G36*
X97117965Y-95875620D02*
G01*
X97307488Y-95954123D01*
X97478054Y-96068092D01*
X97623108Y-96213146D01*
X97737077Y-96383712D01*
X97815580Y-96573235D01*
X97855600Y-96774431D01*
X97855600Y-96979569D01*
X97815580Y-97180765D01*
X97737077Y-97370288D01*
X97623108Y-97540854D01*
X97478054Y-97685908D01*
X97307488Y-97799877D01*
X97307487Y-97799878D01*
X97307486Y-97799878D01*
X97117965Y-97878380D01*
X96916770Y-97918400D01*
X96711630Y-97918400D01*
X96510435Y-97878380D01*
X96320914Y-97799878D01*
X96320913Y-97799878D01*
X96320912Y-97799877D01*
X96150346Y-97685908D01*
X96005292Y-97540854D01*
X95891323Y-97370288D01*
X95812820Y-97180765D01*
X95772800Y-96979569D01*
X95772800Y-96774431D01*
X95812820Y-96573235D01*
X95891323Y-96383712D01*
X96005292Y-96213146D01*
X96150346Y-96068092D01*
X96320912Y-95954123D01*
X96510435Y-95875620D01*
X96711630Y-95835600D01*
X96916770Y-95835600D01*
X97117965Y-95875620D01*
G37*
G36*
X92077965Y-95875620D02*
G01*
X92267488Y-95954123D01*
X92438054Y-96068092D01*
X92583108Y-96213146D01*
X92697077Y-96383712D01*
X92775580Y-96573235D01*
X92815600Y-96774431D01*
X92815600Y-96979569D01*
X92775580Y-97180765D01*
X92697077Y-97370288D01*
X92583108Y-97540854D01*
X92438054Y-97685908D01*
X92267488Y-97799877D01*
X92267487Y-97799878D01*
X92267486Y-97799878D01*
X92077965Y-97878380D01*
X91876770Y-97918400D01*
X91671630Y-97918400D01*
X91470435Y-97878380D01*
X91280914Y-97799878D01*
X91280913Y-97799878D01*
X91280912Y-97799877D01*
X91110346Y-97685908D01*
X90965292Y-97540854D01*
X90851323Y-97370288D01*
X90772820Y-97180765D01*
X90732800Y-96979569D01*
X90732800Y-96774431D01*
X90772820Y-96573235D01*
X90851323Y-96383712D01*
X90965292Y-96213146D01*
X91110346Y-96068092D01*
X91280912Y-95954123D01*
X91470435Y-95875620D01*
X91671630Y-95835600D01*
X91876770Y-95835600D01*
X92077965Y-95875620D01*
G37*
G36*
X100436500Y-97452000D02*
G01*
X99334500Y-97452000D01*
X99334500Y-96350000D01*
X100436500Y-96350000D01*
X100436500Y-97452000D01*
G37*
G36*
X104373500Y-97452000D02*
G01*
X103271500Y-97452000D01*
X103271500Y-96350000D01*
X104373500Y-96350000D01*
X104373500Y-97452000D01*
G37*
G36*
X102417700Y-97452000D02*
G01*
X101315700Y-97452000D01*
X101315700Y-96350000D01*
X102417700Y-96350000D01*
X102417700Y-97452000D01*
G37*
G36*
X104373500Y-95319800D02*
G01*
X103271500Y-95319800D01*
X103271500Y-94217800D01*
X104373500Y-94217800D01*
X104373500Y-95319800D01*
G37*
G36*
X102417700Y-95319800D02*
G01*
X101315700Y-95319800D01*
X101315700Y-94217800D01*
X102417700Y-94217800D01*
X102417700Y-95319800D01*
G37*
G36*
X100436500Y-95319800D02*
G01*
X99334500Y-95319800D01*
X99334500Y-94217800D01*
X100436500Y-94217800D01*
X100436500Y-95319800D01*
G37*
G36*
X85719103Y-91306650D02*
G01*
X85855650Y-91333811D01*
X85955834Y-91375309D01*
X86056020Y-91416807D01*
X86236344Y-91537295D01*
X86389705Y-91690656D01*
X86510193Y-91870980D01*
X86510193Y-91870981D01*
X86591019Y-92066110D01*
X86593189Y-92071351D01*
X86635500Y-92284060D01*
X86635500Y-92500940D01*
X86593189Y-92713649D01*
X86510193Y-92914020D01*
X86389705Y-93094344D01*
X86236344Y-93247705D01*
X86056020Y-93368193D01*
X85855650Y-93451189D01*
X85749294Y-93472345D01*
X85642940Y-93493500D01*
X85426060Y-93493500D01*
X85319706Y-93472345D01*
X85213350Y-93451189D01*
X85012980Y-93368193D01*
X84832656Y-93247705D01*
X84679295Y-93094344D01*
X84558807Y-92914020D01*
X84475811Y-92713649D01*
X84433500Y-92500940D01*
X84433500Y-92284060D01*
X84475811Y-92071351D01*
X84477982Y-92066110D01*
X84558807Y-91870981D01*
X84558807Y-91870980D01*
X84679295Y-91690656D01*
X84832656Y-91537295D01*
X85012980Y-91416807D01*
X85113166Y-91375309D01*
X85213350Y-91333811D01*
X85349897Y-91306650D01*
X85426060Y-91291500D01*
X85642940Y-91291500D01*
X85719103Y-91306650D01*
G37*
G36*
X118358103Y-91306650D02*
G01*
X118494650Y-91333811D01*
X118594834Y-91375309D01*
X118695020Y-91416807D01*
X118875344Y-91537295D01*
X119028705Y-91690656D01*
X119149193Y-91870980D01*
X119149193Y-91870981D01*
X119230019Y-92066110D01*
X119232189Y-92071351D01*
X119274500Y-92284060D01*
X119274500Y-92500940D01*
X119232189Y-92713649D01*
X119149193Y-92914020D01*
X119028705Y-93094344D01*
X118875344Y-93247705D01*
X118695020Y-93368193D01*
X118494650Y-93451189D01*
X118388294Y-93472345D01*
X118281940Y-93493500D01*
X118065060Y-93493500D01*
X117958706Y-93472345D01*
X117852350Y-93451189D01*
X117651980Y-93368193D01*
X117471656Y-93247705D01*
X117318295Y-93094344D01*
X117197807Y-92914020D01*
X117114811Y-92713649D01*
X117072500Y-92500940D01*
X117072500Y-92284060D01*
X117114811Y-92071351D01*
X117116982Y-92066110D01*
X117197807Y-91870981D01*
X117197807Y-91870980D01*
X117318295Y-91690656D01*
X117471656Y-91537295D01*
X117651980Y-91416807D01*
X117752166Y-91375309D01*
X117852350Y-91333811D01*
X117988897Y-91306650D01*
X118065060Y-91291500D01*
X118281940Y-91291500D01*
X118358103Y-91306650D01*
G37*
G36*
X111395510Y-93247210D02*
G01*
X110092490Y-93247210D01*
X110092490Y-92045790D01*
X111395510Y-92045790D01*
X111395510Y-93247210D01*
G37*
G36*
X113092230Y-93247210D02*
G01*
X111789210Y-93247210D01*
X111789210Y-92045790D01*
X113092230Y-92045790D01*
X113092230Y-93247210D01*
G37*
G36*
X109503210Y-93003370D02*
G01*
X108301790Y-93003370D01*
X108301790Y-91700350D01*
X109503210Y-91700350D01*
X109503210Y-93003370D01*
G37*
G36*
X107979210Y-93003370D02*
G01*
X106777790Y-93003370D01*
X106777790Y-91700350D01*
X107979210Y-91700350D01*
X107979210Y-93003370D01*
G37*
G36*
X91546500Y-92689500D02*
G01*
X90444500Y-92689500D01*
X90444500Y-91587500D01*
X91546500Y-91587500D01*
X91546500Y-92689500D01*
G37*
G36*
X95276670Y-92066110D02*
G01*
X93973650Y-92066110D01*
X93973650Y-90864690D01*
X95276670Y-90864690D01*
X95276670Y-92066110D01*
G37*
G36*
X93579950Y-92066110D02*
G01*
X92276930Y-92066110D01*
X92276930Y-90864690D01*
X93579950Y-90864690D01*
X93579950Y-92066110D01*
G37*
G36*
X96831150Y-92066110D02*
G01*
X95528130Y-92066110D01*
X95528130Y-90864690D01*
X96831150Y-90864690D01*
X96831150Y-92066110D01*
G37*
G36*
X98527870Y-92066110D02*
G01*
X97224850Y-92066110D01*
X97224850Y-90864690D01*
X98527870Y-90864690D01*
X98527870Y-92066110D01*
G37*
G36*
X102529640Y-91512390D02*
G01*
X100426520Y-91512390D01*
X100426520Y-90209370D01*
X102529640Y-90209370D01*
X102529640Y-91512390D01*
G37*
G36*
X106227880Y-91512390D02*
G01*
X104124760Y-91512390D01*
X104124760Y-90209370D01*
X106227880Y-90209370D01*
X106227880Y-91512390D01*
G37*
G36*
X113131600Y-91475000D02*
G01*
X112529600Y-91475000D01*
X112529600Y-90573000D01*
X113131600Y-90573000D01*
X113131600Y-91475000D01*
G37*
G36*
X110431600Y-91475000D02*
G01*
X109829600Y-91475000D01*
X109829600Y-90573000D01*
X110431600Y-90573000D01*
X110431600Y-91475000D01*
G37*
G36*
X111331600Y-91475000D02*
G01*
X110729600Y-91475000D01*
X110729600Y-90573000D01*
X111331600Y-90573000D01*
X111331600Y-91475000D01*
G37*
G36*
X112231600Y-91475000D02*
G01*
X111629600Y-91475000D01*
X111629600Y-90573000D01*
X112231600Y-90573000D01*
X112231600Y-91475000D01*
G37*
G36*
X107979210Y-91306650D02*
G01*
X106777790Y-91306650D01*
X106777790Y-90003630D01*
X107979210Y-90003630D01*
X107979210Y-91306650D01*
G37*
G36*
X109503210Y-91306650D02*
G01*
X108301790Y-91306650D01*
X108301790Y-90003630D01*
X109503210Y-90003630D01*
X109503210Y-91306650D01*
G37*
G36*
X99990910Y-91238070D02*
G01*
X98789490Y-91238070D01*
X98789490Y-89935050D01*
X99990910Y-89935050D01*
X99990910Y-91238070D01*
G37*
G36*
X91786710Y-90780870D02*
G01*
X90585290Y-90780870D01*
X90585290Y-89477850D01*
X91786710Y-89477850D01*
X91786710Y-90780870D01*
G37*
G36*
X88611710Y-90780870D02*
G01*
X87410290Y-90780870D01*
X87410290Y-89477850D01*
X88611710Y-89477850D01*
X88611710Y-90780870D01*
G37*
G36*
X90199210Y-90780870D02*
G01*
X88997790Y-90780870D01*
X88997790Y-89477850D01*
X90199210Y-89477850D01*
X90199210Y-90780870D01*
G37*
G36*
X95276670Y-90542110D02*
G01*
X93973650Y-90542110D01*
X93973650Y-89340690D01*
X95276670Y-89340690D01*
X95276670Y-90542110D01*
G37*
G36*
X93579950Y-90542110D02*
G01*
X92276930Y-90542110D01*
X92276930Y-89340690D01*
X93579950Y-89340690D01*
X93579950Y-90542110D01*
G37*
G36*
X96697000Y-90344000D02*
G01*
X95735000Y-90344000D01*
X95735000Y-88472000D01*
X96697000Y-88472000D01*
X96697000Y-90344000D01*
G37*
G36*
X98067000Y-90344000D02*
G01*
X97105000Y-90344000D01*
X97105000Y-88472000D01*
X98067000Y-88472000D01*
X98067000Y-90344000D01*
G37*
G36*
X112231600Y-90275000D02*
G01*
X111629600Y-90275000D01*
X111629600Y-89373000D01*
X112231600Y-89373000D01*
X112231600Y-90275000D01*
G37*
G36*
X111331600Y-90275000D02*
G01*
X110729600Y-90275000D01*
X110729600Y-89373000D01*
X111331600Y-89373000D01*
X111331600Y-90275000D01*
G37*
G36*
X110431600Y-90275000D02*
G01*
X109829600Y-90275000D01*
X109829600Y-89373000D01*
X110431600Y-89373000D01*
X110431600Y-90275000D01*
G37*
G36*
X113131600Y-90275000D02*
G01*
X112529600Y-90275000D01*
X112529600Y-89373000D01*
X113131600Y-89373000D01*
X113131600Y-90275000D01*
G37*
G36*
X99990910Y-89541350D02*
G01*
X98789490Y-89541350D01*
X98789490Y-88238330D01*
X99990910Y-88238330D01*
X99990910Y-89541350D01*
G37*
G36*
X106227880Y-89216230D02*
G01*
X104124760Y-89216230D01*
X104124760Y-87913210D01*
X106227880Y-87913210D01*
X106227880Y-89216230D01*
G37*
G36*
X102529640Y-89216230D02*
G01*
X100426520Y-89216230D01*
X100426520Y-87913210D01*
X102529640Y-87913210D01*
X102529640Y-89216230D01*
G37*
G36*
X108296710Y-89206070D02*
G01*
X107095290Y-89206070D01*
X107095290Y-87903050D01*
X108296710Y-87903050D01*
X108296710Y-89206070D01*
G37*
G36*
X88611710Y-89084150D02*
G01*
X87410290Y-89084150D01*
X87410290Y-87781130D01*
X88611710Y-87781130D01*
X88611710Y-89084150D01*
G37*
G36*
X90199210Y-89084150D02*
G01*
X88997790Y-89084150D01*
X88997790Y-87781130D01*
X90199210Y-87781130D01*
X90199210Y-89084150D01*
G37*
G36*
X91786710Y-89084150D02*
G01*
X90585290Y-89084150D01*
X90585290Y-87781130D01*
X91786710Y-87781130D01*
X91786710Y-89084150D01*
G37*
G36*
X93579950Y-88941910D02*
G01*
X92276930Y-88941910D01*
X92276930Y-87740490D01*
X93579950Y-87740490D01*
X93579950Y-88941910D01*
G37*
G36*
X95276670Y-88941910D02*
G01*
X93973650Y-88941910D01*
X93973650Y-87740490D01*
X95276670Y-87740490D01*
X95276670Y-88941910D01*
G37*
G36*
X112291991Y-87501285D02*
G01*
X112325969Y-87511593D01*
X112357290Y-87528334D01*
X112384739Y-87550861D01*
X112407266Y-87578310D01*
X112424007Y-87609631D01*
X112434315Y-87643609D01*
X112438400Y-87685090D01*
X112438400Y-88286310D01*
X112434315Y-88327791D01*
X112424007Y-88361769D01*
X112407266Y-88393090D01*
X112384739Y-88420539D01*
X112357290Y-88443066D01*
X112325969Y-88459807D01*
X112291991Y-88470115D01*
X112250510Y-88474200D01*
X111574290Y-88474200D01*
X111532809Y-88470115D01*
X111498831Y-88459807D01*
X111467510Y-88443066D01*
X111440061Y-88420539D01*
X111417534Y-88393090D01*
X111400793Y-88361769D01*
X111390485Y-88327791D01*
X111386400Y-88286310D01*
X111386400Y-87685090D01*
X111390485Y-87643609D01*
X111400793Y-87609631D01*
X111417534Y-87578310D01*
X111440061Y-87550861D01*
X111467510Y-87528334D01*
X111498831Y-87511593D01*
X111532809Y-87501285D01*
X111574290Y-87497200D01*
X112250510Y-87497200D01*
X112291991Y-87501285D01*
G37*
G36*
X110912910Y-88012270D02*
G01*
X109711490Y-88012270D01*
X109711490Y-86709250D01*
X110912910Y-86709250D01*
X110912910Y-88012270D01*
G37*
G36*
X96894650Y-87913210D02*
G01*
X95591630Y-87913210D01*
X95591630Y-86711790D01*
X96894650Y-86711790D01*
X96894650Y-87913210D01*
G37*
G36*
X98591370Y-87913210D02*
G01*
X97288350Y-87913210D01*
X97288350Y-86711790D01*
X98591370Y-86711790D01*
X98591370Y-87913210D01*
G37*
G36*
X108296710Y-87509350D02*
G01*
X107095290Y-87509350D01*
X107095290Y-86206330D01*
X108296710Y-86206330D01*
X108296710Y-87509350D01*
G37*
G36*
X94320360Y-87403940D02*
G01*
X93218000Y-87403940D01*
X93218000Y-86403180D01*
X94320360Y-86403180D01*
X94320360Y-87403940D01*
G37*
G36*
X87936000Y-85408001D02*
G01*
X87938402Y-85432387D01*
X87945515Y-85455836D01*
X87957066Y-85477447D01*
X87972611Y-85496389D01*
X87991553Y-85511934D01*
X88013164Y-85523485D01*
X88036613Y-85530598D01*
X88060999Y-85533000D01*
X89739001Y-85533000D01*
X89763387Y-85530598D01*
X89786836Y-85523485D01*
X89808447Y-85511934D01*
X89827389Y-85496389D01*
X89842934Y-85477447D01*
X89854485Y-85455836D01*
X89861598Y-85432387D01*
X89864000Y-85408001D01*
X89864000Y-85360500D01*
X90806000Y-85360500D01*
X90806000Y-87232500D01*
X89864000Y-87232500D01*
X89864000Y-87184999D01*
X89861598Y-87160613D01*
X89854485Y-87137164D01*
X89842934Y-87115553D01*
X89827389Y-87096611D01*
X89808447Y-87081066D01*
X89786836Y-87069515D01*
X89763387Y-87062402D01*
X89739001Y-87060000D01*
X88060999Y-87060000D01*
X88036613Y-87062402D01*
X88013164Y-87069515D01*
X87991553Y-87081066D01*
X87972611Y-87096611D01*
X87957066Y-87115553D01*
X87945515Y-87137164D01*
X87938402Y-87160613D01*
X87936000Y-87184999D01*
X87936000Y-87232500D01*
X86994000Y-87232500D01*
X86994000Y-85360500D01*
X87936000Y-85360500D01*
X87936000Y-85408001D01*
G37*
G36*
X102261670Y-87189310D02*
G01*
X100958650Y-87189310D01*
X100958650Y-85987890D01*
X102261670Y-85987890D01*
X102261670Y-87189310D01*
G37*
G36*
X100564950Y-87189310D02*
G01*
X99261930Y-87189310D01*
X99261930Y-85987890D01*
X100564950Y-85987890D01*
X100564950Y-87189310D01*
G37*
G36*
X112291991Y-85926285D02*
G01*
X112325969Y-85936593D01*
X112357290Y-85953334D01*
X112384739Y-85975861D01*
X112407266Y-86003310D01*
X112424007Y-86034631D01*
X112434315Y-86068609D01*
X112438400Y-86110090D01*
X112438400Y-86711310D01*
X112434315Y-86752791D01*
X112424007Y-86786769D01*
X112407266Y-86818090D01*
X112384739Y-86845539D01*
X112357290Y-86868066D01*
X112325969Y-86884807D01*
X112291991Y-86895115D01*
X112250510Y-86899200D01*
X111574290Y-86899200D01*
X111532809Y-86895115D01*
X111498831Y-86884807D01*
X111467510Y-86868066D01*
X111440061Y-86845539D01*
X111417534Y-86818090D01*
X111400793Y-86786769D01*
X111390485Y-86752791D01*
X111386400Y-86711310D01*
X111386400Y-86110090D01*
X111390485Y-86068609D01*
X111400793Y-86034631D01*
X111417534Y-86003310D01*
X111440061Y-85975861D01*
X111467510Y-85953334D01*
X111498831Y-85936593D01*
X111532809Y-85926285D01*
X111574290Y-85922200D01*
X112250510Y-85922200D01*
X112291991Y-85926285D01*
G37*
G36*
X104425750Y-86808310D02*
G01*
X103122730Y-86808310D01*
X103122730Y-85606890D01*
X104425750Y-85606890D01*
X104425750Y-86808310D01*
G37*
G36*
X106122470Y-86808310D02*
G01*
X104819450Y-86808310D01*
X104819450Y-85606890D01*
X106122470Y-85606890D01*
X106122470Y-86808310D01*
G37*
G36*
X96418400Y-86453980D02*
G01*
X95316040Y-86453980D01*
X95316040Y-85453220D01*
X96418400Y-85453220D01*
X96418400Y-86453980D01*
G37*
G36*
X110912910Y-86315550D02*
G01*
X109711490Y-86315550D01*
X109711490Y-85012530D01*
X110912910Y-85012530D01*
X110912910Y-86315550D01*
G37*
G36*
X92675710Y-86005670D02*
G01*
X91474290Y-86005670D01*
X91474290Y-84702650D01*
X92675710Y-84702650D01*
X92675710Y-86005670D01*
G37*
G36*
X94320360Y-85504020D02*
G01*
X93218000Y-85504020D01*
X93218000Y-84503260D01*
X94320360Y-84503260D01*
X94320360Y-85504020D01*
G37*
G36*
X100981510Y-85025210D02*
G01*
X99780090Y-85025210D01*
X99780090Y-83722190D01*
X100981510Y-83722190D01*
X100981510Y-85025210D01*
G37*
G36*
X97598591Y-83831485D02*
G01*
X97632569Y-83841793D01*
X97663890Y-83858534D01*
X97691339Y-83881061D01*
X97713866Y-83908510D01*
X97730607Y-83939831D01*
X97740915Y-83973809D01*
X97745000Y-84015290D01*
X97745000Y-84691510D01*
X97740915Y-84732991D01*
X97730607Y-84766969D01*
X97713866Y-84798290D01*
X97691339Y-84825739D01*
X97663890Y-84848266D01*
X97632569Y-84865007D01*
X97598591Y-84875315D01*
X97557110Y-84879400D01*
X96955890Y-84879400D01*
X96914409Y-84875315D01*
X96880431Y-84865007D01*
X96849110Y-84848266D01*
X96821661Y-84825739D01*
X96799134Y-84798290D01*
X96782393Y-84766969D01*
X96772085Y-84732991D01*
X96768000Y-84691510D01*
X96768000Y-84015290D01*
X96772085Y-83973809D01*
X96782393Y-83939831D01*
X96799134Y-83908510D01*
X96821661Y-83881061D01*
X96849110Y-83858534D01*
X96880431Y-83841793D01*
X96914409Y-83831485D01*
X96955890Y-83827400D01*
X97557110Y-83827400D01*
X97598591Y-83831485D01*
G37*
G36*
X99173591Y-83831485D02*
G01*
X99207569Y-83841793D01*
X99238890Y-83858534D01*
X99266339Y-83881061D01*
X99288866Y-83908510D01*
X99305607Y-83939831D01*
X99315915Y-83973809D01*
X99320000Y-84015290D01*
X99320000Y-84691510D01*
X99315915Y-84732991D01*
X99305607Y-84766969D01*
X99288866Y-84798290D01*
X99266339Y-84825739D01*
X99238890Y-84848266D01*
X99207569Y-84865007D01*
X99173591Y-84875315D01*
X99132110Y-84879400D01*
X98530890Y-84879400D01*
X98489409Y-84875315D01*
X98455431Y-84865007D01*
X98424110Y-84848266D01*
X98396661Y-84825739D01*
X98374134Y-84798290D01*
X98357393Y-84766969D01*
X98347085Y-84732991D01*
X98343000Y-84691510D01*
X98343000Y-84015290D01*
X98347085Y-83973809D01*
X98357393Y-83939831D01*
X98374134Y-83908510D01*
X98396661Y-83881061D01*
X98424110Y-83858534D01*
X98455431Y-83841793D01*
X98489409Y-83831485D01*
X98530890Y-83827400D01*
X99132110Y-83827400D01*
X99173591Y-83831485D01*
G37*
G36*
X89891870Y-84865210D02*
G01*
X88588850Y-84865210D01*
X88588850Y-83663790D01*
X89891870Y-83663790D01*
X89891870Y-84865210D01*
G37*
G36*
X88195150Y-84865210D02*
G01*
X86892130Y-84865210D01*
X86892130Y-83663790D01*
X88195150Y-83663790D01*
X88195150Y-84865210D01*
G37*
G36*
X115749070Y-84750910D02*
G01*
X114446050Y-84750910D01*
X114446050Y-83549490D01*
X115749070Y-83549490D01*
X115749070Y-84750910D01*
G37*
G36*
X114052350Y-84750910D02*
G01*
X112749330Y-84750910D01*
X112749330Y-83549490D01*
X114052350Y-83549490D01*
X114052350Y-84750910D01*
G37*
G36*
X109957900Y-83438299D02*
G01*
X109957900Y-84548300D01*
X104595900Y-84548300D01*
X104595900Y-83438299D01*
X104595682Y-83436082D01*
X104597899Y-83436300D01*
X109955901Y-83436300D01*
X109958118Y-83436082D01*
X109957900Y-83438299D01*
G37*
G36*
X92675710Y-84308950D02*
G01*
X91474290Y-84308950D01*
X91474290Y-83005930D01*
X92675710Y-83005930D01*
X92675710Y-84308950D01*
G37*
G36*
X96127570Y-84217510D02*
G01*
X94824550Y-84217510D01*
X94824550Y-83016090D01*
X96127570Y-83016090D01*
X96127570Y-84217510D01*
G37*
G36*
X94430850Y-84217510D02*
G01*
X93127830Y-84217510D01*
X93127830Y-83016090D01*
X94430850Y-83016090D01*
X94430850Y-84217510D01*
G37*
G36*
X85319383Y-83405989D02*
G01*
X85319386Y-83405990D01*
X85319385Y-83405990D01*
X85383258Y-83432446D01*
X85440748Y-83470860D01*
X85489640Y-83519752D01*
X85528054Y-83577242D01*
X85549624Y-83629318D01*
X85554511Y-83641117D01*
X85568000Y-83708930D01*
X85568000Y-83778070D01*
X85554511Y-83845883D01*
X85554510Y-83845885D01*
X85528054Y-83909758D01*
X85489640Y-83967248D01*
X85440748Y-84016140D01*
X85383258Y-84054554D01*
X85341983Y-84071650D01*
X85319383Y-84081011D01*
X85251570Y-84094500D01*
X85182430Y-84094500D01*
X85114617Y-84081011D01*
X85092017Y-84071650D01*
X85050742Y-84054554D01*
X84993252Y-84016140D01*
X84944360Y-83967248D01*
X84905946Y-83909758D01*
X84879490Y-83845885D01*
X84879489Y-83845883D01*
X84866000Y-83778070D01*
X84866000Y-83708930D01*
X84879489Y-83641117D01*
X84884376Y-83629318D01*
X84905946Y-83577242D01*
X84944360Y-83519752D01*
X84993252Y-83470860D01*
X85050742Y-83432446D01*
X85114615Y-83405990D01*
X85114614Y-83405990D01*
X85114617Y-83405989D01*
X85182430Y-83392500D01*
X85251570Y-83392500D01*
X85319383Y-83405989D01*
G37*
G36*
X100981510Y-83328490D02*
G01*
X99780090Y-83328490D01*
X99780090Y-82025470D01*
X100981510Y-82025470D01*
X100981510Y-83328490D01*
G37*
G36*
X110082899Y-77951300D02*
G01*
X111192900Y-77951300D01*
X111192900Y-83313300D01*
X110082899Y-83313300D01*
X110080682Y-83313518D01*
X110080900Y-83311301D01*
X110080900Y-77953299D01*
X110080682Y-77951082D01*
X110082899Y-77951300D01*
G37*
G36*
X104472900Y-77953299D02*
G01*
X104472900Y-83311301D01*
X104473118Y-83313518D01*
X104470901Y-83313300D01*
X103360900Y-83313300D01*
X103360900Y-77951300D01*
X104470901Y-77951300D01*
X104473118Y-77951082D01*
X104472900Y-77953299D01*
G37*
G36*
X99465810Y-83303110D02*
G01*
X98162790Y-83303110D01*
X98162790Y-82101690D01*
X99465810Y-82101690D01*
X99465810Y-83303110D01*
G37*
G36*
X97769090Y-83303110D02*
G01*
X96466070Y-83303110D01*
X96466070Y-82101690D01*
X97769090Y-82101690D01*
X97769090Y-83303110D01*
G37*
G36*
X114052350Y-82934810D02*
G01*
X112749330Y-82934810D01*
X112749330Y-81733390D01*
X114052350Y-81733390D01*
X114052350Y-82934810D01*
G37*
G36*
X115749070Y-82934810D02*
G01*
X114446050Y-82934810D01*
X114446050Y-81733390D01*
X115749070Y-81733390D01*
X115749070Y-82934810D01*
G37*
G36*
X94430850Y-82617310D02*
G01*
X93127830Y-82617310D01*
X93127830Y-81415890D01*
X94430850Y-81415890D01*
X94430850Y-82617310D01*
G37*
G36*
X96127570Y-82617310D02*
G01*
X94824550Y-82617310D01*
X94824550Y-81415890D01*
X96127570Y-81415890D01*
X96127570Y-82617310D01*
G37*
G36*
X99493070Y-81626710D02*
G01*
X98190050Y-81626710D01*
X98190050Y-80425290D01*
X99493070Y-80425290D01*
X99493070Y-81626710D01*
G37*
G36*
X97796350Y-81626710D02*
G01*
X96493330Y-81626710D01*
X96493330Y-80425290D01*
X97796350Y-80425290D01*
X97796350Y-81626710D01*
G37*
G36*
X115749070Y-81410810D02*
G01*
X114446050Y-81410810D01*
X114446050Y-80209390D01*
X115749070Y-80209390D01*
X115749070Y-81410810D01*
G37*
G36*
X114052350Y-81410810D02*
G01*
X112749330Y-81410810D01*
X112749330Y-80209390D01*
X114052350Y-80209390D01*
X114052350Y-81410810D01*
G37*
G36*
X96127570Y-81118710D02*
G01*
X94824550Y-81118710D01*
X94824550Y-79917290D01*
X96127570Y-79917290D01*
X96127570Y-81118710D01*
G37*
G36*
X94430850Y-81118710D02*
G01*
X93127830Y-81118710D01*
X93127830Y-79917290D01*
X94430850Y-79917290D01*
X94430850Y-81118710D01*
G37*
G36*
X114052350Y-79823310D02*
G01*
X112749330Y-79823310D01*
X112749330Y-78621890D01*
X114052350Y-78621890D01*
X114052350Y-79823310D01*
G37*
G36*
X115749070Y-79823310D02*
G01*
X114446050Y-79823310D01*
X114446050Y-78621890D01*
X115749070Y-78621890D01*
X115749070Y-79823310D01*
G37*
G36*
X99670870Y-79797910D02*
G01*
X98367850Y-79797910D01*
X98367850Y-78596490D01*
X99670870Y-78596490D01*
X99670870Y-79797910D01*
G37*
G36*
X97974150Y-79797910D02*
G01*
X96671130Y-79797910D01*
X96671130Y-78596490D01*
X97974150Y-78596490D01*
X97974150Y-79797910D01*
G37*
G36*
X102799400Y-79785400D02*
G01*
X102097400Y-79785400D01*
X102097400Y-78983400D01*
X102799400Y-78983400D01*
X102799400Y-79785400D01*
G37*
G36*
X101299400Y-79785400D02*
G01*
X100197400Y-79785400D01*
X100197400Y-78983400D01*
X101299400Y-78983400D01*
X101299400Y-79785400D01*
G37*
G36*
X114052350Y-78235810D02*
G01*
X112749330Y-78235810D01*
X112749330Y-77034390D01*
X114052350Y-77034390D01*
X114052350Y-78235810D01*
G37*
G36*
X115749070Y-78235810D02*
G01*
X114446050Y-78235810D01*
X114446050Y-77034390D01*
X115749070Y-77034390D01*
X115749070Y-78235810D01*
G37*
G36*
X99670870Y-78197710D02*
G01*
X98367850Y-78197710D01*
X98367850Y-76996290D01*
X99670870Y-76996290D01*
X99670870Y-78197710D01*
G37*
G36*
X97974150Y-78197710D02*
G01*
X96671130Y-78197710D01*
X96671130Y-76996290D01*
X97974150Y-76996290D01*
X97974150Y-78197710D01*
G37*
G36*
X109957900Y-77826301D02*
G01*
X109958118Y-77828518D01*
X109955901Y-77828300D01*
X104597899Y-77828300D01*
X104595682Y-77828518D01*
X104595900Y-77826301D01*
X104595900Y-76716300D01*
X109957900Y-76716300D01*
X109957900Y-77826301D01*
G37*
G36*
X100899400Y-77785400D02*
G01*
X100197400Y-77785400D01*
X100197400Y-76983400D01*
X100899400Y-76983400D01*
X100899400Y-77785400D01*
G37*
G36*
X102799400Y-77785400D02*
G01*
X102097400Y-77785400D01*
X102097400Y-76983400D01*
X102799400Y-76983400D01*
X102799400Y-77785400D01*
G37*
G36*
X115749070Y-76648310D02*
G01*
X114446050Y-76648310D01*
X114446050Y-75446890D01*
X115749070Y-75446890D01*
X115749070Y-76648310D01*
G37*
G36*
X114052350Y-76648310D02*
G01*
X112749330Y-76648310D01*
X112749330Y-75446890D01*
X114052350Y-75446890D01*
X114052350Y-76648310D01*
G37*
G36*
X118388295Y-74421656D02*
G01*
X118494650Y-74442811D01*
X118695020Y-74525807D01*
X118875344Y-74646295D01*
X119028705Y-74799656D01*
X119149193Y-74979980D01*
X119232189Y-75180351D01*
X119274500Y-75393060D01*
X119274500Y-75609940D01*
X119232189Y-75822649D01*
X119149193Y-76023020D01*
X119028705Y-76203344D01*
X118875344Y-76356705D01*
X118695020Y-76477193D01*
X118594834Y-76518691D01*
X118494650Y-76560189D01*
X118388294Y-76581345D01*
X118281940Y-76602500D01*
X118065060Y-76602500D01*
X117958706Y-76581345D01*
X117852350Y-76560189D01*
X117651980Y-76477193D01*
X117471656Y-76356705D01*
X117318295Y-76203344D01*
X117197807Y-76023020D01*
X117114811Y-75822649D01*
X117072500Y-75609940D01*
X117072500Y-75393060D01*
X117114811Y-75180351D01*
X117197807Y-74979980D01*
X117318295Y-74799656D01*
X117471656Y-74646295D01*
X117651980Y-74525807D01*
X117852350Y-74442811D01*
X117958705Y-74421656D01*
X118065060Y-74400500D01*
X118281940Y-74400500D01*
X118388295Y-74421656D01*
G37*
G36*
X102896670Y-76191110D02*
G01*
X101593650Y-76191110D01*
X101593650Y-74989690D01*
X102896670Y-74989690D01*
X102896670Y-76191110D01*
G37*
G36*
X101199950Y-76191110D02*
G01*
X99896930Y-76191110D01*
X99896930Y-74989690D01*
X101199950Y-74989690D01*
X101199950Y-76191110D01*
G37*
G36*
X97339150Y-75784710D02*
G01*
X96036130Y-75784710D01*
X96036130Y-74583290D01*
X97339150Y-74583290D01*
X97339150Y-75784710D01*
G37*
G36*
X99035870Y-75784710D02*
G01*
X97732850Y-75784710D01*
X97732850Y-74583290D01*
X99035870Y-74583290D01*
X99035870Y-75784710D01*
G37*
G36*
X104552750Y-75733910D02*
G01*
X103249730Y-75733910D01*
X103249730Y-74532490D01*
X104552750Y-74532490D01*
X104552750Y-75733910D01*
G37*
G36*
X106249470Y-75733910D02*
G01*
X104946450Y-75733910D01*
X104946450Y-74532490D01*
X106249470Y-74532490D01*
X106249470Y-75733910D01*
G37*
G36*
X108235750Y-75733910D02*
G01*
X106932730Y-75733910D01*
X106932730Y-74532490D01*
X108235750Y-74532490D01*
X108235750Y-75733910D01*
G37*
G36*
X109932470Y-75733910D02*
G01*
X108629450Y-75733910D01*
X108629450Y-74532490D01*
X109932470Y-74532490D01*
X109932470Y-75733910D01*
G37*
G36*
X97339150Y-74260710D02*
G01*
X96036130Y-74260710D01*
X96036130Y-73059290D01*
X97339150Y-73059290D01*
X97339150Y-74260710D01*
G37*
G36*
X99035870Y-74260710D02*
G01*
X97732850Y-74260710D01*
X97732850Y-73059290D01*
X99035870Y-73059290D01*
X99035870Y-74260710D01*
G37*
G36*
X85319383Y-73525989D02*
G01*
X85319386Y-73525990D01*
X85319385Y-73525990D01*
X85383258Y-73552446D01*
X85440748Y-73590860D01*
X85489640Y-73639752D01*
X85528054Y-73697242D01*
X85549624Y-73749318D01*
X85554511Y-73761117D01*
X85568000Y-73828930D01*
X85568000Y-73898070D01*
X85554511Y-73965883D01*
X85554510Y-73965885D01*
X85528054Y-74029758D01*
X85489640Y-74087248D01*
X85440748Y-74136140D01*
X85383258Y-74174554D01*
X85331182Y-74196124D01*
X85319383Y-74201011D01*
X85251570Y-74214500D01*
X85182430Y-74214500D01*
X85114617Y-74201011D01*
X85102818Y-74196124D01*
X85050742Y-74174554D01*
X84993252Y-74136140D01*
X84944360Y-74087248D01*
X84905946Y-74029758D01*
X84879490Y-73965885D01*
X84879489Y-73965883D01*
X84866000Y-73898070D01*
X84866000Y-73828930D01*
X84879489Y-73761117D01*
X84884376Y-73749318D01*
X84905946Y-73697242D01*
X84944360Y-73639752D01*
X84993252Y-73590860D01*
X85050742Y-73552446D01*
X85114615Y-73525990D01*
X85114614Y-73525990D01*
X85114617Y-73525989D01*
X85182430Y-73512500D01*
X85251570Y-73512500D01*
X85319383Y-73525989D01*
G37*
G36*
X112313765Y-69787020D02*
G01*
X112503288Y-69865523D01*
X112673854Y-69979492D01*
X112818908Y-70124546D01*
X112932877Y-70295112D01*
X113011380Y-70484635D01*
X113051400Y-70685831D01*
X113051400Y-70890969D01*
X113011380Y-71092165D01*
X112932877Y-71281688D01*
X112818908Y-71452254D01*
X112673854Y-71597308D01*
X112503288Y-71711277D01*
X112503287Y-71711278D01*
X112503286Y-71711278D01*
X112313765Y-71789780D01*
X112112570Y-71829800D01*
X111907430Y-71829800D01*
X111706235Y-71789780D01*
X111516714Y-71711278D01*
X111516713Y-71711278D01*
X111516712Y-71711277D01*
X111346146Y-71597308D01*
X111201092Y-71452254D01*
X111087123Y-71281688D01*
X111008620Y-71092165D01*
X110968600Y-70890969D01*
X110968600Y-70685831D01*
X111008620Y-70484635D01*
X111087123Y-70295112D01*
X111201092Y-70124546D01*
X111346146Y-69979492D01*
X111516712Y-69865523D01*
X111706235Y-69787020D01*
X111907430Y-69747000D01*
X112112570Y-69747000D01*
X112313765Y-69787020D01*
G37*
G36*
X107273765Y-69787020D02*
G01*
X107463288Y-69865523D01*
X107633854Y-69979492D01*
X107778908Y-70124546D01*
X107892877Y-70295112D01*
X107971380Y-70484635D01*
X108011400Y-70685831D01*
X108011400Y-70890969D01*
X107971380Y-71092165D01*
X107892877Y-71281688D01*
X107778908Y-71452254D01*
X107633854Y-71597308D01*
X107463288Y-71711277D01*
X107463287Y-71711278D01*
X107463286Y-71711278D01*
X107273765Y-71789780D01*
X107072570Y-71829800D01*
X106867430Y-71829800D01*
X106666235Y-71789780D01*
X106476714Y-71711278D01*
X106476713Y-71711278D01*
X106476712Y-71711277D01*
X106306146Y-71597308D01*
X106161092Y-71452254D01*
X106047123Y-71281688D01*
X105968620Y-71092165D01*
X105928600Y-70890969D01*
X105928600Y-70685831D01*
X105968620Y-70484635D01*
X106047123Y-70295112D01*
X106161092Y-70124546D01*
X106306146Y-69979492D01*
X106476712Y-69865523D01*
X106666235Y-69787020D01*
X106867430Y-69747000D01*
X107072570Y-69747000D01*
X107273765Y-69787020D01*
G37*
G36*
X103503965Y-69787020D02*
G01*
X103693488Y-69865523D01*
X103864054Y-69979492D01*
X104009108Y-70124546D01*
X104123077Y-70295112D01*
X104201580Y-70484635D01*
X104241600Y-70685831D01*
X104241600Y-70890969D01*
X104201580Y-71092165D01*
X104123077Y-71281688D01*
X104009108Y-71452254D01*
X103864054Y-71597308D01*
X103693488Y-71711277D01*
X103693487Y-71711278D01*
X103693486Y-71711278D01*
X103503965Y-71789780D01*
X103302770Y-71829800D01*
X103097630Y-71829800D01*
X102896435Y-71789780D01*
X102706914Y-71711278D01*
X102706913Y-71711278D01*
X102706912Y-71711277D01*
X102536346Y-71597308D01*
X102391292Y-71452254D01*
X102277323Y-71281688D01*
X102198820Y-71092165D01*
X102158800Y-70890969D01*
X102158800Y-70685831D01*
X102198820Y-70484635D01*
X102277323Y-70295112D01*
X102391292Y-70124546D01*
X102536346Y-69979492D01*
X102706912Y-69865523D01*
X102896435Y-69787020D01*
X103097630Y-69747000D01*
X103302770Y-69747000D01*
X103503965Y-69787020D01*
G37*
G36*
X100963965Y-69787020D02*
G01*
X101153488Y-69865523D01*
X101324054Y-69979492D01*
X101469108Y-70124546D01*
X101583077Y-70295112D01*
X101661580Y-70484635D01*
X101701600Y-70685831D01*
X101701600Y-70890969D01*
X101661580Y-71092165D01*
X101583077Y-71281688D01*
X101469108Y-71452254D01*
X101324054Y-71597308D01*
X101153488Y-71711277D01*
X101153487Y-71711278D01*
X101153486Y-71711278D01*
X100963965Y-71789780D01*
X100762770Y-71829800D01*
X100557630Y-71829800D01*
X100356435Y-71789780D01*
X100166914Y-71711278D01*
X100166913Y-71711278D01*
X100166912Y-71711277D01*
X99996346Y-71597308D01*
X99851292Y-71452254D01*
X99737323Y-71281688D01*
X99658820Y-71092165D01*
X99618800Y-70890969D01*
X99618800Y-70685831D01*
X99658820Y-70484635D01*
X99737323Y-70295112D01*
X99851292Y-70124546D01*
X99996346Y-69979492D01*
X100166912Y-69865523D01*
X100356435Y-69787020D01*
X100557630Y-69747000D01*
X100762770Y-69747000D01*
X100963965Y-69787020D01*
G37*
G36*
X92077965Y-69787020D02*
G01*
X92267488Y-69865523D01*
X92438054Y-69979492D01*
X92583108Y-70124546D01*
X92697077Y-70295112D01*
X92775580Y-70484635D01*
X92815600Y-70685831D01*
X92815600Y-70890969D01*
X92775580Y-71092165D01*
X92697077Y-71281688D01*
X92583108Y-71452254D01*
X92438054Y-71597308D01*
X92267488Y-71711277D01*
X92267487Y-71711278D01*
X92267486Y-71711278D01*
X92077965Y-71789780D01*
X91876770Y-71829800D01*
X91671630Y-71829800D01*
X91470435Y-71789780D01*
X91280914Y-71711278D01*
X91280913Y-71711278D01*
X91280912Y-71711277D01*
X91110346Y-71597308D01*
X90965292Y-71452254D01*
X90851323Y-71281688D01*
X90772820Y-71092165D01*
X90732800Y-70890969D01*
X90732800Y-70685831D01*
X90772820Y-70484635D01*
X90851323Y-70295112D01*
X90965292Y-70124546D01*
X91110346Y-69979492D01*
X91280912Y-69865523D01*
X91470435Y-69787020D01*
X91671630Y-69747000D01*
X91876770Y-69747000D01*
X92077965Y-69787020D01*
G37*
G36*
X97117965Y-69787020D02*
G01*
X97307488Y-69865523D01*
X97478054Y-69979492D01*
X97623108Y-70124546D01*
X97737077Y-70295112D01*
X97815580Y-70484635D01*
X97855600Y-70685831D01*
X97855600Y-70890969D01*
X97815580Y-71092165D01*
X97737077Y-71281688D01*
X97623108Y-71452254D01*
X97478054Y-71597308D01*
X97307488Y-71711277D01*
X97307487Y-71711278D01*
X97307486Y-71711278D01*
X97117965Y-71789780D01*
X96916770Y-71829800D01*
X96711630Y-71829800D01*
X96510435Y-71789780D01*
X96320914Y-71711278D01*
X96320913Y-71711278D01*
X96320912Y-71711277D01*
X96150346Y-71597308D01*
X96005292Y-71452254D01*
X95891323Y-71281688D01*
X95812820Y-71092165D01*
X95772800Y-70890969D01*
X95772800Y-70685831D01*
X95812820Y-70484635D01*
X95891323Y-70295112D01*
X96005292Y-70124546D01*
X96150346Y-69979492D01*
X96320912Y-69865523D01*
X96510435Y-69787020D01*
X96711630Y-69747000D01*
X96916770Y-69747000D01*
X97117965Y-69787020D01*
G37*
M02*
