%TF.GenerationSoftware,KiCad,Pcbnew,(5.1.6)-1*%
%TF.CreationDate,2020-12-06T14:18:51+01:00*%
%TF.ProjectId,Kicad_Smart_Watch,4b696361-645f-4536-9d61-72745f576174,rev?*%
%TF.SameCoordinates,Original*%
%TF.FileFunction,Copper,L1,Top*%
%TF.FilePolarity,Positive*%
%FSLAX46Y46*%
G04 Gerber Fmt 4.6, Leading zero omitted, Abs format (unit mm)*
G04 Created by KiCad (PCBNEW (5.1.6)-1) date 2020-12-06 14:18:51*
%MOMM*%
%LPD*%
G01*
G04 APERTURE LIST*
%TA.AperFunction,SMDPad,CuDef*%
%ADD10R,1.099820X0.998220*%
%TD*%
%TA.AperFunction,ComponentPad*%
%ADD11C,1.879600*%
%TD*%
%TA.AperFunction,SMDPad,CuDef*%
%ADD12R,0.860000X0.270000*%
%TD*%
%TA.AperFunction,SMDPad,CuDef*%
%ADD13R,0.260000X1.010000*%
%TD*%
%TA.AperFunction,SMDPad,CuDef*%
%ADD14R,1.010000X0.260000*%
%TD*%
%TA.AperFunction,SMDPad,CuDef*%
%ADD15R,1.899920X1.099820*%
%TD*%
%TA.AperFunction,SMDPad,CuDef*%
%ADD16R,1.399540X0.398780*%
%TD*%
%TA.AperFunction,SMDPad,CuDef*%
%ADD17R,1.498600X2.499360*%
%TD*%
%TA.AperFunction,SMDPad,CuDef*%
%ADD18R,1.498600X1.798320*%
%TD*%
%TA.AperFunction,SMDPad,CuDef*%
%ADD19R,0.500000X0.800000*%
%TD*%
%TA.AperFunction,SMDPad,CuDef*%
%ADD20R,0.600000X0.700000*%
%TD*%
%TA.AperFunction,SMDPad,CuDef*%
%ADD21R,1.000000X0.700000*%
%TD*%
%TA.AperFunction,SMDPad,CuDef*%
%ADD22R,0.899160X0.797560*%
%TD*%
%TA.AperFunction,SMDPad,CuDef*%
%ADD23R,1.000000X1.000000*%
%TD*%
%TA.AperFunction,SMDPad,CuDef*%
%ADD24R,0.998220X1.099820*%
%TD*%
%TA.AperFunction,ViaPad*%
%ADD25C,0.600000*%
%TD*%
%TA.AperFunction,Conductor*%
%ADD26C,0.200000*%
%TD*%
G04 APERTURE END LIST*
D10*
%TO.P,C7,2*%
%TO.N,GND*%
X93779340Y-80518000D03*
%TO.P,C7,1*%
%TO.N,3.3V*%
X95476060Y-80518000D03*
%TD*%
D11*
%TO.P,SW1,2*%
%TO.N,GND*%
X109169200Y-95377000D03*
%TO.P,SW1,1*%
%TO.N,/BTN3*%
X111709200Y-95377000D03*
%TD*%
%TO.P,SW3,2*%
%TO.N,GND*%
X91998800Y-95377000D03*
%TO.P,SW3,1*%
%TO.N,/BTN4*%
X94538800Y-95377000D03*
%TD*%
%TO.P,SW4,2*%
%TO.N,GND*%
X111760000Y-72288400D03*
%TO.P,SW4,1*%
%TO.N,/BTN2*%
X109220000Y-72288400D03*
%TD*%
%TO.P,SW2,2*%
%TO.N,GND*%
X92024200Y-72288400D03*
%TO.P,SW2,1*%
%TO.N,/BTN1*%
X94564200Y-72288400D03*
%TD*%
D12*
%TO.P,U4,1*%
%TO.N,GND*%
X96216000Y-88658000D03*
%TO.P,U4,2*%
%TO.N,VCC*%
X96216000Y-89158000D03*
%TO.P,U4,3*%
%TO.N,Net-(R2-Pad1)*%
X96216000Y-89658000D03*
%TO.P,U4,4*%
%TO.N,Net-(R10-Pad2)*%
X96216000Y-90158000D03*
%TO.P,U4,5*%
%TO.N,Net-(R16-Pad1)*%
X97586000Y-90158000D03*
%TO.P,U4,6*%
%TO.N,Net-(U4-Pad6)*%
X97586000Y-89658000D03*
%TO.P,U4,7*%
%TO.N,Net-(L1-Pad1)*%
X97586000Y-89158000D03*
%TO.P,U4,8*%
%TO.N,3.3V*%
X97586000Y-88658000D03*
%TD*%
D13*
%TO.P,U5,12*%
%TO.N,/D11*%
X104776900Y-83992300D03*
%TO.P,U5,13*%
%TO.N,Net-(R4-Pad2)*%
X105276900Y-83992300D03*
%TO.P,U5,14*%
%TO.N,3.3V*%
X105776900Y-83992300D03*
%TO.P,U5,15*%
%TO.N,GND*%
X106276900Y-83992300D03*
%TO.P,U5,16*%
%TO.N,Net-(C6-Pad1)*%
X106776900Y-83992300D03*
%TO.P,U5,17*%
%TO.N,Net-(C5-Pad1)*%
X107276900Y-83992300D03*
%TO.P,U5,18*%
%TO.N,/D3*%
X107776900Y-83992300D03*
%TO.P,U5,19*%
%TO.N,/D2*%
X108276900Y-83992300D03*
%TO.P,U5,20*%
%TO.N,/RXI*%
X108776900Y-83992300D03*
%TO.P,U5,21*%
%TO.N,/TXO*%
X109276900Y-83992300D03*
%TO.P,U5,22*%
%TO.N,Net-(R6-Pad1)*%
X109776900Y-83992300D03*
%TO.P,U5,34*%
%TO.N,3.3V*%
X109776900Y-77272300D03*
%TO.P,U5,35*%
%TO.N,GND*%
X109276900Y-77272300D03*
%TO.P,U5,36*%
%TO.N,Net-(U5-Pad36)*%
X108776900Y-77272300D03*
%TO.P,U5,37*%
%TO.N,Net-(U5-Pad37)*%
X108276900Y-77272300D03*
%TO.P,U5,38*%
%TO.N,Net-(U5-Pad38)*%
X107776900Y-77272300D03*
%TO.P,U5,39*%
%TO.N,/A3*%
X107276900Y-77272300D03*
%TO.P,U5,40*%
%TO.N,/A4*%
X106776900Y-77272300D03*
%TO.P,U5,41*%
%TO.N,/A5*%
X106276900Y-77272300D03*
%TO.P,U5,42*%
%TO.N,/AREF*%
X105776900Y-77272300D03*
%TO.P,U5,43*%
%TO.N,GND*%
X105276900Y-77272300D03*
%TO.P,U5,44*%
%TO.N,3.3V*%
X104776900Y-77272300D03*
D14*
%TO.P,U5,1*%
%TO.N,/BTN1*%
X103916900Y-78132300D03*
%TO.P,U5,2*%
%TO.N,Net-(U5-Pad2)*%
X103916900Y-78632300D03*
%TO.P,U5,3*%
%TO.N,/D-*%
X103916900Y-79132300D03*
%TO.P,U5,4*%
%TO.N,/D+*%
X103916900Y-79632300D03*
%TO.P,U5,5*%
%TO.N,GND*%
X103916900Y-80132300D03*
%TO.P,U5,6*%
%TO.N,3.3V*%
X103916900Y-80632300D03*
%TO.P,U5,7*%
%TO.N,VCC*%
X103916900Y-81132300D03*
%TO.P,U5,8*%
%TO.N,/D14*%
X103916900Y-81632300D03*
%TO.P,U5,9*%
%TO.N,/SCK*%
X103916900Y-82132300D03*
%TO.P,U5,10*%
%TO.N,/MOSI*%
X103916900Y-82632300D03*
%TO.P,U5,11*%
%TO.N,/MISO*%
X103916900Y-83132300D03*
%TO.P,U5,23*%
%TO.N,GND*%
X110636900Y-83132300D03*
%TO.P,U5,24*%
%TO.N,3.3V*%
X110636900Y-82632300D03*
%TO.P,U5,25*%
%TO.N,/D4*%
X110636900Y-82132300D03*
%TO.P,U5,26*%
%TO.N,/D12*%
X110636900Y-81632300D03*
%TO.P,U5,27*%
%TO.N,/D6*%
X110636900Y-81132300D03*
%TO.P,U5,28*%
%TO.N,/BTN3*%
X110636900Y-80632300D03*
%TO.P,U5,29*%
%TO.N,/BTN4*%
X110636900Y-80132300D03*
%TO.P,U5,30*%
%TO.N,/BTN2*%
X110636900Y-79632300D03*
%TO.P,U5,31*%
%TO.N,/D5*%
X110636900Y-79132300D03*
%TO.P,U5,32*%
%TO.N,/D13*%
X110636900Y-78632300D03*
%TO.P,U5,33*%
%TO.N,GND*%
X110636900Y-78132300D03*
%TD*%
%TO.P,D2,A*%
%TO.N,3.3V*%
%TA.AperFunction,SMDPad,CuDef*%
G36*
G01*
X112168650Y-86848200D02*
X111656150Y-86848200D01*
G75*
G02*
X111437400Y-86629450I0J218750D01*
G01*
X111437400Y-86191950D01*
G75*
G02*
X111656150Y-85973200I218750J0D01*
G01*
X112168650Y-85973200D01*
G75*
G02*
X112387400Y-86191950I0J-218750D01*
G01*
X112387400Y-86629450D01*
G75*
G02*
X112168650Y-86848200I-218750J0D01*
G01*
G37*
%TD.AperFunction*%
%TO.P,D2,C*%
%TO.N,Net-(D2-PadC)*%
%TA.AperFunction,SMDPad,CuDef*%
G36*
G01*
X112168650Y-88423200D02*
X111656150Y-88423200D01*
G75*
G02*
X111437400Y-88204450I0J218750D01*
G01*
X111437400Y-87766950D01*
G75*
G02*
X111656150Y-87548200I218750J0D01*
G01*
X112168650Y-87548200D01*
G75*
G02*
X112387400Y-87766950I0J-218750D01*
G01*
X112387400Y-88204450D01*
G75*
G02*
X112168650Y-88423200I-218750J0D01*
G01*
G37*
%TD.AperFunction*%
%TD*%
D15*
%TO.P,Y1,4*%
%TO.N,N/C*%
X105176320Y-90860880D03*
%TO.P,Y1,3*%
%TO.N,Net-(C5-Pad1)*%
X101478080Y-90860880D03*
%TO.P,Y1,2*%
%TO.N,N/C*%
X101478080Y-88564720D03*
%TO.P,Y1,1*%
%TO.N,Net-(C6-Pad1)*%
X105176320Y-88564720D03*
%TD*%
D16*
%TO.P,U3,VBUS*%
%TO.N,VCC*%
X91089480Y-78813660D03*
D17*
%TO.P,U3,SHLD*%
%TO.N,N/C*%
X88392000Y-80111600D03*
D18*
X88392000Y-76433680D03*
X88392000Y-83789520D03*
D16*
%TO.P,U3,ID*%
%TO.N,Net-(U3-PadID)*%
X91089480Y-80759300D03*
%TO.P,U3,GND*%
%TO.N,GND*%
X91089480Y-81409540D03*
%TO.P,U3,D-*%
%TO.N,Net-(R5-Pad2)*%
X91089480Y-79463900D03*
%TO.P,U3,D+*%
%TO.N,Net-(R7-Pad2)*%
X91089480Y-80111600D03*
%TD*%
%TO.P,D3,A*%
%TO.N,3.3V*%
%TA.AperFunction,SMDPad,CuDef*%
G36*
G01*
X97694000Y-84097150D02*
X97694000Y-84609650D01*
G75*
G02*
X97475250Y-84828400I-218750J0D01*
G01*
X97037750Y-84828400D01*
G75*
G02*
X96819000Y-84609650I0J218750D01*
G01*
X96819000Y-84097150D01*
G75*
G02*
X97037750Y-83878400I218750J0D01*
G01*
X97475250Y-83878400D01*
G75*
G02*
X97694000Y-84097150I0J-218750D01*
G01*
G37*
%TD.AperFunction*%
%TO.P,D3,C*%
%TO.N,Net-(D3-PadC)*%
%TA.AperFunction,SMDPad,CuDef*%
G36*
G01*
X99269000Y-84097150D02*
X99269000Y-84609650D01*
G75*
G02*
X99050250Y-84828400I-218750J0D01*
G01*
X98612750Y-84828400D01*
G75*
G02*
X98394000Y-84609650I0J218750D01*
G01*
X98394000Y-84097150D01*
G75*
G02*
X98612750Y-83878400I218750J0D01*
G01*
X99050250Y-83878400D01*
G75*
G02*
X99269000Y-84097150I0J-218750D01*
G01*
G37*
%TD.AperFunction*%
%TD*%
D10*
%TO.P,C9,2*%
%TO.N,GND*%
X100548440Y-75590400D03*
%TO.P,C9,1*%
%TO.N,/BTN1*%
X102245160Y-75590400D03*
%TD*%
D19*
%TO.P,U1,1*%
%TO.N,Net-(U1-Pad1)*%
X112830600Y-89824000D03*
%TO.P,U1,2*%
%TO.N,/D11*%
X111930600Y-89824000D03*
%TO.P,U1,3*%
%TO.N,/D3*%
X111030600Y-89824000D03*
%TO.P,U1,4*%
%TO.N,/D2*%
X110130600Y-89824000D03*
%TO.P,U1,5*%
%TO.N,GND*%
X110130600Y-91024000D03*
%TO.P,U1,6*%
%TO.N,3.3V*%
X111030600Y-91024000D03*
%TO.P,U1,7*%
X111930600Y-91024000D03*
%TO.P,U1,8*%
%TO.N,Net-(R9-Pad2)*%
X112830600Y-91024000D03*
%TD*%
D11*
%TO.P,J1,2*%
%TO.N,GND*%
X103200200Y-72288400D03*
%TO.P,J1,1*%
%TO.N,VCC*%
X100660200Y-72288400D03*
%TD*%
D20*
%TO.P,D4,4*%
%TO.N,VCC*%
X100548400Y-77384400D03*
%TO.P,D4,3*%
%TO.N,/D-*%
X102448400Y-77384400D03*
%TO.P,D4,2*%
%TO.N,/D+*%
X102448400Y-79384400D03*
D21*
%TO.P,D4,1*%
%TO.N,GND*%
X100748400Y-79384400D03*
%TD*%
D22*
%TO.P,Q1,3*%
%TO.N,Net-(Q1-Pad3)*%
X95867220Y-85953600D03*
%TO.P,Q1,2*%
%TO.N,GND*%
X93769180Y-86903560D03*
%TO.P,Q1,1*%
%TO.N,Net-(Q1-Pad1)*%
X93769180Y-85003640D03*
%TD*%
D23*
%TO.P,CS,1*%
%TO.N,/D12*%
X106146600Y-95872300D03*
%TD*%
%TO.P,MOSI,1*%
%TO.N,/MOSI*%
X101803200Y-95872300D03*
%TD*%
%TO.P,SCK,1*%
%TO.N,/SCK*%
X103962200Y-95872300D03*
%TD*%
%TO.P,GND,1*%
%TO.N,GND*%
X99618800Y-95872300D03*
%TD*%
%TO.P,VCC,1*%
%TO.N,VCC*%
X97459800Y-95872300D03*
%TD*%
D24*
%TO.P,C1,2*%
%TO.N,GND*%
X107213400Y-90733880D03*
%TO.P,C1,1*%
%TO.N,3.3V*%
X107213400Y-92430600D03*
%TD*%
%TO.P,C2,2*%
%TO.N,GND*%
X108788200Y-90733880D03*
%TO.P,C2,1*%
%TO.N,3.3V*%
X108788200Y-92430600D03*
%TD*%
D10*
%TO.P,C5,2*%
%TO.N,GND*%
X101610160Y-86588600D03*
%TO.P,C5,1*%
%TO.N,Net-(C5-Pad1)*%
X99913440Y-86588600D03*
%TD*%
D24*
%TO.P,C6,2*%
%TO.N,GND*%
X107696000Y-86857840D03*
%TO.P,C6,1*%
%TO.N,Net-(C6-Pad1)*%
X107696000Y-88554560D03*
%TD*%
D10*
%TO.P,C10,2*%
%TO.N,/AREF*%
X109280960Y-75133200D03*
%TO.P,C10,1*%
%TO.N,GND*%
X107584240Y-75133200D03*
%TD*%
%TO.P,C11,2*%
%TO.N,3.3V*%
X98841560Y-81026000D03*
%TO.P,C11,1*%
%TO.N,GND*%
X97144840Y-81026000D03*
%TD*%
%TO.P,C12,2*%
%TO.N,GND*%
X97117580Y-82702400D03*
%TO.P,C12,1*%
%TO.N,VCC*%
X98814300Y-82702400D03*
%TD*%
%TO.P,C14,2*%
%TO.N,GND*%
X115097560Y-82334100D03*
%TO.P,C14,1*%
%TO.N,/BTN3*%
X113400840Y-82334100D03*
%TD*%
%TO.P,C15,2*%
%TO.N,GND*%
X115097560Y-80810100D03*
%TO.P,C15,1*%
%TO.N,/BTN4*%
X113400840Y-80810100D03*
%TD*%
%TO.P,C16,2*%
%TO.N,GND*%
X115097560Y-76047600D03*
%TO.P,C16,1*%
%TO.N,/BTN2*%
X113400840Y-76047600D03*
%TD*%
%TO.P,C17,2*%
%TO.N,GND*%
X92928440Y-88341200D03*
%TO.P,C17,1*%
%TO.N,VCC*%
X94625160Y-88341200D03*
%TD*%
%TO.P,C18,2*%
%TO.N,GND*%
X96243140Y-87312500D03*
%TO.P,C18,1*%
%TO.N,3.3V*%
X97939860Y-87312500D03*
%TD*%
D24*
%TO.P,L1,2*%
%TO.N,3.3V*%
X99390200Y-88889840D03*
%TO.P,L1,1*%
%TO.N,Net-(L1-Pad1)*%
X99390200Y-90586560D03*
%TD*%
D10*
%TO.P,R1,2*%
%TO.N,3.3V*%
X95476060Y-82016600D03*
%TO.P,R1,1*%
%TO.N,Net-(Q1-Pad1)*%
X93779340Y-82016600D03*
%TD*%
%TO.P,R2,2*%
%TO.N,GND*%
X92928440Y-89941400D03*
%TO.P,R2,1*%
%TO.N,Net-(R2-Pad1)*%
X94625160Y-89941400D03*
%TD*%
%TO.P,R3,2*%
%TO.N,3.3V*%
X95476060Y-83616800D03*
%TO.P,R3,1*%
%TO.N,Net-(Q1-Pad1)*%
X93779340Y-83616800D03*
%TD*%
%TO.P,R4,2*%
%TO.N,Net-(R4-Pad2)*%
X103774240Y-86207600D03*
%TO.P,R4,1*%
%TO.N,3.3V*%
X105470960Y-86207600D03*
%TD*%
%TO.P,R5,1*%
%TO.N,/D-*%
X99019360Y-77597000D03*
%TO.P,R5,2*%
%TO.N,Net-(R5-Pad2)*%
X97322640Y-77597000D03*
%TD*%
D24*
%TO.P,R6,2*%
%TO.N,Net-(D2-PadC)*%
X110312200Y-87360760D03*
%TO.P,R6,1*%
%TO.N,Net-(R6-Pad1)*%
X110312200Y-85664040D03*
%TD*%
D10*
%TO.P,R7,1*%
%TO.N,/D+*%
X99019360Y-79197200D03*
%TO.P,R7,2*%
%TO.N,Net-(R7-Pad2)*%
X97322640Y-79197200D03*
%TD*%
D24*
%TO.P,R8,2*%
%TO.N,Net-(Q1-Pad3)*%
X92075000Y-85354160D03*
%TO.P,R8,1*%
%TO.N,/LEDK*%
X92075000Y-83657440D03*
%TD*%
D10*
%TO.P,R9,2*%
%TO.N,Net-(R9-Pad2)*%
X112580900Y-92481400D03*
%TO.P,R9,1*%
%TO.N,3.3V*%
X110884180Y-92481400D03*
%TD*%
%TO.P,R10,2*%
%TO.N,Net-(R10-Pad2)*%
X94625160Y-91465400D03*
%TO.P,R10,1*%
%TO.N,VCC*%
X92928440Y-91465400D03*
%TD*%
D24*
%TO.P,R11,2*%
%TO.N,Net-(D3-PadC)*%
X100380800Y-84373700D03*
%TO.P,R11,1*%
%TO.N,/D14*%
X100380800Y-82676980D03*
%TD*%
D10*
%TO.P,R12,2*%
%TO.N,/BTN1*%
X103901240Y-75133200D03*
%TO.P,R12,1*%
%TO.N,3.3V*%
X105597960Y-75133200D03*
%TD*%
%TO.P,R13,2*%
%TO.N,/BTN3*%
X113400840Y-84150200D03*
%TO.P,R13,1*%
%TO.N,3.3V*%
X115097560Y-84150200D03*
%TD*%
%TO.P,R14,2*%
%TO.N,/BTN4*%
X113400840Y-79222600D03*
%TO.P,R14,1*%
%TO.N,3.3V*%
X115097560Y-79222600D03*
%TD*%
%TO.P,R15,2*%
%TO.N,/BTN2*%
X113400840Y-77635100D03*
%TO.P,R15,1*%
%TO.N,3.3V*%
X115097560Y-77635100D03*
%TD*%
%TO.P,R16,2*%
%TO.N,GND*%
X96179640Y-91465400D03*
%TO.P,R16,1*%
%TO.N,Net-(R16-Pad1)*%
X97876360Y-91465400D03*
%TD*%
D25*
%TO.N,3.3V*%
X99377500Y-87693500D03*
X110871000Y-93535500D03*
X111760000Y-85471000D03*
X116103400Y-76835000D03*
X112090200Y-75895200D03*
%TO.N,GND*%
X89916000Y-81788000D03*
X92862400Y-86893400D03*
X95377000Y-92456000D03*
X105283000Y-91948000D03*
X106680000Y-88138000D03*
X99669600Y-92989400D03*
X107569000Y-74104500D03*
X100584000Y-74612500D03*
X97713800Y-85801200D03*
X110464600Y-84455000D03*
X112090200Y-77216000D03*
X114249200Y-83235800D03*
X115125500Y-75057000D03*
%TO.N,/BTN1*%
X101396800Y-76631800D03*
%TO.N,VCC*%
X97536000Y-92938600D03*
X91084400Y-78155800D03*
X97993200Y-81889600D03*
X93789500Y-92392500D03*
X94742000Y-87223600D03*
%TO.N,/BTN3*%
X111861600Y-81026000D03*
%TO.N,/BTN4*%
X111836200Y-80162400D03*
%TO.N,/BTN2*%
X112090200Y-79070200D03*
%TO.N,/LEDK*%
X92075000Y-82486500D03*
%TO.N,/D4*%
X111734600Y-84201000D03*
%TO.N,/D5*%
X102044500Y-82296000D03*
X101854000Y-85153500D03*
X112090200Y-78028800D03*
%TO.N,/SCK*%
X103911400Y-92938600D03*
X101854000Y-83947000D03*
%TO.N,/MOSI*%
X101828600Y-92938600D03*
X102438200Y-84505800D03*
%TO.N,/D2*%
X109905800Y-88493600D03*
X109220000Y-89598500D03*
%TO.N,/D11*%
X110947200Y-88468200D03*
X104203500Y-84048600D03*
%TO.N,/D12*%
X106108500Y-92964000D03*
X112344200Y-84836000D03*
%TD*%
D26*
%TO.N,3.3V*%
X110884180Y-92481400D02*
X110884180Y-91170420D01*
X110884180Y-91170420D02*
X111030600Y-91024000D01*
X104776900Y-82882100D02*
X104952800Y-83058000D01*
X104952800Y-83058000D02*
X105956200Y-83058000D01*
X104776900Y-80492302D02*
X104776900Y-82882100D01*
X115097560Y-77635100D02*
X115097560Y-79222600D01*
X115972471Y-83275289D02*
X115972471Y-80097511D01*
X115972471Y-80097511D02*
X115097560Y-79222600D01*
X115097560Y-84150200D02*
X115972471Y-83275289D01*
X109776900Y-77272300D02*
X109776900Y-77370300D01*
X115097560Y-77635100D02*
X115227100Y-77635100D01*
X115227100Y-77635100D02*
X116001800Y-76860400D01*
X109776900Y-77272300D02*
X109776900Y-77595100D01*
X105597960Y-75401030D02*
X105597960Y-75133200D01*
X104776900Y-77272300D02*
X104776900Y-76222090D01*
X104776900Y-76222090D02*
X105597960Y-75401030D01*
X105470960Y-86207600D02*
X105776900Y-85901660D01*
X105470960Y-86207600D02*
X104646849Y-87031711D01*
X102964329Y-87031711D02*
X102964329Y-87013129D01*
X104646849Y-87031711D02*
X102964329Y-87031711D01*
X111030600Y-91024000D02*
X111930600Y-91024000D01*
X108788200Y-92389960D02*
X108788200Y-92366400D01*
X110490000Y-92389960D02*
X110581440Y-92481400D01*
X107213400Y-92389960D02*
X110490000Y-92389960D01*
X105776900Y-83237300D02*
X105956200Y-83058000D01*
X105776900Y-83992300D02*
X105776900Y-83237300D01*
X109916898Y-82632300D02*
X110636900Y-82632300D01*
X109499400Y-83049798D02*
X109916898Y-82632300D01*
X109499400Y-83058000D02*
X109499400Y-83049798D01*
X111109599Y-84693599D02*
X111760000Y-85344000D01*
X111334300Y-82632300D02*
X111480600Y-82778600D01*
X111480600Y-82778600D02*
X111480600Y-83529998D01*
X110636900Y-82632300D02*
X111334300Y-82632300D01*
X111480600Y-83529998D02*
X111109599Y-83900999D01*
X111109599Y-83900999D02*
X111109599Y-84693599D01*
X111760000Y-86258300D02*
X111912400Y-86410700D01*
X111760000Y-85344000D02*
X111760000Y-86258300D01*
X110581440Y-92481400D02*
X110581440Y-92598240D01*
X115034862Y-84150200D02*
X115097560Y-84150200D01*
X98841560Y-81102200D02*
X99085400Y-81102200D01*
X102069900Y-80632300D02*
X101866700Y-80632300D01*
X103916900Y-80632300D02*
X102069900Y-80632300D01*
X104636902Y-80632300D02*
X103916900Y-80632300D01*
X104776900Y-80492302D02*
X104636902Y-80632300D01*
X104776900Y-77272300D02*
X104776900Y-80492302D01*
X105956200Y-83058000D02*
X109499400Y-83058000D01*
X95412560Y-83604100D02*
X95425260Y-83616800D01*
X95463360Y-80518000D02*
X95463360Y-83604100D01*
X95476060Y-83616800D02*
X95961200Y-83616800D01*
X96697800Y-84353400D02*
X97256500Y-84353400D01*
X95961200Y-83616800D02*
X96697800Y-84353400D01*
X97586000Y-87691760D02*
X97977960Y-87299800D01*
X97586000Y-88658000D02*
X97586000Y-87691760D01*
X99158360Y-88658000D02*
X99390200Y-88889840D01*
X97586000Y-88658000D02*
X99158360Y-88658000D01*
X97088799Y-84521101D02*
X97256500Y-84353400D01*
X97977960Y-86990362D02*
X97088799Y-86101201D01*
X97977960Y-87299800D02*
X97977960Y-86990362D01*
X105470960Y-86207600D02*
X105470960Y-85473540D01*
X105776900Y-85167600D02*
X105776900Y-83992300D01*
X105470960Y-85473540D02*
X105776900Y-85167600D01*
X100320562Y-80632300D02*
X100914200Y-80632300D01*
X99926862Y-81026000D02*
X100320562Y-80632300D01*
X98841560Y-81026000D02*
X99926862Y-81026000D01*
X102069900Y-80632300D02*
X100914200Y-80632300D01*
X100914200Y-80632300D02*
X100723700Y-80632300D01*
X110884180Y-93522320D02*
X110871000Y-93535500D01*
X110884180Y-92481400D02*
X110884180Y-93522320D01*
X112597202Y-85471000D02*
X113093500Y-84974702D01*
X111760000Y-85471000D02*
X112597202Y-85471000D01*
X114298449Y-84949311D02*
X115097560Y-84150200D01*
X113093500Y-84963000D02*
X113107189Y-84949311D01*
X113107189Y-84949311D02*
X114298449Y-84949311D01*
X113093500Y-84974702D02*
X113093500Y-84963000D01*
X112090200Y-76327998D02*
X112090200Y-75895200D01*
X112090200Y-76327998D02*
X112076502Y-76327998D01*
X111132200Y-77272300D02*
X109776900Y-77272300D01*
X112076502Y-76327998D02*
X111132200Y-77272300D01*
X99377500Y-88877140D02*
X99390200Y-88889840D01*
X99377500Y-87693500D02*
X99377500Y-88877140D01*
X102743000Y-86810382D02*
X102964329Y-87031711D01*
X102503089Y-85764489D02*
X102743000Y-86004400D01*
X101422459Y-85764489D02*
X102503089Y-85764489D01*
X102743000Y-86004400D02*
X102743000Y-86810382D01*
X97622860Y-84353400D02*
X98397870Y-85128410D01*
X97256500Y-84353400D02*
X97622860Y-84353400D01*
X100972449Y-85314479D02*
X101422459Y-85764489D01*
X98397870Y-85128410D02*
X98399910Y-85128410D01*
X98399910Y-85128410D02*
X98585979Y-85314479D01*
X98585979Y-85314479D02*
X100972449Y-85314479D01*
X97088799Y-86101201D02*
X97088799Y-85283201D01*
X97256500Y-85115500D02*
X97256500Y-84353400D01*
X97088799Y-85283201D02*
X97256500Y-85115500D01*
%TO.N,GND*%
X99669600Y-92989400D02*
X99669600Y-94996000D01*
X90269060Y-81409540D02*
X89941400Y-81737200D01*
X91089480Y-81409540D02*
X90269060Y-81409540D01*
X93769180Y-86903560D02*
X92923360Y-86903560D01*
X96281240Y-91465400D02*
X96281240Y-91475560D01*
X115097560Y-80810100D02*
X115097560Y-82334100D01*
X115097560Y-76047600D02*
X115097560Y-75879960D01*
X114960400Y-82471260D02*
X115097560Y-82334100D01*
X115097560Y-76047600D02*
X115097560Y-75930760D01*
X115097560Y-82387440D02*
X114249200Y-83235800D01*
X115097560Y-82334100D02*
X115097560Y-82387440D01*
X109416898Y-78132300D02*
X110636900Y-78132300D01*
X109276900Y-77992302D02*
X109416898Y-78132300D01*
X109276900Y-77272300D02*
X109276900Y-77992302D01*
X110464600Y-84455000D02*
X110464600Y-83845400D01*
X110636900Y-83673100D02*
X110636900Y-83132300D01*
X110464600Y-83845400D02*
X110636900Y-83673100D01*
X106760129Y-75957311D02*
X107584240Y-75133200D01*
X105678089Y-75957311D02*
X106760129Y-75957311D01*
X105276900Y-76358500D02*
X105678089Y-75957311D01*
X105276900Y-77272300D02*
X105276900Y-76358500D01*
X107231982Y-75133200D02*
X107584240Y-75133200D01*
X101610160Y-86588600D02*
X101650800Y-86588600D01*
X97750511Y-85764489D02*
X97713800Y-85801200D01*
X100786049Y-85764489D02*
X97750511Y-85764489D01*
X101610160Y-86588600D02*
X100786049Y-85764489D01*
X108788200Y-90693240D02*
X109362240Y-90693240D01*
X109693000Y-91024000D02*
X110130600Y-91024000D01*
X109362240Y-90693240D02*
X109693000Y-91024000D01*
X108788200Y-90693240D02*
X107213400Y-90693240D01*
X107213400Y-90693240D02*
X106506129Y-89985969D01*
X106506129Y-89985969D02*
X103966359Y-89985969D01*
X103966359Y-89985969D02*
X103745264Y-90207064D01*
X103912200Y-80137000D02*
X103916900Y-80132300D01*
X100748400Y-79384400D02*
X100898200Y-79384400D01*
X103916900Y-80132300D02*
X101646100Y-80132300D01*
X97348040Y-82626200D02*
X97322640Y-82651600D01*
X97144840Y-82677000D02*
X97119440Y-82702400D01*
X97144840Y-81026000D02*
X97144840Y-82677000D01*
X97144840Y-81026000D02*
X97144840Y-80616258D01*
X91089480Y-81409540D02*
X91923402Y-81409540D01*
X96222471Y-79693889D02*
X95007311Y-79693889D01*
X95007311Y-79693889D02*
X94539951Y-79693889D01*
X93766640Y-79921338D02*
X93994089Y-79693889D01*
X93766640Y-80518000D02*
X93766640Y-79921338D01*
X93994089Y-79693889D02*
X95007311Y-79693889D01*
X96222471Y-79756453D02*
X96598318Y-80132300D01*
X96222471Y-79693889D02*
X96222471Y-79756453D01*
X97658300Y-80132300D02*
X97404300Y-80132300D01*
X97144840Y-80264760D02*
X97277300Y-80132300D01*
X96870900Y-80183100D02*
X97144840Y-80457040D01*
X96870900Y-80132300D02*
X96870900Y-80183100D01*
X96598318Y-80132300D02*
X96870900Y-80132300D01*
X96870900Y-80132300D02*
X97277300Y-80132300D01*
X97144840Y-81026000D02*
X97144840Y-80457040D01*
X97144840Y-80457040D02*
X97144840Y-80264760D01*
X97144840Y-80401160D02*
X97413700Y-80132300D01*
X97144840Y-80457040D02*
X97144840Y-80401160D01*
X97277300Y-80132300D02*
X97413700Y-80132300D01*
X97413700Y-80132300D02*
X97658300Y-80132300D01*
X96216000Y-87365040D02*
X96281240Y-87299800D01*
X96216000Y-88658000D02*
X96216000Y-87365040D01*
X92953840Y-88341200D02*
X92953840Y-89941400D01*
X92953840Y-88341200D02*
X92953840Y-88150700D01*
X92953840Y-89941400D02*
X92760800Y-89941400D01*
X95895602Y-87299800D02*
X95194401Y-86598599D01*
X96281240Y-87299800D02*
X95895602Y-87299800D01*
X100548440Y-75590400D02*
X100548440Y-75498960D01*
X96179640Y-91653360D02*
X96179640Y-91465400D01*
X95377000Y-92456000D02*
X96179640Y-91653360D01*
X105232200Y-91897200D02*
X105283000Y-91948000D01*
X103893536Y-91897200D02*
X105232200Y-91897200D01*
X103682800Y-90269528D02*
X103682800Y-91686464D01*
X103682800Y-91686464D02*
X103893536Y-91897200D01*
X106680000Y-88138000D02*
X106680000Y-87834691D01*
X107656851Y-86857840D02*
X107696000Y-86857840D01*
X106680000Y-87834691D02*
X107656851Y-86857840D01*
X104833249Y-87481721D02*
X102777928Y-87481720D01*
X104833249Y-87481721D02*
X105167570Y-87147400D01*
X102777928Y-87481720D02*
X102235000Y-86938792D01*
X102235000Y-86938792D02*
X101960352Y-86938792D01*
X106320871Y-85468489D02*
X106320871Y-86946711D01*
X101960352Y-86938792D02*
X101610160Y-86588600D01*
X106120182Y-87147400D02*
X105167570Y-87147400D01*
X106320871Y-86946711D02*
X106120182Y-87147400D01*
X106276900Y-85424518D02*
X106320871Y-85468489D01*
X106276900Y-83992300D02*
X106276900Y-85424518D01*
X112020899Y-77216000D02*
X112090200Y-77216000D01*
X111104599Y-78132300D02*
X112020899Y-77216000D01*
X110636900Y-78132300D02*
X111104599Y-78132300D01*
X107571540Y-75120500D02*
X107584240Y-75133200D01*
X107569000Y-75117960D02*
X107584240Y-75133200D01*
X107569000Y-74104500D02*
X107569000Y-75117960D01*
X100584000Y-75554840D02*
X100548440Y-75590400D01*
X100584000Y-74612500D02*
X100584000Y-75554840D01*
X115125500Y-76019660D02*
X115097560Y-76047600D01*
X115125500Y-75057000D02*
X115125500Y-76019660D01*
X92862400Y-88275160D02*
X92928440Y-88341200D01*
X92862400Y-86893400D02*
X92862400Y-88275160D01*
X94074141Y-86598599D02*
X95194401Y-86598599D01*
X93769180Y-86903560D02*
X94074141Y-86598599D01*
X91923402Y-81409540D02*
X92258130Y-81074812D01*
X92258130Y-81074812D02*
X92258130Y-80447129D01*
X92258130Y-80447129D02*
X93011370Y-79693889D01*
X93082081Y-79693889D02*
X93409889Y-79693889D01*
X93011370Y-79693889D02*
X93409889Y-79693889D01*
X93597611Y-79752309D02*
X93766640Y-79921338D01*
X93597611Y-79693889D02*
X93597611Y-79752309D01*
X93597611Y-79693889D02*
X93994089Y-79693889D01*
X93409889Y-79693889D02*
X93597611Y-79693889D01*
X100748400Y-79782100D02*
X100398200Y-80132300D01*
X100748400Y-79384400D02*
X100748400Y-79782100D01*
X100398200Y-80132300D02*
X97658300Y-80132300D01*
X100748400Y-79793400D02*
X101087300Y-80132300D01*
X100748400Y-79384400D02*
X100748400Y-79793400D01*
X101646100Y-80132300D02*
X101087300Y-80132300D01*
X100748400Y-80099600D02*
X100715700Y-80132300D01*
X100748400Y-79793400D02*
X100748400Y-80099600D01*
X101087300Y-80132300D02*
X100715700Y-80132300D01*
X100715700Y-80132300D02*
X100398200Y-80132300D01*
X99669600Y-95694500D02*
X99618800Y-95745300D01*
X99669600Y-94996000D02*
X99669600Y-95694500D01*
%TO.N,Net-(C5-Pad1)*%
X101346000Y-90728800D02*
X101478080Y-90860880D01*
X101478080Y-90860880D02*
X101900233Y-90438727D01*
X100203119Y-86878279D02*
X99913440Y-86588600D01*
X101478080Y-90860880D02*
X100203119Y-89585919D01*
X99913440Y-87465130D02*
X99913440Y-86588600D01*
X100203119Y-87754809D02*
X99913440Y-87465130D01*
X100203119Y-89585919D02*
X100203119Y-87754809D01*
X102458520Y-90860880D02*
X101478080Y-90860880D01*
X102877191Y-90442209D02*
X102458520Y-90860880D01*
X107276900Y-83992300D02*
X107276900Y-85369400D01*
X107915429Y-86007929D02*
X108435111Y-86007929D01*
X108623980Y-89292820D02*
X108153200Y-89763600D01*
X108623980Y-86196798D02*
X108623980Y-89292820D01*
X107276900Y-85369400D02*
X107915429Y-86007929D01*
X102877191Y-90438727D02*
X102877191Y-90442209D01*
X108153200Y-89763600D02*
X106920170Y-89763600D01*
X108435111Y-86007929D02*
X108623980Y-86196798D01*
X106920170Y-89763600D02*
X106692529Y-89535959D01*
X106692529Y-89535959D02*
X103779958Y-89535960D01*
X103779958Y-89535960D02*
X102877191Y-90438727D01*
%TO.N,Net-(C6-Pad1)*%
X106795881Y-84011281D02*
X106776900Y-83992300D01*
X107375960Y-88874600D02*
X107696000Y-88554560D01*
X105186480Y-88554560D02*
X105176320Y-88564720D01*
X105176320Y-87775060D02*
X105176320Y-88564720D01*
X105353970Y-87597410D02*
X105176320Y-87775060D01*
X106351582Y-87597410D02*
X105353970Y-87597410D01*
X106795881Y-87153111D02*
X106351582Y-87597410D01*
X106795881Y-87153111D02*
X106795881Y-84011281D01*
X107512559Y-88738001D02*
X107696000Y-88554560D01*
X106391999Y-88738001D02*
X107512559Y-88738001D01*
X106218718Y-88564720D02*
X106391999Y-88738001D01*
X105176320Y-88564720D02*
X106218718Y-88564720D01*
%TO.N,/BTN1*%
X101854000Y-76657200D02*
X101396800Y-76657200D01*
X102245160Y-76266040D02*
X101854000Y-76657200D01*
X102245160Y-75590400D02*
X102245160Y-76266040D01*
X103911400Y-75143360D02*
X103901240Y-75133200D01*
X104089200Y-75321160D02*
X103901240Y-75133200D01*
X103916900Y-75148860D02*
X103901240Y-75133200D01*
X103901240Y-76260960D02*
X103901240Y-75133200D01*
X103916900Y-76276620D02*
X103901240Y-76260960D01*
X103916900Y-78132300D02*
X103916900Y-76276620D01*
X102245160Y-75590400D02*
X102743000Y-75590400D01*
X103200200Y-75133200D02*
X103901240Y-75133200D01*
X102743000Y-75590400D02*
X103200200Y-75133200D01*
%TO.N,/AREF*%
X105776900Y-76552298D02*
X105900598Y-76428600D01*
X105900598Y-76428600D02*
X108864400Y-76428600D01*
X109280960Y-76012040D02*
X109280960Y-75234800D01*
X108864400Y-76428600D02*
X109280960Y-76012040D01*
X105776900Y-76552298D02*
X105776900Y-77272300D01*
%TO.N,VCC*%
X99618800Y-76022200D02*
X99618800Y-73837800D01*
X99618800Y-73837800D02*
X100660200Y-72796400D01*
X97536000Y-92938600D02*
X97536000Y-94970600D01*
X98933000Y-76708000D02*
X99618800Y-76022200D01*
X96577618Y-76708000D02*
X98628200Y-76708000D01*
X98628200Y-76708000D02*
X99764382Y-76708000D01*
X98628200Y-76708000D02*
X98933000Y-76708000D01*
X103916900Y-81132300D02*
X101985700Y-81132300D01*
X101985700Y-81132300D02*
X101757100Y-81132300D01*
X100386260Y-81132300D02*
X101985700Y-81132300D01*
X98816160Y-82702400D02*
X100386260Y-81132300D01*
X91089480Y-78813660D02*
X92053080Y-78813660D01*
X92053080Y-78813660D02*
X92569560Y-78297180D01*
X92569560Y-78297180D02*
X95896020Y-78297180D01*
X95896020Y-78297180D02*
X96367600Y-77825600D01*
X96367600Y-76918018D02*
X96577618Y-76708000D01*
X96367600Y-77825600D02*
X96367600Y-76918018D01*
X99764382Y-76708000D02*
X100440782Y-77384400D01*
X100440782Y-77384400D02*
X100548400Y-77384400D01*
X95467360Y-89158000D02*
X96216000Y-89158000D01*
X94650560Y-88341200D02*
X95467360Y-89158000D01*
X92928440Y-91465400D02*
X92928440Y-91556840D01*
X92928440Y-91556840D02*
X93675200Y-92303600D01*
X98816160Y-82702400D02*
X98806000Y-82702400D01*
X98806000Y-82702400D02*
X98018600Y-81915000D01*
X91089480Y-78813660D02*
X91089480Y-78160880D01*
X94742000Y-88224360D02*
X94625160Y-88341200D01*
X94742000Y-87223600D02*
X94742000Y-88224360D01*
X97536000Y-95669100D02*
X97459800Y-95745300D01*
X97536000Y-94970600D02*
X97536000Y-95669100D01*
%TO.N,/BTN3*%
X113400840Y-82334100D02*
X113296700Y-82334100D01*
X113400840Y-82334100D02*
X113161722Y-82334100D01*
X111810800Y-81051400D02*
X111810800Y-81074260D01*
X111810800Y-81026000D02*
X112764016Y-81979216D01*
X113045956Y-81979216D02*
X113400840Y-82334100D01*
X112764016Y-81979216D02*
X113045956Y-81979216D01*
X111749398Y-81026000D02*
X111810800Y-81026000D01*
X111355698Y-80632300D02*
X111749398Y-81026000D01*
X110636900Y-80632300D02*
X111355698Y-80632300D01*
X113400840Y-82334100D02*
X113400840Y-84150200D01*
%TO.N,/BTN4*%
X110866300Y-80132300D02*
X110871000Y-80137000D01*
X110636900Y-80132300D02*
X110866300Y-80132300D01*
X113172240Y-79451200D02*
X113400840Y-79222600D01*
X113121440Y-79502000D02*
X113400840Y-79222600D01*
X113337340Y-80873600D02*
X113400840Y-80810100D01*
X110636900Y-80132300D02*
X111629722Y-80132300D01*
X113375440Y-79248000D02*
X113400840Y-79222600D01*
X113362740Y-80848200D02*
X113400840Y-80810100D01*
X113273840Y-79349600D02*
X113400840Y-79222600D01*
X113235740Y-80645000D02*
X113400840Y-80810100D01*
X113400840Y-79222600D02*
X113400840Y-80810100D01*
X111836200Y-80162400D02*
X111897602Y-80162400D01*
X112837402Y-79222600D02*
X113400840Y-79222600D01*
X111897602Y-80162400D02*
X112837402Y-79222600D01*
%TO.N,/BTN2*%
X110636900Y-79632300D02*
X110823500Y-79632300D01*
X113400840Y-77635100D02*
X113400840Y-76047600D01*
X111963200Y-79171800D02*
X111963200Y-79072740D01*
X111493312Y-79632300D02*
X110636900Y-79632300D01*
X112090200Y-79035412D02*
X111493312Y-79632300D01*
X112090200Y-79070200D02*
X112090200Y-79035412D01*
X112090200Y-78945740D02*
X113400840Y-77635100D01*
X112090200Y-79070200D02*
X112090200Y-78945740D01*
%TO.N,/D-*%
X103196898Y-79132300D02*
X103073401Y-79008803D01*
X103916900Y-79132300D02*
X103196898Y-79132300D01*
X102448400Y-77764600D02*
X102448400Y-77384400D01*
X99739490Y-78085990D02*
X102127010Y-78085990D01*
X102127010Y-78085990D02*
X102448400Y-77764600D01*
X99019360Y-77597000D02*
X99250500Y-77597000D01*
X99250500Y-77597000D02*
X99739490Y-78085990D01*
X103073401Y-78819399D02*
X103073401Y-79008803D01*
X102339992Y-78085990D02*
X103073401Y-78819399D01*
X102127010Y-78085990D02*
X102339992Y-78085990D01*
%TO.N,/D+*%
X102812588Y-79384400D02*
X103057188Y-79629000D01*
X102448400Y-79384400D02*
X102812588Y-79384400D01*
X103913600Y-79629000D02*
X103916900Y-79632300D01*
X103057188Y-79629000D02*
X103913600Y-79629000D01*
X102448400Y-79384400D02*
X102448400Y-78953400D01*
X102448400Y-78953400D02*
X101981000Y-78486000D01*
X99730560Y-78486000D02*
X99019360Y-79197200D01*
X101981000Y-78486000D02*
X99730560Y-78486000D01*
%TO.N,/LEDK*%
X92075000Y-82486500D02*
X92075000Y-83657440D01*
%TO.N,/D4*%
X111493312Y-82132300D02*
X111930610Y-82569598D01*
X110636900Y-82132300D02*
X111493312Y-82132300D01*
X111930610Y-82569598D02*
X111930610Y-83667600D01*
X111930610Y-83667600D02*
X111930610Y-83674790D01*
X111930610Y-84004990D02*
X111734600Y-84201000D01*
X111930610Y-83667600D02*
X111930610Y-84004990D01*
%TO.N,/D5*%
X101228999Y-83596199D02*
X101228999Y-84515799D01*
X101553999Y-83271199D02*
X101228999Y-83596199D01*
X101228999Y-84515799D02*
X101854000Y-85140800D01*
X102122380Y-82437380D02*
X102082600Y-82397600D01*
X101553999Y-83271199D02*
X101831301Y-83271199D01*
X102044500Y-83058000D02*
X102044500Y-82296000D01*
X101831301Y-83271199D02*
X102044500Y-83058000D01*
X111490199Y-78628801D02*
X112090200Y-78028800D01*
X111490199Y-79009801D02*
X111490199Y-78628801D01*
X111367700Y-79132300D02*
X111490199Y-79009801D01*
X110636900Y-79132300D02*
X111367700Y-79132300D01*
%TO.N,/SCK*%
X103911400Y-92938600D02*
X103911400Y-94996000D01*
X103060488Y-82132300D02*
X102572390Y-82620398D01*
X103916900Y-82132300D02*
X103060488Y-82132300D01*
X101869401Y-83880799D02*
X101854000Y-83896200D01*
X102402801Y-83880799D02*
X101869401Y-83880799D01*
X102548400Y-83735200D02*
X102402801Y-83880799D01*
X102548400Y-83330210D02*
X102572390Y-83306220D01*
X102572390Y-83306220D02*
X102572390Y-82620398D01*
X102548400Y-83735200D02*
X102548400Y-83330210D01*
X103911400Y-95694500D02*
X103962200Y-95745300D01*
X103911400Y-94996000D02*
X103911400Y-95694500D01*
%TO.N,/MOSI*%
X101828600Y-92938600D02*
X101828600Y-95021400D01*
X103196898Y-82632300D02*
X103022400Y-82806798D01*
X103916900Y-82632300D02*
X103196898Y-82632300D01*
X103022400Y-83921600D02*
X102438200Y-84505800D01*
X103022400Y-82806798D02*
X103022400Y-83921600D01*
X101828600Y-95719900D02*
X101803200Y-95745300D01*
X101828600Y-95021400D02*
X101828600Y-95719900D01*
%TO.N,Net-(L1-Pad1)*%
X98191002Y-89158000D02*
X97586000Y-89158000D01*
X98316001Y-90211471D02*
X98316001Y-89282999D01*
X98691090Y-90586560D02*
X98316001Y-90211471D01*
X98316001Y-89282999D02*
X98191002Y-89158000D01*
X99390200Y-90586560D02*
X98691090Y-90586560D01*
%TO.N,Net-(Q1-Pad1)*%
X93741240Y-83604100D02*
X93728540Y-83616800D01*
X93792040Y-82016600D02*
X93792040Y-83604100D01*
X93779340Y-84993480D02*
X93769180Y-85003640D01*
X93779340Y-83616800D02*
X93779340Y-84993480D01*
%TO.N,Net-(Q1-Pad3)*%
X93497400Y-85953600D02*
X93285778Y-85953600D01*
X95867220Y-85953600D02*
X93497400Y-85953600D01*
X92075000Y-85354160D02*
X92674440Y-85953600D01*
X92674440Y-85953600D02*
X93497400Y-85953600D01*
%TO.N,Net-(R2-Pad1)*%
X94933960Y-89658000D02*
X96216000Y-89658000D01*
X94650560Y-89941400D02*
X94933960Y-89658000D01*
%TO.N,Net-(R4-Pad2)*%
X105276900Y-83992300D02*
X105276900Y-84943700D01*
X105276900Y-84943700D02*
X104927400Y-85293200D01*
X104927400Y-85293200D02*
X104038400Y-85293200D01*
X103774240Y-85557360D02*
X103774240Y-86207600D01*
X104038400Y-85293200D02*
X103774240Y-85557360D01*
%TO.N,Net-(R5-Pad2)*%
X97322640Y-77597000D02*
X97271840Y-77597000D01*
X91089480Y-79463900D02*
X92039250Y-79463900D01*
X92039250Y-79463900D02*
X92755960Y-78747190D01*
X96172450Y-78747190D02*
X97322640Y-77597000D01*
X92755960Y-78747190D02*
X96172450Y-78747190D01*
%TO.N,Net-(D2-PadC)*%
X111287460Y-87360760D02*
X111912400Y-87985700D01*
X110312200Y-87360760D02*
X111287460Y-87360760D01*
%TO.N,Net-(R6-Pad1)*%
X109776900Y-85128740D02*
X110312200Y-85664040D01*
X109776900Y-83992300D02*
X109776900Y-85128740D01*
%TO.N,Net-(R7-Pad2)*%
X91089480Y-80111600D02*
X92027960Y-80111600D01*
X92942360Y-79197200D02*
X97297240Y-79197200D01*
X92027960Y-80111600D02*
X92942360Y-79197200D01*
%TO.N,Net-(R9-Pad2)*%
X112830600Y-91024000D02*
X112830600Y-92231700D01*
X112830600Y-92231700D02*
X112580900Y-92481400D01*
%TO.N,Net-(R10-Pad2)*%
X95983360Y-90158000D02*
X96216000Y-90158000D01*
X94625160Y-91465400D02*
X94675960Y-91465400D01*
X95997582Y-90158000D02*
X96216000Y-90158000D01*
X94690182Y-91465400D02*
X95997582Y-90158000D01*
X94625160Y-91465400D02*
X94690182Y-91465400D01*
%TO.N,/D14*%
X103781100Y-81632300D02*
X103776779Y-81636621D01*
X103916900Y-81632300D02*
X103781100Y-81632300D01*
X100587300Y-81632300D02*
X103916900Y-81632300D01*
X100380800Y-81838800D02*
X100587300Y-81632300D01*
X100380800Y-82692240D02*
X100380800Y-81838800D01*
%TO.N,Net-(D3-PadC)*%
X98867060Y-84388960D02*
X98831500Y-84353400D01*
X100380800Y-84388960D02*
X98867060Y-84388960D01*
%TO.N,Net-(R16-Pad1)*%
X97586000Y-91073440D02*
X97977960Y-91465400D01*
X97586000Y-90158000D02*
X97586000Y-91073440D01*
%TO.N,/D3*%
X109023990Y-86130800D02*
X109023990Y-86392590D01*
X109023990Y-86392590D02*
X109023991Y-88342983D01*
X110640601Y-89098999D02*
X109605201Y-89098999D01*
X111030600Y-89824000D02*
X111030600Y-89488998D01*
X111030600Y-89488998D02*
X110640601Y-89098999D01*
X109023991Y-88517789D02*
X109023991Y-88342983D01*
X109605201Y-89098999D02*
X109023991Y-88517789D01*
X107776900Y-85234400D02*
X108150419Y-85607919D01*
X107776900Y-83992300D02*
X107776900Y-85234400D01*
X109023990Y-86031109D02*
X109023990Y-86392590D01*
X108600800Y-85607919D02*
X109023990Y-86031109D01*
X108150419Y-85607919D02*
X108600800Y-85607919D01*
%TO.N,/D2*%
X109474000Y-88156582D02*
X109785618Y-88468200D01*
X109892400Y-89585800D02*
X110130600Y-89824000D01*
X109029500Y-89585800D02*
X109892400Y-89585800D01*
X108276900Y-85035900D02*
X108448909Y-85207909D01*
X108276900Y-83992300D02*
X108276900Y-85035900D01*
X108766489Y-85207909D02*
X109474000Y-85915420D01*
X108448909Y-85207909D02*
X108766489Y-85207909D01*
X109474000Y-85915420D02*
X109474000Y-86741000D01*
X109474000Y-86309200D02*
X109474000Y-86741000D01*
X109474000Y-86741000D02*
X109474000Y-88156582D01*
%TO.N,/D11*%
X104776900Y-83992300D02*
X104776900Y-84351500D01*
X104776900Y-83992300D02*
X104776900Y-84046700D01*
X104720600Y-84048600D02*
X104776900Y-83992300D01*
X104140000Y-84048600D02*
X104720600Y-84048600D01*
X111930600Y-89174000D02*
X111631200Y-88874600D01*
X111930600Y-89824000D02*
X111930600Y-89174000D01*
X111631200Y-88874600D02*
X111226600Y-88874600D01*
X111226600Y-88874600D02*
X110896400Y-88544400D01*
%TO.N,/D12*%
X106108500Y-92964000D02*
X106108500Y-95008700D01*
X112380620Y-82383198D02*
X112380620Y-84799580D01*
X111648423Y-81651001D02*
X112380620Y-82383198D01*
X110636900Y-81632300D02*
X110655601Y-81651001D01*
X112380620Y-84799580D02*
X112344200Y-84836000D01*
X110655601Y-81651001D02*
X111648423Y-81651001D01*
X106108500Y-95707200D02*
X106146600Y-95745300D01*
X106108500Y-95008700D02*
X106108500Y-95707200D01*
%TD*%
M02*
