G04 #@! TF.GenerationSoftware,KiCad,Pcbnew,(5.1.6)-1*
G04 #@! TF.CreationDate,2020-09-19T09:47:57+02:00*
G04 #@! TF.ProjectId,ArduinoProMicroUSB,41726475-696e-46f5-9072-6f4d6963726f,rev?*
G04 #@! TF.SameCoordinates,Original*
G04 #@! TF.FileFunction,Copper,L2,Bot*
G04 #@! TF.FilePolarity,Positive*
%FSLAX46Y46*%
G04 Gerber Fmt 4.6, Leading zero omitted, Abs format (unit mm)*
G04 Created by KiCad (PCBNEW (5.1.6)-1) date 2020-09-19 09:47:57*
%MOMM*%
%LPD*%
G01*
G04 APERTURE LIST*
G04 #@! TA.AperFunction,SMDPad,CuDef*
%ADD10R,0.345000X3.810000*%
G04 #@! TD*
G04 #@! TA.AperFunction,ComponentPad*
%ADD11O,1.700000X1.700000*%
G04 #@! TD*
G04 #@! TA.AperFunction,ComponentPad*
%ADD12R,1.700000X1.700000*%
G04 #@! TD*
G04 #@! TA.AperFunction,ViaPad*
%ADD13C,0.800000*%
G04 #@! TD*
G04 #@! TA.AperFunction,Conductor*
%ADD14C,0.250000*%
G04 #@! TD*
G04 #@! TA.AperFunction,Conductor*
%ADD15C,0.254000*%
G04 #@! TD*
G04 APERTURE END LIST*
D10*
X171053760Y-70421500D03*
X169672000Y-70421500D03*
X171744640Y-70421500D03*
X170362880Y-70421500D03*
X173817280Y-70421500D03*
X172435520Y-70421500D03*
X174508160Y-70421500D03*
X173126400Y-70421500D03*
X175201580Y-70421500D03*
X175892460Y-70421500D03*
X176583340Y-70421500D03*
X177274220Y-70421500D03*
D11*
X187845700Y-63385700D03*
D12*
X187845700Y-60845700D03*
D11*
X185127900Y-72339200D03*
D12*
X185127900Y-69799200D03*
X156324300Y-69634100D03*
D11*
X156324300Y-72174100D03*
D12*
X156298900Y-53009800D03*
D11*
X156298900Y-50469800D03*
D12*
X186575700Y-54724300D03*
D11*
X186575700Y-52184300D03*
D13*
X159448500Y-55181500D03*
X164020500Y-62166500D03*
X165912800Y-44564300D03*
X156591000Y-63639700D03*
X184721500Y-50673000D03*
X172300900Y-54889400D03*
X176415700Y-50660300D03*
X175298100Y-61010800D03*
X168084500Y-53098700D03*
X178498500Y-57150000D03*
X173736000Y-65849500D03*
X167068500Y-57658000D03*
X176583340Y-73091040D03*
X179565300Y-58039000D03*
X178841400Y-69354700D03*
X182753000Y-55245000D03*
X175615600Y-49250600D03*
X168173400Y-57785000D03*
X170878500Y-46228000D03*
X165760400Y-51117500D03*
X158400750Y-58604150D03*
X160215580Y-62075060D03*
X162077400Y-59377580D03*
X166560500Y-50355500D03*
X172783500Y-47498000D03*
X171958000Y-46736000D03*
X173990000Y-47688500D03*
D14*
X169672000Y-72576500D02*
X170412600Y-73317100D01*
X169672000Y-70421500D02*
X169672000Y-72576500D01*
X173817280Y-70421500D02*
X173817280Y-73309480D01*
X170412600Y-73317100D02*
X173824900Y-73317100D01*
X173817280Y-73309480D02*
X173824900Y-73317100D01*
X174508160Y-70421500D02*
X174508160Y-73111360D01*
X174536100Y-73139300D02*
X174536100Y-73317100D01*
X174508160Y-73111360D02*
X174536100Y-73139300D01*
X173824900Y-73317100D02*
X174536100Y-73317100D01*
X167793501Y-57059999D02*
X167068500Y-57785000D01*
X168521401Y-57059999D02*
X167793501Y-57059999D01*
X171744640Y-70421500D02*
X171744640Y-60283238D01*
X171744640Y-60283238D02*
X168521401Y-57059999D01*
X176583340Y-70421500D02*
X176583340Y-73091040D01*
X176583340Y-73091040D02*
X176583340Y-73091040D01*
X175201580Y-70421500D02*
X175201580Y-72547480D01*
X175201580Y-72547480D02*
X175412400Y-72758300D01*
X175412400Y-72758300D02*
X175691800Y-72758300D01*
X175892460Y-72557640D02*
X175892460Y-70421500D01*
X175691800Y-72758300D02*
X175892460Y-72557640D01*
X182270400Y-55384700D02*
X182562500Y-55384700D01*
X179565300Y-58089800D02*
X182270400Y-55384700D01*
X175892460Y-68449878D02*
X175892460Y-70421500D01*
X176150839Y-68191499D02*
X175892460Y-68449878D01*
X177678199Y-68191499D02*
X176150839Y-68191499D01*
X178841400Y-69354700D02*
X177678199Y-68191499D01*
X175615600Y-49250600D02*
X173126400Y-51739800D01*
X174461001Y-67115277D02*
X173126400Y-68449878D01*
X173126400Y-68449878D02*
X173126400Y-70421500D01*
X174461001Y-53074401D02*
X174461001Y-67115277D01*
X173126400Y-51739800D02*
X174461001Y-53074401D01*
X171053760Y-68449878D02*
X171053760Y-70421500D01*
X171294630Y-68209008D02*
X171053760Y-68449878D01*
X171294630Y-60469638D02*
X171294630Y-68209008D01*
X168609992Y-57785000D02*
X171294630Y-60469638D01*
X168173400Y-57785000D02*
X168609992Y-57785000D01*
X165987899Y-57993301D02*
X166364899Y-58370301D01*
X170844620Y-60656038D02*
X168698583Y-58510001D01*
X168698583Y-58510001D02*
X167825399Y-58510001D01*
X170362880Y-70421500D02*
X170362880Y-68449878D01*
X170844620Y-67968138D02*
X170844620Y-60656038D01*
X170362880Y-68449878D02*
X170844620Y-67968138D01*
X165987899Y-57993301D02*
X165987899Y-57297299D01*
X166504599Y-58510001D02*
X165987899Y-57993301D01*
X167825399Y-58510001D02*
X166504599Y-58510001D01*
X171691300Y-45593000D02*
X171919900Y-45821600D01*
X171386500Y-45593000D02*
X171691300Y-45593000D01*
X172110400Y-45821600D02*
X171919900Y-45821600D01*
X171069000Y-45910500D02*
X171386500Y-45593000D01*
X170878500Y-45910500D02*
X171069000Y-45910500D01*
X170878500Y-45910500D02*
X170878500Y-48450500D01*
X170878500Y-48450500D02*
X167068500Y-52260500D01*
X167068500Y-56197500D02*
X167078099Y-56207099D01*
X167068500Y-52260500D02*
X167068500Y-56197500D01*
X165987899Y-57297299D02*
X167078099Y-56207099D01*
X165760400Y-51244500D02*
X165760400Y-51117500D01*
X158400750Y-58604150D02*
X165760400Y-51244500D01*
X160223200Y-61231780D02*
X162077400Y-59377580D01*
X160223200Y-62141100D02*
X160223200Y-61231780D01*
X166827149Y-51250753D02*
X158514902Y-59563000D01*
X166427150Y-50285650D02*
X166827149Y-50685649D01*
X166827149Y-50685649D02*
X166827149Y-51250753D01*
X158514902Y-67443498D02*
X156324300Y-69634100D01*
X158514902Y-59563000D02*
X158514902Y-67443498D01*
X185127900Y-58457102D02*
X185127900Y-69799200D01*
X187750701Y-55834301D02*
X185127900Y-58457102D01*
X187750701Y-53614299D02*
X187750701Y-55834301D01*
X173291500Y-46875700D02*
X173691499Y-46475701D01*
X173691499Y-46475701D02*
X179128099Y-46475701D01*
X179128099Y-46475701D02*
X186201697Y-53549299D01*
X187685701Y-53549299D02*
X187750701Y-53614299D01*
X186201697Y-53549299D02*
X187685701Y-53549299D01*
X173291500Y-46990000D02*
X172783500Y-47498000D01*
X173291500Y-46875700D02*
X173291500Y-46990000D01*
X173018399Y-46082001D02*
X173018399Y-45656597D01*
X172618400Y-46482000D02*
X173018399Y-46082001D01*
X173018399Y-45656597D02*
X172458401Y-45096599D01*
X172458401Y-45096599D02*
X170708299Y-45096599D01*
X165035399Y-51333091D02*
X163307890Y-53060600D01*
X156349700Y-53060600D02*
X156298900Y-53009800D01*
X163307890Y-53060600D02*
X156349700Y-53060600D01*
X165035399Y-50769499D02*
X165035399Y-51333091D01*
X170708299Y-45096599D02*
X165035399Y-50769499D01*
X172212000Y-46482000D02*
X171958000Y-46736000D01*
X172618400Y-46482000D02*
X172212000Y-46482000D01*
X179247800Y-47396400D02*
X186575700Y-54724300D01*
X173990000Y-47625000D02*
X174218600Y-47396400D01*
X173913800Y-47396400D02*
X174218600Y-47396400D01*
X173990000Y-47688500D02*
X173990000Y-47625000D01*
X174218600Y-47396400D02*
X179247800Y-47396400D01*
D15*
G36*
X172594385Y-41506912D02*
G01*
X174359444Y-41746006D01*
X176095964Y-42142355D01*
X177789966Y-42692770D01*
X179427809Y-43392817D01*
X180996307Y-44236862D01*
X182482831Y-45218108D01*
X183875413Y-46328655D01*
X185162839Y-47559561D01*
X186334746Y-48900916D01*
X187381696Y-50341919D01*
X188295262Y-51870970D01*
X189068086Y-53475757D01*
X189693947Y-55143358D01*
X190167807Y-56860348D01*
X190485848Y-58612903D01*
X190645512Y-60386911D01*
X190645512Y-62168089D01*
X190485848Y-63942097D01*
X190167807Y-65694652D01*
X189693947Y-67411642D01*
X189068086Y-69079243D01*
X188295262Y-70684030D01*
X187381696Y-72213081D01*
X186334746Y-73654084D01*
X185162839Y-74995439D01*
X183875413Y-76226345D01*
X182482831Y-77336892D01*
X180996307Y-78318138D01*
X179427809Y-79162183D01*
X177789966Y-79862230D01*
X176095964Y-80412645D01*
X174359444Y-80808994D01*
X172594385Y-81048088D01*
X170815000Y-81128000D01*
X169035615Y-81048088D01*
X167270556Y-80808994D01*
X165534036Y-80412645D01*
X163840034Y-79862230D01*
X162202191Y-79162183D01*
X160633693Y-78318138D01*
X159147169Y-77336892D01*
X157754587Y-76226345D01*
X157527786Y-76009500D01*
X161708765Y-76009500D01*
X161709642Y-76018408D01*
X161709812Y-76027345D01*
X161711105Y-76033260D01*
X161711700Y-76039297D01*
X161714299Y-76047865D01*
X161716208Y-76056596D01*
X161718630Y-76062144D01*
X161720391Y-76067949D01*
X161724614Y-76075850D01*
X161728188Y-76084036D01*
X161731643Y-76089000D01*
X161734505Y-76094355D01*
X161740193Y-76101285D01*
X161745291Y-76108611D01*
X161749648Y-76112806D01*
X161753500Y-76117500D01*
X161760425Y-76123183D01*
X161761458Y-76124178D01*
X161766163Y-76127893D01*
X161776645Y-76136495D01*
X161777928Y-76137181D01*
X162972685Y-77080410D01*
X162983145Y-77088995D01*
X162991045Y-77093218D01*
X162998564Y-77098038D01*
X163004198Y-77100248D01*
X163009551Y-77103109D01*
X163018118Y-77105708D01*
X163026438Y-77108971D01*
X163032401Y-77110040D01*
X163038203Y-77111800D01*
X163047109Y-77112677D01*
X163055909Y-77114255D01*
X163069372Y-77114000D01*
X180144416Y-77114000D01*
X180154264Y-77114661D01*
X180166758Y-77113035D01*
X180179297Y-77111800D01*
X180181587Y-77111105D01*
X180183956Y-77110797D01*
X180195869Y-77106773D01*
X180207949Y-77103109D01*
X180210063Y-77101979D01*
X180212322Y-77101216D01*
X180223212Y-77094951D01*
X180234355Y-77088995D01*
X180241997Y-77082724D01*
X181563339Y-76138909D01*
X181567855Y-76136495D01*
X181575485Y-76130233D01*
X181577420Y-76128851D01*
X181581263Y-76125491D01*
X181591000Y-76117500D01*
X181592516Y-76115653D01*
X181594316Y-76114079D01*
X181601997Y-76104100D01*
X181609995Y-76094355D01*
X181611123Y-76092244D01*
X181612579Y-76090353D01*
X181618164Y-76079071D01*
X181624109Y-76067949D01*
X181624803Y-76065661D01*
X181625863Y-76063520D01*
X181629140Y-76051362D01*
X181632800Y-76039297D01*
X181633035Y-76036915D01*
X181633656Y-76034610D01*
X181634499Y-76022046D01*
X181635735Y-76009500D01*
X181635501Y-76007122D01*
X181635661Y-76004735D01*
X181634035Y-75992240D01*
X181632800Y-75979703D01*
X181632105Y-75977413D01*
X181631797Y-75975044D01*
X181627773Y-75963131D01*
X181624109Y-75951051D01*
X181622979Y-75948937D01*
X181622216Y-75946678D01*
X181615952Y-75935789D01*
X181609995Y-75924645D01*
X181608474Y-75922792D01*
X181607285Y-75920725D01*
X181599010Y-75911260D01*
X181591000Y-75901500D01*
X181589149Y-75899981D01*
X181587578Y-75898184D01*
X181577616Y-75890515D01*
X181567855Y-75882505D01*
X181565741Y-75881375D01*
X181563852Y-75879921D01*
X181552584Y-75874342D01*
X181541449Y-75868391D01*
X181539159Y-75867696D01*
X181537019Y-75866637D01*
X181524870Y-75863362D01*
X181512797Y-75859700D01*
X181510414Y-75859465D01*
X181508109Y-75858844D01*
X181495548Y-75858001D01*
X181490462Y-75857500D01*
X181488084Y-75857500D01*
X181478235Y-75856839D01*
X181473156Y-75857500D01*
X161875018Y-75857500D01*
X161873590Y-75857244D01*
X161860098Y-75857500D01*
X161854038Y-75857500D01*
X161852592Y-75857642D01*
X161843655Y-75857812D01*
X161837740Y-75859105D01*
X161831703Y-75859700D01*
X161823135Y-75862299D01*
X161814404Y-75864208D01*
X161808856Y-75866630D01*
X161803051Y-75868391D01*
X161795150Y-75872614D01*
X161786964Y-75876188D01*
X161782000Y-75879643D01*
X161776645Y-75882505D01*
X161769715Y-75888193D01*
X161762389Y-75893291D01*
X161758194Y-75897648D01*
X161753500Y-75901500D01*
X161747819Y-75908423D01*
X161741621Y-75914859D01*
X161738354Y-75919955D01*
X161734505Y-75924645D01*
X161730280Y-75932549D01*
X161725462Y-75940065D01*
X161723254Y-75945695D01*
X161720391Y-75951051D01*
X161717791Y-75959622D01*
X161714529Y-75967939D01*
X161713460Y-75973902D01*
X161711700Y-75979703D01*
X161710823Y-75988603D01*
X161709244Y-75997410D01*
X161709359Y-76003470D01*
X161708765Y-76009500D01*
X157527786Y-76009500D01*
X156467161Y-74995439D01*
X155295254Y-73654084D01*
X154479279Y-72530990D01*
X154882824Y-72530990D01*
X154927475Y-72678199D01*
X155052659Y-72941020D01*
X155226712Y-73174369D01*
X155442945Y-73369278D01*
X155693048Y-73518257D01*
X155967409Y-73615581D01*
X156197300Y-73494914D01*
X156197300Y-72301100D01*
X156451300Y-72301100D01*
X156451300Y-73494914D01*
X156681191Y-73615581D01*
X156955552Y-73518257D01*
X157205655Y-73369278D01*
X157421888Y-73174369D01*
X157595941Y-72941020D01*
X157721125Y-72678199D01*
X157765776Y-72530990D01*
X157655455Y-72321942D01*
X168861444Y-72321942D01*
X168872815Y-72446509D01*
X168908269Y-72566463D01*
X168966444Y-72677195D01*
X169045104Y-72774451D01*
X169141226Y-72854492D01*
X169251116Y-72914243D01*
X169370552Y-72951407D01*
X169467750Y-72961500D01*
X169626500Y-72802750D01*
X169626500Y-70548500D01*
X169023250Y-70548500D01*
X168864500Y-70707250D01*
X168861444Y-72321942D01*
X157655455Y-72321942D01*
X157644455Y-72301100D01*
X156451300Y-72301100D01*
X156197300Y-72301100D01*
X155004145Y-72301100D01*
X154882824Y-72530990D01*
X154479279Y-72530990D01*
X154248304Y-72213081D01*
X153334738Y-70684030D01*
X152561914Y-69079243D01*
X151936053Y-67411642D01*
X151462193Y-65694652D01*
X151144152Y-63942097D01*
X151085817Y-63293935D01*
X154800960Y-63293935D01*
X154800960Y-63441905D01*
X154829827Y-63587031D01*
X154886453Y-63723737D01*
X154968660Y-63846770D01*
X155073290Y-63951400D01*
X155196323Y-64033607D01*
X155333029Y-64090233D01*
X155478155Y-64119100D01*
X155626125Y-64119100D01*
X155771251Y-64090233D01*
X155907957Y-64033607D01*
X156030990Y-63951400D01*
X156135620Y-63846770D01*
X156217827Y-63723737D01*
X156274453Y-63587031D01*
X156303320Y-63441905D01*
X156303320Y-63293935D01*
X156274453Y-63148809D01*
X156217827Y-63012103D01*
X156135620Y-62889070D01*
X156030990Y-62784440D01*
X155907957Y-62702233D01*
X155771251Y-62645607D01*
X155626125Y-62616740D01*
X155478155Y-62616740D01*
X155333029Y-62645607D01*
X155196323Y-62702233D01*
X155073290Y-62784440D01*
X154968660Y-62889070D01*
X154886453Y-63012103D01*
X154829827Y-63148809D01*
X154800960Y-63293935D01*
X151085817Y-63293935D01*
X150984488Y-62168089D01*
X150984488Y-60386911D01*
X151064843Y-59494095D01*
X154800960Y-59494095D01*
X154800960Y-59642065D01*
X154829827Y-59787191D01*
X154886453Y-59923897D01*
X154968660Y-60046930D01*
X155073290Y-60151560D01*
X155196323Y-60233767D01*
X155333029Y-60290393D01*
X155478155Y-60319260D01*
X155626125Y-60319260D01*
X155771251Y-60290393D01*
X155907957Y-60233767D01*
X156030990Y-60151560D01*
X156135620Y-60046930D01*
X156217827Y-59923897D01*
X156274453Y-59787191D01*
X156303320Y-59642065D01*
X156303320Y-59494095D01*
X156274453Y-59348969D01*
X156217827Y-59212263D01*
X156135620Y-59089230D01*
X156030990Y-58984600D01*
X155907957Y-58902393D01*
X155771251Y-58845767D01*
X155626125Y-58816900D01*
X155478155Y-58816900D01*
X155333029Y-58845767D01*
X155196323Y-58902393D01*
X155073290Y-58984600D01*
X154968660Y-59089230D01*
X154886453Y-59212263D01*
X154829827Y-59348969D01*
X154800960Y-59494095D01*
X151064843Y-59494095D01*
X151144152Y-58612903D01*
X151462193Y-56860348D01*
X151936053Y-55143358D01*
X152561914Y-53475757D01*
X153334738Y-51870970D01*
X153958666Y-50826690D01*
X154857424Y-50826690D01*
X154902075Y-50973899D01*
X155027259Y-51236720D01*
X155201312Y-51470069D01*
X155417545Y-51664978D01*
X155667648Y-51813957D01*
X155716308Y-51831218D01*
X155448900Y-51831218D01*
X155384797Y-51837532D01*
X155323157Y-51856230D01*
X155266350Y-51886594D01*
X155216557Y-51927457D01*
X155175694Y-51977250D01*
X155145330Y-52034057D01*
X155126632Y-52095697D01*
X155120318Y-52159800D01*
X155120318Y-53859800D01*
X155126632Y-53923903D01*
X155145330Y-53985543D01*
X155175694Y-54042350D01*
X155216557Y-54092143D01*
X155266350Y-54133006D01*
X155323157Y-54163370D01*
X155384797Y-54182068D01*
X155448900Y-54188382D01*
X157148900Y-54188382D01*
X157213003Y-54182068D01*
X157274643Y-54163370D01*
X157331450Y-54133006D01*
X157381243Y-54092143D01*
X157422106Y-54042350D01*
X157452470Y-53985543D01*
X157471168Y-53923903D01*
X157477482Y-53859800D01*
X157477482Y-53512600D01*
X162853076Y-53512600D01*
X158485844Y-57879833D01*
X158472353Y-57877150D01*
X158329147Y-57877150D01*
X158188692Y-57905088D01*
X158056386Y-57959891D01*
X157937314Y-58039452D01*
X157836052Y-58140714D01*
X157756491Y-58259786D01*
X157701688Y-58392092D01*
X157673750Y-58532547D01*
X157673750Y-58675753D01*
X157701688Y-58816208D01*
X157756491Y-58948514D01*
X157836052Y-59067586D01*
X157937314Y-59168848D01*
X158056386Y-59248409D01*
X158154874Y-59289204D01*
X158137259Y-59310668D01*
X158116787Y-59348969D01*
X158095288Y-59389191D01*
X158069442Y-59474393D01*
X158060715Y-59563000D01*
X158062902Y-59585205D01*
X158062903Y-67256272D01*
X156863658Y-68455518D01*
X155474300Y-68455518D01*
X155410197Y-68461832D01*
X155348557Y-68480530D01*
X155291750Y-68510894D01*
X155241957Y-68551757D01*
X155201094Y-68601550D01*
X155170730Y-68658357D01*
X155152032Y-68719997D01*
X155145718Y-68784100D01*
X155145718Y-70484100D01*
X155152032Y-70548203D01*
X155170730Y-70609843D01*
X155201094Y-70666650D01*
X155241957Y-70716443D01*
X155291750Y-70757306D01*
X155348557Y-70787670D01*
X155410197Y-70806368D01*
X155474300Y-70812682D01*
X155741708Y-70812682D01*
X155693048Y-70829943D01*
X155442945Y-70978922D01*
X155226712Y-71173831D01*
X155052659Y-71407180D01*
X154927475Y-71670001D01*
X154882824Y-71817210D01*
X155004145Y-72047100D01*
X156197300Y-72047100D01*
X156197300Y-72027100D01*
X156451300Y-72027100D01*
X156451300Y-72047100D01*
X157644455Y-72047100D01*
X157765776Y-71817210D01*
X157721125Y-71670001D01*
X157595941Y-71407180D01*
X157421888Y-71173831D01*
X157205655Y-70978922D01*
X156955552Y-70829943D01*
X156906892Y-70812682D01*
X157174300Y-70812682D01*
X157238403Y-70806368D01*
X157300043Y-70787670D01*
X157356850Y-70757306D01*
X157406643Y-70716443D01*
X157447506Y-70666650D01*
X157477870Y-70609843D01*
X157496568Y-70548203D01*
X157502882Y-70484100D01*
X157502882Y-69094742D01*
X158076566Y-68521058D01*
X168861444Y-68521058D01*
X168864500Y-70135750D01*
X169023250Y-70294500D01*
X169626500Y-70294500D01*
X169626500Y-68040250D01*
X169467750Y-67881500D01*
X169370552Y-67891593D01*
X169251116Y-67928757D01*
X169141226Y-67988508D01*
X169045104Y-68068549D01*
X168966444Y-68165805D01*
X168908269Y-68276537D01*
X168872815Y-68396491D01*
X168861444Y-68521058D01*
X158076566Y-68521058D01*
X158818813Y-67778812D01*
X158836061Y-67764657D01*
X158892545Y-67695831D01*
X158934516Y-67617308D01*
X158960362Y-67532105D01*
X158969089Y-67443499D01*
X158966902Y-67421294D01*
X158966902Y-62003457D01*
X159488580Y-62003457D01*
X159488580Y-62146663D01*
X159516518Y-62287118D01*
X159571321Y-62419424D01*
X159650882Y-62538496D01*
X159752144Y-62639758D01*
X159871216Y-62719319D01*
X160003522Y-62774122D01*
X160143977Y-62802060D01*
X160287183Y-62802060D01*
X160427638Y-62774122D01*
X160559944Y-62719319D01*
X160679016Y-62639758D01*
X160780278Y-62538496D01*
X160859839Y-62419424D01*
X160914642Y-62287118D01*
X160942580Y-62146663D01*
X160942580Y-62003457D01*
X160914642Y-61863002D01*
X160859839Y-61730696D01*
X160780278Y-61611624D01*
X160679016Y-61510362D01*
X160675200Y-61507812D01*
X160675200Y-61419003D01*
X161992307Y-60101897D01*
X162005797Y-60104580D01*
X162149003Y-60104580D01*
X162289458Y-60076642D01*
X162421764Y-60021839D01*
X162540836Y-59942278D01*
X162642098Y-59841016D01*
X162721659Y-59721944D01*
X162776462Y-59589638D01*
X162804400Y-59449183D01*
X162804400Y-59305977D01*
X162776462Y-59165522D01*
X162721659Y-59033216D01*
X162642098Y-58914144D01*
X162540836Y-58812882D01*
X162421764Y-58733321D01*
X162289458Y-58678518D01*
X162149003Y-58650580D01*
X162005797Y-58650580D01*
X161865342Y-58678518D01*
X161733036Y-58733321D01*
X161613964Y-58812882D01*
X161512702Y-58914144D01*
X161433141Y-59033216D01*
X161378338Y-59165522D01*
X161350400Y-59305977D01*
X161350400Y-59449183D01*
X161353083Y-59462673D01*
X159919296Y-60896461D01*
X159902042Y-60910621D01*
X159847405Y-60977196D01*
X159845558Y-60979447D01*
X159803586Y-61057971D01*
X159777740Y-61143173D01*
X159769013Y-61231780D01*
X159771201Y-61253995D01*
X159771201Y-61497629D01*
X159752144Y-61510362D01*
X159650882Y-61611624D01*
X159571321Y-61730696D01*
X159516518Y-61863002D01*
X159488580Y-62003457D01*
X158966902Y-62003457D01*
X158966902Y-59750223D01*
X166670071Y-52047055D01*
X166655075Y-52075113D01*
X166648886Y-52086691D01*
X166623040Y-52171893D01*
X166614313Y-52260500D01*
X166616500Y-52282705D01*
X166616501Y-56029473D01*
X165683995Y-56961980D01*
X165666741Y-56976140D01*
X165635883Y-57013741D01*
X165610257Y-57044966D01*
X165568285Y-57123490D01*
X165542439Y-57208692D01*
X165533712Y-57297299D01*
X165535900Y-57319514D01*
X165535899Y-57971095D01*
X165533712Y-57993301D01*
X165539869Y-58055814D01*
X165542439Y-58081907D01*
X165568285Y-58167110D01*
X165610256Y-58245633D01*
X165666740Y-58314460D01*
X165683999Y-58328624D01*
X166169284Y-58813911D01*
X166183440Y-58831160D01*
X166252266Y-58887644D01*
X166301845Y-58914144D01*
X166330789Y-58929615D01*
X166415991Y-58955461D01*
X166504598Y-58964188D01*
X166526803Y-58962001D01*
X168511360Y-58962001D01*
X170392621Y-60843263D01*
X170392620Y-67780914D01*
X170191277Y-67982257D01*
X170092884Y-67928757D01*
X169973448Y-67891593D01*
X169876250Y-67881500D01*
X169717500Y-68040250D01*
X169717500Y-70294500D01*
X169819000Y-70294500D01*
X169819000Y-70548500D01*
X169717500Y-70548500D01*
X169717500Y-72802750D01*
X169876250Y-72961500D01*
X169973448Y-72951407D01*
X170092884Y-72914243D01*
X170202774Y-72854492D01*
X170298896Y-72774451D01*
X170377556Y-72677195D01*
X170389173Y-72655082D01*
X170535380Y-72655082D01*
X170599483Y-72648768D01*
X170661123Y-72630070D01*
X170708320Y-72604843D01*
X170755517Y-72630070D01*
X170817157Y-72648768D01*
X170881260Y-72655082D01*
X171226260Y-72655082D01*
X171290363Y-72648768D01*
X171352003Y-72630070D01*
X171399200Y-72604843D01*
X171446397Y-72630070D01*
X171508037Y-72648768D01*
X171572140Y-72655082D01*
X171917140Y-72655082D01*
X171981243Y-72648768D01*
X172042883Y-72630070D01*
X172090080Y-72604843D01*
X172137277Y-72630070D01*
X172198917Y-72648768D01*
X172263020Y-72655082D01*
X172608020Y-72655082D01*
X172672123Y-72648768D01*
X172733763Y-72630070D01*
X172780960Y-72604843D01*
X172828157Y-72630070D01*
X172889797Y-72648768D01*
X172953900Y-72655082D01*
X173100107Y-72655082D01*
X173111724Y-72677195D01*
X173190384Y-72774451D01*
X173286506Y-72854492D01*
X173396396Y-72914243D01*
X173515832Y-72951407D01*
X173613030Y-72961500D01*
X173771780Y-72802750D01*
X173771780Y-72618524D01*
X173802604Y-72677195D01*
X173862780Y-72751597D01*
X173862780Y-72802750D01*
X174021530Y-72961500D01*
X174118728Y-72951407D01*
X174162720Y-72937718D01*
X174206712Y-72951407D01*
X174303910Y-72961500D01*
X174462660Y-72802750D01*
X174462660Y-72751597D01*
X174522836Y-72677195D01*
X174553660Y-72618524D01*
X174553660Y-72802750D01*
X174712410Y-72961500D01*
X174809608Y-72951407D01*
X174929044Y-72914243D01*
X174929093Y-72914216D01*
X175077077Y-73062200D01*
X175091241Y-73079459D01*
X175160067Y-73135943D01*
X175231958Y-73174369D01*
X175238590Y-73177914D01*
X175323792Y-73203760D01*
X175412400Y-73212487D01*
X175434605Y-73210300D01*
X175669595Y-73210300D01*
X175691800Y-73212487D01*
X175714005Y-73210300D01*
X175780407Y-73203760D01*
X175859732Y-73179697D01*
X175884278Y-73303098D01*
X175939081Y-73435404D01*
X176018642Y-73554476D01*
X176119904Y-73655738D01*
X176238976Y-73735299D01*
X176371282Y-73790102D01*
X176511737Y-73818040D01*
X176654943Y-73818040D01*
X176795398Y-73790102D01*
X176927704Y-73735299D01*
X177046776Y-73655738D01*
X177148038Y-73554476D01*
X177227599Y-73435404D01*
X177282402Y-73303098D01*
X177310340Y-73162643D01*
X177310340Y-73019437D01*
X177298816Y-72961500D01*
X177401222Y-72961500D01*
X177401222Y-72884252D01*
X177478470Y-72961500D01*
X177575668Y-72951407D01*
X177695104Y-72914243D01*
X177804994Y-72854492D01*
X177901116Y-72774451D01*
X177964493Y-72696090D01*
X183686424Y-72696090D01*
X183731075Y-72843299D01*
X183856259Y-73106120D01*
X184030312Y-73339469D01*
X184246545Y-73534378D01*
X184496648Y-73683357D01*
X184771009Y-73780681D01*
X185000900Y-73660014D01*
X185000900Y-72466200D01*
X185254900Y-72466200D01*
X185254900Y-73660014D01*
X185484791Y-73780681D01*
X185759152Y-73683357D01*
X186009255Y-73534378D01*
X186225488Y-73339469D01*
X186399541Y-73106120D01*
X186524725Y-72843299D01*
X186569376Y-72696090D01*
X186448055Y-72466200D01*
X185254900Y-72466200D01*
X185000900Y-72466200D01*
X183807745Y-72466200D01*
X183686424Y-72696090D01*
X177964493Y-72696090D01*
X177979776Y-72677195D01*
X178037951Y-72566463D01*
X178073405Y-72446509D01*
X178084776Y-72321942D01*
X178081720Y-70707250D01*
X177922970Y-70548500D01*
X177319720Y-70548500D01*
X177319720Y-70568500D01*
X177228720Y-70568500D01*
X177228720Y-70548500D01*
X177127220Y-70548500D01*
X177127220Y-70294500D01*
X177228720Y-70294500D01*
X177228720Y-70274500D01*
X177319720Y-70274500D01*
X177319720Y-70294500D01*
X177922970Y-70294500D01*
X178081720Y-70135750D01*
X178083423Y-69235947D01*
X178117083Y-69269607D01*
X178114400Y-69283097D01*
X178114400Y-69426303D01*
X178142338Y-69566758D01*
X178197141Y-69699064D01*
X178276702Y-69818136D01*
X178377964Y-69919398D01*
X178497036Y-69998959D01*
X178629342Y-70053762D01*
X178769797Y-70081700D01*
X178913003Y-70081700D01*
X179053458Y-70053762D01*
X179185764Y-69998959D01*
X179304836Y-69919398D01*
X179406098Y-69818136D01*
X179485659Y-69699064D01*
X179540462Y-69566758D01*
X179568400Y-69426303D01*
X179568400Y-69283097D01*
X179540462Y-69142642D01*
X179485659Y-69010336D01*
X179406098Y-68891264D01*
X179304836Y-68790002D01*
X179185764Y-68710441D01*
X179053458Y-68655638D01*
X178913003Y-68627700D01*
X178769797Y-68627700D01*
X178756307Y-68630383D01*
X178013522Y-67887599D01*
X177999358Y-67870340D01*
X177930532Y-67813856D01*
X177852009Y-67771885D01*
X177766806Y-67746039D01*
X177700404Y-67739499D01*
X177678199Y-67737312D01*
X177655994Y-67739499D01*
X176173043Y-67739499D01*
X176150838Y-67737312D01*
X176062231Y-67746039D01*
X175977029Y-67771885D01*
X175898506Y-67813856D01*
X175829680Y-67870340D01*
X175815520Y-67887595D01*
X175588560Y-68114555D01*
X175571301Y-68128719D01*
X175514817Y-68197546D01*
X175505090Y-68215745D01*
X175499823Y-68212930D01*
X175438183Y-68194232D01*
X175374080Y-68187918D01*
X175225333Y-68187918D01*
X175213716Y-68165805D01*
X175135056Y-68068549D01*
X175038934Y-67988508D01*
X174929044Y-67928757D01*
X174809608Y-67891593D01*
X174712410Y-67881500D01*
X174553660Y-68040250D01*
X174553660Y-68224476D01*
X174522836Y-68165805D01*
X174462660Y-68091403D01*
X174462660Y-68040250D01*
X174318956Y-67896546D01*
X174764906Y-67450596D01*
X174782160Y-67436436D01*
X174838644Y-67367610D01*
X174880615Y-67289087D01*
X174906461Y-67203884D01*
X174913001Y-67137482D01*
X174915188Y-67115277D01*
X174913001Y-67093072D01*
X174913001Y-57967397D01*
X178838300Y-57967397D01*
X178838300Y-58110603D01*
X178866238Y-58251058D01*
X178921041Y-58383364D01*
X179000602Y-58502436D01*
X179101864Y-58603698D01*
X179220936Y-58683259D01*
X179353242Y-58738062D01*
X179493697Y-58766000D01*
X179636903Y-58766000D01*
X179777358Y-58738062D01*
X179909664Y-58683259D01*
X180028736Y-58603698D01*
X180129998Y-58502436D01*
X180209559Y-58383364D01*
X180264362Y-58251058D01*
X180292300Y-58110603D01*
X180292300Y-58002023D01*
X182406496Y-55887829D01*
X182408636Y-55889259D01*
X182540942Y-55944062D01*
X182681397Y-55972000D01*
X182824603Y-55972000D01*
X182965058Y-55944062D01*
X183097364Y-55889259D01*
X183216436Y-55809698D01*
X183317698Y-55708436D01*
X183397259Y-55589364D01*
X183452062Y-55457058D01*
X183480000Y-55316603D01*
X183480000Y-55173397D01*
X183452062Y-55032942D01*
X183397259Y-54900636D01*
X183317698Y-54781564D01*
X183216436Y-54680302D01*
X183097364Y-54600741D01*
X182965058Y-54545938D01*
X182824603Y-54518000D01*
X182681397Y-54518000D01*
X182540942Y-54545938D01*
X182408636Y-54600741D01*
X182289564Y-54680302D01*
X182188302Y-54781564D01*
X182108741Y-54900636D01*
X182077909Y-54975071D01*
X182018067Y-55007057D01*
X181949241Y-55063541D01*
X181935086Y-55080789D01*
X179692765Y-57323112D01*
X179636903Y-57312000D01*
X179493697Y-57312000D01*
X179353242Y-57339938D01*
X179220936Y-57394741D01*
X179101864Y-57474302D01*
X179000602Y-57575564D01*
X178921041Y-57694636D01*
X178866238Y-57826942D01*
X178838300Y-57967397D01*
X174913001Y-57967397D01*
X174913001Y-53096606D01*
X174915188Y-53074401D01*
X174906461Y-52985793D01*
X174880615Y-52900591D01*
X174846086Y-52835991D01*
X174838644Y-52822068D01*
X174782160Y-52753242D01*
X174764907Y-52739083D01*
X173765623Y-51739800D01*
X175530508Y-49974917D01*
X175543997Y-49977600D01*
X175687203Y-49977600D01*
X175827658Y-49949662D01*
X175959964Y-49894859D01*
X176079036Y-49815298D01*
X176180298Y-49714036D01*
X176259859Y-49594964D01*
X176314662Y-49462658D01*
X176342600Y-49322203D01*
X176342600Y-49178997D01*
X176314662Y-49038542D01*
X176259859Y-48906236D01*
X176180298Y-48787164D01*
X176079036Y-48685902D01*
X175959964Y-48606341D01*
X175827658Y-48551538D01*
X175687203Y-48523600D01*
X175543997Y-48523600D01*
X175403542Y-48551538D01*
X175271236Y-48606341D01*
X175152164Y-48685902D01*
X175050902Y-48787164D01*
X174971341Y-48906236D01*
X174916538Y-49038542D01*
X174888600Y-49178997D01*
X174888600Y-49322203D01*
X174891283Y-49335692D01*
X172822491Y-51404486D01*
X172805242Y-51418642D01*
X172791087Y-51435890D01*
X172748758Y-51487467D01*
X172706786Y-51565991D01*
X172680940Y-51651193D01*
X172672213Y-51739800D01*
X172680940Y-51828407D01*
X172706786Y-51913609D01*
X172748758Y-51992133D01*
X172805242Y-52060958D01*
X172822490Y-52075113D01*
X174009001Y-53261625D01*
X174009002Y-66928052D01*
X172822500Y-68114555D01*
X172805241Y-68128719D01*
X172748757Y-68197546D01*
X172739030Y-68215745D01*
X172733763Y-68212930D01*
X172672123Y-68194232D01*
X172608020Y-68187918D01*
X172263020Y-68187918D01*
X172198917Y-68194232D01*
X172196640Y-68194923D01*
X172196640Y-60305442D01*
X172198827Y-60283237D01*
X172190100Y-60194630D01*
X172181332Y-60165726D01*
X172164254Y-60109428D01*
X172122283Y-60030905D01*
X172065799Y-59962079D01*
X172048551Y-59947924D01*
X168856724Y-56756099D01*
X168842560Y-56738840D01*
X168773734Y-56682356D01*
X168695211Y-56640385D01*
X168610008Y-56614539D01*
X168543606Y-56607999D01*
X168521401Y-56605812D01*
X168499196Y-56607999D01*
X167815705Y-56607999D01*
X167793500Y-56605812D01*
X167704893Y-56614539D01*
X167696405Y-56617114D01*
X167619691Y-56640385D01*
X167541168Y-56682356D01*
X167472342Y-56738840D01*
X167458186Y-56756089D01*
X167259522Y-56954754D01*
X167140103Y-56931000D01*
X166996897Y-56931000D01*
X166992559Y-56931863D01*
X167382013Y-56542409D01*
X167399257Y-56528257D01*
X167413409Y-56511013D01*
X167413412Y-56511010D01*
X167455741Y-56459432D01*
X167497713Y-56380909D01*
X167523559Y-56295707D01*
X167532286Y-56207099D01*
X167523559Y-56118492D01*
X167520500Y-56108408D01*
X167520500Y-52447723D01*
X171182405Y-48785819D01*
X171199659Y-48771659D01*
X171256143Y-48702833D01*
X171298114Y-48624310D01*
X171323960Y-48539107D01*
X171330500Y-48472705D01*
X171332687Y-48450500D01*
X171330500Y-48428295D01*
X171330500Y-47105446D01*
X171393302Y-47199436D01*
X171494564Y-47300698D01*
X171613636Y-47380259D01*
X171745942Y-47435062D01*
X171886397Y-47463000D01*
X172029603Y-47463000D01*
X172056500Y-47457650D01*
X172056500Y-47569603D01*
X172084438Y-47710058D01*
X172139241Y-47842364D01*
X172218802Y-47961436D01*
X172320064Y-48062698D01*
X172439136Y-48142259D01*
X172571442Y-48197062D01*
X172711897Y-48225000D01*
X172855103Y-48225000D01*
X172995558Y-48197062D01*
X173127864Y-48142259D01*
X173246936Y-48062698D01*
X173325540Y-47984094D01*
X173345741Y-48032864D01*
X173425302Y-48151936D01*
X173526564Y-48253198D01*
X173645636Y-48332759D01*
X173777942Y-48387562D01*
X173918397Y-48415500D01*
X174061603Y-48415500D01*
X174202058Y-48387562D01*
X174334364Y-48332759D01*
X174453436Y-48253198D01*
X174554698Y-48151936D01*
X174634259Y-48032864D01*
X174689062Y-47900558D01*
X174699437Y-47848400D01*
X179060577Y-47848400D01*
X185397118Y-54184942D01*
X185397118Y-55574300D01*
X185403432Y-55638403D01*
X185422130Y-55700043D01*
X185452494Y-55756850D01*
X185493357Y-55806643D01*
X185543150Y-55847506D01*
X185599957Y-55877870D01*
X185661597Y-55896568D01*
X185725700Y-55902882D01*
X187042896Y-55902882D01*
X184824000Y-58121779D01*
X184806741Y-58135943D01*
X184750257Y-58204770D01*
X184728415Y-58245634D01*
X184708286Y-58283293D01*
X184682440Y-58368495D01*
X184673713Y-58457102D01*
X184675900Y-58479307D01*
X184675901Y-68620618D01*
X184277900Y-68620618D01*
X184213797Y-68626932D01*
X184152157Y-68645630D01*
X184095350Y-68675994D01*
X184045557Y-68716857D01*
X184004694Y-68766650D01*
X183974330Y-68823457D01*
X183955632Y-68885097D01*
X183949318Y-68949200D01*
X183949318Y-70649200D01*
X183955632Y-70713303D01*
X183974330Y-70774943D01*
X184004694Y-70831750D01*
X184045557Y-70881543D01*
X184095350Y-70922406D01*
X184152157Y-70952770D01*
X184213797Y-70971468D01*
X184277900Y-70977782D01*
X184545308Y-70977782D01*
X184496648Y-70995043D01*
X184246545Y-71144022D01*
X184030312Y-71338931D01*
X183856259Y-71572280D01*
X183731075Y-71835101D01*
X183686424Y-71982310D01*
X183807745Y-72212200D01*
X185000900Y-72212200D01*
X185000900Y-72192200D01*
X185254900Y-72192200D01*
X185254900Y-72212200D01*
X186448055Y-72212200D01*
X186569376Y-71982310D01*
X186524725Y-71835101D01*
X186399541Y-71572280D01*
X186225488Y-71338931D01*
X186009255Y-71144022D01*
X185759152Y-70995043D01*
X185710492Y-70977782D01*
X185977900Y-70977782D01*
X186042003Y-70971468D01*
X186103643Y-70952770D01*
X186160450Y-70922406D01*
X186210243Y-70881543D01*
X186251106Y-70831750D01*
X186281470Y-70774943D01*
X186300168Y-70713303D01*
X186306482Y-70649200D01*
X186306482Y-68949200D01*
X186300168Y-68885097D01*
X186281470Y-68823457D01*
X186251106Y-68766650D01*
X186210243Y-68716857D01*
X186160450Y-68675994D01*
X186103643Y-68645630D01*
X186042003Y-68626932D01*
X185977900Y-68620618D01*
X185579900Y-68620618D01*
X185579900Y-63742590D01*
X186404224Y-63742590D01*
X186448875Y-63889799D01*
X186574059Y-64152620D01*
X186748112Y-64385969D01*
X186964345Y-64580878D01*
X187214448Y-64729857D01*
X187488809Y-64827181D01*
X187718700Y-64706514D01*
X187718700Y-63512700D01*
X187972700Y-63512700D01*
X187972700Y-64706514D01*
X188202591Y-64827181D01*
X188476952Y-64729857D01*
X188727055Y-64580878D01*
X188943288Y-64385969D01*
X189117341Y-64152620D01*
X189242525Y-63889799D01*
X189287176Y-63742590D01*
X189165855Y-63512700D01*
X187972700Y-63512700D01*
X187718700Y-63512700D01*
X186525545Y-63512700D01*
X186404224Y-63742590D01*
X185579900Y-63742590D01*
X185579900Y-63028810D01*
X186404224Y-63028810D01*
X186525545Y-63258700D01*
X187718700Y-63258700D01*
X187718700Y-63238700D01*
X187972700Y-63238700D01*
X187972700Y-63258700D01*
X189165855Y-63258700D01*
X189287176Y-63028810D01*
X189242525Y-62881601D01*
X189117341Y-62618780D01*
X188943288Y-62385431D01*
X188727055Y-62190522D01*
X188476952Y-62041543D01*
X188428292Y-62024282D01*
X188695700Y-62024282D01*
X188759803Y-62017968D01*
X188821443Y-61999270D01*
X188878250Y-61968906D01*
X188928043Y-61928043D01*
X188968906Y-61878250D01*
X188999270Y-61821443D01*
X189017968Y-61759803D01*
X189024282Y-61695700D01*
X189024282Y-59995700D01*
X189017968Y-59931597D01*
X188999270Y-59869957D01*
X188968906Y-59813150D01*
X188928043Y-59763357D01*
X188878250Y-59722494D01*
X188821443Y-59692130D01*
X188759803Y-59673432D01*
X188695700Y-59667118D01*
X186995700Y-59667118D01*
X186931597Y-59673432D01*
X186869957Y-59692130D01*
X186813150Y-59722494D01*
X186763357Y-59763357D01*
X186722494Y-59813150D01*
X186692130Y-59869957D01*
X186673432Y-59931597D01*
X186667118Y-59995700D01*
X186667118Y-61695700D01*
X186673432Y-61759803D01*
X186692130Y-61821443D01*
X186722494Y-61878250D01*
X186763357Y-61928043D01*
X186813150Y-61968906D01*
X186869957Y-61999270D01*
X186931597Y-62017968D01*
X186995700Y-62024282D01*
X187263108Y-62024282D01*
X187214448Y-62041543D01*
X186964345Y-62190522D01*
X186748112Y-62385431D01*
X186574059Y-62618780D01*
X186448875Y-62881601D01*
X186404224Y-63028810D01*
X185579900Y-63028810D01*
X185579900Y-58644325D01*
X188054606Y-56169620D01*
X188071860Y-56155460D01*
X188128344Y-56086634D01*
X188170315Y-56008111D01*
X188196161Y-55922908D01*
X188202142Y-55862187D01*
X188204888Y-55834301D01*
X188202701Y-55812096D01*
X188202701Y-53636504D01*
X188204888Y-53614299D01*
X188196161Y-53525692D01*
X188181013Y-53475757D01*
X188170315Y-53440489D01*
X188128344Y-53361966D01*
X188071860Y-53293140D01*
X188054602Y-53278977D01*
X188021024Y-53245399D01*
X188006860Y-53228140D01*
X187938034Y-53171656D01*
X187859511Y-53129685D01*
X187774308Y-53103839D01*
X187736296Y-53100095D01*
X187847341Y-52951220D01*
X187972525Y-52688399D01*
X188017176Y-52541190D01*
X187895855Y-52311300D01*
X186702700Y-52311300D01*
X186702700Y-52331300D01*
X186448700Y-52331300D01*
X186448700Y-52311300D01*
X186428700Y-52311300D01*
X186428700Y-52057300D01*
X186448700Y-52057300D01*
X186448700Y-50863486D01*
X186702700Y-50863486D01*
X186702700Y-52057300D01*
X187895855Y-52057300D01*
X188017176Y-51827410D01*
X187972525Y-51680201D01*
X187847341Y-51417380D01*
X187673288Y-51184031D01*
X187457055Y-50989122D01*
X187206952Y-50840143D01*
X186932591Y-50742819D01*
X186702700Y-50863486D01*
X186448700Y-50863486D01*
X186218809Y-50742819D01*
X185944448Y-50840143D01*
X185694345Y-50989122D01*
X185478112Y-51184031D01*
X185304059Y-51417380D01*
X185178875Y-51680201D01*
X185134224Y-51827410D01*
X185151200Y-51859577D01*
X179463422Y-46171801D01*
X179449258Y-46154542D01*
X179380432Y-46098058D01*
X179301909Y-46056087D01*
X179216706Y-46030241D01*
X179150304Y-46023701D01*
X179128099Y-46021514D01*
X179105894Y-46023701D01*
X173713703Y-46023701D01*
X173691498Y-46021514D01*
X173602891Y-46030241D01*
X173554238Y-46045000D01*
X173517689Y-46056087D01*
X173472417Y-46080285D01*
X173470399Y-46059797D01*
X173470399Y-45678802D01*
X173472586Y-45656597D01*
X173463859Y-45567989D01*
X173438013Y-45482787D01*
X173417258Y-45443957D01*
X173396042Y-45404264D01*
X173339558Y-45335438D01*
X173322304Y-45321278D01*
X172793724Y-44792699D01*
X172779560Y-44775440D01*
X172710734Y-44718956D01*
X172632211Y-44676985D01*
X172547008Y-44651139D01*
X172480606Y-44644599D01*
X172458401Y-44642412D01*
X172436196Y-44644599D01*
X170730503Y-44644599D01*
X170708298Y-44642412D01*
X170619691Y-44651139D01*
X170534489Y-44676985D01*
X170455966Y-44718956D01*
X170387140Y-44775440D01*
X170372985Y-44792688D01*
X164731499Y-50434176D01*
X164714240Y-50448340D01*
X164662129Y-50511839D01*
X164657757Y-50517166D01*
X164615785Y-50595690D01*
X164589939Y-50680892D01*
X164581212Y-50769499D01*
X164583399Y-50791705D01*
X164583400Y-51145866D01*
X163120667Y-52608600D01*
X157477482Y-52608600D01*
X157477482Y-52159800D01*
X157471168Y-52095697D01*
X157452470Y-52034057D01*
X157422106Y-51977250D01*
X157381243Y-51927457D01*
X157331450Y-51886594D01*
X157274643Y-51856230D01*
X157213003Y-51837532D01*
X157148900Y-51831218D01*
X156881492Y-51831218D01*
X156930152Y-51813957D01*
X157180255Y-51664978D01*
X157396488Y-51470069D01*
X157570541Y-51236720D01*
X157695725Y-50973899D01*
X157740376Y-50826690D01*
X157619055Y-50596800D01*
X156425900Y-50596800D01*
X156425900Y-50616800D01*
X156171900Y-50616800D01*
X156171900Y-50596800D01*
X154978745Y-50596800D01*
X154857424Y-50826690D01*
X153958666Y-50826690D01*
X154248304Y-50341919D01*
X154414688Y-50112910D01*
X154857424Y-50112910D01*
X154978745Y-50342800D01*
X156171900Y-50342800D01*
X156171900Y-49148986D01*
X156425900Y-49148986D01*
X156425900Y-50342800D01*
X157619055Y-50342800D01*
X157740376Y-50112910D01*
X157695725Y-49965701D01*
X157570541Y-49702880D01*
X157396488Y-49469531D01*
X157180255Y-49274622D01*
X156930152Y-49125643D01*
X156655791Y-49028319D01*
X156425900Y-49148986D01*
X156171900Y-49148986D01*
X155942009Y-49028319D01*
X155667648Y-49125643D01*
X155417545Y-49274622D01*
X155201312Y-49469531D01*
X155027259Y-49702880D01*
X154902075Y-49965701D01*
X154857424Y-50112910D01*
X154414688Y-50112910D01*
X155295254Y-48900916D01*
X156467161Y-47559561D01*
X157754587Y-46328655D01*
X159147169Y-45218108D01*
X160633693Y-44236862D01*
X162202191Y-43392817D01*
X163840034Y-42692770D01*
X165534036Y-42142355D01*
X167270556Y-41746006D01*
X169035615Y-41506912D01*
X170815000Y-41427000D01*
X172594385Y-41506912D01*
G37*
X172594385Y-41506912D02*
X174359444Y-41746006D01*
X176095964Y-42142355D01*
X177789966Y-42692770D01*
X179427809Y-43392817D01*
X180996307Y-44236862D01*
X182482831Y-45218108D01*
X183875413Y-46328655D01*
X185162839Y-47559561D01*
X186334746Y-48900916D01*
X187381696Y-50341919D01*
X188295262Y-51870970D01*
X189068086Y-53475757D01*
X189693947Y-55143358D01*
X190167807Y-56860348D01*
X190485848Y-58612903D01*
X190645512Y-60386911D01*
X190645512Y-62168089D01*
X190485848Y-63942097D01*
X190167807Y-65694652D01*
X189693947Y-67411642D01*
X189068086Y-69079243D01*
X188295262Y-70684030D01*
X187381696Y-72213081D01*
X186334746Y-73654084D01*
X185162839Y-74995439D01*
X183875413Y-76226345D01*
X182482831Y-77336892D01*
X180996307Y-78318138D01*
X179427809Y-79162183D01*
X177789966Y-79862230D01*
X176095964Y-80412645D01*
X174359444Y-80808994D01*
X172594385Y-81048088D01*
X170815000Y-81128000D01*
X169035615Y-81048088D01*
X167270556Y-80808994D01*
X165534036Y-80412645D01*
X163840034Y-79862230D01*
X162202191Y-79162183D01*
X160633693Y-78318138D01*
X159147169Y-77336892D01*
X157754587Y-76226345D01*
X157527786Y-76009500D01*
X161708765Y-76009500D01*
X161709642Y-76018408D01*
X161709812Y-76027345D01*
X161711105Y-76033260D01*
X161711700Y-76039297D01*
X161714299Y-76047865D01*
X161716208Y-76056596D01*
X161718630Y-76062144D01*
X161720391Y-76067949D01*
X161724614Y-76075850D01*
X161728188Y-76084036D01*
X161731643Y-76089000D01*
X161734505Y-76094355D01*
X161740193Y-76101285D01*
X161745291Y-76108611D01*
X161749648Y-76112806D01*
X161753500Y-76117500D01*
X161760425Y-76123183D01*
X161761458Y-76124178D01*
X161766163Y-76127893D01*
X161776645Y-76136495D01*
X161777928Y-76137181D01*
X162972685Y-77080410D01*
X162983145Y-77088995D01*
X162991045Y-77093218D01*
X162998564Y-77098038D01*
X163004198Y-77100248D01*
X163009551Y-77103109D01*
X163018118Y-77105708D01*
X163026438Y-77108971D01*
X163032401Y-77110040D01*
X163038203Y-77111800D01*
X163047109Y-77112677D01*
X163055909Y-77114255D01*
X163069372Y-77114000D01*
X180144416Y-77114000D01*
X180154264Y-77114661D01*
X180166758Y-77113035D01*
X180179297Y-77111800D01*
X180181587Y-77111105D01*
X180183956Y-77110797D01*
X180195869Y-77106773D01*
X180207949Y-77103109D01*
X180210063Y-77101979D01*
X180212322Y-77101216D01*
X180223212Y-77094951D01*
X180234355Y-77088995D01*
X180241997Y-77082724D01*
X181563339Y-76138909D01*
X181567855Y-76136495D01*
X181575485Y-76130233D01*
X181577420Y-76128851D01*
X181581263Y-76125491D01*
X181591000Y-76117500D01*
X181592516Y-76115653D01*
X181594316Y-76114079D01*
X181601997Y-76104100D01*
X181609995Y-76094355D01*
X181611123Y-76092244D01*
X181612579Y-76090353D01*
X181618164Y-76079071D01*
X181624109Y-76067949D01*
X181624803Y-76065661D01*
X181625863Y-76063520D01*
X181629140Y-76051362D01*
X181632800Y-76039297D01*
X181633035Y-76036915D01*
X181633656Y-76034610D01*
X181634499Y-76022046D01*
X181635735Y-76009500D01*
X181635501Y-76007122D01*
X181635661Y-76004735D01*
X181634035Y-75992240D01*
X181632800Y-75979703D01*
X181632105Y-75977413D01*
X181631797Y-75975044D01*
X181627773Y-75963131D01*
X181624109Y-75951051D01*
X181622979Y-75948937D01*
X181622216Y-75946678D01*
X181615952Y-75935789D01*
X181609995Y-75924645D01*
X181608474Y-75922792D01*
X181607285Y-75920725D01*
X181599010Y-75911260D01*
X181591000Y-75901500D01*
X181589149Y-75899981D01*
X181587578Y-75898184D01*
X181577616Y-75890515D01*
X181567855Y-75882505D01*
X181565741Y-75881375D01*
X181563852Y-75879921D01*
X181552584Y-75874342D01*
X181541449Y-75868391D01*
X181539159Y-75867696D01*
X181537019Y-75866637D01*
X181524870Y-75863362D01*
X181512797Y-75859700D01*
X181510414Y-75859465D01*
X181508109Y-75858844D01*
X181495548Y-75858001D01*
X181490462Y-75857500D01*
X181488084Y-75857500D01*
X181478235Y-75856839D01*
X181473156Y-75857500D01*
X161875018Y-75857500D01*
X161873590Y-75857244D01*
X161860098Y-75857500D01*
X161854038Y-75857500D01*
X161852592Y-75857642D01*
X161843655Y-75857812D01*
X161837740Y-75859105D01*
X161831703Y-75859700D01*
X161823135Y-75862299D01*
X161814404Y-75864208D01*
X161808856Y-75866630D01*
X161803051Y-75868391D01*
X161795150Y-75872614D01*
X161786964Y-75876188D01*
X161782000Y-75879643D01*
X161776645Y-75882505D01*
X161769715Y-75888193D01*
X161762389Y-75893291D01*
X161758194Y-75897648D01*
X161753500Y-75901500D01*
X161747819Y-75908423D01*
X161741621Y-75914859D01*
X161738354Y-75919955D01*
X161734505Y-75924645D01*
X161730280Y-75932549D01*
X161725462Y-75940065D01*
X161723254Y-75945695D01*
X161720391Y-75951051D01*
X161717791Y-75959622D01*
X161714529Y-75967939D01*
X161713460Y-75973902D01*
X161711700Y-75979703D01*
X161710823Y-75988603D01*
X161709244Y-75997410D01*
X161709359Y-76003470D01*
X161708765Y-76009500D01*
X157527786Y-76009500D01*
X156467161Y-74995439D01*
X155295254Y-73654084D01*
X154479279Y-72530990D01*
X154882824Y-72530990D01*
X154927475Y-72678199D01*
X155052659Y-72941020D01*
X155226712Y-73174369D01*
X155442945Y-73369278D01*
X155693048Y-73518257D01*
X155967409Y-73615581D01*
X156197300Y-73494914D01*
X156197300Y-72301100D01*
X156451300Y-72301100D01*
X156451300Y-73494914D01*
X156681191Y-73615581D01*
X156955552Y-73518257D01*
X157205655Y-73369278D01*
X157421888Y-73174369D01*
X157595941Y-72941020D01*
X157721125Y-72678199D01*
X157765776Y-72530990D01*
X157655455Y-72321942D01*
X168861444Y-72321942D01*
X168872815Y-72446509D01*
X168908269Y-72566463D01*
X168966444Y-72677195D01*
X169045104Y-72774451D01*
X169141226Y-72854492D01*
X169251116Y-72914243D01*
X169370552Y-72951407D01*
X169467750Y-72961500D01*
X169626500Y-72802750D01*
X169626500Y-70548500D01*
X169023250Y-70548500D01*
X168864500Y-70707250D01*
X168861444Y-72321942D01*
X157655455Y-72321942D01*
X157644455Y-72301100D01*
X156451300Y-72301100D01*
X156197300Y-72301100D01*
X155004145Y-72301100D01*
X154882824Y-72530990D01*
X154479279Y-72530990D01*
X154248304Y-72213081D01*
X153334738Y-70684030D01*
X152561914Y-69079243D01*
X151936053Y-67411642D01*
X151462193Y-65694652D01*
X151144152Y-63942097D01*
X151085817Y-63293935D01*
X154800960Y-63293935D01*
X154800960Y-63441905D01*
X154829827Y-63587031D01*
X154886453Y-63723737D01*
X154968660Y-63846770D01*
X155073290Y-63951400D01*
X155196323Y-64033607D01*
X155333029Y-64090233D01*
X155478155Y-64119100D01*
X155626125Y-64119100D01*
X155771251Y-64090233D01*
X155907957Y-64033607D01*
X156030990Y-63951400D01*
X156135620Y-63846770D01*
X156217827Y-63723737D01*
X156274453Y-63587031D01*
X156303320Y-63441905D01*
X156303320Y-63293935D01*
X156274453Y-63148809D01*
X156217827Y-63012103D01*
X156135620Y-62889070D01*
X156030990Y-62784440D01*
X155907957Y-62702233D01*
X155771251Y-62645607D01*
X155626125Y-62616740D01*
X155478155Y-62616740D01*
X155333029Y-62645607D01*
X155196323Y-62702233D01*
X155073290Y-62784440D01*
X154968660Y-62889070D01*
X154886453Y-63012103D01*
X154829827Y-63148809D01*
X154800960Y-63293935D01*
X151085817Y-63293935D01*
X150984488Y-62168089D01*
X150984488Y-60386911D01*
X151064843Y-59494095D01*
X154800960Y-59494095D01*
X154800960Y-59642065D01*
X154829827Y-59787191D01*
X154886453Y-59923897D01*
X154968660Y-60046930D01*
X155073290Y-60151560D01*
X155196323Y-60233767D01*
X155333029Y-60290393D01*
X155478155Y-60319260D01*
X155626125Y-60319260D01*
X155771251Y-60290393D01*
X155907957Y-60233767D01*
X156030990Y-60151560D01*
X156135620Y-60046930D01*
X156217827Y-59923897D01*
X156274453Y-59787191D01*
X156303320Y-59642065D01*
X156303320Y-59494095D01*
X156274453Y-59348969D01*
X156217827Y-59212263D01*
X156135620Y-59089230D01*
X156030990Y-58984600D01*
X155907957Y-58902393D01*
X155771251Y-58845767D01*
X155626125Y-58816900D01*
X155478155Y-58816900D01*
X155333029Y-58845767D01*
X155196323Y-58902393D01*
X155073290Y-58984600D01*
X154968660Y-59089230D01*
X154886453Y-59212263D01*
X154829827Y-59348969D01*
X154800960Y-59494095D01*
X151064843Y-59494095D01*
X151144152Y-58612903D01*
X151462193Y-56860348D01*
X151936053Y-55143358D01*
X152561914Y-53475757D01*
X153334738Y-51870970D01*
X153958666Y-50826690D01*
X154857424Y-50826690D01*
X154902075Y-50973899D01*
X155027259Y-51236720D01*
X155201312Y-51470069D01*
X155417545Y-51664978D01*
X155667648Y-51813957D01*
X155716308Y-51831218D01*
X155448900Y-51831218D01*
X155384797Y-51837532D01*
X155323157Y-51856230D01*
X155266350Y-51886594D01*
X155216557Y-51927457D01*
X155175694Y-51977250D01*
X155145330Y-52034057D01*
X155126632Y-52095697D01*
X155120318Y-52159800D01*
X155120318Y-53859800D01*
X155126632Y-53923903D01*
X155145330Y-53985543D01*
X155175694Y-54042350D01*
X155216557Y-54092143D01*
X155266350Y-54133006D01*
X155323157Y-54163370D01*
X155384797Y-54182068D01*
X155448900Y-54188382D01*
X157148900Y-54188382D01*
X157213003Y-54182068D01*
X157274643Y-54163370D01*
X157331450Y-54133006D01*
X157381243Y-54092143D01*
X157422106Y-54042350D01*
X157452470Y-53985543D01*
X157471168Y-53923903D01*
X157477482Y-53859800D01*
X157477482Y-53512600D01*
X162853076Y-53512600D01*
X158485844Y-57879833D01*
X158472353Y-57877150D01*
X158329147Y-57877150D01*
X158188692Y-57905088D01*
X158056386Y-57959891D01*
X157937314Y-58039452D01*
X157836052Y-58140714D01*
X157756491Y-58259786D01*
X157701688Y-58392092D01*
X157673750Y-58532547D01*
X157673750Y-58675753D01*
X157701688Y-58816208D01*
X157756491Y-58948514D01*
X157836052Y-59067586D01*
X157937314Y-59168848D01*
X158056386Y-59248409D01*
X158154874Y-59289204D01*
X158137259Y-59310668D01*
X158116787Y-59348969D01*
X158095288Y-59389191D01*
X158069442Y-59474393D01*
X158060715Y-59563000D01*
X158062902Y-59585205D01*
X158062903Y-67256272D01*
X156863658Y-68455518D01*
X155474300Y-68455518D01*
X155410197Y-68461832D01*
X155348557Y-68480530D01*
X155291750Y-68510894D01*
X155241957Y-68551757D01*
X155201094Y-68601550D01*
X155170730Y-68658357D01*
X155152032Y-68719997D01*
X155145718Y-68784100D01*
X155145718Y-70484100D01*
X155152032Y-70548203D01*
X155170730Y-70609843D01*
X155201094Y-70666650D01*
X155241957Y-70716443D01*
X155291750Y-70757306D01*
X155348557Y-70787670D01*
X155410197Y-70806368D01*
X155474300Y-70812682D01*
X155741708Y-70812682D01*
X155693048Y-70829943D01*
X155442945Y-70978922D01*
X155226712Y-71173831D01*
X155052659Y-71407180D01*
X154927475Y-71670001D01*
X154882824Y-71817210D01*
X155004145Y-72047100D01*
X156197300Y-72047100D01*
X156197300Y-72027100D01*
X156451300Y-72027100D01*
X156451300Y-72047100D01*
X157644455Y-72047100D01*
X157765776Y-71817210D01*
X157721125Y-71670001D01*
X157595941Y-71407180D01*
X157421888Y-71173831D01*
X157205655Y-70978922D01*
X156955552Y-70829943D01*
X156906892Y-70812682D01*
X157174300Y-70812682D01*
X157238403Y-70806368D01*
X157300043Y-70787670D01*
X157356850Y-70757306D01*
X157406643Y-70716443D01*
X157447506Y-70666650D01*
X157477870Y-70609843D01*
X157496568Y-70548203D01*
X157502882Y-70484100D01*
X157502882Y-69094742D01*
X158076566Y-68521058D01*
X168861444Y-68521058D01*
X168864500Y-70135750D01*
X169023250Y-70294500D01*
X169626500Y-70294500D01*
X169626500Y-68040250D01*
X169467750Y-67881500D01*
X169370552Y-67891593D01*
X169251116Y-67928757D01*
X169141226Y-67988508D01*
X169045104Y-68068549D01*
X168966444Y-68165805D01*
X168908269Y-68276537D01*
X168872815Y-68396491D01*
X168861444Y-68521058D01*
X158076566Y-68521058D01*
X158818813Y-67778812D01*
X158836061Y-67764657D01*
X158892545Y-67695831D01*
X158934516Y-67617308D01*
X158960362Y-67532105D01*
X158969089Y-67443499D01*
X158966902Y-67421294D01*
X158966902Y-62003457D01*
X159488580Y-62003457D01*
X159488580Y-62146663D01*
X159516518Y-62287118D01*
X159571321Y-62419424D01*
X159650882Y-62538496D01*
X159752144Y-62639758D01*
X159871216Y-62719319D01*
X160003522Y-62774122D01*
X160143977Y-62802060D01*
X160287183Y-62802060D01*
X160427638Y-62774122D01*
X160559944Y-62719319D01*
X160679016Y-62639758D01*
X160780278Y-62538496D01*
X160859839Y-62419424D01*
X160914642Y-62287118D01*
X160942580Y-62146663D01*
X160942580Y-62003457D01*
X160914642Y-61863002D01*
X160859839Y-61730696D01*
X160780278Y-61611624D01*
X160679016Y-61510362D01*
X160675200Y-61507812D01*
X160675200Y-61419003D01*
X161992307Y-60101897D01*
X162005797Y-60104580D01*
X162149003Y-60104580D01*
X162289458Y-60076642D01*
X162421764Y-60021839D01*
X162540836Y-59942278D01*
X162642098Y-59841016D01*
X162721659Y-59721944D01*
X162776462Y-59589638D01*
X162804400Y-59449183D01*
X162804400Y-59305977D01*
X162776462Y-59165522D01*
X162721659Y-59033216D01*
X162642098Y-58914144D01*
X162540836Y-58812882D01*
X162421764Y-58733321D01*
X162289458Y-58678518D01*
X162149003Y-58650580D01*
X162005797Y-58650580D01*
X161865342Y-58678518D01*
X161733036Y-58733321D01*
X161613964Y-58812882D01*
X161512702Y-58914144D01*
X161433141Y-59033216D01*
X161378338Y-59165522D01*
X161350400Y-59305977D01*
X161350400Y-59449183D01*
X161353083Y-59462673D01*
X159919296Y-60896461D01*
X159902042Y-60910621D01*
X159847405Y-60977196D01*
X159845558Y-60979447D01*
X159803586Y-61057971D01*
X159777740Y-61143173D01*
X159769013Y-61231780D01*
X159771201Y-61253995D01*
X159771201Y-61497629D01*
X159752144Y-61510362D01*
X159650882Y-61611624D01*
X159571321Y-61730696D01*
X159516518Y-61863002D01*
X159488580Y-62003457D01*
X158966902Y-62003457D01*
X158966902Y-59750223D01*
X166670071Y-52047055D01*
X166655075Y-52075113D01*
X166648886Y-52086691D01*
X166623040Y-52171893D01*
X166614313Y-52260500D01*
X166616500Y-52282705D01*
X166616501Y-56029473D01*
X165683995Y-56961980D01*
X165666741Y-56976140D01*
X165635883Y-57013741D01*
X165610257Y-57044966D01*
X165568285Y-57123490D01*
X165542439Y-57208692D01*
X165533712Y-57297299D01*
X165535900Y-57319514D01*
X165535899Y-57971095D01*
X165533712Y-57993301D01*
X165539869Y-58055814D01*
X165542439Y-58081907D01*
X165568285Y-58167110D01*
X165610256Y-58245633D01*
X165666740Y-58314460D01*
X165683999Y-58328624D01*
X166169284Y-58813911D01*
X166183440Y-58831160D01*
X166252266Y-58887644D01*
X166301845Y-58914144D01*
X166330789Y-58929615D01*
X166415991Y-58955461D01*
X166504598Y-58964188D01*
X166526803Y-58962001D01*
X168511360Y-58962001D01*
X170392621Y-60843263D01*
X170392620Y-67780914D01*
X170191277Y-67982257D01*
X170092884Y-67928757D01*
X169973448Y-67891593D01*
X169876250Y-67881500D01*
X169717500Y-68040250D01*
X169717500Y-70294500D01*
X169819000Y-70294500D01*
X169819000Y-70548500D01*
X169717500Y-70548500D01*
X169717500Y-72802750D01*
X169876250Y-72961500D01*
X169973448Y-72951407D01*
X170092884Y-72914243D01*
X170202774Y-72854492D01*
X170298896Y-72774451D01*
X170377556Y-72677195D01*
X170389173Y-72655082D01*
X170535380Y-72655082D01*
X170599483Y-72648768D01*
X170661123Y-72630070D01*
X170708320Y-72604843D01*
X170755517Y-72630070D01*
X170817157Y-72648768D01*
X170881260Y-72655082D01*
X171226260Y-72655082D01*
X171290363Y-72648768D01*
X171352003Y-72630070D01*
X171399200Y-72604843D01*
X171446397Y-72630070D01*
X171508037Y-72648768D01*
X171572140Y-72655082D01*
X171917140Y-72655082D01*
X171981243Y-72648768D01*
X172042883Y-72630070D01*
X172090080Y-72604843D01*
X172137277Y-72630070D01*
X172198917Y-72648768D01*
X172263020Y-72655082D01*
X172608020Y-72655082D01*
X172672123Y-72648768D01*
X172733763Y-72630070D01*
X172780960Y-72604843D01*
X172828157Y-72630070D01*
X172889797Y-72648768D01*
X172953900Y-72655082D01*
X173100107Y-72655082D01*
X173111724Y-72677195D01*
X173190384Y-72774451D01*
X173286506Y-72854492D01*
X173396396Y-72914243D01*
X173515832Y-72951407D01*
X173613030Y-72961500D01*
X173771780Y-72802750D01*
X173771780Y-72618524D01*
X173802604Y-72677195D01*
X173862780Y-72751597D01*
X173862780Y-72802750D01*
X174021530Y-72961500D01*
X174118728Y-72951407D01*
X174162720Y-72937718D01*
X174206712Y-72951407D01*
X174303910Y-72961500D01*
X174462660Y-72802750D01*
X174462660Y-72751597D01*
X174522836Y-72677195D01*
X174553660Y-72618524D01*
X174553660Y-72802750D01*
X174712410Y-72961500D01*
X174809608Y-72951407D01*
X174929044Y-72914243D01*
X174929093Y-72914216D01*
X175077077Y-73062200D01*
X175091241Y-73079459D01*
X175160067Y-73135943D01*
X175231958Y-73174369D01*
X175238590Y-73177914D01*
X175323792Y-73203760D01*
X175412400Y-73212487D01*
X175434605Y-73210300D01*
X175669595Y-73210300D01*
X175691800Y-73212487D01*
X175714005Y-73210300D01*
X175780407Y-73203760D01*
X175859732Y-73179697D01*
X175884278Y-73303098D01*
X175939081Y-73435404D01*
X176018642Y-73554476D01*
X176119904Y-73655738D01*
X176238976Y-73735299D01*
X176371282Y-73790102D01*
X176511737Y-73818040D01*
X176654943Y-73818040D01*
X176795398Y-73790102D01*
X176927704Y-73735299D01*
X177046776Y-73655738D01*
X177148038Y-73554476D01*
X177227599Y-73435404D01*
X177282402Y-73303098D01*
X177310340Y-73162643D01*
X177310340Y-73019437D01*
X177298816Y-72961500D01*
X177401222Y-72961500D01*
X177401222Y-72884252D01*
X177478470Y-72961500D01*
X177575668Y-72951407D01*
X177695104Y-72914243D01*
X177804994Y-72854492D01*
X177901116Y-72774451D01*
X177964493Y-72696090D01*
X183686424Y-72696090D01*
X183731075Y-72843299D01*
X183856259Y-73106120D01*
X184030312Y-73339469D01*
X184246545Y-73534378D01*
X184496648Y-73683357D01*
X184771009Y-73780681D01*
X185000900Y-73660014D01*
X185000900Y-72466200D01*
X185254900Y-72466200D01*
X185254900Y-73660014D01*
X185484791Y-73780681D01*
X185759152Y-73683357D01*
X186009255Y-73534378D01*
X186225488Y-73339469D01*
X186399541Y-73106120D01*
X186524725Y-72843299D01*
X186569376Y-72696090D01*
X186448055Y-72466200D01*
X185254900Y-72466200D01*
X185000900Y-72466200D01*
X183807745Y-72466200D01*
X183686424Y-72696090D01*
X177964493Y-72696090D01*
X177979776Y-72677195D01*
X178037951Y-72566463D01*
X178073405Y-72446509D01*
X178084776Y-72321942D01*
X178081720Y-70707250D01*
X177922970Y-70548500D01*
X177319720Y-70548500D01*
X177319720Y-70568500D01*
X177228720Y-70568500D01*
X177228720Y-70548500D01*
X177127220Y-70548500D01*
X177127220Y-70294500D01*
X177228720Y-70294500D01*
X177228720Y-70274500D01*
X177319720Y-70274500D01*
X177319720Y-70294500D01*
X177922970Y-70294500D01*
X178081720Y-70135750D01*
X178083423Y-69235947D01*
X178117083Y-69269607D01*
X178114400Y-69283097D01*
X178114400Y-69426303D01*
X178142338Y-69566758D01*
X178197141Y-69699064D01*
X178276702Y-69818136D01*
X178377964Y-69919398D01*
X178497036Y-69998959D01*
X178629342Y-70053762D01*
X178769797Y-70081700D01*
X178913003Y-70081700D01*
X179053458Y-70053762D01*
X179185764Y-69998959D01*
X179304836Y-69919398D01*
X179406098Y-69818136D01*
X179485659Y-69699064D01*
X179540462Y-69566758D01*
X179568400Y-69426303D01*
X179568400Y-69283097D01*
X179540462Y-69142642D01*
X179485659Y-69010336D01*
X179406098Y-68891264D01*
X179304836Y-68790002D01*
X179185764Y-68710441D01*
X179053458Y-68655638D01*
X178913003Y-68627700D01*
X178769797Y-68627700D01*
X178756307Y-68630383D01*
X178013522Y-67887599D01*
X177999358Y-67870340D01*
X177930532Y-67813856D01*
X177852009Y-67771885D01*
X177766806Y-67746039D01*
X177700404Y-67739499D01*
X177678199Y-67737312D01*
X177655994Y-67739499D01*
X176173043Y-67739499D01*
X176150838Y-67737312D01*
X176062231Y-67746039D01*
X175977029Y-67771885D01*
X175898506Y-67813856D01*
X175829680Y-67870340D01*
X175815520Y-67887595D01*
X175588560Y-68114555D01*
X175571301Y-68128719D01*
X175514817Y-68197546D01*
X175505090Y-68215745D01*
X175499823Y-68212930D01*
X175438183Y-68194232D01*
X175374080Y-68187918D01*
X175225333Y-68187918D01*
X175213716Y-68165805D01*
X175135056Y-68068549D01*
X175038934Y-67988508D01*
X174929044Y-67928757D01*
X174809608Y-67891593D01*
X174712410Y-67881500D01*
X174553660Y-68040250D01*
X174553660Y-68224476D01*
X174522836Y-68165805D01*
X174462660Y-68091403D01*
X174462660Y-68040250D01*
X174318956Y-67896546D01*
X174764906Y-67450596D01*
X174782160Y-67436436D01*
X174838644Y-67367610D01*
X174880615Y-67289087D01*
X174906461Y-67203884D01*
X174913001Y-67137482D01*
X174915188Y-67115277D01*
X174913001Y-67093072D01*
X174913001Y-57967397D01*
X178838300Y-57967397D01*
X178838300Y-58110603D01*
X178866238Y-58251058D01*
X178921041Y-58383364D01*
X179000602Y-58502436D01*
X179101864Y-58603698D01*
X179220936Y-58683259D01*
X179353242Y-58738062D01*
X179493697Y-58766000D01*
X179636903Y-58766000D01*
X179777358Y-58738062D01*
X179909664Y-58683259D01*
X180028736Y-58603698D01*
X180129998Y-58502436D01*
X180209559Y-58383364D01*
X180264362Y-58251058D01*
X180292300Y-58110603D01*
X180292300Y-58002023D01*
X182406496Y-55887829D01*
X182408636Y-55889259D01*
X182540942Y-55944062D01*
X182681397Y-55972000D01*
X182824603Y-55972000D01*
X182965058Y-55944062D01*
X183097364Y-55889259D01*
X183216436Y-55809698D01*
X183317698Y-55708436D01*
X183397259Y-55589364D01*
X183452062Y-55457058D01*
X183480000Y-55316603D01*
X183480000Y-55173397D01*
X183452062Y-55032942D01*
X183397259Y-54900636D01*
X183317698Y-54781564D01*
X183216436Y-54680302D01*
X183097364Y-54600741D01*
X182965058Y-54545938D01*
X182824603Y-54518000D01*
X182681397Y-54518000D01*
X182540942Y-54545938D01*
X182408636Y-54600741D01*
X182289564Y-54680302D01*
X182188302Y-54781564D01*
X182108741Y-54900636D01*
X182077909Y-54975071D01*
X182018067Y-55007057D01*
X181949241Y-55063541D01*
X181935086Y-55080789D01*
X179692765Y-57323112D01*
X179636903Y-57312000D01*
X179493697Y-57312000D01*
X179353242Y-57339938D01*
X179220936Y-57394741D01*
X179101864Y-57474302D01*
X179000602Y-57575564D01*
X178921041Y-57694636D01*
X178866238Y-57826942D01*
X178838300Y-57967397D01*
X174913001Y-57967397D01*
X174913001Y-53096606D01*
X174915188Y-53074401D01*
X174906461Y-52985793D01*
X174880615Y-52900591D01*
X174846086Y-52835991D01*
X174838644Y-52822068D01*
X174782160Y-52753242D01*
X174764907Y-52739083D01*
X173765623Y-51739800D01*
X175530508Y-49974917D01*
X175543997Y-49977600D01*
X175687203Y-49977600D01*
X175827658Y-49949662D01*
X175959964Y-49894859D01*
X176079036Y-49815298D01*
X176180298Y-49714036D01*
X176259859Y-49594964D01*
X176314662Y-49462658D01*
X176342600Y-49322203D01*
X176342600Y-49178997D01*
X176314662Y-49038542D01*
X176259859Y-48906236D01*
X176180298Y-48787164D01*
X176079036Y-48685902D01*
X175959964Y-48606341D01*
X175827658Y-48551538D01*
X175687203Y-48523600D01*
X175543997Y-48523600D01*
X175403542Y-48551538D01*
X175271236Y-48606341D01*
X175152164Y-48685902D01*
X175050902Y-48787164D01*
X174971341Y-48906236D01*
X174916538Y-49038542D01*
X174888600Y-49178997D01*
X174888600Y-49322203D01*
X174891283Y-49335692D01*
X172822491Y-51404486D01*
X172805242Y-51418642D01*
X172791087Y-51435890D01*
X172748758Y-51487467D01*
X172706786Y-51565991D01*
X172680940Y-51651193D01*
X172672213Y-51739800D01*
X172680940Y-51828407D01*
X172706786Y-51913609D01*
X172748758Y-51992133D01*
X172805242Y-52060958D01*
X172822490Y-52075113D01*
X174009001Y-53261625D01*
X174009002Y-66928052D01*
X172822500Y-68114555D01*
X172805241Y-68128719D01*
X172748757Y-68197546D01*
X172739030Y-68215745D01*
X172733763Y-68212930D01*
X172672123Y-68194232D01*
X172608020Y-68187918D01*
X172263020Y-68187918D01*
X172198917Y-68194232D01*
X172196640Y-68194923D01*
X172196640Y-60305442D01*
X172198827Y-60283237D01*
X172190100Y-60194630D01*
X172181332Y-60165726D01*
X172164254Y-60109428D01*
X172122283Y-60030905D01*
X172065799Y-59962079D01*
X172048551Y-59947924D01*
X168856724Y-56756099D01*
X168842560Y-56738840D01*
X168773734Y-56682356D01*
X168695211Y-56640385D01*
X168610008Y-56614539D01*
X168543606Y-56607999D01*
X168521401Y-56605812D01*
X168499196Y-56607999D01*
X167815705Y-56607999D01*
X167793500Y-56605812D01*
X167704893Y-56614539D01*
X167696405Y-56617114D01*
X167619691Y-56640385D01*
X167541168Y-56682356D01*
X167472342Y-56738840D01*
X167458186Y-56756089D01*
X167259522Y-56954754D01*
X167140103Y-56931000D01*
X166996897Y-56931000D01*
X166992559Y-56931863D01*
X167382013Y-56542409D01*
X167399257Y-56528257D01*
X167413409Y-56511013D01*
X167413412Y-56511010D01*
X167455741Y-56459432D01*
X167497713Y-56380909D01*
X167523559Y-56295707D01*
X167532286Y-56207099D01*
X167523559Y-56118492D01*
X167520500Y-56108408D01*
X167520500Y-52447723D01*
X171182405Y-48785819D01*
X171199659Y-48771659D01*
X171256143Y-48702833D01*
X171298114Y-48624310D01*
X171323960Y-48539107D01*
X171330500Y-48472705D01*
X171332687Y-48450500D01*
X171330500Y-48428295D01*
X171330500Y-47105446D01*
X171393302Y-47199436D01*
X171494564Y-47300698D01*
X171613636Y-47380259D01*
X171745942Y-47435062D01*
X171886397Y-47463000D01*
X172029603Y-47463000D01*
X172056500Y-47457650D01*
X172056500Y-47569603D01*
X172084438Y-47710058D01*
X172139241Y-47842364D01*
X172218802Y-47961436D01*
X172320064Y-48062698D01*
X172439136Y-48142259D01*
X172571442Y-48197062D01*
X172711897Y-48225000D01*
X172855103Y-48225000D01*
X172995558Y-48197062D01*
X173127864Y-48142259D01*
X173246936Y-48062698D01*
X173325540Y-47984094D01*
X173345741Y-48032864D01*
X173425302Y-48151936D01*
X173526564Y-48253198D01*
X173645636Y-48332759D01*
X173777942Y-48387562D01*
X173918397Y-48415500D01*
X174061603Y-48415500D01*
X174202058Y-48387562D01*
X174334364Y-48332759D01*
X174453436Y-48253198D01*
X174554698Y-48151936D01*
X174634259Y-48032864D01*
X174689062Y-47900558D01*
X174699437Y-47848400D01*
X179060577Y-47848400D01*
X185397118Y-54184942D01*
X185397118Y-55574300D01*
X185403432Y-55638403D01*
X185422130Y-55700043D01*
X185452494Y-55756850D01*
X185493357Y-55806643D01*
X185543150Y-55847506D01*
X185599957Y-55877870D01*
X185661597Y-55896568D01*
X185725700Y-55902882D01*
X187042896Y-55902882D01*
X184824000Y-58121779D01*
X184806741Y-58135943D01*
X184750257Y-58204770D01*
X184728415Y-58245634D01*
X184708286Y-58283293D01*
X184682440Y-58368495D01*
X184673713Y-58457102D01*
X184675900Y-58479307D01*
X184675901Y-68620618D01*
X184277900Y-68620618D01*
X184213797Y-68626932D01*
X184152157Y-68645630D01*
X184095350Y-68675994D01*
X184045557Y-68716857D01*
X184004694Y-68766650D01*
X183974330Y-68823457D01*
X183955632Y-68885097D01*
X183949318Y-68949200D01*
X183949318Y-70649200D01*
X183955632Y-70713303D01*
X183974330Y-70774943D01*
X184004694Y-70831750D01*
X184045557Y-70881543D01*
X184095350Y-70922406D01*
X184152157Y-70952770D01*
X184213797Y-70971468D01*
X184277900Y-70977782D01*
X184545308Y-70977782D01*
X184496648Y-70995043D01*
X184246545Y-71144022D01*
X184030312Y-71338931D01*
X183856259Y-71572280D01*
X183731075Y-71835101D01*
X183686424Y-71982310D01*
X183807745Y-72212200D01*
X185000900Y-72212200D01*
X185000900Y-72192200D01*
X185254900Y-72192200D01*
X185254900Y-72212200D01*
X186448055Y-72212200D01*
X186569376Y-71982310D01*
X186524725Y-71835101D01*
X186399541Y-71572280D01*
X186225488Y-71338931D01*
X186009255Y-71144022D01*
X185759152Y-70995043D01*
X185710492Y-70977782D01*
X185977900Y-70977782D01*
X186042003Y-70971468D01*
X186103643Y-70952770D01*
X186160450Y-70922406D01*
X186210243Y-70881543D01*
X186251106Y-70831750D01*
X186281470Y-70774943D01*
X186300168Y-70713303D01*
X186306482Y-70649200D01*
X186306482Y-68949200D01*
X186300168Y-68885097D01*
X186281470Y-68823457D01*
X186251106Y-68766650D01*
X186210243Y-68716857D01*
X186160450Y-68675994D01*
X186103643Y-68645630D01*
X186042003Y-68626932D01*
X185977900Y-68620618D01*
X185579900Y-68620618D01*
X185579900Y-63742590D01*
X186404224Y-63742590D01*
X186448875Y-63889799D01*
X186574059Y-64152620D01*
X186748112Y-64385969D01*
X186964345Y-64580878D01*
X187214448Y-64729857D01*
X187488809Y-64827181D01*
X187718700Y-64706514D01*
X187718700Y-63512700D01*
X187972700Y-63512700D01*
X187972700Y-64706514D01*
X188202591Y-64827181D01*
X188476952Y-64729857D01*
X188727055Y-64580878D01*
X188943288Y-64385969D01*
X189117341Y-64152620D01*
X189242525Y-63889799D01*
X189287176Y-63742590D01*
X189165855Y-63512700D01*
X187972700Y-63512700D01*
X187718700Y-63512700D01*
X186525545Y-63512700D01*
X186404224Y-63742590D01*
X185579900Y-63742590D01*
X185579900Y-63028810D01*
X186404224Y-63028810D01*
X186525545Y-63258700D01*
X187718700Y-63258700D01*
X187718700Y-63238700D01*
X187972700Y-63238700D01*
X187972700Y-63258700D01*
X189165855Y-63258700D01*
X189287176Y-63028810D01*
X189242525Y-62881601D01*
X189117341Y-62618780D01*
X188943288Y-62385431D01*
X188727055Y-62190522D01*
X188476952Y-62041543D01*
X188428292Y-62024282D01*
X188695700Y-62024282D01*
X188759803Y-62017968D01*
X188821443Y-61999270D01*
X188878250Y-61968906D01*
X188928043Y-61928043D01*
X188968906Y-61878250D01*
X188999270Y-61821443D01*
X189017968Y-61759803D01*
X189024282Y-61695700D01*
X189024282Y-59995700D01*
X189017968Y-59931597D01*
X188999270Y-59869957D01*
X188968906Y-59813150D01*
X188928043Y-59763357D01*
X188878250Y-59722494D01*
X188821443Y-59692130D01*
X188759803Y-59673432D01*
X188695700Y-59667118D01*
X186995700Y-59667118D01*
X186931597Y-59673432D01*
X186869957Y-59692130D01*
X186813150Y-59722494D01*
X186763357Y-59763357D01*
X186722494Y-59813150D01*
X186692130Y-59869957D01*
X186673432Y-59931597D01*
X186667118Y-59995700D01*
X186667118Y-61695700D01*
X186673432Y-61759803D01*
X186692130Y-61821443D01*
X186722494Y-61878250D01*
X186763357Y-61928043D01*
X186813150Y-61968906D01*
X186869957Y-61999270D01*
X186931597Y-62017968D01*
X186995700Y-62024282D01*
X187263108Y-62024282D01*
X187214448Y-62041543D01*
X186964345Y-62190522D01*
X186748112Y-62385431D01*
X186574059Y-62618780D01*
X186448875Y-62881601D01*
X186404224Y-63028810D01*
X185579900Y-63028810D01*
X185579900Y-58644325D01*
X188054606Y-56169620D01*
X188071860Y-56155460D01*
X188128344Y-56086634D01*
X188170315Y-56008111D01*
X188196161Y-55922908D01*
X188202142Y-55862187D01*
X188204888Y-55834301D01*
X188202701Y-55812096D01*
X188202701Y-53636504D01*
X188204888Y-53614299D01*
X188196161Y-53525692D01*
X188181013Y-53475757D01*
X188170315Y-53440489D01*
X188128344Y-53361966D01*
X188071860Y-53293140D01*
X188054602Y-53278977D01*
X188021024Y-53245399D01*
X188006860Y-53228140D01*
X187938034Y-53171656D01*
X187859511Y-53129685D01*
X187774308Y-53103839D01*
X187736296Y-53100095D01*
X187847341Y-52951220D01*
X187972525Y-52688399D01*
X188017176Y-52541190D01*
X187895855Y-52311300D01*
X186702700Y-52311300D01*
X186702700Y-52331300D01*
X186448700Y-52331300D01*
X186448700Y-52311300D01*
X186428700Y-52311300D01*
X186428700Y-52057300D01*
X186448700Y-52057300D01*
X186448700Y-50863486D01*
X186702700Y-50863486D01*
X186702700Y-52057300D01*
X187895855Y-52057300D01*
X188017176Y-51827410D01*
X187972525Y-51680201D01*
X187847341Y-51417380D01*
X187673288Y-51184031D01*
X187457055Y-50989122D01*
X187206952Y-50840143D01*
X186932591Y-50742819D01*
X186702700Y-50863486D01*
X186448700Y-50863486D01*
X186218809Y-50742819D01*
X185944448Y-50840143D01*
X185694345Y-50989122D01*
X185478112Y-51184031D01*
X185304059Y-51417380D01*
X185178875Y-51680201D01*
X185134224Y-51827410D01*
X185151200Y-51859577D01*
X179463422Y-46171801D01*
X179449258Y-46154542D01*
X179380432Y-46098058D01*
X179301909Y-46056087D01*
X179216706Y-46030241D01*
X179150304Y-46023701D01*
X179128099Y-46021514D01*
X179105894Y-46023701D01*
X173713703Y-46023701D01*
X173691498Y-46021514D01*
X173602891Y-46030241D01*
X173554238Y-46045000D01*
X173517689Y-46056087D01*
X173472417Y-46080285D01*
X173470399Y-46059797D01*
X173470399Y-45678802D01*
X173472586Y-45656597D01*
X173463859Y-45567989D01*
X173438013Y-45482787D01*
X173417258Y-45443957D01*
X173396042Y-45404264D01*
X173339558Y-45335438D01*
X173322304Y-45321278D01*
X172793724Y-44792699D01*
X172779560Y-44775440D01*
X172710734Y-44718956D01*
X172632211Y-44676985D01*
X172547008Y-44651139D01*
X172480606Y-44644599D01*
X172458401Y-44642412D01*
X172436196Y-44644599D01*
X170730503Y-44644599D01*
X170708298Y-44642412D01*
X170619691Y-44651139D01*
X170534489Y-44676985D01*
X170455966Y-44718956D01*
X170387140Y-44775440D01*
X170372985Y-44792688D01*
X164731499Y-50434176D01*
X164714240Y-50448340D01*
X164662129Y-50511839D01*
X164657757Y-50517166D01*
X164615785Y-50595690D01*
X164589939Y-50680892D01*
X164581212Y-50769499D01*
X164583399Y-50791705D01*
X164583400Y-51145866D01*
X163120667Y-52608600D01*
X157477482Y-52608600D01*
X157477482Y-52159800D01*
X157471168Y-52095697D01*
X157452470Y-52034057D01*
X157422106Y-51977250D01*
X157381243Y-51927457D01*
X157331450Y-51886594D01*
X157274643Y-51856230D01*
X157213003Y-51837532D01*
X157148900Y-51831218D01*
X156881492Y-51831218D01*
X156930152Y-51813957D01*
X157180255Y-51664978D01*
X157396488Y-51470069D01*
X157570541Y-51236720D01*
X157695725Y-50973899D01*
X157740376Y-50826690D01*
X157619055Y-50596800D01*
X156425900Y-50596800D01*
X156425900Y-50616800D01*
X156171900Y-50616800D01*
X156171900Y-50596800D01*
X154978745Y-50596800D01*
X154857424Y-50826690D01*
X153958666Y-50826690D01*
X154248304Y-50341919D01*
X154414688Y-50112910D01*
X154857424Y-50112910D01*
X154978745Y-50342800D01*
X156171900Y-50342800D01*
X156171900Y-49148986D01*
X156425900Y-49148986D01*
X156425900Y-50342800D01*
X157619055Y-50342800D01*
X157740376Y-50112910D01*
X157695725Y-49965701D01*
X157570541Y-49702880D01*
X157396488Y-49469531D01*
X157180255Y-49274622D01*
X156930152Y-49125643D01*
X156655791Y-49028319D01*
X156425900Y-49148986D01*
X156171900Y-49148986D01*
X155942009Y-49028319D01*
X155667648Y-49125643D01*
X155417545Y-49274622D01*
X155201312Y-49469531D01*
X155027259Y-49702880D01*
X154902075Y-49965701D01*
X154857424Y-50112910D01*
X154414688Y-50112910D01*
X155295254Y-48900916D01*
X156467161Y-47559561D01*
X157754587Y-46328655D01*
X159147169Y-45218108D01*
X160633693Y-44236862D01*
X162202191Y-43392817D01*
X163840034Y-42692770D01*
X165534036Y-42142355D01*
X167270556Y-41746006D01*
X169035615Y-41506912D01*
X170815000Y-41427000D01*
X172594385Y-41506912D01*
G36*
X174553660Y-70294500D02*
G01*
X174655160Y-70294500D01*
X174655160Y-70548500D01*
X174553660Y-70548500D01*
X174553660Y-70636130D01*
X174466030Y-70548500D01*
X173859410Y-70548500D01*
X173771780Y-70636130D01*
X173771780Y-70548500D01*
X173670280Y-70548500D01*
X173670280Y-70294500D01*
X173771780Y-70294500D01*
X173771780Y-70274500D01*
X173839410Y-70274500D01*
X173859410Y-70294500D01*
X174466030Y-70294500D01*
X174553660Y-70206870D01*
X174553660Y-70294500D01*
G37*
X174553660Y-70294500D02*
X174655160Y-70294500D01*
X174655160Y-70548500D01*
X174553660Y-70548500D01*
X174553660Y-70636130D01*
X174466030Y-70548500D01*
X173859410Y-70548500D01*
X173771780Y-70636130D01*
X173771780Y-70548500D01*
X173670280Y-70548500D01*
X173670280Y-70294500D01*
X173771780Y-70294500D01*
X173771780Y-70274500D01*
X173839410Y-70274500D01*
X173859410Y-70294500D01*
X174466030Y-70294500D01*
X174553660Y-70206870D01*
X174553660Y-70294500D01*
M02*
