G04 #@! TF.GenerationSoftware,KiCad,Pcbnew,(5.1.6)-1*
G04 #@! TF.CreationDate,2020-09-19T09:47:58+02:00*
G04 #@! TF.ProjectId,ArduinoProMicroUSB,41726475-696e-46f5-9072-6f4d6963726f,rev?*
G04 #@! TF.SameCoordinates,Original*
G04 #@! TF.FileFunction,Soldermask,Bot*
G04 #@! TF.FilePolarity,Negative*
%FSLAX46Y46*%
G04 Gerber Fmt 4.6, Leading zero omitted, Abs format (unit mm)*
G04 Created by KiCad (PCBNEW (5.1.6)-1) date 2020-09-19 09:47:58*
%MOMM*%
%LPD*%
G01*
G04 APERTURE LIST*
%ADD10C,0.100000*%
G04 APERTURE END LIST*
D10*
G36*
X185241412Y-71443127D02*
G01*
X185390712Y-71472824D01*
X185554684Y-71540744D01*
X185702254Y-71639347D01*
X185827753Y-71764846D01*
X185926356Y-71912416D01*
X185994276Y-72076388D01*
X186028900Y-72250459D01*
X186028900Y-72427941D01*
X185994276Y-72602012D01*
X185926356Y-72765984D01*
X185827753Y-72913554D01*
X185702254Y-73039053D01*
X185554684Y-73137656D01*
X185390712Y-73205576D01*
X185241412Y-73235273D01*
X185216642Y-73240200D01*
X185039158Y-73240200D01*
X185014388Y-73235273D01*
X184865088Y-73205576D01*
X184701116Y-73137656D01*
X184553546Y-73039053D01*
X184428047Y-72913554D01*
X184329444Y-72765984D01*
X184261524Y-72602012D01*
X184226900Y-72427941D01*
X184226900Y-72250459D01*
X184261524Y-72076388D01*
X184329444Y-71912416D01*
X184428047Y-71764846D01*
X184553546Y-71639347D01*
X184701116Y-71540744D01*
X184865088Y-71472824D01*
X185014388Y-71443127D01*
X185039158Y-71438200D01*
X185216642Y-71438200D01*
X185241412Y-71443127D01*
G37*
G36*
X156437812Y-71278027D02*
G01*
X156587112Y-71307724D01*
X156751084Y-71375644D01*
X156898654Y-71474247D01*
X157024153Y-71599746D01*
X157122756Y-71747316D01*
X157190676Y-71911288D01*
X157225300Y-72085359D01*
X157225300Y-72262841D01*
X157190676Y-72436912D01*
X157122756Y-72600884D01*
X157024153Y-72748454D01*
X156898654Y-72873953D01*
X156751084Y-72972556D01*
X156587112Y-73040476D01*
X156437812Y-73070173D01*
X156413042Y-73075100D01*
X156235558Y-73075100D01*
X156210788Y-73070173D01*
X156061488Y-73040476D01*
X155897516Y-72972556D01*
X155749946Y-72873953D01*
X155624447Y-72748454D01*
X155525844Y-72600884D01*
X155457924Y-72436912D01*
X155423300Y-72262841D01*
X155423300Y-72085359D01*
X155457924Y-71911288D01*
X155525844Y-71747316D01*
X155624447Y-71599746D01*
X155749946Y-71474247D01*
X155897516Y-71375644D01*
X156061488Y-71307724D01*
X156210788Y-71278027D01*
X156235558Y-71273100D01*
X156413042Y-71273100D01*
X156437812Y-71278027D01*
G37*
G36*
X177497720Y-72377500D02*
G01*
X169448500Y-72377500D01*
X169448500Y-68465500D01*
X177497720Y-68465500D01*
X177497720Y-72377500D01*
G37*
G36*
X186028900Y-70700200D02*
G01*
X184226900Y-70700200D01*
X184226900Y-68898200D01*
X186028900Y-68898200D01*
X186028900Y-70700200D01*
G37*
G36*
X157225300Y-70535100D02*
G01*
X155423300Y-70535100D01*
X155423300Y-68733100D01*
X157225300Y-68733100D01*
X157225300Y-70535100D01*
G37*
G36*
X187959212Y-62489627D02*
G01*
X188108512Y-62519324D01*
X188272484Y-62587244D01*
X188420054Y-62685847D01*
X188545553Y-62811346D01*
X188644156Y-62958916D01*
X188712076Y-63122888D01*
X188746700Y-63296959D01*
X188746700Y-63474441D01*
X188712076Y-63648512D01*
X188644156Y-63812484D01*
X188545553Y-63960054D01*
X188420054Y-64085553D01*
X188272484Y-64184156D01*
X188108512Y-64252076D01*
X187959212Y-64281773D01*
X187934442Y-64286700D01*
X187756958Y-64286700D01*
X187732188Y-64281773D01*
X187582888Y-64252076D01*
X187418916Y-64184156D01*
X187271346Y-64085553D01*
X187145847Y-63960054D01*
X187047244Y-63812484D01*
X186979324Y-63648512D01*
X186944700Y-63474441D01*
X186944700Y-63296959D01*
X186979324Y-63122888D01*
X187047244Y-62958916D01*
X187145847Y-62811346D01*
X187271346Y-62685847D01*
X187418916Y-62587244D01*
X187582888Y-62519324D01*
X187732188Y-62489627D01*
X187756958Y-62484700D01*
X187934442Y-62484700D01*
X187959212Y-62489627D01*
G37*
G36*
X155705504Y-62862345D02*
G01*
X155801189Y-62901979D01*
X155887305Y-62959520D01*
X155960540Y-63032755D01*
X156018081Y-63118871D01*
X156057715Y-63214556D01*
X156077920Y-63316134D01*
X156077920Y-63419706D01*
X156057715Y-63521284D01*
X156018081Y-63616969D01*
X155960540Y-63703085D01*
X155887305Y-63776320D01*
X155801189Y-63833861D01*
X155705504Y-63873495D01*
X155603926Y-63893700D01*
X155500354Y-63893700D01*
X155398776Y-63873495D01*
X155303091Y-63833861D01*
X155216975Y-63776320D01*
X155143740Y-63703085D01*
X155086199Y-63616969D01*
X155046565Y-63521284D01*
X155026360Y-63419706D01*
X155026360Y-63316134D01*
X155046565Y-63214556D01*
X155086199Y-63118871D01*
X155143740Y-63032755D01*
X155216975Y-62959520D01*
X155303091Y-62901979D01*
X155398776Y-62862345D01*
X155500354Y-62842140D01*
X155603926Y-62842140D01*
X155705504Y-62862345D01*
G37*
G36*
X188746700Y-61746700D02*
G01*
X186944700Y-61746700D01*
X186944700Y-59944700D01*
X188746700Y-59944700D01*
X188746700Y-61746700D01*
G37*
G36*
X155705504Y-59062505D02*
G01*
X155801189Y-59102139D01*
X155887305Y-59159680D01*
X155960540Y-59232915D01*
X156018081Y-59319031D01*
X156057715Y-59414716D01*
X156077920Y-59516294D01*
X156077920Y-59619866D01*
X156057715Y-59721444D01*
X156018081Y-59817129D01*
X155960540Y-59903245D01*
X155887305Y-59976480D01*
X155801189Y-60034021D01*
X155705504Y-60073655D01*
X155603926Y-60093860D01*
X155500354Y-60093860D01*
X155398776Y-60073655D01*
X155303091Y-60034021D01*
X155216975Y-59976480D01*
X155143740Y-59903245D01*
X155086199Y-59817129D01*
X155046565Y-59721444D01*
X155026360Y-59619866D01*
X155026360Y-59516294D01*
X155046565Y-59414716D01*
X155086199Y-59319031D01*
X155143740Y-59232915D01*
X155216975Y-59159680D01*
X155303091Y-59102139D01*
X155398776Y-59062505D01*
X155500354Y-59042300D01*
X155603926Y-59042300D01*
X155705504Y-59062505D01*
G37*
G36*
X187476700Y-55625300D02*
G01*
X185674700Y-55625300D01*
X185674700Y-53823300D01*
X187476700Y-53823300D01*
X187476700Y-55625300D01*
G37*
G36*
X157199900Y-53910800D02*
G01*
X155397900Y-53910800D01*
X155397900Y-52108800D01*
X157199900Y-52108800D01*
X157199900Y-53910800D01*
G37*
G36*
X186689212Y-51288227D02*
G01*
X186838512Y-51317924D01*
X187002484Y-51385844D01*
X187150054Y-51484447D01*
X187275553Y-51609946D01*
X187374156Y-51757516D01*
X187442076Y-51921488D01*
X187476700Y-52095559D01*
X187476700Y-52273041D01*
X187442076Y-52447112D01*
X187374156Y-52611084D01*
X187275553Y-52758654D01*
X187150054Y-52884153D01*
X187002484Y-52982756D01*
X186838512Y-53050676D01*
X186689212Y-53080373D01*
X186664442Y-53085300D01*
X186486958Y-53085300D01*
X186462188Y-53080373D01*
X186312888Y-53050676D01*
X186148916Y-52982756D01*
X186001346Y-52884153D01*
X185875847Y-52758654D01*
X185777244Y-52611084D01*
X185709324Y-52447112D01*
X185674700Y-52273041D01*
X185674700Y-52095559D01*
X185709324Y-51921488D01*
X185777244Y-51757516D01*
X185875847Y-51609946D01*
X186001346Y-51484447D01*
X186148916Y-51385844D01*
X186312888Y-51317924D01*
X186462188Y-51288227D01*
X186486958Y-51283300D01*
X186664442Y-51283300D01*
X186689212Y-51288227D01*
G37*
G36*
X156412412Y-49573727D02*
G01*
X156561712Y-49603424D01*
X156725684Y-49671344D01*
X156873254Y-49769947D01*
X156998753Y-49895446D01*
X157097356Y-50043016D01*
X157165276Y-50206988D01*
X157199900Y-50381059D01*
X157199900Y-50558541D01*
X157165276Y-50732612D01*
X157097356Y-50896584D01*
X156998753Y-51044154D01*
X156873254Y-51169653D01*
X156725684Y-51268256D01*
X156561712Y-51336176D01*
X156412412Y-51365873D01*
X156387642Y-51370800D01*
X156210158Y-51370800D01*
X156185388Y-51365873D01*
X156036088Y-51336176D01*
X155872116Y-51268256D01*
X155724546Y-51169653D01*
X155599047Y-51044154D01*
X155500444Y-50896584D01*
X155432524Y-50732612D01*
X155397900Y-50558541D01*
X155397900Y-50381059D01*
X155432524Y-50206988D01*
X155500444Y-50043016D01*
X155599047Y-49895446D01*
X155724546Y-49769947D01*
X155872116Y-49671344D01*
X156036088Y-49603424D01*
X156185388Y-49573727D01*
X156210158Y-49568800D01*
X156387642Y-49568800D01*
X156412412Y-49573727D01*
G37*
M02*
