M48
; DRILL file {KiCad (5.1.6)-1} date 09/19/20 09:47:59
; FORMAT={-:-/ absolute / inch / decimal}
; #@! TF.CreationDate,2020-09-19T09:47:59+02:00
; #@! TF.GenerationSoftware,Kicad,Pcbnew,(5.1.6)-1
; #@! TF.FileFunction,Plated,1,2,PTH
FMAT,2
INCH
T1C0.0157
T2C0.0394
%
G90
G05
T1
X6.165Y-2.5055
X6.2363Y-2.3072
X6.2775Y-2.1725
X6.3077Y-2.4439
X6.381Y-2.3377
X6.4575Y-2.4475
X6.526Y-2.0125
X6.532Y-1.7545
X6.5575Y-1.9825
X6.5775Y-2.27
X6.6175Y-2.0905
X6.621Y-2.275
X6.7275Y-1.82
X6.77Y-1.84
X6.7835Y-2.161
X6.8025Y-1.87
X6.84Y-2.5925
X6.85Y-1.8775
X6.9015Y-2.402
X6.914Y-1.939
X6.9455Y-1.9945
X6.9521Y-2.8776
X7.0275Y-2.25
X7.041Y-2.7305
X7.0695Y-2.285
X7.195Y-2.175
X7.2725Y-1.995
T2
X6.1545Y-2.7415
X6.1545Y-2.8415
X7.3455Y-2.0545
X7.3455Y-2.1545
X7.3955Y-2.3955
X7.3955Y-2.4955
X6.1535Y-1.987
X6.1535Y-2.087
X7.2885Y-2.748
X7.2885Y-2.848
T0
M30
