G04 #@! TF.GenerationSoftware,KiCad,Pcbnew,(5.1.6)-1*
G04 #@! TF.CreationDate,2020-09-19T09:47:58+02:00*
G04 #@! TF.ProjectId,ArduinoProMicroUSB,41726475-696e-46f5-9072-6f4d6963726f,rev?*
G04 #@! TF.SameCoordinates,Original*
G04 #@! TF.FileFunction,Soldermask,Top*
G04 #@! TF.FilePolarity,Negative*
%FSLAX46Y46*%
G04 Gerber Fmt 4.6, Leading zero omitted, Abs format (unit mm)*
G04 Created by KiCad (PCBNEW (5.1.6)-1) date 2020-09-19 09:47:58*
%MOMM*%
%LPD*%
G01*
G04 APERTURE LIST*
%ADD10C,0.100000*%
G04 APERTURE END LIST*
D10*
G36*
X173690280Y-75133200D02*
G01*
X172689520Y-75133200D01*
X172689520Y-74030840D01*
X173690280Y-74030840D01*
X173690280Y-75133200D01*
G37*
G36*
X171296191Y-73709085D02*
G01*
X171330169Y-73719393D01*
X171361490Y-73736134D01*
X171388939Y-73758661D01*
X171411466Y-73786110D01*
X171428207Y-73817431D01*
X171438515Y-73851409D01*
X171442600Y-73892890D01*
X171442600Y-74494110D01*
X171438515Y-74535591D01*
X171428207Y-74569569D01*
X171411466Y-74600890D01*
X171388939Y-74628339D01*
X171361490Y-74650866D01*
X171330169Y-74667607D01*
X171296191Y-74677915D01*
X171254710Y-74682000D01*
X170578490Y-74682000D01*
X170537009Y-74677915D01*
X170503031Y-74667607D01*
X170471710Y-74650866D01*
X170444261Y-74628339D01*
X170421734Y-74600890D01*
X170404993Y-74569569D01*
X170394685Y-74535591D01*
X170390600Y-74494110D01*
X170390600Y-73892890D01*
X170394685Y-73851409D01*
X170404993Y-73817431D01*
X170421734Y-73786110D01*
X170444261Y-73758661D01*
X170471710Y-73736134D01*
X170503031Y-73719393D01*
X170537009Y-73709085D01*
X170578490Y-73705000D01*
X171254710Y-73705000D01*
X171296191Y-73709085D01*
G37*
G36*
X169607091Y-73645585D02*
G01*
X169641069Y-73655893D01*
X169672390Y-73672634D01*
X169699839Y-73695161D01*
X169722366Y-73722610D01*
X169739107Y-73753931D01*
X169749415Y-73787909D01*
X169753500Y-73829390D01*
X169753500Y-74430610D01*
X169749415Y-74472091D01*
X169739107Y-74506069D01*
X169722366Y-74537390D01*
X169699839Y-74564839D01*
X169672390Y-74587366D01*
X169641069Y-74604107D01*
X169607091Y-74614415D01*
X169565610Y-74618500D01*
X168889390Y-74618500D01*
X168847909Y-74614415D01*
X168813931Y-74604107D01*
X168782610Y-74587366D01*
X168755161Y-74564839D01*
X168732634Y-74537390D01*
X168715893Y-74506069D01*
X168705585Y-74472091D01*
X168701500Y-74430610D01*
X168701500Y-73829390D01*
X168705585Y-73787909D01*
X168715893Y-73753931D01*
X168732634Y-73722610D01*
X168755161Y-73695161D01*
X168782610Y-73672634D01*
X168813931Y-73655893D01*
X168847909Y-73645585D01*
X168889390Y-73641500D01*
X169565610Y-73641500D01*
X169607091Y-73645585D01*
G37*
G36*
X175893591Y-73213785D02*
G01*
X175927569Y-73224093D01*
X175958890Y-73240834D01*
X175986339Y-73263361D01*
X176008866Y-73290810D01*
X176025607Y-73322131D01*
X176035915Y-73356109D01*
X176040000Y-73397590D01*
X176040000Y-73998810D01*
X176035915Y-74040291D01*
X176025607Y-74074269D01*
X176008866Y-74105590D01*
X175986339Y-74133039D01*
X175958890Y-74155566D01*
X175927569Y-74172307D01*
X175893591Y-74182615D01*
X175852110Y-74186700D01*
X175175890Y-74186700D01*
X175134409Y-74182615D01*
X175100431Y-74172307D01*
X175069110Y-74155566D01*
X175041661Y-74133039D01*
X175019134Y-74105590D01*
X175002393Y-74074269D01*
X174992085Y-74040291D01*
X174988000Y-73998810D01*
X174988000Y-73397590D01*
X174992085Y-73356109D01*
X175002393Y-73322131D01*
X175019134Y-73290810D01*
X175041661Y-73263361D01*
X175069110Y-73240834D01*
X175100431Y-73224093D01*
X175134409Y-73213785D01*
X175175890Y-73209700D01*
X175852110Y-73209700D01*
X175893591Y-73213785D01*
G37*
G36*
X167985438Y-73103216D02*
G01*
X168006057Y-73109471D01*
X168025053Y-73119624D01*
X168041708Y-73133292D01*
X168055376Y-73149947D01*
X168065529Y-73168943D01*
X168071784Y-73189562D01*
X168074500Y-73217140D01*
X168074500Y-73675860D01*
X168071784Y-73703438D01*
X168065529Y-73724057D01*
X168055376Y-73743053D01*
X168041708Y-73759708D01*
X168025053Y-73773376D01*
X168006057Y-73783529D01*
X167985438Y-73789784D01*
X167957860Y-73792500D01*
X167449140Y-73792500D01*
X167421562Y-73789784D01*
X167400943Y-73783529D01*
X167381947Y-73773376D01*
X167365292Y-73759708D01*
X167351624Y-73743053D01*
X167341471Y-73724057D01*
X167335216Y-73703438D01*
X167332500Y-73675860D01*
X167332500Y-73217140D01*
X167335216Y-73189562D01*
X167341471Y-73168943D01*
X167351624Y-73149947D01*
X167365292Y-73133292D01*
X167381947Y-73119624D01*
X167400943Y-73109471D01*
X167421562Y-73103216D01*
X167449140Y-73100500D01*
X167957860Y-73100500D01*
X167985438Y-73103216D01*
G37*
G36*
X185241412Y-71443127D02*
G01*
X185390712Y-71472824D01*
X185554684Y-71540744D01*
X185702254Y-71639347D01*
X185827753Y-71764846D01*
X185926356Y-71912416D01*
X185994276Y-72076388D01*
X186028900Y-72250459D01*
X186028900Y-72427941D01*
X185994276Y-72602012D01*
X185926356Y-72765984D01*
X185827753Y-72913554D01*
X185702254Y-73039053D01*
X185554684Y-73137656D01*
X185390712Y-73205576D01*
X185241412Y-73235273D01*
X185216642Y-73240200D01*
X185039158Y-73240200D01*
X185014388Y-73235273D01*
X184865088Y-73205576D01*
X184701116Y-73137656D01*
X184553546Y-73039053D01*
X184428047Y-72913554D01*
X184329444Y-72765984D01*
X184261524Y-72602012D01*
X184226900Y-72427941D01*
X184226900Y-72250459D01*
X184261524Y-72076388D01*
X184329444Y-71912416D01*
X184428047Y-71764846D01*
X184553546Y-71639347D01*
X184701116Y-71540744D01*
X184865088Y-71472824D01*
X185014388Y-71443127D01*
X185039158Y-71438200D01*
X185216642Y-71438200D01*
X185241412Y-71443127D01*
G37*
G36*
X171296191Y-72134085D02*
G01*
X171330169Y-72144393D01*
X171361490Y-72161134D01*
X171388939Y-72183661D01*
X171411466Y-72211110D01*
X171428207Y-72242431D01*
X171438515Y-72276409D01*
X171442600Y-72317890D01*
X171442600Y-72919110D01*
X171438515Y-72960591D01*
X171428207Y-72994569D01*
X171411466Y-73025890D01*
X171388939Y-73053339D01*
X171361490Y-73075866D01*
X171330169Y-73092607D01*
X171296191Y-73102915D01*
X171254710Y-73107000D01*
X170578490Y-73107000D01*
X170537009Y-73102915D01*
X170503031Y-73092607D01*
X170471710Y-73075866D01*
X170444261Y-73053339D01*
X170421734Y-73025890D01*
X170404993Y-72994569D01*
X170394685Y-72960591D01*
X170390600Y-72919110D01*
X170390600Y-72317890D01*
X170394685Y-72276409D01*
X170404993Y-72242431D01*
X170421734Y-72211110D01*
X170444261Y-72183661D01*
X170471710Y-72161134D01*
X170503031Y-72144393D01*
X170537009Y-72134085D01*
X170578490Y-72130000D01*
X171254710Y-72130000D01*
X171296191Y-72134085D01*
G37*
G36*
X156437812Y-71278027D02*
G01*
X156587112Y-71307724D01*
X156751084Y-71375644D01*
X156898654Y-71474247D01*
X157024153Y-71599746D01*
X157122756Y-71747316D01*
X157190676Y-71911288D01*
X157225300Y-72085359D01*
X157225300Y-72262841D01*
X157190676Y-72436912D01*
X157122756Y-72600884D01*
X157024153Y-72748454D01*
X156898654Y-72873953D01*
X156751084Y-72972556D01*
X156587112Y-73040476D01*
X156459615Y-73065836D01*
X156413042Y-73075100D01*
X156235558Y-73075100D01*
X156188985Y-73065836D01*
X156061488Y-73040476D01*
X155897516Y-72972556D01*
X155749946Y-72873953D01*
X155624447Y-72748454D01*
X155525844Y-72600884D01*
X155457924Y-72436912D01*
X155423300Y-72262841D01*
X155423300Y-72085359D01*
X155457924Y-71911288D01*
X155525844Y-71747316D01*
X155624447Y-71599746D01*
X155749946Y-71474247D01*
X155897516Y-71375644D01*
X156061488Y-71307724D01*
X156210788Y-71278027D01*
X156235558Y-71273100D01*
X156413042Y-71273100D01*
X156437812Y-71278027D01*
G37*
G36*
X169607091Y-72070585D02*
G01*
X169641069Y-72080893D01*
X169672390Y-72097634D01*
X169699839Y-72120161D01*
X169722366Y-72147610D01*
X169739107Y-72178931D01*
X169749415Y-72212909D01*
X169753500Y-72254390D01*
X169753500Y-72855610D01*
X169749415Y-72897091D01*
X169739107Y-72931069D01*
X169722366Y-72962390D01*
X169699839Y-72989839D01*
X169672390Y-73012366D01*
X169641069Y-73029107D01*
X169607091Y-73039415D01*
X169565610Y-73043500D01*
X168889390Y-73043500D01*
X168847909Y-73039415D01*
X168813931Y-73029107D01*
X168782610Y-73012366D01*
X168755161Y-72989839D01*
X168732634Y-72962390D01*
X168715893Y-72931069D01*
X168705585Y-72897091D01*
X168701500Y-72855610D01*
X168701500Y-72254390D01*
X168705585Y-72212909D01*
X168715893Y-72178931D01*
X168732634Y-72147610D01*
X168755161Y-72120161D01*
X168782610Y-72097634D01*
X168813931Y-72080893D01*
X168847909Y-72070585D01*
X168889390Y-72066500D01*
X169565610Y-72066500D01*
X169607091Y-72070585D01*
G37*
G36*
X174640240Y-73035160D02*
G01*
X173639480Y-73035160D01*
X173639480Y-71932800D01*
X174640240Y-71932800D01*
X174640240Y-73035160D01*
G37*
G36*
X172740320Y-73035160D02*
G01*
X171739560Y-73035160D01*
X171739560Y-71932800D01*
X172740320Y-71932800D01*
X172740320Y-73035160D01*
G37*
G36*
X167985438Y-72133216D02*
G01*
X168006057Y-72139471D01*
X168025053Y-72149624D01*
X168041708Y-72163292D01*
X168055376Y-72179947D01*
X168065529Y-72198943D01*
X168071784Y-72219562D01*
X168074500Y-72247140D01*
X168074500Y-72705860D01*
X168071784Y-72733438D01*
X168065529Y-72754057D01*
X168055376Y-72773053D01*
X168041708Y-72789708D01*
X168025053Y-72803376D01*
X168006057Y-72813529D01*
X167985438Y-72819784D01*
X167957860Y-72822500D01*
X167449140Y-72822500D01*
X167421562Y-72819784D01*
X167400943Y-72813529D01*
X167381947Y-72803376D01*
X167365292Y-72789708D01*
X167351624Y-72773053D01*
X167341471Y-72754057D01*
X167335216Y-72733438D01*
X167332500Y-72705860D01*
X167332500Y-72247140D01*
X167335216Y-72219562D01*
X167341471Y-72198943D01*
X167351624Y-72179947D01*
X167365292Y-72163292D01*
X167381947Y-72149624D01*
X167400943Y-72139471D01*
X167421562Y-72133216D01*
X167449140Y-72130500D01*
X167957860Y-72130500D01*
X167985438Y-72133216D01*
G37*
G36*
X175893591Y-71638785D02*
G01*
X175927569Y-71649093D01*
X175958890Y-71665834D01*
X175986339Y-71688361D01*
X176008866Y-71715810D01*
X176025607Y-71747131D01*
X176035915Y-71781109D01*
X176040000Y-71822590D01*
X176040000Y-72423810D01*
X176035915Y-72465291D01*
X176025607Y-72499269D01*
X176008866Y-72530590D01*
X175986339Y-72558039D01*
X175958890Y-72580566D01*
X175927569Y-72597307D01*
X175893591Y-72607615D01*
X175852110Y-72611700D01*
X175175890Y-72611700D01*
X175134409Y-72607615D01*
X175100431Y-72597307D01*
X175069110Y-72580566D01*
X175041661Y-72558039D01*
X175019134Y-72530590D01*
X175002393Y-72499269D01*
X174992085Y-72465291D01*
X174988000Y-72423810D01*
X174988000Y-71822590D01*
X174992085Y-71781109D01*
X175002393Y-71747131D01*
X175019134Y-71715810D01*
X175041661Y-71688361D01*
X175069110Y-71665834D01*
X175100431Y-71649093D01*
X175134409Y-71638785D01*
X175175890Y-71634700D01*
X175852110Y-71634700D01*
X175893591Y-71638785D01*
G37*
G36*
X159193091Y-71232585D02*
G01*
X159227069Y-71242893D01*
X159258390Y-71259634D01*
X159285839Y-71282161D01*
X159308366Y-71309610D01*
X159325107Y-71340931D01*
X159335415Y-71374909D01*
X159339500Y-71416390D01*
X159339500Y-72017610D01*
X159335415Y-72059091D01*
X159325107Y-72093069D01*
X159308366Y-72124390D01*
X159285839Y-72151839D01*
X159258390Y-72174366D01*
X159227069Y-72191107D01*
X159193091Y-72201415D01*
X159151610Y-72205500D01*
X158475390Y-72205500D01*
X158433909Y-72201415D01*
X158399931Y-72191107D01*
X158368610Y-72174366D01*
X158341161Y-72151839D01*
X158318634Y-72124390D01*
X158301893Y-72093069D01*
X158291585Y-72059091D01*
X158287500Y-72017610D01*
X158287500Y-71416390D01*
X158291585Y-71374909D01*
X158301893Y-71340931D01*
X158318634Y-71309610D01*
X158341161Y-71282161D01*
X158368610Y-71259634D01*
X158399931Y-71242893D01*
X158433909Y-71232585D01*
X158475390Y-71228500D01*
X159151610Y-71228500D01*
X159193091Y-71232585D01*
G37*
G36*
X176449928Y-70555864D02*
G01*
X176471009Y-70562260D01*
X176490445Y-70572648D01*
X176507476Y-70586624D01*
X176521452Y-70603655D01*
X176531840Y-70623091D01*
X176538236Y-70644172D01*
X176541000Y-70672240D01*
X176541000Y-71135960D01*
X176538236Y-71164028D01*
X176531840Y-71185109D01*
X176521452Y-71204545D01*
X176507476Y-71221576D01*
X176490445Y-71235552D01*
X176471009Y-71245940D01*
X176449928Y-71252336D01*
X176421860Y-71255100D01*
X174508140Y-71255100D01*
X174480072Y-71252336D01*
X174458991Y-71245940D01*
X174439555Y-71235552D01*
X174422524Y-71221576D01*
X174408548Y-71204545D01*
X174398160Y-71185109D01*
X174391764Y-71164028D01*
X174389000Y-71135960D01*
X174389000Y-70672240D01*
X174391764Y-70644172D01*
X174398160Y-70623091D01*
X174408548Y-70603655D01*
X174422524Y-70586624D01*
X174439555Y-70572648D01*
X174458991Y-70562260D01*
X174480072Y-70555864D01*
X174508140Y-70553100D01*
X176421860Y-70553100D01*
X176449928Y-70555864D01*
G37*
G36*
X167149928Y-70555864D02*
G01*
X167171009Y-70562260D01*
X167190445Y-70572648D01*
X167207476Y-70586624D01*
X167221452Y-70603655D01*
X167231840Y-70623091D01*
X167238236Y-70644172D01*
X167241000Y-70672240D01*
X167241000Y-71135960D01*
X167238236Y-71164028D01*
X167231840Y-71185109D01*
X167221452Y-71204545D01*
X167207476Y-71221576D01*
X167190445Y-71235552D01*
X167171009Y-71245940D01*
X167149928Y-71252336D01*
X167121860Y-71255100D01*
X165208140Y-71255100D01*
X165180072Y-71252336D01*
X165158991Y-71245940D01*
X165139555Y-71235552D01*
X165122524Y-71221576D01*
X165108548Y-71204545D01*
X165098160Y-71185109D01*
X165091764Y-71164028D01*
X165089000Y-71135960D01*
X165089000Y-70672240D01*
X165091764Y-70644172D01*
X165098160Y-70623091D01*
X165108548Y-70603655D01*
X165122524Y-70586624D01*
X165139555Y-70572648D01*
X165158991Y-70562260D01*
X165180072Y-70555864D01*
X165208140Y-70553100D01*
X167121860Y-70553100D01*
X167149928Y-70555864D01*
G37*
G36*
X186028900Y-70700200D02*
G01*
X184226900Y-70700200D01*
X184226900Y-68898200D01*
X186028900Y-68898200D01*
X186028900Y-70700200D01*
G37*
G36*
X159193091Y-69657585D02*
G01*
X159227069Y-69667893D01*
X159258390Y-69684634D01*
X159285839Y-69707161D01*
X159308366Y-69734610D01*
X159325107Y-69765931D01*
X159335415Y-69799909D01*
X159339500Y-69841390D01*
X159339500Y-70442610D01*
X159335415Y-70484091D01*
X159325107Y-70518069D01*
X159308366Y-70549390D01*
X159285839Y-70576839D01*
X159258390Y-70599366D01*
X159227069Y-70616107D01*
X159193091Y-70626415D01*
X159151610Y-70630500D01*
X158475390Y-70630500D01*
X158433909Y-70626415D01*
X158399931Y-70616107D01*
X158368610Y-70599366D01*
X158341161Y-70576839D01*
X158318634Y-70549390D01*
X158301893Y-70518069D01*
X158291585Y-70484091D01*
X158287500Y-70442610D01*
X158287500Y-69841390D01*
X158291585Y-69799909D01*
X158301893Y-69765931D01*
X158318634Y-69734610D01*
X158341161Y-69707161D01*
X158368610Y-69684634D01*
X158399931Y-69667893D01*
X158433909Y-69657585D01*
X158475390Y-69653500D01*
X159151610Y-69653500D01*
X159193091Y-69657585D01*
G37*
G36*
X157225300Y-70535100D02*
G01*
X155423300Y-70535100D01*
X155423300Y-68733100D01*
X157225300Y-68733100D01*
X157225300Y-70535100D01*
G37*
G36*
X176449928Y-69285864D02*
G01*
X176471009Y-69292260D01*
X176490445Y-69302648D01*
X176507476Y-69316624D01*
X176521452Y-69333655D01*
X176531840Y-69353091D01*
X176538236Y-69374172D01*
X176541000Y-69402240D01*
X176541000Y-69865960D01*
X176538236Y-69894028D01*
X176531840Y-69915109D01*
X176521452Y-69934545D01*
X176507476Y-69951576D01*
X176490445Y-69965552D01*
X176471009Y-69975940D01*
X176449928Y-69982336D01*
X176421860Y-69985100D01*
X174508140Y-69985100D01*
X174480072Y-69982336D01*
X174458991Y-69975940D01*
X174439555Y-69965552D01*
X174422524Y-69951576D01*
X174408548Y-69934545D01*
X174398160Y-69915109D01*
X174391764Y-69894028D01*
X174389000Y-69865960D01*
X174389000Y-69402240D01*
X174391764Y-69374172D01*
X174398160Y-69353091D01*
X174408548Y-69333655D01*
X174422524Y-69316624D01*
X174439555Y-69302648D01*
X174458991Y-69292260D01*
X174480072Y-69285864D01*
X174508140Y-69283100D01*
X176421860Y-69283100D01*
X176449928Y-69285864D01*
G37*
G36*
X167149928Y-69285864D02*
G01*
X167171009Y-69292260D01*
X167190445Y-69302648D01*
X167207476Y-69316624D01*
X167221452Y-69333655D01*
X167231840Y-69353091D01*
X167238236Y-69374172D01*
X167241000Y-69402240D01*
X167241000Y-69865960D01*
X167238236Y-69894028D01*
X167231840Y-69915109D01*
X167221452Y-69934545D01*
X167207476Y-69951576D01*
X167190445Y-69965552D01*
X167171009Y-69975940D01*
X167149928Y-69982336D01*
X167121860Y-69985100D01*
X165208140Y-69985100D01*
X165180072Y-69982336D01*
X165158991Y-69975940D01*
X165139555Y-69965552D01*
X165122524Y-69951576D01*
X165108548Y-69934545D01*
X165098160Y-69915109D01*
X165091764Y-69894028D01*
X165089000Y-69865960D01*
X165089000Y-69402240D01*
X165091764Y-69374172D01*
X165098160Y-69353091D01*
X165108548Y-69333655D01*
X165122524Y-69316624D01*
X165139555Y-69302648D01*
X165158991Y-69292260D01*
X165180072Y-69285864D01*
X165208140Y-69283100D01*
X167121860Y-69283100D01*
X167149928Y-69285864D01*
G37*
G36*
X178014491Y-68324285D02*
G01*
X178048469Y-68334593D01*
X178079790Y-68351334D01*
X178107239Y-68373861D01*
X178129766Y-68401310D01*
X178146507Y-68432631D01*
X178156815Y-68466609D01*
X178160900Y-68508090D01*
X178160900Y-69109310D01*
X178156815Y-69150791D01*
X178146507Y-69184769D01*
X178129766Y-69216090D01*
X178107239Y-69243539D01*
X178079790Y-69266066D01*
X178048469Y-69282807D01*
X178014491Y-69293115D01*
X177973010Y-69297200D01*
X177296790Y-69297200D01*
X177255309Y-69293115D01*
X177221331Y-69282807D01*
X177190010Y-69266066D01*
X177162561Y-69243539D01*
X177140034Y-69216090D01*
X177123293Y-69184769D01*
X177112985Y-69150791D01*
X177108900Y-69109310D01*
X177108900Y-68508090D01*
X177112985Y-68466609D01*
X177123293Y-68432631D01*
X177140034Y-68401310D01*
X177162561Y-68373861D01*
X177190010Y-68351334D01*
X177221331Y-68334593D01*
X177255309Y-68324285D01*
X177296790Y-68320200D01*
X177973010Y-68320200D01*
X178014491Y-68324285D01*
G37*
G36*
X167149928Y-68015864D02*
G01*
X167171009Y-68022260D01*
X167190445Y-68032648D01*
X167207476Y-68046624D01*
X167221452Y-68063655D01*
X167231840Y-68083091D01*
X167238236Y-68104172D01*
X167241000Y-68132240D01*
X167241000Y-68595960D01*
X167238236Y-68624028D01*
X167231840Y-68645109D01*
X167221452Y-68664545D01*
X167207476Y-68681576D01*
X167190445Y-68695552D01*
X167171009Y-68705940D01*
X167149928Y-68712336D01*
X167121860Y-68715100D01*
X165208140Y-68715100D01*
X165180072Y-68712336D01*
X165158991Y-68705940D01*
X165139555Y-68695552D01*
X165122524Y-68681576D01*
X165108548Y-68664545D01*
X165098160Y-68645109D01*
X165091764Y-68624028D01*
X165089000Y-68595960D01*
X165089000Y-68132240D01*
X165091764Y-68104172D01*
X165098160Y-68083091D01*
X165108548Y-68063655D01*
X165122524Y-68046624D01*
X165139555Y-68032648D01*
X165158991Y-68022260D01*
X165180072Y-68015864D01*
X165208140Y-68013100D01*
X167121860Y-68013100D01*
X167149928Y-68015864D01*
G37*
G36*
X176449928Y-68015864D02*
G01*
X176471009Y-68022260D01*
X176490445Y-68032648D01*
X176507476Y-68046624D01*
X176521452Y-68063655D01*
X176531840Y-68083091D01*
X176538236Y-68104172D01*
X176541000Y-68132240D01*
X176541000Y-68595960D01*
X176538236Y-68624028D01*
X176531840Y-68645109D01*
X176521452Y-68664545D01*
X176507476Y-68681576D01*
X176490445Y-68695552D01*
X176471009Y-68705940D01*
X176449928Y-68712336D01*
X176421860Y-68715100D01*
X174508140Y-68715100D01*
X174480072Y-68712336D01*
X174458991Y-68705940D01*
X174439555Y-68695552D01*
X174422524Y-68681576D01*
X174408548Y-68664545D01*
X174398160Y-68645109D01*
X174391764Y-68624028D01*
X174389000Y-68595960D01*
X174389000Y-68132240D01*
X174391764Y-68104172D01*
X174398160Y-68083091D01*
X174408548Y-68063655D01*
X174422524Y-68046624D01*
X174439555Y-68032648D01*
X174458991Y-68022260D01*
X174480072Y-68015864D01*
X174508140Y-68013100D01*
X176421860Y-68013100D01*
X176449928Y-68015864D01*
G37*
G36*
X164250468Y-66754065D02*
G01*
X164289138Y-66765796D01*
X164324777Y-66784846D01*
X164356017Y-66810483D01*
X164381654Y-66841723D01*
X164400704Y-66877362D01*
X164412435Y-66916032D01*
X164417000Y-66962388D01*
X164417000Y-68038612D01*
X164412435Y-68084968D01*
X164400704Y-68123638D01*
X164381654Y-68159277D01*
X164356017Y-68190517D01*
X164324777Y-68216154D01*
X164289138Y-68235204D01*
X164250468Y-68246935D01*
X164204112Y-68251500D01*
X163552888Y-68251500D01*
X163506532Y-68246935D01*
X163467862Y-68235204D01*
X163432223Y-68216154D01*
X163400983Y-68190517D01*
X163375346Y-68159277D01*
X163356296Y-68123638D01*
X163344565Y-68084968D01*
X163340000Y-68038612D01*
X163340000Y-66962388D01*
X163344565Y-66916032D01*
X163356296Y-66877362D01*
X163375346Y-66841723D01*
X163400983Y-66810483D01*
X163432223Y-66784846D01*
X163467862Y-66765796D01*
X163506532Y-66754065D01*
X163552888Y-66749500D01*
X164204112Y-66749500D01*
X164250468Y-66754065D01*
G37*
G36*
X162375468Y-66754065D02*
G01*
X162414138Y-66765796D01*
X162449777Y-66784846D01*
X162481017Y-66810483D01*
X162506654Y-66841723D01*
X162525704Y-66877362D01*
X162537435Y-66916032D01*
X162542000Y-66962388D01*
X162542000Y-68038612D01*
X162537435Y-68084968D01*
X162525704Y-68123638D01*
X162506654Y-68159277D01*
X162481017Y-68190517D01*
X162449777Y-68216154D01*
X162414138Y-68235204D01*
X162375468Y-68246935D01*
X162329112Y-68251500D01*
X161677888Y-68251500D01*
X161631532Y-68246935D01*
X161592862Y-68235204D01*
X161557223Y-68216154D01*
X161525983Y-68190517D01*
X161500346Y-68159277D01*
X161481296Y-68123638D01*
X161469565Y-68084968D01*
X161465000Y-68038612D01*
X161465000Y-66962388D01*
X161469565Y-66916032D01*
X161481296Y-66877362D01*
X161500346Y-66841723D01*
X161525983Y-66810483D01*
X161557223Y-66784846D01*
X161592862Y-66765796D01*
X161631532Y-66754065D01*
X161677888Y-66749500D01*
X162329112Y-66749500D01*
X162375468Y-66754065D01*
G37*
G36*
X159257091Y-66788085D02*
G01*
X159291069Y-66798393D01*
X159322390Y-66815134D01*
X159349839Y-66837661D01*
X159372366Y-66865110D01*
X159389107Y-66896431D01*
X159399415Y-66930409D01*
X159403500Y-66971890D01*
X159403500Y-67648110D01*
X159399415Y-67689591D01*
X159389107Y-67723569D01*
X159372366Y-67754890D01*
X159349839Y-67782339D01*
X159322390Y-67804866D01*
X159291069Y-67821607D01*
X159257091Y-67831915D01*
X159215610Y-67836000D01*
X158614390Y-67836000D01*
X158572909Y-67831915D01*
X158538931Y-67821607D01*
X158507610Y-67804866D01*
X158480161Y-67782339D01*
X158457634Y-67754890D01*
X158440893Y-67723569D01*
X158430585Y-67689591D01*
X158426500Y-67648110D01*
X158426500Y-66971890D01*
X158430585Y-66930409D01*
X158440893Y-66896431D01*
X158457634Y-66865110D01*
X158480161Y-66837661D01*
X158507610Y-66815134D01*
X158538931Y-66798393D01*
X158572909Y-66788085D01*
X158614390Y-66784000D01*
X159215610Y-66784000D01*
X159257091Y-66788085D01*
G37*
G36*
X160832091Y-66788085D02*
G01*
X160866069Y-66798393D01*
X160897390Y-66815134D01*
X160924839Y-66837661D01*
X160947366Y-66865110D01*
X160964107Y-66896431D01*
X160974415Y-66930409D01*
X160978500Y-66971890D01*
X160978500Y-67648110D01*
X160974415Y-67689591D01*
X160964107Y-67723569D01*
X160947366Y-67754890D01*
X160924839Y-67782339D01*
X160897390Y-67804866D01*
X160866069Y-67821607D01*
X160832091Y-67831915D01*
X160790610Y-67836000D01*
X160189390Y-67836000D01*
X160147909Y-67831915D01*
X160113931Y-67821607D01*
X160082610Y-67804866D01*
X160055161Y-67782339D01*
X160032634Y-67754890D01*
X160015893Y-67723569D01*
X160005585Y-67689591D01*
X160001500Y-67648110D01*
X160001500Y-66971890D01*
X160005585Y-66930409D01*
X160015893Y-66896431D01*
X160032634Y-66865110D01*
X160055161Y-66837661D01*
X160082610Y-66815134D01*
X160113931Y-66798393D01*
X160147909Y-66788085D01*
X160189390Y-66784000D01*
X160790610Y-66784000D01*
X160832091Y-66788085D01*
G37*
G36*
X178014491Y-66749285D02*
G01*
X178048469Y-66759593D01*
X178079790Y-66776334D01*
X178107239Y-66798861D01*
X178129766Y-66826310D01*
X178146507Y-66857631D01*
X178156815Y-66891609D01*
X178160900Y-66933090D01*
X178160900Y-67534310D01*
X178156815Y-67575791D01*
X178146507Y-67609769D01*
X178129766Y-67641090D01*
X178107239Y-67668539D01*
X178079790Y-67691066D01*
X178048469Y-67707807D01*
X178014491Y-67718115D01*
X177973010Y-67722200D01*
X177296790Y-67722200D01*
X177255309Y-67718115D01*
X177221331Y-67707807D01*
X177190010Y-67691066D01*
X177162561Y-67668539D01*
X177140034Y-67641090D01*
X177123293Y-67609769D01*
X177112985Y-67575791D01*
X177108900Y-67534310D01*
X177108900Y-66933090D01*
X177112985Y-66891609D01*
X177123293Y-66857631D01*
X177140034Y-66826310D01*
X177162561Y-66798861D01*
X177190010Y-66776334D01*
X177221331Y-66759593D01*
X177255309Y-66749285D01*
X177296790Y-66745200D01*
X177973010Y-66745200D01*
X178014491Y-66749285D01*
G37*
G36*
X176449928Y-66745864D02*
G01*
X176471009Y-66752260D01*
X176490445Y-66762648D01*
X176507476Y-66776624D01*
X176521452Y-66793655D01*
X176531840Y-66813091D01*
X176538236Y-66834172D01*
X176541000Y-66862240D01*
X176541000Y-67325960D01*
X176538236Y-67354028D01*
X176531840Y-67375109D01*
X176521452Y-67394545D01*
X176507476Y-67411576D01*
X176490445Y-67425552D01*
X176471009Y-67435940D01*
X176449928Y-67442336D01*
X176421860Y-67445100D01*
X174508140Y-67445100D01*
X174480072Y-67442336D01*
X174458991Y-67435940D01*
X174439555Y-67425552D01*
X174422524Y-67411576D01*
X174408548Y-67394545D01*
X174398160Y-67375109D01*
X174391764Y-67354028D01*
X174389000Y-67325960D01*
X174389000Y-66862240D01*
X174391764Y-66834172D01*
X174398160Y-66813091D01*
X174408548Y-66793655D01*
X174422524Y-66776624D01*
X174439555Y-66762648D01*
X174458991Y-66752260D01*
X174480072Y-66745864D01*
X174508140Y-66743100D01*
X176421860Y-66743100D01*
X176449928Y-66745864D01*
G37*
G36*
X167149928Y-66745864D02*
G01*
X167171009Y-66752260D01*
X167190445Y-66762648D01*
X167207476Y-66776624D01*
X167221452Y-66793655D01*
X167231840Y-66813091D01*
X167238236Y-66834172D01*
X167241000Y-66862240D01*
X167241000Y-67325960D01*
X167238236Y-67354028D01*
X167231840Y-67375109D01*
X167221452Y-67394545D01*
X167207476Y-67411576D01*
X167190445Y-67425552D01*
X167171009Y-67435940D01*
X167149928Y-67442336D01*
X167121860Y-67445100D01*
X165208140Y-67445100D01*
X165180072Y-67442336D01*
X165158991Y-67435940D01*
X165139555Y-67425552D01*
X165122524Y-67411576D01*
X165108548Y-67394545D01*
X165098160Y-67375109D01*
X165091764Y-67354028D01*
X165089000Y-67325960D01*
X165089000Y-66862240D01*
X165091764Y-66834172D01*
X165098160Y-66813091D01*
X165108548Y-66793655D01*
X165122524Y-66776624D01*
X165139555Y-66762648D01*
X165158991Y-66752260D01*
X165180072Y-66745864D01*
X165208140Y-66743100D01*
X167121860Y-66743100D01*
X167149928Y-66745864D01*
G37*
G36*
X178435268Y-65173565D02*
G01*
X178473938Y-65185296D01*
X178509577Y-65204346D01*
X178540817Y-65229983D01*
X178566454Y-65261223D01*
X178585504Y-65296862D01*
X178597235Y-65335532D01*
X178601800Y-65381888D01*
X178601800Y-66033112D01*
X178597235Y-66079468D01*
X178585504Y-66118138D01*
X178566454Y-66153777D01*
X178540817Y-66185017D01*
X178509577Y-66210654D01*
X178473938Y-66229704D01*
X178435268Y-66241435D01*
X178388912Y-66246000D01*
X177312688Y-66246000D01*
X177266332Y-66241435D01*
X177227662Y-66229704D01*
X177192023Y-66210654D01*
X177160783Y-66185017D01*
X177135146Y-66153777D01*
X177116096Y-66118138D01*
X177104365Y-66079468D01*
X177099800Y-66033112D01*
X177099800Y-65381888D01*
X177104365Y-65335532D01*
X177116096Y-65296862D01*
X177135146Y-65261223D01*
X177160783Y-65229983D01*
X177192023Y-65204346D01*
X177227662Y-65185296D01*
X177266332Y-65173565D01*
X177312688Y-65169000D01*
X178388912Y-65169000D01*
X178435268Y-65173565D01*
G37*
G36*
X161429968Y-65173565D02*
G01*
X161468638Y-65185296D01*
X161504277Y-65204346D01*
X161535517Y-65229983D01*
X161561154Y-65261223D01*
X161580204Y-65296862D01*
X161591935Y-65335532D01*
X161596500Y-65381888D01*
X161596500Y-66033112D01*
X161591935Y-66079468D01*
X161580204Y-66118138D01*
X161561154Y-66153777D01*
X161535517Y-66185017D01*
X161504277Y-66210654D01*
X161468638Y-66229704D01*
X161429968Y-66241435D01*
X161383612Y-66246000D01*
X160307388Y-66246000D01*
X160261032Y-66241435D01*
X160222362Y-66229704D01*
X160186723Y-66210654D01*
X160155483Y-66185017D01*
X160129846Y-66153777D01*
X160110796Y-66118138D01*
X160099065Y-66079468D01*
X160094500Y-66033112D01*
X160094500Y-65381888D01*
X160099065Y-65335532D01*
X160110796Y-65296862D01*
X160129846Y-65261223D01*
X160155483Y-65229983D01*
X160186723Y-65204346D01*
X160222362Y-65185296D01*
X160261032Y-65173565D01*
X160307388Y-65169000D01*
X161383612Y-65169000D01*
X161429968Y-65173565D01*
G37*
G36*
X167149928Y-65475864D02*
G01*
X167171009Y-65482260D01*
X167190445Y-65492648D01*
X167207476Y-65506624D01*
X167221452Y-65523655D01*
X167231840Y-65543091D01*
X167238236Y-65564172D01*
X167241000Y-65592240D01*
X167241000Y-66055960D01*
X167238236Y-66084028D01*
X167231840Y-66105109D01*
X167221452Y-66124545D01*
X167207476Y-66141576D01*
X167190445Y-66155552D01*
X167171009Y-66165940D01*
X167149928Y-66172336D01*
X167121860Y-66175100D01*
X165208140Y-66175100D01*
X165180072Y-66172336D01*
X165158991Y-66165940D01*
X165139555Y-66155552D01*
X165122524Y-66141576D01*
X165108548Y-66124545D01*
X165098160Y-66105109D01*
X165091764Y-66084028D01*
X165089000Y-66055960D01*
X165089000Y-65592240D01*
X165091764Y-65564172D01*
X165098160Y-65543091D01*
X165108548Y-65523655D01*
X165122524Y-65506624D01*
X165139555Y-65492648D01*
X165158991Y-65482260D01*
X165180072Y-65475864D01*
X165208140Y-65473100D01*
X167121860Y-65473100D01*
X167149928Y-65475864D01*
G37*
G36*
X176449928Y-65475864D02*
G01*
X176471009Y-65482260D01*
X176490445Y-65492648D01*
X176507476Y-65506624D01*
X176521452Y-65523655D01*
X176531840Y-65543091D01*
X176538236Y-65564172D01*
X176541000Y-65592240D01*
X176541000Y-66055960D01*
X176538236Y-66084028D01*
X176531840Y-66105109D01*
X176521452Y-66124545D01*
X176507476Y-66141576D01*
X176490445Y-66155552D01*
X176471009Y-66165940D01*
X176449928Y-66172336D01*
X176421860Y-66175100D01*
X174508140Y-66175100D01*
X174480072Y-66172336D01*
X174458991Y-66165940D01*
X174439555Y-66155552D01*
X174422524Y-66141576D01*
X174408548Y-66124545D01*
X174398160Y-66105109D01*
X174391764Y-66084028D01*
X174389000Y-66055960D01*
X174389000Y-65592240D01*
X174391764Y-65564172D01*
X174398160Y-65543091D01*
X174408548Y-65523655D01*
X174422524Y-65506624D01*
X174439555Y-65492648D01*
X174458991Y-65482260D01*
X174480072Y-65475864D01*
X174508140Y-65473100D01*
X176421860Y-65473100D01*
X176449928Y-65475864D01*
G37*
G36*
X159510591Y-65200085D02*
G01*
X159544569Y-65210393D01*
X159575890Y-65227134D01*
X159603339Y-65249661D01*
X159625866Y-65277110D01*
X159642607Y-65308431D01*
X159652915Y-65342409D01*
X159657000Y-65383890D01*
X159657000Y-65985110D01*
X159652915Y-66026591D01*
X159642607Y-66060569D01*
X159625866Y-66091890D01*
X159603339Y-66119339D01*
X159575890Y-66141866D01*
X159544569Y-66158607D01*
X159510591Y-66168915D01*
X159469110Y-66173000D01*
X158792890Y-66173000D01*
X158751409Y-66168915D01*
X158717431Y-66158607D01*
X158686110Y-66141866D01*
X158658661Y-66119339D01*
X158636134Y-66091890D01*
X158619393Y-66060569D01*
X158609085Y-66026591D01*
X158605000Y-65985110D01*
X158605000Y-65383890D01*
X158609085Y-65342409D01*
X158619393Y-65308431D01*
X158636134Y-65277110D01*
X158658661Y-65249661D01*
X158686110Y-65227134D01*
X158717431Y-65210393D01*
X158751409Y-65200085D01*
X158792890Y-65196000D01*
X159469110Y-65196000D01*
X159510591Y-65200085D01*
G37*
G36*
X154203400Y-66146680D02*
G01*
X152501600Y-66146680D01*
X152501600Y-64145160D01*
X154203400Y-64145160D01*
X154203400Y-66146680D01*
G37*
G36*
X164736500Y-65725700D02*
G01*
X163734500Y-65725700D01*
X163734500Y-65223700D01*
X164736500Y-65223700D01*
X164736500Y-65725700D01*
G37*
G36*
X163036500Y-65725700D02*
G01*
X162034500Y-65725700D01*
X162034500Y-65223700D01*
X163036500Y-65223700D01*
X163036500Y-65725700D01*
G37*
G36*
X164736500Y-64925700D02*
G01*
X163734500Y-64925700D01*
X163734500Y-64423700D01*
X164736500Y-64423700D01*
X164736500Y-64925700D01*
G37*
G36*
X163036500Y-64925700D02*
G01*
X162034500Y-64925700D01*
X162034500Y-64423700D01*
X163036500Y-64423700D01*
X163036500Y-64925700D01*
G37*
G36*
X176449928Y-64205864D02*
G01*
X176471009Y-64212260D01*
X176490445Y-64222648D01*
X176507476Y-64236624D01*
X176521452Y-64253655D01*
X176531840Y-64273091D01*
X176538236Y-64294172D01*
X176541000Y-64322240D01*
X176541000Y-64785960D01*
X176538236Y-64814028D01*
X176531840Y-64835109D01*
X176521452Y-64854545D01*
X176507476Y-64871576D01*
X176490445Y-64885552D01*
X176471009Y-64895940D01*
X176449928Y-64902336D01*
X176421860Y-64905100D01*
X174508140Y-64905100D01*
X174480072Y-64902336D01*
X174458991Y-64895940D01*
X174439555Y-64885552D01*
X174422524Y-64871576D01*
X174408548Y-64854545D01*
X174398160Y-64835109D01*
X174391764Y-64814028D01*
X174389000Y-64785960D01*
X174389000Y-64322240D01*
X174391764Y-64294172D01*
X174398160Y-64273091D01*
X174408548Y-64253655D01*
X174422524Y-64236624D01*
X174439555Y-64222648D01*
X174458991Y-64212260D01*
X174480072Y-64205864D01*
X174508140Y-64203100D01*
X176421860Y-64203100D01*
X176449928Y-64205864D01*
G37*
G36*
X167149928Y-64205864D02*
G01*
X167171009Y-64212260D01*
X167190445Y-64222648D01*
X167207476Y-64236624D01*
X167221452Y-64253655D01*
X167231840Y-64273091D01*
X167238236Y-64294172D01*
X167241000Y-64322240D01*
X167241000Y-64785960D01*
X167238236Y-64814028D01*
X167231840Y-64835109D01*
X167221452Y-64854545D01*
X167207476Y-64871576D01*
X167190445Y-64885552D01*
X167171009Y-64895940D01*
X167149928Y-64902336D01*
X167121860Y-64905100D01*
X165208140Y-64905100D01*
X165180072Y-64902336D01*
X165158991Y-64895940D01*
X165139555Y-64885552D01*
X165122524Y-64871576D01*
X165108548Y-64854545D01*
X165098160Y-64835109D01*
X165091764Y-64814028D01*
X165089000Y-64785960D01*
X165089000Y-64322240D01*
X165091764Y-64294172D01*
X165098160Y-64273091D01*
X165108548Y-64253655D01*
X165122524Y-64236624D01*
X165139555Y-64222648D01*
X165158991Y-64212260D01*
X165180072Y-64205864D01*
X165208140Y-64203100D01*
X167121860Y-64203100D01*
X167149928Y-64205864D01*
G37*
G36*
X159510591Y-63625085D02*
G01*
X159544569Y-63635393D01*
X159575890Y-63652134D01*
X159603339Y-63674661D01*
X159625866Y-63702110D01*
X159642607Y-63733431D01*
X159652915Y-63767409D01*
X159657000Y-63808890D01*
X159657000Y-64410110D01*
X159652915Y-64451591D01*
X159642607Y-64485569D01*
X159625866Y-64516890D01*
X159603339Y-64544339D01*
X159575890Y-64566866D01*
X159544569Y-64583607D01*
X159510591Y-64593915D01*
X159469110Y-64598000D01*
X158792890Y-64598000D01*
X158751409Y-64593915D01*
X158717431Y-64583607D01*
X158686110Y-64566866D01*
X158658661Y-64544339D01*
X158636134Y-64516890D01*
X158619393Y-64485569D01*
X158609085Y-64451591D01*
X158605000Y-64410110D01*
X158605000Y-63808890D01*
X158609085Y-63767409D01*
X158619393Y-63733431D01*
X158636134Y-63702110D01*
X158658661Y-63674661D01*
X158686110Y-63652134D01*
X158717431Y-63635393D01*
X158751409Y-63625085D01*
X158792890Y-63621000D01*
X159469110Y-63621000D01*
X159510591Y-63625085D01*
G37*
G36*
X178435268Y-63298565D02*
G01*
X178473938Y-63310296D01*
X178509577Y-63329346D01*
X178540817Y-63354983D01*
X178566454Y-63386223D01*
X178585504Y-63421862D01*
X178597235Y-63460532D01*
X178601800Y-63506888D01*
X178601800Y-64158112D01*
X178597235Y-64204468D01*
X178585504Y-64243138D01*
X178566454Y-64278777D01*
X178540817Y-64310017D01*
X178509577Y-64335654D01*
X178473938Y-64354704D01*
X178435268Y-64366435D01*
X178388912Y-64371000D01*
X177312688Y-64371000D01*
X177266332Y-64366435D01*
X177227662Y-64354704D01*
X177192023Y-64335654D01*
X177160783Y-64310017D01*
X177135146Y-64278777D01*
X177116096Y-64243138D01*
X177104365Y-64204468D01*
X177099800Y-64158112D01*
X177099800Y-63506888D01*
X177104365Y-63460532D01*
X177116096Y-63421862D01*
X177135146Y-63386223D01*
X177160783Y-63354983D01*
X177192023Y-63329346D01*
X177227662Y-63310296D01*
X177266332Y-63298565D01*
X177312688Y-63294000D01*
X178388912Y-63294000D01*
X178435268Y-63298565D01*
G37*
G36*
X161429968Y-63298565D02*
G01*
X161468638Y-63310296D01*
X161504277Y-63329346D01*
X161535517Y-63354983D01*
X161561154Y-63386223D01*
X161580204Y-63421862D01*
X161591935Y-63460532D01*
X161596500Y-63506888D01*
X161596500Y-64158112D01*
X161591935Y-64204468D01*
X161580204Y-64243138D01*
X161561154Y-64278777D01*
X161535517Y-64310017D01*
X161504277Y-64335654D01*
X161468638Y-64354704D01*
X161429968Y-64366435D01*
X161383612Y-64371000D01*
X160307388Y-64371000D01*
X160261032Y-64366435D01*
X160222362Y-64354704D01*
X160186723Y-64335654D01*
X160155483Y-64310017D01*
X160129846Y-64278777D01*
X160110796Y-64243138D01*
X160099065Y-64204468D01*
X160094500Y-64158112D01*
X160094500Y-63506888D01*
X160099065Y-63460532D01*
X160110796Y-63421862D01*
X160129846Y-63386223D01*
X160155483Y-63354983D01*
X160186723Y-63329346D01*
X160222362Y-63310296D01*
X160261032Y-63298565D01*
X160307388Y-63294000D01*
X161383612Y-63294000D01*
X161429968Y-63298565D01*
G37*
G36*
X187959212Y-62489627D02*
G01*
X188108512Y-62519324D01*
X188272484Y-62587244D01*
X188420054Y-62685847D01*
X188545553Y-62811346D01*
X188644156Y-62958916D01*
X188712076Y-63122888D01*
X188730309Y-63214556D01*
X188746112Y-63294000D01*
X188746700Y-63296959D01*
X188746700Y-63474441D01*
X188712076Y-63648512D01*
X188644156Y-63812484D01*
X188545553Y-63960054D01*
X188420054Y-64085553D01*
X188272484Y-64184156D01*
X188108512Y-64252076D01*
X187962610Y-64281097D01*
X187934442Y-64286700D01*
X187756958Y-64286700D01*
X187728790Y-64281097D01*
X187582888Y-64252076D01*
X187418916Y-64184156D01*
X187271346Y-64085553D01*
X187145847Y-63960054D01*
X187047244Y-63812484D01*
X186979324Y-63648512D01*
X186944700Y-63474441D01*
X186944700Y-63296959D01*
X186945289Y-63294000D01*
X186961091Y-63214556D01*
X186979324Y-63122888D01*
X187047244Y-62958916D01*
X187145847Y-62811346D01*
X187271346Y-62685847D01*
X187418916Y-62587244D01*
X187582888Y-62519324D01*
X187732188Y-62489627D01*
X187756958Y-62484700D01*
X187934442Y-62484700D01*
X187959212Y-62489627D01*
G37*
G36*
X163036500Y-64125700D02*
G01*
X162034500Y-64125700D01*
X162034500Y-63623700D01*
X163036500Y-63623700D01*
X163036500Y-64125700D01*
G37*
G36*
X164736500Y-64125700D02*
G01*
X163734500Y-64125700D01*
X163734500Y-63623700D01*
X164736500Y-63623700D01*
X164736500Y-64125700D01*
G37*
G36*
X155705504Y-59062505D02*
G01*
X155801189Y-59102139D01*
X155887305Y-59159680D01*
X155960540Y-59232915D01*
X156018081Y-59319031D01*
X156057715Y-59414716D01*
X156077920Y-59516294D01*
X156077920Y-59619866D01*
X156058065Y-59719685D01*
X156055663Y-59744071D01*
X156058065Y-59768457D01*
X156065178Y-59791906D01*
X156076729Y-59813517D01*
X156092275Y-59832459D01*
X156111217Y-59848004D01*
X156132827Y-59859555D01*
X156156276Y-59866668D01*
X156180662Y-59869070D01*
X156851350Y-59869070D01*
X156851350Y-60992316D01*
X156853752Y-61016702D01*
X156860865Y-61040151D01*
X156872416Y-61061762D01*
X156887961Y-61080704D01*
X156906903Y-61096249D01*
X156928514Y-61107800D01*
X156951963Y-61114913D01*
X156976349Y-61117315D01*
X157000735Y-61114913D01*
X157024184Y-61107800D01*
X157045795Y-61096249D01*
X157064737Y-61080704D01*
X157080282Y-61061762D01*
X157095965Y-61028602D01*
X157107392Y-60990931D01*
X157124134Y-60959610D01*
X157146661Y-60932161D01*
X157174110Y-60909634D01*
X157205431Y-60892893D01*
X157239409Y-60882585D01*
X157280890Y-60878500D01*
X157882110Y-60878500D01*
X157923591Y-60882585D01*
X157957569Y-60892893D01*
X157988890Y-60909634D01*
X158016339Y-60932161D01*
X158038866Y-60959610D01*
X158055607Y-60990931D01*
X158065915Y-61024909D01*
X158070000Y-61066390D01*
X158070000Y-61742610D01*
X158065915Y-61784091D01*
X158055607Y-61818069D01*
X158038866Y-61849390D01*
X158016339Y-61876839D01*
X157988890Y-61899366D01*
X157957569Y-61916107D01*
X157923591Y-61926415D01*
X157882110Y-61930500D01*
X157280890Y-61930500D01*
X157239409Y-61926415D01*
X157205431Y-61916107D01*
X157174110Y-61899366D01*
X157146661Y-61876839D01*
X157124134Y-61849390D01*
X157107392Y-61818069D01*
X157095965Y-61780398D01*
X157086588Y-61757759D01*
X157072974Y-61737385D01*
X157055647Y-61720058D01*
X157035273Y-61706444D01*
X157012634Y-61697067D01*
X156988600Y-61692287D01*
X156964096Y-61692287D01*
X156940063Y-61697068D01*
X156917424Y-61706445D01*
X156897050Y-61720059D01*
X156879723Y-61737386D01*
X156866109Y-61757760D01*
X156856732Y-61780399D01*
X156851350Y-61816684D01*
X156851350Y-62389316D01*
X156853752Y-62413702D01*
X156860865Y-62437151D01*
X156872416Y-62458762D01*
X156887961Y-62477704D01*
X156906903Y-62493249D01*
X156928514Y-62504800D01*
X156951963Y-62511913D01*
X156976349Y-62514315D01*
X157000735Y-62511913D01*
X157024184Y-62504800D01*
X157045795Y-62493249D01*
X157064737Y-62477704D01*
X157080282Y-62458762D01*
X157095965Y-62425602D01*
X157107392Y-62387931D01*
X157124134Y-62356610D01*
X157146661Y-62329161D01*
X157174110Y-62306634D01*
X157205431Y-62289893D01*
X157239409Y-62279585D01*
X157280890Y-62275500D01*
X157882110Y-62275500D01*
X157923591Y-62279585D01*
X157957569Y-62289893D01*
X157988890Y-62306634D01*
X158016339Y-62329161D01*
X158038866Y-62356610D01*
X158055607Y-62387931D01*
X158065915Y-62421909D01*
X158070000Y-62463390D01*
X158070000Y-63139610D01*
X158065915Y-63181091D01*
X158055607Y-63215069D01*
X158038866Y-63246390D01*
X158016339Y-63273839D01*
X157988890Y-63296366D01*
X157957569Y-63313107D01*
X157923591Y-63323415D01*
X157882110Y-63327500D01*
X157280890Y-63327500D01*
X157239409Y-63323415D01*
X157205431Y-63313107D01*
X157174110Y-63296366D01*
X157146661Y-63273839D01*
X157124134Y-63246390D01*
X157107393Y-63215069D01*
X157097085Y-63181091D01*
X157096946Y-63179676D01*
X157092165Y-63155643D01*
X157082788Y-63133004D01*
X157069174Y-63112630D01*
X157051847Y-63095303D01*
X157031472Y-63081689D01*
X157008833Y-63072312D01*
X156972549Y-63066930D01*
X156180662Y-63066930D01*
X156156276Y-63069332D01*
X156132827Y-63076445D01*
X156111216Y-63087996D01*
X156092274Y-63103541D01*
X156076729Y-63122483D01*
X156065178Y-63144094D01*
X156058065Y-63167543D01*
X156055663Y-63191929D01*
X156058065Y-63216315D01*
X156077920Y-63316134D01*
X156077920Y-63419706D01*
X156057715Y-63521284D01*
X156018081Y-63616969D01*
X155960540Y-63703085D01*
X155887305Y-63776320D01*
X155801189Y-63833861D01*
X155705504Y-63873495D01*
X155603926Y-63893700D01*
X155500354Y-63893700D01*
X155398776Y-63873495D01*
X155303091Y-63833861D01*
X155216975Y-63776320D01*
X155143740Y-63703085D01*
X155086199Y-63616969D01*
X155046565Y-63521284D01*
X155026360Y-63419706D01*
X155026360Y-63316134D01*
X155046565Y-63214556D01*
X155086199Y-63118871D01*
X155143740Y-63032755D01*
X155211999Y-62964496D01*
X155227544Y-62945554D01*
X155239095Y-62923943D01*
X155246208Y-62900494D01*
X155248610Y-62876108D01*
X155248610Y-60059892D01*
X155246208Y-60035506D01*
X155239095Y-60012057D01*
X155227544Y-59990446D01*
X155211999Y-59971504D01*
X155143740Y-59903245D01*
X155086199Y-59817129D01*
X155046565Y-59721444D01*
X155026360Y-59619866D01*
X155026360Y-59516294D01*
X155046565Y-59414716D01*
X155086199Y-59319031D01*
X155143740Y-59232915D01*
X155216975Y-59159680D01*
X155303091Y-59102139D01*
X155398776Y-59062505D01*
X155500354Y-59042300D01*
X155603926Y-59042300D01*
X155705504Y-59062505D01*
G37*
G36*
X176449928Y-62935864D02*
G01*
X176471009Y-62942260D01*
X176490445Y-62952648D01*
X176507476Y-62966624D01*
X176521452Y-62983655D01*
X176531840Y-63003091D01*
X176538236Y-63024172D01*
X176541000Y-63052240D01*
X176541000Y-63515960D01*
X176538236Y-63544028D01*
X176531840Y-63565109D01*
X176521452Y-63584545D01*
X176507476Y-63601576D01*
X176490445Y-63615552D01*
X176471009Y-63625940D01*
X176449928Y-63632336D01*
X176421860Y-63635100D01*
X174508140Y-63635100D01*
X174480072Y-63632336D01*
X174458991Y-63625940D01*
X174439555Y-63615552D01*
X174422524Y-63601576D01*
X174408548Y-63584545D01*
X174398160Y-63565109D01*
X174391764Y-63544028D01*
X174389000Y-63515960D01*
X174389000Y-63052240D01*
X174391764Y-63024172D01*
X174398160Y-63003091D01*
X174408548Y-62983655D01*
X174422524Y-62966624D01*
X174439555Y-62952648D01*
X174458991Y-62942260D01*
X174480072Y-62935864D01*
X174508140Y-62933100D01*
X176421860Y-62933100D01*
X176449928Y-62935864D01*
G37*
G36*
X167149928Y-62935864D02*
G01*
X167171009Y-62942260D01*
X167190445Y-62952648D01*
X167207476Y-62966624D01*
X167221452Y-62983655D01*
X167231840Y-63003091D01*
X167238236Y-63024172D01*
X167241000Y-63052240D01*
X167241000Y-63515960D01*
X167238236Y-63544028D01*
X167231840Y-63565109D01*
X167221452Y-63584545D01*
X167207476Y-63601576D01*
X167190445Y-63615552D01*
X167171009Y-63625940D01*
X167149928Y-63632336D01*
X167121860Y-63635100D01*
X165208140Y-63635100D01*
X165180072Y-63632336D01*
X165158991Y-63625940D01*
X165139555Y-63615552D01*
X165122524Y-63601576D01*
X165108548Y-63584545D01*
X165098160Y-63565109D01*
X165091764Y-63544028D01*
X165089000Y-63515960D01*
X165089000Y-63052240D01*
X165091764Y-63024172D01*
X165098160Y-63003091D01*
X165108548Y-62983655D01*
X165122524Y-62966624D01*
X165139555Y-62952648D01*
X165158991Y-62942260D01*
X165180072Y-62935864D01*
X165208140Y-62933100D01*
X167121860Y-62933100D01*
X167149928Y-62935864D01*
G37*
G36*
X159498591Y-62279585D02*
G01*
X159532569Y-62289893D01*
X159563890Y-62306634D01*
X159591339Y-62329161D01*
X159613866Y-62356610D01*
X159630607Y-62387931D01*
X159640915Y-62421909D01*
X159645000Y-62463390D01*
X159645000Y-63139610D01*
X159640915Y-63181091D01*
X159630607Y-63215069D01*
X159613866Y-63246390D01*
X159591339Y-63273839D01*
X159563890Y-63296366D01*
X159532569Y-63313107D01*
X159498591Y-63323415D01*
X159457110Y-63327500D01*
X158855890Y-63327500D01*
X158814409Y-63323415D01*
X158780431Y-63313107D01*
X158749110Y-63296366D01*
X158721661Y-63273839D01*
X158699134Y-63246390D01*
X158682393Y-63215069D01*
X158672085Y-63181091D01*
X158668000Y-63139610D01*
X158668000Y-62463390D01*
X158672085Y-62421909D01*
X158682393Y-62387931D01*
X158699134Y-62356610D01*
X158721661Y-62329161D01*
X158749110Y-62306634D01*
X158780431Y-62289893D01*
X158814409Y-62279585D01*
X158855890Y-62275500D01*
X159457110Y-62275500D01*
X159498591Y-62279585D01*
G37*
G36*
X164736500Y-63325700D02*
G01*
X163734500Y-63325700D01*
X163734500Y-62823700D01*
X164736500Y-62823700D01*
X164736500Y-63325700D01*
G37*
G36*
X163036500Y-63325700D02*
G01*
X162034500Y-63325700D01*
X162034500Y-62823700D01*
X163036500Y-62823700D01*
X163036500Y-63325700D01*
G37*
G36*
X154203400Y-62819280D02*
G01*
X152501600Y-62819280D01*
X152501600Y-60116720D01*
X154203400Y-60116720D01*
X154203400Y-62819280D01*
G37*
G36*
X176449928Y-61665864D02*
G01*
X176471009Y-61672260D01*
X176490445Y-61682648D01*
X176507476Y-61696624D01*
X176521452Y-61713655D01*
X176531840Y-61733091D01*
X176538236Y-61754172D01*
X176541000Y-61782240D01*
X176541000Y-62245960D01*
X176538236Y-62274028D01*
X176531840Y-62295109D01*
X176521452Y-62314545D01*
X176507476Y-62331576D01*
X176490445Y-62345552D01*
X176471009Y-62355940D01*
X176449928Y-62362336D01*
X176421860Y-62365100D01*
X174508140Y-62365100D01*
X174480072Y-62362336D01*
X174458991Y-62355940D01*
X174439555Y-62345552D01*
X174422524Y-62331576D01*
X174408548Y-62314545D01*
X174398160Y-62295109D01*
X174391764Y-62274028D01*
X174389000Y-62245960D01*
X174389000Y-61782240D01*
X174391764Y-61754172D01*
X174398160Y-61733091D01*
X174408548Y-61713655D01*
X174422524Y-61696624D01*
X174439555Y-61682648D01*
X174458991Y-61672260D01*
X174480072Y-61665864D01*
X174508140Y-61663100D01*
X176421860Y-61663100D01*
X176449928Y-61665864D01*
G37*
G36*
X167149928Y-61665864D02*
G01*
X167171009Y-61672260D01*
X167190445Y-61682648D01*
X167207476Y-61696624D01*
X167221452Y-61713655D01*
X167231840Y-61733091D01*
X167238236Y-61754172D01*
X167241000Y-61782240D01*
X167241000Y-62245960D01*
X167238236Y-62274028D01*
X167231840Y-62295109D01*
X167221452Y-62314545D01*
X167207476Y-62331576D01*
X167190445Y-62345552D01*
X167171009Y-62355940D01*
X167149928Y-62362336D01*
X167121860Y-62365100D01*
X165208140Y-62365100D01*
X165180072Y-62362336D01*
X165158991Y-62355940D01*
X165139555Y-62345552D01*
X165122524Y-62331576D01*
X165108548Y-62314545D01*
X165098160Y-62295109D01*
X165091764Y-62274028D01*
X165089000Y-62245960D01*
X165089000Y-61782240D01*
X165091764Y-61754172D01*
X165098160Y-61733091D01*
X165108548Y-61713655D01*
X165122524Y-61696624D01*
X165139555Y-61682648D01*
X165158991Y-61672260D01*
X165180072Y-61665864D01*
X165208140Y-61663100D01*
X167121860Y-61663100D01*
X167149928Y-61665864D01*
G37*
G36*
X159699554Y-58995862D02*
G01*
X159737565Y-59007393D01*
X159772589Y-59026113D01*
X159808066Y-59055229D01*
X159852823Y-59099986D01*
X159852829Y-59099991D01*
X161943509Y-61190671D01*
X161943514Y-61190677D01*
X161988271Y-61235434D01*
X162017387Y-61270911D01*
X162036107Y-61305935D01*
X162047638Y-61343946D01*
X162051531Y-61383475D01*
X162047638Y-61423004D01*
X162036107Y-61461015D01*
X162017387Y-61496039D01*
X161988271Y-61531516D01*
X161943514Y-61576273D01*
X161943509Y-61576279D01*
X161461497Y-62058291D01*
X161461491Y-62058296D01*
X161416734Y-62103053D01*
X161381257Y-62132169D01*
X161346233Y-62150889D01*
X161308222Y-62162420D01*
X161268693Y-62166313D01*
X161229164Y-62162420D01*
X161191153Y-62150889D01*
X161156129Y-62132169D01*
X161120652Y-62103053D01*
X161075895Y-62058296D01*
X161075889Y-62058291D01*
X158985209Y-59967611D01*
X158985204Y-59967605D01*
X158940447Y-59922848D01*
X158911331Y-59887371D01*
X158892611Y-59852347D01*
X158881080Y-59814336D01*
X158877187Y-59774807D01*
X158881080Y-59735278D01*
X158892611Y-59697267D01*
X158911331Y-59662243D01*
X158940447Y-59626766D01*
X158985204Y-59582009D01*
X158985209Y-59582003D01*
X159467221Y-59099991D01*
X159467227Y-59099986D01*
X159511984Y-59055229D01*
X159547461Y-59026113D01*
X159582485Y-59007393D01*
X159620496Y-58995862D01*
X159660025Y-58991969D01*
X159699554Y-58995862D01*
G37*
G36*
X178895913Y-61098438D02*
G01*
X178916532Y-61104693D01*
X178935528Y-61114846D01*
X178956949Y-61132426D01*
X179316674Y-61492151D01*
X179334254Y-61513572D01*
X179344407Y-61532568D01*
X179350662Y-61553187D01*
X179352773Y-61574625D01*
X179350662Y-61596063D01*
X179344407Y-61616682D01*
X179334254Y-61635678D01*
X179316674Y-61657099D01*
X178992305Y-61981468D01*
X178970884Y-61999048D01*
X178951888Y-62009201D01*
X178931269Y-62015456D01*
X178909831Y-62017567D01*
X178888393Y-62015456D01*
X178867774Y-62009201D01*
X178848778Y-61999048D01*
X178827357Y-61981468D01*
X178467632Y-61621743D01*
X178450052Y-61600322D01*
X178439899Y-61581326D01*
X178433644Y-61560707D01*
X178431533Y-61539269D01*
X178433644Y-61517831D01*
X178439899Y-61497212D01*
X178450052Y-61478216D01*
X178467632Y-61456795D01*
X178792001Y-61132426D01*
X178813422Y-61114846D01*
X178832418Y-61104693D01*
X178853037Y-61098438D01*
X178874475Y-61096327D01*
X178895913Y-61098438D01*
G37*
G36*
X159498591Y-60882585D02*
G01*
X159532569Y-60892893D01*
X159563890Y-60909634D01*
X159591339Y-60932161D01*
X159613866Y-60959610D01*
X159630607Y-60990931D01*
X159640915Y-61024909D01*
X159645000Y-61066390D01*
X159645000Y-61742610D01*
X159640915Y-61784091D01*
X159630607Y-61818069D01*
X159613866Y-61849390D01*
X159591339Y-61876839D01*
X159563890Y-61899366D01*
X159532569Y-61916107D01*
X159498591Y-61926415D01*
X159457110Y-61930500D01*
X158855890Y-61930500D01*
X158814409Y-61926415D01*
X158780431Y-61916107D01*
X158749110Y-61899366D01*
X158721661Y-61876839D01*
X158699134Y-61849390D01*
X158682393Y-61818069D01*
X158672085Y-61784091D01*
X158668000Y-61742610D01*
X158668000Y-61066390D01*
X158672085Y-61024909D01*
X158682393Y-60990931D01*
X158699134Y-60959610D01*
X158721661Y-60932161D01*
X158749110Y-60909634D01*
X158780431Y-60892893D01*
X158814409Y-60882585D01*
X158855890Y-60878500D01*
X159457110Y-60878500D01*
X159498591Y-60882585D01*
G37*
G36*
X178509362Y-60987318D02*
G01*
X177587988Y-61908692D01*
X176100858Y-60421562D01*
X177022232Y-59500188D01*
X178509362Y-60987318D01*
G37*
G36*
X188746700Y-61746700D02*
G01*
X186944700Y-61746700D01*
X186944700Y-59944700D01*
X188746700Y-59944700D01*
X188746700Y-61746700D01*
G37*
G36*
X164367113Y-60704738D02*
G01*
X164387732Y-60710993D01*
X164406728Y-60721146D01*
X164428149Y-60738726D01*
X164787874Y-61098451D01*
X164805454Y-61119872D01*
X164815607Y-61138868D01*
X164821862Y-61159487D01*
X164823973Y-61180925D01*
X164821862Y-61202363D01*
X164815607Y-61222982D01*
X164805454Y-61241978D01*
X164787874Y-61263399D01*
X164463505Y-61587768D01*
X164442084Y-61605348D01*
X164423088Y-61615501D01*
X164402469Y-61621756D01*
X164381031Y-61623867D01*
X164359593Y-61621756D01*
X164338974Y-61615501D01*
X164319978Y-61605348D01*
X164298557Y-61587768D01*
X163938832Y-61228043D01*
X163921252Y-61206622D01*
X163911099Y-61187626D01*
X163904844Y-61167007D01*
X163902733Y-61145569D01*
X163904844Y-61124131D01*
X163911099Y-61103512D01*
X163921252Y-61084516D01*
X163938832Y-61063095D01*
X164263201Y-60738726D01*
X164284622Y-60721146D01*
X164303618Y-60710993D01*
X164324237Y-60704738D01*
X164345675Y-60702627D01*
X164367113Y-60704738D01*
G37*
G36*
X179581807Y-60412544D02*
G01*
X179602426Y-60418799D01*
X179621422Y-60428952D01*
X179642843Y-60446532D01*
X180002568Y-60806257D01*
X180020148Y-60827678D01*
X180030301Y-60846674D01*
X180036556Y-60867293D01*
X180038667Y-60888731D01*
X180036556Y-60910169D01*
X180030301Y-60930788D01*
X180020148Y-60949784D01*
X180002568Y-60971205D01*
X179678199Y-61295574D01*
X179656778Y-61313154D01*
X179637782Y-61323307D01*
X179617163Y-61329562D01*
X179595725Y-61331673D01*
X179574287Y-61329562D01*
X179553668Y-61323307D01*
X179534672Y-61313154D01*
X179513251Y-61295574D01*
X179153526Y-60935849D01*
X179135946Y-60914428D01*
X179125793Y-60895432D01*
X179119538Y-60874813D01*
X179117427Y-60853375D01*
X179119538Y-60831937D01*
X179125793Y-60811318D01*
X179135946Y-60792322D01*
X179153526Y-60770901D01*
X179477895Y-60446532D01*
X179499316Y-60428952D01*
X179518312Y-60418799D01*
X179538931Y-60412544D01*
X179560369Y-60410433D01*
X179581807Y-60412544D01*
G37*
G36*
X166614800Y-61053700D02*
G01*
X166112800Y-61053700D01*
X166112800Y-60051700D01*
X166614800Y-60051700D01*
X166614800Y-61053700D01*
G37*
G36*
X168214800Y-61053700D02*
G01*
X167712800Y-61053700D01*
X167712800Y-60051700D01*
X168214800Y-60051700D01*
X168214800Y-61053700D01*
G37*
G36*
X167414800Y-61053700D02*
G01*
X166912800Y-61053700D01*
X166912800Y-60051700D01*
X167414800Y-60051700D01*
X167414800Y-61053700D01*
G37*
G36*
X169014800Y-61053700D02*
G01*
X168512800Y-61053700D01*
X168512800Y-60051700D01*
X169014800Y-60051700D01*
X169014800Y-61053700D01*
G37*
G36*
X165053007Y-60018844D02*
G01*
X165073626Y-60025099D01*
X165092622Y-60035252D01*
X165114043Y-60052832D01*
X165473768Y-60412557D01*
X165491348Y-60433978D01*
X165501501Y-60452974D01*
X165507756Y-60473593D01*
X165509867Y-60495031D01*
X165507756Y-60516469D01*
X165501501Y-60537088D01*
X165491348Y-60556084D01*
X165473768Y-60577505D01*
X165149399Y-60901874D01*
X165127978Y-60919454D01*
X165108982Y-60929607D01*
X165088363Y-60935862D01*
X165066925Y-60937973D01*
X165045487Y-60935862D01*
X165024868Y-60929607D01*
X165005872Y-60919454D01*
X164984451Y-60901874D01*
X164624726Y-60542149D01*
X164607146Y-60520728D01*
X164596993Y-60501732D01*
X164590738Y-60481113D01*
X164588627Y-60459675D01*
X164590738Y-60438237D01*
X164596993Y-60417618D01*
X164607146Y-60398622D01*
X164624726Y-60377201D01*
X164949095Y-60052832D01*
X164970516Y-60035252D01*
X164989512Y-60025099D01*
X165010131Y-60018844D01*
X165031569Y-60016733D01*
X165053007Y-60018844D01*
G37*
G36*
X174816563Y-59637938D02*
G01*
X174837182Y-59644193D01*
X174856178Y-59654346D01*
X174877599Y-59671926D01*
X175201968Y-59996295D01*
X175219548Y-60017716D01*
X175229701Y-60036712D01*
X175235956Y-60057331D01*
X175238067Y-60078769D01*
X175235956Y-60100207D01*
X175229701Y-60120826D01*
X175219548Y-60139822D01*
X175201968Y-60161243D01*
X174842243Y-60520968D01*
X174820822Y-60538548D01*
X174801826Y-60548701D01*
X174781207Y-60554956D01*
X174759769Y-60557067D01*
X174738331Y-60554956D01*
X174717712Y-60548701D01*
X174698716Y-60538548D01*
X174677295Y-60520968D01*
X174352926Y-60196599D01*
X174335346Y-60175178D01*
X174325193Y-60156182D01*
X174318938Y-60135563D01*
X174316827Y-60114125D01*
X174318938Y-60092687D01*
X174325193Y-60072068D01*
X174335346Y-60053072D01*
X174352926Y-60031651D01*
X174712651Y-59671926D01*
X174734072Y-59654346D01*
X174753068Y-59644193D01*
X174773687Y-59637938D01*
X174795125Y-59635827D01*
X174816563Y-59637938D01*
G37*
G36*
X172044977Y-59113555D02*
G01*
X172078955Y-59123863D01*
X172110276Y-59140604D01*
X172142490Y-59167042D01*
X172182341Y-59206893D01*
X172182347Y-59206898D01*
X172580802Y-59605353D01*
X172580807Y-59605359D01*
X172620658Y-59645210D01*
X172647096Y-59677424D01*
X172663837Y-59708745D01*
X172674145Y-59742723D01*
X172677625Y-59778064D01*
X172674145Y-59813405D01*
X172663837Y-59847383D01*
X172647096Y-59878704D01*
X172620658Y-59910918D01*
X172580807Y-59950769D01*
X172580802Y-59950775D01*
X172235381Y-60296196D01*
X172235375Y-60296201D01*
X172195524Y-60336052D01*
X172163310Y-60362490D01*
X172131989Y-60379231D01*
X172098011Y-60389539D01*
X172062670Y-60393019D01*
X172027329Y-60389539D01*
X171993351Y-60379231D01*
X171962030Y-60362490D01*
X171929816Y-60336052D01*
X171889965Y-60296201D01*
X171889959Y-60296196D01*
X171491504Y-59897741D01*
X171491499Y-59897735D01*
X171451648Y-59857884D01*
X171425210Y-59825670D01*
X171408469Y-59794349D01*
X171398161Y-59760371D01*
X171394681Y-59725030D01*
X171398161Y-59689689D01*
X171408469Y-59655711D01*
X171425210Y-59624390D01*
X171451648Y-59592176D01*
X171491499Y-59552325D01*
X171491504Y-59552319D01*
X171836925Y-59206898D01*
X171836931Y-59206893D01*
X171876782Y-59167042D01*
X171908996Y-59140604D01*
X171940317Y-59123863D01*
X171974295Y-59113555D01*
X172009636Y-59110075D01*
X172044977Y-59113555D01*
G37*
G36*
X180132992Y-59363688D02*
G01*
X179211618Y-60285062D01*
X177724488Y-58797932D01*
X178645862Y-57876558D01*
X180132992Y-59363688D01*
G37*
G36*
X174130669Y-58952044D02*
G01*
X174151288Y-58958299D01*
X174170284Y-58968452D01*
X174191705Y-58986032D01*
X174516074Y-59310401D01*
X174533654Y-59331822D01*
X174543807Y-59350818D01*
X174550062Y-59371437D01*
X174552173Y-59392875D01*
X174550062Y-59414313D01*
X174543807Y-59434932D01*
X174533654Y-59453928D01*
X174516074Y-59475349D01*
X174156349Y-59835074D01*
X174134928Y-59852654D01*
X174115932Y-59862807D01*
X174095313Y-59869062D01*
X174073875Y-59871173D01*
X174052437Y-59869062D01*
X174031818Y-59862807D01*
X174012822Y-59852654D01*
X173991401Y-59835074D01*
X173667032Y-59510705D01*
X173649452Y-59489284D01*
X173639299Y-59470288D01*
X173633044Y-59449669D01*
X173630933Y-59428231D01*
X173633044Y-59406793D01*
X173639299Y-59386174D01*
X173649452Y-59367178D01*
X173667032Y-59345757D01*
X174026757Y-58986032D01*
X174048178Y-58968452D01*
X174067174Y-58958299D01*
X174087793Y-58952044D01*
X174109231Y-58949933D01*
X174130669Y-58952044D01*
G37*
G36*
X166614800Y-59353700D02*
G01*
X166112800Y-59353700D01*
X166112800Y-58351700D01*
X166614800Y-58351700D01*
X166614800Y-59353700D01*
G37*
G36*
X169014800Y-59353700D02*
G01*
X168512800Y-59353700D01*
X168512800Y-58351700D01*
X169014800Y-58351700D01*
X169014800Y-59353700D01*
G37*
G36*
X167414800Y-59353700D02*
G01*
X166912800Y-59353700D01*
X166912800Y-58351700D01*
X167414800Y-58351700D01*
X167414800Y-59353700D01*
G37*
G36*
X168214800Y-59353700D02*
G01*
X167712800Y-59353700D01*
X167712800Y-58351700D01*
X168214800Y-58351700D01*
X168214800Y-59353700D01*
G37*
G36*
X175894312Y-58372268D02*
G01*
X174972938Y-59293642D01*
X173485808Y-57806512D01*
X174407182Y-56885138D01*
X175894312Y-58372268D01*
G37*
G36*
X171006563Y-58367938D02*
G01*
X171027182Y-58374193D01*
X171046178Y-58384346D01*
X171067599Y-58401926D01*
X171391968Y-58726295D01*
X171409548Y-58747716D01*
X171419701Y-58766712D01*
X171425956Y-58787331D01*
X171428067Y-58808769D01*
X171425956Y-58830207D01*
X171419701Y-58850826D01*
X171409548Y-58869822D01*
X171391968Y-58891243D01*
X171032243Y-59250968D01*
X171010822Y-59268548D01*
X170991826Y-59278701D01*
X170971207Y-59284956D01*
X170949769Y-59287067D01*
X170928331Y-59284956D01*
X170907712Y-59278701D01*
X170888716Y-59268548D01*
X170867295Y-59250968D01*
X170542926Y-58926599D01*
X170525346Y-58905178D01*
X170515193Y-58886182D01*
X170508938Y-58865563D01*
X170506827Y-58844125D01*
X170508938Y-58822687D01*
X170515193Y-58802068D01*
X170525346Y-58783072D01*
X170542926Y-58761651D01*
X170902651Y-58401926D01*
X170924072Y-58384346D01*
X170943068Y-58374193D01*
X170963687Y-58367938D01*
X170985125Y-58365827D01*
X171006563Y-58367938D01*
G37*
G36*
X173158671Y-57999861D02*
G01*
X173192649Y-58010169D01*
X173223970Y-58026910D01*
X173256184Y-58053348D01*
X173296035Y-58093199D01*
X173296041Y-58093204D01*
X173694496Y-58491659D01*
X173694501Y-58491665D01*
X173734352Y-58531516D01*
X173760790Y-58563730D01*
X173777531Y-58595051D01*
X173787839Y-58629029D01*
X173791319Y-58664370D01*
X173787839Y-58699711D01*
X173777531Y-58733689D01*
X173760790Y-58765010D01*
X173734352Y-58797224D01*
X173694501Y-58837075D01*
X173694496Y-58837081D01*
X173349075Y-59182502D01*
X173349069Y-59182507D01*
X173309218Y-59222358D01*
X173277004Y-59248796D01*
X173245683Y-59265537D01*
X173211705Y-59275845D01*
X173176364Y-59279325D01*
X173141023Y-59275845D01*
X173107045Y-59265537D01*
X173075724Y-59248796D01*
X173043510Y-59222358D01*
X173003659Y-59182507D01*
X173003653Y-59182502D01*
X172605198Y-58784047D01*
X172605193Y-58784041D01*
X172565342Y-58744190D01*
X172538904Y-58711976D01*
X172522163Y-58680655D01*
X172511855Y-58646677D01*
X172508375Y-58611336D01*
X172511855Y-58575995D01*
X172522163Y-58542017D01*
X172538904Y-58510696D01*
X172565342Y-58478482D01*
X172605193Y-58438631D01*
X172605198Y-58438625D01*
X172950619Y-58093204D01*
X172950625Y-58093199D01*
X172990476Y-58053348D01*
X173022690Y-58026910D01*
X173054011Y-58010169D01*
X173087989Y-57999861D01*
X173123330Y-57996381D01*
X173158671Y-57999861D01*
G37*
G36*
X162722436Y-55972980D02*
G01*
X162760447Y-55984511D01*
X162795471Y-56003231D01*
X162830948Y-56032347D01*
X162875705Y-56077104D01*
X162875711Y-56077109D01*
X164966391Y-58167789D01*
X164966396Y-58167795D01*
X165011153Y-58212552D01*
X165040269Y-58248029D01*
X165058989Y-58283053D01*
X165070520Y-58321064D01*
X165074413Y-58360593D01*
X165070520Y-58400122D01*
X165058989Y-58438133D01*
X165040269Y-58473157D01*
X165011153Y-58508634D01*
X164966396Y-58553391D01*
X164966391Y-58553397D01*
X164484379Y-59035409D01*
X164484373Y-59035414D01*
X164439616Y-59080171D01*
X164404139Y-59109287D01*
X164369115Y-59128007D01*
X164331104Y-59139538D01*
X164291575Y-59143431D01*
X164252046Y-59139538D01*
X164214035Y-59128007D01*
X164179011Y-59109287D01*
X164143534Y-59080171D01*
X164098777Y-59035414D01*
X164098771Y-59035409D01*
X162008091Y-56944729D01*
X162008086Y-56944723D01*
X161963329Y-56899966D01*
X161934213Y-56864489D01*
X161915493Y-56829465D01*
X161903962Y-56791454D01*
X161900069Y-56751925D01*
X161903962Y-56712396D01*
X161915493Y-56674385D01*
X161934213Y-56639361D01*
X161963329Y-56603884D01*
X162008086Y-56559127D01*
X162008091Y-56559121D01*
X162490103Y-56077109D01*
X162490109Y-56077104D01*
X162534866Y-56032347D01*
X162570343Y-56003231D01*
X162605367Y-55984511D01*
X162643378Y-55972980D01*
X162682907Y-55969087D01*
X162722436Y-55972980D01*
G37*
G36*
X154203400Y-58790840D02*
G01*
X152501600Y-58790840D01*
X152501600Y-56789320D01*
X154203400Y-56789320D01*
X154203400Y-58790840D01*
G37*
G36*
X170320669Y-57682044D02*
G01*
X170341288Y-57688299D01*
X170360284Y-57698452D01*
X170381705Y-57716032D01*
X170706074Y-58040401D01*
X170723654Y-58061822D01*
X170733807Y-58080818D01*
X170740062Y-58101437D01*
X170742173Y-58122875D01*
X170740062Y-58144313D01*
X170733807Y-58164932D01*
X170723654Y-58183928D01*
X170706074Y-58205349D01*
X170346349Y-58565074D01*
X170324928Y-58582654D01*
X170305932Y-58592807D01*
X170285313Y-58599062D01*
X170263875Y-58601173D01*
X170242437Y-58599062D01*
X170221818Y-58592807D01*
X170202822Y-58582654D01*
X170181401Y-58565074D01*
X169857032Y-58240705D01*
X169839452Y-58219284D01*
X169829299Y-58200288D01*
X169823044Y-58179669D01*
X169820933Y-58158231D01*
X169823044Y-58136793D01*
X169829299Y-58116174D01*
X169839452Y-58097178D01*
X169857032Y-58075757D01*
X170216757Y-57716032D01*
X170238178Y-57698452D01*
X170257174Y-57688299D01*
X170277793Y-57682044D01*
X170299231Y-57679933D01*
X170320669Y-57682044D01*
G37*
G36*
X164769238Y-51428471D02*
G01*
X164769244Y-51428476D01*
X165972727Y-52631959D01*
X165972732Y-52631965D01*
X166466294Y-53125527D01*
X166466300Y-53125532D01*
X167104098Y-53763330D01*
X167104103Y-53763336D01*
X167597665Y-54256898D01*
X167597671Y-54256903D01*
X168235469Y-54894701D01*
X168235474Y-54894707D01*
X168729036Y-55388269D01*
X168729042Y-55388274D01*
X169932525Y-56591757D01*
X169932530Y-56591763D01*
X170409827Y-57069060D01*
X169277042Y-58201845D01*
X169228187Y-58152990D01*
X169220126Y-58146374D01*
X169213510Y-58138313D01*
X168727627Y-57652430D01*
X168727622Y-57652424D01*
X167668375Y-56593177D01*
X167668369Y-56593172D01*
X167030571Y-55955374D01*
X167030566Y-55955368D01*
X166537004Y-55461806D01*
X166536998Y-55461801D01*
X165899200Y-54824003D01*
X165899195Y-54823997D01*
X165405633Y-54330435D01*
X165405627Y-54330430D01*
X164767829Y-53692632D01*
X164767824Y-53692626D01*
X163708577Y-52633379D01*
X163708571Y-52633374D01*
X163159155Y-52083958D01*
X164291940Y-50951173D01*
X164769238Y-51428471D01*
G37*
G36*
X178470845Y-52083958D02*
G01*
X177921424Y-52633379D01*
X177355738Y-53199064D01*
X176862177Y-53692626D01*
X173961626Y-56593177D01*
X173395940Y-57158862D01*
X172902379Y-57652424D01*
X172352958Y-58201845D01*
X171220173Y-57069060D01*
X171681206Y-56608027D01*
X171697471Y-56591763D01*
X171697480Y-56591752D01*
X172900954Y-55388278D01*
X172900965Y-55388269D01*
X172917230Y-55372005D01*
X172917229Y-55372004D01*
X173378262Y-54910971D01*
X173378263Y-54910972D01*
X173394527Y-54894707D01*
X173394536Y-54894696D01*
X174032325Y-54256907D01*
X174032336Y-54256898D01*
X174048601Y-54240634D01*
X174048600Y-54240633D01*
X174509633Y-53779600D01*
X174509634Y-53779601D01*
X174525898Y-53763336D01*
X174525907Y-53763325D01*
X175163696Y-53125536D01*
X175163707Y-53125527D01*
X175179972Y-53109263D01*
X175179971Y-53109262D01*
X175641004Y-52648229D01*
X175641005Y-52648230D01*
X175657269Y-52631965D01*
X175657278Y-52631954D01*
X176860752Y-51428480D01*
X176860763Y-51428471D01*
X176877027Y-51412206D01*
X177338060Y-50951173D01*
X178470845Y-52083958D01*
G37*
G36*
X160215635Y-57367018D02*
G01*
X159507114Y-58075539D01*
X158586461Y-57154886D01*
X159294982Y-56446365D01*
X160215635Y-57367018D01*
G37*
G36*
X166030813Y-56780438D02*
G01*
X166051432Y-56786693D01*
X166070428Y-56796846D01*
X166091849Y-56814426D01*
X166451574Y-57174151D01*
X166469154Y-57195572D01*
X166479307Y-57214568D01*
X166485562Y-57235187D01*
X166487673Y-57256625D01*
X166485562Y-57278063D01*
X166479307Y-57298682D01*
X166469154Y-57317678D01*
X166451574Y-57339099D01*
X166127205Y-57663468D01*
X166105784Y-57681048D01*
X166086788Y-57691201D01*
X166066169Y-57697456D01*
X166044731Y-57699567D01*
X166023293Y-57697456D01*
X166002674Y-57691201D01*
X165983678Y-57681048D01*
X165962257Y-57663468D01*
X165602532Y-57303743D01*
X165584952Y-57282322D01*
X165574799Y-57263326D01*
X165568544Y-57242707D01*
X165566433Y-57221269D01*
X165568544Y-57199831D01*
X165574799Y-57179212D01*
X165584952Y-57160216D01*
X165602532Y-57138795D01*
X165926901Y-56814426D01*
X165948322Y-56796846D01*
X165967318Y-56786693D01*
X165987937Y-56780438D01*
X166009375Y-56778327D01*
X166030813Y-56780438D01*
G37*
G36*
X177517942Y-56748638D02*
G01*
X176596568Y-57670012D01*
X175109438Y-56182882D01*
X176030812Y-55261508D01*
X177517942Y-56748638D01*
G37*
G36*
X180920776Y-55799436D02*
G01*
X180941857Y-55805832D01*
X180961293Y-55816220D01*
X180983090Y-55834108D01*
X181310995Y-56162013D01*
X181328883Y-56183810D01*
X181339271Y-56203246D01*
X181345667Y-56224327D01*
X181347826Y-56246255D01*
X181345667Y-56268183D01*
X181339271Y-56289264D01*
X181328883Y-56308700D01*
X181310995Y-56330497D01*
X180028496Y-57612996D01*
X180006699Y-57630884D01*
X179987263Y-57641272D01*
X179966182Y-57647668D01*
X179944254Y-57649827D01*
X179922326Y-57647668D01*
X179901245Y-57641272D01*
X179881809Y-57630884D01*
X179860012Y-57612996D01*
X179532107Y-57285091D01*
X179514219Y-57263294D01*
X179503831Y-57243858D01*
X179497435Y-57222777D01*
X179495276Y-57200849D01*
X179497435Y-57178921D01*
X179503831Y-57157840D01*
X179514219Y-57138404D01*
X179532107Y-57116607D01*
X180814606Y-55834108D01*
X180836403Y-55816220D01*
X180855839Y-55805832D01*
X180876920Y-55799436D01*
X180898848Y-55797277D01*
X180920776Y-55799436D01*
G37*
G36*
X166716707Y-56094544D02*
G01*
X166737326Y-56100799D01*
X166756322Y-56110952D01*
X166777743Y-56128532D01*
X167137468Y-56488257D01*
X167155048Y-56509678D01*
X167165201Y-56528674D01*
X167171456Y-56549293D01*
X167173567Y-56570731D01*
X167171456Y-56592169D01*
X167165201Y-56612788D01*
X167155048Y-56631784D01*
X167137468Y-56653205D01*
X166813099Y-56977574D01*
X166791678Y-56995154D01*
X166772682Y-57005307D01*
X166752063Y-57011562D01*
X166730625Y-57013673D01*
X166709187Y-57011562D01*
X166688568Y-57005307D01*
X166669572Y-56995154D01*
X166648151Y-56977574D01*
X166288426Y-56617849D01*
X166270846Y-56596428D01*
X166260693Y-56577432D01*
X166254438Y-56556813D01*
X166252327Y-56535375D01*
X166254438Y-56513937D01*
X166260693Y-56493318D01*
X166270846Y-56474322D01*
X166288426Y-56452901D01*
X166612795Y-56128532D01*
X166634216Y-56110952D01*
X166653212Y-56100799D01*
X166673831Y-56094544D01*
X166695269Y-56092433D01*
X166716707Y-56094544D01*
G37*
G36*
X159117106Y-55770294D02*
G01*
X157983798Y-56903602D01*
X156710398Y-55630202D01*
X157843706Y-54496894D01*
X159117106Y-55770294D01*
G37*
G36*
X165205313Y-55954938D02*
G01*
X165225932Y-55961193D01*
X165244928Y-55971346D01*
X165266349Y-55988926D01*
X165626074Y-56348651D01*
X165643654Y-56370072D01*
X165653807Y-56389068D01*
X165660062Y-56409687D01*
X165662173Y-56431125D01*
X165660062Y-56452563D01*
X165653807Y-56473182D01*
X165643654Y-56492178D01*
X165626074Y-56513599D01*
X165301705Y-56837968D01*
X165280284Y-56855548D01*
X165261288Y-56865701D01*
X165240669Y-56871956D01*
X165219231Y-56874067D01*
X165197793Y-56871956D01*
X165177174Y-56865701D01*
X165158178Y-56855548D01*
X165136757Y-56837968D01*
X164777032Y-56478243D01*
X164759452Y-56456822D01*
X164749299Y-56437826D01*
X164743044Y-56417207D01*
X164740933Y-56395769D01*
X164743044Y-56374331D01*
X164749299Y-56353712D01*
X164759452Y-56334716D01*
X164777032Y-56313295D01*
X165101401Y-55988926D01*
X165122822Y-55971346D01*
X165141818Y-55961193D01*
X165162437Y-55954938D01*
X165183875Y-55952827D01*
X165205313Y-55954938D01*
G37*
G36*
X180022751Y-54901410D02*
G01*
X180043832Y-54907806D01*
X180063268Y-54918194D01*
X180085065Y-54936082D01*
X180412970Y-55263987D01*
X180430858Y-55285784D01*
X180441246Y-55305220D01*
X180447642Y-55326301D01*
X180449801Y-55348229D01*
X180447642Y-55370157D01*
X180441246Y-55391238D01*
X180430858Y-55410674D01*
X180412970Y-55432471D01*
X179130471Y-56714970D01*
X179108674Y-56732858D01*
X179089238Y-56743246D01*
X179068157Y-56749642D01*
X179046229Y-56751801D01*
X179024301Y-56749642D01*
X179003220Y-56743246D01*
X178983784Y-56732858D01*
X178961987Y-56714970D01*
X178634082Y-56387065D01*
X178616194Y-56365268D01*
X178605806Y-56345832D01*
X178599410Y-56324751D01*
X178597251Y-56302823D01*
X178599410Y-56280895D01*
X178605806Y-56259814D01*
X178616194Y-56240378D01*
X178634082Y-56218581D01*
X179916581Y-54936082D01*
X179938378Y-54918194D01*
X179957814Y-54907806D01*
X179978895Y-54901410D01*
X180000823Y-54899251D01*
X180022751Y-54901410D01*
G37*
G36*
X165891207Y-55269044D02*
G01*
X165911826Y-55275299D01*
X165930822Y-55285452D01*
X165952243Y-55303032D01*
X166311968Y-55662757D01*
X166329548Y-55684178D01*
X166339701Y-55703174D01*
X166345956Y-55723793D01*
X166348067Y-55745231D01*
X166345956Y-55766669D01*
X166339701Y-55787288D01*
X166329548Y-55806284D01*
X166311968Y-55827705D01*
X165987599Y-56152074D01*
X165966178Y-56169654D01*
X165947182Y-56179807D01*
X165926563Y-56186062D01*
X165905125Y-56188173D01*
X165883687Y-56186062D01*
X165863068Y-56179807D01*
X165844072Y-56169654D01*
X165822651Y-56152074D01*
X165462926Y-55792349D01*
X165445346Y-55770928D01*
X165435193Y-55751932D01*
X165428938Y-55731313D01*
X165426827Y-55709875D01*
X165428938Y-55688437D01*
X165435193Y-55667818D01*
X165445346Y-55648822D01*
X165462926Y-55627401D01*
X165787295Y-55303032D01*
X165808716Y-55285452D01*
X165827712Y-55275299D01*
X165848331Y-55269044D01*
X165869769Y-55266933D01*
X165891207Y-55269044D01*
G37*
G36*
X179124725Y-54003384D02*
G01*
X179145806Y-54009780D01*
X179165242Y-54020168D01*
X179187039Y-54038056D01*
X179514944Y-54365961D01*
X179532832Y-54387758D01*
X179543220Y-54407194D01*
X179549616Y-54428275D01*
X179551775Y-54450203D01*
X179549616Y-54472131D01*
X179543220Y-54493212D01*
X179532832Y-54512648D01*
X179514944Y-54534445D01*
X178232445Y-55816944D01*
X178210648Y-55834832D01*
X178191212Y-55845220D01*
X178170131Y-55851616D01*
X178148203Y-55853775D01*
X178126275Y-55851616D01*
X178105194Y-55845220D01*
X178085758Y-55834832D01*
X178063961Y-55816944D01*
X177736056Y-55489039D01*
X177718168Y-55467242D01*
X177707780Y-55447806D01*
X177701384Y-55426725D01*
X177699225Y-55404797D01*
X177701384Y-55382869D01*
X177707780Y-55361788D01*
X177718168Y-55342352D01*
X177736056Y-55320555D01*
X179018555Y-54038056D01*
X179040352Y-54020168D01*
X179059788Y-54009780D01*
X179080869Y-54003384D01*
X179102797Y-54001225D01*
X179124725Y-54003384D01*
G37*
G36*
X162549087Y-55033566D02*
G01*
X161840566Y-55742087D01*
X160919913Y-54821434D01*
X161628434Y-54112913D01*
X162549087Y-55033566D01*
G37*
G36*
X187476700Y-55625300D02*
G01*
X185674700Y-55625300D01*
X185674700Y-53823300D01*
X187476700Y-53823300D01*
X187476700Y-55625300D01*
G37*
G36*
X178226699Y-53105359D02*
G01*
X178247780Y-53111755D01*
X178267216Y-53122143D01*
X178289013Y-53140031D01*
X178616918Y-53467936D01*
X178634806Y-53489733D01*
X178645194Y-53509169D01*
X178651590Y-53530250D01*
X178653749Y-53552178D01*
X178651590Y-53574106D01*
X178645194Y-53595187D01*
X178634806Y-53614623D01*
X178616918Y-53636420D01*
X177334419Y-54918919D01*
X177312622Y-54936807D01*
X177293186Y-54947195D01*
X177272105Y-54953591D01*
X177250177Y-54955750D01*
X177228249Y-54953591D01*
X177207168Y-54947195D01*
X177187732Y-54936807D01*
X177165935Y-54918919D01*
X176838030Y-54591014D01*
X176820142Y-54569217D01*
X176809754Y-54549781D01*
X176803358Y-54528700D01*
X176801199Y-54506772D01*
X176803358Y-54484844D01*
X176809754Y-54463763D01*
X176820142Y-54444327D01*
X176838030Y-54422530D01*
X178120529Y-53140031D01*
X178142326Y-53122143D01*
X178161762Y-53111755D01*
X178182843Y-53105359D01*
X178204771Y-53103200D01*
X178226699Y-53105359D01*
G37*
G36*
X161096354Y-53791046D02*
G01*
X159963046Y-54924354D01*
X158689646Y-53650954D01*
X159822954Y-52517646D01*
X161096354Y-53791046D01*
G37*
G36*
X162902814Y-52443355D02*
G01*
X162931501Y-52452057D01*
X162957931Y-52466185D01*
X162985869Y-52489112D01*
X163371047Y-52874290D01*
X163393974Y-52902228D01*
X163408102Y-52928658D01*
X163416804Y-52957345D01*
X163419741Y-52987172D01*
X163415916Y-53026016D01*
X163415916Y-53050520D01*
X163420697Y-53074553D01*
X163430074Y-53097192D01*
X163443688Y-53117566D01*
X163461015Y-53134893D01*
X163481390Y-53148507D01*
X163504029Y-53157884D01*
X163528062Y-53162664D01*
X163552564Y-53162664D01*
X163591407Y-53158839D01*
X163621234Y-53161776D01*
X163649921Y-53170478D01*
X163676351Y-53184606D01*
X163704289Y-53207533D01*
X164089467Y-53592711D01*
X164112394Y-53620649D01*
X164126522Y-53647079D01*
X164135224Y-53675766D01*
X164138161Y-53705592D01*
X164135224Y-53735418D01*
X164126522Y-53764105D01*
X164112394Y-53790535D01*
X164089467Y-53818473D01*
X163165473Y-54742467D01*
X163137535Y-54765394D01*
X163111105Y-54779522D01*
X163082418Y-54788224D01*
X163052592Y-54791161D01*
X163022766Y-54788224D01*
X162994079Y-54779522D01*
X162967649Y-54765394D01*
X162939711Y-54742467D01*
X162554533Y-54357289D01*
X162531606Y-54329351D01*
X162517478Y-54302921D01*
X162508776Y-54274234D01*
X162505839Y-54244407D01*
X162509664Y-54205563D01*
X162509664Y-54181059D01*
X162504883Y-54157026D01*
X162495506Y-54134387D01*
X162481892Y-54114013D01*
X162464565Y-54096686D01*
X162444190Y-54083072D01*
X162421551Y-54073695D01*
X162397518Y-54068915D01*
X162373016Y-54068915D01*
X162334173Y-54072740D01*
X162304346Y-54069803D01*
X162275659Y-54061101D01*
X162249229Y-54046973D01*
X162221291Y-54024046D01*
X161836113Y-53638868D01*
X161813186Y-53610930D01*
X161799058Y-53584500D01*
X161790356Y-53555813D01*
X161787419Y-53525987D01*
X161790356Y-53496161D01*
X161799058Y-53467474D01*
X161813186Y-53441044D01*
X161836113Y-53413106D01*
X162760107Y-52489112D01*
X162788045Y-52466185D01*
X162814475Y-52452057D01*
X162843162Y-52443355D01*
X162872988Y-52440418D01*
X162902814Y-52443355D01*
G37*
G36*
X184420955Y-52299257D02*
G01*
X184442036Y-52305653D01*
X184461472Y-52316041D01*
X184483269Y-52333929D01*
X184811174Y-52661834D01*
X184829062Y-52683631D01*
X184839450Y-52703067D01*
X184845846Y-52724148D01*
X184848005Y-52746076D01*
X184845846Y-52768004D01*
X184839450Y-52789085D01*
X184829062Y-52808521D01*
X184811174Y-52830318D01*
X183528675Y-54112817D01*
X183506878Y-54130705D01*
X183487442Y-54141093D01*
X183466361Y-54147489D01*
X183444433Y-54149648D01*
X183422505Y-54147489D01*
X183401424Y-54141093D01*
X183381988Y-54130705D01*
X183360191Y-54112817D01*
X183032286Y-53784912D01*
X183014398Y-53763115D01*
X183004010Y-53743679D01*
X182997614Y-53722598D01*
X182995455Y-53700670D01*
X182997614Y-53678742D01*
X183004010Y-53657661D01*
X183014398Y-53638225D01*
X183032286Y-53616428D01*
X184314785Y-52333929D01*
X184336582Y-52316041D01*
X184356018Y-52305653D01*
X184377099Y-52299257D01*
X184399027Y-52297098D01*
X184420955Y-52299257D01*
G37*
G36*
X157199900Y-53910800D02*
G01*
X155397900Y-53910800D01*
X155397900Y-52108800D01*
X157199900Y-52108800D01*
X157199900Y-53910800D01*
G37*
G36*
X183522929Y-51401232D02*
G01*
X183544010Y-51407628D01*
X183563446Y-51418016D01*
X183585243Y-51435904D01*
X183913148Y-51763809D01*
X183931036Y-51785606D01*
X183941424Y-51805042D01*
X183947820Y-51826123D01*
X183949979Y-51848051D01*
X183947820Y-51869979D01*
X183941424Y-51891060D01*
X183931036Y-51910496D01*
X183913148Y-51932293D01*
X182630649Y-53214792D01*
X182608852Y-53232680D01*
X182589416Y-53243068D01*
X182568335Y-53249464D01*
X182546407Y-53251623D01*
X182524479Y-53249464D01*
X182503398Y-53243068D01*
X182483962Y-53232680D01*
X182462165Y-53214792D01*
X182134260Y-52886887D01*
X182116372Y-52865090D01*
X182105984Y-52845654D01*
X182099588Y-52824573D01*
X182097429Y-52802645D01*
X182099588Y-52780717D01*
X182105984Y-52759636D01*
X182116372Y-52740200D01*
X182134260Y-52718403D01*
X183416759Y-51435904D01*
X183438556Y-51418016D01*
X183457992Y-51407628D01*
X183479073Y-51401232D01*
X183501001Y-51399073D01*
X183522929Y-51401232D01*
G37*
G36*
X160906521Y-50879664D02*
G01*
X160906521Y-50879665D01*
X161046613Y-51019757D01*
X161046613Y-51019756D01*
X161578244Y-51551387D01*
X161578244Y-51551388D01*
X161718336Y-51691480D01*
X161718336Y-51691479D01*
X162249967Y-52223110D01*
X161258546Y-53214531D01*
X160726915Y-52682900D01*
X160726916Y-52682900D01*
X160586824Y-52542808D01*
X160586823Y-52542808D01*
X160055192Y-52011177D01*
X160055193Y-52011177D01*
X159915101Y-51871085D01*
X159915100Y-51871085D01*
X159383469Y-51339454D01*
X160374890Y-50348033D01*
X160906521Y-50879664D01*
G37*
G36*
X186689212Y-51288227D02*
G01*
X186838512Y-51317924D01*
X187002484Y-51385844D01*
X187150054Y-51484447D01*
X187275553Y-51609946D01*
X187374156Y-51757516D01*
X187442076Y-51921488D01*
X187463404Y-52028716D01*
X187474393Y-52083958D01*
X187476700Y-52095559D01*
X187476700Y-52273041D01*
X187442076Y-52447112D01*
X187374156Y-52611084D01*
X187275553Y-52758654D01*
X187150054Y-52884153D01*
X187002484Y-52982756D01*
X186838512Y-53050676D01*
X186689212Y-53080373D01*
X186664442Y-53085300D01*
X186486958Y-53085300D01*
X186462188Y-53080373D01*
X186312888Y-53050676D01*
X186148916Y-52982756D01*
X186001346Y-52884153D01*
X185875847Y-52758654D01*
X185777244Y-52611084D01*
X185709324Y-52447112D01*
X185674700Y-52273041D01*
X185674700Y-52095559D01*
X185677008Y-52083958D01*
X185687996Y-52028716D01*
X185709324Y-51921488D01*
X185777244Y-51757516D01*
X185875847Y-51609946D01*
X186001346Y-51484447D01*
X186148916Y-51385844D01*
X186312888Y-51317924D01*
X186462188Y-51288227D01*
X186486958Y-51283300D01*
X186664442Y-51283300D01*
X186689212Y-51288227D01*
G37*
G36*
X182624903Y-50503206D02*
G01*
X182645984Y-50509602D01*
X182665420Y-50519990D01*
X182687217Y-50537878D01*
X183015122Y-50865783D01*
X183033010Y-50887580D01*
X183043398Y-50907016D01*
X183049794Y-50928097D01*
X183051953Y-50950025D01*
X183049794Y-50971953D01*
X183043398Y-50993034D01*
X183033010Y-51012470D01*
X183015122Y-51034267D01*
X181732623Y-52316766D01*
X181710826Y-52334654D01*
X181691390Y-52345042D01*
X181670309Y-52351438D01*
X181648381Y-52353597D01*
X181626453Y-52351438D01*
X181605372Y-52345042D01*
X181585936Y-52334654D01*
X181564139Y-52316766D01*
X181236234Y-51988861D01*
X181218346Y-51967064D01*
X181207958Y-51947628D01*
X181201562Y-51926547D01*
X181199403Y-51904619D01*
X181201562Y-51882691D01*
X181207958Y-51861610D01*
X181218346Y-51842174D01*
X181236234Y-51820377D01*
X182518733Y-50537878D01*
X182540530Y-50519990D01*
X182559966Y-50509602D01*
X182581047Y-50503206D01*
X182602975Y-50501047D01*
X182624903Y-50503206D01*
G37*
G36*
X178775977Y-50401355D02*
G01*
X178809955Y-50411663D01*
X178841276Y-50428404D01*
X178873490Y-50454842D01*
X178913341Y-50494693D01*
X178913347Y-50494698D01*
X179311802Y-50893153D01*
X179311807Y-50893159D01*
X179351658Y-50933010D01*
X179378096Y-50965224D01*
X179394837Y-50996545D01*
X179405145Y-51030523D01*
X179408625Y-51065864D01*
X179405145Y-51101205D01*
X179394837Y-51135183D01*
X179378096Y-51166504D01*
X179351658Y-51198718D01*
X179311807Y-51238569D01*
X179311802Y-51238575D01*
X178966381Y-51583996D01*
X178966375Y-51584001D01*
X178926524Y-51623852D01*
X178894310Y-51650290D01*
X178862989Y-51667031D01*
X178829011Y-51677339D01*
X178793670Y-51680819D01*
X178758329Y-51677339D01*
X178724351Y-51667031D01*
X178693030Y-51650290D01*
X178660816Y-51623852D01*
X178620965Y-51584001D01*
X178620959Y-51583996D01*
X178222504Y-51185541D01*
X178222499Y-51185535D01*
X178182648Y-51145684D01*
X178156210Y-51113470D01*
X178139469Y-51082149D01*
X178129161Y-51048171D01*
X178125681Y-51012830D01*
X178129161Y-50977489D01*
X178139469Y-50943511D01*
X178156210Y-50912190D01*
X178182648Y-50879976D01*
X178222499Y-50840125D01*
X178222504Y-50840119D01*
X178567925Y-50494698D01*
X178567931Y-50494693D01*
X178607782Y-50454842D01*
X178639996Y-50428404D01*
X178671317Y-50411663D01*
X178705295Y-50401355D01*
X178740636Y-50397875D01*
X178775977Y-50401355D01*
G37*
G36*
X181726878Y-49605180D02*
G01*
X181747959Y-49611576D01*
X181767395Y-49621964D01*
X181789192Y-49639852D01*
X182117097Y-49967757D01*
X182134985Y-49989554D01*
X182145373Y-50008990D01*
X182151769Y-50030071D01*
X182153928Y-50051999D01*
X182151769Y-50073927D01*
X182145373Y-50095008D01*
X182134985Y-50114444D01*
X182117097Y-50136241D01*
X180834598Y-51418740D01*
X180812801Y-51436628D01*
X180793365Y-51447016D01*
X180772284Y-51453412D01*
X180750356Y-51455571D01*
X180728428Y-51453412D01*
X180707347Y-51447016D01*
X180687911Y-51436628D01*
X180666114Y-51418740D01*
X180338209Y-51090835D01*
X180320321Y-51069038D01*
X180309933Y-51049602D01*
X180303537Y-51028521D01*
X180301378Y-51006593D01*
X180303537Y-50984665D01*
X180309933Y-50963584D01*
X180320321Y-50944148D01*
X180338209Y-50922351D01*
X181620708Y-49639852D01*
X181642505Y-49621964D01*
X181661941Y-49611576D01*
X181683022Y-49605180D01*
X181704950Y-49603021D01*
X181726878Y-49605180D01*
G37*
G36*
X164085531Y-50387546D02*
G01*
X163094110Y-51378967D01*
X162562479Y-50847336D01*
X163553900Y-49855915D01*
X164085531Y-50387546D01*
G37*
G36*
X156412412Y-49573727D02*
G01*
X156561712Y-49603424D01*
X156725684Y-49671344D01*
X156873254Y-49769947D01*
X156998753Y-49895446D01*
X157097356Y-50043016D01*
X157165276Y-50206988D01*
X157199900Y-50381059D01*
X157199900Y-50558541D01*
X157165276Y-50732612D01*
X157097356Y-50896584D01*
X156998753Y-51044154D01*
X156873254Y-51169653D01*
X156725684Y-51268256D01*
X156561712Y-51336176D01*
X156412412Y-51365873D01*
X156387642Y-51370800D01*
X156210158Y-51370800D01*
X156185388Y-51365873D01*
X156036088Y-51336176D01*
X155872116Y-51268256D01*
X155724546Y-51169653D01*
X155599047Y-51044154D01*
X155500444Y-50896584D01*
X155432524Y-50732612D01*
X155397900Y-50558541D01*
X155397900Y-50381059D01*
X155432524Y-50206988D01*
X155500444Y-50043016D01*
X155599047Y-49895446D01*
X155724546Y-49769947D01*
X155872116Y-49671344D01*
X156036088Y-49603424D01*
X156185388Y-49573727D01*
X156210158Y-49568800D01*
X156387642Y-49568800D01*
X156412412Y-49573727D01*
G37*
G36*
X179889671Y-49287661D02*
G01*
X179923649Y-49297969D01*
X179954970Y-49314710D01*
X179987184Y-49341148D01*
X180027035Y-49380999D01*
X180027041Y-49381004D01*
X180425496Y-49779459D01*
X180425501Y-49779465D01*
X180465352Y-49819316D01*
X180491790Y-49851530D01*
X180508531Y-49882851D01*
X180518839Y-49916829D01*
X180522319Y-49952170D01*
X180518839Y-49987511D01*
X180508531Y-50021489D01*
X180491790Y-50052810D01*
X180465352Y-50085024D01*
X180425501Y-50124875D01*
X180425496Y-50124881D01*
X180080075Y-50470302D01*
X180080069Y-50470307D01*
X180040218Y-50510158D01*
X180008004Y-50536596D01*
X179976683Y-50553337D01*
X179942705Y-50563645D01*
X179907364Y-50567125D01*
X179872023Y-50563645D01*
X179838045Y-50553337D01*
X179806724Y-50536596D01*
X179774510Y-50510158D01*
X179734659Y-50470307D01*
X179734653Y-50470302D01*
X179336198Y-50071847D01*
X179336193Y-50071841D01*
X179296342Y-50031990D01*
X179269904Y-49999776D01*
X179253163Y-49968455D01*
X179242855Y-49934477D01*
X179239375Y-49899136D01*
X179242855Y-49863795D01*
X179253163Y-49829817D01*
X179269904Y-49798496D01*
X179296342Y-49766282D01*
X179336193Y-49726431D01*
X179336198Y-49726425D01*
X179681619Y-49381004D01*
X179681625Y-49380999D01*
X179721476Y-49341148D01*
X179753690Y-49314710D01*
X179785011Y-49297969D01*
X179818989Y-49287661D01*
X179854330Y-49284181D01*
X179889671Y-49287661D01*
G37*
G36*
X172902374Y-43439571D02*
G01*
X172902379Y-43439577D01*
X173961626Y-44498824D01*
X173961632Y-44498829D01*
X174599430Y-45136627D01*
X174599435Y-45136633D01*
X175092997Y-45630195D01*
X175093003Y-45630200D01*
X175730801Y-46267998D01*
X175730806Y-46268004D01*
X176224368Y-46761566D01*
X176224374Y-46761571D01*
X176862172Y-47399369D01*
X176862177Y-47399375D01*
X177921424Y-48458622D01*
X177921430Y-48458627D01*
X178470845Y-49008042D01*
X177338060Y-50140827D01*
X176860763Y-49663530D01*
X176860757Y-49663525D01*
X175657274Y-48460042D01*
X175657269Y-48460036D01*
X175163707Y-47966474D01*
X175163701Y-47966469D01*
X174525903Y-47328671D01*
X174525898Y-47328665D01*
X174032336Y-46835103D01*
X174032330Y-46835098D01*
X173394532Y-46197300D01*
X173394527Y-46197294D01*
X172900965Y-45703732D01*
X172900959Y-45703727D01*
X171697476Y-44500244D01*
X171697471Y-44500238D01*
X171220173Y-44022940D01*
X172352958Y-42890155D01*
X172902374Y-43439571D01*
G37*
G36*
X170409827Y-44022940D02*
G01*
X169932530Y-44500238D01*
X164769238Y-49663530D01*
X164291940Y-50140827D01*
X163159155Y-49008042D01*
X163708566Y-48458631D01*
X163708577Y-48458622D01*
X163724841Y-48442357D01*
X164751559Y-47415639D01*
X164767824Y-47399375D01*
X164767833Y-47399364D01*
X165405622Y-46761575D01*
X165405633Y-46761566D01*
X165421898Y-46745302D01*
X165421897Y-46745301D01*
X165882930Y-46284268D01*
X165882931Y-46284269D01*
X165899195Y-46268004D01*
X165899204Y-46267993D01*
X166536993Y-45630204D01*
X166537004Y-45630195D01*
X166553269Y-45613931D01*
X166553268Y-45613930D01*
X167014301Y-45152897D01*
X167014302Y-45152898D01*
X167030566Y-45136633D01*
X167030575Y-45136622D01*
X167668364Y-44498833D01*
X167668375Y-44498824D01*
X167684639Y-44482559D01*
X168711357Y-43455841D01*
X168727622Y-43439577D01*
X168727631Y-43439566D01*
X169277042Y-42890155D01*
X170409827Y-44022940D01*
G37*
G36*
X162742085Y-49044100D02*
G01*
X161750664Y-50035521D01*
X161219033Y-49503890D01*
X162210454Y-48512469D01*
X162742085Y-49044100D01*
G37*
G36*
X179161391Y-46986215D02*
G01*
X179200061Y-46997946D01*
X179235700Y-47016996D01*
X179271706Y-47046545D01*
X179311556Y-47086395D01*
X179311562Y-47086400D01*
X179692339Y-47467177D01*
X179692344Y-47467183D01*
X179732194Y-47507033D01*
X179761743Y-47543039D01*
X179780793Y-47578678D01*
X179792524Y-47617348D01*
X179796484Y-47657566D01*
X179792524Y-47697784D01*
X179780793Y-47736454D01*
X179761743Y-47772093D01*
X179732194Y-47808099D01*
X179692344Y-47847949D01*
X179692339Y-47847955D01*
X179011042Y-48529252D01*
X179011036Y-48529257D01*
X178971186Y-48569107D01*
X178935180Y-48598656D01*
X178899541Y-48617706D01*
X178860871Y-48629437D01*
X178820653Y-48633397D01*
X178780435Y-48629437D01*
X178741765Y-48617706D01*
X178706126Y-48598656D01*
X178670120Y-48569107D01*
X178630270Y-48529257D01*
X178630264Y-48529252D01*
X178249487Y-48148475D01*
X178249482Y-48148469D01*
X178209632Y-48108619D01*
X178180083Y-48072613D01*
X178161033Y-48036974D01*
X178149302Y-47998304D01*
X178145342Y-47958086D01*
X178149302Y-47917868D01*
X178161033Y-47879198D01*
X178180083Y-47843559D01*
X178209632Y-47807553D01*
X178249482Y-47767703D01*
X178249487Y-47767697D01*
X178930784Y-47086400D01*
X178930790Y-47086395D01*
X178970640Y-47046545D01*
X179006646Y-47016996D01*
X179042285Y-46997946D01*
X179080955Y-46986215D01*
X179121173Y-46982255D01*
X179161391Y-46986215D01*
G37*
G36*
X163363813Y-47255438D02*
G01*
X163384432Y-47261693D01*
X163403428Y-47271846D01*
X163424849Y-47289426D01*
X163784574Y-47649151D01*
X163802154Y-47670572D01*
X163812307Y-47689568D01*
X163818562Y-47710187D01*
X163820673Y-47731625D01*
X163818562Y-47753063D01*
X163812307Y-47773682D01*
X163802154Y-47792678D01*
X163784574Y-47814099D01*
X163460205Y-48138468D01*
X163438784Y-48156048D01*
X163419788Y-48166201D01*
X163399169Y-48172456D01*
X163377731Y-48174567D01*
X163356293Y-48172456D01*
X163335674Y-48166201D01*
X163316678Y-48156048D01*
X163295257Y-48138468D01*
X162935532Y-47778743D01*
X162917952Y-47757322D01*
X162907799Y-47738326D01*
X162901544Y-47717707D01*
X162899433Y-47696269D01*
X162901544Y-47674831D01*
X162907799Y-47654212D01*
X162917952Y-47635216D01*
X162935532Y-47613795D01*
X163259901Y-47289426D01*
X163281322Y-47271846D01*
X163300318Y-47261693D01*
X163320937Y-47255438D01*
X163342375Y-47253327D01*
X163363813Y-47255438D01*
G37*
G36*
X164049707Y-46569544D02*
G01*
X164070326Y-46575799D01*
X164089322Y-46585952D01*
X164110743Y-46603532D01*
X164470468Y-46963257D01*
X164488048Y-46984678D01*
X164498201Y-47003674D01*
X164504456Y-47024293D01*
X164506567Y-47045731D01*
X164504456Y-47067169D01*
X164498201Y-47087788D01*
X164488048Y-47106784D01*
X164470468Y-47128205D01*
X164146099Y-47452574D01*
X164124678Y-47470154D01*
X164105682Y-47480307D01*
X164085063Y-47486562D01*
X164063625Y-47488673D01*
X164042187Y-47486562D01*
X164021568Y-47480307D01*
X164002572Y-47470154D01*
X163981151Y-47452574D01*
X163621426Y-47092849D01*
X163603846Y-47071428D01*
X163593693Y-47052432D01*
X163587438Y-47031813D01*
X163585327Y-47010375D01*
X163587438Y-46988937D01*
X163593693Y-46968318D01*
X163603846Y-46949322D01*
X163621426Y-46927901D01*
X163945795Y-46603532D01*
X163967216Y-46585952D01*
X163986212Y-46575799D01*
X164006831Y-46569544D01*
X164028269Y-46567433D01*
X164049707Y-46569544D01*
G37*
G36*
X162614513Y-46518838D02*
G01*
X162635132Y-46525093D01*
X162654128Y-46535246D01*
X162675549Y-46552826D01*
X163035274Y-46912551D01*
X163052854Y-46933972D01*
X163063007Y-46952968D01*
X163069262Y-46973587D01*
X163071373Y-46995025D01*
X163069262Y-47016463D01*
X163063007Y-47037082D01*
X163052854Y-47056078D01*
X163035274Y-47077499D01*
X162710905Y-47401868D01*
X162689484Y-47419448D01*
X162670488Y-47429601D01*
X162649869Y-47435856D01*
X162628431Y-47437967D01*
X162606993Y-47435856D01*
X162586374Y-47429601D01*
X162567378Y-47419448D01*
X162545957Y-47401868D01*
X162186232Y-47042143D01*
X162168652Y-47020722D01*
X162158499Y-47001726D01*
X162152244Y-46981107D01*
X162150133Y-46959669D01*
X162152244Y-46938231D01*
X162158499Y-46917612D01*
X162168652Y-46898616D01*
X162186232Y-46877195D01*
X162510601Y-46552826D01*
X162532022Y-46535246D01*
X162551018Y-46525093D01*
X162571637Y-46518838D01*
X162593075Y-46516727D01*
X162614513Y-46518838D01*
G37*
G36*
X177835565Y-45660389D02*
G01*
X177874235Y-45672120D01*
X177909874Y-45691170D01*
X177945880Y-45720719D01*
X177985730Y-45760569D01*
X177985736Y-45760574D01*
X178366513Y-46141351D01*
X178366518Y-46141357D01*
X178406368Y-46181207D01*
X178435917Y-46217213D01*
X178454967Y-46252852D01*
X178466698Y-46291522D01*
X178470658Y-46331740D01*
X178466698Y-46371958D01*
X178454967Y-46410628D01*
X178435917Y-46446267D01*
X178406368Y-46482273D01*
X178366518Y-46522123D01*
X178366513Y-46522129D01*
X177685216Y-47203426D01*
X177685210Y-47203431D01*
X177645360Y-47243281D01*
X177609354Y-47272830D01*
X177573715Y-47291880D01*
X177535045Y-47303611D01*
X177494827Y-47307571D01*
X177454609Y-47303611D01*
X177415939Y-47291880D01*
X177380300Y-47272830D01*
X177344294Y-47243281D01*
X177304444Y-47203431D01*
X177304438Y-47203426D01*
X176923661Y-46822649D01*
X176923656Y-46822643D01*
X176883806Y-46782793D01*
X176854257Y-46746787D01*
X176835207Y-46711148D01*
X176823476Y-46672478D01*
X176819516Y-46632260D01*
X176823476Y-46592042D01*
X176835207Y-46553372D01*
X176854257Y-46517733D01*
X176883806Y-46481727D01*
X176923656Y-46441877D01*
X176923661Y-46441871D01*
X177604958Y-45760574D01*
X177604964Y-45760569D01*
X177644814Y-45720719D01*
X177680820Y-45691170D01*
X177716459Y-45672120D01*
X177755129Y-45660389D01*
X177795347Y-45656429D01*
X177835565Y-45660389D01*
G37*
G36*
X166113830Y-45662070D02*
G01*
X164980522Y-46795378D01*
X163707122Y-45521978D01*
X164840430Y-44388670D01*
X166113830Y-45662070D01*
G37*
G36*
X163300407Y-45832944D02*
G01*
X163321026Y-45839199D01*
X163340022Y-45849352D01*
X163361443Y-45866932D01*
X163721168Y-46226657D01*
X163738748Y-46248078D01*
X163748901Y-46267074D01*
X163755156Y-46287693D01*
X163757267Y-46309131D01*
X163755156Y-46330569D01*
X163748901Y-46351188D01*
X163738748Y-46370184D01*
X163721168Y-46391605D01*
X163396799Y-46715974D01*
X163375378Y-46733554D01*
X163356382Y-46743707D01*
X163335763Y-46749962D01*
X163314325Y-46752073D01*
X163292887Y-46749962D01*
X163272268Y-46743707D01*
X163253272Y-46733554D01*
X163231851Y-46715974D01*
X162872126Y-46356249D01*
X162854546Y-46334828D01*
X162844393Y-46315832D01*
X162838138Y-46295213D01*
X162836027Y-46273775D01*
X162838138Y-46252337D01*
X162844393Y-46231718D01*
X162854546Y-46212722D01*
X162872126Y-46191301D01*
X163196495Y-45866932D01*
X163217916Y-45849352D01*
X163236912Y-45839199D01*
X163257531Y-45832944D01*
X163278969Y-45830833D01*
X163300407Y-45832944D01*
G37*
G36*
X176375677Y-45156255D02*
G01*
X176409655Y-45166563D01*
X176440976Y-45183304D01*
X176473190Y-45209742D01*
X176513041Y-45249593D01*
X176513047Y-45249598D01*
X176911502Y-45648053D01*
X176911507Y-45648059D01*
X176951358Y-45687910D01*
X176977796Y-45720124D01*
X176994537Y-45751445D01*
X177004845Y-45785423D01*
X177008325Y-45820764D01*
X177004845Y-45856105D01*
X176994537Y-45890083D01*
X176977796Y-45921404D01*
X176951358Y-45953618D01*
X176911507Y-45993469D01*
X176911502Y-45993475D01*
X176566081Y-46338896D01*
X176566075Y-46338901D01*
X176526224Y-46378752D01*
X176494010Y-46405190D01*
X176462689Y-46421931D01*
X176428711Y-46432239D01*
X176393370Y-46435719D01*
X176358029Y-46432239D01*
X176324051Y-46421931D01*
X176292730Y-46405190D01*
X176260516Y-46378752D01*
X176220665Y-46338901D01*
X176220659Y-46338896D01*
X175822204Y-45940441D01*
X175822199Y-45940435D01*
X175782348Y-45900584D01*
X175755910Y-45868370D01*
X175739169Y-45837049D01*
X175728861Y-45803071D01*
X175725381Y-45767730D01*
X175728861Y-45732389D01*
X175739169Y-45698411D01*
X175755910Y-45667090D01*
X175782348Y-45634876D01*
X175822199Y-45595025D01*
X175822204Y-45595019D01*
X176167625Y-45249598D01*
X176167631Y-45249593D01*
X176207482Y-45209742D01*
X176239696Y-45183304D01*
X176271017Y-45166563D01*
X176304995Y-45156255D01*
X176340336Y-45152775D01*
X176375677Y-45156255D01*
G37*
G36*
X175423177Y-44191055D02*
G01*
X175457155Y-44201363D01*
X175488476Y-44218104D01*
X175520690Y-44244542D01*
X175560541Y-44284393D01*
X175560547Y-44284398D01*
X175959002Y-44682853D01*
X175959007Y-44682859D01*
X175998858Y-44722710D01*
X176025296Y-44754924D01*
X176042037Y-44786245D01*
X176052345Y-44820223D01*
X176055825Y-44855564D01*
X176052345Y-44890905D01*
X176042037Y-44924883D01*
X176025296Y-44956204D01*
X175998858Y-44988418D01*
X175959007Y-45028269D01*
X175959002Y-45028275D01*
X175613581Y-45373696D01*
X175613575Y-45373701D01*
X175573724Y-45413552D01*
X175541510Y-45439990D01*
X175510189Y-45456731D01*
X175476211Y-45467039D01*
X175440870Y-45470519D01*
X175405529Y-45467039D01*
X175371551Y-45456731D01*
X175340230Y-45439990D01*
X175308016Y-45413552D01*
X175268165Y-45373701D01*
X175268159Y-45373696D01*
X174869704Y-44975241D01*
X174869699Y-44975235D01*
X174829848Y-44935384D01*
X174803410Y-44903170D01*
X174786669Y-44871849D01*
X174776361Y-44837871D01*
X174772881Y-44802530D01*
X174776361Y-44767189D01*
X174786669Y-44733211D01*
X174803410Y-44701890D01*
X174829848Y-44669676D01*
X174869699Y-44629825D01*
X174869704Y-44629819D01*
X175215125Y-44284398D01*
X175215131Y-44284393D01*
X175254982Y-44244542D01*
X175287196Y-44218104D01*
X175318517Y-44201363D01*
X175352495Y-44191055D01*
X175387836Y-44187575D01*
X175423177Y-44191055D01*
G37*
G36*
X177489371Y-44042561D02*
G01*
X177523349Y-44052869D01*
X177554670Y-44069610D01*
X177586884Y-44096048D01*
X177626735Y-44135899D01*
X177626741Y-44135904D01*
X178025196Y-44534359D01*
X178025201Y-44534365D01*
X178065052Y-44574216D01*
X178091490Y-44606430D01*
X178108231Y-44637751D01*
X178118539Y-44671729D01*
X178122019Y-44707070D01*
X178118539Y-44742411D01*
X178108231Y-44776389D01*
X178091490Y-44807710D01*
X178065052Y-44839924D01*
X178025201Y-44879775D01*
X178025196Y-44879781D01*
X177679775Y-45225202D01*
X177679769Y-45225207D01*
X177639918Y-45265058D01*
X177607704Y-45291496D01*
X177576383Y-45308237D01*
X177542405Y-45318545D01*
X177507064Y-45322025D01*
X177471723Y-45318545D01*
X177437745Y-45308237D01*
X177406424Y-45291496D01*
X177374210Y-45265058D01*
X177334359Y-45225207D01*
X177334353Y-45225202D01*
X176935898Y-44826747D01*
X176935893Y-44826741D01*
X176896042Y-44786890D01*
X176869604Y-44754676D01*
X176852863Y-44723355D01*
X176842555Y-44689377D01*
X176839075Y-44654036D01*
X176842555Y-44618695D01*
X176852863Y-44584717D01*
X176869604Y-44553396D01*
X176896042Y-44521182D01*
X176935893Y-44481331D01*
X176935898Y-44481325D01*
X177281319Y-44135904D01*
X177281325Y-44135899D01*
X177321176Y-44096048D01*
X177353390Y-44069610D01*
X177384711Y-44052869D01*
X177418689Y-44042561D01*
X177454030Y-44039081D01*
X177489371Y-44042561D01*
G37*
G36*
X168093078Y-43682822D02*
G01*
X166959770Y-44816130D01*
X165686370Y-43542730D01*
X166819678Y-42409422D01*
X168093078Y-43682822D01*
G37*
G36*
X174483377Y-43213155D02*
G01*
X174517355Y-43223463D01*
X174548676Y-43240204D01*
X174580890Y-43266642D01*
X174620741Y-43306493D01*
X174620747Y-43306498D01*
X175019202Y-43704953D01*
X175019207Y-43704959D01*
X175059058Y-43744810D01*
X175085496Y-43777024D01*
X175102237Y-43808345D01*
X175112545Y-43842323D01*
X175116025Y-43877664D01*
X175112545Y-43913005D01*
X175102237Y-43946983D01*
X175085496Y-43978304D01*
X175059058Y-44010518D01*
X175019207Y-44050369D01*
X175019202Y-44050375D01*
X174673781Y-44395796D01*
X174673775Y-44395801D01*
X174633924Y-44435652D01*
X174601710Y-44462090D01*
X174570389Y-44478831D01*
X174536411Y-44489139D01*
X174501070Y-44492619D01*
X174465729Y-44489139D01*
X174431751Y-44478831D01*
X174400430Y-44462090D01*
X174368216Y-44435652D01*
X174328365Y-44395801D01*
X174328359Y-44395796D01*
X173929904Y-43997341D01*
X173929899Y-43997335D01*
X173890048Y-43957484D01*
X173863610Y-43925270D01*
X173846869Y-43893949D01*
X173836561Y-43859971D01*
X173833081Y-43824630D01*
X173836561Y-43789289D01*
X173846869Y-43755311D01*
X173863610Y-43723990D01*
X173890048Y-43691776D01*
X173929899Y-43651925D01*
X173929904Y-43651919D01*
X174275325Y-43306498D01*
X174275331Y-43306493D01*
X174315182Y-43266642D01*
X174347396Y-43240204D01*
X174378717Y-43223463D01*
X174412695Y-43213155D01*
X174448036Y-43209675D01*
X174483377Y-43213155D01*
G37*
G36*
X176536871Y-43077361D02*
G01*
X176570849Y-43087669D01*
X176602170Y-43104410D01*
X176634384Y-43130848D01*
X176674235Y-43170699D01*
X176674241Y-43170704D01*
X177072696Y-43569159D01*
X177072701Y-43569165D01*
X177112552Y-43609016D01*
X177138990Y-43641230D01*
X177155731Y-43672551D01*
X177166039Y-43706529D01*
X177169519Y-43741870D01*
X177166039Y-43777211D01*
X177155731Y-43811189D01*
X177138990Y-43842510D01*
X177112552Y-43874724D01*
X177072701Y-43914575D01*
X177072696Y-43914581D01*
X176727275Y-44260002D01*
X176727269Y-44260007D01*
X176687418Y-44299858D01*
X176655204Y-44326296D01*
X176623883Y-44343037D01*
X176589905Y-44353345D01*
X176554564Y-44356825D01*
X176519223Y-44353345D01*
X176485245Y-44343037D01*
X176453924Y-44326296D01*
X176421710Y-44299858D01*
X176381859Y-44260007D01*
X176381853Y-44260002D01*
X175983398Y-43861547D01*
X175983393Y-43861541D01*
X175943542Y-43821690D01*
X175917104Y-43789476D01*
X175900363Y-43758155D01*
X175890055Y-43724177D01*
X175886575Y-43688836D01*
X175890055Y-43653495D01*
X175900363Y-43619517D01*
X175917104Y-43588196D01*
X175943542Y-43555982D01*
X175983393Y-43516131D01*
X175983398Y-43516125D01*
X176328819Y-43170704D01*
X176328825Y-43170699D01*
X176368676Y-43130848D01*
X176400890Y-43104410D01*
X176432211Y-43087669D01*
X176466189Y-43077361D01*
X176501530Y-43073881D01*
X176536871Y-43077361D01*
G37*
G36*
X168253313Y-42467538D02*
G01*
X168273932Y-42473793D01*
X168292928Y-42483946D01*
X168314349Y-42501526D01*
X168674074Y-42861251D01*
X168691654Y-42882672D01*
X168701807Y-42901668D01*
X168708062Y-42922287D01*
X168710173Y-42943725D01*
X168708062Y-42965163D01*
X168701807Y-42985782D01*
X168691654Y-43004778D01*
X168674074Y-43026199D01*
X168349705Y-43350568D01*
X168328284Y-43368148D01*
X168309288Y-43378301D01*
X168288669Y-43384556D01*
X168267231Y-43386667D01*
X168245793Y-43384556D01*
X168225174Y-43378301D01*
X168206178Y-43368148D01*
X168184757Y-43350568D01*
X167825032Y-42990843D01*
X167807452Y-42969422D01*
X167797299Y-42950426D01*
X167791044Y-42929807D01*
X167788933Y-42908369D01*
X167791044Y-42886931D01*
X167797299Y-42866312D01*
X167807452Y-42847316D01*
X167825032Y-42825895D01*
X168149401Y-42501526D01*
X168170822Y-42483946D01*
X168189818Y-42473793D01*
X168210437Y-42467538D01*
X168231875Y-42465427D01*
X168253313Y-42467538D01*
G37*
G36*
X175597071Y-42099461D02*
G01*
X175631049Y-42109769D01*
X175662370Y-42126510D01*
X175694584Y-42152948D01*
X175734435Y-42192799D01*
X175734441Y-42192804D01*
X176132896Y-42591259D01*
X176132901Y-42591265D01*
X176172752Y-42631116D01*
X176199190Y-42663330D01*
X176215931Y-42694651D01*
X176226239Y-42728629D01*
X176229719Y-42763970D01*
X176226239Y-42799311D01*
X176215931Y-42833289D01*
X176199190Y-42864610D01*
X176172752Y-42896824D01*
X176132901Y-42936675D01*
X176132896Y-42936681D01*
X175787475Y-43282102D01*
X175787469Y-43282107D01*
X175747618Y-43321958D01*
X175715404Y-43348396D01*
X175684083Y-43365137D01*
X175650105Y-43375445D01*
X175614764Y-43378925D01*
X175579423Y-43375445D01*
X175545445Y-43365137D01*
X175514124Y-43348396D01*
X175481910Y-43321958D01*
X175442059Y-43282107D01*
X175442053Y-43282102D01*
X175043598Y-42883647D01*
X175043593Y-42883641D01*
X175003742Y-42843790D01*
X174977304Y-42811576D01*
X174960563Y-42780255D01*
X174950255Y-42746277D01*
X174946775Y-42710936D01*
X174950255Y-42675595D01*
X174960563Y-42641617D01*
X174977304Y-42610296D01*
X175003742Y-42578082D01*
X175043593Y-42538231D01*
X175043598Y-42538225D01*
X175389019Y-42192804D01*
X175389025Y-42192799D01*
X175428876Y-42152948D01*
X175461090Y-42126510D01*
X175492411Y-42109769D01*
X175526389Y-42099461D01*
X175561730Y-42095981D01*
X175597071Y-42099461D01*
G37*
G36*
X168939207Y-41781644D02*
G01*
X168959826Y-41787899D01*
X168978822Y-41798052D01*
X169000243Y-41815632D01*
X169359968Y-42175357D01*
X169377548Y-42196778D01*
X169387701Y-42215774D01*
X169393956Y-42236393D01*
X169396067Y-42257831D01*
X169393956Y-42279269D01*
X169387701Y-42299888D01*
X169377548Y-42318884D01*
X169359968Y-42340305D01*
X169035599Y-42664674D01*
X169014178Y-42682254D01*
X168995182Y-42692407D01*
X168974563Y-42698662D01*
X168953125Y-42700773D01*
X168931687Y-42698662D01*
X168911068Y-42692407D01*
X168892072Y-42682254D01*
X168870651Y-42664674D01*
X168510926Y-42304949D01*
X168493346Y-42283528D01*
X168483193Y-42264532D01*
X168476938Y-42243913D01*
X168474827Y-42222475D01*
X168476938Y-42201037D01*
X168483193Y-42180418D01*
X168493346Y-42161422D01*
X168510926Y-42140001D01*
X168835295Y-41815632D01*
X168856716Y-41798052D01*
X168875712Y-41787899D01*
X168896331Y-41781644D01*
X168917769Y-41779533D01*
X168939207Y-41781644D01*
G37*
M02*
