G04 #@! TF.GenerationSoftware,KiCad,Pcbnew,(5.1.6)-1*
G04 #@! TF.CreationDate,2020-09-19T09:47:57+02:00*
G04 #@! TF.ProjectId,ArduinoProMicroUSB,41726475-696e-46f5-9072-6f4d6963726f,rev?*
G04 #@! TF.SameCoordinates,Original*
G04 #@! TF.FileFunction,Legend,Bot*
G04 #@! TF.FilePolarity,Positive*
%FSLAX46Y46*%
G04 Gerber Fmt 4.6, Leading zero omitted, Abs format (unit mm)*
G04 Created by KiCad (PCBNEW (5.1.6)-1) date 2020-09-19 09:47:57*
%MOMM*%
%LPD*%
G01*
G04 APERTURE LIST*
%ADD10C,0.150000*%
%ADD11C,0.100000*%
%ADD12C,0.120000*%
G04 APERTURE END LIST*
D10*
X189687152Y-64549328D02*
X188925247Y-64549328D01*
X189395052Y-59672528D02*
X188633147Y-59672528D01*
X189014100Y-60053480D02*
X189014100Y-59291576D01*
D11*
X181751428Y-46817428D02*
X181644285Y-46853142D01*
X181608571Y-46888857D01*
X181572857Y-46960285D01*
X181572857Y-47067428D01*
X181608571Y-47138857D01*
X181644285Y-47174571D01*
X181715714Y-47210285D01*
X182001428Y-47210285D01*
X182001428Y-46460285D01*
X181751428Y-46460285D01*
X181680000Y-46496000D01*
X181644285Y-46531714D01*
X181608571Y-46603142D01*
X181608571Y-46674571D01*
X181644285Y-46746000D01*
X181680000Y-46781714D01*
X181751428Y-46817428D01*
X182001428Y-46817428D01*
X180930000Y-47210285D02*
X180930000Y-46817428D01*
X180965714Y-46746000D01*
X181037142Y-46710285D01*
X181180000Y-46710285D01*
X181251428Y-46746000D01*
X180930000Y-47174571D02*
X181001428Y-47210285D01*
X181180000Y-47210285D01*
X181251428Y-47174571D01*
X181287142Y-47103142D01*
X181287142Y-47031714D01*
X181251428Y-46960285D01*
X181180000Y-46924571D01*
X181001428Y-46924571D01*
X180930000Y-46888857D01*
X180680000Y-46710285D02*
X180394285Y-46710285D01*
X180572857Y-46460285D02*
X180572857Y-47103142D01*
X180537142Y-47174571D01*
X180465714Y-47210285D01*
X180394285Y-47210285D01*
X180251428Y-46710285D02*
X179965714Y-46710285D01*
X180144285Y-46460285D02*
X180144285Y-47103142D01*
X180108571Y-47174571D01*
X180037142Y-47210285D01*
X179965714Y-47210285D01*
X179430000Y-47174571D02*
X179501428Y-47210285D01*
X179644285Y-47210285D01*
X179715714Y-47174571D01*
X179751428Y-47103142D01*
X179751428Y-46817428D01*
X179715714Y-46746000D01*
X179644285Y-46710285D01*
X179501428Y-46710285D01*
X179430000Y-46746000D01*
X179394285Y-46817428D01*
X179394285Y-46888857D01*
X179751428Y-46960285D01*
X179072857Y-47210285D02*
X179072857Y-46710285D01*
X179072857Y-46853142D02*
X179037142Y-46781714D01*
X179001428Y-46746000D01*
X178930000Y-46710285D01*
X178858571Y-46710285D01*
X178680000Y-46710285D02*
X178501428Y-47210285D01*
X178322857Y-46710285D02*
X178501428Y-47210285D01*
X178572857Y-47388857D01*
X178608571Y-47424571D01*
X178680000Y-47460285D01*
X181644285Y-49660285D02*
X182001428Y-49660285D01*
X182001428Y-48910285D01*
X180894285Y-49731714D02*
X180965714Y-49696000D01*
X181037142Y-49624571D01*
X181144285Y-49517428D01*
X181215714Y-49481714D01*
X181287142Y-49481714D01*
X181251428Y-49660285D02*
X181322857Y-49624571D01*
X181394285Y-49553142D01*
X181430000Y-49410285D01*
X181430000Y-49160285D01*
X181394285Y-49017428D01*
X181322857Y-48946000D01*
X181251428Y-48910285D01*
X181108571Y-48910285D01*
X181037142Y-48946000D01*
X180965714Y-49017428D01*
X180930000Y-49160285D01*
X180930000Y-49410285D01*
X180965714Y-49553142D01*
X181037142Y-49624571D01*
X181108571Y-49660285D01*
X181251428Y-49660285D01*
X180608571Y-49374571D02*
X180037142Y-49374571D01*
X179715714Y-49624571D02*
X179608571Y-49660285D01*
X179430000Y-49660285D01*
X179358571Y-49624571D01*
X179322857Y-49588857D01*
X179287142Y-49517428D01*
X179287142Y-49446000D01*
X179322857Y-49374571D01*
X179358571Y-49338857D01*
X179430000Y-49303142D01*
X179572857Y-49267428D01*
X179644285Y-49231714D01*
X179680000Y-49196000D01*
X179715714Y-49124571D01*
X179715714Y-49053142D01*
X179680000Y-48981714D01*
X179644285Y-48946000D01*
X179572857Y-48910285D01*
X179394285Y-48910285D01*
X179287142Y-48946000D01*
X178572857Y-49660285D02*
X179001428Y-49660285D01*
X178787142Y-49660285D02*
X178787142Y-48910285D01*
X178858571Y-49017428D01*
X178930000Y-49088857D01*
X179001428Y-49124571D01*
X182108571Y-50135285D02*
X181858571Y-50885285D01*
X181608571Y-50135285D01*
X181251428Y-50885285D02*
X181322857Y-50849571D01*
X181358571Y-50813857D01*
X181394285Y-50742428D01*
X181394285Y-50528142D01*
X181358571Y-50456714D01*
X181322857Y-50421000D01*
X181251428Y-50385285D01*
X181144285Y-50385285D01*
X181072857Y-50421000D01*
X181037142Y-50456714D01*
X181001428Y-50528142D01*
X181001428Y-50742428D01*
X181037142Y-50813857D01*
X181072857Y-50849571D01*
X181144285Y-50885285D01*
X181251428Y-50885285D01*
X180572857Y-50885285D02*
X180644285Y-50849571D01*
X180680000Y-50778142D01*
X180680000Y-50135285D01*
X180394285Y-50385285D02*
X180108571Y-50385285D01*
X180287142Y-50135285D02*
X180287142Y-50778142D01*
X180251428Y-50849571D01*
X180180000Y-50885285D01*
X180108571Y-50885285D01*
X179537142Y-50885285D02*
X179537142Y-50492428D01*
X179572857Y-50421000D01*
X179644285Y-50385285D01*
X179787142Y-50385285D01*
X179858571Y-50421000D01*
X179537142Y-50849571D02*
X179608571Y-50885285D01*
X179787142Y-50885285D01*
X179858571Y-50849571D01*
X179894285Y-50778142D01*
X179894285Y-50706714D01*
X179858571Y-50635285D01*
X179787142Y-50599571D01*
X179608571Y-50599571D01*
X179537142Y-50563857D01*
X178858571Y-50385285D02*
X178858571Y-50992428D01*
X178894285Y-51063857D01*
X178930000Y-51099571D01*
X179001428Y-51135285D01*
X179108571Y-51135285D01*
X179180000Y-51099571D01*
X178858571Y-50849571D02*
X178930000Y-50885285D01*
X179072857Y-50885285D01*
X179144285Y-50849571D01*
X179180000Y-50813857D01*
X179215714Y-50742428D01*
X179215714Y-50528142D01*
X179180000Y-50456714D01*
X179144285Y-50421000D01*
X179072857Y-50385285D01*
X178930000Y-50385285D01*
X178858571Y-50421000D01*
X178215714Y-50849571D02*
X178287142Y-50885285D01*
X178430000Y-50885285D01*
X178501428Y-50849571D01*
X178537142Y-50778142D01*
X178537142Y-50492428D01*
X178501428Y-50421000D01*
X178430000Y-50385285D01*
X178287142Y-50385285D01*
X178215714Y-50421000D01*
X178180000Y-50492428D01*
X178180000Y-50563857D01*
X178537142Y-50635285D01*
X177287142Y-50813857D02*
X177251428Y-50849571D01*
X177287142Y-50885285D01*
X177322857Y-50849571D01*
X177287142Y-50813857D01*
X177287142Y-50885285D01*
X177287142Y-50421000D02*
X177251428Y-50456714D01*
X177287142Y-50492428D01*
X177322857Y-50456714D01*
X177287142Y-50421000D01*
X177287142Y-50492428D01*
X176430000Y-50135285D02*
X175965714Y-50135285D01*
X176215714Y-50421000D01*
X176108571Y-50421000D01*
X176037142Y-50456714D01*
X176001428Y-50492428D01*
X175965714Y-50563857D01*
X175965714Y-50742428D01*
X176001428Y-50813857D01*
X176037142Y-50849571D01*
X176108571Y-50885285D01*
X176322857Y-50885285D01*
X176394285Y-50849571D01*
X176430000Y-50813857D01*
X175644285Y-50813857D02*
X175608571Y-50849571D01*
X175644285Y-50885285D01*
X175680000Y-50849571D01*
X175644285Y-50813857D01*
X175644285Y-50885285D01*
X175358571Y-50135285D02*
X174858571Y-50135285D01*
X175180000Y-50885285D01*
X174680000Y-50135285D02*
X174430000Y-50885285D01*
X174180000Y-50135285D01*
X181572857Y-52038857D02*
X181608571Y-52074571D01*
X181715714Y-52110285D01*
X181787142Y-52110285D01*
X181894285Y-52074571D01*
X181965714Y-52003142D01*
X182001428Y-51931714D01*
X182037142Y-51788857D01*
X182037142Y-51681714D01*
X182001428Y-51538857D01*
X181965714Y-51467428D01*
X181894285Y-51396000D01*
X181787142Y-51360285D01*
X181715714Y-51360285D01*
X181608571Y-51396000D01*
X181572857Y-51431714D01*
X180930000Y-52110285D02*
X180930000Y-51717428D01*
X180965714Y-51646000D01*
X181037142Y-51610285D01*
X181180000Y-51610285D01*
X181251428Y-51646000D01*
X180930000Y-52074571D02*
X181001428Y-52110285D01*
X181180000Y-52110285D01*
X181251428Y-52074571D01*
X181287142Y-52003142D01*
X181287142Y-51931714D01*
X181251428Y-51860285D01*
X181180000Y-51824571D01*
X181001428Y-51824571D01*
X180930000Y-51788857D01*
X180572857Y-51610285D02*
X180572857Y-52360285D01*
X180572857Y-51646000D02*
X180501428Y-51610285D01*
X180358571Y-51610285D01*
X180287142Y-51646000D01*
X180251428Y-51681714D01*
X180215714Y-51753142D01*
X180215714Y-51967428D01*
X180251428Y-52038857D01*
X180287142Y-52074571D01*
X180358571Y-52110285D01*
X180501428Y-52110285D01*
X180572857Y-52074571D01*
X179572857Y-52110285D02*
X179572857Y-51717428D01*
X179608571Y-51646000D01*
X179680000Y-51610285D01*
X179822857Y-51610285D01*
X179894285Y-51646000D01*
X179572857Y-52074571D02*
X179644285Y-52110285D01*
X179822857Y-52110285D01*
X179894285Y-52074571D01*
X179930000Y-52003142D01*
X179930000Y-51931714D01*
X179894285Y-51860285D01*
X179822857Y-51824571D01*
X179644285Y-51824571D01*
X179572857Y-51788857D01*
X178894285Y-52074571D02*
X178965714Y-52110285D01*
X179108571Y-52110285D01*
X179180000Y-52074571D01*
X179215714Y-52038857D01*
X179251428Y-51967428D01*
X179251428Y-51753142D01*
X179215714Y-51681714D01*
X179180000Y-51646000D01*
X179108571Y-51610285D01*
X178965714Y-51610285D01*
X178894285Y-51646000D01*
X178572857Y-52110285D02*
X178572857Y-51610285D01*
X178572857Y-51360285D02*
X178608571Y-51396000D01*
X178572857Y-51431714D01*
X178537142Y-51396000D01*
X178572857Y-51360285D01*
X178572857Y-51431714D01*
X178322857Y-51610285D02*
X178037142Y-51610285D01*
X178215714Y-51360285D02*
X178215714Y-52003142D01*
X178180000Y-52074571D01*
X178108571Y-52110285D01*
X178037142Y-52110285D01*
X177858571Y-51610285D02*
X177680000Y-52110285D01*
X177501428Y-51610285D02*
X177680000Y-52110285D01*
X177751428Y-52288857D01*
X177787142Y-52324571D01*
X177858571Y-52360285D01*
X176644285Y-52038857D02*
X176608571Y-52074571D01*
X176644285Y-52110285D01*
X176680000Y-52074571D01*
X176644285Y-52038857D01*
X176644285Y-52110285D01*
X176644285Y-51646000D02*
X176608571Y-51681714D01*
X176644285Y-51717428D01*
X176680000Y-51681714D01*
X176644285Y-51646000D01*
X176644285Y-51717428D01*
X175787142Y-51360285D02*
X175322857Y-51360285D01*
X175572857Y-51646000D01*
X175465714Y-51646000D01*
X175394285Y-51681714D01*
X175358571Y-51717428D01*
X175322857Y-51788857D01*
X175322857Y-51967428D01*
X175358571Y-52038857D01*
X175394285Y-52074571D01*
X175465714Y-52110285D01*
X175680000Y-52110285D01*
X175751428Y-52074571D01*
X175787142Y-52038857D01*
X174894285Y-51681714D02*
X174965714Y-51646000D01*
X175001428Y-51610285D01*
X175037142Y-51538857D01*
X175037142Y-51503142D01*
X175001428Y-51431714D01*
X174965714Y-51396000D01*
X174894285Y-51360285D01*
X174751428Y-51360285D01*
X174680000Y-51396000D01*
X174644285Y-51431714D01*
X174608571Y-51503142D01*
X174608571Y-51538857D01*
X174644285Y-51610285D01*
X174680000Y-51646000D01*
X174751428Y-51681714D01*
X174894285Y-51681714D01*
X174965714Y-51717428D01*
X175001428Y-51753142D01*
X175037142Y-51824571D01*
X175037142Y-51967428D01*
X175001428Y-52038857D01*
X174965714Y-52074571D01*
X174894285Y-52110285D01*
X174751428Y-52110285D01*
X174680000Y-52074571D01*
X174644285Y-52038857D01*
X174608571Y-51967428D01*
X174608571Y-51824571D01*
X174644285Y-51753142D01*
X174680000Y-51717428D01*
X174751428Y-51681714D01*
X174144285Y-51360285D02*
X174072857Y-51360285D01*
X174001428Y-51396000D01*
X173965714Y-51431714D01*
X173930000Y-51503142D01*
X173894285Y-51646000D01*
X173894285Y-51824571D01*
X173930000Y-51967428D01*
X173965714Y-52038857D01*
X174001428Y-52074571D01*
X174072857Y-52110285D01*
X174144285Y-52110285D01*
X174215714Y-52074571D01*
X174251428Y-52038857D01*
X174287142Y-51967428D01*
X174322857Y-51824571D01*
X174322857Y-51646000D01*
X174287142Y-51503142D01*
X174251428Y-51431714D01*
X174215714Y-51396000D01*
X174144285Y-51360285D01*
X173572857Y-52110285D02*
X173572857Y-51610285D01*
X173572857Y-51681714D02*
X173537142Y-51646000D01*
X173465714Y-51610285D01*
X173358571Y-51610285D01*
X173287142Y-51646000D01*
X173251428Y-51717428D01*
X173251428Y-52110285D01*
X173251428Y-51717428D02*
X173215714Y-51646000D01*
X173144285Y-51610285D01*
X173037142Y-51610285D01*
X172965714Y-51646000D01*
X172930000Y-51717428D01*
X172930000Y-52110285D01*
X172608571Y-51896000D02*
X172251428Y-51896000D01*
X172680000Y-52110285D02*
X172430000Y-51360285D01*
X172180000Y-52110285D01*
X171930000Y-52110285D02*
X171930000Y-51360285D01*
X171608571Y-52110285D02*
X171608571Y-51717428D01*
X171644285Y-51646000D01*
X171715714Y-51610285D01*
X171822857Y-51610285D01*
X171894285Y-51646000D01*
X171930000Y-51681714D01*
X181572857Y-53263857D02*
X181608571Y-53299571D01*
X181715714Y-53335285D01*
X181787142Y-53335285D01*
X181894285Y-53299571D01*
X181965714Y-53228142D01*
X182001428Y-53156714D01*
X182037142Y-53013857D01*
X182037142Y-52906714D01*
X182001428Y-52763857D01*
X181965714Y-52692428D01*
X181894285Y-52621000D01*
X181787142Y-52585285D01*
X181715714Y-52585285D01*
X181608571Y-52621000D01*
X181572857Y-52656714D01*
X181251428Y-53335285D02*
X181251428Y-52585285D01*
X180930000Y-53335285D02*
X180930000Y-52942428D01*
X180965714Y-52871000D01*
X181037142Y-52835285D01*
X181144285Y-52835285D01*
X181215714Y-52871000D01*
X181251428Y-52906714D01*
X180251428Y-53335285D02*
X180251428Y-52942428D01*
X180287142Y-52871000D01*
X180358571Y-52835285D01*
X180501428Y-52835285D01*
X180572857Y-52871000D01*
X180251428Y-53299571D02*
X180322857Y-53335285D01*
X180501428Y-53335285D01*
X180572857Y-53299571D01*
X180608571Y-53228142D01*
X180608571Y-53156714D01*
X180572857Y-53085285D01*
X180501428Y-53049571D01*
X180322857Y-53049571D01*
X180251428Y-53013857D01*
X179894285Y-53335285D02*
X179894285Y-52835285D01*
X179894285Y-52978142D02*
X179858571Y-52906714D01*
X179822857Y-52871000D01*
X179751428Y-52835285D01*
X179680000Y-52835285D01*
X179108571Y-52835285D02*
X179108571Y-53442428D01*
X179144285Y-53513857D01*
X179180000Y-53549571D01*
X179251428Y-53585285D01*
X179358571Y-53585285D01*
X179430000Y-53549571D01*
X179108571Y-53299571D02*
X179180000Y-53335285D01*
X179322857Y-53335285D01*
X179394285Y-53299571D01*
X179430000Y-53263857D01*
X179465714Y-53192428D01*
X179465714Y-52978142D01*
X179430000Y-52906714D01*
X179394285Y-52871000D01*
X179322857Y-52835285D01*
X179180000Y-52835285D01*
X179108571Y-52871000D01*
X178751428Y-53335285D02*
X178751428Y-52835285D01*
X178751428Y-52585285D02*
X178787142Y-52621000D01*
X178751428Y-52656714D01*
X178715714Y-52621000D01*
X178751428Y-52585285D01*
X178751428Y-52656714D01*
X178394285Y-52835285D02*
X178394285Y-53335285D01*
X178394285Y-52906714D02*
X178358571Y-52871000D01*
X178287142Y-52835285D01*
X178180000Y-52835285D01*
X178108571Y-52871000D01*
X178072857Y-52942428D01*
X178072857Y-53335285D01*
X177394285Y-52835285D02*
X177394285Y-53442428D01*
X177430000Y-53513857D01*
X177465714Y-53549571D01*
X177537142Y-53585285D01*
X177644285Y-53585285D01*
X177715714Y-53549571D01*
X177394285Y-53299571D02*
X177465714Y-53335285D01*
X177608571Y-53335285D01*
X177680000Y-53299571D01*
X177715714Y-53263857D01*
X177751428Y-53192428D01*
X177751428Y-52978142D01*
X177715714Y-52906714D01*
X177680000Y-52871000D01*
X177608571Y-52835285D01*
X177465714Y-52835285D01*
X177394285Y-52871000D01*
X176537142Y-52835285D02*
X176358571Y-53335285D01*
X176180000Y-52835285D01*
X175787142Y-53335285D02*
X175858571Y-53299571D01*
X175894285Y-53263857D01*
X175930000Y-53192428D01*
X175930000Y-52978142D01*
X175894285Y-52906714D01*
X175858571Y-52871000D01*
X175787142Y-52835285D01*
X175680000Y-52835285D01*
X175608571Y-52871000D01*
X175572857Y-52906714D01*
X175537142Y-52978142D01*
X175537142Y-53192428D01*
X175572857Y-53263857D01*
X175608571Y-53299571D01*
X175680000Y-53335285D01*
X175787142Y-53335285D01*
X175108571Y-53335285D02*
X175180000Y-53299571D01*
X175215714Y-53228142D01*
X175215714Y-52585285D01*
X174930000Y-52835285D02*
X174644285Y-52835285D01*
X174822857Y-52585285D02*
X174822857Y-53228142D01*
X174787142Y-53299571D01*
X174715714Y-53335285D01*
X174644285Y-53335285D01*
X174072857Y-53335285D02*
X174072857Y-52942428D01*
X174108571Y-52871000D01*
X174180000Y-52835285D01*
X174322857Y-52835285D01*
X174394285Y-52871000D01*
X174072857Y-53299571D02*
X174144285Y-53335285D01*
X174322857Y-53335285D01*
X174394285Y-53299571D01*
X174430000Y-53228142D01*
X174430000Y-53156714D01*
X174394285Y-53085285D01*
X174322857Y-53049571D01*
X174144285Y-53049571D01*
X174072857Y-53013857D01*
X173394285Y-52835285D02*
X173394285Y-53442428D01*
X173430000Y-53513857D01*
X173465714Y-53549571D01*
X173537142Y-53585285D01*
X173644285Y-53585285D01*
X173715714Y-53549571D01*
X173394285Y-53299571D02*
X173465714Y-53335285D01*
X173608571Y-53335285D01*
X173680000Y-53299571D01*
X173715714Y-53263857D01*
X173751428Y-53192428D01*
X173751428Y-52978142D01*
X173715714Y-52906714D01*
X173680000Y-52871000D01*
X173608571Y-52835285D01*
X173465714Y-52835285D01*
X173394285Y-52871000D01*
X172751428Y-53299571D02*
X172822857Y-53335285D01*
X172965714Y-53335285D01*
X173037142Y-53299571D01*
X173072857Y-53228142D01*
X173072857Y-52942428D01*
X173037142Y-52871000D01*
X172965714Y-52835285D01*
X172822857Y-52835285D01*
X172751428Y-52871000D01*
X172715714Y-52942428D01*
X172715714Y-53013857D01*
X173072857Y-53085285D01*
X171822857Y-53263857D02*
X171787142Y-53299571D01*
X171822857Y-53335285D01*
X171858571Y-53299571D01*
X171822857Y-53263857D01*
X171822857Y-53335285D01*
X171822857Y-52871000D02*
X171787142Y-52906714D01*
X171822857Y-52942428D01*
X171858571Y-52906714D01*
X171822857Y-52871000D01*
X171822857Y-52942428D01*
X170572857Y-52835285D02*
X170572857Y-53335285D01*
X170751428Y-52549571D02*
X170930000Y-53085285D01*
X170465714Y-53085285D01*
X170180000Y-53263857D02*
X170144285Y-53299571D01*
X170180000Y-53335285D01*
X170215714Y-53299571D01*
X170180000Y-53263857D01*
X170180000Y-53335285D01*
X169858571Y-52656714D02*
X169822857Y-52621000D01*
X169751428Y-52585285D01*
X169572857Y-52585285D01*
X169501428Y-52621000D01*
X169465714Y-52656714D01*
X169430000Y-52728142D01*
X169430000Y-52799571D01*
X169465714Y-52906714D01*
X169894285Y-53335285D01*
X169430000Y-53335285D01*
X169215714Y-52585285D02*
X168965714Y-53335285D01*
X168715714Y-52585285D01*
X181608571Y-53846000D02*
X181680000Y-53810285D01*
X181787142Y-53810285D01*
X181894285Y-53846000D01*
X181965714Y-53917428D01*
X182001428Y-53988857D01*
X182037142Y-54131714D01*
X182037142Y-54238857D01*
X182001428Y-54381714D01*
X181965714Y-54453142D01*
X181894285Y-54524571D01*
X181787142Y-54560285D01*
X181715714Y-54560285D01*
X181608571Y-54524571D01*
X181572857Y-54488857D01*
X181572857Y-54238857D01*
X181715714Y-54238857D01*
X181251428Y-54560285D02*
X181251428Y-53810285D01*
X180822857Y-54560285D02*
X181144285Y-54131714D01*
X180822857Y-53810285D02*
X181251428Y-54238857D01*
X179965714Y-53774571D02*
X180608571Y-54738857D01*
X179822857Y-53810285D02*
X179394285Y-53810285D01*
X179608571Y-54560285D02*
X179608571Y-53810285D01*
X178180000Y-54560285D02*
X178608571Y-54560285D01*
X178394285Y-54560285D02*
X178394285Y-53810285D01*
X178465714Y-53917428D01*
X178537142Y-53988857D01*
X178608571Y-54024571D01*
X177751428Y-54131714D02*
X177822857Y-54096000D01*
X177858571Y-54060285D01*
X177894285Y-53988857D01*
X177894285Y-53953142D01*
X177858571Y-53881714D01*
X177822857Y-53846000D01*
X177751428Y-53810285D01*
X177608571Y-53810285D01*
X177537142Y-53846000D01*
X177501428Y-53881714D01*
X177465714Y-53953142D01*
X177465714Y-53988857D01*
X177501428Y-54060285D01*
X177537142Y-54096000D01*
X177608571Y-54131714D01*
X177751428Y-54131714D01*
X177822857Y-54167428D01*
X177858571Y-54203142D01*
X177894285Y-54274571D01*
X177894285Y-54417428D01*
X177858571Y-54488857D01*
X177822857Y-54524571D01*
X177751428Y-54560285D01*
X177608571Y-54560285D01*
X177537142Y-54524571D01*
X177501428Y-54488857D01*
X177465714Y-54417428D01*
X177465714Y-54274571D01*
X177501428Y-54203142D01*
X177537142Y-54167428D01*
X177608571Y-54131714D01*
X177180000Y-53881714D02*
X177144285Y-53846000D01*
X177072857Y-53810285D01*
X176894285Y-53810285D01*
X176822857Y-53846000D01*
X176787142Y-53881714D01*
X176751428Y-53953142D01*
X176751428Y-54024571D01*
X176787142Y-54131714D01*
X177215714Y-54560285D01*
X176751428Y-54560285D01*
X176322857Y-54131714D02*
X176394285Y-54096000D01*
X176430000Y-54060285D01*
X176465714Y-53988857D01*
X176465714Y-53953142D01*
X176430000Y-53881714D01*
X176394285Y-53846000D01*
X176322857Y-53810285D01*
X176180000Y-53810285D01*
X176108571Y-53846000D01*
X176072857Y-53881714D01*
X176037142Y-53953142D01*
X176037142Y-53988857D01*
X176072857Y-54060285D01*
X176108571Y-54096000D01*
X176180000Y-54131714D01*
X176322857Y-54131714D01*
X176394285Y-54167428D01*
X176430000Y-54203142D01*
X176465714Y-54274571D01*
X176465714Y-54417428D01*
X176430000Y-54488857D01*
X176394285Y-54524571D01*
X176322857Y-54560285D01*
X176180000Y-54560285D01*
X176108571Y-54524571D01*
X176072857Y-54488857D01*
X176037142Y-54417428D01*
X176037142Y-54274571D01*
X176072857Y-54203142D01*
X176108571Y-54167428D01*
X176180000Y-54131714D01*
X175787142Y-53810285D02*
X175287142Y-53810285D01*
X175608571Y-54560285D01*
X175001428Y-54274571D02*
X174430000Y-54274571D01*
X174108571Y-53881714D02*
X174072857Y-53846000D01*
X174001428Y-53810285D01*
X173822857Y-53810285D01*
X173751428Y-53846000D01*
X173715714Y-53881714D01*
X173680000Y-53953142D01*
X173680000Y-54024571D01*
X173715714Y-54131714D01*
X174144285Y-54560285D01*
X173680000Y-54560285D01*
X173215714Y-53810285D02*
X173144285Y-53810285D01*
X173072857Y-53846000D01*
X173037142Y-53881714D01*
X173001428Y-53953142D01*
X172965714Y-54096000D01*
X172965714Y-54274571D01*
X173001428Y-54417428D01*
X173037142Y-54488857D01*
X173072857Y-54524571D01*
X173144285Y-54560285D01*
X173215714Y-54560285D01*
X173287142Y-54524571D01*
X173322857Y-54488857D01*
X173358571Y-54417428D01*
X173394285Y-54274571D01*
X173394285Y-54096000D01*
X173358571Y-53953142D01*
X173322857Y-53881714D01*
X173287142Y-53846000D01*
X173215714Y-53810285D01*
X172501428Y-53810285D02*
X172430000Y-53810285D01*
X172358571Y-53846000D01*
X172322857Y-53881714D01*
X172287142Y-53953142D01*
X172251428Y-54096000D01*
X172251428Y-54274571D01*
X172287142Y-54417428D01*
X172322857Y-54488857D01*
X172358571Y-54524571D01*
X172430000Y-54560285D01*
X172501428Y-54560285D01*
X172572857Y-54524571D01*
X172608571Y-54488857D01*
X172644285Y-54417428D01*
X172680000Y-54274571D01*
X172680000Y-54096000D01*
X172644285Y-53953142D01*
X172608571Y-53881714D01*
X172572857Y-53846000D01*
X172501428Y-53810285D01*
X171787142Y-53810285D02*
X171715714Y-53810285D01*
X171644285Y-53846000D01*
X171608571Y-53881714D01*
X171572857Y-53953142D01*
X171537142Y-54096000D01*
X171537142Y-54274571D01*
X171572857Y-54417428D01*
X171608571Y-54488857D01*
X171644285Y-54524571D01*
X171715714Y-54560285D01*
X171787142Y-54560285D01*
X171858571Y-54524571D01*
X171894285Y-54488857D01*
X171930000Y-54417428D01*
X171965714Y-54274571D01*
X171965714Y-54096000D01*
X171930000Y-53953142D01*
X171894285Y-53881714D01*
X171858571Y-53846000D01*
X171787142Y-53810285D01*
D12*
X158813500Y-45656500D02*
X158813500Y-76009500D01*
X182816500Y-45656500D02*
X158813500Y-45656500D01*
X182816500Y-76009500D02*
X182816500Y-45656500D01*
M02*
