M48
; DRILL file {KiCad (5.1.6)-1} date 10/28/20 20:54:41
; FORMAT={-:-/ absolute / inch / decimal}
; #@! TF.CreationDate,2020-10-28T20:54:41+01:00
; #@! TF.GenerationSoftware,Kicad,Pcbnew,(5.1.6)-1
; #@! TF.FileFunction,Plated,1,4,PTH
FMAT,2
INCH
T1C0.0118
T2C0.0157
T3C0.0276
%
G90
G05
T1
X5.31Y-3.205
X5.314Y-3.346
X5.315Y-3.4
X5.4955Y-3.685
X5.53Y-3.025
X5.538Y-3.604
X5.558Y-3.348
X5.558Y-3.472
X5.558Y-3.506
X5.572Y-3.208
X5.588Y-3.536
X5.592Y-3.242
X5.604Y-3.208
X5.63Y-2.99
X5.634Y-3.552
X5.666Y-3.552
X5.761Y-3.552
X5.854Y-3.208
X5.876Y-3.483
X5.876Y-3.518
X5.876Y-3.55
X5.877Y-3.442
X5.877Y-3.707
X5.877Y-3.81
X5.886Y-3.208
X5.898Y-3.286
X5.9205Y-3.613
X6.014Y-3.843
X6.021Y-3.723
X6.021Y-3.758
X6.028Y-3.005
X6.056Y-3.212
X6.08Y-3.601
X6.084Y-3.005
X6.084Y-3.24
X6.11Y-3.213
X6.141Y-3.761
X6.142Y-3.654
X6.142Y-3.725
X6.181Y-3.046
T2
X5.258Y-3.275
X5.356Y-3.13
X5.389Y-2.968
X5.534Y-3.152
T3
X5.067Y-3.666
X5.067Y-3.756
X5.067Y-3.486
X5.067Y-3.576
X5.067Y-3.396
X5.067Y-3.2105
X5.067Y-3.1155
X5.067Y-3.306
T0
M30
