%TF.GenerationSoftware,KiCad,Pcbnew,(5.1.6)-1*%
%TF.CreationDate,2020-11-07T21:36:58+01:00*%
%TF.ProjectId,ArduinoProMicroUSB,41726475-696e-46f5-9072-6f4d6963726f,rev?*%
%TF.SameCoordinates,Original*%
%TF.FileFunction,Legend,Top*%
%TF.FilePolarity,Positive*%
%FSLAX46Y46*%
G04 Gerber Fmt 4.6, Leading zero omitted, Abs format (unit mm)*
G04 Created by KiCad (PCBNEW (5.1.6)-1) date 2020-11-07 21:36:58*
%MOMM*%
%LPD*%
G01*
G04 APERTURE LIST*
%ADD10C,0.125000*%
%ADD11C,0.100000*%
%ADD12C,0.066040*%
%ADD13C,0.304800*%
%ADD14C,0.120000*%
%ADD15C,0.200000*%
%ADD16C,0.127000*%
%ADD17C,0.250000*%
%ADD18C,0.150000*%
%ADD19C,0.203200*%
%ADD20C,0.254000*%
G04 APERTURE END LIST*
D10*
X88512642Y-89522523D02*
X88512642Y-89255857D01*
X88093595Y-89255857D02*
X88893595Y-89255857D01*
X88893595Y-89636809D01*
X88093595Y-90322523D02*
X88093595Y-89941571D01*
X88893595Y-89941571D01*
X88893595Y-90589190D02*
X88245976Y-90589190D01*
X88169785Y-90627285D01*
X88131690Y-90665380D01*
X88093595Y-90741571D01*
X88093595Y-90893952D01*
X88131690Y-90970142D01*
X88169785Y-91008238D01*
X88245976Y-91046333D01*
X88893595Y-91046333D01*
X88093595Y-91427285D02*
X88893595Y-91427285D01*
X88893595Y-91617761D01*
X88855500Y-91732047D01*
X88779309Y-91808238D01*
X88703119Y-91846333D01*
X88550738Y-91884428D01*
X88436452Y-91884428D01*
X88284071Y-91846333D01*
X88207880Y-91808238D01*
X88131690Y-91732047D01*
X88093595Y-91617761D01*
X88093595Y-91427285D01*
X88512642Y-92227285D02*
X88512642Y-92493952D01*
X88093595Y-92608238D02*
X88093595Y-92227285D01*
X88893595Y-92227285D01*
X88893595Y-92608238D01*
X88093595Y-93408238D02*
X88474547Y-93141571D01*
X88093595Y-92951095D02*
X88893595Y-92951095D01*
X88893595Y-93255857D01*
X88855500Y-93332047D01*
X88817404Y-93370142D01*
X88741214Y-93408238D01*
X88626928Y-93408238D01*
X88550738Y-93370142D01*
X88512642Y-93332047D01*
X88474547Y-93255857D01*
X88474547Y-92951095D01*
X102755738Y-72891642D02*
X103365261Y-72891642D01*
X96716857Y-72529738D02*
X96716857Y-73139261D01*
X96412095Y-72834500D02*
X97021619Y-72834500D01*
D11*
X87251409Y-92724314D02*
X87251409Y-92438600D01*
X87251409Y-92581457D02*
X87751409Y-92581457D01*
X87679980Y-92533838D01*
X87632361Y-92486219D01*
X87608552Y-92438600D01*
X87299028Y-92938600D02*
X87275219Y-92962409D01*
X87251409Y-92938600D01*
X87275219Y-92914790D01*
X87299028Y-92938600D01*
X87251409Y-92938600D01*
X87751409Y-93271933D02*
X87751409Y-93319552D01*
X87727600Y-93367171D01*
X87703790Y-93390980D01*
X87656171Y-93414790D01*
X87560933Y-93438600D01*
X87441885Y-93438600D01*
X87346647Y-93414790D01*
X87299028Y-93390980D01*
X87275219Y-93367171D01*
X87251409Y-93319552D01*
X87251409Y-93271933D01*
X87275219Y-93224314D01*
X87299028Y-93200504D01*
X87346647Y-93176695D01*
X87441885Y-93152885D01*
X87560933Y-93152885D01*
X87656171Y-93176695D01*
X87703790Y-93200504D01*
X87727600Y-93224314D01*
X87751409Y-93271933D01*
D10*
X88258666Y-74511142D02*
X88258666Y-74892095D01*
X88030095Y-74434952D02*
X88830095Y-74701619D01*
X88030095Y-74968285D01*
X88030095Y-75234952D02*
X88830095Y-75234952D01*
X88830095Y-75425428D01*
X88792000Y-75539714D01*
X88715809Y-75615904D01*
X88639619Y-75654000D01*
X88487238Y-75692095D01*
X88372952Y-75692095D01*
X88220571Y-75654000D01*
X88144380Y-75615904D01*
X88068190Y-75539714D01*
X88030095Y-75425428D01*
X88030095Y-75234952D01*
X88030095Y-76492095D02*
X88411047Y-76225428D01*
X88030095Y-76034952D02*
X88830095Y-76034952D01*
X88830095Y-76339714D01*
X88792000Y-76415904D01*
X88753904Y-76454000D01*
X88677714Y-76492095D01*
X88563428Y-76492095D01*
X88487238Y-76454000D01*
X88449142Y-76415904D01*
X88411047Y-76339714D01*
X88411047Y-76034952D01*
X88030095Y-76834952D02*
X88830095Y-76834952D01*
X88258666Y-77177809D02*
X88258666Y-77558761D01*
X88030095Y-77101619D02*
X88830095Y-77368285D01*
X88030095Y-77634952D01*
X88030095Y-77901619D02*
X88830095Y-77901619D01*
X88030095Y-78358761D01*
X88830095Y-78358761D01*
D12*
%TO.C,U3*%
X87706200Y-80655160D02*
X89204800Y-80655160D01*
X89204800Y-80655160D02*
X89204800Y-78856840D01*
X87706200Y-78856840D02*
X89204800Y-78856840D01*
X87706200Y-80655160D02*
X87706200Y-78856840D01*
X88107520Y-84188300D02*
X88803480Y-84188300D01*
X88803480Y-84188300D02*
X88803480Y-82689700D01*
X88107520Y-82689700D02*
X88803480Y-82689700D01*
X88107520Y-84188300D02*
X88107520Y-82689700D01*
X87706200Y-88021160D02*
X89204800Y-88021160D01*
X89204800Y-88021160D02*
X89204800Y-86222840D01*
X87706200Y-86222840D02*
X89204800Y-86222840D01*
X87706200Y-88021160D02*
X87706200Y-86222840D01*
X87607140Y-80756760D02*
X89303860Y-80756760D01*
X89303860Y-80756760D02*
X89303860Y-78755240D01*
X87607140Y-78755240D02*
X89303860Y-78755240D01*
X87607140Y-80756760D02*
X87607140Y-78755240D01*
X87607140Y-88122760D02*
X89303860Y-88122760D01*
X89303860Y-88122760D02*
X89303860Y-86121240D01*
X87607140Y-86121240D02*
X89303860Y-86121240D01*
X87607140Y-88122760D02*
X87607140Y-86121240D01*
X87607140Y-84787740D02*
X89303860Y-84787740D01*
X89303860Y-84787740D02*
X89303860Y-82090260D01*
X87607140Y-82090260D02*
X89303860Y-82090260D01*
X87607140Y-84787740D02*
X87607140Y-82090260D01*
D13*
X91434920Y-79446120D02*
X90454480Y-79446120D01*
X90454480Y-79446120D02*
X90454480Y-79441040D01*
X91455240Y-79441040D02*
X91455240Y-80439260D01*
X90454480Y-87436960D02*
X91455240Y-87436960D01*
X91455240Y-87436960D02*
X91455240Y-86438740D01*
X87457280Y-79441040D02*
X86456520Y-79441040D01*
X87457280Y-87436960D02*
X86456520Y-87436960D01*
D14*
%TO.C,D2*%
X101627000Y-88432060D02*
X101627000Y-90717060D01*
X101627000Y-90717060D02*
X103097000Y-90717060D01*
X103097000Y-90717060D02*
X103097000Y-88432060D01*
%TO.C,D3*%
X100871940Y-88387500D02*
X100871940Y-86102500D01*
X100871940Y-86102500D02*
X99401940Y-86102500D01*
X99401940Y-86102500D02*
X99401940Y-88387500D01*
D15*
%TO.C,U5*%
X102806900Y-78132300D02*
G75*
G03*
X102806900Y-78132300I-100000J0D01*
G01*
D16*
X110776900Y-84132300D02*
X110226900Y-84132300D01*
X110776900Y-77132300D02*
X110226900Y-77132300D01*
X103776900Y-84132300D02*
X104326900Y-84132300D01*
X103776900Y-77132300D02*
X104326900Y-77132300D01*
X110776900Y-84132300D02*
X110776900Y-83582300D01*
X110776900Y-77132300D02*
X110776900Y-77682300D01*
X103776900Y-84132300D02*
X103776900Y-83582300D01*
X103776900Y-77132300D02*
X103776900Y-77682300D01*
D12*
%TO.C,C9*%
X100375720Y-76448920D02*
X100375720Y-76052680D01*
X100375720Y-76052680D02*
X99776280Y-76052680D01*
X99776280Y-76448920D02*
X99776280Y-76052680D01*
X100375720Y-76448920D02*
X99776280Y-76448920D01*
D15*
%TO.C,U4*%
X94430500Y-83260500D02*
G75*
G03*
X94430500Y-83260500I-100000J0D01*
G01*
D16*
X95325500Y-82805500D02*
X96825500Y-82805500D01*
X95325500Y-85215500D02*
X96825500Y-85215500D01*
D15*
%TO.C,U1*%
X112138000Y-86788000D02*
G75*
G03*
X112138000Y-86788000I-100000J0D01*
G01*
D17*
%TO.C,SW1*%
X112736500Y-93098500D02*
G75*
G03*
X112736500Y-93098500I-125000J0D01*
G01*
D18*
X109061500Y-97223500D02*
X109061500Y-97448500D01*
X109061500Y-97448500D02*
X113061500Y-97448500D01*
X113061500Y-97223500D02*
X113061500Y-97448500D01*
X108316500Y-97473500D02*
X113806500Y-97473500D01*
X108316500Y-93623500D02*
X108316500Y-97473500D01*
X113806500Y-93623500D02*
X108316500Y-93623500D01*
X113806500Y-97473500D02*
X113806500Y-93623500D01*
D17*
%TO.C,SW4*%
X109636500Y-75621000D02*
G75*
G03*
X109636500Y-75621000I-125000J0D01*
G01*
D18*
X113061500Y-71496000D02*
X113061500Y-71271000D01*
X113061500Y-71271000D02*
X109061500Y-71271000D01*
X109061500Y-71496000D02*
X109061500Y-71271000D01*
X113806500Y-71246000D02*
X108316500Y-71246000D01*
X113806500Y-75096000D02*
X113806500Y-71246000D01*
X108316500Y-75096000D02*
X113806500Y-75096000D01*
X108316500Y-71246000D02*
X108316500Y-75096000D01*
D17*
%TO.C,SW2*%
X91793000Y-75621000D02*
G75*
G03*
X91793000Y-75621000I-125000J0D01*
G01*
D18*
X95218000Y-71496000D02*
X95218000Y-71271000D01*
X95218000Y-71271000D02*
X91218000Y-71271000D01*
X91218000Y-71496000D02*
X91218000Y-71271000D01*
X95963000Y-71246000D02*
X90473000Y-71246000D01*
X95963000Y-75096000D02*
X95963000Y-71246000D01*
X90473000Y-75096000D02*
X95963000Y-75096000D01*
X90473000Y-71246000D02*
X90473000Y-75096000D01*
D19*
%TO.C,J1*%
X97980500Y-71564500D02*
X99250500Y-71564500D01*
X99250500Y-71564500D02*
X99885500Y-72199500D01*
X99885500Y-73469500D02*
X99250500Y-74104500D01*
X99885500Y-72199500D02*
X100520500Y-71564500D01*
X100520500Y-71564500D02*
X101790500Y-71564500D01*
X101790500Y-71564500D02*
X102425500Y-72199500D01*
X102425500Y-73469500D02*
X101790500Y-74104500D01*
X101790500Y-74104500D02*
X100520500Y-74104500D01*
X100520500Y-74104500D02*
X99885500Y-73469500D01*
X97345500Y-72199500D02*
X97345500Y-73469500D01*
X97980500Y-71564500D02*
X97345500Y-72199500D01*
X97345500Y-73469500D02*
X97980500Y-74104500D01*
X99250500Y-74104500D02*
X97980500Y-74104500D01*
X102425500Y-72199500D02*
X102425500Y-73469500D01*
D16*
%TO.C,D4*%
X97978300Y-80540100D02*
G75*
G03*
X97978300Y-80540100I-50000J0D01*
G01*
D19*
%TO.C,Q1*%
X100040440Y-90297000D02*
X99438460Y-90297000D01*
X99438460Y-90297000D02*
X99438460Y-91094560D01*
X101635560Y-90297000D02*
X102237540Y-90297000D01*
X102237540Y-90297000D02*
X102237540Y-91094560D01*
D14*
%TO.C,CS*%
X97280500Y-94931000D02*
X98680500Y-94931000D01*
X98680500Y-94931000D02*
X98680500Y-96331000D01*
X98680500Y-96331000D02*
X97280500Y-96331000D01*
X97280500Y-96331000D02*
X97280500Y-94931000D01*
%TO.C,MOSI*%
X101471500Y-94931000D02*
X102871500Y-94931000D01*
X102871500Y-94931000D02*
X102871500Y-96331000D01*
X102871500Y-96331000D02*
X101471500Y-96331000D01*
X101471500Y-96331000D02*
X101471500Y-94931000D01*
%TO.C,SCK*%
X99376000Y-94931000D02*
X100776000Y-94931000D01*
X100776000Y-94931000D02*
X100776000Y-96331000D01*
X100776000Y-96331000D02*
X99376000Y-96331000D01*
X99376000Y-96331000D02*
X99376000Y-94931000D01*
%TO.C,GND*%
X105726000Y-94931000D02*
X107126000Y-94931000D01*
X107126000Y-94931000D02*
X107126000Y-96331000D01*
X107126000Y-96331000D02*
X105726000Y-96331000D01*
X105726000Y-96331000D02*
X105726000Y-94931000D01*
%TO.C,VCC*%
X103630500Y-94931000D02*
X105030500Y-94931000D01*
X105030500Y-94931000D02*
X105030500Y-96331000D01*
X105030500Y-96331000D02*
X103630500Y-96331000D01*
X103630500Y-96331000D02*
X103630500Y-94931000D01*
D20*
%TO.C,Y1*%
X105029000Y-91059000D02*
G75*
G03*
X105029000Y-91059000I-127000J0D01*
G01*
D19*
X107350560Y-87200740D02*
X108549440Y-87200740D01*
X110548420Y-88600280D02*
X110548420Y-89199720D01*
X108549440Y-90599260D02*
X107350560Y-90599260D01*
X105351580Y-88600280D02*
X105351580Y-89199720D01*
D17*
%TO.C,SW3*%
X94893000Y-93098500D02*
G75*
G03*
X94893000Y-93098500I-125000J0D01*
G01*
D18*
X91218000Y-97223500D02*
X91218000Y-97448500D01*
X91218000Y-97448500D02*
X95218000Y-97448500D01*
X95218000Y-97223500D02*
X95218000Y-97448500D01*
X90473000Y-97473500D02*
X95963000Y-97473500D01*
X90473000Y-93623500D02*
X90473000Y-97473500D01*
X95963000Y-93623500D02*
X90473000Y-93623500D01*
X95963000Y-97473500D02*
X95963000Y-93623500D01*
D12*
%TO.C,C1*%
X113388060Y-90568780D02*
X112991820Y-90568780D01*
X112991820Y-90568780D02*
X112991820Y-91168220D01*
X113388060Y-91168220D02*
X112991820Y-91168220D01*
X113388060Y-90568780D02*
X113388060Y-91168220D01*
%TO.C,C2*%
X109545120Y-91838780D02*
X109148880Y-91838780D01*
X109148880Y-91838780D02*
X109148880Y-92438220D01*
X109545120Y-92438220D02*
X109148880Y-92438220D01*
X109545120Y-91838780D02*
X109545120Y-92438220D01*
%TO.C,C5*%
X109402880Y-86405720D02*
X109799120Y-86405720D01*
X109799120Y-86405720D02*
X109799120Y-85806280D01*
X109402880Y-85806280D02*
X109799120Y-85806280D01*
X109402880Y-86405720D02*
X109402880Y-85806280D01*
%TO.C,C6*%
X106497120Y-85806280D02*
X106100880Y-85806280D01*
X106100880Y-85806280D02*
X106100880Y-86405720D01*
X106497120Y-86405720D02*
X106100880Y-86405720D01*
X106497120Y-85806280D02*
X106497120Y-86405720D01*
%TO.C,C7*%
X93108780Y-90797380D02*
X93108780Y-91193620D01*
X93108780Y-91193620D02*
X93708220Y-91193620D01*
X93708220Y-90797380D02*
X93708220Y-91193620D01*
X93108780Y-90797380D02*
X93708220Y-90797380D01*
%TO.C,C10*%
X104576880Y-75928220D02*
X104973120Y-75928220D01*
X104973120Y-75928220D02*
X104973120Y-75328780D01*
X104576880Y-75328780D02*
X104973120Y-75328780D01*
X104576880Y-75928220D02*
X104576880Y-75328780D01*
%TO.C,C11*%
X100766880Y-82151220D02*
X101163120Y-82151220D01*
X101163120Y-82151220D02*
X101163120Y-81551780D01*
X100766880Y-81551780D02*
X101163120Y-81551780D01*
X100766880Y-82151220D02*
X100766880Y-81551780D01*
%TO.C,C12*%
X101442520Y-83291680D02*
X101046280Y-83291680D01*
X101046280Y-83291680D02*
X101046280Y-83891120D01*
X101442520Y-83891120D02*
X101046280Y-83891120D01*
X101442520Y-83291680D02*
X101442520Y-83891120D01*
%TO.C,C14*%
X112958880Y-83802220D02*
X113355120Y-83802220D01*
X113355120Y-83802220D02*
X113355120Y-83202780D01*
X112958880Y-83202780D02*
X113355120Y-83202780D01*
X112958880Y-83802220D02*
X112958880Y-83202780D01*
%TO.C,C15*%
X112958880Y-82278220D02*
X113355120Y-82278220D01*
X113355120Y-82278220D02*
X113355120Y-81678780D01*
X112958880Y-81678780D02*
X113355120Y-81678780D01*
X112958880Y-82278220D02*
X112958880Y-81678780D01*
%TO.C,C16*%
X112958880Y-77515720D02*
X113355120Y-77515720D01*
X113355120Y-77515720D02*
X113355120Y-76916280D01*
X112958880Y-76916280D02*
X113355120Y-76916280D01*
X112958880Y-77515720D02*
X112958880Y-76916280D01*
%TO.C,C17*%
X94152720Y-83012280D02*
X94152720Y-82616040D01*
X94152720Y-82616040D02*
X93553280Y-82616040D01*
X93553280Y-83012280D02*
X93553280Y-82616040D01*
X94152720Y-83012280D02*
X93553280Y-83012280D01*
%TO.C,C18*%
X96464120Y-81615280D02*
X96067880Y-81615280D01*
X96067880Y-81615280D02*
X96067880Y-82214720D01*
X96464120Y-82214720D02*
X96067880Y-82214720D01*
X96464120Y-81615280D02*
X96464120Y-82214720D01*
%TO.C,L1*%
X98673920Y-84526120D02*
X98673920Y-84129880D01*
X98673920Y-84129880D02*
X98074480Y-84129880D01*
X98074480Y-84526120D02*
X98074480Y-84129880D01*
X98673920Y-84526120D02*
X98074480Y-84526120D01*
%TO.C,R1*%
X95295720Y-91180920D02*
X95295720Y-90784680D01*
X95295720Y-90784680D02*
X94696280Y-90784680D01*
X94696280Y-91180920D02*
X94696280Y-90784680D01*
X95295720Y-91180920D02*
X94696280Y-91180920D01*
%TO.C,R2*%
X93553280Y-85907880D02*
X93553280Y-86304120D01*
X93553280Y-86304120D02*
X94152720Y-86304120D01*
X94152720Y-85907880D02*
X94152720Y-86304120D01*
X93553280Y-85907880D02*
X94152720Y-85907880D01*
%TO.C,R3*%
X97073720Y-91193620D02*
X97073720Y-90797380D01*
X97073720Y-90797380D02*
X96474280Y-90797380D01*
X96474280Y-91193620D02*
X96474280Y-90797380D01*
X97073720Y-91193620D02*
X96474280Y-91193620D01*
%TO.C,R4*%
X103220520Y-86466680D02*
X102824280Y-86466680D01*
X102824280Y-86466680D02*
X102824280Y-87066120D01*
X103220520Y-87066120D02*
X102824280Y-87066120D01*
X103220520Y-86466680D02*
X103220520Y-87066120D01*
%TO.C,R5*%
X96464120Y-78478380D02*
X96067880Y-78478380D01*
X96067880Y-78478380D02*
X96067880Y-79077820D01*
X96464120Y-79077820D02*
X96067880Y-79077820D01*
X96464120Y-78478380D02*
X96464120Y-79077820D01*
%TO.C,R6*%
X104312720Y-89352120D02*
X104312720Y-88955880D01*
X104312720Y-88955880D02*
X103713280Y-88955880D01*
X103713280Y-89352120D02*
X103713280Y-88955880D01*
X104312720Y-89352120D02*
X103713280Y-89352120D01*
%TO.C,R7*%
X96464120Y-80040480D02*
X96067880Y-80040480D01*
X96067880Y-80040480D02*
X96067880Y-80639920D01*
X96464120Y-80639920D02*
X96067880Y-80639920D01*
X96464120Y-80040480D02*
X96464120Y-80639920D01*
%TO.C,R8*%
X98661220Y-91193620D02*
X98661220Y-90797380D01*
X98661220Y-90797380D02*
X98061780Y-90797380D01*
X98061780Y-91193620D02*
X98061780Y-90797380D01*
X98661220Y-91193620D02*
X98061780Y-91193620D01*
%TO.C,R9*%
X115933220Y-88084180D02*
X115933220Y-87687940D01*
X115933220Y-87687940D02*
X115333780Y-87687940D01*
X115333780Y-88084180D02*
X115333780Y-87687940D01*
X115933220Y-88084180D02*
X115333780Y-88084180D01*
%TO.C,R10*%
X95666560Y-87193120D02*
X95666560Y-86796880D01*
X95666560Y-86796880D02*
X95067120Y-86796880D01*
X95067120Y-87193120D02*
X95067120Y-86796880D01*
X95666560Y-87193120D02*
X95067120Y-87193120D01*
%TO.C,R11*%
X101442520Y-84917280D02*
X101046280Y-84917280D01*
X101046280Y-84917280D02*
X101046280Y-85516720D01*
X101442520Y-85516720D02*
X101046280Y-85516720D01*
X101442520Y-84917280D02*
X101442520Y-85516720D01*
%TO.C,R12*%
X101554280Y-76052680D02*
X101554280Y-76448920D01*
X101554280Y-76448920D02*
X102153720Y-76448920D01*
X102153720Y-76052680D02*
X102153720Y-76448920D01*
X101554280Y-76052680D02*
X102153720Y-76052680D01*
%TO.C,R13*%
X113355120Y-85044280D02*
X112958880Y-85044280D01*
X112958880Y-85044280D02*
X112958880Y-85643720D01*
X113355120Y-85643720D02*
X112958880Y-85643720D01*
X113355120Y-85044280D02*
X113355120Y-85643720D01*
%TO.C,R14*%
X113355120Y-80091280D02*
X112958880Y-80091280D01*
X112958880Y-80091280D02*
X112958880Y-80690720D01*
X113355120Y-80690720D02*
X112958880Y-80690720D01*
X113355120Y-80091280D02*
X113355120Y-80690720D01*
%TO.C,R15*%
X113355120Y-78503780D02*
X112958880Y-78503780D01*
X112958880Y-78503780D02*
X112958880Y-79103220D01*
X113355120Y-79103220D02*
X112958880Y-79103220D01*
X113355120Y-78503780D02*
X113355120Y-79103220D01*
%TO.C,R16*%
X96575880Y-86771480D02*
X96575880Y-87167720D01*
X96575880Y-87167720D02*
X97175320Y-87167720D01*
X97175320Y-86771480D02*
X97175320Y-87167720D01*
X96575880Y-86771480D02*
X97175320Y-86771480D01*
%TO.C,CS*%
D10*
X97897166Y-94437971D02*
X97873357Y-94461780D01*
X97801928Y-94485590D01*
X97754309Y-94485590D01*
X97682880Y-94461780D01*
X97635261Y-94414161D01*
X97611452Y-94366542D01*
X97587642Y-94271304D01*
X97587642Y-94199876D01*
X97611452Y-94104638D01*
X97635261Y-94057019D01*
X97682880Y-94009400D01*
X97754309Y-93985590D01*
X97801928Y-93985590D01*
X97873357Y-94009400D01*
X97897166Y-94033209D01*
X98087642Y-94461780D02*
X98159071Y-94485590D01*
X98278119Y-94485590D01*
X98325738Y-94461780D01*
X98349547Y-94437971D01*
X98373357Y-94390352D01*
X98373357Y-94342733D01*
X98349547Y-94295114D01*
X98325738Y-94271304D01*
X98278119Y-94247495D01*
X98182880Y-94223685D01*
X98135261Y-94199876D01*
X98111452Y-94176066D01*
X98087642Y-94128447D01*
X98087642Y-94080828D01*
X98111452Y-94033209D01*
X98135261Y-94009400D01*
X98182880Y-93985590D01*
X98301928Y-93985590D01*
X98373357Y-94009400D01*
%TO.C,MOSI*%
X101334985Y-94485590D02*
X101334985Y-93985590D01*
X101501652Y-94342733D01*
X101668319Y-93985590D01*
X101668319Y-94485590D01*
X102001652Y-93985590D02*
X102096890Y-93985590D01*
X102144509Y-94009400D01*
X102192128Y-94057019D01*
X102215938Y-94152257D01*
X102215938Y-94318923D01*
X102192128Y-94414161D01*
X102144509Y-94461780D01*
X102096890Y-94485590D01*
X102001652Y-94485590D01*
X101954033Y-94461780D01*
X101906414Y-94414161D01*
X101882604Y-94318923D01*
X101882604Y-94152257D01*
X101906414Y-94057019D01*
X101954033Y-94009400D01*
X102001652Y-93985590D01*
X102406414Y-94461780D02*
X102477842Y-94485590D01*
X102596890Y-94485590D01*
X102644509Y-94461780D01*
X102668319Y-94437971D01*
X102692128Y-94390352D01*
X102692128Y-94342733D01*
X102668319Y-94295114D01*
X102644509Y-94271304D01*
X102596890Y-94247495D01*
X102501652Y-94223685D01*
X102454033Y-94199876D01*
X102430223Y-94176066D01*
X102406414Y-94128447D01*
X102406414Y-94080828D01*
X102430223Y-94033209D01*
X102454033Y-94009400D01*
X102501652Y-93985590D01*
X102620700Y-93985590D01*
X102692128Y-94009400D01*
X102906414Y-94485590D02*
X102906414Y-93985590D01*
%TO.C,SCK*%
X99433142Y-94461780D02*
X99504571Y-94485590D01*
X99623619Y-94485590D01*
X99671238Y-94461780D01*
X99695047Y-94437971D01*
X99718857Y-94390352D01*
X99718857Y-94342733D01*
X99695047Y-94295114D01*
X99671238Y-94271304D01*
X99623619Y-94247495D01*
X99528380Y-94223685D01*
X99480761Y-94199876D01*
X99456952Y-94176066D01*
X99433142Y-94128447D01*
X99433142Y-94080828D01*
X99456952Y-94033209D01*
X99480761Y-94009400D01*
X99528380Y-93985590D01*
X99647428Y-93985590D01*
X99718857Y-94009400D01*
X100218857Y-94437971D02*
X100195047Y-94461780D01*
X100123619Y-94485590D01*
X100076000Y-94485590D01*
X100004571Y-94461780D01*
X99956952Y-94414161D01*
X99933142Y-94366542D01*
X99909333Y-94271304D01*
X99909333Y-94199876D01*
X99933142Y-94104638D01*
X99956952Y-94057019D01*
X100004571Y-94009400D01*
X100076000Y-93985590D01*
X100123619Y-93985590D01*
X100195047Y-94009400D01*
X100218857Y-94033209D01*
X100433142Y-94485590D02*
X100433142Y-93985590D01*
X100718857Y-94485590D02*
X100504571Y-94199876D01*
X100718857Y-93985590D02*
X100433142Y-94271304D01*
%TO.C,GND*%
X106045047Y-94009400D02*
X105997428Y-93985590D01*
X105926000Y-93985590D01*
X105854571Y-94009400D01*
X105806952Y-94057019D01*
X105783142Y-94104638D01*
X105759333Y-94199876D01*
X105759333Y-94271304D01*
X105783142Y-94366542D01*
X105806952Y-94414161D01*
X105854571Y-94461780D01*
X105926000Y-94485590D01*
X105973619Y-94485590D01*
X106045047Y-94461780D01*
X106068857Y-94437971D01*
X106068857Y-94271304D01*
X105973619Y-94271304D01*
X106283142Y-94485590D02*
X106283142Y-93985590D01*
X106568857Y-94485590D01*
X106568857Y-93985590D01*
X106806952Y-94485590D02*
X106806952Y-93985590D01*
X106926000Y-93985590D01*
X106997428Y-94009400D01*
X107045047Y-94057019D01*
X107068857Y-94104638D01*
X107092666Y-94199876D01*
X107092666Y-94271304D01*
X107068857Y-94366542D01*
X107045047Y-94414161D01*
X106997428Y-94461780D01*
X106926000Y-94485590D01*
X106806952Y-94485590D01*
%TO.C,VCC*%
X103668432Y-93985590D02*
X103835099Y-94485590D01*
X104001765Y-93985590D01*
X104454146Y-94437971D02*
X104430337Y-94461780D01*
X104358908Y-94485590D01*
X104311289Y-94485590D01*
X104239860Y-94461780D01*
X104192241Y-94414161D01*
X104168432Y-94366542D01*
X104144622Y-94271304D01*
X104144622Y-94199876D01*
X104168432Y-94104638D01*
X104192241Y-94057019D01*
X104239860Y-94009400D01*
X104311289Y-93985590D01*
X104358908Y-93985590D01*
X104430337Y-94009400D01*
X104454146Y-94033209D01*
X104954146Y-94437971D02*
X104930337Y-94461780D01*
X104858908Y-94485590D01*
X104811289Y-94485590D01*
X104739860Y-94461780D01*
X104692241Y-94414161D01*
X104668432Y-94366542D01*
X104644622Y-94271304D01*
X104644622Y-94199876D01*
X104668432Y-94104638D01*
X104692241Y-94057019D01*
X104739860Y-94009400D01*
X104811289Y-93985590D01*
X104858908Y-93985590D01*
X104930337Y-94009400D01*
X104954146Y-94033209D01*
%TD*%
M02*
