%TF.GenerationSoftware,KiCad,Pcbnew,(5.1.6)-1*%
%TF.CreationDate,2020-10-28T17:18:19+01:00*%
%TF.ProjectId,ArduinoProMicroUSB,41726475-696e-46f5-9072-6f4d6963726f,rev?*%
%TF.SameCoordinates,Original*%
%TF.FileFunction,Copper,L3,Inr*%
%TF.FilePolarity,Positive*%
%FSLAX46Y46*%
G04 Gerber Fmt 4.6, Leading zero omitted, Abs format (unit mm)*
G04 Created by KiCad (PCBNEW (5.1.6)-1) date 2020-10-28 17:18:19*
%MOMM*%
%LPD*%
G01*
G04 APERTURE LIST*
%TA.AperFunction,WasherPad*%
%ADD10C,1.300000*%
%TD*%
%TA.AperFunction,ViaPad*%
%ADD11R,1.500000X1.500000*%
%TD*%
%TA.AperFunction,ViaPad*%
%ADD12C,0.600000*%
%TD*%
%TA.AperFunction,ViaPad*%
%ADD13C,0.800000*%
%TD*%
%TA.AperFunction,Conductor*%
%ADD14C,0.250000*%
%TD*%
%TA.AperFunction,Conductor*%
%ADD15C,0.254000*%
%TD*%
G04 APERTURE END LIST*
D10*
%TO.N,*%
%TO.C,REF\u002A\u002A*%
X156286200Y-75717400D03*
%TD*%
%TO.N,*%
%TO.C,REF\u002A\u002A*%
X127762000Y-75717400D03*
%TD*%
%TO.N,*%
%TO.C,REF\u002A\u002A*%
X127812800Y-99136200D03*
%TD*%
%TO.N,*%
%TO.C,REF\u002A\u002A*%
X156311600Y-99136200D03*
%TD*%
D11*
%TO.N,GND*%
%TO.C,GND*%
X128701800Y-95402400D03*
%TD*%
%TO.N,VCC*%
%TO.C,VCC*%
X128701800Y-93116400D03*
%TD*%
%TO.N,3.3V*%
%TO.C,3.3*%
X128701800Y-90830400D03*
%TD*%
%TO.N,/D2*%
%TO.C,SDA*%
X128701800Y-88544400D03*
%TD*%
%TO.N,/D3*%
%TO.C,SCL*%
X128701800Y-86258400D03*
%TD*%
%TO.N,/CS*%
%TO.C,CS*%
X128701800Y-83972400D03*
%TD*%
%TO.N,/MOSI*%
%TO.C,MOSI*%
X128701800Y-81546700D03*
%TD*%
%TO.N,/SCK*%
%TO.C,SCK*%
X128701800Y-79133700D03*
%TD*%
D12*
%TO.N,3.3V*%
X149275800Y-96774000D03*
X152933400Y-94564200D03*
X134874000Y-81407000D03*
X156997400Y-77368400D03*
X143103600Y-90220800D03*
X149250400Y-89357200D03*
X149504400Y-81483200D03*
X141528800Y-81483200D03*
X155194000Y-81610200D03*
%TO.N,GND*%
X152755600Y-97612200D03*
X140462000Y-76835000D03*
X139585700Y-93599000D03*
X143002000Y-75946000D03*
X154533600Y-76327000D03*
X149275800Y-94157800D03*
X135001000Y-86360000D03*
X134975600Y-84988400D03*
X141173200Y-85039200D03*
X148691600Y-81483200D03*
X142341600Y-81483200D03*
X153822400Y-81584800D03*
D13*
X136042400Y-79502000D03*
X140563600Y-80060800D03*
X133553200Y-83185000D03*
X136880600Y-75387200D03*
D12*
X149250400Y-90170000D03*
X143916400Y-90220800D03*
X154432000Y-91465400D03*
%TO.N,/LEDK*%
X153111200Y-76327000D03*
%TO.N,/D4*%
X149250400Y-88468200D03*
%TO.N,/CS*%
X141935200Y-89814400D03*
%TO.N,/D5*%
X149809200Y-83464400D03*
%TO.N,/SCK*%
X141173200Y-88188800D03*
%TO.N,/MOSI*%
X141173200Y-89052400D03*
%TO.N,/BTN1*%
X142036800Y-82346800D03*
%TO.N,/D2*%
X156006800Y-92811600D03*
X150380700Y-91770200D03*
%TO.N,/D3*%
X146329400Y-90220800D03*
%TO.N,/D12*%
X152933400Y-95453200D03*
X149275800Y-87426800D03*
%TO.N,/D11*%
X156006800Y-94615000D03*
X140665200Y-91541600D03*
%TO.N,/32K*%
X155981400Y-95529400D03*
X154533600Y-82296000D03*
%TD*%
D14*
%TO.N,/CS*%
X141884400Y-89865200D02*
X141935200Y-89814400D01*
X141060998Y-89865200D02*
X141884400Y-89865200D01*
X131216400Y-83972400D02*
X136778999Y-89534999D01*
X128701800Y-83972400D02*
X131216400Y-83972400D01*
X136778999Y-89534999D02*
X140730798Y-89535000D01*
X140730798Y-89535000D02*
X141060998Y-89865200D01*
%TO.N,/SCK*%
X138597801Y-85613401D02*
X134130221Y-85613401D01*
X141173200Y-88188800D02*
X138597801Y-85613401D01*
X134130221Y-85613401D02*
X130498010Y-81981190D01*
X130498010Y-80929910D02*
X128701800Y-79133700D01*
X130498010Y-81981190D02*
X130498010Y-80929910D01*
%TO.N,/MOSI*%
X141140610Y-89084990D02*
X141173200Y-89052400D01*
X136965400Y-89084990D02*
X141140610Y-89084990D01*
X129427110Y-81546700D02*
X128701800Y-81546700D01*
X136965400Y-89084990D02*
X129427110Y-81546700D01*
%TO.N,/D12*%
X150535801Y-88153401D02*
X149809200Y-87426800D01*
X150535801Y-89484803D02*
X150535801Y-88153401D01*
X154731999Y-93681001D02*
X150535801Y-89484803D01*
X149809200Y-87426800D02*
X149275800Y-87426800D01*
X154731999Y-94619801D02*
X154731999Y-93681001D01*
X153898600Y-95453200D02*
X154731999Y-94619801D01*
X152933400Y-95453200D02*
X153898600Y-95453200D01*
%TO.N,/32K*%
X154533600Y-82296000D02*
X155182008Y-82944408D01*
X155182008Y-94730008D02*
X155182008Y-94704608D01*
X155981400Y-95529400D02*
X155182008Y-94730008D01*
X155182008Y-82944408D02*
X155182008Y-94704608D01*
%TD*%
D15*
%TO.N,3.3V*%
G36*
X156503141Y-74595736D02*
G01*
X156724031Y-74662426D01*
X156927766Y-74770754D01*
X157106574Y-74916587D01*
X157253655Y-75094378D01*
X157363403Y-75297352D01*
X157432093Y-75519252D01*
X157455000Y-75701524D01*
X157454761Y-99105319D01*
X157436570Y-99336555D01*
X157376230Y-99551245D01*
X157275338Y-99750127D01*
X157137735Y-99925630D01*
X156968673Y-100071055D01*
X156774574Y-100180879D01*
X156562847Y-100250907D01*
X156335125Y-100279279D01*
X156310490Y-100279602D01*
X127844573Y-100304984D01*
X127608386Y-100286492D01*
X127388849Y-100224880D01*
X127185467Y-100121803D01*
X127005975Y-99981181D01*
X126857219Y-99808377D01*
X126744857Y-99609967D01*
X126673175Y-99393516D01*
X126644189Y-99161577D01*
X126644000Y-99110241D01*
X126644003Y-99039974D01*
X126835800Y-99039974D01*
X126835800Y-99232426D01*
X126873346Y-99421180D01*
X126946994Y-99598983D01*
X127053915Y-99759001D01*
X127189999Y-99895085D01*
X127350017Y-100002006D01*
X127527820Y-100075654D01*
X127716574Y-100113200D01*
X127909026Y-100113200D01*
X128097780Y-100075654D01*
X128275583Y-100002006D01*
X128435601Y-99895085D01*
X128571685Y-99759001D01*
X128678606Y-99598983D01*
X128752254Y-99421180D01*
X128789800Y-99232426D01*
X128789800Y-99039974D01*
X155334600Y-99039974D01*
X155334600Y-99232426D01*
X155372146Y-99421180D01*
X155445794Y-99598983D01*
X155552715Y-99759001D01*
X155688799Y-99895085D01*
X155848817Y-100002006D01*
X156026620Y-100075654D01*
X156215374Y-100113200D01*
X156407826Y-100113200D01*
X156596580Y-100075654D01*
X156774383Y-100002006D01*
X156934401Y-99895085D01*
X157070485Y-99759001D01*
X157177406Y-99598983D01*
X157251054Y-99421180D01*
X157288600Y-99232426D01*
X157288600Y-99039974D01*
X157251054Y-98851220D01*
X157177406Y-98673417D01*
X157070485Y-98513399D01*
X156934401Y-98377315D01*
X156774383Y-98270394D01*
X156596580Y-98196746D01*
X156407826Y-98159200D01*
X156215374Y-98159200D01*
X156026620Y-98196746D01*
X155848817Y-98270394D01*
X155688799Y-98377315D01*
X155552715Y-98513399D01*
X155445794Y-98673417D01*
X155372146Y-98851220D01*
X155334600Y-99039974D01*
X128789800Y-99039974D01*
X128752254Y-98851220D01*
X128678606Y-98673417D01*
X128571685Y-98513399D01*
X128435601Y-98377315D01*
X128275583Y-98270394D01*
X128097780Y-98196746D01*
X127909026Y-98159200D01*
X127716574Y-98159200D01*
X127527820Y-98196746D01*
X127350017Y-98270394D01*
X127189999Y-98377315D01*
X127053915Y-98513399D01*
X126946994Y-98673417D01*
X126873346Y-98851220D01*
X126835800Y-99039974D01*
X126644003Y-99039974D01*
X126644070Y-97550446D01*
X152128600Y-97550446D01*
X152128600Y-97673954D01*
X152152695Y-97795089D01*
X152199960Y-97909196D01*
X152268577Y-98011889D01*
X152355911Y-98099223D01*
X152458604Y-98167840D01*
X152572711Y-98215105D01*
X152693846Y-98239200D01*
X152817354Y-98239200D01*
X152938489Y-98215105D01*
X153052596Y-98167840D01*
X153155289Y-98099223D01*
X153242623Y-98011889D01*
X153311240Y-97909196D01*
X153358505Y-97795089D01*
X153382600Y-97673954D01*
X153382600Y-97550446D01*
X153358505Y-97429311D01*
X153311240Y-97315204D01*
X153242623Y-97212511D01*
X153155289Y-97125177D01*
X153052596Y-97056560D01*
X152938489Y-97009295D01*
X152817354Y-96985200D01*
X152693846Y-96985200D01*
X152572711Y-97009295D01*
X152458604Y-97056560D01*
X152355911Y-97125177D01*
X152268577Y-97212511D01*
X152199960Y-97315204D01*
X152152695Y-97429311D01*
X152128600Y-97550446D01*
X126644070Y-97550446D01*
X126644201Y-94652400D01*
X127623218Y-94652400D01*
X127623218Y-96152400D01*
X127629532Y-96216503D01*
X127648230Y-96278143D01*
X127678594Y-96334950D01*
X127719457Y-96384743D01*
X127769250Y-96425606D01*
X127826057Y-96455970D01*
X127887697Y-96474668D01*
X127951800Y-96480982D01*
X129451800Y-96480982D01*
X129515903Y-96474668D01*
X129577543Y-96455970D01*
X129634350Y-96425606D01*
X129684143Y-96384743D01*
X129725006Y-96334950D01*
X129755370Y-96278143D01*
X129774068Y-96216503D01*
X129780382Y-96152400D01*
X129780382Y-94652400D01*
X129774068Y-94588297D01*
X129755370Y-94526657D01*
X129725006Y-94469850D01*
X129684143Y-94420057D01*
X129634350Y-94379194D01*
X129577543Y-94348830D01*
X129515903Y-94330132D01*
X129451800Y-94323818D01*
X127951800Y-94323818D01*
X127887697Y-94330132D01*
X127826057Y-94348830D01*
X127769250Y-94379194D01*
X127719457Y-94420057D01*
X127678594Y-94469850D01*
X127648230Y-94526657D01*
X127629532Y-94588297D01*
X127623218Y-94652400D01*
X126644201Y-94652400D01*
X126644340Y-91580400D01*
X127313728Y-91580400D01*
X127325988Y-91704882D01*
X127362298Y-91824580D01*
X127421263Y-91934894D01*
X127500615Y-92031585D01*
X127597306Y-92110937D01*
X127695401Y-92163371D01*
X127678594Y-92183850D01*
X127648230Y-92240657D01*
X127629532Y-92302297D01*
X127623218Y-92366400D01*
X127623218Y-93866400D01*
X127629532Y-93930503D01*
X127648230Y-93992143D01*
X127678594Y-94048950D01*
X127719457Y-94098743D01*
X127769250Y-94139606D01*
X127826057Y-94169970D01*
X127887697Y-94188668D01*
X127951800Y-94194982D01*
X129451800Y-94194982D01*
X129515903Y-94188668D01*
X129577543Y-94169970D01*
X129634350Y-94139606D01*
X129684143Y-94098743D01*
X129725006Y-94048950D01*
X129755370Y-93992143D01*
X129774068Y-93930503D01*
X129780382Y-93866400D01*
X129780382Y-93537246D01*
X138958700Y-93537246D01*
X138958700Y-93660754D01*
X138982795Y-93781889D01*
X139030060Y-93895996D01*
X139098677Y-93998689D01*
X139186011Y-94086023D01*
X139288704Y-94154640D01*
X139402811Y-94201905D01*
X139523946Y-94226000D01*
X139647454Y-94226000D01*
X139768589Y-94201905D01*
X139882696Y-94154640D01*
X139970388Y-94096046D01*
X148648800Y-94096046D01*
X148648800Y-94219554D01*
X148672895Y-94340689D01*
X148720160Y-94454796D01*
X148788777Y-94557489D01*
X148876111Y-94644823D01*
X148978804Y-94713440D01*
X149092911Y-94760705D01*
X149214046Y-94784800D01*
X149337554Y-94784800D01*
X149458689Y-94760705D01*
X149572796Y-94713440D01*
X149675489Y-94644823D01*
X149762823Y-94557489D01*
X149831440Y-94454796D01*
X149878705Y-94340689D01*
X149902800Y-94219554D01*
X149902800Y-94096046D01*
X149878705Y-93974911D01*
X149831440Y-93860804D01*
X149762823Y-93758111D01*
X149675489Y-93670777D01*
X149572796Y-93602160D01*
X149458689Y-93554895D01*
X149337554Y-93530800D01*
X149214046Y-93530800D01*
X149092911Y-93554895D01*
X148978804Y-93602160D01*
X148876111Y-93670777D01*
X148788777Y-93758111D01*
X148720160Y-93860804D01*
X148672895Y-93974911D01*
X148648800Y-94096046D01*
X139970388Y-94096046D01*
X139985389Y-94086023D01*
X140072723Y-93998689D01*
X140141340Y-93895996D01*
X140188605Y-93781889D01*
X140212700Y-93660754D01*
X140212700Y-93537246D01*
X140188605Y-93416111D01*
X140141340Y-93302004D01*
X140072723Y-93199311D01*
X139985389Y-93111977D01*
X139882696Y-93043360D01*
X139768589Y-92996095D01*
X139647454Y-92972000D01*
X139523946Y-92972000D01*
X139402811Y-92996095D01*
X139288704Y-93043360D01*
X139186011Y-93111977D01*
X139098677Y-93199311D01*
X139030060Y-93302004D01*
X138982795Y-93416111D01*
X138958700Y-93537246D01*
X129780382Y-93537246D01*
X129780382Y-92366400D01*
X129774068Y-92302297D01*
X129755370Y-92240657D01*
X129725006Y-92183850D01*
X129708199Y-92163371D01*
X129806294Y-92110937D01*
X129902985Y-92031585D01*
X129982337Y-91934894D01*
X130041302Y-91824580D01*
X130077612Y-91704882D01*
X130089872Y-91580400D01*
X130089207Y-91479846D01*
X140038200Y-91479846D01*
X140038200Y-91603354D01*
X140062295Y-91724489D01*
X140109560Y-91838596D01*
X140178177Y-91941289D01*
X140265511Y-92028623D01*
X140368204Y-92097240D01*
X140482311Y-92144505D01*
X140603446Y-92168600D01*
X140726954Y-92168600D01*
X140848089Y-92144505D01*
X140962196Y-92097240D01*
X141064889Y-92028623D01*
X141152223Y-91941289D01*
X141220840Y-91838596D01*
X141268105Y-91724489D01*
X141271296Y-91708446D01*
X149753700Y-91708446D01*
X149753700Y-91831954D01*
X149777795Y-91953089D01*
X149825060Y-92067196D01*
X149893677Y-92169889D01*
X149981011Y-92257223D01*
X150083704Y-92325840D01*
X150197811Y-92373105D01*
X150318946Y-92397200D01*
X150442454Y-92397200D01*
X150563589Y-92373105D01*
X150677696Y-92325840D01*
X150780389Y-92257223D01*
X150867723Y-92169889D01*
X150936340Y-92067196D01*
X150983605Y-91953089D01*
X151007700Y-91831954D01*
X151007700Y-91708446D01*
X150983605Y-91587311D01*
X150936340Y-91473204D01*
X150867723Y-91370511D01*
X150780389Y-91283177D01*
X150677696Y-91214560D01*
X150563589Y-91167295D01*
X150442454Y-91143200D01*
X150318946Y-91143200D01*
X150197811Y-91167295D01*
X150083704Y-91214560D01*
X149981011Y-91283177D01*
X149893677Y-91370511D01*
X149825060Y-91473204D01*
X149777795Y-91587311D01*
X149753700Y-91708446D01*
X141271296Y-91708446D01*
X141292200Y-91603354D01*
X141292200Y-91479846D01*
X141268105Y-91358711D01*
X141220840Y-91244604D01*
X141152223Y-91141911D01*
X141064889Y-91054577D01*
X140962196Y-90985960D01*
X140848089Y-90938695D01*
X140726954Y-90914600D01*
X140603446Y-90914600D01*
X140482311Y-90938695D01*
X140368204Y-90985960D01*
X140265511Y-91054577D01*
X140178177Y-91141911D01*
X140109560Y-91244604D01*
X140062295Y-91358711D01*
X140038200Y-91479846D01*
X130089207Y-91479846D01*
X130086800Y-91116150D01*
X129928050Y-90957400D01*
X128828800Y-90957400D01*
X128828800Y-90977400D01*
X128574800Y-90977400D01*
X128574800Y-90957400D01*
X127475550Y-90957400D01*
X127316800Y-91116150D01*
X127313728Y-91580400D01*
X126644340Y-91580400D01*
X126644407Y-90080400D01*
X127313728Y-90080400D01*
X127316800Y-90544650D01*
X127475550Y-90703400D01*
X128574800Y-90703400D01*
X128574800Y-90683400D01*
X128828800Y-90683400D01*
X128828800Y-90703400D01*
X129928050Y-90703400D01*
X130086800Y-90544650D01*
X130089872Y-90080400D01*
X130077612Y-89955918D01*
X130041302Y-89836220D01*
X129982337Y-89725906D01*
X129902985Y-89629215D01*
X129806294Y-89549863D01*
X129708199Y-89497429D01*
X129725006Y-89476950D01*
X129755370Y-89420143D01*
X129774068Y-89358503D01*
X129780382Y-89294400D01*
X129780382Y-87794400D01*
X129774068Y-87730297D01*
X129755370Y-87668657D01*
X129725006Y-87611850D01*
X129684143Y-87562057D01*
X129634350Y-87521194D01*
X129577543Y-87490830D01*
X129515903Y-87472132D01*
X129451800Y-87465818D01*
X127951800Y-87465818D01*
X127887697Y-87472132D01*
X127826057Y-87490830D01*
X127769250Y-87521194D01*
X127719457Y-87562057D01*
X127678594Y-87611850D01*
X127648230Y-87668657D01*
X127629532Y-87730297D01*
X127623218Y-87794400D01*
X127623218Y-89294400D01*
X127629532Y-89358503D01*
X127648230Y-89420143D01*
X127678594Y-89476950D01*
X127695401Y-89497429D01*
X127597306Y-89549863D01*
X127500615Y-89629215D01*
X127421263Y-89725906D01*
X127362298Y-89836220D01*
X127325988Y-89955918D01*
X127313728Y-90080400D01*
X126644407Y-90080400D01*
X126644613Y-85508400D01*
X127623218Y-85508400D01*
X127623218Y-87008400D01*
X127629532Y-87072503D01*
X127648230Y-87134143D01*
X127678594Y-87190950D01*
X127719457Y-87240743D01*
X127769250Y-87281606D01*
X127826057Y-87311970D01*
X127887697Y-87330668D01*
X127951800Y-87336982D01*
X129451800Y-87336982D01*
X129515903Y-87330668D01*
X129577543Y-87311970D01*
X129634350Y-87281606D01*
X129684143Y-87240743D01*
X129725006Y-87190950D01*
X129755370Y-87134143D01*
X129774068Y-87072503D01*
X129780382Y-87008400D01*
X129780382Y-85508400D01*
X129774068Y-85444297D01*
X129755370Y-85382657D01*
X129725006Y-85325850D01*
X129684143Y-85276057D01*
X129634350Y-85235194D01*
X129577543Y-85204830D01*
X129515903Y-85186132D01*
X129451800Y-85179818D01*
X127951800Y-85179818D01*
X127887697Y-85186132D01*
X127826057Y-85204830D01*
X127769250Y-85235194D01*
X127719457Y-85276057D01*
X127678594Y-85325850D01*
X127648230Y-85382657D01*
X127629532Y-85444297D01*
X127623218Y-85508400D01*
X126644613Y-85508400D01*
X126644936Y-78383700D01*
X127623218Y-78383700D01*
X127623218Y-79883700D01*
X127629532Y-79947803D01*
X127648230Y-80009443D01*
X127678594Y-80066250D01*
X127719457Y-80116043D01*
X127769250Y-80156906D01*
X127826057Y-80187270D01*
X127887697Y-80205968D01*
X127951800Y-80212282D01*
X129141159Y-80212282D01*
X129396994Y-80468118D01*
X127951800Y-80468118D01*
X127887697Y-80474432D01*
X127826057Y-80493130D01*
X127769250Y-80523494D01*
X127719457Y-80564357D01*
X127678594Y-80614150D01*
X127648230Y-80670957D01*
X127629532Y-80732597D01*
X127623218Y-80796700D01*
X127623218Y-82296700D01*
X127629532Y-82360803D01*
X127648230Y-82422443D01*
X127678594Y-82479250D01*
X127719457Y-82529043D01*
X127769250Y-82569906D01*
X127826057Y-82600270D01*
X127887697Y-82618968D01*
X127951800Y-82625282D01*
X129451800Y-82625282D01*
X129515903Y-82618968D01*
X129577543Y-82600270D01*
X129634350Y-82569906D01*
X129684143Y-82529043D01*
X129722946Y-82481760D01*
X130761587Y-83520400D01*
X129780382Y-83520400D01*
X129780382Y-83222400D01*
X129774068Y-83158297D01*
X129755370Y-83096657D01*
X129725006Y-83039850D01*
X129684143Y-82990057D01*
X129634350Y-82949194D01*
X129577543Y-82918830D01*
X129515903Y-82900132D01*
X129451800Y-82893818D01*
X127951800Y-82893818D01*
X127887697Y-82900132D01*
X127826057Y-82918830D01*
X127769250Y-82949194D01*
X127719457Y-82990057D01*
X127678594Y-83039850D01*
X127648230Y-83096657D01*
X127629532Y-83158297D01*
X127623218Y-83222400D01*
X127623218Y-84722400D01*
X127629532Y-84786503D01*
X127648230Y-84848143D01*
X127678594Y-84904950D01*
X127719457Y-84954743D01*
X127769250Y-84995606D01*
X127826057Y-85025970D01*
X127887697Y-85044668D01*
X127951800Y-85050982D01*
X129451800Y-85050982D01*
X129515903Y-85044668D01*
X129577543Y-85025970D01*
X129634350Y-84995606D01*
X129684143Y-84954743D01*
X129725006Y-84904950D01*
X129755370Y-84848143D01*
X129774068Y-84786503D01*
X129780382Y-84722400D01*
X129780382Y-84424400D01*
X131029177Y-84424400D01*
X136443685Y-89838909D01*
X136457840Y-89856157D01*
X136475088Y-89870312D01*
X136526665Y-89912641D01*
X136605189Y-89954613D01*
X136690391Y-89980459D01*
X136778999Y-89989186D01*
X136801214Y-89986998D01*
X140543574Y-89987000D01*
X140725683Y-90169110D01*
X140739839Y-90186359D01*
X140808665Y-90242843D01*
X140887188Y-90284814D01*
X140941941Y-90301423D01*
X140972390Y-90310660D01*
X141060997Y-90319387D01*
X141083202Y-90317200D01*
X141559123Y-90317200D01*
X141638204Y-90370040D01*
X141752311Y-90417305D01*
X141873446Y-90441400D01*
X141996954Y-90441400D01*
X142118089Y-90417305D01*
X142232196Y-90370040D01*
X142334889Y-90301423D01*
X142422223Y-90214089D01*
X142459001Y-90159046D01*
X143289400Y-90159046D01*
X143289400Y-90282554D01*
X143313495Y-90403689D01*
X143360760Y-90517796D01*
X143429377Y-90620489D01*
X143516711Y-90707823D01*
X143619404Y-90776440D01*
X143733511Y-90823705D01*
X143854646Y-90847800D01*
X143978154Y-90847800D01*
X144099289Y-90823705D01*
X144213396Y-90776440D01*
X144316089Y-90707823D01*
X144403423Y-90620489D01*
X144472040Y-90517796D01*
X144519305Y-90403689D01*
X144543400Y-90282554D01*
X144543400Y-90159046D01*
X145702400Y-90159046D01*
X145702400Y-90282554D01*
X145726495Y-90403689D01*
X145773760Y-90517796D01*
X145842377Y-90620489D01*
X145929711Y-90707823D01*
X146032404Y-90776440D01*
X146146511Y-90823705D01*
X146267646Y-90847800D01*
X146391154Y-90847800D01*
X146512289Y-90823705D01*
X146626396Y-90776440D01*
X146729089Y-90707823D01*
X146816423Y-90620489D01*
X146885040Y-90517796D01*
X146932305Y-90403689D01*
X146956400Y-90282554D01*
X146956400Y-90159046D01*
X146946296Y-90108246D01*
X148623400Y-90108246D01*
X148623400Y-90231754D01*
X148647495Y-90352889D01*
X148694760Y-90466996D01*
X148763377Y-90569689D01*
X148850711Y-90657023D01*
X148953404Y-90725640D01*
X149067511Y-90772905D01*
X149188646Y-90797000D01*
X149312154Y-90797000D01*
X149433289Y-90772905D01*
X149547396Y-90725640D01*
X149650089Y-90657023D01*
X149737423Y-90569689D01*
X149806040Y-90466996D01*
X149853305Y-90352889D01*
X149877400Y-90231754D01*
X149877400Y-90108246D01*
X149853305Y-89987111D01*
X149806040Y-89873004D01*
X149737423Y-89770311D01*
X149650089Y-89682977D01*
X149547396Y-89614360D01*
X149433289Y-89567095D01*
X149312154Y-89543000D01*
X149188646Y-89543000D01*
X149067511Y-89567095D01*
X148953404Y-89614360D01*
X148850711Y-89682977D01*
X148763377Y-89770311D01*
X148694760Y-89873004D01*
X148647495Y-89987111D01*
X148623400Y-90108246D01*
X146946296Y-90108246D01*
X146932305Y-90037911D01*
X146885040Y-89923804D01*
X146816423Y-89821111D01*
X146729089Y-89733777D01*
X146626396Y-89665160D01*
X146512289Y-89617895D01*
X146391154Y-89593800D01*
X146267646Y-89593800D01*
X146146511Y-89617895D01*
X146032404Y-89665160D01*
X145929711Y-89733777D01*
X145842377Y-89821111D01*
X145773760Y-89923804D01*
X145726495Y-90037911D01*
X145702400Y-90159046D01*
X144543400Y-90159046D01*
X144519305Y-90037911D01*
X144472040Y-89923804D01*
X144403423Y-89821111D01*
X144316089Y-89733777D01*
X144213396Y-89665160D01*
X144099289Y-89617895D01*
X143978154Y-89593800D01*
X143854646Y-89593800D01*
X143733511Y-89617895D01*
X143619404Y-89665160D01*
X143516711Y-89733777D01*
X143429377Y-89821111D01*
X143360760Y-89923804D01*
X143313495Y-90037911D01*
X143289400Y-90159046D01*
X142459001Y-90159046D01*
X142490840Y-90111396D01*
X142538105Y-89997289D01*
X142562200Y-89876154D01*
X142562200Y-89752646D01*
X142538105Y-89631511D01*
X142490840Y-89517404D01*
X142422223Y-89414711D01*
X142334889Y-89327377D01*
X142232196Y-89258760D01*
X142118089Y-89211495D01*
X141996954Y-89187400D01*
X141873446Y-89187400D01*
X141782013Y-89205587D01*
X141800200Y-89114154D01*
X141800200Y-88990646D01*
X141776105Y-88869511D01*
X141728840Y-88755404D01*
X141660223Y-88652711D01*
X141628112Y-88620600D01*
X141660223Y-88588489D01*
X141728840Y-88485796D01*
X141761708Y-88406446D01*
X148623400Y-88406446D01*
X148623400Y-88529954D01*
X148647495Y-88651089D01*
X148694760Y-88765196D01*
X148763377Y-88867889D01*
X148850711Y-88955223D01*
X148953404Y-89023840D01*
X149067511Y-89071105D01*
X149188646Y-89095200D01*
X149312154Y-89095200D01*
X149433289Y-89071105D01*
X149547396Y-89023840D01*
X149650089Y-88955223D01*
X149737423Y-88867889D01*
X149806040Y-88765196D01*
X149853305Y-88651089D01*
X149877400Y-88529954D01*
X149877400Y-88406446D01*
X149853305Y-88285311D01*
X149806040Y-88171204D01*
X149737423Y-88068511D01*
X149650089Y-87981177D01*
X149612388Y-87955986D01*
X149664405Y-87921229D01*
X150083802Y-88340626D01*
X150083801Y-89462598D01*
X150081614Y-89484803D01*
X150090341Y-89573410D01*
X150107966Y-89631511D01*
X150116187Y-89658612D01*
X150158158Y-89737135D01*
X150214642Y-89805962D01*
X150231901Y-89820126D01*
X154280000Y-93868227D01*
X154279999Y-94432576D01*
X153711377Y-95001200D01*
X153368112Y-95001200D01*
X153333089Y-94966177D01*
X153230396Y-94897560D01*
X153116289Y-94850295D01*
X152995154Y-94826200D01*
X152871646Y-94826200D01*
X152750511Y-94850295D01*
X152636404Y-94897560D01*
X152533711Y-94966177D01*
X152446377Y-95053511D01*
X152377760Y-95156204D01*
X152330495Y-95270311D01*
X152306400Y-95391446D01*
X152306400Y-95514954D01*
X152330495Y-95636089D01*
X152377760Y-95750196D01*
X152446377Y-95852889D01*
X152533711Y-95940223D01*
X152636404Y-96008840D01*
X152750511Y-96056105D01*
X152871646Y-96080200D01*
X152995154Y-96080200D01*
X153116289Y-96056105D01*
X153230396Y-96008840D01*
X153333089Y-95940223D01*
X153368112Y-95905200D01*
X153876395Y-95905200D01*
X153898600Y-95907387D01*
X153920805Y-95905200D01*
X153987207Y-95898660D01*
X154072410Y-95872814D01*
X154150933Y-95830843D01*
X154219759Y-95774359D01*
X154233923Y-95757100D01*
X154901901Y-95089124D01*
X155354400Y-95541624D01*
X155354400Y-95591154D01*
X155378495Y-95712289D01*
X155425760Y-95826396D01*
X155494377Y-95929089D01*
X155581711Y-96016423D01*
X155684404Y-96085040D01*
X155798511Y-96132305D01*
X155919646Y-96156400D01*
X156043154Y-96156400D01*
X156164289Y-96132305D01*
X156278396Y-96085040D01*
X156381089Y-96016423D01*
X156468423Y-95929089D01*
X156537040Y-95826396D01*
X156584305Y-95712289D01*
X156608400Y-95591154D01*
X156608400Y-95467646D01*
X156584305Y-95346511D01*
X156537040Y-95232404D01*
X156468423Y-95129711D01*
X156423612Y-95084900D01*
X156493823Y-95014689D01*
X156562440Y-94911996D01*
X156609705Y-94797889D01*
X156633800Y-94676754D01*
X156633800Y-94553246D01*
X156609705Y-94432111D01*
X156562440Y-94318004D01*
X156493823Y-94215311D01*
X156406489Y-94127977D01*
X156303796Y-94059360D01*
X156189689Y-94012095D01*
X156068554Y-93988000D01*
X155945046Y-93988000D01*
X155823911Y-94012095D01*
X155709804Y-94059360D01*
X155634008Y-94110005D01*
X155634008Y-93316595D01*
X155709804Y-93367240D01*
X155823911Y-93414505D01*
X155945046Y-93438600D01*
X156068554Y-93438600D01*
X156189689Y-93414505D01*
X156303796Y-93367240D01*
X156406489Y-93298623D01*
X156493823Y-93211289D01*
X156562440Y-93108596D01*
X156609705Y-92994489D01*
X156633800Y-92873354D01*
X156633800Y-92749846D01*
X156609705Y-92628711D01*
X156562440Y-92514604D01*
X156493823Y-92411911D01*
X156406489Y-92324577D01*
X156303796Y-92255960D01*
X156189689Y-92208695D01*
X156068554Y-92184600D01*
X155945046Y-92184600D01*
X155823911Y-92208695D01*
X155709804Y-92255960D01*
X155634008Y-92306605D01*
X155634008Y-82966612D01*
X155636195Y-82944407D01*
X155627468Y-82855800D01*
X155620801Y-82833823D01*
X155601622Y-82770598D01*
X155559651Y-82692075D01*
X155503167Y-82623249D01*
X155485919Y-82609094D01*
X155160600Y-82283776D01*
X155160600Y-82234246D01*
X155136505Y-82113111D01*
X155089240Y-81999004D01*
X155020623Y-81896311D01*
X154933289Y-81808977D01*
X154830596Y-81740360D01*
X154716489Y-81693095D01*
X154595354Y-81669000D01*
X154471846Y-81669000D01*
X154443827Y-81674573D01*
X154449400Y-81646554D01*
X154449400Y-81523046D01*
X154425305Y-81401911D01*
X154378040Y-81287804D01*
X154309423Y-81185111D01*
X154222089Y-81097777D01*
X154119396Y-81029160D01*
X154005289Y-80981895D01*
X153884154Y-80957800D01*
X153760646Y-80957800D01*
X153639511Y-80981895D01*
X153525404Y-81029160D01*
X153422711Y-81097777D01*
X153335377Y-81185111D01*
X153266760Y-81287804D01*
X153219495Y-81401911D01*
X153195400Y-81523046D01*
X153195400Y-81646554D01*
X153219495Y-81767689D01*
X153266760Y-81881796D01*
X153335377Y-81984489D01*
X153422711Y-82071823D01*
X153525404Y-82140440D01*
X153639511Y-82187705D01*
X153760646Y-82211800D01*
X153884154Y-82211800D01*
X153912173Y-82206227D01*
X153906600Y-82234246D01*
X153906600Y-82357754D01*
X153930695Y-82478889D01*
X153977960Y-82592996D01*
X154046577Y-82695689D01*
X154133911Y-82783023D01*
X154236604Y-82851640D01*
X154350711Y-82898905D01*
X154471846Y-82923000D01*
X154521376Y-82923000D01*
X154730008Y-83131633D01*
X154730009Y-90910437D01*
X154728996Y-90909760D01*
X154614889Y-90862495D01*
X154493754Y-90838400D01*
X154370246Y-90838400D01*
X154249111Y-90862495D01*
X154135004Y-90909760D01*
X154032311Y-90978377D01*
X153944977Y-91065711D01*
X153876360Y-91168404D01*
X153829095Y-91282511D01*
X153805000Y-91403646D01*
X153805000Y-91527154D01*
X153829095Y-91648289D01*
X153876360Y-91762396D01*
X153944977Y-91865089D01*
X154032311Y-91952423D01*
X154135004Y-92021040D01*
X154249111Y-92068305D01*
X154370246Y-92092400D01*
X154493754Y-92092400D01*
X154614889Y-92068305D01*
X154728996Y-92021040D01*
X154730009Y-92020363D01*
X154730009Y-93039786D01*
X150987801Y-89297580D01*
X150987801Y-88175606D01*
X150989988Y-88153401D01*
X150981261Y-88064793D01*
X150955415Y-87979591D01*
X150932364Y-87936466D01*
X150913444Y-87901068D01*
X150856960Y-87832242D01*
X150839706Y-87818082D01*
X150144523Y-87122900D01*
X150130359Y-87105641D01*
X150061533Y-87049157D01*
X149983010Y-87007186D01*
X149897807Y-86981340D01*
X149831405Y-86974800D01*
X149809200Y-86972613D01*
X149786995Y-86974800D01*
X149710512Y-86974800D01*
X149675489Y-86939777D01*
X149572796Y-86871160D01*
X149458689Y-86823895D01*
X149337554Y-86799800D01*
X149214046Y-86799800D01*
X149092911Y-86823895D01*
X148978804Y-86871160D01*
X148876111Y-86939777D01*
X148788777Y-87027111D01*
X148720160Y-87129804D01*
X148672895Y-87243911D01*
X148648800Y-87365046D01*
X148648800Y-87488554D01*
X148672895Y-87609689D01*
X148720160Y-87723796D01*
X148788777Y-87826489D01*
X148876111Y-87913823D01*
X148913812Y-87939014D01*
X148850711Y-87981177D01*
X148763377Y-88068511D01*
X148694760Y-88171204D01*
X148647495Y-88285311D01*
X148623400Y-88406446D01*
X141761708Y-88406446D01*
X141776105Y-88371689D01*
X141800200Y-88250554D01*
X141800200Y-88127046D01*
X141776105Y-88005911D01*
X141728840Y-87891804D01*
X141660223Y-87789111D01*
X141572889Y-87701777D01*
X141470196Y-87633160D01*
X141356089Y-87585895D01*
X141234954Y-87561800D01*
X141185425Y-87561800D01*
X138933124Y-85309501D01*
X138918960Y-85292242D01*
X138850134Y-85235758D01*
X138771611Y-85193787D01*
X138686408Y-85167941D01*
X138620006Y-85161401D01*
X138597801Y-85159214D01*
X138575596Y-85161401D01*
X135580472Y-85161401D01*
X135602600Y-85050154D01*
X135602600Y-84977446D01*
X140546200Y-84977446D01*
X140546200Y-85100954D01*
X140570295Y-85222089D01*
X140617560Y-85336196D01*
X140686177Y-85438889D01*
X140773511Y-85526223D01*
X140876204Y-85594840D01*
X140990311Y-85642105D01*
X141111446Y-85666200D01*
X141234954Y-85666200D01*
X141356089Y-85642105D01*
X141470196Y-85594840D01*
X141572889Y-85526223D01*
X141660223Y-85438889D01*
X141728840Y-85336196D01*
X141776105Y-85222089D01*
X141800200Y-85100954D01*
X141800200Y-84977446D01*
X141776105Y-84856311D01*
X141728840Y-84742204D01*
X141660223Y-84639511D01*
X141572889Y-84552177D01*
X141470196Y-84483560D01*
X141356089Y-84436295D01*
X141234954Y-84412200D01*
X141111446Y-84412200D01*
X140990311Y-84436295D01*
X140876204Y-84483560D01*
X140773511Y-84552177D01*
X140686177Y-84639511D01*
X140617560Y-84742204D01*
X140570295Y-84856311D01*
X140546200Y-84977446D01*
X135602600Y-84977446D01*
X135602600Y-84926646D01*
X135578505Y-84805511D01*
X135531240Y-84691404D01*
X135462623Y-84588711D01*
X135375289Y-84501377D01*
X135272596Y-84432760D01*
X135158489Y-84385495D01*
X135037354Y-84361400D01*
X134913846Y-84361400D01*
X134792711Y-84385495D01*
X134678604Y-84432760D01*
X134575911Y-84501377D01*
X134488577Y-84588711D01*
X134419960Y-84691404D01*
X134372695Y-84805511D01*
X134348600Y-84926646D01*
X134348600Y-85050154D01*
X134370728Y-85161401D01*
X134317445Y-85161401D01*
X132269441Y-83113397D01*
X132826200Y-83113397D01*
X132826200Y-83256603D01*
X132854138Y-83397058D01*
X132908941Y-83529364D01*
X132988502Y-83648436D01*
X133089764Y-83749698D01*
X133208836Y-83829259D01*
X133341142Y-83884062D01*
X133481597Y-83912000D01*
X133624803Y-83912000D01*
X133765258Y-83884062D01*
X133897564Y-83829259D01*
X134016636Y-83749698D01*
X134117898Y-83648436D01*
X134197459Y-83529364D01*
X134249947Y-83402646D01*
X149182200Y-83402646D01*
X149182200Y-83526154D01*
X149206295Y-83647289D01*
X149253560Y-83761396D01*
X149322177Y-83864089D01*
X149409511Y-83951423D01*
X149512204Y-84020040D01*
X149626311Y-84067305D01*
X149747446Y-84091400D01*
X149870954Y-84091400D01*
X149992089Y-84067305D01*
X150106196Y-84020040D01*
X150208889Y-83951423D01*
X150296223Y-83864089D01*
X150364840Y-83761396D01*
X150412105Y-83647289D01*
X150436200Y-83526154D01*
X150436200Y-83402646D01*
X150412105Y-83281511D01*
X150364840Y-83167404D01*
X150296223Y-83064711D01*
X150208889Y-82977377D01*
X150106196Y-82908760D01*
X149992089Y-82861495D01*
X149870954Y-82837400D01*
X149747446Y-82837400D01*
X149626311Y-82861495D01*
X149512204Y-82908760D01*
X149409511Y-82977377D01*
X149322177Y-83064711D01*
X149253560Y-83167404D01*
X149206295Y-83281511D01*
X149182200Y-83402646D01*
X134249947Y-83402646D01*
X134252262Y-83397058D01*
X134280200Y-83256603D01*
X134280200Y-83113397D01*
X134252262Y-82972942D01*
X134197459Y-82840636D01*
X134117898Y-82721564D01*
X134016636Y-82620302D01*
X133897564Y-82540741D01*
X133765258Y-82485938D01*
X133624803Y-82458000D01*
X133481597Y-82458000D01*
X133341142Y-82485938D01*
X133208836Y-82540741D01*
X133089764Y-82620302D01*
X132988502Y-82721564D01*
X132908941Y-82840636D01*
X132854138Y-82972942D01*
X132826200Y-83113397D01*
X132269441Y-83113397D01*
X131441090Y-82285046D01*
X141409800Y-82285046D01*
X141409800Y-82408554D01*
X141433895Y-82529689D01*
X141481160Y-82643796D01*
X141549777Y-82746489D01*
X141637111Y-82833823D01*
X141739804Y-82902440D01*
X141853911Y-82949705D01*
X141975046Y-82973800D01*
X142098554Y-82973800D01*
X142219689Y-82949705D01*
X142333796Y-82902440D01*
X142436489Y-82833823D01*
X142523823Y-82746489D01*
X142592440Y-82643796D01*
X142639705Y-82529689D01*
X142663800Y-82408554D01*
X142663800Y-82285046D01*
X142639705Y-82163911D01*
X142595323Y-82056764D01*
X142638596Y-82038840D01*
X142741289Y-81970223D01*
X142828623Y-81882889D01*
X142897240Y-81780196D01*
X142944505Y-81666089D01*
X142968600Y-81544954D01*
X142968600Y-81421446D01*
X148064600Y-81421446D01*
X148064600Y-81544954D01*
X148088695Y-81666089D01*
X148135960Y-81780196D01*
X148204577Y-81882889D01*
X148291911Y-81970223D01*
X148394604Y-82038840D01*
X148508711Y-82086105D01*
X148629846Y-82110200D01*
X148753354Y-82110200D01*
X148874489Y-82086105D01*
X148988596Y-82038840D01*
X149091289Y-81970223D01*
X149178623Y-81882889D01*
X149247240Y-81780196D01*
X149294505Y-81666089D01*
X149318600Y-81544954D01*
X149318600Y-81421446D01*
X149294505Y-81300311D01*
X149247240Y-81186204D01*
X149178623Y-81083511D01*
X149091289Y-80996177D01*
X148988596Y-80927560D01*
X148874489Y-80880295D01*
X148753354Y-80856200D01*
X148629846Y-80856200D01*
X148508711Y-80880295D01*
X148394604Y-80927560D01*
X148291911Y-80996177D01*
X148204577Y-81083511D01*
X148135960Y-81186204D01*
X148088695Y-81300311D01*
X148064600Y-81421446D01*
X142968600Y-81421446D01*
X142944505Y-81300311D01*
X142897240Y-81186204D01*
X142828623Y-81083511D01*
X142741289Y-80996177D01*
X142638596Y-80927560D01*
X142524489Y-80880295D01*
X142403354Y-80856200D01*
X142279846Y-80856200D01*
X142158711Y-80880295D01*
X142044604Y-80927560D01*
X141941911Y-80996177D01*
X141854577Y-81083511D01*
X141785960Y-81186204D01*
X141738695Y-81300311D01*
X141714600Y-81421446D01*
X141714600Y-81544954D01*
X141738695Y-81666089D01*
X141783077Y-81773236D01*
X141739804Y-81791160D01*
X141637111Y-81859777D01*
X141549777Y-81947111D01*
X141481160Y-82049804D01*
X141433895Y-82163911D01*
X141409800Y-82285046D01*
X131441090Y-82285046D01*
X130950010Y-81793967D01*
X130950010Y-80952115D01*
X130952197Y-80929910D01*
X130943470Y-80841302D01*
X130917624Y-80756100D01*
X130875653Y-80677577D01*
X130819169Y-80608751D01*
X130801915Y-80594591D01*
X129780382Y-79573059D01*
X129780382Y-79430397D01*
X135315400Y-79430397D01*
X135315400Y-79573603D01*
X135343338Y-79714058D01*
X135398141Y-79846364D01*
X135477702Y-79965436D01*
X135578964Y-80066698D01*
X135698036Y-80146259D01*
X135830342Y-80201062D01*
X135970797Y-80229000D01*
X136114003Y-80229000D01*
X136254458Y-80201062D01*
X136386764Y-80146259D01*
X136505836Y-80066698D01*
X136583337Y-79989197D01*
X139836600Y-79989197D01*
X139836600Y-80132403D01*
X139864538Y-80272858D01*
X139919341Y-80405164D01*
X139998902Y-80524236D01*
X140100164Y-80625498D01*
X140219236Y-80705059D01*
X140351542Y-80759862D01*
X140491997Y-80787800D01*
X140635203Y-80787800D01*
X140775658Y-80759862D01*
X140907964Y-80705059D01*
X141027036Y-80625498D01*
X141128298Y-80524236D01*
X141207859Y-80405164D01*
X141262662Y-80272858D01*
X141290600Y-80132403D01*
X141290600Y-79989197D01*
X141262662Y-79848742D01*
X141207859Y-79716436D01*
X141128298Y-79597364D01*
X141027036Y-79496102D01*
X140907964Y-79416541D01*
X140775658Y-79361738D01*
X140635203Y-79333800D01*
X140491997Y-79333800D01*
X140351542Y-79361738D01*
X140219236Y-79416541D01*
X140100164Y-79496102D01*
X139998902Y-79597364D01*
X139919341Y-79716436D01*
X139864538Y-79848742D01*
X139836600Y-79989197D01*
X136583337Y-79989197D01*
X136607098Y-79965436D01*
X136686659Y-79846364D01*
X136741462Y-79714058D01*
X136769400Y-79573603D01*
X136769400Y-79430397D01*
X136741462Y-79289942D01*
X136686659Y-79157636D01*
X136607098Y-79038564D01*
X136505836Y-78937302D01*
X136386764Y-78857741D01*
X136254458Y-78802938D01*
X136114003Y-78775000D01*
X135970797Y-78775000D01*
X135830342Y-78802938D01*
X135698036Y-78857741D01*
X135578964Y-78937302D01*
X135477702Y-79038564D01*
X135398141Y-79157636D01*
X135343338Y-79289942D01*
X135315400Y-79430397D01*
X129780382Y-79430397D01*
X129780382Y-78383700D01*
X129774068Y-78319597D01*
X129755370Y-78257957D01*
X129725006Y-78201150D01*
X129684143Y-78151357D01*
X129634350Y-78110494D01*
X129577543Y-78080130D01*
X129515903Y-78061432D01*
X129451800Y-78055118D01*
X127951800Y-78055118D01*
X127887697Y-78061432D01*
X127826057Y-78080130D01*
X127769250Y-78110494D01*
X127719457Y-78151357D01*
X127678594Y-78201150D01*
X127648230Y-78257957D01*
X127629532Y-78319597D01*
X127623218Y-78383700D01*
X126644936Y-78383700D01*
X126645009Y-76773246D01*
X139835000Y-76773246D01*
X139835000Y-76896754D01*
X139859095Y-77017889D01*
X139906360Y-77131996D01*
X139974977Y-77234689D01*
X140062311Y-77322023D01*
X140165004Y-77390640D01*
X140279111Y-77437905D01*
X140400246Y-77462000D01*
X140523754Y-77462000D01*
X140644889Y-77437905D01*
X140758996Y-77390640D01*
X140861689Y-77322023D01*
X140949023Y-77234689D01*
X141017640Y-77131996D01*
X141064905Y-77017889D01*
X141089000Y-76896754D01*
X141089000Y-76773246D01*
X141064905Y-76652111D01*
X141017640Y-76538004D01*
X140949023Y-76435311D01*
X140861689Y-76347977D01*
X140758996Y-76279360D01*
X140644889Y-76232095D01*
X140523754Y-76208000D01*
X140400246Y-76208000D01*
X140279111Y-76232095D01*
X140165004Y-76279360D01*
X140062311Y-76347977D01*
X139974977Y-76435311D01*
X139906360Y-76538004D01*
X139859095Y-76652111D01*
X139835000Y-76773246D01*
X126645009Y-76773246D01*
X126645056Y-75748139D01*
X126652294Y-75621174D01*
X126785000Y-75621174D01*
X126785000Y-75813626D01*
X126822546Y-76002380D01*
X126896194Y-76180183D01*
X127003115Y-76340201D01*
X127139199Y-76476285D01*
X127299217Y-76583206D01*
X127477020Y-76656854D01*
X127665774Y-76694400D01*
X127858226Y-76694400D01*
X128046980Y-76656854D01*
X128224783Y-76583206D01*
X128384801Y-76476285D01*
X128520885Y-76340201D01*
X128627806Y-76180183D01*
X128701454Y-76002380D01*
X128739000Y-75813626D01*
X128739000Y-75621174D01*
X128701454Y-75432420D01*
X128653065Y-75315597D01*
X136153600Y-75315597D01*
X136153600Y-75458803D01*
X136181538Y-75599258D01*
X136236341Y-75731564D01*
X136315902Y-75850636D01*
X136417164Y-75951898D01*
X136536236Y-76031459D01*
X136668542Y-76086262D01*
X136808997Y-76114200D01*
X136952203Y-76114200D01*
X137092658Y-76086262D01*
X137224964Y-76031459D01*
X137344036Y-75951898D01*
X137411688Y-75884246D01*
X142375000Y-75884246D01*
X142375000Y-76007754D01*
X142399095Y-76128889D01*
X142446360Y-76242996D01*
X142514977Y-76345689D01*
X142602311Y-76433023D01*
X142705004Y-76501640D01*
X142819111Y-76548905D01*
X142940246Y-76573000D01*
X143063754Y-76573000D01*
X143184889Y-76548905D01*
X143298996Y-76501640D01*
X143401689Y-76433023D01*
X143489023Y-76345689D01*
X143542773Y-76265246D01*
X152484200Y-76265246D01*
X152484200Y-76388754D01*
X152508295Y-76509889D01*
X152555560Y-76623996D01*
X152624177Y-76726689D01*
X152711511Y-76814023D01*
X152814204Y-76882640D01*
X152928311Y-76929905D01*
X153049446Y-76954000D01*
X153172954Y-76954000D01*
X153294089Y-76929905D01*
X153408196Y-76882640D01*
X153510889Y-76814023D01*
X153598223Y-76726689D01*
X153666840Y-76623996D01*
X153714105Y-76509889D01*
X153738200Y-76388754D01*
X153738200Y-76265246D01*
X153906600Y-76265246D01*
X153906600Y-76388754D01*
X153930695Y-76509889D01*
X153977960Y-76623996D01*
X154046577Y-76726689D01*
X154133911Y-76814023D01*
X154236604Y-76882640D01*
X154350711Y-76929905D01*
X154471846Y-76954000D01*
X154595354Y-76954000D01*
X154716489Y-76929905D01*
X154830596Y-76882640D01*
X154933289Y-76814023D01*
X155020623Y-76726689D01*
X155089240Y-76623996D01*
X155136505Y-76509889D01*
X155160600Y-76388754D01*
X155160600Y-76265246D01*
X155136505Y-76144111D01*
X155089240Y-76030004D01*
X155020623Y-75927311D01*
X154933289Y-75839977D01*
X154830596Y-75771360D01*
X154716489Y-75724095D01*
X154595354Y-75700000D01*
X154471846Y-75700000D01*
X154350711Y-75724095D01*
X154236604Y-75771360D01*
X154133911Y-75839977D01*
X154046577Y-75927311D01*
X153977960Y-76030004D01*
X153930695Y-76144111D01*
X153906600Y-76265246D01*
X153738200Y-76265246D01*
X153714105Y-76144111D01*
X153666840Y-76030004D01*
X153598223Y-75927311D01*
X153510889Y-75839977D01*
X153408196Y-75771360D01*
X153294089Y-75724095D01*
X153172954Y-75700000D01*
X153049446Y-75700000D01*
X152928311Y-75724095D01*
X152814204Y-75771360D01*
X152711511Y-75839977D01*
X152624177Y-75927311D01*
X152555560Y-76030004D01*
X152508295Y-76144111D01*
X152484200Y-76265246D01*
X143542773Y-76265246D01*
X143557640Y-76242996D01*
X143604905Y-76128889D01*
X143629000Y-76007754D01*
X143629000Y-75884246D01*
X143604905Y-75763111D01*
X143557640Y-75649004D01*
X143539045Y-75621174D01*
X155309200Y-75621174D01*
X155309200Y-75813626D01*
X155346746Y-76002380D01*
X155420394Y-76180183D01*
X155527315Y-76340201D01*
X155663399Y-76476285D01*
X155823417Y-76583206D01*
X156001220Y-76656854D01*
X156189974Y-76694400D01*
X156382426Y-76694400D01*
X156571180Y-76656854D01*
X156748983Y-76583206D01*
X156909001Y-76476285D01*
X157045085Y-76340201D01*
X157152006Y-76180183D01*
X157225654Y-76002380D01*
X157263200Y-75813626D01*
X157263200Y-75621174D01*
X157225654Y-75432420D01*
X157152006Y-75254617D01*
X157045085Y-75094599D01*
X156909001Y-74958515D01*
X156748983Y-74851594D01*
X156571180Y-74777946D01*
X156382426Y-74740400D01*
X156189974Y-74740400D01*
X156001220Y-74777946D01*
X155823417Y-74851594D01*
X155663399Y-74958515D01*
X155527315Y-75094599D01*
X155420394Y-75254617D01*
X155346746Y-75432420D01*
X155309200Y-75621174D01*
X143539045Y-75621174D01*
X143489023Y-75546311D01*
X143401689Y-75458977D01*
X143298996Y-75390360D01*
X143184889Y-75343095D01*
X143063754Y-75319000D01*
X142940246Y-75319000D01*
X142819111Y-75343095D01*
X142705004Y-75390360D01*
X142602311Y-75458977D01*
X142514977Y-75546311D01*
X142446360Y-75649004D01*
X142399095Y-75763111D01*
X142375000Y-75884246D01*
X137411688Y-75884246D01*
X137445298Y-75850636D01*
X137524859Y-75731564D01*
X137579662Y-75599258D01*
X137607600Y-75458803D01*
X137607600Y-75315597D01*
X137579662Y-75175142D01*
X137524859Y-75042836D01*
X137445298Y-74923764D01*
X137344036Y-74822502D01*
X137224964Y-74742941D01*
X137092658Y-74688138D01*
X136952203Y-74660200D01*
X136808997Y-74660200D01*
X136668542Y-74688138D01*
X136536236Y-74742941D01*
X136417164Y-74822502D01*
X136315902Y-74923764D01*
X136236341Y-75042836D01*
X136181538Y-75175142D01*
X136153600Y-75315597D01*
X128653065Y-75315597D01*
X128627806Y-75254617D01*
X128520885Y-75094599D01*
X128384801Y-74958515D01*
X128224783Y-74851594D01*
X128046980Y-74777946D01*
X127858226Y-74740400D01*
X127665774Y-74740400D01*
X127477020Y-74777946D01*
X127299217Y-74851594D01*
X127139199Y-74958515D01*
X127003115Y-75094599D01*
X126896194Y-75254617D01*
X126822546Y-75432420D01*
X126785000Y-75621174D01*
X126652294Y-75621174D01*
X126658070Y-75519863D01*
X126712527Y-75308726D01*
X126806960Y-75112180D01*
X126937770Y-74937719D01*
X127099973Y-74791992D01*
X127287396Y-74680543D01*
X127492889Y-74607623D01*
X127714230Y-74575186D01*
X127763833Y-74574000D01*
X156280962Y-74574000D01*
X156281212Y-74573975D01*
X156503141Y-74595736D01*
G37*
X156503141Y-74595736D02*
X156724031Y-74662426D01*
X156927766Y-74770754D01*
X157106574Y-74916587D01*
X157253655Y-75094378D01*
X157363403Y-75297352D01*
X157432093Y-75519252D01*
X157455000Y-75701524D01*
X157454761Y-99105319D01*
X157436570Y-99336555D01*
X157376230Y-99551245D01*
X157275338Y-99750127D01*
X157137735Y-99925630D01*
X156968673Y-100071055D01*
X156774574Y-100180879D01*
X156562847Y-100250907D01*
X156335125Y-100279279D01*
X156310490Y-100279602D01*
X127844573Y-100304984D01*
X127608386Y-100286492D01*
X127388849Y-100224880D01*
X127185467Y-100121803D01*
X127005975Y-99981181D01*
X126857219Y-99808377D01*
X126744857Y-99609967D01*
X126673175Y-99393516D01*
X126644189Y-99161577D01*
X126644000Y-99110241D01*
X126644003Y-99039974D01*
X126835800Y-99039974D01*
X126835800Y-99232426D01*
X126873346Y-99421180D01*
X126946994Y-99598983D01*
X127053915Y-99759001D01*
X127189999Y-99895085D01*
X127350017Y-100002006D01*
X127527820Y-100075654D01*
X127716574Y-100113200D01*
X127909026Y-100113200D01*
X128097780Y-100075654D01*
X128275583Y-100002006D01*
X128435601Y-99895085D01*
X128571685Y-99759001D01*
X128678606Y-99598983D01*
X128752254Y-99421180D01*
X128789800Y-99232426D01*
X128789800Y-99039974D01*
X155334600Y-99039974D01*
X155334600Y-99232426D01*
X155372146Y-99421180D01*
X155445794Y-99598983D01*
X155552715Y-99759001D01*
X155688799Y-99895085D01*
X155848817Y-100002006D01*
X156026620Y-100075654D01*
X156215374Y-100113200D01*
X156407826Y-100113200D01*
X156596580Y-100075654D01*
X156774383Y-100002006D01*
X156934401Y-99895085D01*
X157070485Y-99759001D01*
X157177406Y-99598983D01*
X157251054Y-99421180D01*
X157288600Y-99232426D01*
X157288600Y-99039974D01*
X157251054Y-98851220D01*
X157177406Y-98673417D01*
X157070485Y-98513399D01*
X156934401Y-98377315D01*
X156774383Y-98270394D01*
X156596580Y-98196746D01*
X156407826Y-98159200D01*
X156215374Y-98159200D01*
X156026620Y-98196746D01*
X155848817Y-98270394D01*
X155688799Y-98377315D01*
X155552715Y-98513399D01*
X155445794Y-98673417D01*
X155372146Y-98851220D01*
X155334600Y-99039974D01*
X128789800Y-99039974D01*
X128752254Y-98851220D01*
X128678606Y-98673417D01*
X128571685Y-98513399D01*
X128435601Y-98377315D01*
X128275583Y-98270394D01*
X128097780Y-98196746D01*
X127909026Y-98159200D01*
X127716574Y-98159200D01*
X127527820Y-98196746D01*
X127350017Y-98270394D01*
X127189999Y-98377315D01*
X127053915Y-98513399D01*
X126946994Y-98673417D01*
X126873346Y-98851220D01*
X126835800Y-99039974D01*
X126644003Y-99039974D01*
X126644070Y-97550446D01*
X152128600Y-97550446D01*
X152128600Y-97673954D01*
X152152695Y-97795089D01*
X152199960Y-97909196D01*
X152268577Y-98011889D01*
X152355911Y-98099223D01*
X152458604Y-98167840D01*
X152572711Y-98215105D01*
X152693846Y-98239200D01*
X152817354Y-98239200D01*
X152938489Y-98215105D01*
X153052596Y-98167840D01*
X153155289Y-98099223D01*
X153242623Y-98011889D01*
X153311240Y-97909196D01*
X153358505Y-97795089D01*
X153382600Y-97673954D01*
X153382600Y-97550446D01*
X153358505Y-97429311D01*
X153311240Y-97315204D01*
X153242623Y-97212511D01*
X153155289Y-97125177D01*
X153052596Y-97056560D01*
X152938489Y-97009295D01*
X152817354Y-96985200D01*
X152693846Y-96985200D01*
X152572711Y-97009295D01*
X152458604Y-97056560D01*
X152355911Y-97125177D01*
X152268577Y-97212511D01*
X152199960Y-97315204D01*
X152152695Y-97429311D01*
X152128600Y-97550446D01*
X126644070Y-97550446D01*
X126644201Y-94652400D01*
X127623218Y-94652400D01*
X127623218Y-96152400D01*
X127629532Y-96216503D01*
X127648230Y-96278143D01*
X127678594Y-96334950D01*
X127719457Y-96384743D01*
X127769250Y-96425606D01*
X127826057Y-96455970D01*
X127887697Y-96474668D01*
X127951800Y-96480982D01*
X129451800Y-96480982D01*
X129515903Y-96474668D01*
X129577543Y-96455970D01*
X129634350Y-96425606D01*
X129684143Y-96384743D01*
X129725006Y-96334950D01*
X129755370Y-96278143D01*
X129774068Y-96216503D01*
X129780382Y-96152400D01*
X129780382Y-94652400D01*
X129774068Y-94588297D01*
X129755370Y-94526657D01*
X129725006Y-94469850D01*
X129684143Y-94420057D01*
X129634350Y-94379194D01*
X129577543Y-94348830D01*
X129515903Y-94330132D01*
X129451800Y-94323818D01*
X127951800Y-94323818D01*
X127887697Y-94330132D01*
X127826057Y-94348830D01*
X127769250Y-94379194D01*
X127719457Y-94420057D01*
X127678594Y-94469850D01*
X127648230Y-94526657D01*
X127629532Y-94588297D01*
X127623218Y-94652400D01*
X126644201Y-94652400D01*
X126644340Y-91580400D01*
X127313728Y-91580400D01*
X127325988Y-91704882D01*
X127362298Y-91824580D01*
X127421263Y-91934894D01*
X127500615Y-92031585D01*
X127597306Y-92110937D01*
X127695401Y-92163371D01*
X127678594Y-92183850D01*
X127648230Y-92240657D01*
X127629532Y-92302297D01*
X127623218Y-92366400D01*
X127623218Y-93866400D01*
X127629532Y-93930503D01*
X127648230Y-93992143D01*
X127678594Y-94048950D01*
X127719457Y-94098743D01*
X127769250Y-94139606D01*
X127826057Y-94169970D01*
X127887697Y-94188668D01*
X127951800Y-94194982D01*
X129451800Y-94194982D01*
X129515903Y-94188668D01*
X129577543Y-94169970D01*
X129634350Y-94139606D01*
X129684143Y-94098743D01*
X129725006Y-94048950D01*
X129755370Y-93992143D01*
X129774068Y-93930503D01*
X129780382Y-93866400D01*
X129780382Y-93537246D01*
X138958700Y-93537246D01*
X138958700Y-93660754D01*
X138982795Y-93781889D01*
X139030060Y-93895996D01*
X139098677Y-93998689D01*
X139186011Y-94086023D01*
X139288704Y-94154640D01*
X139402811Y-94201905D01*
X139523946Y-94226000D01*
X139647454Y-94226000D01*
X139768589Y-94201905D01*
X139882696Y-94154640D01*
X139970388Y-94096046D01*
X148648800Y-94096046D01*
X148648800Y-94219554D01*
X148672895Y-94340689D01*
X148720160Y-94454796D01*
X148788777Y-94557489D01*
X148876111Y-94644823D01*
X148978804Y-94713440D01*
X149092911Y-94760705D01*
X149214046Y-94784800D01*
X149337554Y-94784800D01*
X149458689Y-94760705D01*
X149572796Y-94713440D01*
X149675489Y-94644823D01*
X149762823Y-94557489D01*
X149831440Y-94454796D01*
X149878705Y-94340689D01*
X149902800Y-94219554D01*
X149902800Y-94096046D01*
X149878705Y-93974911D01*
X149831440Y-93860804D01*
X149762823Y-93758111D01*
X149675489Y-93670777D01*
X149572796Y-93602160D01*
X149458689Y-93554895D01*
X149337554Y-93530800D01*
X149214046Y-93530800D01*
X149092911Y-93554895D01*
X148978804Y-93602160D01*
X148876111Y-93670777D01*
X148788777Y-93758111D01*
X148720160Y-93860804D01*
X148672895Y-93974911D01*
X148648800Y-94096046D01*
X139970388Y-94096046D01*
X139985389Y-94086023D01*
X140072723Y-93998689D01*
X140141340Y-93895996D01*
X140188605Y-93781889D01*
X140212700Y-93660754D01*
X140212700Y-93537246D01*
X140188605Y-93416111D01*
X140141340Y-93302004D01*
X140072723Y-93199311D01*
X139985389Y-93111977D01*
X139882696Y-93043360D01*
X139768589Y-92996095D01*
X139647454Y-92972000D01*
X139523946Y-92972000D01*
X139402811Y-92996095D01*
X139288704Y-93043360D01*
X139186011Y-93111977D01*
X139098677Y-93199311D01*
X139030060Y-93302004D01*
X138982795Y-93416111D01*
X138958700Y-93537246D01*
X129780382Y-93537246D01*
X129780382Y-92366400D01*
X129774068Y-92302297D01*
X129755370Y-92240657D01*
X129725006Y-92183850D01*
X129708199Y-92163371D01*
X129806294Y-92110937D01*
X129902985Y-92031585D01*
X129982337Y-91934894D01*
X130041302Y-91824580D01*
X130077612Y-91704882D01*
X130089872Y-91580400D01*
X130089207Y-91479846D01*
X140038200Y-91479846D01*
X140038200Y-91603354D01*
X140062295Y-91724489D01*
X140109560Y-91838596D01*
X140178177Y-91941289D01*
X140265511Y-92028623D01*
X140368204Y-92097240D01*
X140482311Y-92144505D01*
X140603446Y-92168600D01*
X140726954Y-92168600D01*
X140848089Y-92144505D01*
X140962196Y-92097240D01*
X141064889Y-92028623D01*
X141152223Y-91941289D01*
X141220840Y-91838596D01*
X141268105Y-91724489D01*
X141271296Y-91708446D01*
X149753700Y-91708446D01*
X149753700Y-91831954D01*
X149777795Y-91953089D01*
X149825060Y-92067196D01*
X149893677Y-92169889D01*
X149981011Y-92257223D01*
X150083704Y-92325840D01*
X150197811Y-92373105D01*
X150318946Y-92397200D01*
X150442454Y-92397200D01*
X150563589Y-92373105D01*
X150677696Y-92325840D01*
X150780389Y-92257223D01*
X150867723Y-92169889D01*
X150936340Y-92067196D01*
X150983605Y-91953089D01*
X151007700Y-91831954D01*
X151007700Y-91708446D01*
X150983605Y-91587311D01*
X150936340Y-91473204D01*
X150867723Y-91370511D01*
X150780389Y-91283177D01*
X150677696Y-91214560D01*
X150563589Y-91167295D01*
X150442454Y-91143200D01*
X150318946Y-91143200D01*
X150197811Y-91167295D01*
X150083704Y-91214560D01*
X149981011Y-91283177D01*
X149893677Y-91370511D01*
X149825060Y-91473204D01*
X149777795Y-91587311D01*
X149753700Y-91708446D01*
X141271296Y-91708446D01*
X141292200Y-91603354D01*
X141292200Y-91479846D01*
X141268105Y-91358711D01*
X141220840Y-91244604D01*
X141152223Y-91141911D01*
X141064889Y-91054577D01*
X140962196Y-90985960D01*
X140848089Y-90938695D01*
X140726954Y-90914600D01*
X140603446Y-90914600D01*
X140482311Y-90938695D01*
X140368204Y-90985960D01*
X140265511Y-91054577D01*
X140178177Y-91141911D01*
X140109560Y-91244604D01*
X140062295Y-91358711D01*
X140038200Y-91479846D01*
X130089207Y-91479846D01*
X130086800Y-91116150D01*
X129928050Y-90957400D01*
X128828800Y-90957400D01*
X128828800Y-90977400D01*
X128574800Y-90977400D01*
X128574800Y-90957400D01*
X127475550Y-90957400D01*
X127316800Y-91116150D01*
X127313728Y-91580400D01*
X126644340Y-91580400D01*
X126644407Y-90080400D01*
X127313728Y-90080400D01*
X127316800Y-90544650D01*
X127475550Y-90703400D01*
X128574800Y-90703400D01*
X128574800Y-90683400D01*
X128828800Y-90683400D01*
X128828800Y-90703400D01*
X129928050Y-90703400D01*
X130086800Y-90544650D01*
X130089872Y-90080400D01*
X130077612Y-89955918D01*
X130041302Y-89836220D01*
X129982337Y-89725906D01*
X129902985Y-89629215D01*
X129806294Y-89549863D01*
X129708199Y-89497429D01*
X129725006Y-89476950D01*
X129755370Y-89420143D01*
X129774068Y-89358503D01*
X129780382Y-89294400D01*
X129780382Y-87794400D01*
X129774068Y-87730297D01*
X129755370Y-87668657D01*
X129725006Y-87611850D01*
X129684143Y-87562057D01*
X129634350Y-87521194D01*
X129577543Y-87490830D01*
X129515903Y-87472132D01*
X129451800Y-87465818D01*
X127951800Y-87465818D01*
X127887697Y-87472132D01*
X127826057Y-87490830D01*
X127769250Y-87521194D01*
X127719457Y-87562057D01*
X127678594Y-87611850D01*
X127648230Y-87668657D01*
X127629532Y-87730297D01*
X127623218Y-87794400D01*
X127623218Y-89294400D01*
X127629532Y-89358503D01*
X127648230Y-89420143D01*
X127678594Y-89476950D01*
X127695401Y-89497429D01*
X127597306Y-89549863D01*
X127500615Y-89629215D01*
X127421263Y-89725906D01*
X127362298Y-89836220D01*
X127325988Y-89955918D01*
X127313728Y-90080400D01*
X126644407Y-90080400D01*
X126644613Y-85508400D01*
X127623218Y-85508400D01*
X127623218Y-87008400D01*
X127629532Y-87072503D01*
X127648230Y-87134143D01*
X127678594Y-87190950D01*
X127719457Y-87240743D01*
X127769250Y-87281606D01*
X127826057Y-87311970D01*
X127887697Y-87330668D01*
X127951800Y-87336982D01*
X129451800Y-87336982D01*
X129515903Y-87330668D01*
X129577543Y-87311970D01*
X129634350Y-87281606D01*
X129684143Y-87240743D01*
X129725006Y-87190950D01*
X129755370Y-87134143D01*
X129774068Y-87072503D01*
X129780382Y-87008400D01*
X129780382Y-85508400D01*
X129774068Y-85444297D01*
X129755370Y-85382657D01*
X129725006Y-85325850D01*
X129684143Y-85276057D01*
X129634350Y-85235194D01*
X129577543Y-85204830D01*
X129515903Y-85186132D01*
X129451800Y-85179818D01*
X127951800Y-85179818D01*
X127887697Y-85186132D01*
X127826057Y-85204830D01*
X127769250Y-85235194D01*
X127719457Y-85276057D01*
X127678594Y-85325850D01*
X127648230Y-85382657D01*
X127629532Y-85444297D01*
X127623218Y-85508400D01*
X126644613Y-85508400D01*
X126644936Y-78383700D01*
X127623218Y-78383700D01*
X127623218Y-79883700D01*
X127629532Y-79947803D01*
X127648230Y-80009443D01*
X127678594Y-80066250D01*
X127719457Y-80116043D01*
X127769250Y-80156906D01*
X127826057Y-80187270D01*
X127887697Y-80205968D01*
X127951800Y-80212282D01*
X129141159Y-80212282D01*
X129396994Y-80468118D01*
X127951800Y-80468118D01*
X127887697Y-80474432D01*
X127826057Y-80493130D01*
X127769250Y-80523494D01*
X127719457Y-80564357D01*
X127678594Y-80614150D01*
X127648230Y-80670957D01*
X127629532Y-80732597D01*
X127623218Y-80796700D01*
X127623218Y-82296700D01*
X127629532Y-82360803D01*
X127648230Y-82422443D01*
X127678594Y-82479250D01*
X127719457Y-82529043D01*
X127769250Y-82569906D01*
X127826057Y-82600270D01*
X127887697Y-82618968D01*
X127951800Y-82625282D01*
X129451800Y-82625282D01*
X129515903Y-82618968D01*
X129577543Y-82600270D01*
X129634350Y-82569906D01*
X129684143Y-82529043D01*
X129722946Y-82481760D01*
X130761587Y-83520400D01*
X129780382Y-83520400D01*
X129780382Y-83222400D01*
X129774068Y-83158297D01*
X129755370Y-83096657D01*
X129725006Y-83039850D01*
X129684143Y-82990057D01*
X129634350Y-82949194D01*
X129577543Y-82918830D01*
X129515903Y-82900132D01*
X129451800Y-82893818D01*
X127951800Y-82893818D01*
X127887697Y-82900132D01*
X127826057Y-82918830D01*
X127769250Y-82949194D01*
X127719457Y-82990057D01*
X127678594Y-83039850D01*
X127648230Y-83096657D01*
X127629532Y-83158297D01*
X127623218Y-83222400D01*
X127623218Y-84722400D01*
X127629532Y-84786503D01*
X127648230Y-84848143D01*
X127678594Y-84904950D01*
X127719457Y-84954743D01*
X127769250Y-84995606D01*
X127826057Y-85025970D01*
X127887697Y-85044668D01*
X127951800Y-85050982D01*
X129451800Y-85050982D01*
X129515903Y-85044668D01*
X129577543Y-85025970D01*
X129634350Y-84995606D01*
X129684143Y-84954743D01*
X129725006Y-84904950D01*
X129755370Y-84848143D01*
X129774068Y-84786503D01*
X129780382Y-84722400D01*
X129780382Y-84424400D01*
X131029177Y-84424400D01*
X136443685Y-89838909D01*
X136457840Y-89856157D01*
X136475088Y-89870312D01*
X136526665Y-89912641D01*
X136605189Y-89954613D01*
X136690391Y-89980459D01*
X136778999Y-89989186D01*
X136801214Y-89986998D01*
X140543574Y-89987000D01*
X140725683Y-90169110D01*
X140739839Y-90186359D01*
X140808665Y-90242843D01*
X140887188Y-90284814D01*
X140941941Y-90301423D01*
X140972390Y-90310660D01*
X141060997Y-90319387D01*
X141083202Y-90317200D01*
X141559123Y-90317200D01*
X141638204Y-90370040D01*
X141752311Y-90417305D01*
X141873446Y-90441400D01*
X141996954Y-90441400D01*
X142118089Y-90417305D01*
X142232196Y-90370040D01*
X142334889Y-90301423D01*
X142422223Y-90214089D01*
X142459001Y-90159046D01*
X143289400Y-90159046D01*
X143289400Y-90282554D01*
X143313495Y-90403689D01*
X143360760Y-90517796D01*
X143429377Y-90620489D01*
X143516711Y-90707823D01*
X143619404Y-90776440D01*
X143733511Y-90823705D01*
X143854646Y-90847800D01*
X143978154Y-90847800D01*
X144099289Y-90823705D01*
X144213396Y-90776440D01*
X144316089Y-90707823D01*
X144403423Y-90620489D01*
X144472040Y-90517796D01*
X144519305Y-90403689D01*
X144543400Y-90282554D01*
X144543400Y-90159046D01*
X145702400Y-90159046D01*
X145702400Y-90282554D01*
X145726495Y-90403689D01*
X145773760Y-90517796D01*
X145842377Y-90620489D01*
X145929711Y-90707823D01*
X146032404Y-90776440D01*
X146146511Y-90823705D01*
X146267646Y-90847800D01*
X146391154Y-90847800D01*
X146512289Y-90823705D01*
X146626396Y-90776440D01*
X146729089Y-90707823D01*
X146816423Y-90620489D01*
X146885040Y-90517796D01*
X146932305Y-90403689D01*
X146956400Y-90282554D01*
X146956400Y-90159046D01*
X146946296Y-90108246D01*
X148623400Y-90108246D01*
X148623400Y-90231754D01*
X148647495Y-90352889D01*
X148694760Y-90466996D01*
X148763377Y-90569689D01*
X148850711Y-90657023D01*
X148953404Y-90725640D01*
X149067511Y-90772905D01*
X149188646Y-90797000D01*
X149312154Y-90797000D01*
X149433289Y-90772905D01*
X149547396Y-90725640D01*
X149650089Y-90657023D01*
X149737423Y-90569689D01*
X149806040Y-90466996D01*
X149853305Y-90352889D01*
X149877400Y-90231754D01*
X149877400Y-90108246D01*
X149853305Y-89987111D01*
X149806040Y-89873004D01*
X149737423Y-89770311D01*
X149650089Y-89682977D01*
X149547396Y-89614360D01*
X149433289Y-89567095D01*
X149312154Y-89543000D01*
X149188646Y-89543000D01*
X149067511Y-89567095D01*
X148953404Y-89614360D01*
X148850711Y-89682977D01*
X148763377Y-89770311D01*
X148694760Y-89873004D01*
X148647495Y-89987111D01*
X148623400Y-90108246D01*
X146946296Y-90108246D01*
X146932305Y-90037911D01*
X146885040Y-89923804D01*
X146816423Y-89821111D01*
X146729089Y-89733777D01*
X146626396Y-89665160D01*
X146512289Y-89617895D01*
X146391154Y-89593800D01*
X146267646Y-89593800D01*
X146146511Y-89617895D01*
X146032404Y-89665160D01*
X145929711Y-89733777D01*
X145842377Y-89821111D01*
X145773760Y-89923804D01*
X145726495Y-90037911D01*
X145702400Y-90159046D01*
X144543400Y-90159046D01*
X144519305Y-90037911D01*
X144472040Y-89923804D01*
X144403423Y-89821111D01*
X144316089Y-89733777D01*
X144213396Y-89665160D01*
X144099289Y-89617895D01*
X143978154Y-89593800D01*
X143854646Y-89593800D01*
X143733511Y-89617895D01*
X143619404Y-89665160D01*
X143516711Y-89733777D01*
X143429377Y-89821111D01*
X143360760Y-89923804D01*
X143313495Y-90037911D01*
X143289400Y-90159046D01*
X142459001Y-90159046D01*
X142490840Y-90111396D01*
X142538105Y-89997289D01*
X142562200Y-89876154D01*
X142562200Y-89752646D01*
X142538105Y-89631511D01*
X142490840Y-89517404D01*
X142422223Y-89414711D01*
X142334889Y-89327377D01*
X142232196Y-89258760D01*
X142118089Y-89211495D01*
X141996954Y-89187400D01*
X141873446Y-89187400D01*
X141782013Y-89205587D01*
X141800200Y-89114154D01*
X141800200Y-88990646D01*
X141776105Y-88869511D01*
X141728840Y-88755404D01*
X141660223Y-88652711D01*
X141628112Y-88620600D01*
X141660223Y-88588489D01*
X141728840Y-88485796D01*
X141761708Y-88406446D01*
X148623400Y-88406446D01*
X148623400Y-88529954D01*
X148647495Y-88651089D01*
X148694760Y-88765196D01*
X148763377Y-88867889D01*
X148850711Y-88955223D01*
X148953404Y-89023840D01*
X149067511Y-89071105D01*
X149188646Y-89095200D01*
X149312154Y-89095200D01*
X149433289Y-89071105D01*
X149547396Y-89023840D01*
X149650089Y-88955223D01*
X149737423Y-88867889D01*
X149806040Y-88765196D01*
X149853305Y-88651089D01*
X149877400Y-88529954D01*
X149877400Y-88406446D01*
X149853305Y-88285311D01*
X149806040Y-88171204D01*
X149737423Y-88068511D01*
X149650089Y-87981177D01*
X149612388Y-87955986D01*
X149664405Y-87921229D01*
X150083802Y-88340626D01*
X150083801Y-89462598D01*
X150081614Y-89484803D01*
X150090341Y-89573410D01*
X150107966Y-89631511D01*
X150116187Y-89658612D01*
X150158158Y-89737135D01*
X150214642Y-89805962D01*
X150231901Y-89820126D01*
X154280000Y-93868227D01*
X154279999Y-94432576D01*
X153711377Y-95001200D01*
X153368112Y-95001200D01*
X153333089Y-94966177D01*
X153230396Y-94897560D01*
X153116289Y-94850295D01*
X152995154Y-94826200D01*
X152871646Y-94826200D01*
X152750511Y-94850295D01*
X152636404Y-94897560D01*
X152533711Y-94966177D01*
X152446377Y-95053511D01*
X152377760Y-95156204D01*
X152330495Y-95270311D01*
X152306400Y-95391446D01*
X152306400Y-95514954D01*
X152330495Y-95636089D01*
X152377760Y-95750196D01*
X152446377Y-95852889D01*
X152533711Y-95940223D01*
X152636404Y-96008840D01*
X152750511Y-96056105D01*
X152871646Y-96080200D01*
X152995154Y-96080200D01*
X153116289Y-96056105D01*
X153230396Y-96008840D01*
X153333089Y-95940223D01*
X153368112Y-95905200D01*
X153876395Y-95905200D01*
X153898600Y-95907387D01*
X153920805Y-95905200D01*
X153987207Y-95898660D01*
X154072410Y-95872814D01*
X154150933Y-95830843D01*
X154219759Y-95774359D01*
X154233923Y-95757100D01*
X154901901Y-95089124D01*
X155354400Y-95541624D01*
X155354400Y-95591154D01*
X155378495Y-95712289D01*
X155425760Y-95826396D01*
X155494377Y-95929089D01*
X155581711Y-96016423D01*
X155684404Y-96085040D01*
X155798511Y-96132305D01*
X155919646Y-96156400D01*
X156043154Y-96156400D01*
X156164289Y-96132305D01*
X156278396Y-96085040D01*
X156381089Y-96016423D01*
X156468423Y-95929089D01*
X156537040Y-95826396D01*
X156584305Y-95712289D01*
X156608400Y-95591154D01*
X156608400Y-95467646D01*
X156584305Y-95346511D01*
X156537040Y-95232404D01*
X156468423Y-95129711D01*
X156423612Y-95084900D01*
X156493823Y-95014689D01*
X156562440Y-94911996D01*
X156609705Y-94797889D01*
X156633800Y-94676754D01*
X156633800Y-94553246D01*
X156609705Y-94432111D01*
X156562440Y-94318004D01*
X156493823Y-94215311D01*
X156406489Y-94127977D01*
X156303796Y-94059360D01*
X156189689Y-94012095D01*
X156068554Y-93988000D01*
X155945046Y-93988000D01*
X155823911Y-94012095D01*
X155709804Y-94059360D01*
X155634008Y-94110005D01*
X155634008Y-93316595D01*
X155709804Y-93367240D01*
X155823911Y-93414505D01*
X155945046Y-93438600D01*
X156068554Y-93438600D01*
X156189689Y-93414505D01*
X156303796Y-93367240D01*
X156406489Y-93298623D01*
X156493823Y-93211289D01*
X156562440Y-93108596D01*
X156609705Y-92994489D01*
X156633800Y-92873354D01*
X156633800Y-92749846D01*
X156609705Y-92628711D01*
X156562440Y-92514604D01*
X156493823Y-92411911D01*
X156406489Y-92324577D01*
X156303796Y-92255960D01*
X156189689Y-92208695D01*
X156068554Y-92184600D01*
X155945046Y-92184600D01*
X155823911Y-92208695D01*
X155709804Y-92255960D01*
X155634008Y-92306605D01*
X155634008Y-82966612D01*
X155636195Y-82944407D01*
X155627468Y-82855800D01*
X155620801Y-82833823D01*
X155601622Y-82770598D01*
X155559651Y-82692075D01*
X155503167Y-82623249D01*
X155485919Y-82609094D01*
X155160600Y-82283776D01*
X155160600Y-82234246D01*
X155136505Y-82113111D01*
X155089240Y-81999004D01*
X155020623Y-81896311D01*
X154933289Y-81808977D01*
X154830596Y-81740360D01*
X154716489Y-81693095D01*
X154595354Y-81669000D01*
X154471846Y-81669000D01*
X154443827Y-81674573D01*
X154449400Y-81646554D01*
X154449400Y-81523046D01*
X154425305Y-81401911D01*
X154378040Y-81287804D01*
X154309423Y-81185111D01*
X154222089Y-81097777D01*
X154119396Y-81029160D01*
X154005289Y-80981895D01*
X153884154Y-80957800D01*
X153760646Y-80957800D01*
X153639511Y-80981895D01*
X153525404Y-81029160D01*
X153422711Y-81097777D01*
X153335377Y-81185111D01*
X153266760Y-81287804D01*
X153219495Y-81401911D01*
X153195400Y-81523046D01*
X153195400Y-81646554D01*
X153219495Y-81767689D01*
X153266760Y-81881796D01*
X153335377Y-81984489D01*
X153422711Y-82071823D01*
X153525404Y-82140440D01*
X153639511Y-82187705D01*
X153760646Y-82211800D01*
X153884154Y-82211800D01*
X153912173Y-82206227D01*
X153906600Y-82234246D01*
X153906600Y-82357754D01*
X153930695Y-82478889D01*
X153977960Y-82592996D01*
X154046577Y-82695689D01*
X154133911Y-82783023D01*
X154236604Y-82851640D01*
X154350711Y-82898905D01*
X154471846Y-82923000D01*
X154521376Y-82923000D01*
X154730008Y-83131633D01*
X154730009Y-90910437D01*
X154728996Y-90909760D01*
X154614889Y-90862495D01*
X154493754Y-90838400D01*
X154370246Y-90838400D01*
X154249111Y-90862495D01*
X154135004Y-90909760D01*
X154032311Y-90978377D01*
X153944977Y-91065711D01*
X153876360Y-91168404D01*
X153829095Y-91282511D01*
X153805000Y-91403646D01*
X153805000Y-91527154D01*
X153829095Y-91648289D01*
X153876360Y-91762396D01*
X153944977Y-91865089D01*
X154032311Y-91952423D01*
X154135004Y-92021040D01*
X154249111Y-92068305D01*
X154370246Y-92092400D01*
X154493754Y-92092400D01*
X154614889Y-92068305D01*
X154728996Y-92021040D01*
X154730009Y-92020363D01*
X154730009Y-93039786D01*
X150987801Y-89297580D01*
X150987801Y-88175606D01*
X150989988Y-88153401D01*
X150981261Y-88064793D01*
X150955415Y-87979591D01*
X150932364Y-87936466D01*
X150913444Y-87901068D01*
X150856960Y-87832242D01*
X150839706Y-87818082D01*
X150144523Y-87122900D01*
X150130359Y-87105641D01*
X150061533Y-87049157D01*
X149983010Y-87007186D01*
X149897807Y-86981340D01*
X149831405Y-86974800D01*
X149809200Y-86972613D01*
X149786995Y-86974800D01*
X149710512Y-86974800D01*
X149675489Y-86939777D01*
X149572796Y-86871160D01*
X149458689Y-86823895D01*
X149337554Y-86799800D01*
X149214046Y-86799800D01*
X149092911Y-86823895D01*
X148978804Y-86871160D01*
X148876111Y-86939777D01*
X148788777Y-87027111D01*
X148720160Y-87129804D01*
X148672895Y-87243911D01*
X148648800Y-87365046D01*
X148648800Y-87488554D01*
X148672895Y-87609689D01*
X148720160Y-87723796D01*
X148788777Y-87826489D01*
X148876111Y-87913823D01*
X148913812Y-87939014D01*
X148850711Y-87981177D01*
X148763377Y-88068511D01*
X148694760Y-88171204D01*
X148647495Y-88285311D01*
X148623400Y-88406446D01*
X141761708Y-88406446D01*
X141776105Y-88371689D01*
X141800200Y-88250554D01*
X141800200Y-88127046D01*
X141776105Y-88005911D01*
X141728840Y-87891804D01*
X141660223Y-87789111D01*
X141572889Y-87701777D01*
X141470196Y-87633160D01*
X141356089Y-87585895D01*
X141234954Y-87561800D01*
X141185425Y-87561800D01*
X138933124Y-85309501D01*
X138918960Y-85292242D01*
X138850134Y-85235758D01*
X138771611Y-85193787D01*
X138686408Y-85167941D01*
X138620006Y-85161401D01*
X138597801Y-85159214D01*
X138575596Y-85161401D01*
X135580472Y-85161401D01*
X135602600Y-85050154D01*
X135602600Y-84977446D01*
X140546200Y-84977446D01*
X140546200Y-85100954D01*
X140570295Y-85222089D01*
X140617560Y-85336196D01*
X140686177Y-85438889D01*
X140773511Y-85526223D01*
X140876204Y-85594840D01*
X140990311Y-85642105D01*
X141111446Y-85666200D01*
X141234954Y-85666200D01*
X141356089Y-85642105D01*
X141470196Y-85594840D01*
X141572889Y-85526223D01*
X141660223Y-85438889D01*
X141728840Y-85336196D01*
X141776105Y-85222089D01*
X141800200Y-85100954D01*
X141800200Y-84977446D01*
X141776105Y-84856311D01*
X141728840Y-84742204D01*
X141660223Y-84639511D01*
X141572889Y-84552177D01*
X141470196Y-84483560D01*
X141356089Y-84436295D01*
X141234954Y-84412200D01*
X141111446Y-84412200D01*
X140990311Y-84436295D01*
X140876204Y-84483560D01*
X140773511Y-84552177D01*
X140686177Y-84639511D01*
X140617560Y-84742204D01*
X140570295Y-84856311D01*
X140546200Y-84977446D01*
X135602600Y-84977446D01*
X135602600Y-84926646D01*
X135578505Y-84805511D01*
X135531240Y-84691404D01*
X135462623Y-84588711D01*
X135375289Y-84501377D01*
X135272596Y-84432760D01*
X135158489Y-84385495D01*
X135037354Y-84361400D01*
X134913846Y-84361400D01*
X134792711Y-84385495D01*
X134678604Y-84432760D01*
X134575911Y-84501377D01*
X134488577Y-84588711D01*
X134419960Y-84691404D01*
X134372695Y-84805511D01*
X134348600Y-84926646D01*
X134348600Y-85050154D01*
X134370728Y-85161401D01*
X134317445Y-85161401D01*
X132269441Y-83113397D01*
X132826200Y-83113397D01*
X132826200Y-83256603D01*
X132854138Y-83397058D01*
X132908941Y-83529364D01*
X132988502Y-83648436D01*
X133089764Y-83749698D01*
X133208836Y-83829259D01*
X133341142Y-83884062D01*
X133481597Y-83912000D01*
X133624803Y-83912000D01*
X133765258Y-83884062D01*
X133897564Y-83829259D01*
X134016636Y-83749698D01*
X134117898Y-83648436D01*
X134197459Y-83529364D01*
X134249947Y-83402646D01*
X149182200Y-83402646D01*
X149182200Y-83526154D01*
X149206295Y-83647289D01*
X149253560Y-83761396D01*
X149322177Y-83864089D01*
X149409511Y-83951423D01*
X149512204Y-84020040D01*
X149626311Y-84067305D01*
X149747446Y-84091400D01*
X149870954Y-84091400D01*
X149992089Y-84067305D01*
X150106196Y-84020040D01*
X150208889Y-83951423D01*
X150296223Y-83864089D01*
X150364840Y-83761396D01*
X150412105Y-83647289D01*
X150436200Y-83526154D01*
X150436200Y-83402646D01*
X150412105Y-83281511D01*
X150364840Y-83167404D01*
X150296223Y-83064711D01*
X150208889Y-82977377D01*
X150106196Y-82908760D01*
X149992089Y-82861495D01*
X149870954Y-82837400D01*
X149747446Y-82837400D01*
X149626311Y-82861495D01*
X149512204Y-82908760D01*
X149409511Y-82977377D01*
X149322177Y-83064711D01*
X149253560Y-83167404D01*
X149206295Y-83281511D01*
X149182200Y-83402646D01*
X134249947Y-83402646D01*
X134252262Y-83397058D01*
X134280200Y-83256603D01*
X134280200Y-83113397D01*
X134252262Y-82972942D01*
X134197459Y-82840636D01*
X134117898Y-82721564D01*
X134016636Y-82620302D01*
X133897564Y-82540741D01*
X133765258Y-82485938D01*
X133624803Y-82458000D01*
X133481597Y-82458000D01*
X133341142Y-82485938D01*
X133208836Y-82540741D01*
X133089764Y-82620302D01*
X132988502Y-82721564D01*
X132908941Y-82840636D01*
X132854138Y-82972942D01*
X132826200Y-83113397D01*
X132269441Y-83113397D01*
X131441090Y-82285046D01*
X141409800Y-82285046D01*
X141409800Y-82408554D01*
X141433895Y-82529689D01*
X141481160Y-82643796D01*
X141549777Y-82746489D01*
X141637111Y-82833823D01*
X141739804Y-82902440D01*
X141853911Y-82949705D01*
X141975046Y-82973800D01*
X142098554Y-82973800D01*
X142219689Y-82949705D01*
X142333796Y-82902440D01*
X142436489Y-82833823D01*
X142523823Y-82746489D01*
X142592440Y-82643796D01*
X142639705Y-82529689D01*
X142663800Y-82408554D01*
X142663800Y-82285046D01*
X142639705Y-82163911D01*
X142595323Y-82056764D01*
X142638596Y-82038840D01*
X142741289Y-81970223D01*
X142828623Y-81882889D01*
X142897240Y-81780196D01*
X142944505Y-81666089D01*
X142968600Y-81544954D01*
X142968600Y-81421446D01*
X148064600Y-81421446D01*
X148064600Y-81544954D01*
X148088695Y-81666089D01*
X148135960Y-81780196D01*
X148204577Y-81882889D01*
X148291911Y-81970223D01*
X148394604Y-82038840D01*
X148508711Y-82086105D01*
X148629846Y-82110200D01*
X148753354Y-82110200D01*
X148874489Y-82086105D01*
X148988596Y-82038840D01*
X149091289Y-81970223D01*
X149178623Y-81882889D01*
X149247240Y-81780196D01*
X149294505Y-81666089D01*
X149318600Y-81544954D01*
X149318600Y-81421446D01*
X149294505Y-81300311D01*
X149247240Y-81186204D01*
X149178623Y-81083511D01*
X149091289Y-80996177D01*
X148988596Y-80927560D01*
X148874489Y-80880295D01*
X148753354Y-80856200D01*
X148629846Y-80856200D01*
X148508711Y-80880295D01*
X148394604Y-80927560D01*
X148291911Y-80996177D01*
X148204577Y-81083511D01*
X148135960Y-81186204D01*
X148088695Y-81300311D01*
X148064600Y-81421446D01*
X142968600Y-81421446D01*
X142944505Y-81300311D01*
X142897240Y-81186204D01*
X142828623Y-81083511D01*
X142741289Y-80996177D01*
X142638596Y-80927560D01*
X142524489Y-80880295D01*
X142403354Y-80856200D01*
X142279846Y-80856200D01*
X142158711Y-80880295D01*
X142044604Y-80927560D01*
X141941911Y-80996177D01*
X141854577Y-81083511D01*
X141785960Y-81186204D01*
X141738695Y-81300311D01*
X141714600Y-81421446D01*
X141714600Y-81544954D01*
X141738695Y-81666089D01*
X141783077Y-81773236D01*
X141739804Y-81791160D01*
X141637111Y-81859777D01*
X141549777Y-81947111D01*
X141481160Y-82049804D01*
X141433895Y-82163911D01*
X141409800Y-82285046D01*
X131441090Y-82285046D01*
X130950010Y-81793967D01*
X130950010Y-80952115D01*
X130952197Y-80929910D01*
X130943470Y-80841302D01*
X130917624Y-80756100D01*
X130875653Y-80677577D01*
X130819169Y-80608751D01*
X130801915Y-80594591D01*
X129780382Y-79573059D01*
X129780382Y-79430397D01*
X135315400Y-79430397D01*
X135315400Y-79573603D01*
X135343338Y-79714058D01*
X135398141Y-79846364D01*
X135477702Y-79965436D01*
X135578964Y-80066698D01*
X135698036Y-80146259D01*
X135830342Y-80201062D01*
X135970797Y-80229000D01*
X136114003Y-80229000D01*
X136254458Y-80201062D01*
X136386764Y-80146259D01*
X136505836Y-80066698D01*
X136583337Y-79989197D01*
X139836600Y-79989197D01*
X139836600Y-80132403D01*
X139864538Y-80272858D01*
X139919341Y-80405164D01*
X139998902Y-80524236D01*
X140100164Y-80625498D01*
X140219236Y-80705059D01*
X140351542Y-80759862D01*
X140491997Y-80787800D01*
X140635203Y-80787800D01*
X140775658Y-80759862D01*
X140907964Y-80705059D01*
X141027036Y-80625498D01*
X141128298Y-80524236D01*
X141207859Y-80405164D01*
X141262662Y-80272858D01*
X141290600Y-80132403D01*
X141290600Y-79989197D01*
X141262662Y-79848742D01*
X141207859Y-79716436D01*
X141128298Y-79597364D01*
X141027036Y-79496102D01*
X140907964Y-79416541D01*
X140775658Y-79361738D01*
X140635203Y-79333800D01*
X140491997Y-79333800D01*
X140351542Y-79361738D01*
X140219236Y-79416541D01*
X140100164Y-79496102D01*
X139998902Y-79597364D01*
X139919341Y-79716436D01*
X139864538Y-79848742D01*
X139836600Y-79989197D01*
X136583337Y-79989197D01*
X136607098Y-79965436D01*
X136686659Y-79846364D01*
X136741462Y-79714058D01*
X136769400Y-79573603D01*
X136769400Y-79430397D01*
X136741462Y-79289942D01*
X136686659Y-79157636D01*
X136607098Y-79038564D01*
X136505836Y-78937302D01*
X136386764Y-78857741D01*
X136254458Y-78802938D01*
X136114003Y-78775000D01*
X135970797Y-78775000D01*
X135830342Y-78802938D01*
X135698036Y-78857741D01*
X135578964Y-78937302D01*
X135477702Y-79038564D01*
X135398141Y-79157636D01*
X135343338Y-79289942D01*
X135315400Y-79430397D01*
X129780382Y-79430397D01*
X129780382Y-78383700D01*
X129774068Y-78319597D01*
X129755370Y-78257957D01*
X129725006Y-78201150D01*
X129684143Y-78151357D01*
X129634350Y-78110494D01*
X129577543Y-78080130D01*
X129515903Y-78061432D01*
X129451800Y-78055118D01*
X127951800Y-78055118D01*
X127887697Y-78061432D01*
X127826057Y-78080130D01*
X127769250Y-78110494D01*
X127719457Y-78151357D01*
X127678594Y-78201150D01*
X127648230Y-78257957D01*
X127629532Y-78319597D01*
X127623218Y-78383700D01*
X126644936Y-78383700D01*
X126645009Y-76773246D01*
X139835000Y-76773246D01*
X139835000Y-76896754D01*
X139859095Y-77017889D01*
X139906360Y-77131996D01*
X139974977Y-77234689D01*
X140062311Y-77322023D01*
X140165004Y-77390640D01*
X140279111Y-77437905D01*
X140400246Y-77462000D01*
X140523754Y-77462000D01*
X140644889Y-77437905D01*
X140758996Y-77390640D01*
X140861689Y-77322023D01*
X140949023Y-77234689D01*
X141017640Y-77131996D01*
X141064905Y-77017889D01*
X141089000Y-76896754D01*
X141089000Y-76773246D01*
X141064905Y-76652111D01*
X141017640Y-76538004D01*
X140949023Y-76435311D01*
X140861689Y-76347977D01*
X140758996Y-76279360D01*
X140644889Y-76232095D01*
X140523754Y-76208000D01*
X140400246Y-76208000D01*
X140279111Y-76232095D01*
X140165004Y-76279360D01*
X140062311Y-76347977D01*
X139974977Y-76435311D01*
X139906360Y-76538004D01*
X139859095Y-76652111D01*
X139835000Y-76773246D01*
X126645009Y-76773246D01*
X126645056Y-75748139D01*
X126652294Y-75621174D01*
X126785000Y-75621174D01*
X126785000Y-75813626D01*
X126822546Y-76002380D01*
X126896194Y-76180183D01*
X127003115Y-76340201D01*
X127139199Y-76476285D01*
X127299217Y-76583206D01*
X127477020Y-76656854D01*
X127665774Y-76694400D01*
X127858226Y-76694400D01*
X128046980Y-76656854D01*
X128224783Y-76583206D01*
X128384801Y-76476285D01*
X128520885Y-76340201D01*
X128627806Y-76180183D01*
X128701454Y-76002380D01*
X128739000Y-75813626D01*
X128739000Y-75621174D01*
X128701454Y-75432420D01*
X128653065Y-75315597D01*
X136153600Y-75315597D01*
X136153600Y-75458803D01*
X136181538Y-75599258D01*
X136236341Y-75731564D01*
X136315902Y-75850636D01*
X136417164Y-75951898D01*
X136536236Y-76031459D01*
X136668542Y-76086262D01*
X136808997Y-76114200D01*
X136952203Y-76114200D01*
X137092658Y-76086262D01*
X137224964Y-76031459D01*
X137344036Y-75951898D01*
X137411688Y-75884246D01*
X142375000Y-75884246D01*
X142375000Y-76007754D01*
X142399095Y-76128889D01*
X142446360Y-76242996D01*
X142514977Y-76345689D01*
X142602311Y-76433023D01*
X142705004Y-76501640D01*
X142819111Y-76548905D01*
X142940246Y-76573000D01*
X143063754Y-76573000D01*
X143184889Y-76548905D01*
X143298996Y-76501640D01*
X143401689Y-76433023D01*
X143489023Y-76345689D01*
X143542773Y-76265246D01*
X152484200Y-76265246D01*
X152484200Y-76388754D01*
X152508295Y-76509889D01*
X152555560Y-76623996D01*
X152624177Y-76726689D01*
X152711511Y-76814023D01*
X152814204Y-76882640D01*
X152928311Y-76929905D01*
X153049446Y-76954000D01*
X153172954Y-76954000D01*
X153294089Y-76929905D01*
X153408196Y-76882640D01*
X153510889Y-76814023D01*
X153598223Y-76726689D01*
X153666840Y-76623996D01*
X153714105Y-76509889D01*
X153738200Y-76388754D01*
X153738200Y-76265246D01*
X153906600Y-76265246D01*
X153906600Y-76388754D01*
X153930695Y-76509889D01*
X153977960Y-76623996D01*
X154046577Y-76726689D01*
X154133911Y-76814023D01*
X154236604Y-76882640D01*
X154350711Y-76929905D01*
X154471846Y-76954000D01*
X154595354Y-76954000D01*
X154716489Y-76929905D01*
X154830596Y-76882640D01*
X154933289Y-76814023D01*
X155020623Y-76726689D01*
X155089240Y-76623996D01*
X155136505Y-76509889D01*
X155160600Y-76388754D01*
X155160600Y-76265246D01*
X155136505Y-76144111D01*
X155089240Y-76030004D01*
X155020623Y-75927311D01*
X154933289Y-75839977D01*
X154830596Y-75771360D01*
X154716489Y-75724095D01*
X154595354Y-75700000D01*
X154471846Y-75700000D01*
X154350711Y-75724095D01*
X154236604Y-75771360D01*
X154133911Y-75839977D01*
X154046577Y-75927311D01*
X153977960Y-76030004D01*
X153930695Y-76144111D01*
X153906600Y-76265246D01*
X153738200Y-76265246D01*
X153714105Y-76144111D01*
X153666840Y-76030004D01*
X153598223Y-75927311D01*
X153510889Y-75839977D01*
X153408196Y-75771360D01*
X153294089Y-75724095D01*
X153172954Y-75700000D01*
X153049446Y-75700000D01*
X152928311Y-75724095D01*
X152814204Y-75771360D01*
X152711511Y-75839977D01*
X152624177Y-75927311D01*
X152555560Y-76030004D01*
X152508295Y-76144111D01*
X152484200Y-76265246D01*
X143542773Y-76265246D01*
X143557640Y-76242996D01*
X143604905Y-76128889D01*
X143629000Y-76007754D01*
X143629000Y-75884246D01*
X143604905Y-75763111D01*
X143557640Y-75649004D01*
X143539045Y-75621174D01*
X155309200Y-75621174D01*
X155309200Y-75813626D01*
X155346746Y-76002380D01*
X155420394Y-76180183D01*
X155527315Y-76340201D01*
X155663399Y-76476285D01*
X155823417Y-76583206D01*
X156001220Y-76656854D01*
X156189974Y-76694400D01*
X156382426Y-76694400D01*
X156571180Y-76656854D01*
X156748983Y-76583206D01*
X156909001Y-76476285D01*
X157045085Y-76340201D01*
X157152006Y-76180183D01*
X157225654Y-76002380D01*
X157263200Y-75813626D01*
X157263200Y-75621174D01*
X157225654Y-75432420D01*
X157152006Y-75254617D01*
X157045085Y-75094599D01*
X156909001Y-74958515D01*
X156748983Y-74851594D01*
X156571180Y-74777946D01*
X156382426Y-74740400D01*
X156189974Y-74740400D01*
X156001220Y-74777946D01*
X155823417Y-74851594D01*
X155663399Y-74958515D01*
X155527315Y-75094599D01*
X155420394Y-75254617D01*
X155346746Y-75432420D01*
X155309200Y-75621174D01*
X143539045Y-75621174D01*
X143489023Y-75546311D01*
X143401689Y-75458977D01*
X143298996Y-75390360D01*
X143184889Y-75343095D01*
X143063754Y-75319000D01*
X142940246Y-75319000D01*
X142819111Y-75343095D01*
X142705004Y-75390360D01*
X142602311Y-75458977D01*
X142514977Y-75546311D01*
X142446360Y-75649004D01*
X142399095Y-75763111D01*
X142375000Y-75884246D01*
X137411688Y-75884246D01*
X137445298Y-75850636D01*
X137524859Y-75731564D01*
X137579662Y-75599258D01*
X137607600Y-75458803D01*
X137607600Y-75315597D01*
X137579662Y-75175142D01*
X137524859Y-75042836D01*
X137445298Y-74923764D01*
X137344036Y-74822502D01*
X137224964Y-74742941D01*
X137092658Y-74688138D01*
X136952203Y-74660200D01*
X136808997Y-74660200D01*
X136668542Y-74688138D01*
X136536236Y-74742941D01*
X136417164Y-74822502D01*
X136315902Y-74923764D01*
X136236341Y-75042836D01*
X136181538Y-75175142D01*
X136153600Y-75315597D01*
X128653065Y-75315597D01*
X128627806Y-75254617D01*
X128520885Y-75094599D01*
X128384801Y-74958515D01*
X128224783Y-74851594D01*
X128046980Y-74777946D01*
X127858226Y-74740400D01*
X127665774Y-74740400D01*
X127477020Y-74777946D01*
X127299217Y-74851594D01*
X127139199Y-74958515D01*
X127003115Y-75094599D01*
X126896194Y-75254617D01*
X126822546Y-75432420D01*
X126785000Y-75621174D01*
X126652294Y-75621174D01*
X126658070Y-75519863D01*
X126712527Y-75308726D01*
X126806960Y-75112180D01*
X126937770Y-74937719D01*
X127099973Y-74791992D01*
X127287396Y-74680543D01*
X127492889Y-74607623D01*
X127714230Y-74575186D01*
X127763833Y-74574000D01*
X156280962Y-74574000D01*
X156281212Y-74573975D01*
X156503141Y-74595736D01*
%TD*%
M02*
