M48
; DRILL file {KiCad (5.1.6)-1} date 11/07/20 21:34:25
; FORMAT={-:-/ absolute / inch / decimal}
; #@! TF.CreationDate,2020-11-07T21:34:25+01:00
; #@! TF.GenerationSoftware,Kicad,Pcbnew,(5.1.6)-1
; #@! TF.FileFunction,Plated,1,4,PTH
FMAT,2
INCH
T1C0.0118
T2C0.0217
T3C0.0400
%
G90
G05
T1
X3.635Y-3.616
X3.648Y-3.289
X3.6675Y-3.0825
X3.685Y-3.496
X3.689Y-3.122
X3.7075Y-3.0775
X3.71Y-3.4675
X3.789Y-3.503
X3.885Y-3.475
X3.8875Y-3.0425
X3.895Y-3.21
X3.9105Y-3.3025
X3.97Y-3.5825
X4.0515Y-2.9775
X4.0625Y-3.6275
X4.094Y-3.6275
X4.1Y-3.3075
X4.125Y-3.6275
X4.1325Y-3.1125
X4.145Y-3.265
X4.1575Y-3.1725
X4.1575Y-3.6275
X4.1675Y-3.115
X4.18Y-3.0825
X4.1825Y-3.19
X4.185Y-3.265
X4.1875Y-3.6275
X4.195Y-3.2175
X4.225Y-3.125
X4.225Y-3.265
X4.23Y-3.6275
X4.245Y-3.22
X4.25Y-3.0
X4.25Y-3.151
X4.26Y-3.496
X4.272Y-3.082
X4.2725Y-3.175
X4.282Y-3.265
X4.29Y-3.35
X4.296Y-3.196
X4.2975Y-3.15
X4.3Y-3.245
X4.319Y-3.35
X4.35Y-3.3
X4.385Y-3.34
X4.415Y-3.42
X4.415Y-3.4525
X4.415Y-3.4875
X4.415Y-3.5225
X4.488Y-3.001
X4.499Y-3.322
T2
X4.2997Y-2.867
X4.4453Y-2.867
X3.5972Y-2.867
X3.7428Y-2.867
X4.2997Y-3.7755
X4.4453Y-3.7755
X3.5972Y-3.7755
X3.7428Y-3.7755
T3
X3.8825Y-2.8675
X3.9825Y-2.8675
T0
M30
