%TF.GenerationSoftware,KiCad,Pcbnew,(5.1.6)-1*%
%TF.CreationDate,2020-11-03T21:48:33+01:00*%
%TF.ProjectId,ArduinoProMicroUSB,41726475-696e-46f5-9072-6f4d6963726f,rev?*%
%TF.SameCoordinates,Original*%
%TF.FileFunction,Paste,Top*%
%TF.FilePolarity,Positive*%
%FSLAX46Y46*%
G04 Gerber Fmt 4.6, Leading zero omitted, Abs format (unit mm)*
G04 Created by KiCad (PCBNEW (5.1.6)-1) date 2020-11-03 21:48:33*
%MOMM*%
%LPD*%
G01*
G04 APERTURE LIST*
%ADD10C,0.010000*%
%ADD11R,1.010000X0.260000*%
%ADD12R,0.260000X1.010000*%
%ADD13R,0.860000X0.270000*%
%ADD14R,0.800000X0.500000*%
%ADD15R,1.000000X1.500000*%
%ADD16R,1.800000X1.350000*%
%ADD17R,1.570000X1.250000*%
%ADD18R,1.399540X0.398780*%
%ADD19R,1.498600X2.499360*%
%ADD20R,1.498600X1.798320*%
%ADD21R,0.600000X0.700000*%
%ADD22R,1.000000X0.700000*%
%ADD23R,0.797560X0.899160*%
%ADD24R,1.899920X1.099820*%
%ADD25R,1.099820X0.998220*%
%ADD26R,0.998220X1.099820*%
G04 APERTURE END LIST*
D10*
%TO.C,D4*%
G36*
X98226250Y-80240100D02*
G01*
X99128300Y-80240100D01*
X99128300Y-80842310D01*
X98226250Y-80842310D01*
X98226250Y-80240100D01*
G37*
X98226250Y-80240100D02*
X99128300Y-80240100D01*
X99128300Y-80842310D01*
X98226250Y-80842310D01*
X98226250Y-80240100D01*
G36*
X100129008Y-80240100D02*
G01*
X100628300Y-80240100D01*
X100628300Y-80841420D01*
X100129008Y-80841420D01*
X100129008Y-80240100D01*
G37*
X100129008Y-80240100D02*
X100628300Y-80240100D01*
X100628300Y-80841420D01*
X100129008Y-80841420D01*
X100129008Y-80240100D01*
G36*
X100129672Y-78240100D02*
G01*
X100628300Y-78240100D01*
X100628300Y-78838728D01*
X100129672Y-78838728D01*
X100129672Y-78240100D01*
G37*
X100129672Y-78240100D02*
X100628300Y-78240100D01*
X100628300Y-78838728D01*
X100129672Y-78838728D01*
X100129672Y-78240100D01*
G36*
X98226150Y-78240100D02*
G01*
X98728300Y-78240100D01*
X98728300Y-78838850D01*
X98226150Y-78838850D01*
X98226150Y-78240100D01*
G37*
X98226150Y-78240100D02*
X98728300Y-78240100D01*
X98728300Y-78838850D01*
X98226150Y-78838850D01*
X98226150Y-78240100D01*
%TD*%
D11*
%TO.C,U5*%
X110636900Y-78132300D03*
X110636900Y-78632300D03*
X110636900Y-79132300D03*
X110636900Y-79632300D03*
X110636900Y-80132300D03*
X110636900Y-80632300D03*
X110636900Y-81132300D03*
X110636900Y-81632300D03*
X110636900Y-82132300D03*
X110636900Y-82632300D03*
X110636900Y-83132300D03*
X103916900Y-83132300D03*
X103916900Y-82632300D03*
X103916900Y-82132300D03*
X103916900Y-81632300D03*
X103916900Y-81132300D03*
X103916900Y-80632300D03*
X103916900Y-80132300D03*
X103916900Y-79632300D03*
X103916900Y-79132300D03*
X103916900Y-78632300D03*
X103916900Y-78132300D03*
D12*
X104776900Y-77272300D03*
X105276900Y-77272300D03*
X105776900Y-77272300D03*
X106276900Y-77272300D03*
X106776900Y-77272300D03*
X107276900Y-77272300D03*
X107776900Y-77272300D03*
X108276900Y-77272300D03*
X108776900Y-77272300D03*
X109276900Y-77272300D03*
X109776900Y-77272300D03*
X109776900Y-83992300D03*
X109276900Y-83992300D03*
X108776900Y-83992300D03*
X108276900Y-83992300D03*
X107776900Y-83992300D03*
X107276900Y-83992300D03*
X106776900Y-83992300D03*
X106276900Y-83992300D03*
X105776900Y-83992300D03*
X105276900Y-83992300D03*
X104776900Y-83992300D03*
%TD*%
D13*
%TO.C,U4*%
X96760500Y-83260500D03*
X96760500Y-83760500D03*
X96760500Y-84260500D03*
X96760500Y-84760500D03*
X95390500Y-84760500D03*
X95390500Y-84260500D03*
X95390500Y-83760500D03*
X95390500Y-83260500D03*
%TD*%
D14*
%TO.C,U1*%
X114138000Y-86788000D03*
X114138000Y-87688000D03*
X114138000Y-88588000D03*
X114138000Y-89488000D03*
X112938000Y-89488000D03*
X112938000Y-88588000D03*
X112938000Y-87688000D03*
X112938000Y-86788000D03*
%TD*%
D15*
%TO.C,SW1*%
X109511500Y-94398500D03*
X112611500Y-94398500D03*
D16*
X111061500Y-94323500D03*
D17*
X112996500Y-96073500D03*
X109126500Y-96073500D03*
%TD*%
D15*
%TO.C,SW4*%
X112611500Y-74321000D03*
X109511500Y-74321000D03*
D16*
X111061500Y-74396000D03*
D17*
X109126500Y-72646000D03*
X112996500Y-72646000D03*
%TD*%
D15*
%TO.C,SW2*%
X94768000Y-74194000D03*
X91668000Y-74194000D03*
D16*
X93218000Y-74269000D03*
D17*
X91283000Y-72519000D03*
X95153000Y-72519000D03*
%TD*%
D18*
%TO.C,U3*%
X91152980Y-82141060D03*
D19*
X88455500Y-83439000D03*
D20*
X88455500Y-79761080D03*
X88455500Y-87116920D03*
D18*
X91152980Y-84086700D03*
X91152980Y-84736940D03*
X91152980Y-82791300D03*
X91152980Y-83439000D03*
%TD*%
%TO.C,D3*%
G36*
G01*
X99880690Y-86405000D02*
X100393190Y-86405000D01*
G75*
G02*
X100611940Y-86623750I0J-218750D01*
G01*
X100611940Y-87061250D01*
G75*
G02*
X100393190Y-87280000I-218750J0D01*
G01*
X99880690Y-87280000D01*
G75*
G02*
X99661940Y-87061250I0J218750D01*
G01*
X99661940Y-86623750D01*
G75*
G02*
X99880690Y-86405000I218750J0D01*
G01*
G37*
G36*
G01*
X99880690Y-87980000D02*
X100393190Y-87980000D01*
G75*
G02*
X100611940Y-88198750I0J-218750D01*
G01*
X100611940Y-88636250D01*
G75*
G02*
X100393190Y-88855000I-218750J0D01*
G01*
X99880690Y-88855000D01*
G75*
G02*
X99661940Y-88636250I0J218750D01*
G01*
X99661940Y-88198750D01*
G75*
G02*
X99880690Y-87980000I218750J0D01*
G01*
G37*
%TD*%
%TO.C,D2*%
G36*
G01*
X102618250Y-90506000D02*
X102105750Y-90506000D01*
G75*
G02*
X101887000Y-90287250I0J218750D01*
G01*
X101887000Y-89849750D01*
G75*
G02*
X102105750Y-89631000I218750J0D01*
G01*
X102618250Y-89631000D01*
G75*
G02*
X102837000Y-89849750I0J-218750D01*
G01*
X102837000Y-90287250D01*
G75*
G02*
X102618250Y-90506000I-218750J0D01*
G01*
G37*
G36*
G01*
X102618250Y-88931000D02*
X102105750Y-88931000D01*
G75*
G02*
X101887000Y-88712250I0J218750D01*
G01*
X101887000Y-88274750D01*
G75*
G02*
X102105750Y-88056000I218750J0D01*
G01*
X102618250Y-88056000D01*
G75*
G02*
X102837000Y-88274750I0J-218750D01*
G01*
X102837000Y-88712250D01*
G75*
G02*
X102618250Y-88931000I-218750J0D01*
G01*
G37*
%TD*%
D21*
%TO.C,D4*%
X98478300Y-78540100D03*
X100378300Y-78540100D03*
X100378300Y-80540100D03*
D22*
X98678300Y-80540100D03*
%TD*%
D23*
%TO.C,Q1*%
X99888040Y-91993720D03*
X101787960Y-91993720D03*
X100838000Y-89895680D03*
%TD*%
D24*
%TO.C,Y1*%
X106100880Y-90048080D03*
X109799120Y-90048080D03*
X109799120Y-87751920D03*
X106100880Y-87751920D03*
%TD*%
D17*
%TO.C,SW3*%
X91283000Y-96086200D03*
X95153000Y-96086200D03*
D16*
X93218000Y-94336200D03*
D15*
X94768000Y-94411200D03*
X91668000Y-94411200D03*
%TD*%
D25*
%TO.C,C1*%
X112308640Y-90868500D03*
X114005360Y-90868500D03*
%TD*%
%TO.C,C2*%
X110195360Y-92138500D03*
X108498640Y-92138500D03*
%TD*%
%TO.C,C5*%
X108752640Y-86106000D03*
X110449360Y-86106000D03*
%TD*%
%TO.C,C6*%
X105450640Y-86106000D03*
X107147360Y-86106000D03*
%TD*%
D26*
%TO.C,C7*%
X93408500Y-91843860D03*
X93408500Y-90147140D03*
%TD*%
%TO.C,C9*%
X100065840Y-77238860D03*
X100065840Y-75542140D03*
%TD*%
D25*
%TO.C,C10*%
X105623360Y-75628500D03*
X103926640Y-75628500D03*
%TD*%
%TO.C,C11*%
X101813360Y-81851500D03*
X100116640Y-81851500D03*
%TD*%
%TO.C,C12*%
X102092760Y-83591400D03*
X100396040Y-83591400D03*
%TD*%
%TO.C,C14*%
X112308640Y-83502500D03*
X114005360Y-83502500D03*
%TD*%
%TO.C,C15*%
X112308640Y-81978500D03*
X114005360Y-81978500D03*
%TD*%
%TO.C,C16*%
X114005360Y-77216000D03*
X112308640Y-77216000D03*
%TD*%
D26*
%TO.C,C17*%
X93853000Y-81955640D03*
X93853000Y-83652360D03*
%TD*%
D25*
%TO.C,C18*%
X97114360Y-81915000D03*
X95417640Y-81915000D03*
%TD*%
D26*
%TO.C,L1*%
X98374200Y-85176360D03*
X98374200Y-83479640D03*
%TD*%
%TO.C,R1*%
X94996000Y-91831160D03*
X94996000Y-90134440D03*
%TD*%
%TO.C,R2*%
X93853000Y-85257640D03*
X93853000Y-86954360D03*
%TD*%
%TO.C,R3*%
X96774000Y-90147140D03*
X96774000Y-91843860D03*
%TD*%
D25*
%TO.C,R4*%
X103870760Y-86766400D03*
X102174040Y-86766400D03*
%TD*%
%TO.C,R5*%
X95341440Y-78778100D03*
X97038160Y-78778100D03*
%TD*%
D26*
%TO.C,R6*%
X104013000Y-90002360D03*
X104013000Y-88305640D03*
%TD*%
D25*
%TO.C,R7*%
X97038160Y-80340200D03*
X95341440Y-80340200D03*
%TD*%
D26*
%TO.C,R8*%
X98361500Y-90147140D03*
X98361500Y-91843860D03*
%TD*%
%TO.C,R9*%
X115633500Y-87035640D03*
X115633500Y-88732360D03*
%TD*%
%TO.C,R10*%
X95377000Y-86146640D03*
X95377000Y-87843360D03*
%TD*%
D25*
%TO.C,R11*%
X100396040Y-85217000D03*
X102092760Y-85217000D03*
%TD*%
D26*
%TO.C,R12*%
X101864160Y-75542140D03*
X101864160Y-77238860D03*
%TD*%
D25*
%TO.C,R13*%
X114005360Y-85344000D03*
X112308640Y-85344000D03*
%TD*%
%TO.C,R14*%
X114005360Y-80391000D03*
X112308640Y-80391000D03*
%TD*%
%TO.C,R15*%
X112308640Y-78803500D03*
X114005360Y-78803500D03*
%TD*%
D26*
%TO.C,R16*%
X96901000Y-86146640D03*
X96901000Y-87843360D03*
%TD*%
M02*
