%TF.GenerationSoftware,KiCad,Pcbnew,(5.1.6)-1*%
%TF.CreationDate,2020-10-28T17:18:20+01:00*%
%TF.ProjectId,ArduinoProMicroUSB,41726475-696e-46f5-9072-6f4d6963726f,rev?*%
%TF.SameCoordinates,Original*%
%TF.FileFunction,Soldermask,Bot*%
%TF.FilePolarity,Negative*%
%FSLAX46Y46*%
G04 Gerber Fmt 4.6, Leading zero omitted, Abs format (unit mm)*
G04 Created by KiCad (PCBNEW (5.1.6)-1) date 2020-10-28 17:18:20*
%MOMM*%
%LPD*%
G01*
G04 APERTURE LIST*
%ADD10C,0.100000*%
G04 APERTURE END LIST*
D10*
G36*
X128017273Y-98462138D02*
G01*
X128144849Y-98514982D01*
X128259659Y-98591695D01*
X128357305Y-98689341D01*
X128434018Y-98804151D01*
X128486862Y-98931727D01*
X128513800Y-99067156D01*
X128513800Y-99205244D01*
X128486862Y-99340673D01*
X128434018Y-99468249D01*
X128357305Y-99583059D01*
X128259659Y-99680705D01*
X128144849Y-99757418D01*
X128017273Y-99810262D01*
X127881844Y-99837200D01*
X127743756Y-99837200D01*
X127608327Y-99810262D01*
X127480751Y-99757418D01*
X127365941Y-99680705D01*
X127268295Y-99583059D01*
X127191582Y-99468249D01*
X127138738Y-99340673D01*
X127111800Y-99205244D01*
X127111800Y-99067156D01*
X127138738Y-98931727D01*
X127191582Y-98804151D01*
X127268295Y-98689341D01*
X127365941Y-98591695D01*
X127480751Y-98514982D01*
X127608327Y-98462138D01*
X127743756Y-98435200D01*
X127881844Y-98435200D01*
X128017273Y-98462138D01*
G37*
G36*
X156516073Y-98462138D02*
G01*
X156643649Y-98514982D01*
X156758459Y-98591695D01*
X156856105Y-98689341D01*
X156932818Y-98804151D01*
X156985662Y-98931727D01*
X157012600Y-99067156D01*
X157012600Y-99205244D01*
X156985662Y-99340673D01*
X156932818Y-99468249D01*
X156856105Y-99583059D01*
X156758459Y-99680705D01*
X156643649Y-99757418D01*
X156516073Y-99810262D01*
X156380644Y-99837200D01*
X156242556Y-99837200D01*
X156107127Y-99810262D01*
X155979551Y-99757418D01*
X155864741Y-99680705D01*
X155767095Y-99583059D01*
X155690382Y-99468249D01*
X155637538Y-99340673D01*
X155610600Y-99205244D01*
X155610600Y-99067156D01*
X155637538Y-98931727D01*
X155690382Y-98804151D01*
X155767095Y-98689341D01*
X155864741Y-98591695D01*
X155979551Y-98514982D01*
X156107127Y-98462138D01*
X156242556Y-98435200D01*
X156380644Y-98435200D01*
X156516073Y-98462138D01*
G37*
G36*
X129502800Y-96203400D02*
G01*
X127900800Y-96203400D01*
X127900800Y-94601400D01*
X129502800Y-94601400D01*
X129502800Y-96203400D01*
G37*
G36*
X129502800Y-93917400D02*
G01*
X127900800Y-93917400D01*
X127900800Y-92315400D01*
X129502800Y-92315400D01*
X129502800Y-93917400D01*
G37*
G36*
X129502800Y-91631400D02*
G01*
X127900800Y-91631400D01*
X127900800Y-90029400D01*
X129502800Y-90029400D01*
X129502800Y-91631400D01*
G37*
G36*
X129502800Y-89345400D02*
G01*
X127900800Y-89345400D01*
X127900800Y-87743400D01*
X129502800Y-87743400D01*
X129502800Y-89345400D01*
G37*
G36*
X136957000Y-88673920D02*
G01*
X135331000Y-88673920D01*
X135331000Y-80624700D01*
X136957000Y-80624700D01*
X136957000Y-88673920D01*
G37*
G36*
X129502800Y-87059400D02*
G01*
X127900800Y-87059400D01*
X127900800Y-85457400D01*
X129502800Y-85457400D01*
X129502800Y-87059400D01*
G37*
G36*
X129502800Y-84773400D02*
G01*
X127900800Y-84773400D01*
X127900800Y-83171400D01*
X129502800Y-83171400D01*
X129502800Y-84773400D01*
G37*
G36*
X129502800Y-82347700D02*
G01*
X127900800Y-82347700D01*
X127900800Y-80745700D01*
X129502800Y-80745700D01*
X129502800Y-82347700D01*
G37*
G36*
X129502800Y-79934700D02*
G01*
X127900800Y-79934700D01*
X127900800Y-78332700D01*
X129502800Y-78332700D01*
X129502800Y-79934700D01*
G37*
G36*
X127966473Y-75043338D02*
G01*
X128094049Y-75096182D01*
X128208859Y-75172895D01*
X128306505Y-75270541D01*
X128383218Y-75385351D01*
X128436062Y-75512927D01*
X128463000Y-75648356D01*
X128463000Y-75786444D01*
X128436062Y-75921873D01*
X128383218Y-76049449D01*
X128306505Y-76164259D01*
X128208859Y-76261905D01*
X128094049Y-76338618D01*
X127966473Y-76391462D01*
X127831044Y-76418400D01*
X127692956Y-76418400D01*
X127557527Y-76391462D01*
X127429951Y-76338618D01*
X127315141Y-76261905D01*
X127217495Y-76164259D01*
X127140782Y-76049449D01*
X127087938Y-75921873D01*
X127061000Y-75786444D01*
X127061000Y-75648356D01*
X127087938Y-75512927D01*
X127140782Y-75385351D01*
X127217495Y-75270541D01*
X127315141Y-75172895D01*
X127429951Y-75096182D01*
X127557527Y-75043338D01*
X127692956Y-75016400D01*
X127831044Y-75016400D01*
X127966473Y-75043338D01*
G37*
G36*
X156490673Y-75043338D02*
G01*
X156618249Y-75096182D01*
X156733059Y-75172895D01*
X156830705Y-75270541D01*
X156907418Y-75385351D01*
X156960262Y-75512927D01*
X156987200Y-75648356D01*
X156987200Y-75786444D01*
X156960262Y-75921873D01*
X156907418Y-76049449D01*
X156830705Y-76164259D01*
X156733059Y-76261905D01*
X156618249Y-76338618D01*
X156490673Y-76391462D01*
X156355244Y-76418400D01*
X156217156Y-76418400D01*
X156081727Y-76391462D01*
X155954151Y-76338618D01*
X155839341Y-76261905D01*
X155741695Y-76164259D01*
X155664982Y-76049449D01*
X155612138Y-75921873D01*
X155585200Y-75786444D01*
X155585200Y-75648356D01*
X155612138Y-75512927D01*
X155664982Y-75385351D01*
X155741695Y-75270541D01*
X155839341Y-75172895D01*
X155954151Y-75096182D01*
X156081727Y-75043338D01*
X156217156Y-75016400D01*
X156355244Y-75016400D01*
X156490673Y-75043338D01*
G37*
M02*
