%TF.GenerationSoftware,KiCad,Pcbnew,(5.1.6)-1*%
%TF.CreationDate,2020-10-28T20:54:40+01:00*%
%TF.ProjectId,ArduinoProMicroUSB,41726475-696e-46f5-9072-6f4d6963726f,rev?*%
%TF.SameCoordinates,Original*%
%TF.FileFunction,Copper,L4,Bot*%
%TF.FilePolarity,Positive*%
%FSLAX46Y46*%
G04 Gerber Fmt 4.6, Leading zero omitted, Abs format (unit mm)*
G04 Created by KiCad (PCBNEW (5.1.6)-1) date 2020-10-28 20:54:40*
%MOMM*%
%LPD*%
G01*
G04 APERTURE LIST*
%TA.AperFunction,WasherPad*%
%ADD10C,1.300000*%
%TD*%
%TA.AperFunction,ComponentPad*%
%ADD11R,1.500000X1.500000*%
%TD*%
%TA.AperFunction,SMDPad,CuDef*%
%ADD12R,1.524000X0.345000*%
%TD*%
%TA.AperFunction,ViaPad*%
%ADD13C,0.600000*%
%TD*%
%TA.AperFunction,ViaPad*%
%ADD14C,0.800000*%
%TD*%
%TA.AperFunction,Conductor*%
%ADD15C,0.250000*%
%TD*%
G04 APERTURE END LIST*
D10*
%TO.P,REF\u002A\u002A,*%
%TO.N,*%
X156286200Y-75717400D03*
%TD*%
%TO.P,REF\u002A\u002A,*%
%TO.N,*%
X127762000Y-75717400D03*
%TD*%
%TO.P,REF\u002A\u002A,*%
%TO.N,*%
X127812800Y-99136200D03*
%TD*%
%TO.P,REF\u002A\u002A,*%
%TO.N,*%
X156311600Y-99136200D03*
%TD*%
D11*
%TO.P,GND,1*%
%TO.N,GND*%
X128701800Y-95402400D03*
%TD*%
%TO.P,VCC,1*%
%TO.N,VCC*%
X128701800Y-93116400D03*
%TD*%
%TO.P,3.3,1*%
%TO.N,3.3V*%
X128701800Y-90830400D03*
%TD*%
%TO.P,SDA,1*%
%TO.N,/D2*%
X128701800Y-88544400D03*
%TD*%
%TO.P,SCL,1*%
%TO.N,/D3*%
X128701800Y-86258400D03*
%TD*%
%TO.P,CS,1*%
%TO.N,/CS*%
X128701800Y-83972400D03*
%TD*%
%TO.P,MOSI,1*%
%TO.N,/MOSI*%
X128701800Y-81546700D03*
%TD*%
%TO.P,SCK,1*%
%TO.N,/SCK*%
X128701800Y-79133700D03*
%TD*%
D12*
%TO.P,J3,10*%
%TO.N,/MOSI*%
X136144000Y-87068660D03*
%TO.P,J3,12*%
%TO.N,GND*%
X136144000Y-88450420D03*
%TO.P,J3,9*%
%TO.N,/SCK*%
X136144000Y-86377780D03*
%TO.P,J3,11*%
%TO.N,/D5*%
X136144000Y-87759540D03*
%TO.P,J3,6*%
%TO.N,GND*%
X136144000Y-84305140D03*
%TO.P,J3,8*%
%TO.N,/CS*%
X136144000Y-85686900D03*
%TO.P,J3,5*%
%TO.N,GND*%
X136144000Y-83614260D03*
%TO.P,J3,7*%
%TO.N,/D4*%
X136144000Y-84996020D03*
%TO.P,J3,4*%
%TO.N,3.3V*%
X136144000Y-82920840D03*
%TO.P,J3,3*%
X136144000Y-82229960D03*
%TO.P,J3,2*%
%TO.N,/LEDK*%
X136144000Y-81539080D03*
%TO.P,J3,1*%
%TO.N,GND*%
X136144000Y-80848200D03*
%TD*%
D13*
%TO.N,3.3V*%
X149275800Y-96774000D03*
X152933400Y-94564200D03*
X134874000Y-81407000D03*
X156997400Y-77368400D03*
X143103600Y-90220800D03*
X149250400Y-89357200D03*
X149504400Y-81483200D03*
X141528800Y-81483200D03*
X155194000Y-81610200D03*
%TO.N,GND*%
X152755600Y-97612200D03*
X140462000Y-76835000D03*
X139585700Y-93599000D03*
X143002000Y-75946000D03*
X154533600Y-76327000D03*
X149275800Y-94157800D03*
X135001000Y-86360000D03*
X134975600Y-84988400D03*
X141173200Y-85039200D03*
X148691600Y-81483200D03*
X142341600Y-81483200D03*
X153822400Y-81584800D03*
D14*
X136042400Y-79502000D03*
X140563600Y-80060800D03*
X133553200Y-83185000D03*
X136880600Y-75387200D03*
D13*
X149250400Y-90170000D03*
X143916400Y-90220800D03*
X154432000Y-91465400D03*
%TO.N,/LEDK*%
X153111200Y-76327000D03*
%TO.N,/D4*%
X149250400Y-88468200D03*
%TO.N,/CS*%
X141935200Y-89814400D03*
%TO.N,/D5*%
X149809200Y-83464400D03*
%TO.N,/SCK*%
X141173200Y-88188800D03*
%TO.N,/MOSI*%
X141173200Y-89052400D03*
%TO.N,/BTN1*%
X142036800Y-82346800D03*
%TO.N,/D2*%
X156006800Y-92811600D03*
X150380700Y-91770200D03*
%TO.N,/D3*%
X146329400Y-90220800D03*
%TO.N,/D12*%
X152933400Y-95453200D03*
X149275800Y-87426800D03*
%TO.N,/D11*%
X156006800Y-94615000D03*
X140665200Y-91541600D03*
%TO.N,/32K*%
X155981400Y-95529400D03*
X154533600Y-82296000D03*
%TD*%
D15*
%TO.N,3.3V*%
X136144000Y-82229960D02*
X137861040Y-82229960D01*
X137861040Y-82229960D02*
X137922000Y-82290920D01*
X136154160Y-82931000D02*
X136144000Y-82920840D01*
X137922000Y-82931000D02*
X136154160Y-82931000D01*
X140768910Y-81989090D02*
X141274800Y-81483200D01*
X139573000Y-82677000D02*
X140260910Y-81989090D01*
X140260910Y-81989090D02*
X140768910Y-81989090D01*
X137922000Y-82677000D02*
X139573000Y-82677000D01*
X137922000Y-82290920D02*
X137922000Y-82677000D01*
X137922000Y-82677000D02*
X137922000Y-82931000D01*
%TO.N,GND*%
X135272801Y-80758199D02*
X134576799Y-80758199D01*
X134576799Y-80758199D02*
X134199799Y-81135199D01*
X136144000Y-80848200D02*
X135362802Y-80848200D01*
X135362802Y-80848200D02*
X135272801Y-80758199D01*
X134597140Y-84305140D02*
X136144000Y-84305140D01*
X136144000Y-83614260D02*
X134208858Y-83614260D01*
X134208858Y-83614260D02*
X134199799Y-83605201D01*
X134199799Y-83605201D02*
X134199799Y-83907799D01*
X134188200Y-83261200D02*
X134199799Y-83272799D01*
X134199799Y-81135199D02*
X134199799Y-83272799D01*
X134199799Y-83272799D02*
X134199799Y-83605201D01*
X135186420Y-88450420D02*
X136144000Y-88450420D01*
X134199799Y-87463799D02*
X135186420Y-88450420D01*
X134580799Y-84288799D02*
X134597140Y-84305140D01*
X134199799Y-84288799D02*
X134580799Y-84288799D01*
X134199799Y-83907799D02*
X134199799Y-84288799D01*
X134834799Y-86320799D02*
X134874000Y-86360000D01*
X134199799Y-86320799D02*
X134834799Y-86320799D01*
X134199799Y-86320799D02*
X134199799Y-87463799D01*
X134199799Y-85050799D02*
X134811601Y-85050799D01*
X134199799Y-85050799D02*
X134199799Y-86320799D01*
X134811601Y-85050799D02*
X134874000Y-84988400D01*
X134199799Y-84288799D02*
X134199799Y-85050799D01*
%TO.N,/LEDK*%
X150033599Y-79176001D02*
X152857200Y-76352400D01*
X142656997Y-79176001D02*
X150033599Y-79176001D01*
X140293918Y-81539080D02*
X142656997Y-79176001D01*
X136144000Y-81539080D02*
X140293918Y-81539080D01*
%TO.N,/D4*%
X149072600Y-88646000D02*
X148818600Y-88646000D01*
X149250400Y-88468200D02*
X149072600Y-88646000D01*
X148818600Y-88646000D02*
X148996400Y-88646000D01*
X143191812Y-88646000D02*
X139541832Y-84996020D01*
X136144000Y-84996020D02*
X138625580Y-84996020D01*
X139541832Y-84996020D02*
X138625580Y-84996020D01*
X148818600Y-88646000D02*
X143191812Y-88646000D01*
X138625580Y-84996020D02*
X139287832Y-84996020D01*
%TO.N,/CS*%
X139596302Y-85686900D02*
X138950700Y-85686900D01*
X141935200Y-88025798D02*
X139596302Y-85686900D01*
X141935200Y-89814400D02*
X141935200Y-88025798D01*
X136144000Y-85686900D02*
X138950700Y-85686900D01*
X138950700Y-85686900D02*
X139342302Y-85686900D01*
%TO.N,/D5*%
X150180201Y-83835401D02*
X149809200Y-83464400D01*
X150180201Y-90165201D02*
X150180201Y-83835401D01*
X137156000Y-87759540D02*
X137543540Y-88147080D01*
X136144000Y-87759540D02*
X137156000Y-87759540D01*
X139877197Y-90916599D02*
X149428803Y-90916599D01*
X149428803Y-90916599D02*
X150180201Y-90165201D01*
X137543540Y-88147080D02*
X137543540Y-88582942D01*
X137543540Y-88582942D02*
X139877197Y-90916599D01*
%TO.N,/SCK*%
X140912998Y-88176100D02*
X141097000Y-88176100D01*
X136144000Y-86377780D02*
X137824792Y-86377780D01*
X139635812Y-88188800D02*
X140919200Y-88188800D01*
X137824792Y-86377780D02*
X139635812Y-88188800D01*
%TO.N,/MOSI*%
X137879262Y-87068660D02*
X139837602Y-89027000D01*
X136144000Y-87068660D02*
X137879262Y-87068660D01*
X140893800Y-89027000D02*
X140919200Y-89052400D01*
X139837602Y-89027000D02*
X140893800Y-89027000D01*
%TD*%
M02*
