%TF.GenerationSoftware,KiCad,Pcbnew,(5.1.6)-1*%
%TF.CreationDate,2020-10-28T20:54:40+01:00*%
%TF.ProjectId,ArduinoProMicroUSB,41726475-696e-46f5-9072-6f4d6963726f,rev?*%
%TF.SameCoordinates,Original*%
%TF.FileFunction,Copper,L1,Top*%
%TF.FilePolarity,Positive*%
%FSLAX46Y46*%
G04 Gerber Fmt 4.6, Leading zero omitted, Abs format (unit mm)*
G04 Created by KiCad (PCBNEW (5.1.6)-1) date 2020-10-28 20:54:40*
%MOMM*%
%LPD*%
G01*
G04 APERTURE LIST*
%TA.AperFunction,WasherPad*%
%ADD10C,1.300000*%
%TD*%
%TA.AperFunction,ComponentPad*%
%ADD11R,1.500000X1.500000*%
%TD*%
%TA.AperFunction,SMDPad,CuDef*%
%ADD12R,1.198880X0.548640*%
%TD*%
%TA.AperFunction,SMDPad,CuDef*%
%ADD13R,1.500000X0.550000*%
%TD*%
%TA.AperFunction,SMDPad,CuDef*%
%ADD14R,0.550000X1.500000*%
%TD*%
%TA.AperFunction,SMDPad,CuDef*%
%ADD15R,0.800000X0.500000*%
%TD*%
%TA.AperFunction,SMDPad,CuDef*%
%ADD16R,0.900000X0.400000*%
%TD*%
%TA.AperFunction,SMDPad,CuDef*%
%ADD17R,0.899160X0.797560*%
%TD*%
%TA.AperFunction,SMDPad,CuDef*%
%ADD18R,0.398780X1.399540*%
%TD*%
%TA.AperFunction,SMDPad,CuDef*%
%ADD19R,2.499360X1.498600*%
%TD*%
%TA.AperFunction,SMDPad,CuDef*%
%ADD20R,1.798320X1.498600*%
%TD*%
%TA.AperFunction,SMDPad,CuDef*%
%ADD21R,1.597660X1.399540*%
%TD*%
%TA.AperFunction,SMDPad,CuDef*%
%ADD22R,1.399540X1.597660*%
%TD*%
%TA.AperFunction,SMDPad,CuDef*%
%ADD23R,1.200000X0.900000*%
%TD*%
%TA.AperFunction,SMDPad,CuDef*%
%ADD24R,1.899920X1.099820*%
%TD*%
%TA.AperFunction,ViaPad*%
%ADD25C,0.600000*%
%TD*%
%TA.AperFunction,ViaPad*%
%ADD26C,0.800000*%
%TD*%
%TA.AperFunction,Conductor*%
%ADD27C,0.400000*%
%TD*%
%TA.AperFunction,Conductor*%
%ADD28C,0.250000*%
%TD*%
%TA.AperFunction,Conductor*%
%ADD29C,0.200000*%
%TD*%
G04 APERTURE END LIST*
D10*
%TO.P,REF\u002A\u002A,*%
%TO.N,*%
X156286200Y-75717400D03*
%TD*%
%TO.P,REF\u002A\u002A,*%
%TO.N,*%
X127762000Y-75717400D03*
%TD*%
%TO.P,REF\u002A\u002A,*%
%TO.N,*%
X127812800Y-99136200D03*
%TD*%
%TO.P,REF\u002A\u002A,*%
%TO.N,*%
X156311600Y-99136200D03*
%TD*%
%TO.P,LED1,C*%
%TO.N,GND*%
%TA.AperFunction,SMDPad,CuDef*%
G36*
G01*
X148109650Y-78796600D02*
X147597150Y-78796600D01*
G75*
G02*
X147378400Y-78577850I0J218750D01*
G01*
X147378400Y-78140350D01*
G75*
G02*
X147597150Y-77921600I218750J0D01*
G01*
X148109650Y-77921600D01*
G75*
G02*
X148328400Y-78140350I0J-218750D01*
G01*
X148328400Y-78577850D01*
G75*
G02*
X148109650Y-78796600I-218750J0D01*
G01*
G37*
%TD.AperFunction*%
%TO.P,LED1,A*%
%TO.N,Net-(LED1-PadA)*%
%TA.AperFunction,SMDPad,CuDef*%
G36*
G01*
X148109650Y-77221600D02*
X147597150Y-77221600D01*
G75*
G02*
X147378400Y-77002850I0J218750D01*
G01*
X147378400Y-76565350D01*
G75*
G02*
X147597150Y-76346600I218750J0D01*
G01*
X148109650Y-76346600D01*
G75*
G02*
X148328400Y-76565350I0J-218750D01*
G01*
X148328400Y-77002850D01*
G75*
G02*
X148109650Y-77221600I-218750J0D01*
G01*
G37*
%TD.AperFunction*%
%TD*%
%TO.P,R14,2*%
%TO.N,/BTN4*%
%TA.AperFunction,SMDPad,CuDef*%
G36*
G01*
X153586700Y-83398650D02*
X153586700Y-83911150D01*
G75*
G02*
X153367950Y-84129900I-218750J0D01*
G01*
X152930450Y-84129900D01*
G75*
G02*
X152711700Y-83911150I0J218750D01*
G01*
X152711700Y-83398650D01*
G75*
G02*
X152930450Y-83179900I218750J0D01*
G01*
X153367950Y-83179900D01*
G75*
G02*
X153586700Y-83398650I0J-218750D01*
G01*
G37*
%TD.AperFunction*%
%TO.P,R14,1*%
%TO.N,3.3V*%
%TA.AperFunction,SMDPad,CuDef*%
G36*
G01*
X155161700Y-83398650D02*
X155161700Y-83911150D01*
G75*
G02*
X154942950Y-84129900I-218750J0D01*
G01*
X154505450Y-84129900D01*
G75*
G02*
X154286700Y-83911150I0J218750D01*
G01*
X154286700Y-83398650D01*
G75*
G02*
X154505450Y-83179900I218750J0D01*
G01*
X154942950Y-83179900D01*
G75*
G02*
X155161700Y-83398650I0J-218750D01*
G01*
G37*
%TD.AperFunction*%
%TD*%
D11*
%TO.P,GND,1*%
%TO.N,GND*%
X128701800Y-95402400D03*
%TD*%
%TO.P,VCC,1*%
%TO.N,VCC*%
X128701800Y-93116400D03*
%TD*%
%TO.P,3.3,1*%
%TO.N,3.3V*%
X128701800Y-90830400D03*
%TD*%
%TO.P,SDA,1*%
%TO.N,/D2*%
X128701800Y-88544400D03*
%TD*%
%TO.P,SCL,1*%
%TO.N,/D3*%
X128701800Y-86258400D03*
%TD*%
%TO.P,CS,1*%
%TO.N,/CS*%
X128701800Y-83972400D03*
%TD*%
%TO.P,MOSI,1*%
%TO.N,/MOSI*%
X128701800Y-81546700D03*
%TD*%
%TO.P,SCK,1*%
%TO.N,/SCK*%
X128701800Y-79133700D03*
%TD*%
D12*
%TO.P,U2,5*%
%TO.N,3.3V*%
X135257540Y-78571140D03*
%TO.P,U2,4*%
%TO.N,Net-(C13-Pad1)*%
X135257540Y-80471060D03*
%TO.P,U2,3*%
%TO.N,/RAW*%
X132661660Y-80471060D03*
%TO.P,U2,2*%
%TO.N,GND*%
X132661660Y-79521100D03*
%TO.P,U2,1*%
%TO.N,/RAW*%
X132661660Y-78571140D03*
%TD*%
D13*
%TO.P,U5,1*%
%TO.N,/BTN1*%
X139803900Y-81864700D03*
%TO.P,U5,2*%
%TO.N,VCC*%
X139803900Y-82664700D03*
%TO.P,U5,3*%
%TO.N,/D-*%
X139803900Y-83464700D03*
%TO.P,U5,4*%
%TO.N,/D+*%
X139803900Y-84264700D03*
%TO.P,U5,5*%
%TO.N,GND*%
X139803900Y-85064700D03*
%TO.P,U5,6*%
%TO.N,Net-(C11-Pad2)*%
X139803900Y-85864700D03*
%TO.P,U5,7*%
%TO.N,VCC*%
X139803900Y-86664700D03*
%TO.P,U5,8*%
%TO.N,/D14*%
X139803900Y-87464700D03*
%TO.P,U5,9*%
%TO.N,/SCK*%
X139803900Y-88264700D03*
%TO.P,U5,10*%
%TO.N,/MOSI*%
X139803900Y-89064700D03*
%TO.P,U5,11*%
%TO.N,/CS*%
X139803900Y-89864700D03*
D14*
%TO.P,U5,12*%
%TO.N,/D11*%
X141503900Y-91564700D03*
%TO.P,U5,13*%
%TO.N,Net-(R4-Pad2)*%
X142303900Y-91564700D03*
%TO.P,U5,14*%
%TO.N,3.3V*%
X143103900Y-91564700D03*
%TO.P,U5,15*%
%TO.N,GND*%
X143903900Y-91564700D03*
%TO.P,U5,16*%
%TO.N,Net-(C6-Pad1)*%
X144703900Y-91564700D03*
%TO.P,U5,17*%
%TO.N,Net-(C5-Pad1)*%
X145503900Y-91564700D03*
%TO.P,U5,18*%
%TO.N,/D3*%
X146303900Y-91564700D03*
%TO.P,U5,19*%
%TO.N,/D2*%
X147103900Y-91564700D03*
%TO.P,U5,20*%
%TO.N,/RXI*%
X147903900Y-91564700D03*
%TO.P,U5,21*%
%TO.N,/TXO*%
X148703900Y-91564700D03*
%TO.P,U5,22*%
%TO.N,Net-(R6-Pad1)*%
X149503900Y-91564700D03*
D13*
%TO.P,U5,23*%
%TO.N,GND*%
X151203900Y-89864700D03*
%TO.P,U5,24*%
%TO.N,3.3V*%
X151203900Y-89064700D03*
%TO.P,U5,25*%
%TO.N,/D4*%
X151203900Y-88264700D03*
%TO.P,U5,26*%
%TO.N,/D12*%
X151203900Y-87464700D03*
%TO.P,U5,27*%
%TO.N,/D6*%
X151203900Y-86664700D03*
%TO.P,U5,28*%
%TO.N,/BTN2*%
X151203900Y-85864700D03*
%TO.P,U5,29*%
%TO.N,/BTN3*%
X151203900Y-85064700D03*
%TO.P,U5,30*%
%TO.N,/BTN4*%
X151203900Y-84264700D03*
%TO.P,U5,31*%
%TO.N,/D5*%
X151203900Y-83464700D03*
%TO.P,U5,32*%
%TO.N,/32K*%
X151203900Y-82664700D03*
%TO.P,U5,33*%
%TO.N,GND*%
X151203900Y-81864700D03*
D14*
%TO.P,U5,34*%
%TO.N,3.3V*%
X149503900Y-80164700D03*
%TO.P,U5,35*%
%TO.N,GND*%
X148703900Y-80164700D03*
%TO.P,U5,36*%
%TO.N,Net-(U5-Pad36)*%
X147903900Y-80164700D03*
%TO.P,U5,37*%
%TO.N,Net-(U5-Pad37)*%
X147103900Y-80164700D03*
%TO.P,U5,38*%
%TO.N,Net-(U5-Pad38)*%
X146303900Y-80164700D03*
%TO.P,U5,39*%
%TO.N,/A3*%
X145503900Y-80164700D03*
%TO.P,U5,40*%
%TO.N,/A4*%
X144703900Y-80164700D03*
%TO.P,U5,41*%
%TO.N,/A5*%
X143903900Y-80164700D03*
%TO.P,U5,42*%
%TO.N,/AREF*%
X143103900Y-80164700D03*
%TO.P,U5,43*%
%TO.N,GND*%
X142303900Y-80164700D03*
%TO.P,U5,44*%
%TO.N,3.3V*%
X141503900Y-80164700D03*
%TD*%
D15*
%TO.P,U1,1*%
%TO.N,/32K*%
X155057400Y-95507800D03*
%TO.P,U1,2*%
%TO.N,/D11*%
X155057400Y-94607800D03*
%TO.P,U1,3*%
%TO.N,/D3*%
X155057400Y-93707800D03*
%TO.P,U1,4*%
%TO.N,/D2*%
X155057400Y-92807800D03*
%TO.P,U1,5*%
%TO.N,GND*%
X153857400Y-92807800D03*
%TO.P,U1,6*%
%TO.N,Net-(R9-Pad1)*%
X153857400Y-93707800D03*
%TO.P,U1,7*%
%TO.N,3.3V*%
X153857400Y-94607800D03*
%TO.P,U1,8*%
%TO.N,/D12*%
X153857400Y-95507800D03*
%TD*%
D16*
%TO.P,RN2,2*%
%TO.N,3.3V*%
X150191100Y-94545200D03*
%TO.P,RN2,3*%
X150191100Y-95345200D03*
%TO.P,RN2,1*%
X150191100Y-93745200D03*
%TO.P,RN2,4*%
X150191100Y-96145200D03*
%TO.P,RN2,8*%
%TO.N,/D2*%
X151891100Y-93745200D03*
%TO.P,RN2,7*%
%TO.N,/D3*%
X151891100Y-94545200D03*
%TO.P,RN2,6*%
%TO.N,/D12*%
X151891100Y-95345200D03*
%TO.P,RN2,5*%
%TO.N,/D11*%
X151891100Y-96145200D03*
%TD*%
D17*
%TO.P,Q1,1*%
%TO.N,Net-(Q1-Pad1)*%
X153093420Y-80705960D03*
%TO.P,Q1,2*%
%TO.N,GND*%
X153093420Y-78806040D03*
%TO.P,Q1,3*%
%TO.N,Net-(Q1-Pad3)*%
X150995380Y-79756000D03*
%TD*%
%TO.P,D2,C*%
%TO.N,Net-(D2-PadC)*%
%TA.AperFunction,SMDPad,CuDef*%
G36*
G01*
X154942250Y-90023400D02*
X154429750Y-90023400D01*
G75*
G02*
X154211000Y-89804650I0J218750D01*
G01*
X154211000Y-89367150D01*
G75*
G02*
X154429750Y-89148400I218750J0D01*
G01*
X154942250Y-89148400D01*
G75*
G02*
X155161000Y-89367150I0J-218750D01*
G01*
X155161000Y-89804650D01*
G75*
G02*
X154942250Y-90023400I-218750J0D01*
G01*
G37*
%TD.AperFunction*%
%TO.P,D2,A*%
%TO.N,3.3V*%
%TA.AperFunction,SMDPad,CuDef*%
G36*
G01*
X154942250Y-88448400D02*
X154429750Y-88448400D01*
G75*
G02*
X154211000Y-88229650I0J218750D01*
G01*
X154211000Y-87792150D01*
G75*
G02*
X154429750Y-87573400I218750J0D01*
G01*
X154942250Y-87573400D01*
G75*
G02*
X155161000Y-87792150I0J-218750D01*
G01*
X155161000Y-88229650D01*
G75*
G02*
X154942250Y-88448400I-218750J0D01*
G01*
G37*
%TD.AperFunction*%
%TD*%
%TO.P,D3,A*%
%TO.N,3.3V*%
%TA.AperFunction,SMDPad,CuDef*%
G36*
G01*
X137377600Y-89461050D02*
X137377600Y-88948550D01*
G75*
G02*
X137596350Y-88729800I218750J0D01*
G01*
X138033850Y-88729800D01*
G75*
G02*
X138252600Y-88948550I0J-218750D01*
G01*
X138252600Y-89461050D01*
G75*
G02*
X138033850Y-89679800I-218750J0D01*
G01*
X137596350Y-89679800D01*
G75*
G02*
X137377600Y-89461050I0J218750D01*
G01*
G37*
%TD.AperFunction*%
%TO.P,D3,C*%
%TO.N,Net-(D3-PadC)*%
%TA.AperFunction,SMDPad,CuDef*%
G36*
G01*
X135802600Y-89461050D02*
X135802600Y-88948550D01*
G75*
G02*
X136021350Y-88729800I218750J0D01*
G01*
X136458850Y-88729800D01*
G75*
G02*
X136677600Y-88948550I0J-218750D01*
G01*
X136677600Y-89461050D01*
G75*
G02*
X136458850Y-89679800I-218750J0D01*
G01*
X136021350Y-89679800D01*
G75*
G02*
X135802600Y-89461050I0J218750D01*
G01*
G37*
%TD.AperFunction*%
%TD*%
D18*
%TO.P,U3,VBUS*%
%TO.N,VCC*%
X136712960Y-94952820D03*
D19*
%TO.P,U3,SHLD*%
%TO.N,N/C*%
X138010900Y-97650300D03*
D20*
X134332980Y-97650300D03*
X141688820Y-97650300D03*
D18*
%TO.P,U3,ID*%
%TO.N,Net-(U3-PadID)*%
X138658600Y-94952820D03*
%TO.P,U3,GND*%
%TO.N,GND*%
X139308840Y-94952820D03*
%TO.P,U3,D-*%
%TO.N,Net-(R5-Pad2)*%
X137363200Y-94952820D03*
%TO.P,U3,D+*%
%TO.N,Net-(R7-Pad2)*%
X138010900Y-94952820D03*
%TD*%
D21*
%TO.P,C2,C*%
%TO.N,GND*%
X139039600Y-80088740D03*
%TO.P,C2,A*%
%TO.N,3.3V*%
X139039600Y-77289660D03*
%TD*%
D22*
%TO.P,C1,A*%
%TO.N,/RAW*%
X134061200Y-76657200D03*
%TO.P,C1,C*%
%TO.N,GND*%
X136860280Y-76657200D03*
%TD*%
D23*
%TO.P,D1,1*%
%TO.N,/RAW*%
X132029200Y-84062300D03*
%TO.P,D1,2*%
%TO.N,Net-(D1-Pad2)*%
X132029200Y-87362300D03*
%TD*%
%TO.P,F1,1*%
%TO.N,VCC*%
%TA.AperFunction,SMDPad,CuDef*%
G36*
G01*
X133784001Y-94038400D02*
X130883999Y-94038400D01*
G75*
G02*
X130634000Y-93788401I0J249999D01*
G01*
X130634000Y-93163399D01*
G75*
G02*
X130883999Y-92913400I249999J0D01*
G01*
X133784001Y-92913400D01*
G75*
G02*
X134034000Y-93163399I0J-249999D01*
G01*
X134034000Y-93788401D01*
G75*
G02*
X133784001Y-94038400I-249999J0D01*
G01*
G37*
%TD.AperFunction*%
%TO.P,F1,2*%
%TO.N,Net-(D1-Pad2)*%
%TA.AperFunction,SMDPad,CuDef*%
G36*
G01*
X133784001Y-89763400D02*
X130883999Y-89763400D01*
G75*
G02*
X130634000Y-89513401I0J249999D01*
G01*
X130634000Y-88888399D01*
G75*
G02*
X130883999Y-88638400I249999J0D01*
G01*
X133784001Y-88638400D01*
G75*
G02*
X134034000Y-88888399I0J-249999D01*
G01*
X134034000Y-89513401D01*
G75*
G02*
X133784001Y-89763400I-249999J0D01*
G01*
G37*
%TD.AperFunction*%
%TD*%
%TO.P,R1,1*%
%TO.N,Net-(Q1-Pad1)*%
%TA.AperFunction,SMDPad,CuDef*%
G36*
G01*
X154840650Y-80981000D02*
X154328150Y-80981000D01*
G75*
G02*
X154109400Y-80762250I0J218750D01*
G01*
X154109400Y-80324750D01*
G75*
G02*
X154328150Y-80106000I218750J0D01*
G01*
X154840650Y-80106000D01*
G75*
G02*
X155059400Y-80324750I0J-218750D01*
G01*
X155059400Y-80762250D01*
G75*
G02*
X154840650Y-80981000I-218750J0D01*
G01*
G37*
%TD.AperFunction*%
%TO.P,R1,2*%
%TO.N,3.3V*%
%TA.AperFunction,SMDPad,CuDef*%
G36*
G01*
X154840650Y-79406000D02*
X154328150Y-79406000D01*
G75*
G02*
X154109400Y-79187250I0J218750D01*
G01*
X154109400Y-78749750D01*
G75*
G02*
X154328150Y-78531000I218750J0D01*
G01*
X154840650Y-78531000D01*
G75*
G02*
X155059400Y-78749750I0J-218750D01*
G01*
X155059400Y-79187250D01*
G75*
G02*
X154840650Y-79406000I-218750J0D01*
G01*
G37*
%TD.AperFunction*%
%TD*%
%TO.P,R2,1*%
%TO.N,Net-(LED1-PadA)*%
%TA.AperFunction,SMDPad,CuDef*%
G36*
G01*
X149121150Y-76346600D02*
X149633650Y-76346600D01*
G75*
G02*
X149852400Y-76565350I0J-218750D01*
G01*
X149852400Y-77002850D01*
G75*
G02*
X149633650Y-77221600I-218750J0D01*
G01*
X149121150Y-77221600D01*
G75*
G02*
X148902400Y-77002850I0J218750D01*
G01*
X148902400Y-76565350D01*
G75*
G02*
X149121150Y-76346600I218750J0D01*
G01*
G37*
%TD.AperFunction*%
%TO.P,R2,2*%
%TO.N,3.3V*%
%TA.AperFunction,SMDPad,CuDef*%
G36*
G01*
X149121150Y-77921600D02*
X149633650Y-77921600D01*
G75*
G02*
X149852400Y-78140350I0J-218750D01*
G01*
X149852400Y-78577850D01*
G75*
G02*
X149633650Y-78796600I-218750J0D01*
G01*
X149121150Y-78796600D01*
G75*
G02*
X148902400Y-78577850I0J218750D01*
G01*
X148902400Y-78140350D01*
G75*
G02*
X149121150Y-77921600I218750J0D01*
G01*
G37*
%TD.AperFunction*%
%TD*%
%TO.P,R3,1*%
%TO.N,Net-(Q1-Pad1)*%
%TA.AperFunction,SMDPad,CuDef*%
G36*
G01*
X156301150Y-80981000D02*
X155788650Y-80981000D01*
G75*
G02*
X155569900Y-80762250I0J218750D01*
G01*
X155569900Y-80324750D01*
G75*
G02*
X155788650Y-80106000I218750J0D01*
G01*
X156301150Y-80106000D01*
G75*
G02*
X156519900Y-80324750I0J-218750D01*
G01*
X156519900Y-80762250D01*
G75*
G02*
X156301150Y-80981000I-218750J0D01*
G01*
G37*
%TD.AperFunction*%
%TO.P,R3,2*%
%TO.N,3.3V*%
%TA.AperFunction,SMDPad,CuDef*%
G36*
G01*
X156301150Y-79406000D02*
X155788650Y-79406000D01*
G75*
G02*
X155569900Y-79187250I0J218750D01*
G01*
X155569900Y-78749750D01*
G75*
G02*
X155788650Y-78531000I218750J0D01*
G01*
X156301150Y-78531000D01*
G75*
G02*
X156519900Y-78749750I0J-218750D01*
G01*
X156519900Y-79187250D01*
G75*
G02*
X156301150Y-79406000I-218750J0D01*
G01*
G37*
%TD.AperFunction*%
%TD*%
%TO.P,R4,2*%
%TO.N,Net-(R4-Pad2)*%
%TA.AperFunction,SMDPad,CuDef*%
G36*
G01*
X141331200Y-93190350D02*
X141331200Y-93702850D01*
G75*
G02*
X141112450Y-93921600I-218750J0D01*
G01*
X140674950Y-93921600D01*
G75*
G02*
X140456200Y-93702850I0J218750D01*
G01*
X140456200Y-93190350D01*
G75*
G02*
X140674950Y-92971600I218750J0D01*
G01*
X141112450Y-92971600D01*
G75*
G02*
X141331200Y-93190350I0J-218750D01*
G01*
G37*
%TD.AperFunction*%
%TO.P,R4,1*%
%TO.N,3.3V*%
%TA.AperFunction,SMDPad,CuDef*%
G36*
G01*
X142906200Y-93190350D02*
X142906200Y-93702850D01*
G75*
G02*
X142687450Y-93921600I-218750J0D01*
G01*
X142249950Y-93921600D01*
G75*
G02*
X142031200Y-93702850I0J218750D01*
G01*
X142031200Y-93190350D01*
G75*
G02*
X142249950Y-92971600I218750J0D01*
G01*
X142687450Y-92971600D01*
G75*
G02*
X142906200Y-93190350I0J-218750D01*
G01*
G37*
%TD.AperFunction*%
%TD*%
%TO.P,R5,1*%
%TO.N,/D-*%
%TA.AperFunction,SMDPad,CuDef*%
G36*
G01*
X135981350Y-90634100D02*
X136493850Y-90634100D01*
G75*
G02*
X136712600Y-90852850I0J-218750D01*
G01*
X136712600Y-91290350D01*
G75*
G02*
X136493850Y-91509100I-218750J0D01*
G01*
X135981350Y-91509100D01*
G75*
G02*
X135762600Y-91290350I0J218750D01*
G01*
X135762600Y-90852850D01*
G75*
G02*
X135981350Y-90634100I218750J0D01*
G01*
G37*
%TD.AperFunction*%
%TO.P,R5,2*%
%TO.N,Net-(R5-Pad2)*%
%TA.AperFunction,SMDPad,CuDef*%
G36*
G01*
X135981350Y-92209100D02*
X136493850Y-92209100D01*
G75*
G02*
X136712600Y-92427850I0J-218750D01*
G01*
X136712600Y-92865350D01*
G75*
G02*
X136493850Y-93084100I-218750J0D01*
G01*
X135981350Y-93084100D01*
G75*
G02*
X135762600Y-92865350I0J218750D01*
G01*
X135762600Y-92427850D01*
G75*
G02*
X135981350Y-92209100I218750J0D01*
G01*
G37*
%TD.AperFunction*%
%TD*%
%TO.P,R6,1*%
%TO.N,Net-(R6-Pad1)*%
%TA.AperFunction,SMDPad,CuDef*%
G36*
G01*
X153443650Y-90043400D02*
X152931150Y-90043400D01*
G75*
G02*
X152712400Y-89824650I0J218750D01*
G01*
X152712400Y-89387150D01*
G75*
G02*
X152931150Y-89168400I218750J0D01*
G01*
X153443650Y-89168400D01*
G75*
G02*
X153662400Y-89387150I0J-218750D01*
G01*
X153662400Y-89824650D01*
G75*
G02*
X153443650Y-90043400I-218750J0D01*
G01*
G37*
%TD.AperFunction*%
%TO.P,R6,2*%
%TO.N,Net-(D2-PadC)*%
%TA.AperFunction,SMDPad,CuDef*%
G36*
G01*
X153443650Y-88468400D02*
X152931150Y-88468400D01*
G75*
G02*
X152712400Y-88249650I0J218750D01*
G01*
X152712400Y-87812150D01*
G75*
G02*
X152931150Y-87593400I218750J0D01*
G01*
X153443650Y-87593400D01*
G75*
G02*
X153662400Y-87812150I0J-218750D01*
G01*
X153662400Y-88249650D01*
G75*
G02*
X153443650Y-88468400I-218750J0D01*
G01*
G37*
%TD.AperFunction*%
%TD*%
%TO.P,R7,1*%
%TO.N,/D+*%
%TA.AperFunction,SMDPad,CuDef*%
G36*
G01*
X137521350Y-90634100D02*
X138033850Y-90634100D01*
G75*
G02*
X138252600Y-90852850I0J-218750D01*
G01*
X138252600Y-91290350D01*
G75*
G02*
X138033850Y-91509100I-218750J0D01*
G01*
X137521350Y-91509100D01*
G75*
G02*
X137302600Y-91290350I0J218750D01*
G01*
X137302600Y-90852850D01*
G75*
G02*
X137521350Y-90634100I218750J0D01*
G01*
G37*
%TD.AperFunction*%
%TO.P,R7,2*%
%TO.N,Net-(R7-Pad2)*%
%TA.AperFunction,SMDPad,CuDef*%
G36*
G01*
X137521350Y-92209100D02*
X138033850Y-92209100D01*
G75*
G02*
X138252600Y-92427850I0J-218750D01*
G01*
X138252600Y-92865350D01*
G75*
G02*
X138033850Y-93084100I-218750J0D01*
G01*
X137521350Y-93084100D01*
G75*
G02*
X137302600Y-92865350I0J218750D01*
G01*
X137302600Y-92427850D01*
G75*
G02*
X137521350Y-92209100I218750J0D01*
G01*
G37*
%TD.AperFunction*%
%TD*%
%TO.P,R8,2*%
%TO.N,Net-(Q1-Pad3)*%
%TA.AperFunction,SMDPad,CuDef*%
G36*
G01*
X151999200Y-77112150D02*
X151999200Y-77624650D01*
G75*
G02*
X151780450Y-77843400I-218750J0D01*
G01*
X151342950Y-77843400D01*
G75*
G02*
X151124200Y-77624650I0J218750D01*
G01*
X151124200Y-77112150D01*
G75*
G02*
X151342950Y-76893400I218750J0D01*
G01*
X151780450Y-76893400D01*
G75*
G02*
X151999200Y-77112150I0J-218750D01*
G01*
G37*
%TD.AperFunction*%
%TO.P,R8,1*%
%TO.N,/LEDK*%
%TA.AperFunction,SMDPad,CuDef*%
G36*
G01*
X153574200Y-77112150D02*
X153574200Y-77624650D01*
G75*
G02*
X153355450Y-77843400I-218750J0D01*
G01*
X152917950Y-77843400D01*
G75*
G02*
X152699200Y-77624650I0J218750D01*
G01*
X152699200Y-77112150D01*
G75*
G02*
X152917950Y-76893400I218750J0D01*
G01*
X153355450Y-76893400D01*
G75*
G02*
X153574200Y-77112150I0J-218750D01*
G01*
G37*
%TD.AperFunction*%
%TD*%
%TO.P,R9,1*%
%TO.N,Net-(R9-Pad1)*%
%TA.AperFunction,SMDPad,CuDef*%
G36*
G01*
X151022600Y-91823250D02*
X151022600Y-91310750D01*
G75*
G02*
X151241350Y-91092000I218750J0D01*
G01*
X151678850Y-91092000D01*
G75*
G02*
X151897600Y-91310750I0J-218750D01*
G01*
X151897600Y-91823250D01*
G75*
G02*
X151678850Y-92042000I-218750J0D01*
G01*
X151241350Y-92042000D01*
G75*
G02*
X151022600Y-91823250I0J218750D01*
G01*
G37*
%TD.AperFunction*%
%TO.P,R9,2*%
%TO.N,GND*%
%TA.AperFunction,SMDPad,CuDef*%
G36*
G01*
X152597600Y-91823250D02*
X152597600Y-91310750D01*
G75*
G02*
X152816350Y-91092000I218750J0D01*
G01*
X153253850Y-91092000D01*
G75*
G02*
X153472600Y-91310750I0J-218750D01*
G01*
X153472600Y-91823250D01*
G75*
G02*
X153253850Y-92042000I-218750J0D01*
G01*
X152816350Y-92042000D01*
G75*
G02*
X152597600Y-91823250I0J218750D01*
G01*
G37*
%TD.AperFunction*%
%TD*%
%TO.P,R11,2*%
%TO.N,Net-(D3-PadC)*%
%TA.AperFunction,SMDPad,CuDef*%
G36*
G01*
X136657600Y-87475350D02*
X136657600Y-87987850D01*
G75*
G02*
X136438850Y-88206600I-218750J0D01*
G01*
X136001350Y-88206600D01*
G75*
G02*
X135782600Y-87987850I0J218750D01*
G01*
X135782600Y-87475350D01*
G75*
G02*
X136001350Y-87256600I218750J0D01*
G01*
X136438850Y-87256600D01*
G75*
G02*
X136657600Y-87475350I0J-218750D01*
G01*
G37*
%TD.AperFunction*%
%TO.P,R11,1*%
%TO.N,/D14*%
%TA.AperFunction,SMDPad,CuDef*%
G36*
G01*
X138232600Y-87475350D02*
X138232600Y-87987850D01*
G75*
G02*
X138013850Y-88206600I-218750J0D01*
G01*
X137576350Y-88206600D01*
G75*
G02*
X137357600Y-87987850I0J218750D01*
G01*
X137357600Y-87475350D01*
G75*
G02*
X137576350Y-87256600I218750J0D01*
G01*
X138013850Y-87256600D01*
G75*
G02*
X138232600Y-87475350I0J-218750D01*
G01*
G37*
%TD.AperFunction*%
%TD*%
%TO.P,R12,1*%
%TO.N,3.3V*%
%TA.AperFunction,SMDPad,CuDef*%
G36*
G01*
X135782600Y-82399850D02*
X135782600Y-81887350D01*
G75*
G02*
X136001350Y-81668600I218750J0D01*
G01*
X136438850Y-81668600D01*
G75*
G02*
X136657600Y-81887350I0J-218750D01*
G01*
X136657600Y-82399850D01*
G75*
G02*
X136438850Y-82618600I-218750J0D01*
G01*
X136001350Y-82618600D01*
G75*
G02*
X135782600Y-82399850I0J218750D01*
G01*
G37*
%TD.AperFunction*%
%TO.P,R12,2*%
%TO.N,/BTN1*%
%TA.AperFunction,SMDPad,CuDef*%
G36*
G01*
X137357600Y-82399850D02*
X137357600Y-81887350D01*
G75*
G02*
X137576350Y-81668600I218750J0D01*
G01*
X138013850Y-81668600D01*
G75*
G02*
X138232600Y-81887350I0J-218750D01*
G01*
X138232600Y-82399850D01*
G75*
G02*
X138013850Y-82618600I-218750J0D01*
G01*
X137576350Y-82618600D01*
G75*
G02*
X137357600Y-82399850I0J218750D01*
G01*
G37*
%TD.AperFunction*%
%TD*%
%TO.P,R13,1*%
%TO.N,3.3V*%
%TA.AperFunction,SMDPad,CuDef*%
G36*
G01*
X155161700Y-84846450D02*
X155161700Y-85358950D01*
G75*
G02*
X154942950Y-85577700I-218750J0D01*
G01*
X154505450Y-85577700D01*
G75*
G02*
X154286700Y-85358950I0J218750D01*
G01*
X154286700Y-84846450D01*
G75*
G02*
X154505450Y-84627700I218750J0D01*
G01*
X154942950Y-84627700D01*
G75*
G02*
X155161700Y-84846450I0J-218750D01*
G01*
G37*
%TD.AperFunction*%
%TO.P,R13,2*%
%TO.N,/BTN3*%
%TA.AperFunction,SMDPad,CuDef*%
G36*
G01*
X153586700Y-84846450D02*
X153586700Y-85358950D01*
G75*
G02*
X153367950Y-85577700I-218750J0D01*
G01*
X152930450Y-85577700D01*
G75*
G02*
X152711700Y-85358950I0J218750D01*
G01*
X152711700Y-84846450D01*
G75*
G02*
X152930450Y-84627700I218750J0D01*
G01*
X153367950Y-84627700D01*
G75*
G02*
X153586700Y-84846450I0J-218750D01*
G01*
G37*
%TD.AperFunction*%
%TD*%
%TO.P,R15,2*%
%TO.N,/BTN2*%
%TA.AperFunction,SMDPad,CuDef*%
G36*
G01*
X153586700Y-86319650D02*
X153586700Y-86832150D01*
G75*
G02*
X153367950Y-87050900I-218750J0D01*
G01*
X152930450Y-87050900D01*
G75*
G02*
X152711700Y-86832150I0J218750D01*
G01*
X152711700Y-86319650D01*
G75*
G02*
X152930450Y-86100900I218750J0D01*
G01*
X153367950Y-86100900D01*
G75*
G02*
X153586700Y-86319650I0J-218750D01*
G01*
G37*
%TD.AperFunction*%
%TO.P,R15,1*%
%TO.N,3.3V*%
%TA.AperFunction,SMDPad,CuDef*%
G36*
G01*
X155161700Y-86319650D02*
X155161700Y-86832150D01*
G75*
G02*
X154942950Y-87050900I-218750J0D01*
G01*
X154505450Y-87050900D01*
G75*
G02*
X154286700Y-86832150I0J218750D01*
G01*
X154286700Y-86319650D01*
G75*
G02*
X154505450Y-86100900I218750J0D01*
G01*
X154942950Y-86100900D01*
G75*
G02*
X155161700Y-86319650I0J-218750D01*
G01*
G37*
%TD.AperFunction*%
%TD*%
D24*
%TO.P,Y1,1*%
%TO.N,Net-(C6-Pad1)*%
X144277080Y-97858580D03*
%TO.P,Y1,2*%
%TO.N,N/C*%
X147975320Y-97858580D03*
%TO.P,Y1,3*%
%TO.N,Net-(C5-Pad1)*%
X147975320Y-95562420D03*
%TO.P,Y1,4*%
%TO.N,N/C*%
X144277080Y-95562420D03*
%TD*%
%TO.P,C3,2*%
%TO.N,GND*%
%TA.AperFunction,SMDPad,CuDef*%
G36*
G01*
X141810450Y-77221600D02*
X141297950Y-77221600D01*
G75*
G02*
X141079200Y-77002850I0J218750D01*
G01*
X141079200Y-76565350D01*
G75*
G02*
X141297950Y-76346600I218750J0D01*
G01*
X141810450Y-76346600D01*
G75*
G02*
X142029200Y-76565350I0J-218750D01*
G01*
X142029200Y-77002850D01*
G75*
G02*
X141810450Y-77221600I-218750J0D01*
G01*
G37*
%TD.AperFunction*%
%TO.P,C3,1*%
%TO.N,3.3V*%
%TA.AperFunction,SMDPad,CuDef*%
G36*
G01*
X141810450Y-78796600D02*
X141297950Y-78796600D01*
G75*
G02*
X141079200Y-78577850I0J218750D01*
G01*
X141079200Y-78140350D01*
G75*
G02*
X141297950Y-77921600I218750J0D01*
G01*
X141810450Y-77921600D01*
G75*
G02*
X142029200Y-78140350I0J-218750D01*
G01*
X142029200Y-78577850D01*
G75*
G02*
X141810450Y-78796600I-218750J0D01*
G01*
G37*
%TD.AperFunction*%
%TD*%
%TO.P,C4,2*%
%TO.N,3.3V*%
%TA.AperFunction,SMDPad,CuDef*%
G36*
G01*
X137454350Y-79190100D02*
X136941850Y-79190100D01*
G75*
G02*
X136723100Y-78971350I0J218750D01*
G01*
X136723100Y-78533850D01*
G75*
G02*
X136941850Y-78315100I218750J0D01*
G01*
X137454350Y-78315100D01*
G75*
G02*
X137673100Y-78533850I0J-218750D01*
G01*
X137673100Y-78971350D01*
G75*
G02*
X137454350Y-79190100I-218750J0D01*
G01*
G37*
%TD.AperFunction*%
%TO.P,C4,1*%
%TO.N,GND*%
%TA.AperFunction,SMDPad,CuDef*%
G36*
G01*
X137454350Y-80765100D02*
X136941850Y-80765100D01*
G75*
G02*
X136723100Y-80546350I0J218750D01*
G01*
X136723100Y-80108850D01*
G75*
G02*
X136941850Y-79890100I218750J0D01*
G01*
X137454350Y-79890100D01*
G75*
G02*
X137673100Y-80108850I0J-218750D01*
G01*
X137673100Y-80546350D01*
G75*
G02*
X137454350Y-80765100I-218750J0D01*
G01*
G37*
%TD.AperFunction*%
%TD*%
%TO.P,C5,1*%
%TO.N,Net-(C5-Pad1)*%
%TA.AperFunction,SMDPad,CuDef*%
G36*
G01*
X146349000Y-94210850D02*
X146349000Y-93698350D01*
G75*
G02*
X146567750Y-93479600I218750J0D01*
G01*
X147005250Y-93479600D01*
G75*
G02*
X147224000Y-93698350I0J-218750D01*
G01*
X147224000Y-94210850D01*
G75*
G02*
X147005250Y-94429600I-218750J0D01*
G01*
X146567750Y-94429600D01*
G75*
G02*
X146349000Y-94210850I0J218750D01*
G01*
G37*
%TD.AperFunction*%
%TO.P,C5,2*%
%TO.N,GND*%
%TA.AperFunction,SMDPad,CuDef*%
G36*
G01*
X147924000Y-94210850D02*
X147924000Y-93698350D01*
G75*
G02*
X148142750Y-93479600I218750J0D01*
G01*
X148580250Y-93479600D01*
G75*
G02*
X148799000Y-93698350I0J-218750D01*
G01*
X148799000Y-94210850D01*
G75*
G02*
X148580250Y-94429600I-218750J0D01*
G01*
X148142750Y-94429600D01*
G75*
G02*
X147924000Y-94210850I0J218750D01*
G01*
G37*
%TD.AperFunction*%
%TD*%
%TO.P,C6,2*%
%TO.N,GND*%
%TA.AperFunction,SMDPad,CuDef*%
G36*
G01*
X144303000Y-93698350D02*
X144303000Y-94210850D01*
G75*
G02*
X144084250Y-94429600I-218750J0D01*
G01*
X143646750Y-94429600D01*
G75*
G02*
X143428000Y-94210850I0J218750D01*
G01*
X143428000Y-93698350D01*
G75*
G02*
X143646750Y-93479600I218750J0D01*
G01*
X144084250Y-93479600D01*
G75*
G02*
X144303000Y-93698350I0J-218750D01*
G01*
G37*
%TD.AperFunction*%
%TO.P,C6,1*%
%TO.N,Net-(C6-Pad1)*%
%TA.AperFunction,SMDPad,CuDef*%
G36*
G01*
X145878000Y-93698350D02*
X145878000Y-94210850D01*
G75*
G02*
X145659250Y-94429600I-218750J0D01*
G01*
X145221750Y-94429600D01*
G75*
G02*
X145003000Y-94210850I0J218750D01*
G01*
X145003000Y-93698350D01*
G75*
G02*
X145221750Y-93479600I218750J0D01*
G01*
X145659250Y-93479600D01*
G75*
G02*
X145878000Y-93698350I0J-218750D01*
G01*
G37*
%TD.AperFunction*%
%TD*%
%TO.P,C7,2*%
%TO.N,GND*%
%TA.AperFunction,SMDPad,CuDef*%
G36*
G01*
X154945600Y-77112150D02*
X154945600Y-77624650D01*
G75*
G02*
X154726850Y-77843400I-218750J0D01*
G01*
X154289350Y-77843400D01*
G75*
G02*
X154070600Y-77624650I0J218750D01*
G01*
X154070600Y-77112150D01*
G75*
G02*
X154289350Y-76893400I218750J0D01*
G01*
X154726850Y-76893400D01*
G75*
G02*
X154945600Y-77112150I0J-218750D01*
G01*
G37*
%TD.AperFunction*%
%TO.P,C7,1*%
%TO.N,3.3V*%
%TA.AperFunction,SMDPad,CuDef*%
G36*
G01*
X156520600Y-77112150D02*
X156520600Y-77624650D01*
G75*
G02*
X156301850Y-77843400I-218750J0D01*
G01*
X155864350Y-77843400D01*
G75*
G02*
X155645600Y-77624650I0J218750D01*
G01*
X155645600Y-77112150D01*
G75*
G02*
X155864350Y-76893400I218750J0D01*
G01*
X156301850Y-76893400D01*
G75*
G02*
X156520600Y-77112150I0J-218750D01*
G01*
G37*
%TD.AperFunction*%
%TD*%
%TO.P,C8,1*%
%TO.N,3.3V*%
%TA.AperFunction,SMDPad,CuDef*%
G36*
G01*
X149816100Y-97906550D02*
X149816100Y-97394050D01*
G75*
G02*
X150034850Y-97175300I218750J0D01*
G01*
X150472350Y-97175300D01*
G75*
G02*
X150691100Y-97394050I0J-218750D01*
G01*
X150691100Y-97906550D01*
G75*
G02*
X150472350Y-98125300I-218750J0D01*
G01*
X150034850Y-98125300D01*
G75*
G02*
X149816100Y-97906550I0J218750D01*
G01*
G37*
%TD.AperFunction*%
%TO.P,C8,2*%
%TO.N,GND*%
%TA.AperFunction,SMDPad,CuDef*%
G36*
G01*
X151391100Y-97906550D02*
X151391100Y-97394050D01*
G75*
G02*
X151609850Y-97175300I218750J0D01*
G01*
X152047350Y-97175300D01*
G75*
G02*
X152266100Y-97394050I0J-218750D01*
G01*
X152266100Y-97906550D01*
G75*
G02*
X152047350Y-98125300I-218750J0D01*
G01*
X151609850Y-98125300D01*
G75*
G02*
X151391100Y-97906550I0J218750D01*
G01*
G37*
%TD.AperFunction*%
%TD*%
%TO.P,C10,1*%
%TO.N,GND*%
%TA.AperFunction,SMDPad,CuDef*%
G36*
G01*
X142771150Y-76346600D02*
X143283650Y-76346600D01*
G75*
G02*
X143502400Y-76565350I0J-218750D01*
G01*
X143502400Y-77002850D01*
G75*
G02*
X143283650Y-77221600I-218750J0D01*
G01*
X142771150Y-77221600D01*
G75*
G02*
X142552400Y-77002850I0J218750D01*
G01*
X142552400Y-76565350D01*
G75*
G02*
X142771150Y-76346600I218750J0D01*
G01*
G37*
%TD.AperFunction*%
%TO.P,C10,2*%
%TO.N,/AREF*%
%TA.AperFunction,SMDPad,CuDef*%
G36*
G01*
X142771150Y-77921600D02*
X143283650Y-77921600D01*
G75*
G02*
X143502400Y-78140350I0J-218750D01*
G01*
X143502400Y-78577850D01*
G75*
G02*
X143283650Y-78796600I-218750J0D01*
G01*
X142771150Y-78796600D01*
G75*
G02*
X142552400Y-78577850I0J218750D01*
G01*
X142552400Y-78140350D01*
G75*
G02*
X142771150Y-77921600I218750J0D01*
G01*
G37*
%TD.AperFunction*%
%TD*%
%TO.P,C11,2*%
%TO.N,Net-(C11-Pad2)*%
%TA.AperFunction,SMDPad,CuDef*%
G36*
G01*
X137357600Y-85244650D02*
X137357600Y-84732150D01*
G75*
G02*
X137576350Y-84513400I218750J0D01*
G01*
X138013850Y-84513400D01*
G75*
G02*
X138232600Y-84732150I0J-218750D01*
G01*
X138232600Y-85244650D01*
G75*
G02*
X138013850Y-85463400I-218750J0D01*
G01*
X137576350Y-85463400D01*
G75*
G02*
X137357600Y-85244650I0J218750D01*
G01*
G37*
%TD.AperFunction*%
%TO.P,C11,1*%
%TO.N,GND*%
%TA.AperFunction,SMDPad,CuDef*%
G36*
G01*
X135782600Y-85244650D02*
X135782600Y-84732150D01*
G75*
G02*
X136001350Y-84513400I218750J0D01*
G01*
X136438850Y-84513400D01*
G75*
G02*
X136657600Y-84732150I0J-218750D01*
G01*
X136657600Y-85244650D01*
G75*
G02*
X136438850Y-85463400I-218750J0D01*
G01*
X136001350Y-85463400D01*
G75*
G02*
X135782600Y-85244650I0J218750D01*
G01*
G37*
%TD.AperFunction*%
%TD*%
%TO.P,C12,1*%
%TO.N,VCC*%
%TA.AperFunction,SMDPad,CuDef*%
G36*
G01*
X138232600Y-86103750D02*
X138232600Y-86616250D01*
G75*
G02*
X138013850Y-86835000I-218750J0D01*
G01*
X137576350Y-86835000D01*
G75*
G02*
X137357600Y-86616250I0J218750D01*
G01*
X137357600Y-86103750D01*
G75*
G02*
X137576350Y-85885000I218750J0D01*
G01*
X138013850Y-85885000D01*
G75*
G02*
X138232600Y-86103750I0J-218750D01*
G01*
G37*
%TD.AperFunction*%
%TO.P,C12,2*%
%TO.N,GND*%
%TA.AperFunction,SMDPad,CuDef*%
G36*
G01*
X136657600Y-86103750D02*
X136657600Y-86616250D01*
G75*
G02*
X136438850Y-86835000I-218750J0D01*
G01*
X136001350Y-86835000D01*
G75*
G02*
X135782600Y-86616250I0J218750D01*
G01*
X135782600Y-86103750D01*
G75*
G02*
X136001350Y-85885000I218750J0D01*
G01*
X136438850Y-85885000D01*
G75*
G02*
X136657600Y-86103750I0J-218750D01*
G01*
G37*
%TD.AperFunction*%
%TD*%
%TO.P,C13,2*%
%TO.N,GND*%
%TA.AperFunction,SMDPad,CuDef*%
G36*
G01*
X132949200Y-81887350D02*
X132949200Y-82399850D01*
G75*
G02*
X132730450Y-82618600I-218750J0D01*
G01*
X132292950Y-82618600D01*
G75*
G02*
X132074200Y-82399850I0J218750D01*
G01*
X132074200Y-81887350D01*
G75*
G02*
X132292950Y-81668600I218750J0D01*
G01*
X132730450Y-81668600D01*
G75*
G02*
X132949200Y-81887350I0J-218750D01*
G01*
G37*
%TD.AperFunction*%
%TO.P,C13,1*%
%TO.N,Net-(C13-Pad1)*%
%TA.AperFunction,SMDPad,CuDef*%
G36*
G01*
X134524200Y-81887350D02*
X134524200Y-82399850D01*
G75*
G02*
X134305450Y-82618600I-218750J0D01*
G01*
X133867950Y-82618600D01*
G75*
G02*
X133649200Y-82399850I0J218750D01*
G01*
X133649200Y-81887350D01*
G75*
G02*
X133867950Y-81668600I218750J0D01*
G01*
X134305450Y-81668600D01*
G75*
G02*
X134524200Y-81887350I0J-218750D01*
G01*
G37*
%TD.AperFunction*%
%TD*%
D25*
%TO.N,3.3V*%
X149275800Y-96774000D03*
X152933400Y-94564200D03*
X134874000Y-81407000D03*
X156997400Y-77368400D03*
X143103600Y-90220800D03*
X149250400Y-89357200D03*
X149504400Y-81483200D03*
X141528800Y-81483200D03*
X155194000Y-81610200D03*
%TO.N,GND*%
X152755600Y-97612200D03*
X140462000Y-76835000D03*
X139585700Y-93599000D03*
X143002000Y-75946000D03*
X154533600Y-76327000D03*
X149275800Y-94157800D03*
X135001000Y-86360000D03*
X134975600Y-84988400D03*
X141173200Y-85039200D03*
X148691600Y-81483200D03*
X142341600Y-81483200D03*
X153822400Y-81584800D03*
D26*
X136042400Y-79502000D03*
X140563600Y-80060800D03*
X133553200Y-83185000D03*
X136880600Y-75387200D03*
D25*
X149250400Y-90170000D03*
X143916400Y-90220800D03*
X154432000Y-91465400D03*
%TO.N,/LEDK*%
X153111200Y-76327000D03*
%TO.N,/D4*%
X149250400Y-88468200D03*
%TO.N,/CS*%
X141935200Y-89814400D03*
%TO.N,/D5*%
X149809200Y-83464400D03*
%TO.N,/SCK*%
X141173200Y-88188800D03*
%TO.N,/MOSI*%
X141173200Y-89052400D03*
%TO.N,/BTN1*%
X142036800Y-82346800D03*
%TO.N,/D2*%
X156006800Y-92811600D03*
X150380700Y-91770200D03*
%TO.N,/D3*%
X146329400Y-90220800D03*
%TO.N,/D12*%
X152933400Y-95453200D03*
X149275800Y-87426800D03*
%TO.N,/D11*%
X156006800Y-94615000D03*
X140665200Y-91541600D03*
%TO.N,/32K*%
X155981400Y-95529400D03*
X154533600Y-82296000D03*
%TD*%
D27*
%TO.N,3.3V*%
X141439390Y-80100190D02*
X141503900Y-80164700D01*
X141605000Y-80063600D02*
X141503900Y-80164700D01*
X151140800Y-89001600D02*
X151203900Y-89064700D01*
X154736900Y-86563200D02*
X154724200Y-86575900D01*
X154724200Y-86575900D02*
X154546200Y-86575900D01*
X154584400Y-78968500D02*
X156006800Y-78968500D01*
X156083100Y-78892200D02*
X156006800Y-78968500D01*
X141503900Y-81559900D02*
X141528800Y-81584800D01*
X141503900Y-80164700D02*
X141503900Y-81559900D01*
X149503900Y-81482700D02*
X149504400Y-81483200D01*
X149503900Y-80164700D02*
X149503900Y-81482700D01*
X143103600Y-91564400D02*
X143103900Y-91564700D01*
D28*
X137642700Y-89204800D02*
X137769600Y-89204800D01*
D27*
X137845900Y-89204800D02*
X137845900Y-89179300D01*
X149538381Y-80199181D02*
X149503900Y-80164700D01*
X149352000Y-78460700D02*
X149503900Y-78612600D01*
X141414300Y-78346200D02*
X141528800Y-78460700D01*
X140817500Y-78460700D02*
X141528800Y-78460700D01*
X140525600Y-78752600D02*
X140817500Y-78460700D01*
X143103900Y-92887600D02*
X143103900Y-91564700D01*
X142621100Y-93370400D02*
X143103900Y-92887600D01*
X136997540Y-78552040D02*
X137198100Y-78752600D01*
X135257540Y-78552040D02*
X136997540Y-78552040D01*
X135559700Y-81483200D02*
X136220100Y-82143600D01*
X150191100Y-93745200D02*
X150191100Y-96145200D01*
X150191100Y-97587800D02*
X150253600Y-97650300D01*
X149862758Y-89064700D02*
X151203900Y-89064700D01*
D28*
X142940699Y-90489699D02*
X143103600Y-90652600D01*
X138624999Y-90489699D02*
X142940699Y-90489699D01*
X137815100Y-89679800D02*
X138624999Y-90489699D01*
X137815100Y-89204800D02*
X137815100Y-89679800D01*
D27*
X143103600Y-90652600D02*
X143103600Y-91564400D01*
X143103600Y-90220800D02*
X143103600Y-90652600D01*
X154724200Y-86575900D02*
X154724200Y-83477200D01*
X154724200Y-83477200D02*
X154724200Y-83654900D01*
X156083100Y-78930300D02*
X156044900Y-78968500D01*
X156083100Y-77368400D02*
X156083100Y-78930300D01*
X156083000Y-77368300D02*
X156083100Y-77368400D01*
D28*
X154724200Y-83654900D02*
X154724200Y-83223000D01*
X155194000Y-82753200D02*
X155194000Y-81610200D01*
X154724200Y-83223000D02*
X155194000Y-82753200D01*
X150184600Y-93738700D02*
X150191100Y-93745200D01*
D27*
X140525600Y-78752600D02*
X139357000Y-78752600D01*
X139039600Y-78435200D02*
X139039600Y-77289660D01*
X139357000Y-78752600D02*
X139039600Y-78435200D01*
X139039600Y-78486000D02*
X138773000Y-78752600D01*
X139039600Y-78435200D02*
X139039600Y-78486000D01*
X137198100Y-78752600D02*
X138773000Y-78752600D01*
X138773000Y-78752600D02*
X139357000Y-78752600D01*
X149524402Y-89408000D02*
X149250400Y-89408000D01*
X151165400Y-89103200D02*
X149829202Y-89103200D01*
X149829202Y-89103200D02*
X149524402Y-89408000D01*
X151203900Y-89064700D02*
X151165400Y-89103200D01*
X154724200Y-87972700D02*
X154686000Y-88010900D01*
X154724200Y-86575900D02*
X154724200Y-87972700D01*
X149503900Y-78485600D02*
X149503900Y-80164700D01*
X149377400Y-78359100D02*
X149503900Y-78485600D01*
X141554200Y-80114400D02*
X141503900Y-80164700D01*
X141554200Y-78359100D02*
X141554200Y-80114400D01*
D28*
X152977000Y-94607800D02*
X152933400Y-94564200D01*
X153857400Y-94607800D02*
X152977000Y-94607800D01*
D27*
X150141200Y-96723200D02*
X150191100Y-96773100D01*
X150191100Y-96773100D02*
X150191100Y-97587800D01*
X150191100Y-96145200D02*
X150191100Y-96773100D01*
X149401900Y-96773100D02*
X149352000Y-96723200D01*
X150191100Y-96773100D02*
X149401900Y-96773100D01*
X156083100Y-77368400D02*
X156997400Y-77368400D01*
X135407300Y-81330800D02*
X135559700Y-81483200D01*
X134848600Y-81330800D02*
X135407300Y-81330800D01*
%TO.N,GND*%
X143865500Y-91603100D02*
X143903900Y-91564700D01*
X143865500Y-93954600D02*
X143865500Y-91603100D01*
X151229800Y-81838800D02*
X151203900Y-81864700D01*
X139829400Y-85039200D02*
X139803900Y-85064700D01*
X141224000Y-85039200D02*
X139829400Y-85039200D01*
X142303900Y-80164700D02*
X142303900Y-81597900D01*
X143052800Y-76936500D02*
X143002000Y-76987300D01*
X153093420Y-78653640D02*
X153222860Y-78653640D01*
X154508100Y-77368400D02*
X154508100Y-76377900D01*
X148703900Y-81420100D02*
X148640800Y-81483200D01*
X148703900Y-80164700D02*
X148703900Y-81420100D01*
X143916400Y-91552200D02*
X143903900Y-91564700D01*
X143916400Y-90220800D02*
X143916400Y-91552200D01*
X147853300Y-78435200D02*
X147878800Y-78460700D01*
X151203900Y-81864700D02*
X151228800Y-81889600D01*
X151228800Y-81889600D02*
X153212800Y-81889600D01*
X153517600Y-81584800D02*
X153822400Y-81584800D01*
X153212800Y-81889600D02*
X153517600Y-81584800D01*
X136972040Y-77050900D02*
X136956800Y-77050900D01*
X136972040Y-77050900D02*
X136972040Y-76616560D01*
X136972040Y-77050900D02*
X136972040Y-77175360D01*
X138838840Y-80327600D02*
X139103100Y-80063340D01*
X139367260Y-80327500D02*
X139103100Y-80063340D01*
X138760100Y-80327600D02*
X139026900Y-80060800D01*
X137198100Y-80327600D02*
X138760100Y-80327600D01*
X137198100Y-80327600D02*
X136918800Y-80327600D01*
X136372500Y-79502000D02*
X137198100Y-80327600D01*
X136042400Y-79502000D02*
X136372500Y-79502000D01*
X139026900Y-80060800D02*
X140462000Y-80060800D01*
X140462000Y-80060800D02*
X140462000Y-80060800D01*
X132257700Y-82270500D02*
X132257700Y-82143600D01*
X132511700Y-82118100D02*
X133654800Y-83261200D01*
X132511700Y-82092800D02*
X132511700Y-82118100D01*
X136750879Y-76766601D02*
X136860280Y-76657200D01*
X139308840Y-94952820D02*
X139308840Y-93888560D01*
X139585700Y-93611700D02*
X139585700Y-93599000D01*
X139308840Y-93888560D02*
X139585700Y-93611700D01*
D28*
X151752300Y-97942400D02*
X151828600Y-97942400D01*
D27*
X151828600Y-97942400D02*
X151603660Y-97942400D01*
X151828600Y-97650300D02*
X151937612Y-97650300D01*
X148361500Y-93954600D02*
X148564600Y-93954600D01*
X149748600Y-90170000D02*
X150053900Y-89864700D01*
X150053900Y-89864700D02*
X151203900Y-89864700D01*
X141478100Y-76835000D02*
X141528800Y-76885700D01*
X136880600Y-76687680D02*
X136860280Y-76708000D01*
X136880600Y-75387200D02*
X136880600Y-76687680D01*
X132680760Y-79502000D02*
X132661660Y-79521100D01*
X136042400Y-79502000D02*
X132680760Y-79502000D01*
X153093420Y-78806040D02*
X153146760Y-78806040D01*
X153093420Y-78783080D02*
X154508100Y-77368400D01*
X153093420Y-78806040D02*
X153093420Y-78783080D01*
X148703900Y-79138800D02*
X148703900Y-80164700D01*
X147904200Y-78339100D02*
X148703900Y-79138800D01*
X140512900Y-76784100D02*
X140462000Y-76835000D01*
X141554200Y-76784100D02*
X140512900Y-76784100D01*
X141554200Y-76784100D02*
X143027400Y-76784100D01*
X143027400Y-75971400D02*
X143002000Y-75946000D01*
X143027400Y-76784100D02*
X143027400Y-75971400D01*
X151866700Y-97612200D02*
X151828600Y-97650300D01*
X152755600Y-97612200D02*
X151866700Y-97612200D01*
X153857400Y-92807800D02*
X153857400Y-91856000D01*
X153857400Y-91856000D02*
X153568400Y-91567000D01*
X153568400Y-91567000D02*
X153035100Y-91567000D01*
D28*
X135026400Y-84988400D02*
X135686800Y-84988400D01*
X135686800Y-84988400D02*
X136220100Y-84988400D01*
X135026400Y-86334600D02*
X135051800Y-86360000D01*
X135026400Y-84988400D02*
X135026400Y-86334600D01*
X135051800Y-86360000D02*
X136220100Y-86360000D01*
D27*
X154330400Y-91567000D02*
X154432000Y-91465400D01*
X153035100Y-91567000D02*
X154330400Y-91567000D01*
X148564700Y-94157800D02*
X148361500Y-93954600D01*
X149275800Y-94157800D02*
X148564700Y-94157800D01*
D28*
X143916400Y-90220800D02*
X145313400Y-90220800D01*
X146629401Y-89595799D02*
X147142200Y-90108598D01*
X145313400Y-90220800D02*
X145938401Y-89595799D01*
X145938401Y-89595799D02*
X146629401Y-89595799D01*
X149188998Y-90108598D02*
X149250400Y-90170000D01*
X147142200Y-90108598D02*
X149188998Y-90108598D01*
X149250400Y-90170000D02*
X149748600Y-90170000D01*
%TO.N,Net-(C5-Pad1)*%
X146684494Y-93954600D02*
X146786500Y-93954600D01*
X145503900Y-92672000D02*
X145503900Y-91564700D01*
X146786500Y-93954600D02*
X145503900Y-92672000D01*
X147828000Y-94996100D02*
X146786500Y-93954600D01*
X147828000Y-95402400D02*
X147828000Y-94996100D01*
%TO.N,Net-(C6-Pad1)*%
X145602841Y-94116941D02*
X145440500Y-93954600D01*
X144703900Y-93218000D02*
X144703900Y-91564700D01*
X145440500Y-93954600D02*
X144703900Y-93218000D01*
X145552041Y-96583619D02*
X145552041Y-94066141D01*
X145552041Y-94066141D02*
X145440500Y-93954600D01*
X144277080Y-97858580D02*
X145552041Y-96583619D01*
%TO.N,/AREF*%
X143103900Y-78588000D02*
X143002000Y-78486100D01*
X143027400Y-80088200D02*
X143103900Y-80164700D01*
X143027400Y-78359100D02*
X143027400Y-80088200D01*
%TO.N,Net-(C11-Pad2)*%
X138722200Y-85864700D02*
X137845900Y-84988400D01*
X139803900Y-85864700D02*
X138722200Y-85864700D01*
D27*
%TO.N,VCC*%
X139854800Y-86715600D02*
X139803900Y-86664700D01*
X137795100Y-86360000D02*
X138379200Y-86360000D01*
X138683900Y-86664700D02*
X139803900Y-86664700D01*
X138379200Y-86360000D02*
X138683900Y-86664700D01*
X131978400Y-93831500D02*
X132334000Y-93475900D01*
X132054600Y-93755300D02*
X132334000Y-93475900D01*
X134583389Y-88733506D02*
X134583389Y-93102211D01*
X133577998Y-87728115D02*
X134583389Y-88733506D01*
X134583389Y-93102211D02*
X134209700Y-93475900D01*
X138771779Y-82664700D02*
X138296789Y-83139690D01*
X134209700Y-93475900D02*
X132334000Y-93475900D01*
X138296789Y-83139690D02*
X134745205Y-83139690D01*
X134745205Y-83139690D02*
X133577998Y-84306897D01*
X139803900Y-82664700D02*
X138771779Y-82664700D01*
X133577998Y-84306897D02*
X133577998Y-87728115D01*
X134583389Y-93102211D02*
X134583389Y-93181389D01*
X134583389Y-93181389D02*
X134886110Y-93484110D01*
X134217910Y-93484110D02*
X134209700Y-93475900D01*
X134886110Y-93484110D02*
X134217910Y-93484110D01*
X129061300Y-93475900D02*
X128701800Y-93116400D01*
X132334000Y-93475900D02*
X129061300Y-93475900D01*
X136712960Y-93939360D02*
X136712960Y-94952820D01*
X136257710Y-93484110D02*
X136712960Y-93939360D01*
X134886110Y-93484110D02*
X136257710Y-93484110D01*
X139804000Y-86664800D02*
X139803900Y-86664700D01*
D28*
X140613902Y-86664700D02*
X139803900Y-86664700D01*
X141798201Y-85480401D02*
X140613902Y-86664700D01*
X141798201Y-83659001D02*
X141798201Y-85480401D01*
X140803900Y-82664700D02*
X141798201Y-83659001D01*
X139803900Y-82664700D02*
X140803900Y-82664700D01*
%TO.N,Net-(C13-Pad1)*%
X133781900Y-82130900D02*
X133870700Y-82130900D01*
X133769200Y-82156300D02*
X133769200Y-81927600D01*
X135244840Y-80451960D02*
X135257540Y-80451960D01*
X134408100Y-80471060D02*
X135257540Y-80471060D01*
X134086700Y-80792460D02*
X134408100Y-80471060D01*
X134086700Y-82092800D02*
X134086700Y-80792460D01*
D27*
%TO.N,/RAW*%
X132029200Y-83265160D02*
X131420190Y-82656150D01*
X132029200Y-84062300D02*
X132029200Y-83265160D01*
X132661660Y-80451960D02*
X131942840Y-80451960D01*
X131420190Y-82656150D02*
X131420190Y-80974610D01*
X131942840Y-80451960D02*
X131420190Y-80974610D01*
X131420190Y-80974610D02*
X131420190Y-78794070D01*
X131662220Y-78552040D02*
X132661660Y-78552040D01*
X131420190Y-78794070D02*
X131662220Y-78552040D01*
X132661660Y-78571140D02*
X132756860Y-78571140D01*
X134061200Y-77266800D02*
X134061200Y-76657200D01*
X132756860Y-78571140D02*
X134061200Y-77266800D01*
%TO.N,Net-(D1-Pad2)*%
X132194300Y-87502000D02*
X132054600Y-87362300D01*
X132029200Y-88896100D02*
X132334000Y-89200900D01*
X132029200Y-87362300D02*
X132029200Y-88896100D01*
D28*
%TO.N,/LEDK*%
X153136700Y-77368400D02*
X153136700Y-76326900D01*
%TO.N,/D4*%
X149631700Y-88264700D02*
X149250400Y-88646000D01*
X151203900Y-88264700D02*
X149631700Y-88264700D01*
%TO.N,/CS*%
X141884900Y-89864700D02*
X141935200Y-89814400D01*
X139803900Y-89864700D02*
X141884900Y-89864700D01*
%TO.N,/D5*%
X151152800Y-83413600D02*
X151203900Y-83464700D01*
X151203600Y-83464400D02*
X151203900Y-83464700D01*
X149860000Y-83464400D02*
X151203600Y-83464400D01*
%TO.N,/SCK*%
X141262400Y-88264700D02*
X141351000Y-88176100D01*
X139803900Y-88264700D02*
X141262400Y-88264700D01*
%TO.N,/MOSI*%
X141350600Y-89064700D02*
X141351000Y-89065100D01*
X139803900Y-89064700D02*
X141350600Y-89064700D01*
%TO.N,Net-(Q1-Pad1)*%
X155996740Y-80553560D02*
X156006800Y-80543500D01*
X153093420Y-80705960D02*
X153532840Y-80705960D01*
X153695300Y-80543500D02*
X154584400Y-80543500D01*
X153532840Y-80705960D02*
X153695300Y-80543500D01*
X154584400Y-80543500D02*
X156044900Y-80543500D01*
%TO.N,Net-(Q1-Pad3)*%
X150995380Y-77934720D02*
X151561700Y-77368400D01*
X150995380Y-79756000D02*
X150995380Y-77934720D01*
%TO.N,Net-(LED1-PadA)*%
X149047200Y-76580900D02*
X149352000Y-76885700D01*
X149357400Y-76764100D02*
X149377400Y-76784100D01*
X147904200Y-76764100D02*
X149357400Y-76764100D01*
%TO.N,Net-(R4-Pad2)*%
X141700599Y-92639701D02*
X140893700Y-93446600D01*
X142303900Y-92374702D02*
X142038901Y-92639701D01*
X142038901Y-92639701D02*
X141700599Y-92639701D01*
X142303900Y-91564700D02*
X142303900Y-92374702D01*
D29*
%TO.N,/D-*%
X135445400Y-91033500D02*
X136169400Y-91033500D01*
X135083399Y-90671499D02*
X135445400Y-91033500D01*
X139038898Y-83464700D02*
X138740199Y-83763399D01*
X134078008Y-87521005D02*
X135083399Y-88526396D01*
X139803900Y-83464700D02*
X139038898Y-83464700D01*
X138740199Y-83763399D02*
X134828616Y-83763399D01*
X135083399Y-88526396D02*
X135083399Y-90671499D01*
X134078008Y-84514007D02*
X134078008Y-87521005D01*
X134828616Y-83763399D02*
X134078008Y-84514007D01*
%TO.N,Net-(R5-Pad2)*%
X137363200Y-93802300D02*
X137363200Y-94952820D01*
X136169400Y-92608500D02*
X137363200Y-93802300D01*
D28*
%TO.N,Net-(D2-PadC)*%
X153187400Y-88036300D02*
X153365100Y-88036300D01*
X153187400Y-88087300D02*
X154686000Y-89585900D01*
X153187400Y-88036300D02*
X153187400Y-88087300D01*
%TO.N,Net-(R6-Pad1)*%
X150603899Y-90464701D02*
X149503900Y-91564700D01*
X152333999Y-90464701D02*
X153187400Y-89611300D01*
X150603899Y-90464701D02*
X152333999Y-90464701D01*
D29*
%TO.N,/D+*%
X139803900Y-84264700D02*
X139640297Y-84264700D01*
X135015008Y-84213390D02*
X134527999Y-84700399D01*
X139640297Y-84264700D02*
X139588987Y-84213390D01*
X139588987Y-84213390D02*
X135015008Y-84213390D01*
X134527999Y-84700399D02*
X134527999Y-87334599D01*
X134527999Y-87334599D02*
X135533390Y-88339990D01*
X137858500Y-91033600D02*
X136944100Y-90119200D01*
X135945860Y-90119200D02*
X136944100Y-90119200D01*
X135502590Y-89675930D02*
X135945860Y-90119200D01*
X135533390Y-88494610D02*
X135502590Y-88525410D01*
X135502590Y-88525410D02*
X135502590Y-89675930D01*
X135533390Y-88339990D02*
X135533390Y-88494610D01*
%TO.N,Net-(R7-Pad2)*%
X138010900Y-92761000D02*
X137858500Y-92608600D01*
X138010900Y-94952820D02*
X138010900Y-92761000D01*
D28*
%TO.N,Net-(R9-Pad1)*%
X151460100Y-92024100D02*
X151460100Y-91567000D01*
X151460100Y-91567000D02*
X151460100Y-91922500D01*
X151460100Y-91567000D02*
X151460100Y-91592300D01*
X151637900Y-91567000D02*
X151637900Y-91871700D01*
X153857400Y-93707800D02*
X153143800Y-93707800D01*
X153143800Y-93707800D02*
X151460100Y-92024100D01*
%TO.N,/D14*%
X139803900Y-87464700D02*
X138747700Y-87464700D01*
X138480800Y-87731600D02*
X137795100Y-87731600D01*
X138747700Y-87464700D02*
X138480800Y-87731600D01*
%TO.N,Net-(D3-PadC)*%
X136220100Y-89154000D02*
X136270900Y-89204800D01*
X136220100Y-87731600D02*
X136220100Y-89154000D01*
%TO.N,/BTN1*%
X139803900Y-81864700D02*
X139319500Y-81864700D01*
D27*
X139801600Y-81862400D02*
X139803900Y-81864700D01*
D28*
X140803900Y-81864700D02*
X141122400Y-82183200D01*
X139803900Y-81864700D02*
X140803900Y-81864700D01*
X141122400Y-82183200D02*
X141286000Y-82346800D01*
X141579600Y-82346800D02*
X141884400Y-82346800D01*
X141579600Y-82346800D02*
X141732000Y-82346800D01*
X141286000Y-82346800D02*
X141579600Y-82346800D01*
X139803900Y-81864700D02*
X138708900Y-81864700D01*
X138708900Y-81864700D02*
X138430000Y-82143600D01*
X138430000Y-82143600D02*
X137744300Y-82143600D01*
%TO.N,/BTN3*%
X151241900Y-85102700D02*
X151203900Y-85064700D01*
X151178600Y-85090000D02*
X151203900Y-85064700D01*
X153123900Y-85064700D02*
X153161900Y-85102700D01*
X151203900Y-85064700D02*
X153123900Y-85064700D01*
%TO.N,/BTN4*%
X152552100Y-84264700D02*
X153161900Y-83654900D01*
X151203900Y-84264700D02*
X152552100Y-84264700D01*
%TO.N,/BTN2*%
X152438000Y-85864700D02*
X153149200Y-86575900D01*
X151203900Y-85864700D02*
X152438000Y-85864700D01*
%TO.N,/D2*%
X147368899Y-92639701D02*
X147103900Y-92374702D01*
X151891100Y-93745200D02*
X151822300Y-93745200D01*
X147103900Y-92374702D02*
X147103900Y-91564700D01*
X149942101Y-92639701D02*
X150082699Y-92639701D01*
X149942101Y-92639701D02*
X147368899Y-92639701D01*
X150641499Y-92639701D02*
X150450999Y-92639701D01*
X150450999Y-92639701D02*
X150311299Y-92639701D01*
X150133499Y-92639701D02*
X149942101Y-92639701D01*
X150311299Y-92639701D02*
X150133499Y-92639701D01*
X150653301Y-92639701D02*
X150450999Y-92639701D01*
X150653301Y-92639701D02*
X151288301Y-92639701D01*
X151891100Y-93242500D02*
X151891100Y-93745200D01*
X151288301Y-92639701D02*
X151891100Y-93242500D01*
X155057400Y-92807800D02*
X156003000Y-92807800D01*
X150380700Y-92392500D02*
X150406100Y-92392500D01*
X150380700Y-91770200D02*
X150380700Y-92392500D01*
X150380700Y-92392500D02*
X150133499Y-92639701D01*
X150406100Y-92392500D02*
X150653301Y-92639701D01*
%TO.N,/D3*%
X146303900Y-91564700D02*
X146303900Y-92303500D01*
X146303900Y-92374702D02*
X147018909Y-93089711D01*
X146303900Y-91564700D02*
X146303900Y-92374702D01*
X151456098Y-94545200D02*
X151891100Y-94545200D01*
X151116099Y-94205201D02*
X151456098Y-94545200D01*
X146303900Y-91564700D02*
X146303900Y-90170100D01*
X150770613Y-93089711D02*
X151116099Y-93435197D01*
X147018909Y-93089711D02*
X150770613Y-93089711D01*
X151116099Y-93435197D02*
X151116099Y-94270899D01*
X151116099Y-94205201D02*
X151116099Y-94270899D01*
X156024602Y-93707800D02*
X155057400Y-93707800D01*
X157056410Y-94739608D02*
X156024602Y-93707800D01*
X151116099Y-94270899D02*
X151116099Y-96605201D01*
X151181099Y-96670201D02*
X156402011Y-96670201D01*
X151116099Y-96605201D02*
X151181099Y-96670201D01*
X156402011Y-96670201D02*
X157056410Y-96015802D01*
X157056410Y-96015802D02*
X157056410Y-94739608D01*
%TO.N,/D12*%
X151166000Y-87426800D02*
X151203900Y-87464700D01*
X149275800Y-87426800D02*
X151166000Y-87426800D01*
X152825400Y-95345200D02*
X152933400Y-95453200D01*
X151891100Y-95345200D02*
X152825400Y-95345200D01*
X153802800Y-95453200D02*
X153857400Y-95507800D01*
X152933400Y-95453200D02*
X153802800Y-95453200D01*
%TO.N,/D11*%
X141503900Y-91564700D02*
X140692900Y-91564700D01*
X151891100Y-96145200D02*
X152217798Y-96145200D01*
X155984802Y-94607800D02*
X155057400Y-94607800D01*
X156606401Y-95214601D02*
X156006800Y-94615000D01*
X156281401Y-96154401D02*
X156606401Y-95829401D01*
X155681399Y-96154401D02*
X156281401Y-96154401D01*
X155672198Y-96145200D02*
X155681399Y-96154401D01*
X156606401Y-95829401D02*
X156606401Y-95214601D01*
X151891100Y-96145200D02*
X155672198Y-96145200D01*
%TO.N,/32K*%
X151203900Y-82664700D02*
X153352100Y-82664700D01*
X153352100Y-82664700D02*
X153720800Y-82296000D01*
X153720800Y-82296000D02*
X154584400Y-82296000D01*
X155079000Y-95529400D02*
X155057400Y-95507800D01*
X155981400Y-95529400D02*
X155079000Y-95529400D01*
%TD*%
M02*
