%TF.GenerationSoftware,KiCad,Pcbnew,(5.1.6)-1*%
%TF.CreationDate,2020-10-28T20:54:40+01:00*%
%TF.ProjectId,ArduinoProMicroUSB,41726475-696e-46f5-9072-6f4d6963726f,rev?*%
%TF.SameCoordinates,Original*%
%TF.FileFunction,Copper,L2,Inr*%
%TF.FilePolarity,Positive*%
%FSLAX46Y46*%
G04 Gerber Fmt 4.6, Leading zero omitted, Abs format (unit mm)*
G04 Created by KiCad (PCBNEW (5.1.6)-1) date 2020-10-28 20:54:40*
%MOMM*%
%LPD*%
G01*
G04 APERTURE LIST*
%TA.AperFunction,WasherPad*%
%ADD10C,1.300000*%
%TD*%
%TA.AperFunction,ViaPad*%
%ADD11R,1.500000X1.500000*%
%TD*%
%TA.AperFunction,ViaPad*%
%ADD12C,0.600000*%
%TD*%
%TA.AperFunction,ViaPad*%
%ADD13C,0.800000*%
%TD*%
%TA.AperFunction,Conductor*%
%ADD14C,0.250000*%
%TD*%
%TA.AperFunction,Conductor*%
%ADD15C,0.254000*%
%TD*%
G04 APERTURE END LIST*
D10*
%TO.N,*%
%TO.C,REF\u002A\u002A*%
X156286200Y-75717400D03*
%TD*%
%TO.N,*%
%TO.C,REF\u002A\u002A*%
X127762000Y-75717400D03*
%TD*%
%TO.N,*%
%TO.C,REF\u002A\u002A*%
X127812800Y-99136200D03*
%TD*%
%TO.N,*%
%TO.C,REF\u002A\u002A*%
X156311600Y-99136200D03*
%TD*%
D11*
%TO.N,GND*%
%TO.C,GND*%
X128701800Y-95402400D03*
%TD*%
%TO.N,VCC*%
%TO.C,VCC*%
X128701800Y-93116400D03*
%TD*%
%TO.N,3.3V*%
%TO.C,3.3*%
X128701800Y-90830400D03*
%TD*%
%TO.N,/D2*%
%TO.C,SDA*%
X128701800Y-88544400D03*
%TD*%
%TO.N,/D3*%
%TO.C,SCL*%
X128701800Y-86258400D03*
%TD*%
%TO.N,/CS*%
%TO.C,CS*%
X128701800Y-83972400D03*
%TD*%
%TO.N,/MOSI*%
%TO.C,MOSI*%
X128701800Y-81546700D03*
%TD*%
%TO.N,/SCK*%
%TO.C,SCK*%
X128701800Y-79133700D03*
%TD*%
D12*
%TO.N,3.3V*%
X149275800Y-96774000D03*
X152933400Y-94564200D03*
X134874000Y-81407000D03*
X156997400Y-77368400D03*
X143103600Y-90220800D03*
X149250400Y-89357200D03*
X149504400Y-81483200D03*
X141528800Y-81483200D03*
X155194000Y-81610200D03*
%TO.N,GND*%
X152755600Y-97612200D03*
X140462000Y-76835000D03*
X139585700Y-93599000D03*
X143002000Y-75946000D03*
X154533600Y-76327000D03*
X149275800Y-94157800D03*
X135001000Y-86360000D03*
X134975600Y-84988400D03*
X141173200Y-85039200D03*
X148691600Y-81483200D03*
X142341600Y-81483200D03*
X153822400Y-81584800D03*
D13*
X136042400Y-79502000D03*
X140563600Y-80060800D03*
X133553200Y-83185000D03*
X136880600Y-75387200D03*
D12*
X149250400Y-90170000D03*
X143916400Y-90220800D03*
X154432000Y-91465400D03*
%TO.N,/LEDK*%
X153111200Y-76327000D03*
%TO.N,/D4*%
X149250400Y-88468200D03*
%TO.N,/CS*%
X141935200Y-89814400D03*
%TO.N,/D5*%
X149809200Y-83464400D03*
%TO.N,/SCK*%
X141173200Y-88188800D03*
%TO.N,/MOSI*%
X141173200Y-89052400D03*
%TO.N,/BTN1*%
X142036800Y-82346800D03*
%TO.N,/D2*%
X156006800Y-92811600D03*
X150380700Y-91770200D03*
%TO.N,/D3*%
X146329400Y-90220800D03*
%TO.N,/D12*%
X152933400Y-95453200D03*
X149275800Y-87426800D03*
%TO.N,/D11*%
X156006800Y-94615000D03*
X140665200Y-91541600D03*
%TO.N,/32K*%
X155981400Y-95529400D03*
X154533600Y-82296000D03*
%TD*%
D14*
%TO.N,/D2*%
X155295600Y-92100400D02*
X156006800Y-92811600D01*
X150380700Y-91770200D02*
X150710900Y-92100400D01*
X150710900Y-92100400D02*
X155295600Y-92100400D01*
X149456301Y-90845801D02*
X150380700Y-91770200D01*
X133263801Y-90845801D02*
X149456301Y-90845801D01*
X128701800Y-88544400D02*
X130962400Y-88544400D01*
X130962400Y-88544400D02*
X133263801Y-90845801D01*
%TO.N,/D3*%
X143672399Y-87563799D02*
X140873199Y-87563799D01*
X133931391Y-90395791D02*
X129794000Y-86258400D01*
X146329400Y-90220800D02*
X143672399Y-87563799D01*
X129794000Y-86258400D02*
X128701800Y-86258400D01*
X140873199Y-87563799D02*
X138041207Y-90395791D01*
X138041207Y-90395791D02*
X133931391Y-90395791D01*
%TO.N,/D11*%
X153942210Y-92550410D02*
X156006800Y-94615000D01*
X140665200Y-91541600D02*
X141674010Y-92550410D01*
X141674010Y-92550410D02*
X153942210Y-92550410D01*
%TD*%
D15*
%TO.N,GND*%
G36*
X141155382Y-80978623D02*
G01*
X141129111Y-80996177D01*
X141041777Y-81083511D01*
X140973160Y-81186204D01*
X140925895Y-81300311D01*
X140901800Y-81421446D01*
X140901800Y-81544954D01*
X140925895Y-81666089D01*
X140973160Y-81780196D01*
X141041777Y-81882889D01*
X141129111Y-81970223D01*
X141152645Y-81985948D01*
X141148143Y-83642635D01*
X129780382Y-83681767D01*
X129780382Y-83222400D01*
X129774068Y-83158297D01*
X129755370Y-83096657D01*
X129725006Y-83039850D01*
X129684143Y-82990057D01*
X129634350Y-82949194D01*
X129577543Y-82918830D01*
X129515903Y-82900132D01*
X129451800Y-82893818D01*
X127951800Y-82893818D01*
X127887697Y-82900132D01*
X127826057Y-82918830D01*
X127769250Y-82949194D01*
X127719457Y-82990057D01*
X127678594Y-83039850D01*
X127648230Y-83096657D01*
X127629532Y-83158297D01*
X127623218Y-83222400D01*
X127623218Y-83689193D01*
X126644697Y-83692561D01*
X126644827Y-80796700D01*
X127623218Y-80796700D01*
X127623218Y-82296700D01*
X127629532Y-82360803D01*
X127648230Y-82422443D01*
X127678594Y-82479250D01*
X127719457Y-82529043D01*
X127769250Y-82569906D01*
X127826057Y-82600270D01*
X127887697Y-82618968D01*
X127951800Y-82625282D01*
X129451800Y-82625282D01*
X129515903Y-82618968D01*
X129577543Y-82600270D01*
X129634350Y-82569906D01*
X129684143Y-82529043D01*
X129725006Y-82479250D01*
X129755370Y-82422443D01*
X129774068Y-82360803D01*
X129780382Y-82296700D01*
X129780382Y-81345246D01*
X134247000Y-81345246D01*
X134247000Y-81468754D01*
X134271095Y-81589889D01*
X134318360Y-81703996D01*
X134386977Y-81806689D01*
X134474311Y-81894023D01*
X134577004Y-81962640D01*
X134691111Y-82009905D01*
X134812246Y-82034000D01*
X134935754Y-82034000D01*
X135056889Y-82009905D01*
X135170996Y-81962640D01*
X135273689Y-81894023D01*
X135361023Y-81806689D01*
X135429640Y-81703996D01*
X135476905Y-81589889D01*
X135501000Y-81468754D01*
X135501000Y-81345246D01*
X135476905Y-81224111D01*
X135429640Y-81110004D01*
X135361023Y-81007311D01*
X135273689Y-80919977D01*
X135170996Y-80851360D01*
X135056889Y-80804095D01*
X134935754Y-80780000D01*
X134812246Y-80780000D01*
X134691111Y-80804095D01*
X134577004Y-80851360D01*
X134474311Y-80919977D01*
X134386977Y-81007311D01*
X134318360Y-81110004D01*
X134271095Y-81224111D01*
X134247000Y-81345246D01*
X129780382Y-81345246D01*
X129780382Y-80796700D01*
X129774068Y-80732597D01*
X129755370Y-80670957D01*
X129725006Y-80614150D01*
X129684143Y-80564357D01*
X129634350Y-80523494D01*
X129577543Y-80493130D01*
X129515903Y-80474432D01*
X129451800Y-80468118D01*
X127951800Y-80468118D01*
X127887697Y-80474432D01*
X127826057Y-80493130D01*
X127769250Y-80523494D01*
X127719457Y-80564357D01*
X127678594Y-80614150D01*
X127648230Y-80670957D01*
X127629532Y-80732597D01*
X127623218Y-80796700D01*
X126644827Y-80796700D01*
X126644936Y-78383700D01*
X127623218Y-78383700D01*
X127623218Y-79883700D01*
X127629532Y-79947803D01*
X127648230Y-80009443D01*
X127678594Y-80066250D01*
X127719457Y-80116043D01*
X127769250Y-80156906D01*
X127826057Y-80187270D01*
X127887697Y-80205968D01*
X127951800Y-80212282D01*
X129451800Y-80212282D01*
X129515903Y-80205968D01*
X129577543Y-80187270D01*
X129634350Y-80156906D01*
X129684143Y-80116043D01*
X129725006Y-80066250D01*
X129755370Y-80009443D01*
X129774068Y-79947803D01*
X129780382Y-79883700D01*
X129780382Y-78383700D01*
X129774068Y-78319597D01*
X129755370Y-78257957D01*
X129725006Y-78201150D01*
X129684143Y-78151357D01*
X129634350Y-78110494D01*
X129577543Y-78080130D01*
X129515903Y-78061432D01*
X129451800Y-78055118D01*
X127951800Y-78055118D01*
X127887697Y-78061432D01*
X127826057Y-78080130D01*
X127769250Y-78110494D01*
X127719457Y-78151357D01*
X127678594Y-78201150D01*
X127648230Y-78257957D01*
X127629532Y-78319597D01*
X127623218Y-78383700D01*
X126644936Y-78383700D01*
X126645056Y-75748139D01*
X126652294Y-75621174D01*
X126785000Y-75621174D01*
X126785000Y-75813626D01*
X126822546Y-76002380D01*
X126896194Y-76180183D01*
X127003115Y-76340201D01*
X127139199Y-76476285D01*
X127299217Y-76583206D01*
X127477020Y-76656854D01*
X127665774Y-76694400D01*
X127858226Y-76694400D01*
X128046980Y-76656854D01*
X128224783Y-76583206D01*
X128384801Y-76476285D01*
X128520885Y-76340201D01*
X128627806Y-76180183D01*
X128701454Y-76002380D01*
X128739000Y-75813626D01*
X128739000Y-75621174D01*
X128701454Y-75432420D01*
X128627806Y-75254617D01*
X128520885Y-75094599D01*
X128384801Y-74958515D01*
X128224783Y-74851594D01*
X128046980Y-74777946D01*
X127858226Y-74740400D01*
X127665774Y-74740400D01*
X127477020Y-74777946D01*
X127299217Y-74851594D01*
X127139199Y-74958515D01*
X127003115Y-75094599D01*
X126896194Y-75254617D01*
X126822546Y-75432420D01*
X126785000Y-75621174D01*
X126652294Y-75621174D01*
X126658070Y-75519863D01*
X126712527Y-75308726D01*
X126806960Y-75112180D01*
X126937770Y-74937719D01*
X127099973Y-74791992D01*
X127287396Y-74680543D01*
X127492889Y-74607623D01*
X127714230Y-74575186D01*
X127763833Y-74574000D01*
X141172786Y-74574000D01*
X141155382Y-80978623D01*
G37*
X141155382Y-80978623D02*
X141129111Y-80996177D01*
X141041777Y-81083511D01*
X140973160Y-81186204D01*
X140925895Y-81300311D01*
X140901800Y-81421446D01*
X140901800Y-81544954D01*
X140925895Y-81666089D01*
X140973160Y-81780196D01*
X141041777Y-81882889D01*
X141129111Y-81970223D01*
X141152645Y-81985948D01*
X141148143Y-83642635D01*
X129780382Y-83681767D01*
X129780382Y-83222400D01*
X129774068Y-83158297D01*
X129755370Y-83096657D01*
X129725006Y-83039850D01*
X129684143Y-82990057D01*
X129634350Y-82949194D01*
X129577543Y-82918830D01*
X129515903Y-82900132D01*
X129451800Y-82893818D01*
X127951800Y-82893818D01*
X127887697Y-82900132D01*
X127826057Y-82918830D01*
X127769250Y-82949194D01*
X127719457Y-82990057D01*
X127678594Y-83039850D01*
X127648230Y-83096657D01*
X127629532Y-83158297D01*
X127623218Y-83222400D01*
X127623218Y-83689193D01*
X126644697Y-83692561D01*
X126644827Y-80796700D01*
X127623218Y-80796700D01*
X127623218Y-82296700D01*
X127629532Y-82360803D01*
X127648230Y-82422443D01*
X127678594Y-82479250D01*
X127719457Y-82529043D01*
X127769250Y-82569906D01*
X127826057Y-82600270D01*
X127887697Y-82618968D01*
X127951800Y-82625282D01*
X129451800Y-82625282D01*
X129515903Y-82618968D01*
X129577543Y-82600270D01*
X129634350Y-82569906D01*
X129684143Y-82529043D01*
X129725006Y-82479250D01*
X129755370Y-82422443D01*
X129774068Y-82360803D01*
X129780382Y-82296700D01*
X129780382Y-81345246D01*
X134247000Y-81345246D01*
X134247000Y-81468754D01*
X134271095Y-81589889D01*
X134318360Y-81703996D01*
X134386977Y-81806689D01*
X134474311Y-81894023D01*
X134577004Y-81962640D01*
X134691111Y-82009905D01*
X134812246Y-82034000D01*
X134935754Y-82034000D01*
X135056889Y-82009905D01*
X135170996Y-81962640D01*
X135273689Y-81894023D01*
X135361023Y-81806689D01*
X135429640Y-81703996D01*
X135476905Y-81589889D01*
X135501000Y-81468754D01*
X135501000Y-81345246D01*
X135476905Y-81224111D01*
X135429640Y-81110004D01*
X135361023Y-81007311D01*
X135273689Y-80919977D01*
X135170996Y-80851360D01*
X135056889Y-80804095D01*
X134935754Y-80780000D01*
X134812246Y-80780000D01*
X134691111Y-80804095D01*
X134577004Y-80851360D01*
X134474311Y-80919977D01*
X134386977Y-81007311D01*
X134318360Y-81110004D01*
X134271095Y-81224111D01*
X134247000Y-81345246D01*
X129780382Y-81345246D01*
X129780382Y-80796700D01*
X129774068Y-80732597D01*
X129755370Y-80670957D01*
X129725006Y-80614150D01*
X129684143Y-80564357D01*
X129634350Y-80523494D01*
X129577543Y-80493130D01*
X129515903Y-80474432D01*
X129451800Y-80468118D01*
X127951800Y-80468118D01*
X127887697Y-80474432D01*
X127826057Y-80493130D01*
X127769250Y-80523494D01*
X127719457Y-80564357D01*
X127678594Y-80614150D01*
X127648230Y-80670957D01*
X127629532Y-80732597D01*
X127623218Y-80796700D01*
X126644827Y-80796700D01*
X126644936Y-78383700D01*
X127623218Y-78383700D01*
X127623218Y-79883700D01*
X127629532Y-79947803D01*
X127648230Y-80009443D01*
X127678594Y-80066250D01*
X127719457Y-80116043D01*
X127769250Y-80156906D01*
X127826057Y-80187270D01*
X127887697Y-80205968D01*
X127951800Y-80212282D01*
X129451800Y-80212282D01*
X129515903Y-80205968D01*
X129577543Y-80187270D01*
X129634350Y-80156906D01*
X129684143Y-80116043D01*
X129725006Y-80066250D01*
X129755370Y-80009443D01*
X129774068Y-79947803D01*
X129780382Y-79883700D01*
X129780382Y-78383700D01*
X129774068Y-78319597D01*
X129755370Y-78257957D01*
X129725006Y-78201150D01*
X129684143Y-78151357D01*
X129634350Y-78110494D01*
X129577543Y-78080130D01*
X129515903Y-78061432D01*
X129451800Y-78055118D01*
X127951800Y-78055118D01*
X127887697Y-78061432D01*
X127826057Y-78080130D01*
X127769250Y-78110494D01*
X127719457Y-78151357D01*
X127678594Y-78201150D01*
X127648230Y-78257957D01*
X127629532Y-78319597D01*
X127623218Y-78383700D01*
X126644936Y-78383700D01*
X126645056Y-75748139D01*
X126652294Y-75621174D01*
X126785000Y-75621174D01*
X126785000Y-75813626D01*
X126822546Y-76002380D01*
X126896194Y-76180183D01*
X127003115Y-76340201D01*
X127139199Y-76476285D01*
X127299217Y-76583206D01*
X127477020Y-76656854D01*
X127665774Y-76694400D01*
X127858226Y-76694400D01*
X128046980Y-76656854D01*
X128224783Y-76583206D01*
X128384801Y-76476285D01*
X128520885Y-76340201D01*
X128627806Y-76180183D01*
X128701454Y-76002380D01*
X128739000Y-75813626D01*
X128739000Y-75621174D01*
X128701454Y-75432420D01*
X128627806Y-75254617D01*
X128520885Y-75094599D01*
X128384801Y-74958515D01*
X128224783Y-74851594D01*
X128046980Y-74777946D01*
X127858226Y-74740400D01*
X127665774Y-74740400D01*
X127477020Y-74777946D01*
X127299217Y-74851594D01*
X127139199Y-74958515D01*
X127003115Y-75094599D01*
X126896194Y-75254617D01*
X126822546Y-75432420D01*
X126785000Y-75621174D01*
X126652294Y-75621174D01*
X126658070Y-75519863D01*
X126712527Y-75308726D01*
X126806960Y-75112180D01*
X126937770Y-74937719D01*
X127099973Y-74791992D01*
X127287396Y-74680543D01*
X127492889Y-74607623D01*
X127714230Y-74575186D01*
X127763833Y-74574000D01*
X141172786Y-74574000D01*
X141155382Y-80978623D01*
G36*
X156503141Y-74595736D02*
G01*
X156724031Y-74662426D01*
X156927766Y-74770754D01*
X157106574Y-74916587D01*
X157253655Y-75094378D01*
X157363403Y-75297352D01*
X157432093Y-75519252D01*
X157455000Y-75701524D01*
X157454987Y-76939275D01*
X157397089Y-76881377D01*
X157294396Y-76812760D01*
X157180289Y-76765495D01*
X157059154Y-76741400D01*
X156935646Y-76741400D01*
X156814511Y-76765495D01*
X156700404Y-76812760D01*
X156597711Y-76881377D01*
X156510377Y-76968711D01*
X156441760Y-77071404D01*
X156394495Y-77185511D01*
X156370400Y-77306646D01*
X156370400Y-77430154D01*
X156394495Y-77551289D01*
X156441760Y-77665396D01*
X156510377Y-77768089D01*
X156597711Y-77855423D01*
X156700404Y-77924040D01*
X156814511Y-77971305D01*
X156935646Y-77995400D01*
X157059154Y-77995400D01*
X157180289Y-77971305D01*
X157294396Y-77924040D01*
X157397089Y-77855423D01*
X157454978Y-77797534D01*
X157454761Y-99105319D01*
X157436570Y-99336555D01*
X157376230Y-99551245D01*
X157275338Y-99750127D01*
X157137735Y-99925630D01*
X156968673Y-100071055D01*
X156774574Y-100180879D01*
X156562847Y-100250907D01*
X156335125Y-100279279D01*
X156310490Y-100279602D01*
X127844573Y-100304984D01*
X127608386Y-100286492D01*
X127388849Y-100224880D01*
X127185467Y-100121803D01*
X127005975Y-99981181D01*
X126857219Y-99808377D01*
X126744857Y-99609967D01*
X126673175Y-99393516D01*
X126644189Y-99161577D01*
X126644000Y-99110241D01*
X126644003Y-99039974D01*
X126835800Y-99039974D01*
X126835800Y-99232426D01*
X126873346Y-99421180D01*
X126946994Y-99598983D01*
X127053915Y-99759001D01*
X127189999Y-99895085D01*
X127350017Y-100002006D01*
X127527820Y-100075654D01*
X127716574Y-100113200D01*
X127909026Y-100113200D01*
X128097780Y-100075654D01*
X128275583Y-100002006D01*
X128435601Y-99895085D01*
X128571685Y-99759001D01*
X128678606Y-99598983D01*
X128752254Y-99421180D01*
X128789800Y-99232426D01*
X128789800Y-99039974D01*
X155334600Y-99039974D01*
X155334600Y-99232426D01*
X155372146Y-99421180D01*
X155445794Y-99598983D01*
X155552715Y-99759001D01*
X155688799Y-99895085D01*
X155848817Y-100002006D01*
X156026620Y-100075654D01*
X156215374Y-100113200D01*
X156407826Y-100113200D01*
X156596580Y-100075654D01*
X156774383Y-100002006D01*
X156934401Y-99895085D01*
X157070485Y-99759001D01*
X157177406Y-99598983D01*
X157251054Y-99421180D01*
X157288600Y-99232426D01*
X157288600Y-99039974D01*
X157251054Y-98851220D01*
X157177406Y-98673417D01*
X157070485Y-98513399D01*
X156934401Y-98377315D01*
X156774383Y-98270394D01*
X156596580Y-98196746D01*
X156407826Y-98159200D01*
X156215374Y-98159200D01*
X156026620Y-98196746D01*
X155848817Y-98270394D01*
X155688799Y-98377315D01*
X155552715Y-98513399D01*
X155445794Y-98673417D01*
X155372146Y-98851220D01*
X155334600Y-99039974D01*
X128789800Y-99039974D01*
X128752254Y-98851220D01*
X128678606Y-98673417D01*
X128571685Y-98513399D01*
X128435601Y-98377315D01*
X128275583Y-98270394D01*
X128097780Y-98196746D01*
X127909026Y-98159200D01*
X127716574Y-98159200D01*
X127527820Y-98196746D01*
X127350017Y-98270394D01*
X127189999Y-98377315D01*
X127053915Y-98513399D01*
X126946994Y-98673417D01*
X126873346Y-98851220D01*
X126835800Y-99039974D01*
X126644003Y-99039974D01*
X126644133Y-96152400D01*
X127313728Y-96152400D01*
X127325988Y-96276882D01*
X127362298Y-96396580D01*
X127421263Y-96506894D01*
X127500615Y-96603585D01*
X127597306Y-96682937D01*
X127707620Y-96741902D01*
X127827318Y-96778212D01*
X127951800Y-96790472D01*
X128416050Y-96787400D01*
X128574800Y-96628650D01*
X128574800Y-95529400D01*
X128828800Y-95529400D01*
X128828800Y-96628650D01*
X128987550Y-96787400D01*
X129451800Y-96790472D01*
X129576282Y-96778212D01*
X129695980Y-96741902D01*
X129751461Y-96712246D01*
X148648800Y-96712246D01*
X148648800Y-96835754D01*
X148672895Y-96956889D01*
X148720160Y-97070996D01*
X148788777Y-97173689D01*
X148876111Y-97261023D01*
X148978804Y-97329640D01*
X149092911Y-97376905D01*
X149214046Y-97401000D01*
X149337554Y-97401000D01*
X149458689Y-97376905D01*
X149572796Y-97329640D01*
X149675489Y-97261023D01*
X149762823Y-97173689D01*
X149831440Y-97070996D01*
X149878705Y-96956889D01*
X149902800Y-96835754D01*
X149902800Y-96712246D01*
X149878705Y-96591111D01*
X149831440Y-96477004D01*
X149762823Y-96374311D01*
X149675489Y-96286977D01*
X149572796Y-96218360D01*
X149458689Y-96171095D01*
X149337554Y-96147000D01*
X149214046Y-96147000D01*
X149092911Y-96171095D01*
X148978804Y-96218360D01*
X148876111Y-96286977D01*
X148788777Y-96374311D01*
X148720160Y-96477004D01*
X148672895Y-96591111D01*
X148648800Y-96712246D01*
X129751461Y-96712246D01*
X129806294Y-96682937D01*
X129902985Y-96603585D01*
X129982337Y-96506894D01*
X130041302Y-96396580D01*
X130077612Y-96276882D01*
X130089872Y-96152400D01*
X130086800Y-95688150D01*
X129928050Y-95529400D01*
X128828800Y-95529400D01*
X128574800Y-95529400D01*
X127475550Y-95529400D01*
X127316800Y-95688150D01*
X127313728Y-96152400D01*
X126644133Y-96152400D01*
X126644200Y-94652400D01*
X127313728Y-94652400D01*
X127316800Y-95116650D01*
X127475550Y-95275400D01*
X128574800Y-95275400D01*
X128574800Y-95255400D01*
X128828800Y-95255400D01*
X128828800Y-95275400D01*
X129928050Y-95275400D01*
X130086800Y-95116650D01*
X130089872Y-94652400D01*
X130077612Y-94527918D01*
X130069886Y-94502446D01*
X152306400Y-94502446D01*
X152306400Y-94625954D01*
X152330495Y-94747089D01*
X152377760Y-94861196D01*
X152446377Y-94963889D01*
X152491188Y-95008700D01*
X152446377Y-95053511D01*
X152377760Y-95156204D01*
X152330495Y-95270311D01*
X152306400Y-95391446D01*
X152306400Y-95514954D01*
X152330495Y-95636089D01*
X152377760Y-95750196D01*
X152446377Y-95852889D01*
X152533711Y-95940223D01*
X152636404Y-96008840D01*
X152750511Y-96056105D01*
X152871646Y-96080200D01*
X152995154Y-96080200D01*
X153116289Y-96056105D01*
X153230396Y-96008840D01*
X153333089Y-95940223D01*
X153420423Y-95852889D01*
X153489040Y-95750196D01*
X153536305Y-95636089D01*
X153560400Y-95514954D01*
X153560400Y-95391446D01*
X153536305Y-95270311D01*
X153489040Y-95156204D01*
X153420423Y-95053511D01*
X153375612Y-95008700D01*
X153420423Y-94963889D01*
X153489040Y-94861196D01*
X153536305Y-94747089D01*
X153560400Y-94625954D01*
X153560400Y-94502446D01*
X153536305Y-94381311D01*
X153489040Y-94267204D01*
X153420423Y-94164511D01*
X153333089Y-94077177D01*
X153230396Y-94008560D01*
X153116289Y-93961295D01*
X152995154Y-93937200D01*
X152871646Y-93937200D01*
X152750511Y-93961295D01*
X152636404Y-94008560D01*
X152533711Y-94077177D01*
X152446377Y-94164511D01*
X152377760Y-94267204D01*
X152330495Y-94381311D01*
X152306400Y-94502446D01*
X130069886Y-94502446D01*
X130041302Y-94408220D01*
X129982337Y-94297906D01*
X129902985Y-94201215D01*
X129806294Y-94121863D01*
X129708199Y-94069429D01*
X129725006Y-94048950D01*
X129755370Y-93992143D01*
X129774068Y-93930503D01*
X129780382Y-93866400D01*
X129780382Y-92366400D01*
X129774068Y-92302297D01*
X129755370Y-92240657D01*
X129725006Y-92183850D01*
X129684143Y-92134057D01*
X129634350Y-92093194D01*
X129577543Y-92062830D01*
X129515903Y-92044132D01*
X129451800Y-92037818D01*
X127951800Y-92037818D01*
X127887697Y-92044132D01*
X127826057Y-92062830D01*
X127769250Y-92093194D01*
X127719457Y-92134057D01*
X127678594Y-92183850D01*
X127648230Y-92240657D01*
X127629532Y-92302297D01*
X127623218Y-92366400D01*
X127623218Y-93866400D01*
X127629532Y-93930503D01*
X127648230Y-93992143D01*
X127678594Y-94048950D01*
X127695401Y-94069429D01*
X127597306Y-94121863D01*
X127500615Y-94201215D01*
X127421263Y-94297906D01*
X127362298Y-94408220D01*
X127325988Y-94527918D01*
X127313728Y-94652400D01*
X126644200Y-94652400D01*
X126644407Y-90080400D01*
X127623218Y-90080400D01*
X127623218Y-91580400D01*
X127629532Y-91644503D01*
X127648230Y-91706143D01*
X127678594Y-91762950D01*
X127719457Y-91812743D01*
X127769250Y-91853606D01*
X127826057Y-91883970D01*
X127887697Y-91902668D01*
X127951800Y-91908982D01*
X129451800Y-91908982D01*
X129515903Y-91902668D01*
X129577543Y-91883970D01*
X129634350Y-91853606D01*
X129684143Y-91812743D01*
X129725006Y-91762950D01*
X129755370Y-91706143D01*
X129774068Y-91644503D01*
X129780382Y-91580400D01*
X129780382Y-90080400D01*
X129774068Y-90016297D01*
X129755370Y-89954657D01*
X129725006Y-89897850D01*
X129684143Y-89848057D01*
X129634350Y-89807194D01*
X129577543Y-89776830D01*
X129515903Y-89758132D01*
X129451800Y-89751818D01*
X127951800Y-89751818D01*
X127887697Y-89758132D01*
X127826057Y-89776830D01*
X127769250Y-89807194D01*
X127719457Y-89848057D01*
X127678594Y-89897850D01*
X127648230Y-89954657D01*
X127629532Y-90016297D01*
X127623218Y-90080400D01*
X126644407Y-90080400D01*
X126644614Y-85508400D01*
X127623218Y-85508400D01*
X127623218Y-87008400D01*
X127629532Y-87072503D01*
X127648230Y-87134143D01*
X127678594Y-87190950D01*
X127719457Y-87240743D01*
X127769250Y-87281606D01*
X127826057Y-87311970D01*
X127887697Y-87330668D01*
X127951800Y-87336982D01*
X129451800Y-87336982D01*
X129515903Y-87330668D01*
X129577543Y-87311970D01*
X129634350Y-87281606D01*
X129684143Y-87240743D01*
X129725006Y-87190950D01*
X129755370Y-87134143D01*
X129774068Y-87072503D01*
X129780382Y-87008400D01*
X129780382Y-86884005D01*
X130989232Y-88092856D01*
X130984605Y-88092400D01*
X130962400Y-88090213D01*
X130940195Y-88092400D01*
X129780382Y-88092400D01*
X129780382Y-87794400D01*
X129774068Y-87730297D01*
X129755370Y-87668657D01*
X129725006Y-87611850D01*
X129684143Y-87562057D01*
X129634350Y-87521194D01*
X129577543Y-87490830D01*
X129515903Y-87472132D01*
X129451800Y-87465818D01*
X127951800Y-87465818D01*
X127887697Y-87472132D01*
X127826057Y-87490830D01*
X127769250Y-87521194D01*
X127719457Y-87562057D01*
X127678594Y-87611850D01*
X127648230Y-87668657D01*
X127629532Y-87730297D01*
X127623218Y-87794400D01*
X127623218Y-89294400D01*
X127629532Y-89358503D01*
X127648230Y-89420143D01*
X127678594Y-89476950D01*
X127719457Y-89526743D01*
X127769250Y-89567606D01*
X127826057Y-89597970D01*
X127887697Y-89616668D01*
X127951800Y-89622982D01*
X129451800Y-89622982D01*
X129515903Y-89616668D01*
X129577543Y-89597970D01*
X129634350Y-89567606D01*
X129684143Y-89526743D01*
X129725006Y-89476950D01*
X129755370Y-89420143D01*
X129774068Y-89358503D01*
X129780382Y-89294400D01*
X129780382Y-88996400D01*
X130775177Y-88996400D01*
X132928482Y-91149706D01*
X132942642Y-91166960D01*
X133011468Y-91223444D01*
X133089991Y-91265415D01*
X133175193Y-91291261D01*
X133263801Y-91299988D01*
X133286006Y-91297801D01*
X140087525Y-91297801D01*
X140062295Y-91358711D01*
X140038200Y-91479846D01*
X140038200Y-91603354D01*
X140062295Y-91724489D01*
X140109560Y-91838596D01*
X140178177Y-91941289D01*
X140265511Y-92028623D01*
X140368204Y-92097240D01*
X140482311Y-92144505D01*
X140603446Y-92168600D01*
X140652977Y-92168600D01*
X141338691Y-92854315D01*
X141352851Y-92871569D01*
X141421677Y-92928053D01*
X141500200Y-92970024D01*
X141585402Y-92995870D01*
X141674010Y-93004597D01*
X141696215Y-93002410D01*
X153754987Y-93002410D01*
X155379800Y-94627225D01*
X155379800Y-94676754D01*
X155403895Y-94797889D01*
X155451160Y-94911996D01*
X155519777Y-95014689D01*
X155564588Y-95059500D01*
X155494377Y-95129711D01*
X155425760Y-95232404D01*
X155378495Y-95346511D01*
X155354400Y-95467646D01*
X155354400Y-95591154D01*
X155378495Y-95712289D01*
X155425760Y-95826396D01*
X155494377Y-95929089D01*
X155581711Y-96016423D01*
X155684404Y-96085040D01*
X155798511Y-96132305D01*
X155919646Y-96156400D01*
X156043154Y-96156400D01*
X156164289Y-96132305D01*
X156278396Y-96085040D01*
X156381089Y-96016423D01*
X156468423Y-95929089D01*
X156537040Y-95826396D01*
X156584305Y-95712289D01*
X156608400Y-95591154D01*
X156608400Y-95467646D01*
X156584305Y-95346511D01*
X156537040Y-95232404D01*
X156468423Y-95129711D01*
X156423612Y-95084900D01*
X156493823Y-95014689D01*
X156562440Y-94911996D01*
X156609705Y-94797889D01*
X156633800Y-94676754D01*
X156633800Y-94553246D01*
X156609705Y-94432111D01*
X156562440Y-94318004D01*
X156493823Y-94215311D01*
X156406489Y-94127977D01*
X156303796Y-94059360D01*
X156189689Y-94012095D01*
X156068554Y-93988000D01*
X156019025Y-93988000D01*
X154583423Y-92552400D01*
X155108377Y-92552400D01*
X155379800Y-92823824D01*
X155379800Y-92873354D01*
X155403895Y-92994489D01*
X155451160Y-93108596D01*
X155519777Y-93211289D01*
X155607111Y-93298623D01*
X155709804Y-93367240D01*
X155823911Y-93414505D01*
X155945046Y-93438600D01*
X156068554Y-93438600D01*
X156189689Y-93414505D01*
X156303796Y-93367240D01*
X156406489Y-93298623D01*
X156493823Y-93211289D01*
X156562440Y-93108596D01*
X156609705Y-92994489D01*
X156633800Y-92873354D01*
X156633800Y-92749846D01*
X156609705Y-92628711D01*
X156562440Y-92514604D01*
X156493823Y-92411911D01*
X156406489Y-92324577D01*
X156303796Y-92255960D01*
X156189689Y-92208695D01*
X156068554Y-92184600D01*
X156019024Y-92184600D01*
X155630923Y-91796500D01*
X155616759Y-91779241D01*
X155547933Y-91722757D01*
X155469410Y-91680786D01*
X155384207Y-91654940D01*
X155317805Y-91648400D01*
X155295600Y-91646213D01*
X155273395Y-91648400D01*
X150995756Y-91648400D01*
X150983605Y-91587311D01*
X150936340Y-91473204D01*
X150867723Y-91370511D01*
X150780389Y-91283177D01*
X150677696Y-91214560D01*
X150563589Y-91167295D01*
X150442454Y-91143200D01*
X150392924Y-91143200D01*
X149791624Y-90541901D01*
X149777460Y-90524642D01*
X149708634Y-90468158D01*
X149630111Y-90426187D01*
X149544908Y-90400341D01*
X149478506Y-90393801D01*
X149456301Y-90391614D01*
X149434096Y-90393801D01*
X146934272Y-90393801D01*
X146956400Y-90282554D01*
X146956400Y-90159046D01*
X146932305Y-90037911D01*
X146885040Y-89923804D01*
X146816423Y-89821111D01*
X146729089Y-89733777D01*
X146626396Y-89665160D01*
X146512289Y-89617895D01*
X146391154Y-89593800D01*
X146341624Y-89593800D01*
X145154270Y-88406446D01*
X148623400Y-88406446D01*
X148623400Y-88529954D01*
X148647495Y-88651089D01*
X148694760Y-88765196D01*
X148763377Y-88867889D01*
X148808188Y-88912700D01*
X148763377Y-88957511D01*
X148694760Y-89060204D01*
X148647495Y-89174311D01*
X148623400Y-89295446D01*
X148623400Y-89418954D01*
X148647495Y-89540089D01*
X148694760Y-89654196D01*
X148763377Y-89756889D01*
X148850711Y-89844223D01*
X148953404Y-89912840D01*
X149067511Y-89960105D01*
X149188646Y-89984200D01*
X149312154Y-89984200D01*
X149433289Y-89960105D01*
X149547396Y-89912840D01*
X149650089Y-89844223D01*
X149737423Y-89756889D01*
X149806040Y-89654196D01*
X149853305Y-89540089D01*
X149877400Y-89418954D01*
X149877400Y-89295446D01*
X149853305Y-89174311D01*
X149806040Y-89060204D01*
X149737423Y-88957511D01*
X149692612Y-88912700D01*
X149737423Y-88867889D01*
X149806040Y-88765196D01*
X149853305Y-88651089D01*
X149877400Y-88529954D01*
X149877400Y-88406446D01*
X149853305Y-88285311D01*
X149806040Y-88171204D01*
X149737423Y-88068511D01*
X149650089Y-87981177D01*
X149612388Y-87955986D01*
X149675489Y-87913823D01*
X149762823Y-87826489D01*
X149831440Y-87723796D01*
X149878705Y-87609689D01*
X149902800Y-87488554D01*
X149902800Y-87365046D01*
X149878705Y-87243911D01*
X149831440Y-87129804D01*
X149762823Y-87027111D01*
X149675489Y-86939777D01*
X149572796Y-86871160D01*
X149458689Y-86823895D01*
X149337554Y-86799800D01*
X149214046Y-86799800D01*
X149092911Y-86823895D01*
X148978804Y-86871160D01*
X148876111Y-86939777D01*
X148788777Y-87027111D01*
X148720160Y-87129804D01*
X148672895Y-87243911D01*
X148648800Y-87365046D01*
X148648800Y-87488554D01*
X148672895Y-87609689D01*
X148720160Y-87723796D01*
X148788777Y-87826489D01*
X148876111Y-87913823D01*
X148913812Y-87939014D01*
X148850711Y-87981177D01*
X148763377Y-88068511D01*
X148694760Y-88171204D01*
X148647495Y-88285311D01*
X148623400Y-88406446D01*
X145154270Y-88406446D01*
X144007722Y-87259899D01*
X143993558Y-87242640D01*
X143924732Y-87186156D01*
X143846209Y-87144185D01*
X143761006Y-87118339D01*
X143694604Y-87111799D01*
X143672399Y-87109612D01*
X143650194Y-87111799D01*
X140895401Y-87111799D01*
X140873198Y-87109612D01*
X140850995Y-87111799D01*
X140850994Y-87111799D01*
X140784592Y-87118339D01*
X140699389Y-87144185D01*
X140620866Y-87186156D01*
X140552040Y-87242640D01*
X140537885Y-87259888D01*
X137853984Y-89943791D01*
X134118616Y-89943791D01*
X130129323Y-85954500D01*
X130115159Y-85937241D01*
X130046333Y-85880757D01*
X129967810Y-85838786D01*
X129882607Y-85812940D01*
X129816205Y-85806400D01*
X129794000Y-85804213D01*
X129780382Y-85805554D01*
X129780382Y-85508400D01*
X129774068Y-85444297D01*
X129755370Y-85382657D01*
X129725006Y-85325850D01*
X129684143Y-85276057D01*
X129634350Y-85235194D01*
X129577543Y-85204830D01*
X129515903Y-85186132D01*
X129451800Y-85179818D01*
X127951800Y-85179818D01*
X127887697Y-85186132D01*
X127826057Y-85204830D01*
X127769250Y-85235194D01*
X127719457Y-85276057D01*
X127678594Y-85325850D01*
X127648230Y-85382657D01*
X127629532Y-85444297D01*
X127623218Y-85508400D01*
X126644614Y-85508400D01*
X126644668Y-84327233D01*
X127623218Y-84322307D01*
X127623218Y-84722400D01*
X127629532Y-84786503D01*
X127648230Y-84848143D01*
X127678594Y-84904950D01*
X127719457Y-84954743D01*
X127769250Y-84995606D01*
X127826057Y-85025970D01*
X127887697Y-85044668D01*
X127951800Y-85050982D01*
X129451800Y-85050982D01*
X129515903Y-85044668D01*
X129577543Y-85025970D01*
X129634350Y-84995606D01*
X129684143Y-84954743D01*
X129725006Y-84904950D01*
X129755370Y-84848143D01*
X129774068Y-84786503D01*
X129780382Y-84722400D01*
X129780382Y-84311449D01*
X141631039Y-84251798D01*
X141655803Y-84249233D01*
X141679591Y-84241887D01*
X141701488Y-84230040D01*
X141720653Y-84214149D01*
X141736350Y-84194825D01*
X141747976Y-84172810D01*
X141755083Y-84148949D01*
X141757398Y-84125465D01*
X141761182Y-83402646D01*
X149182200Y-83402646D01*
X149182200Y-83526154D01*
X149206295Y-83647289D01*
X149253560Y-83761396D01*
X149322177Y-83864089D01*
X149409511Y-83951423D01*
X149512204Y-84020040D01*
X149626311Y-84067305D01*
X149747446Y-84091400D01*
X149870954Y-84091400D01*
X149992089Y-84067305D01*
X150106196Y-84020040D01*
X150208889Y-83951423D01*
X150296223Y-83864089D01*
X150364840Y-83761396D01*
X150412105Y-83647289D01*
X150436200Y-83526154D01*
X150436200Y-83402646D01*
X150412105Y-83281511D01*
X150364840Y-83167404D01*
X150296223Y-83064711D01*
X150208889Y-82977377D01*
X150106196Y-82908760D01*
X149992089Y-82861495D01*
X149870954Y-82837400D01*
X149747446Y-82837400D01*
X149626311Y-82861495D01*
X149512204Y-82908760D01*
X149409511Y-82977377D01*
X149322177Y-83064711D01*
X149253560Y-83167404D01*
X149206295Y-83281511D01*
X149182200Y-83402646D01*
X141761182Y-83402646D01*
X141763749Y-82912359D01*
X141853911Y-82949705D01*
X141975046Y-82973800D01*
X142098554Y-82973800D01*
X142219689Y-82949705D01*
X142333796Y-82902440D01*
X142436489Y-82833823D01*
X142523823Y-82746489D01*
X142592440Y-82643796D01*
X142639705Y-82529689D01*
X142663800Y-82408554D01*
X142663800Y-82285046D01*
X142653696Y-82234246D01*
X153906600Y-82234246D01*
X153906600Y-82357754D01*
X153930695Y-82478889D01*
X153977960Y-82592996D01*
X154046577Y-82695689D01*
X154133911Y-82783023D01*
X154236604Y-82851640D01*
X154350711Y-82898905D01*
X154471846Y-82923000D01*
X154595354Y-82923000D01*
X154716489Y-82898905D01*
X154830596Y-82851640D01*
X154933289Y-82783023D01*
X155020623Y-82695689D01*
X155089240Y-82592996D01*
X155136505Y-82478889D01*
X155160600Y-82357754D01*
X155160600Y-82237200D01*
X155255754Y-82237200D01*
X155376889Y-82213105D01*
X155490996Y-82165840D01*
X155593689Y-82097223D01*
X155681023Y-82009889D01*
X155749640Y-81907196D01*
X155796905Y-81793089D01*
X155821000Y-81671954D01*
X155821000Y-81548446D01*
X155796905Y-81427311D01*
X155749640Y-81313204D01*
X155681023Y-81210511D01*
X155593689Y-81123177D01*
X155490996Y-81054560D01*
X155376889Y-81007295D01*
X155255754Y-80983200D01*
X155132246Y-80983200D01*
X155011111Y-81007295D01*
X154897004Y-81054560D01*
X154794311Y-81123177D01*
X154706977Y-81210511D01*
X154638360Y-81313204D01*
X154591095Y-81427311D01*
X154567000Y-81548446D01*
X154567000Y-81669000D01*
X154471846Y-81669000D01*
X154350711Y-81693095D01*
X154236604Y-81740360D01*
X154133911Y-81808977D01*
X154046577Y-81896311D01*
X153977960Y-81999004D01*
X153930695Y-82113111D01*
X153906600Y-82234246D01*
X142653696Y-82234246D01*
X142639705Y-82163911D01*
X142592440Y-82049804D01*
X142523823Y-81947111D01*
X142436489Y-81859777D01*
X142333796Y-81791160D01*
X142219689Y-81743895D01*
X142108627Y-81721804D01*
X142131705Y-81666089D01*
X142155800Y-81544954D01*
X142155800Y-81421446D01*
X148877400Y-81421446D01*
X148877400Y-81544954D01*
X148901495Y-81666089D01*
X148948760Y-81780196D01*
X149017377Y-81882889D01*
X149104711Y-81970223D01*
X149207404Y-82038840D01*
X149321511Y-82086105D01*
X149442646Y-82110200D01*
X149566154Y-82110200D01*
X149687289Y-82086105D01*
X149801396Y-82038840D01*
X149904089Y-81970223D01*
X149991423Y-81882889D01*
X150060040Y-81780196D01*
X150107305Y-81666089D01*
X150131400Y-81544954D01*
X150131400Y-81421446D01*
X150107305Y-81300311D01*
X150060040Y-81186204D01*
X149991423Y-81083511D01*
X149904089Y-80996177D01*
X149801396Y-80927560D01*
X149687289Y-80880295D01*
X149566154Y-80856200D01*
X149442646Y-80856200D01*
X149321511Y-80880295D01*
X149207404Y-80927560D01*
X149104711Y-80996177D01*
X149017377Y-81083511D01*
X148948760Y-81186204D01*
X148901495Y-81300311D01*
X148877400Y-81421446D01*
X142155800Y-81421446D01*
X142131705Y-81300311D01*
X142084440Y-81186204D01*
X142015823Y-81083511D01*
X141928489Y-80996177D01*
X141825796Y-80927560D01*
X141774253Y-80906210D01*
X141798551Y-76265246D01*
X152484200Y-76265246D01*
X152484200Y-76388754D01*
X152508295Y-76509889D01*
X152555560Y-76623996D01*
X152624177Y-76726689D01*
X152711511Y-76814023D01*
X152814204Y-76882640D01*
X152928311Y-76929905D01*
X153049446Y-76954000D01*
X153172954Y-76954000D01*
X153294089Y-76929905D01*
X153408196Y-76882640D01*
X153510889Y-76814023D01*
X153598223Y-76726689D01*
X153666840Y-76623996D01*
X153714105Y-76509889D01*
X153738200Y-76388754D01*
X153738200Y-76265246D01*
X153714105Y-76144111D01*
X153666840Y-76030004D01*
X153598223Y-75927311D01*
X153510889Y-75839977D01*
X153408196Y-75771360D01*
X153294089Y-75724095D01*
X153172954Y-75700000D01*
X153049446Y-75700000D01*
X152928311Y-75724095D01*
X152814204Y-75771360D01*
X152711511Y-75839977D01*
X152624177Y-75927311D01*
X152555560Y-76030004D01*
X152508295Y-76144111D01*
X152484200Y-76265246D01*
X141798551Y-76265246D01*
X141801923Y-75621174D01*
X155309200Y-75621174D01*
X155309200Y-75813626D01*
X155346746Y-76002380D01*
X155420394Y-76180183D01*
X155527315Y-76340201D01*
X155663399Y-76476285D01*
X155823417Y-76583206D01*
X156001220Y-76656854D01*
X156189974Y-76694400D01*
X156382426Y-76694400D01*
X156571180Y-76656854D01*
X156748983Y-76583206D01*
X156909001Y-76476285D01*
X157045085Y-76340201D01*
X157152006Y-76180183D01*
X157225654Y-76002380D01*
X157263200Y-75813626D01*
X157263200Y-75621174D01*
X157225654Y-75432420D01*
X157152006Y-75254617D01*
X157045085Y-75094599D01*
X156909001Y-74958515D01*
X156748983Y-74851594D01*
X156571180Y-74777946D01*
X156382426Y-74740400D01*
X156189974Y-74740400D01*
X156001220Y-74777946D01*
X155823417Y-74851594D01*
X155663399Y-74958515D01*
X155527315Y-75094599D01*
X155420394Y-75254617D01*
X155346746Y-75432420D01*
X155309200Y-75621174D01*
X141801923Y-75621174D01*
X141807406Y-74574000D01*
X156280962Y-74574000D01*
X156281212Y-74573975D01*
X156503141Y-74595736D01*
G37*
X156503141Y-74595736D02*
X156724031Y-74662426D01*
X156927766Y-74770754D01*
X157106574Y-74916587D01*
X157253655Y-75094378D01*
X157363403Y-75297352D01*
X157432093Y-75519252D01*
X157455000Y-75701524D01*
X157454987Y-76939275D01*
X157397089Y-76881377D01*
X157294396Y-76812760D01*
X157180289Y-76765495D01*
X157059154Y-76741400D01*
X156935646Y-76741400D01*
X156814511Y-76765495D01*
X156700404Y-76812760D01*
X156597711Y-76881377D01*
X156510377Y-76968711D01*
X156441760Y-77071404D01*
X156394495Y-77185511D01*
X156370400Y-77306646D01*
X156370400Y-77430154D01*
X156394495Y-77551289D01*
X156441760Y-77665396D01*
X156510377Y-77768089D01*
X156597711Y-77855423D01*
X156700404Y-77924040D01*
X156814511Y-77971305D01*
X156935646Y-77995400D01*
X157059154Y-77995400D01*
X157180289Y-77971305D01*
X157294396Y-77924040D01*
X157397089Y-77855423D01*
X157454978Y-77797534D01*
X157454761Y-99105319D01*
X157436570Y-99336555D01*
X157376230Y-99551245D01*
X157275338Y-99750127D01*
X157137735Y-99925630D01*
X156968673Y-100071055D01*
X156774574Y-100180879D01*
X156562847Y-100250907D01*
X156335125Y-100279279D01*
X156310490Y-100279602D01*
X127844573Y-100304984D01*
X127608386Y-100286492D01*
X127388849Y-100224880D01*
X127185467Y-100121803D01*
X127005975Y-99981181D01*
X126857219Y-99808377D01*
X126744857Y-99609967D01*
X126673175Y-99393516D01*
X126644189Y-99161577D01*
X126644000Y-99110241D01*
X126644003Y-99039974D01*
X126835800Y-99039974D01*
X126835800Y-99232426D01*
X126873346Y-99421180D01*
X126946994Y-99598983D01*
X127053915Y-99759001D01*
X127189999Y-99895085D01*
X127350017Y-100002006D01*
X127527820Y-100075654D01*
X127716574Y-100113200D01*
X127909026Y-100113200D01*
X128097780Y-100075654D01*
X128275583Y-100002006D01*
X128435601Y-99895085D01*
X128571685Y-99759001D01*
X128678606Y-99598983D01*
X128752254Y-99421180D01*
X128789800Y-99232426D01*
X128789800Y-99039974D01*
X155334600Y-99039974D01*
X155334600Y-99232426D01*
X155372146Y-99421180D01*
X155445794Y-99598983D01*
X155552715Y-99759001D01*
X155688799Y-99895085D01*
X155848817Y-100002006D01*
X156026620Y-100075654D01*
X156215374Y-100113200D01*
X156407826Y-100113200D01*
X156596580Y-100075654D01*
X156774383Y-100002006D01*
X156934401Y-99895085D01*
X157070485Y-99759001D01*
X157177406Y-99598983D01*
X157251054Y-99421180D01*
X157288600Y-99232426D01*
X157288600Y-99039974D01*
X157251054Y-98851220D01*
X157177406Y-98673417D01*
X157070485Y-98513399D01*
X156934401Y-98377315D01*
X156774383Y-98270394D01*
X156596580Y-98196746D01*
X156407826Y-98159200D01*
X156215374Y-98159200D01*
X156026620Y-98196746D01*
X155848817Y-98270394D01*
X155688799Y-98377315D01*
X155552715Y-98513399D01*
X155445794Y-98673417D01*
X155372146Y-98851220D01*
X155334600Y-99039974D01*
X128789800Y-99039974D01*
X128752254Y-98851220D01*
X128678606Y-98673417D01*
X128571685Y-98513399D01*
X128435601Y-98377315D01*
X128275583Y-98270394D01*
X128097780Y-98196746D01*
X127909026Y-98159200D01*
X127716574Y-98159200D01*
X127527820Y-98196746D01*
X127350017Y-98270394D01*
X127189999Y-98377315D01*
X127053915Y-98513399D01*
X126946994Y-98673417D01*
X126873346Y-98851220D01*
X126835800Y-99039974D01*
X126644003Y-99039974D01*
X126644133Y-96152400D01*
X127313728Y-96152400D01*
X127325988Y-96276882D01*
X127362298Y-96396580D01*
X127421263Y-96506894D01*
X127500615Y-96603585D01*
X127597306Y-96682937D01*
X127707620Y-96741902D01*
X127827318Y-96778212D01*
X127951800Y-96790472D01*
X128416050Y-96787400D01*
X128574800Y-96628650D01*
X128574800Y-95529400D01*
X128828800Y-95529400D01*
X128828800Y-96628650D01*
X128987550Y-96787400D01*
X129451800Y-96790472D01*
X129576282Y-96778212D01*
X129695980Y-96741902D01*
X129751461Y-96712246D01*
X148648800Y-96712246D01*
X148648800Y-96835754D01*
X148672895Y-96956889D01*
X148720160Y-97070996D01*
X148788777Y-97173689D01*
X148876111Y-97261023D01*
X148978804Y-97329640D01*
X149092911Y-97376905D01*
X149214046Y-97401000D01*
X149337554Y-97401000D01*
X149458689Y-97376905D01*
X149572796Y-97329640D01*
X149675489Y-97261023D01*
X149762823Y-97173689D01*
X149831440Y-97070996D01*
X149878705Y-96956889D01*
X149902800Y-96835754D01*
X149902800Y-96712246D01*
X149878705Y-96591111D01*
X149831440Y-96477004D01*
X149762823Y-96374311D01*
X149675489Y-96286977D01*
X149572796Y-96218360D01*
X149458689Y-96171095D01*
X149337554Y-96147000D01*
X149214046Y-96147000D01*
X149092911Y-96171095D01*
X148978804Y-96218360D01*
X148876111Y-96286977D01*
X148788777Y-96374311D01*
X148720160Y-96477004D01*
X148672895Y-96591111D01*
X148648800Y-96712246D01*
X129751461Y-96712246D01*
X129806294Y-96682937D01*
X129902985Y-96603585D01*
X129982337Y-96506894D01*
X130041302Y-96396580D01*
X130077612Y-96276882D01*
X130089872Y-96152400D01*
X130086800Y-95688150D01*
X129928050Y-95529400D01*
X128828800Y-95529400D01*
X128574800Y-95529400D01*
X127475550Y-95529400D01*
X127316800Y-95688150D01*
X127313728Y-96152400D01*
X126644133Y-96152400D01*
X126644200Y-94652400D01*
X127313728Y-94652400D01*
X127316800Y-95116650D01*
X127475550Y-95275400D01*
X128574800Y-95275400D01*
X128574800Y-95255400D01*
X128828800Y-95255400D01*
X128828800Y-95275400D01*
X129928050Y-95275400D01*
X130086800Y-95116650D01*
X130089872Y-94652400D01*
X130077612Y-94527918D01*
X130069886Y-94502446D01*
X152306400Y-94502446D01*
X152306400Y-94625954D01*
X152330495Y-94747089D01*
X152377760Y-94861196D01*
X152446377Y-94963889D01*
X152491188Y-95008700D01*
X152446377Y-95053511D01*
X152377760Y-95156204D01*
X152330495Y-95270311D01*
X152306400Y-95391446D01*
X152306400Y-95514954D01*
X152330495Y-95636089D01*
X152377760Y-95750196D01*
X152446377Y-95852889D01*
X152533711Y-95940223D01*
X152636404Y-96008840D01*
X152750511Y-96056105D01*
X152871646Y-96080200D01*
X152995154Y-96080200D01*
X153116289Y-96056105D01*
X153230396Y-96008840D01*
X153333089Y-95940223D01*
X153420423Y-95852889D01*
X153489040Y-95750196D01*
X153536305Y-95636089D01*
X153560400Y-95514954D01*
X153560400Y-95391446D01*
X153536305Y-95270311D01*
X153489040Y-95156204D01*
X153420423Y-95053511D01*
X153375612Y-95008700D01*
X153420423Y-94963889D01*
X153489040Y-94861196D01*
X153536305Y-94747089D01*
X153560400Y-94625954D01*
X153560400Y-94502446D01*
X153536305Y-94381311D01*
X153489040Y-94267204D01*
X153420423Y-94164511D01*
X153333089Y-94077177D01*
X153230396Y-94008560D01*
X153116289Y-93961295D01*
X152995154Y-93937200D01*
X152871646Y-93937200D01*
X152750511Y-93961295D01*
X152636404Y-94008560D01*
X152533711Y-94077177D01*
X152446377Y-94164511D01*
X152377760Y-94267204D01*
X152330495Y-94381311D01*
X152306400Y-94502446D01*
X130069886Y-94502446D01*
X130041302Y-94408220D01*
X129982337Y-94297906D01*
X129902985Y-94201215D01*
X129806294Y-94121863D01*
X129708199Y-94069429D01*
X129725006Y-94048950D01*
X129755370Y-93992143D01*
X129774068Y-93930503D01*
X129780382Y-93866400D01*
X129780382Y-92366400D01*
X129774068Y-92302297D01*
X129755370Y-92240657D01*
X129725006Y-92183850D01*
X129684143Y-92134057D01*
X129634350Y-92093194D01*
X129577543Y-92062830D01*
X129515903Y-92044132D01*
X129451800Y-92037818D01*
X127951800Y-92037818D01*
X127887697Y-92044132D01*
X127826057Y-92062830D01*
X127769250Y-92093194D01*
X127719457Y-92134057D01*
X127678594Y-92183850D01*
X127648230Y-92240657D01*
X127629532Y-92302297D01*
X127623218Y-92366400D01*
X127623218Y-93866400D01*
X127629532Y-93930503D01*
X127648230Y-93992143D01*
X127678594Y-94048950D01*
X127695401Y-94069429D01*
X127597306Y-94121863D01*
X127500615Y-94201215D01*
X127421263Y-94297906D01*
X127362298Y-94408220D01*
X127325988Y-94527918D01*
X127313728Y-94652400D01*
X126644200Y-94652400D01*
X126644407Y-90080400D01*
X127623218Y-90080400D01*
X127623218Y-91580400D01*
X127629532Y-91644503D01*
X127648230Y-91706143D01*
X127678594Y-91762950D01*
X127719457Y-91812743D01*
X127769250Y-91853606D01*
X127826057Y-91883970D01*
X127887697Y-91902668D01*
X127951800Y-91908982D01*
X129451800Y-91908982D01*
X129515903Y-91902668D01*
X129577543Y-91883970D01*
X129634350Y-91853606D01*
X129684143Y-91812743D01*
X129725006Y-91762950D01*
X129755370Y-91706143D01*
X129774068Y-91644503D01*
X129780382Y-91580400D01*
X129780382Y-90080400D01*
X129774068Y-90016297D01*
X129755370Y-89954657D01*
X129725006Y-89897850D01*
X129684143Y-89848057D01*
X129634350Y-89807194D01*
X129577543Y-89776830D01*
X129515903Y-89758132D01*
X129451800Y-89751818D01*
X127951800Y-89751818D01*
X127887697Y-89758132D01*
X127826057Y-89776830D01*
X127769250Y-89807194D01*
X127719457Y-89848057D01*
X127678594Y-89897850D01*
X127648230Y-89954657D01*
X127629532Y-90016297D01*
X127623218Y-90080400D01*
X126644407Y-90080400D01*
X126644614Y-85508400D01*
X127623218Y-85508400D01*
X127623218Y-87008400D01*
X127629532Y-87072503D01*
X127648230Y-87134143D01*
X127678594Y-87190950D01*
X127719457Y-87240743D01*
X127769250Y-87281606D01*
X127826057Y-87311970D01*
X127887697Y-87330668D01*
X127951800Y-87336982D01*
X129451800Y-87336982D01*
X129515903Y-87330668D01*
X129577543Y-87311970D01*
X129634350Y-87281606D01*
X129684143Y-87240743D01*
X129725006Y-87190950D01*
X129755370Y-87134143D01*
X129774068Y-87072503D01*
X129780382Y-87008400D01*
X129780382Y-86884005D01*
X130989232Y-88092856D01*
X130984605Y-88092400D01*
X130962400Y-88090213D01*
X130940195Y-88092400D01*
X129780382Y-88092400D01*
X129780382Y-87794400D01*
X129774068Y-87730297D01*
X129755370Y-87668657D01*
X129725006Y-87611850D01*
X129684143Y-87562057D01*
X129634350Y-87521194D01*
X129577543Y-87490830D01*
X129515903Y-87472132D01*
X129451800Y-87465818D01*
X127951800Y-87465818D01*
X127887697Y-87472132D01*
X127826057Y-87490830D01*
X127769250Y-87521194D01*
X127719457Y-87562057D01*
X127678594Y-87611850D01*
X127648230Y-87668657D01*
X127629532Y-87730297D01*
X127623218Y-87794400D01*
X127623218Y-89294400D01*
X127629532Y-89358503D01*
X127648230Y-89420143D01*
X127678594Y-89476950D01*
X127719457Y-89526743D01*
X127769250Y-89567606D01*
X127826057Y-89597970D01*
X127887697Y-89616668D01*
X127951800Y-89622982D01*
X129451800Y-89622982D01*
X129515903Y-89616668D01*
X129577543Y-89597970D01*
X129634350Y-89567606D01*
X129684143Y-89526743D01*
X129725006Y-89476950D01*
X129755370Y-89420143D01*
X129774068Y-89358503D01*
X129780382Y-89294400D01*
X129780382Y-88996400D01*
X130775177Y-88996400D01*
X132928482Y-91149706D01*
X132942642Y-91166960D01*
X133011468Y-91223444D01*
X133089991Y-91265415D01*
X133175193Y-91291261D01*
X133263801Y-91299988D01*
X133286006Y-91297801D01*
X140087525Y-91297801D01*
X140062295Y-91358711D01*
X140038200Y-91479846D01*
X140038200Y-91603354D01*
X140062295Y-91724489D01*
X140109560Y-91838596D01*
X140178177Y-91941289D01*
X140265511Y-92028623D01*
X140368204Y-92097240D01*
X140482311Y-92144505D01*
X140603446Y-92168600D01*
X140652977Y-92168600D01*
X141338691Y-92854315D01*
X141352851Y-92871569D01*
X141421677Y-92928053D01*
X141500200Y-92970024D01*
X141585402Y-92995870D01*
X141674010Y-93004597D01*
X141696215Y-93002410D01*
X153754987Y-93002410D01*
X155379800Y-94627225D01*
X155379800Y-94676754D01*
X155403895Y-94797889D01*
X155451160Y-94911996D01*
X155519777Y-95014689D01*
X155564588Y-95059500D01*
X155494377Y-95129711D01*
X155425760Y-95232404D01*
X155378495Y-95346511D01*
X155354400Y-95467646D01*
X155354400Y-95591154D01*
X155378495Y-95712289D01*
X155425760Y-95826396D01*
X155494377Y-95929089D01*
X155581711Y-96016423D01*
X155684404Y-96085040D01*
X155798511Y-96132305D01*
X155919646Y-96156400D01*
X156043154Y-96156400D01*
X156164289Y-96132305D01*
X156278396Y-96085040D01*
X156381089Y-96016423D01*
X156468423Y-95929089D01*
X156537040Y-95826396D01*
X156584305Y-95712289D01*
X156608400Y-95591154D01*
X156608400Y-95467646D01*
X156584305Y-95346511D01*
X156537040Y-95232404D01*
X156468423Y-95129711D01*
X156423612Y-95084900D01*
X156493823Y-95014689D01*
X156562440Y-94911996D01*
X156609705Y-94797889D01*
X156633800Y-94676754D01*
X156633800Y-94553246D01*
X156609705Y-94432111D01*
X156562440Y-94318004D01*
X156493823Y-94215311D01*
X156406489Y-94127977D01*
X156303796Y-94059360D01*
X156189689Y-94012095D01*
X156068554Y-93988000D01*
X156019025Y-93988000D01*
X154583423Y-92552400D01*
X155108377Y-92552400D01*
X155379800Y-92823824D01*
X155379800Y-92873354D01*
X155403895Y-92994489D01*
X155451160Y-93108596D01*
X155519777Y-93211289D01*
X155607111Y-93298623D01*
X155709804Y-93367240D01*
X155823911Y-93414505D01*
X155945046Y-93438600D01*
X156068554Y-93438600D01*
X156189689Y-93414505D01*
X156303796Y-93367240D01*
X156406489Y-93298623D01*
X156493823Y-93211289D01*
X156562440Y-93108596D01*
X156609705Y-92994489D01*
X156633800Y-92873354D01*
X156633800Y-92749846D01*
X156609705Y-92628711D01*
X156562440Y-92514604D01*
X156493823Y-92411911D01*
X156406489Y-92324577D01*
X156303796Y-92255960D01*
X156189689Y-92208695D01*
X156068554Y-92184600D01*
X156019024Y-92184600D01*
X155630923Y-91796500D01*
X155616759Y-91779241D01*
X155547933Y-91722757D01*
X155469410Y-91680786D01*
X155384207Y-91654940D01*
X155317805Y-91648400D01*
X155295600Y-91646213D01*
X155273395Y-91648400D01*
X150995756Y-91648400D01*
X150983605Y-91587311D01*
X150936340Y-91473204D01*
X150867723Y-91370511D01*
X150780389Y-91283177D01*
X150677696Y-91214560D01*
X150563589Y-91167295D01*
X150442454Y-91143200D01*
X150392924Y-91143200D01*
X149791624Y-90541901D01*
X149777460Y-90524642D01*
X149708634Y-90468158D01*
X149630111Y-90426187D01*
X149544908Y-90400341D01*
X149478506Y-90393801D01*
X149456301Y-90391614D01*
X149434096Y-90393801D01*
X146934272Y-90393801D01*
X146956400Y-90282554D01*
X146956400Y-90159046D01*
X146932305Y-90037911D01*
X146885040Y-89923804D01*
X146816423Y-89821111D01*
X146729089Y-89733777D01*
X146626396Y-89665160D01*
X146512289Y-89617895D01*
X146391154Y-89593800D01*
X146341624Y-89593800D01*
X145154270Y-88406446D01*
X148623400Y-88406446D01*
X148623400Y-88529954D01*
X148647495Y-88651089D01*
X148694760Y-88765196D01*
X148763377Y-88867889D01*
X148808188Y-88912700D01*
X148763377Y-88957511D01*
X148694760Y-89060204D01*
X148647495Y-89174311D01*
X148623400Y-89295446D01*
X148623400Y-89418954D01*
X148647495Y-89540089D01*
X148694760Y-89654196D01*
X148763377Y-89756889D01*
X148850711Y-89844223D01*
X148953404Y-89912840D01*
X149067511Y-89960105D01*
X149188646Y-89984200D01*
X149312154Y-89984200D01*
X149433289Y-89960105D01*
X149547396Y-89912840D01*
X149650089Y-89844223D01*
X149737423Y-89756889D01*
X149806040Y-89654196D01*
X149853305Y-89540089D01*
X149877400Y-89418954D01*
X149877400Y-89295446D01*
X149853305Y-89174311D01*
X149806040Y-89060204D01*
X149737423Y-88957511D01*
X149692612Y-88912700D01*
X149737423Y-88867889D01*
X149806040Y-88765196D01*
X149853305Y-88651089D01*
X149877400Y-88529954D01*
X149877400Y-88406446D01*
X149853305Y-88285311D01*
X149806040Y-88171204D01*
X149737423Y-88068511D01*
X149650089Y-87981177D01*
X149612388Y-87955986D01*
X149675489Y-87913823D01*
X149762823Y-87826489D01*
X149831440Y-87723796D01*
X149878705Y-87609689D01*
X149902800Y-87488554D01*
X149902800Y-87365046D01*
X149878705Y-87243911D01*
X149831440Y-87129804D01*
X149762823Y-87027111D01*
X149675489Y-86939777D01*
X149572796Y-86871160D01*
X149458689Y-86823895D01*
X149337554Y-86799800D01*
X149214046Y-86799800D01*
X149092911Y-86823895D01*
X148978804Y-86871160D01*
X148876111Y-86939777D01*
X148788777Y-87027111D01*
X148720160Y-87129804D01*
X148672895Y-87243911D01*
X148648800Y-87365046D01*
X148648800Y-87488554D01*
X148672895Y-87609689D01*
X148720160Y-87723796D01*
X148788777Y-87826489D01*
X148876111Y-87913823D01*
X148913812Y-87939014D01*
X148850711Y-87981177D01*
X148763377Y-88068511D01*
X148694760Y-88171204D01*
X148647495Y-88285311D01*
X148623400Y-88406446D01*
X145154270Y-88406446D01*
X144007722Y-87259899D01*
X143993558Y-87242640D01*
X143924732Y-87186156D01*
X143846209Y-87144185D01*
X143761006Y-87118339D01*
X143694604Y-87111799D01*
X143672399Y-87109612D01*
X143650194Y-87111799D01*
X140895401Y-87111799D01*
X140873198Y-87109612D01*
X140850995Y-87111799D01*
X140850994Y-87111799D01*
X140784592Y-87118339D01*
X140699389Y-87144185D01*
X140620866Y-87186156D01*
X140552040Y-87242640D01*
X140537885Y-87259888D01*
X137853984Y-89943791D01*
X134118616Y-89943791D01*
X130129323Y-85954500D01*
X130115159Y-85937241D01*
X130046333Y-85880757D01*
X129967810Y-85838786D01*
X129882607Y-85812940D01*
X129816205Y-85806400D01*
X129794000Y-85804213D01*
X129780382Y-85805554D01*
X129780382Y-85508400D01*
X129774068Y-85444297D01*
X129755370Y-85382657D01*
X129725006Y-85325850D01*
X129684143Y-85276057D01*
X129634350Y-85235194D01*
X129577543Y-85204830D01*
X129515903Y-85186132D01*
X129451800Y-85179818D01*
X127951800Y-85179818D01*
X127887697Y-85186132D01*
X127826057Y-85204830D01*
X127769250Y-85235194D01*
X127719457Y-85276057D01*
X127678594Y-85325850D01*
X127648230Y-85382657D01*
X127629532Y-85444297D01*
X127623218Y-85508400D01*
X126644614Y-85508400D01*
X126644668Y-84327233D01*
X127623218Y-84322307D01*
X127623218Y-84722400D01*
X127629532Y-84786503D01*
X127648230Y-84848143D01*
X127678594Y-84904950D01*
X127719457Y-84954743D01*
X127769250Y-84995606D01*
X127826057Y-85025970D01*
X127887697Y-85044668D01*
X127951800Y-85050982D01*
X129451800Y-85050982D01*
X129515903Y-85044668D01*
X129577543Y-85025970D01*
X129634350Y-84995606D01*
X129684143Y-84954743D01*
X129725006Y-84904950D01*
X129755370Y-84848143D01*
X129774068Y-84786503D01*
X129780382Y-84722400D01*
X129780382Y-84311449D01*
X141631039Y-84251798D01*
X141655803Y-84249233D01*
X141679591Y-84241887D01*
X141701488Y-84230040D01*
X141720653Y-84214149D01*
X141736350Y-84194825D01*
X141747976Y-84172810D01*
X141755083Y-84148949D01*
X141757398Y-84125465D01*
X141761182Y-83402646D01*
X149182200Y-83402646D01*
X149182200Y-83526154D01*
X149206295Y-83647289D01*
X149253560Y-83761396D01*
X149322177Y-83864089D01*
X149409511Y-83951423D01*
X149512204Y-84020040D01*
X149626311Y-84067305D01*
X149747446Y-84091400D01*
X149870954Y-84091400D01*
X149992089Y-84067305D01*
X150106196Y-84020040D01*
X150208889Y-83951423D01*
X150296223Y-83864089D01*
X150364840Y-83761396D01*
X150412105Y-83647289D01*
X150436200Y-83526154D01*
X150436200Y-83402646D01*
X150412105Y-83281511D01*
X150364840Y-83167404D01*
X150296223Y-83064711D01*
X150208889Y-82977377D01*
X150106196Y-82908760D01*
X149992089Y-82861495D01*
X149870954Y-82837400D01*
X149747446Y-82837400D01*
X149626311Y-82861495D01*
X149512204Y-82908760D01*
X149409511Y-82977377D01*
X149322177Y-83064711D01*
X149253560Y-83167404D01*
X149206295Y-83281511D01*
X149182200Y-83402646D01*
X141761182Y-83402646D01*
X141763749Y-82912359D01*
X141853911Y-82949705D01*
X141975046Y-82973800D01*
X142098554Y-82973800D01*
X142219689Y-82949705D01*
X142333796Y-82902440D01*
X142436489Y-82833823D01*
X142523823Y-82746489D01*
X142592440Y-82643796D01*
X142639705Y-82529689D01*
X142663800Y-82408554D01*
X142663800Y-82285046D01*
X142653696Y-82234246D01*
X153906600Y-82234246D01*
X153906600Y-82357754D01*
X153930695Y-82478889D01*
X153977960Y-82592996D01*
X154046577Y-82695689D01*
X154133911Y-82783023D01*
X154236604Y-82851640D01*
X154350711Y-82898905D01*
X154471846Y-82923000D01*
X154595354Y-82923000D01*
X154716489Y-82898905D01*
X154830596Y-82851640D01*
X154933289Y-82783023D01*
X155020623Y-82695689D01*
X155089240Y-82592996D01*
X155136505Y-82478889D01*
X155160600Y-82357754D01*
X155160600Y-82237200D01*
X155255754Y-82237200D01*
X155376889Y-82213105D01*
X155490996Y-82165840D01*
X155593689Y-82097223D01*
X155681023Y-82009889D01*
X155749640Y-81907196D01*
X155796905Y-81793089D01*
X155821000Y-81671954D01*
X155821000Y-81548446D01*
X155796905Y-81427311D01*
X155749640Y-81313204D01*
X155681023Y-81210511D01*
X155593689Y-81123177D01*
X155490996Y-81054560D01*
X155376889Y-81007295D01*
X155255754Y-80983200D01*
X155132246Y-80983200D01*
X155011111Y-81007295D01*
X154897004Y-81054560D01*
X154794311Y-81123177D01*
X154706977Y-81210511D01*
X154638360Y-81313204D01*
X154591095Y-81427311D01*
X154567000Y-81548446D01*
X154567000Y-81669000D01*
X154471846Y-81669000D01*
X154350711Y-81693095D01*
X154236604Y-81740360D01*
X154133911Y-81808977D01*
X154046577Y-81896311D01*
X153977960Y-81999004D01*
X153930695Y-82113111D01*
X153906600Y-82234246D01*
X142653696Y-82234246D01*
X142639705Y-82163911D01*
X142592440Y-82049804D01*
X142523823Y-81947111D01*
X142436489Y-81859777D01*
X142333796Y-81791160D01*
X142219689Y-81743895D01*
X142108627Y-81721804D01*
X142131705Y-81666089D01*
X142155800Y-81544954D01*
X142155800Y-81421446D01*
X148877400Y-81421446D01*
X148877400Y-81544954D01*
X148901495Y-81666089D01*
X148948760Y-81780196D01*
X149017377Y-81882889D01*
X149104711Y-81970223D01*
X149207404Y-82038840D01*
X149321511Y-82086105D01*
X149442646Y-82110200D01*
X149566154Y-82110200D01*
X149687289Y-82086105D01*
X149801396Y-82038840D01*
X149904089Y-81970223D01*
X149991423Y-81882889D01*
X150060040Y-81780196D01*
X150107305Y-81666089D01*
X150131400Y-81544954D01*
X150131400Y-81421446D01*
X150107305Y-81300311D01*
X150060040Y-81186204D01*
X149991423Y-81083511D01*
X149904089Y-80996177D01*
X149801396Y-80927560D01*
X149687289Y-80880295D01*
X149566154Y-80856200D01*
X149442646Y-80856200D01*
X149321511Y-80880295D01*
X149207404Y-80927560D01*
X149104711Y-80996177D01*
X149017377Y-81083511D01*
X148948760Y-81186204D01*
X148901495Y-81300311D01*
X148877400Y-81421446D01*
X142155800Y-81421446D01*
X142131705Y-81300311D01*
X142084440Y-81186204D01*
X142015823Y-81083511D01*
X141928489Y-80996177D01*
X141825796Y-80927560D01*
X141774253Y-80906210D01*
X141798551Y-76265246D01*
X152484200Y-76265246D01*
X152484200Y-76388754D01*
X152508295Y-76509889D01*
X152555560Y-76623996D01*
X152624177Y-76726689D01*
X152711511Y-76814023D01*
X152814204Y-76882640D01*
X152928311Y-76929905D01*
X153049446Y-76954000D01*
X153172954Y-76954000D01*
X153294089Y-76929905D01*
X153408196Y-76882640D01*
X153510889Y-76814023D01*
X153598223Y-76726689D01*
X153666840Y-76623996D01*
X153714105Y-76509889D01*
X153738200Y-76388754D01*
X153738200Y-76265246D01*
X153714105Y-76144111D01*
X153666840Y-76030004D01*
X153598223Y-75927311D01*
X153510889Y-75839977D01*
X153408196Y-75771360D01*
X153294089Y-75724095D01*
X153172954Y-75700000D01*
X153049446Y-75700000D01*
X152928311Y-75724095D01*
X152814204Y-75771360D01*
X152711511Y-75839977D01*
X152624177Y-75927311D01*
X152555560Y-76030004D01*
X152508295Y-76144111D01*
X152484200Y-76265246D01*
X141798551Y-76265246D01*
X141801923Y-75621174D01*
X155309200Y-75621174D01*
X155309200Y-75813626D01*
X155346746Y-76002380D01*
X155420394Y-76180183D01*
X155527315Y-76340201D01*
X155663399Y-76476285D01*
X155823417Y-76583206D01*
X156001220Y-76656854D01*
X156189974Y-76694400D01*
X156382426Y-76694400D01*
X156571180Y-76656854D01*
X156748983Y-76583206D01*
X156909001Y-76476285D01*
X157045085Y-76340201D01*
X157152006Y-76180183D01*
X157225654Y-76002380D01*
X157263200Y-75813626D01*
X157263200Y-75621174D01*
X157225654Y-75432420D01*
X157152006Y-75254617D01*
X157045085Y-75094599D01*
X156909001Y-74958515D01*
X156748983Y-74851594D01*
X156571180Y-74777946D01*
X156382426Y-74740400D01*
X156189974Y-74740400D01*
X156001220Y-74777946D01*
X155823417Y-74851594D01*
X155663399Y-74958515D01*
X155527315Y-75094599D01*
X155420394Y-75254617D01*
X155346746Y-75432420D01*
X155309200Y-75621174D01*
X141801923Y-75621174D01*
X141807406Y-74574000D01*
X156280962Y-74574000D01*
X156281212Y-74573975D01*
X156503141Y-74595736D01*
G36*
X145702400Y-90233024D02*
G01*
X145702400Y-90282554D01*
X145724528Y-90393801D01*
X143708472Y-90393801D01*
X143730600Y-90282554D01*
X143730600Y-90159046D01*
X143706505Y-90037911D01*
X143659240Y-89923804D01*
X143590623Y-89821111D01*
X143503289Y-89733777D01*
X143400596Y-89665160D01*
X143286489Y-89617895D01*
X143165354Y-89593800D01*
X143041846Y-89593800D01*
X142920711Y-89617895D01*
X142806604Y-89665160D01*
X142703911Y-89733777D01*
X142616577Y-89821111D01*
X142554740Y-89913656D01*
X142562200Y-89876154D01*
X142562200Y-89752646D01*
X142538105Y-89631511D01*
X142490840Y-89517404D01*
X142422223Y-89414711D01*
X142334889Y-89327377D01*
X142232196Y-89258760D01*
X142118089Y-89211495D01*
X141996954Y-89187400D01*
X141873446Y-89187400D01*
X141782013Y-89205587D01*
X141800200Y-89114154D01*
X141800200Y-88990646D01*
X141776105Y-88869511D01*
X141728840Y-88755404D01*
X141660223Y-88652711D01*
X141628112Y-88620600D01*
X141660223Y-88588489D01*
X141728840Y-88485796D01*
X141776105Y-88371689D01*
X141800200Y-88250554D01*
X141800200Y-88127046D01*
X141778072Y-88015799D01*
X143485176Y-88015799D01*
X145702400Y-90233024D01*
G37*
X145702400Y-90233024D02*
X145702400Y-90282554D01*
X145724528Y-90393801D01*
X143708472Y-90393801D01*
X143730600Y-90282554D01*
X143730600Y-90159046D01*
X143706505Y-90037911D01*
X143659240Y-89923804D01*
X143590623Y-89821111D01*
X143503289Y-89733777D01*
X143400596Y-89665160D01*
X143286489Y-89617895D01*
X143165354Y-89593800D01*
X143041846Y-89593800D01*
X142920711Y-89617895D01*
X142806604Y-89665160D01*
X142703911Y-89733777D01*
X142616577Y-89821111D01*
X142554740Y-89913656D01*
X142562200Y-89876154D01*
X142562200Y-89752646D01*
X142538105Y-89631511D01*
X142490840Y-89517404D01*
X142422223Y-89414711D01*
X142334889Y-89327377D01*
X142232196Y-89258760D01*
X142118089Y-89211495D01*
X141996954Y-89187400D01*
X141873446Y-89187400D01*
X141782013Y-89205587D01*
X141800200Y-89114154D01*
X141800200Y-88990646D01*
X141776105Y-88869511D01*
X141728840Y-88755404D01*
X141660223Y-88652711D01*
X141628112Y-88620600D01*
X141660223Y-88588489D01*
X141728840Y-88485796D01*
X141776105Y-88371689D01*
X141800200Y-88250554D01*
X141800200Y-88127046D01*
X141778072Y-88015799D01*
X143485176Y-88015799D01*
X145702400Y-90233024D01*
%TD*%
M02*
