%TF.GenerationSoftware,KiCad,Pcbnew,(5.1.6)-1*%
%TF.CreationDate,2020-11-03T21:48:33+01:00*%
%TF.ProjectId,ArduinoProMicroUSB,41726475-696e-46f5-9072-6f4d6963726f,rev?*%
%TF.SameCoordinates,Original*%
%TF.FileFunction,Legend,Top*%
%TF.FilePolarity,Positive*%
%FSLAX46Y46*%
G04 Gerber Fmt 4.6, Leading zero omitted, Abs format (unit mm)*
G04 Created by KiCad (PCBNEW (5.1.6)-1) date 2020-11-03 21:48:33*
%MOMM*%
%LPD*%
G01*
G04 APERTURE LIST*
%ADD10C,0.125000*%
%ADD11C,0.100000*%
%ADD12C,0.200000*%
%ADD13C,0.127000*%
%ADD14C,0.050000*%
%ADD15C,0.150000*%
%ADD16C,0.250000*%
%ADD17C,0.304800*%
%ADD18C,0.066040*%
%ADD19C,0.120000*%
%ADD20C,0.203200*%
%ADD21C,0.254000*%
%ADD22C,0.050800*%
G04 APERTURE END LIST*
D10*
X88512642Y-88760523D02*
X88512642Y-88493857D01*
X88093595Y-88493857D02*
X88893595Y-88493857D01*
X88893595Y-88874809D01*
X88093595Y-89560523D02*
X88093595Y-89179571D01*
X88893595Y-89179571D01*
X88893595Y-89827190D02*
X88245976Y-89827190D01*
X88169785Y-89865285D01*
X88131690Y-89903380D01*
X88093595Y-89979571D01*
X88093595Y-90131952D01*
X88131690Y-90208142D01*
X88169785Y-90246238D01*
X88245976Y-90284333D01*
X88893595Y-90284333D01*
X88093595Y-90665285D02*
X88893595Y-90665285D01*
X88893595Y-90855761D01*
X88855500Y-90970047D01*
X88779309Y-91046238D01*
X88703119Y-91084333D01*
X88550738Y-91122428D01*
X88436452Y-91122428D01*
X88284071Y-91084333D01*
X88207880Y-91046238D01*
X88131690Y-90970047D01*
X88093595Y-90855761D01*
X88093595Y-90665285D01*
X88512642Y-91465285D02*
X88512642Y-91731952D01*
X88093595Y-91846238D02*
X88093595Y-91465285D01*
X88893595Y-91465285D01*
X88893595Y-91846238D01*
X88093595Y-92646238D02*
X88474547Y-92379571D01*
X88093595Y-92189095D02*
X88893595Y-92189095D01*
X88893595Y-92493857D01*
X88855500Y-92570047D01*
X88817404Y-92608142D01*
X88741214Y-92646238D01*
X88626928Y-92646238D01*
X88550738Y-92608142D01*
X88512642Y-92570047D01*
X88474547Y-92493857D01*
X88474547Y-92189095D01*
X102755738Y-72891642D02*
X103365261Y-72891642D01*
X96716857Y-72529738D02*
X96716857Y-73139261D01*
X96412095Y-72834500D02*
X97021619Y-72834500D01*
D11*
X88038809Y-93257714D02*
X88038809Y-92972000D01*
X88038809Y-93114857D02*
X88538809Y-93114857D01*
X88467380Y-93067238D01*
X88419761Y-93019619D01*
X88395952Y-92972000D01*
X88086428Y-93472000D02*
X88062619Y-93495809D01*
X88038809Y-93472000D01*
X88062619Y-93448190D01*
X88086428Y-93472000D01*
X88038809Y-93472000D01*
X88538809Y-93805333D02*
X88538809Y-93852952D01*
X88515000Y-93900571D01*
X88491190Y-93924380D01*
X88443571Y-93948190D01*
X88348333Y-93972000D01*
X88229285Y-93972000D01*
X88134047Y-93948190D01*
X88086428Y-93924380D01*
X88062619Y-93900571D01*
X88038809Y-93852952D01*
X88038809Y-93805333D01*
X88062619Y-93757714D01*
X88086428Y-93733904D01*
X88134047Y-93710095D01*
X88229285Y-93686285D01*
X88348333Y-93686285D01*
X88443571Y-93710095D01*
X88491190Y-93733904D01*
X88515000Y-93757714D01*
X88538809Y-93805333D01*
D10*
X88258666Y-74511142D02*
X88258666Y-74892095D01*
X88030095Y-74434952D02*
X88830095Y-74701619D01*
X88030095Y-74968285D01*
X88030095Y-75234952D02*
X88830095Y-75234952D01*
X88830095Y-75425428D01*
X88792000Y-75539714D01*
X88715809Y-75615904D01*
X88639619Y-75654000D01*
X88487238Y-75692095D01*
X88372952Y-75692095D01*
X88220571Y-75654000D01*
X88144380Y-75615904D01*
X88068190Y-75539714D01*
X88030095Y-75425428D01*
X88030095Y-75234952D01*
X88030095Y-76492095D02*
X88411047Y-76225428D01*
X88030095Y-76034952D02*
X88830095Y-76034952D01*
X88830095Y-76339714D01*
X88792000Y-76415904D01*
X88753904Y-76454000D01*
X88677714Y-76492095D01*
X88563428Y-76492095D01*
X88487238Y-76454000D01*
X88449142Y-76415904D01*
X88411047Y-76339714D01*
X88411047Y-76034952D01*
X88030095Y-76834952D02*
X88830095Y-76834952D01*
X88258666Y-77177809D02*
X88258666Y-77558761D01*
X88030095Y-77101619D02*
X88830095Y-77368285D01*
X88030095Y-77634952D01*
X88030095Y-77901619D02*
X88830095Y-77901619D01*
X88030095Y-78358761D01*
X88830095Y-78358761D01*
D12*
%TO.C,U5*%
X102806900Y-78132300D02*
G75*
G03*
X102806900Y-78132300I-100000J0D01*
G01*
D13*
X110776900Y-84132300D02*
X110226900Y-84132300D01*
X110776900Y-77132300D02*
X110226900Y-77132300D01*
X103776900Y-84132300D02*
X104326900Y-84132300D01*
X103776900Y-77132300D02*
X104326900Y-77132300D01*
X110776900Y-84132300D02*
X110776900Y-83582300D01*
X110776900Y-77132300D02*
X110776900Y-77682300D01*
X103776900Y-84132300D02*
X103776900Y-83582300D01*
X103776900Y-77132300D02*
X103776900Y-77682300D01*
D14*
X103161900Y-84747300D02*
X111391900Y-84747300D01*
X103161900Y-76517300D02*
X111391900Y-76517300D01*
X103161900Y-84747300D02*
X103161900Y-76517300D01*
X111391900Y-84747300D02*
X111391900Y-76517300D01*
D12*
%TO.C,U4*%
X94430500Y-83260500D02*
G75*
G03*
X94430500Y-83260500I-100000J0D01*
G01*
D13*
X95325500Y-82805500D02*
X96825500Y-82805500D01*
X95325500Y-85215500D02*
X96825500Y-85215500D01*
D14*
%TO.C,U1*%
X114788000Y-86288000D02*
X112288000Y-86288000D01*
X112288000Y-86288000D02*
X112288000Y-89988000D01*
X112288000Y-89988000D02*
X114788000Y-89988000D01*
X114788000Y-89988000D02*
X114788000Y-86288000D01*
D12*
X112138000Y-86788000D02*
G75*
G03*
X112138000Y-86788000I-100000J0D01*
G01*
D15*
%TO.C,SW1*%
X113806500Y-97473500D02*
X113806500Y-93623500D01*
X113806500Y-93623500D02*
X108316500Y-93623500D01*
X108316500Y-93623500D02*
X108316500Y-97473500D01*
X108316500Y-97473500D02*
X113806500Y-97473500D01*
X113061500Y-97223500D02*
X113061500Y-97448500D01*
X109061500Y-97448500D02*
X113061500Y-97448500D01*
X109061500Y-97223500D02*
X109061500Y-97448500D01*
D16*
X112736500Y-93098500D02*
G75*
G03*
X112736500Y-93098500I-125000J0D01*
G01*
D15*
%TO.C,SW4*%
X108316500Y-71246000D02*
X108316500Y-75096000D01*
X108316500Y-75096000D02*
X113806500Y-75096000D01*
X113806500Y-75096000D02*
X113806500Y-71246000D01*
X113806500Y-71246000D02*
X108316500Y-71246000D01*
X109061500Y-71496000D02*
X109061500Y-71271000D01*
X113061500Y-71271000D02*
X109061500Y-71271000D01*
X113061500Y-71496000D02*
X113061500Y-71271000D01*
D16*
X109636500Y-75621000D02*
G75*
G03*
X109636500Y-75621000I-125000J0D01*
G01*
D15*
%TO.C,SW2*%
X90473000Y-71119000D02*
X90473000Y-74969000D01*
X90473000Y-74969000D02*
X95963000Y-74969000D01*
X95963000Y-74969000D02*
X95963000Y-71119000D01*
X95963000Y-71119000D02*
X90473000Y-71119000D01*
X91218000Y-71369000D02*
X91218000Y-71144000D01*
X95218000Y-71144000D02*
X91218000Y-71144000D01*
X95218000Y-71369000D02*
X95218000Y-71144000D01*
D16*
X91793000Y-75494000D02*
G75*
G03*
X91793000Y-75494000I-125000J0D01*
G01*
D17*
%TO.C,U3*%
X87457280Y-87436960D02*
X86456520Y-87436960D01*
X87457280Y-79441040D02*
X86456520Y-79441040D01*
X91455240Y-87436960D02*
X91455240Y-86438740D01*
X90454480Y-87436960D02*
X91455240Y-87436960D01*
X91455240Y-79441040D02*
X91455240Y-80439260D01*
X90454480Y-79446120D02*
X90454480Y-79441040D01*
X91434920Y-79446120D02*
X90454480Y-79446120D01*
D18*
X87607140Y-84787740D02*
X87607140Y-82090260D01*
X87607140Y-82090260D02*
X89303860Y-82090260D01*
X89303860Y-84787740D02*
X89303860Y-82090260D01*
X87607140Y-84787740D02*
X89303860Y-84787740D01*
X87607140Y-88122760D02*
X87607140Y-86121240D01*
X87607140Y-86121240D02*
X89303860Y-86121240D01*
X89303860Y-88122760D02*
X89303860Y-86121240D01*
X87607140Y-88122760D02*
X89303860Y-88122760D01*
X87607140Y-80756760D02*
X87607140Y-78755240D01*
X87607140Y-78755240D02*
X89303860Y-78755240D01*
X89303860Y-80756760D02*
X89303860Y-78755240D01*
X87607140Y-80756760D02*
X89303860Y-80756760D01*
X87706200Y-88021160D02*
X87706200Y-86222840D01*
X87706200Y-86222840D02*
X89204800Y-86222840D01*
X89204800Y-88021160D02*
X89204800Y-86222840D01*
X87706200Y-88021160D02*
X89204800Y-88021160D01*
X88107520Y-84188300D02*
X88107520Y-82689700D01*
X88107520Y-82689700D02*
X88803480Y-82689700D01*
X88803480Y-84188300D02*
X88803480Y-82689700D01*
X88107520Y-84188300D02*
X88803480Y-84188300D01*
X87706200Y-80655160D02*
X87706200Y-78856840D01*
X87706200Y-78856840D02*
X89204800Y-78856840D01*
X89204800Y-80655160D02*
X89204800Y-78856840D01*
X87706200Y-80655160D02*
X89204800Y-80655160D01*
D19*
%TO.C,D3*%
X100871940Y-88430000D02*
X100871940Y-86145000D01*
X100871940Y-86145000D02*
X99401940Y-86145000D01*
X99401940Y-86145000D02*
X99401940Y-88430000D01*
%TO.C,D2*%
X101627000Y-88481000D02*
X101627000Y-90766000D01*
X101627000Y-90766000D02*
X103097000Y-90766000D01*
X103097000Y-90766000D02*
X103097000Y-88481000D01*
D20*
%TO.C,J1*%
X97980500Y-71564500D02*
X99250500Y-71564500D01*
X99250500Y-71564500D02*
X99885500Y-72199500D01*
X99885500Y-73469500D02*
X99250500Y-74104500D01*
X99885500Y-72199500D02*
X100520500Y-71564500D01*
X100520500Y-71564500D02*
X101790500Y-71564500D01*
X101790500Y-71564500D02*
X102425500Y-72199500D01*
X102425500Y-73469500D02*
X101790500Y-74104500D01*
X101790500Y-74104500D02*
X100520500Y-74104500D01*
X100520500Y-74104500D02*
X99885500Y-73469500D01*
X97345500Y-72199500D02*
X97345500Y-73469500D01*
X97980500Y-71564500D02*
X97345500Y-72199500D01*
X97345500Y-73469500D02*
X97980500Y-74104500D01*
X99250500Y-74104500D02*
X97980500Y-74104500D01*
X102425500Y-72199500D02*
X102425500Y-73469500D01*
D13*
%TO.C,D4*%
X97978300Y-80540100D02*
G75*
G03*
X97978300Y-80540100I-50000J0D01*
G01*
D20*
%TO.C,Q1*%
X100040440Y-90297000D02*
X99438460Y-90297000D01*
X99438460Y-90297000D02*
X99438460Y-91094560D01*
X101635560Y-90297000D02*
X102237540Y-90297000D01*
X102237540Y-90297000D02*
X102237540Y-91094560D01*
D19*
%TO.C,SS*%
X97280500Y-96331000D02*
X97280500Y-94931000D01*
X98680500Y-96331000D02*
X97280500Y-96331000D01*
X98680500Y-94931000D02*
X98680500Y-96331000D01*
X97280500Y-94931000D02*
X98680500Y-94931000D01*
%TO.C,MOSI*%
X101471500Y-94931000D02*
X102871500Y-94931000D01*
X102871500Y-94931000D02*
X102871500Y-96331000D01*
X102871500Y-96331000D02*
X101471500Y-96331000D01*
X101471500Y-96331000D02*
X101471500Y-94931000D01*
%TO.C,SCK*%
X99376000Y-94931000D02*
X100776000Y-94931000D01*
X100776000Y-94931000D02*
X100776000Y-96331000D01*
X100776000Y-96331000D02*
X99376000Y-96331000D01*
X99376000Y-96331000D02*
X99376000Y-94931000D01*
%TO.C,GND*%
X105726000Y-94931000D02*
X107126000Y-94931000D01*
X107126000Y-94931000D02*
X107126000Y-96331000D01*
X107126000Y-96331000D02*
X105726000Y-96331000D01*
X105726000Y-96331000D02*
X105726000Y-94931000D01*
%TO.C,VCC*%
X103630500Y-94931000D02*
X105030500Y-94931000D01*
X105030500Y-94931000D02*
X105030500Y-96331000D01*
X105030500Y-96331000D02*
X103630500Y-96331000D01*
X103630500Y-96331000D02*
X103630500Y-94931000D01*
D21*
%TO.C,Y1*%
X105029000Y-91059000D02*
G75*
G03*
X105029000Y-91059000I-127000J0D01*
G01*
D20*
X107350560Y-87200740D02*
X108549440Y-87200740D01*
X110548420Y-88600280D02*
X110548420Y-89199720D01*
X108549440Y-90599260D02*
X107350560Y-90599260D01*
X105351580Y-88600280D02*
X105351580Y-89199720D01*
D16*
%TO.C,SW3*%
X94893000Y-93111200D02*
G75*
G03*
X94893000Y-93111200I-125000J0D01*
G01*
D15*
X91218000Y-97236200D02*
X91218000Y-97461200D01*
X91218000Y-97461200D02*
X95218000Y-97461200D01*
X95218000Y-97236200D02*
X95218000Y-97461200D01*
X90473000Y-97486200D02*
X95963000Y-97486200D01*
X90473000Y-93636200D02*
X90473000Y-97486200D01*
X95963000Y-93636200D02*
X90473000Y-93636200D01*
X95963000Y-97486200D02*
X95963000Y-93636200D01*
D18*
%TO.C,C1*%
X113355120Y-90568780D02*
X112958880Y-90568780D01*
X112958880Y-90568780D02*
X112958880Y-91168220D01*
X113355120Y-91168220D02*
X112958880Y-91168220D01*
X113355120Y-90568780D02*
X113355120Y-91168220D01*
D22*
X114754660Y-91567000D02*
X111559340Y-91567000D01*
X111559340Y-91567000D02*
X111559340Y-90170000D01*
X111559340Y-90170000D02*
X114754660Y-90170000D01*
X114754660Y-90170000D02*
X114754660Y-91567000D01*
%TO.C,C2*%
X110944660Y-91440000D02*
X110944660Y-92837000D01*
X107749340Y-91440000D02*
X110944660Y-91440000D01*
X107749340Y-92837000D02*
X107749340Y-91440000D01*
X110944660Y-92837000D02*
X107749340Y-92837000D01*
D18*
X109545120Y-91838780D02*
X109545120Y-92438220D01*
X109545120Y-92438220D02*
X109148880Y-92438220D01*
X109148880Y-91838780D02*
X109148880Y-92438220D01*
X109545120Y-91838780D02*
X109148880Y-91838780D01*
D22*
%TO.C,C5*%
X108003340Y-86804500D02*
X108003340Y-85407500D01*
X111198660Y-86804500D02*
X108003340Y-86804500D01*
X111198660Y-85407500D02*
X111198660Y-86804500D01*
X108003340Y-85407500D02*
X111198660Y-85407500D01*
D18*
X109402880Y-86405720D02*
X109402880Y-85806280D01*
X109402880Y-85806280D02*
X109799120Y-85806280D01*
X109799120Y-86405720D02*
X109799120Y-85806280D01*
X109402880Y-86405720D02*
X109799120Y-86405720D01*
%TO.C,C6*%
X106497120Y-85806280D02*
X106100880Y-85806280D01*
X106100880Y-85806280D02*
X106100880Y-86405720D01*
X106497120Y-86405720D02*
X106100880Y-86405720D01*
X106497120Y-85806280D02*
X106497120Y-86405720D01*
D22*
X107896660Y-86804500D02*
X104701340Y-86804500D01*
X104701340Y-86804500D02*
X104701340Y-85407500D01*
X104701340Y-85407500D02*
X107896660Y-85407500D01*
X107896660Y-85407500D02*
X107896660Y-86804500D01*
D18*
%TO.C,C7*%
X93108780Y-90797380D02*
X93108780Y-91193620D01*
X93108780Y-91193620D02*
X93708220Y-91193620D01*
X93708220Y-90797380D02*
X93708220Y-91193620D01*
X93108780Y-90797380D02*
X93708220Y-90797380D01*
D22*
X94107000Y-89397840D02*
X94107000Y-92593160D01*
X94107000Y-92593160D02*
X92710000Y-92593160D01*
X92710000Y-92593160D02*
X92710000Y-89397840D01*
X92710000Y-89397840D02*
X94107000Y-89397840D01*
%TO.C,C9*%
X100764340Y-77988160D02*
X99367340Y-77988160D01*
X100764340Y-74792840D02*
X100764340Y-77988160D01*
X99367340Y-74792840D02*
X100764340Y-74792840D01*
X99367340Y-77988160D02*
X99367340Y-74792840D01*
D18*
X100365560Y-76588620D02*
X99766120Y-76588620D01*
X99766120Y-76588620D02*
X99766120Y-76192380D01*
X100365560Y-76192380D02*
X99766120Y-76192380D01*
X100365560Y-76588620D02*
X100365560Y-76192380D01*
%TO.C,C10*%
X104576880Y-75928220D02*
X104973120Y-75928220D01*
X104973120Y-75928220D02*
X104973120Y-75328780D01*
X104576880Y-75328780D02*
X104973120Y-75328780D01*
X104576880Y-75928220D02*
X104576880Y-75328780D01*
D22*
X103177340Y-74930000D02*
X106372660Y-74930000D01*
X106372660Y-74930000D02*
X106372660Y-76327000D01*
X106372660Y-76327000D02*
X103177340Y-76327000D01*
X103177340Y-76327000D02*
X103177340Y-74930000D01*
D18*
%TO.C,C11*%
X100766880Y-82151220D02*
X101163120Y-82151220D01*
X101163120Y-82151220D02*
X101163120Y-81551780D01*
X100766880Y-81551780D02*
X101163120Y-81551780D01*
X100766880Y-82151220D02*
X100766880Y-81551780D01*
D22*
X99367340Y-81153000D02*
X102562660Y-81153000D01*
X102562660Y-81153000D02*
X102562660Y-82550000D01*
X102562660Y-82550000D02*
X99367340Y-82550000D01*
X99367340Y-82550000D02*
X99367340Y-81153000D01*
%TO.C,C12*%
X102842060Y-82892900D02*
X102842060Y-84289900D01*
X99646740Y-82892900D02*
X102842060Y-82892900D01*
X99646740Y-84289900D02*
X99646740Y-82892900D01*
X102842060Y-84289900D02*
X99646740Y-84289900D01*
D18*
X101442520Y-83291680D02*
X101442520Y-83891120D01*
X101442520Y-83891120D02*
X101046280Y-83891120D01*
X101046280Y-83291680D02*
X101046280Y-83891120D01*
X101442520Y-83291680D02*
X101046280Y-83291680D01*
D22*
%TO.C,C14*%
X111559340Y-84201000D02*
X111559340Y-82804000D01*
X114754660Y-84201000D02*
X111559340Y-84201000D01*
X114754660Y-82804000D02*
X114754660Y-84201000D01*
X111559340Y-82804000D02*
X114754660Y-82804000D01*
D18*
X112958880Y-83802220D02*
X112958880Y-83202780D01*
X112958880Y-83202780D02*
X113355120Y-83202780D01*
X113355120Y-83802220D02*
X113355120Y-83202780D01*
X112958880Y-83802220D02*
X113355120Y-83802220D01*
D22*
%TO.C,C15*%
X111559340Y-82677000D02*
X111559340Y-81280000D01*
X114754660Y-82677000D02*
X111559340Y-82677000D01*
X114754660Y-81280000D02*
X114754660Y-82677000D01*
X111559340Y-81280000D02*
X114754660Y-81280000D01*
D18*
X112958880Y-82278220D02*
X112958880Y-81678780D01*
X112958880Y-81678780D02*
X113355120Y-81678780D01*
X113355120Y-82278220D02*
X113355120Y-81678780D01*
X112958880Y-82278220D02*
X113355120Y-82278220D01*
%TO.C,C16*%
X112958880Y-77515720D02*
X113355120Y-77515720D01*
X113355120Y-77515720D02*
X113355120Y-76916280D01*
X112958880Y-76916280D02*
X113355120Y-76916280D01*
X112958880Y-77515720D02*
X112958880Y-76916280D01*
D22*
X111559340Y-76517500D02*
X114754660Y-76517500D01*
X114754660Y-76517500D02*
X114754660Y-77914500D01*
X114754660Y-77914500D02*
X111559340Y-77914500D01*
X111559340Y-77914500D02*
X111559340Y-76517500D01*
D18*
%TO.C,C17*%
X94152720Y-83002120D02*
X94152720Y-82605880D01*
X94152720Y-82605880D02*
X93553280Y-82605880D01*
X93553280Y-83002120D02*
X93553280Y-82605880D01*
X94152720Y-83002120D02*
X93553280Y-83002120D01*
D22*
X93154500Y-84401660D02*
X93154500Y-81206340D01*
X93154500Y-81206340D02*
X94551500Y-81206340D01*
X94551500Y-81206340D02*
X94551500Y-84401660D01*
X94551500Y-84401660D02*
X93154500Y-84401660D01*
%TO.C,C18*%
X97863660Y-81216500D02*
X97863660Y-82613500D01*
X94668340Y-81216500D02*
X97863660Y-81216500D01*
X94668340Y-82613500D02*
X94668340Y-81216500D01*
X97863660Y-82613500D02*
X94668340Y-82613500D01*
D18*
X96464120Y-81615280D02*
X96464120Y-82214720D01*
X96464120Y-82214720D02*
X96067880Y-82214720D01*
X96067880Y-81615280D02*
X96067880Y-82214720D01*
X96464120Y-81615280D02*
X96067880Y-81615280D01*
D22*
%TO.C,L1*%
X99072700Y-85925660D02*
X97675700Y-85925660D01*
X99072700Y-82730340D02*
X99072700Y-85925660D01*
X97675700Y-82730340D02*
X99072700Y-82730340D01*
X97675700Y-85925660D02*
X97675700Y-82730340D01*
D18*
X98673920Y-84526120D02*
X98074480Y-84526120D01*
X98074480Y-84526120D02*
X98074480Y-84129880D01*
X98673920Y-84129880D02*
X98074480Y-84129880D01*
X98673920Y-84526120D02*
X98673920Y-84129880D01*
D22*
%TO.C,R1*%
X95694500Y-92580460D02*
X94297500Y-92580460D01*
X95694500Y-89385140D02*
X95694500Y-92580460D01*
X94297500Y-89385140D02*
X95694500Y-89385140D01*
X94297500Y-92580460D02*
X94297500Y-89385140D01*
D18*
X95295720Y-91180920D02*
X94696280Y-91180920D01*
X94696280Y-91180920D02*
X94696280Y-90784680D01*
X95295720Y-90784680D02*
X94696280Y-90784680D01*
X95295720Y-91180920D02*
X95295720Y-90784680D01*
D22*
%TO.C,R2*%
X93154500Y-84508340D02*
X94551500Y-84508340D01*
X93154500Y-87703660D02*
X93154500Y-84508340D01*
X94551500Y-87703660D02*
X93154500Y-87703660D01*
X94551500Y-84508340D02*
X94551500Y-87703660D01*
D18*
X93553280Y-85907880D02*
X94152720Y-85907880D01*
X94152720Y-85907880D02*
X94152720Y-86304120D01*
X93553280Y-86304120D02*
X94152720Y-86304120D01*
X93553280Y-85907880D02*
X93553280Y-86304120D01*
%TO.C,R3*%
X97073720Y-91193620D02*
X97073720Y-90797380D01*
X97073720Y-90797380D02*
X96474280Y-90797380D01*
X96474280Y-91193620D02*
X96474280Y-90797380D01*
X97073720Y-91193620D02*
X96474280Y-91193620D01*
D22*
X96075500Y-92593160D02*
X96075500Y-89397840D01*
X96075500Y-89397840D02*
X97472500Y-89397840D01*
X97472500Y-89397840D02*
X97472500Y-92593160D01*
X97472500Y-92593160D02*
X96075500Y-92593160D01*
%TO.C,R4*%
X104620060Y-86067900D02*
X104620060Y-87464900D01*
X101424740Y-86067900D02*
X104620060Y-86067900D01*
X101424740Y-87464900D02*
X101424740Y-86067900D01*
X104620060Y-87464900D02*
X101424740Y-87464900D01*
D18*
X103220520Y-86466680D02*
X103220520Y-87066120D01*
X103220520Y-87066120D02*
X102824280Y-87066120D01*
X102824280Y-86466680D02*
X102824280Y-87066120D01*
X103220520Y-86466680D02*
X102824280Y-86466680D01*
%TO.C,R5*%
X96387920Y-78478380D02*
X95991680Y-78478380D01*
X95991680Y-78478380D02*
X95991680Y-79077820D01*
X96387920Y-79077820D02*
X95991680Y-79077820D01*
X96387920Y-78478380D02*
X96387920Y-79077820D01*
D22*
X97787460Y-79476600D02*
X94592140Y-79476600D01*
X94592140Y-79476600D02*
X94592140Y-78079600D01*
X94592140Y-78079600D02*
X97787460Y-78079600D01*
X97787460Y-78079600D02*
X97787460Y-79476600D01*
%TO.C,R6*%
X104711500Y-90751660D02*
X103314500Y-90751660D01*
X104711500Y-87556340D02*
X104711500Y-90751660D01*
X103314500Y-87556340D02*
X104711500Y-87556340D01*
X103314500Y-90751660D02*
X103314500Y-87556340D01*
D18*
X104312720Y-89352120D02*
X103713280Y-89352120D01*
X103713280Y-89352120D02*
X103713280Y-88955880D01*
X104312720Y-88955880D02*
X103713280Y-88955880D01*
X104312720Y-89352120D02*
X104312720Y-88955880D01*
D22*
%TO.C,R7*%
X97787460Y-79641700D02*
X97787460Y-81038700D01*
X94592140Y-79641700D02*
X97787460Y-79641700D01*
X94592140Y-81038700D02*
X94592140Y-79641700D01*
X97787460Y-81038700D02*
X94592140Y-81038700D01*
D18*
X96387920Y-80040480D02*
X96387920Y-80639920D01*
X96387920Y-80639920D02*
X95991680Y-80639920D01*
X95991680Y-80040480D02*
X95991680Y-80639920D01*
X96387920Y-80040480D02*
X95991680Y-80040480D01*
%TO.C,R8*%
X98661220Y-91193620D02*
X98661220Y-90797380D01*
X98661220Y-90797380D02*
X98061780Y-90797380D01*
X98061780Y-91193620D02*
X98061780Y-90797380D01*
X98661220Y-91193620D02*
X98061780Y-91193620D01*
D22*
X97663000Y-92593160D02*
X97663000Y-89397840D01*
X97663000Y-89397840D02*
X99060000Y-89397840D01*
X99060000Y-89397840D02*
X99060000Y-92593160D01*
X99060000Y-92593160D02*
X97663000Y-92593160D01*
D18*
%TO.C,R9*%
X115933220Y-88082120D02*
X115933220Y-87685880D01*
X115933220Y-87685880D02*
X115333780Y-87685880D01*
X115333780Y-88082120D02*
X115333780Y-87685880D01*
X115933220Y-88082120D02*
X115333780Y-88082120D01*
D22*
X114935000Y-89481660D02*
X114935000Y-86286340D01*
X114935000Y-86286340D02*
X116332000Y-86286340D01*
X116332000Y-86286340D02*
X116332000Y-89481660D01*
X116332000Y-89481660D02*
X114935000Y-89481660D01*
D18*
%TO.C,R10*%
X95676720Y-87193120D02*
X95676720Y-86796880D01*
X95676720Y-86796880D02*
X95077280Y-86796880D01*
X95077280Y-87193120D02*
X95077280Y-86796880D01*
X95676720Y-87193120D02*
X95077280Y-87193120D01*
D22*
X94678500Y-88592660D02*
X94678500Y-85397340D01*
X94678500Y-85397340D02*
X96075500Y-85397340D01*
X96075500Y-85397340D02*
X96075500Y-88592660D01*
X96075500Y-88592660D02*
X94678500Y-88592660D01*
D18*
%TO.C,R11*%
X101442520Y-84917280D02*
X101046280Y-84917280D01*
X101046280Y-84917280D02*
X101046280Y-85516720D01*
X101442520Y-85516720D02*
X101046280Y-85516720D01*
X101442520Y-84917280D02*
X101442520Y-85516720D01*
D22*
X102842060Y-85915500D02*
X99646740Y-85915500D01*
X99646740Y-85915500D02*
X99646740Y-84518500D01*
X99646740Y-84518500D02*
X102842060Y-84518500D01*
X102842060Y-84518500D02*
X102842060Y-85915500D01*
%TO.C,R12*%
X101165660Y-74792840D02*
X102562660Y-74792840D01*
X101165660Y-77988160D02*
X101165660Y-74792840D01*
X102562660Y-77988160D02*
X101165660Y-77988160D01*
X102562660Y-74792840D02*
X102562660Y-77988160D01*
D18*
X101564440Y-76192380D02*
X102163880Y-76192380D01*
X102163880Y-76192380D02*
X102163880Y-76588620D01*
X101564440Y-76588620D02*
X102163880Y-76588620D01*
X101564440Y-76192380D02*
X101564440Y-76588620D01*
D22*
%TO.C,R13*%
X114754660Y-84645500D02*
X114754660Y-86042500D01*
X111559340Y-84645500D02*
X114754660Y-84645500D01*
X111559340Y-86042500D02*
X111559340Y-84645500D01*
X114754660Y-86042500D02*
X111559340Y-86042500D01*
D18*
X113355120Y-85044280D02*
X113355120Y-85643720D01*
X113355120Y-85643720D02*
X112958880Y-85643720D01*
X112958880Y-85044280D02*
X112958880Y-85643720D01*
X113355120Y-85044280D02*
X112958880Y-85044280D01*
D22*
%TO.C,R14*%
X114754660Y-79692500D02*
X114754660Y-81089500D01*
X111559340Y-79692500D02*
X114754660Y-79692500D01*
X111559340Y-81089500D02*
X111559340Y-79692500D01*
X114754660Y-81089500D02*
X111559340Y-81089500D01*
D18*
X113355120Y-80091280D02*
X113355120Y-80690720D01*
X113355120Y-80690720D02*
X112958880Y-80690720D01*
X112958880Y-80091280D02*
X112958880Y-80690720D01*
X113355120Y-80091280D02*
X112958880Y-80091280D01*
%TO.C,R15*%
X113355120Y-78503780D02*
X112958880Y-78503780D01*
X112958880Y-78503780D02*
X112958880Y-79103220D01*
X113355120Y-79103220D02*
X112958880Y-79103220D01*
X113355120Y-78503780D02*
X113355120Y-79103220D01*
D22*
X114754660Y-79502000D02*
X111559340Y-79502000D01*
X111559340Y-79502000D02*
X111559340Y-78105000D01*
X111559340Y-78105000D02*
X114754660Y-78105000D01*
X114754660Y-78105000D02*
X114754660Y-79502000D01*
%TO.C,R16*%
X96202500Y-85397340D02*
X97599500Y-85397340D01*
X96202500Y-88592660D02*
X96202500Y-85397340D01*
X97599500Y-88592660D02*
X96202500Y-88592660D01*
X97599500Y-85397340D02*
X97599500Y-88592660D01*
D18*
X96601280Y-86796880D02*
X97200720Y-86796880D01*
X97200720Y-86796880D02*
X97200720Y-87193120D01*
X96601280Y-87193120D02*
X97200720Y-87193120D01*
X96601280Y-86796880D02*
X96601280Y-87193120D01*
%TO.C,SS*%
D10*
X97599547Y-94461780D02*
X97670976Y-94485590D01*
X97790023Y-94485590D01*
X97837642Y-94461780D01*
X97861452Y-94437971D01*
X97885261Y-94390352D01*
X97885261Y-94342733D01*
X97861452Y-94295114D01*
X97837642Y-94271304D01*
X97790023Y-94247495D01*
X97694785Y-94223685D01*
X97647166Y-94199876D01*
X97623357Y-94176066D01*
X97599547Y-94128447D01*
X97599547Y-94080828D01*
X97623357Y-94033209D01*
X97647166Y-94009400D01*
X97694785Y-93985590D01*
X97813833Y-93985590D01*
X97885261Y-94009400D01*
X98075738Y-94461780D02*
X98147166Y-94485590D01*
X98266214Y-94485590D01*
X98313833Y-94461780D01*
X98337642Y-94437971D01*
X98361452Y-94390352D01*
X98361452Y-94342733D01*
X98337642Y-94295114D01*
X98313833Y-94271304D01*
X98266214Y-94247495D01*
X98170976Y-94223685D01*
X98123357Y-94199876D01*
X98099547Y-94176066D01*
X98075738Y-94128447D01*
X98075738Y-94080828D01*
X98099547Y-94033209D01*
X98123357Y-94009400D01*
X98170976Y-93985590D01*
X98290023Y-93985590D01*
X98361452Y-94009400D01*
%TO.C,MOSI*%
X101334985Y-94485590D02*
X101334985Y-93985590D01*
X101501652Y-94342733D01*
X101668319Y-93985590D01*
X101668319Y-94485590D01*
X102001652Y-93985590D02*
X102096890Y-93985590D01*
X102144509Y-94009400D01*
X102192128Y-94057019D01*
X102215938Y-94152257D01*
X102215938Y-94318923D01*
X102192128Y-94414161D01*
X102144509Y-94461780D01*
X102096890Y-94485590D01*
X102001652Y-94485590D01*
X101954033Y-94461780D01*
X101906414Y-94414161D01*
X101882604Y-94318923D01*
X101882604Y-94152257D01*
X101906414Y-94057019D01*
X101954033Y-94009400D01*
X102001652Y-93985590D01*
X102406414Y-94461780D02*
X102477842Y-94485590D01*
X102596890Y-94485590D01*
X102644509Y-94461780D01*
X102668319Y-94437971D01*
X102692128Y-94390352D01*
X102692128Y-94342733D01*
X102668319Y-94295114D01*
X102644509Y-94271304D01*
X102596890Y-94247495D01*
X102501652Y-94223685D01*
X102454033Y-94199876D01*
X102430223Y-94176066D01*
X102406414Y-94128447D01*
X102406414Y-94080828D01*
X102430223Y-94033209D01*
X102454033Y-94009400D01*
X102501652Y-93985590D01*
X102620700Y-93985590D01*
X102692128Y-94009400D01*
X102906414Y-94485590D02*
X102906414Y-93985590D01*
%TO.C,SCK*%
X99433142Y-94461780D02*
X99504571Y-94485590D01*
X99623619Y-94485590D01*
X99671238Y-94461780D01*
X99695047Y-94437971D01*
X99718857Y-94390352D01*
X99718857Y-94342733D01*
X99695047Y-94295114D01*
X99671238Y-94271304D01*
X99623619Y-94247495D01*
X99528380Y-94223685D01*
X99480761Y-94199876D01*
X99456952Y-94176066D01*
X99433142Y-94128447D01*
X99433142Y-94080828D01*
X99456952Y-94033209D01*
X99480761Y-94009400D01*
X99528380Y-93985590D01*
X99647428Y-93985590D01*
X99718857Y-94009400D01*
X100218857Y-94437971D02*
X100195047Y-94461780D01*
X100123619Y-94485590D01*
X100076000Y-94485590D01*
X100004571Y-94461780D01*
X99956952Y-94414161D01*
X99933142Y-94366542D01*
X99909333Y-94271304D01*
X99909333Y-94199876D01*
X99933142Y-94104638D01*
X99956952Y-94057019D01*
X100004571Y-94009400D01*
X100076000Y-93985590D01*
X100123619Y-93985590D01*
X100195047Y-94009400D01*
X100218857Y-94033209D01*
X100433142Y-94485590D02*
X100433142Y-93985590D01*
X100718857Y-94485590D02*
X100504571Y-94199876D01*
X100718857Y-93985590D02*
X100433142Y-94271304D01*
%TO.C,GND*%
X106045047Y-94009400D02*
X105997428Y-93985590D01*
X105926000Y-93985590D01*
X105854571Y-94009400D01*
X105806952Y-94057019D01*
X105783142Y-94104638D01*
X105759333Y-94199876D01*
X105759333Y-94271304D01*
X105783142Y-94366542D01*
X105806952Y-94414161D01*
X105854571Y-94461780D01*
X105926000Y-94485590D01*
X105973619Y-94485590D01*
X106045047Y-94461780D01*
X106068857Y-94437971D01*
X106068857Y-94271304D01*
X105973619Y-94271304D01*
X106283142Y-94485590D02*
X106283142Y-93985590D01*
X106568857Y-94485590D01*
X106568857Y-93985590D01*
X106806952Y-94485590D02*
X106806952Y-93985590D01*
X106926000Y-93985590D01*
X106997428Y-94009400D01*
X107045047Y-94057019D01*
X107068857Y-94104638D01*
X107092666Y-94199876D01*
X107092666Y-94271304D01*
X107068857Y-94366542D01*
X107045047Y-94414161D01*
X106997428Y-94461780D01*
X106926000Y-94485590D01*
X106806952Y-94485590D01*
%TO.C,VCC*%
X103668432Y-93985590D02*
X103835099Y-94485590D01*
X104001765Y-93985590D01*
X104454146Y-94437971D02*
X104430337Y-94461780D01*
X104358908Y-94485590D01*
X104311289Y-94485590D01*
X104239860Y-94461780D01*
X104192241Y-94414161D01*
X104168432Y-94366542D01*
X104144622Y-94271304D01*
X104144622Y-94199876D01*
X104168432Y-94104638D01*
X104192241Y-94057019D01*
X104239860Y-94009400D01*
X104311289Y-93985590D01*
X104358908Y-93985590D01*
X104430337Y-94009400D01*
X104454146Y-94033209D01*
X104954146Y-94437971D02*
X104930337Y-94461780D01*
X104858908Y-94485590D01*
X104811289Y-94485590D01*
X104739860Y-94461780D01*
X104692241Y-94414161D01*
X104668432Y-94366542D01*
X104644622Y-94271304D01*
X104644622Y-94199876D01*
X104668432Y-94104638D01*
X104692241Y-94057019D01*
X104739860Y-94009400D01*
X104811289Y-93985590D01*
X104858908Y-93985590D01*
X104930337Y-94009400D01*
X104954146Y-94033209D01*
%TD*%
M02*
