%TF.GenerationSoftware,KiCad,Pcbnew,(5.1.6)-1*%
%TF.CreationDate,2020-11-07T21:36:58+01:00*%
%TF.ProjectId,ArduinoProMicroUSB,41726475-696e-46f5-9072-6f4d6963726f,rev?*%
%TF.SameCoordinates,Original*%
%TF.FileFunction,Soldermask,Top*%
%TF.FilePolarity,Negative*%
%FSLAX46Y46*%
G04 Gerber Fmt 4.6, Leading zero omitted, Abs format (unit mm)*
G04 Created by KiCad (PCBNEW (5.1.6)-1) date 2020-11-07 21:36:58*
%MOMM*%
%LPD*%
G01*
G04 APERTURE LIST*
%ADD10C,0.100000*%
G04 APERTURE END LIST*
D10*
G36*
X95474552Y-95447898D02*
G01*
X95486803Y-95448500D01*
X95938000Y-95448500D01*
X95938000Y-96698500D01*
X95644851Y-96698500D01*
X95620465Y-96700902D01*
X95597016Y-96708015D01*
X95575405Y-96719566D01*
X95556463Y-96735111D01*
X95540918Y-96754053D01*
X95529367Y-96775664D01*
X95522254Y-96799113D01*
X95519852Y-96823499D01*
X95519852Y-96842359D01*
X95518263Y-96858498D01*
X95515348Y-96868107D01*
X95510610Y-96876971D01*
X95504237Y-96884736D01*
X95496472Y-96891109D01*
X95487608Y-96895847D01*
X95477999Y-96898762D01*
X95461860Y-96900351D01*
X94324140Y-96900351D01*
X94308001Y-96898762D01*
X94298392Y-96895847D01*
X94289528Y-96891109D01*
X94281763Y-96884736D01*
X94275390Y-96876971D01*
X94270652Y-96868107D01*
X94267737Y-96858498D01*
X94266148Y-96842359D01*
X94266148Y-96204638D01*
X94267737Y-96188499D01*
X94270652Y-96178890D01*
X94275390Y-96170026D01*
X94281763Y-96162261D01*
X94289530Y-96155886D01*
X94301927Y-96149260D01*
X94322301Y-96135646D01*
X94339628Y-96118319D01*
X94353241Y-96097944D01*
X94362618Y-96075305D01*
X94368000Y-96039022D01*
X94368000Y-95448500D01*
X95023582Y-95448500D01*
X95033387Y-95448115D01*
X95037023Y-95447829D01*
X95064751Y-95446740D01*
X95069220Y-95446652D01*
X95461860Y-95446648D01*
X95474552Y-95447898D01*
G37*
G36*
X109210281Y-95446652D02*
G01*
X109214750Y-95446740D01*
X109242476Y-95447829D01*
X109246113Y-95448115D01*
X109255918Y-95448500D01*
X109911500Y-95448500D01*
X109911500Y-96039022D01*
X109913902Y-96063408D01*
X109921015Y-96086857D01*
X109932566Y-96108468D01*
X109948111Y-96127410D01*
X109977573Y-96149260D01*
X109989970Y-96155886D01*
X109997737Y-96162261D01*
X110004110Y-96170026D01*
X110008848Y-96178890D01*
X110011763Y-96188499D01*
X110013352Y-96204638D01*
X110013352Y-96842359D01*
X110011763Y-96858498D01*
X110008848Y-96868107D01*
X110004110Y-96876971D01*
X109997737Y-96884736D01*
X109989972Y-96891109D01*
X109981108Y-96895847D01*
X109971499Y-96898762D01*
X109955360Y-96900351D01*
X108817640Y-96900351D01*
X108801501Y-96898762D01*
X108791892Y-96895847D01*
X108783028Y-96891109D01*
X108775263Y-96884736D01*
X108768890Y-96876971D01*
X108764152Y-96868107D01*
X108761237Y-96858498D01*
X108759648Y-96842359D01*
X108759648Y-96823499D01*
X108757246Y-96799113D01*
X108750133Y-96775664D01*
X108738582Y-96754053D01*
X108723037Y-96735111D01*
X108704095Y-96719566D01*
X108682484Y-96708015D01*
X108659035Y-96700902D01*
X108634649Y-96698500D01*
X108341500Y-96698500D01*
X108341500Y-95448500D01*
X108792696Y-95448500D01*
X108804947Y-95447898D01*
X108817639Y-95446648D01*
X109210281Y-95446652D01*
G37*
G36*
X113318052Y-95447898D02*
G01*
X113330303Y-95448500D01*
X113781500Y-95448500D01*
X113781500Y-96698500D01*
X113488351Y-96698500D01*
X113463965Y-96700902D01*
X113440516Y-96708015D01*
X113418905Y-96719566D01*
X113399963Y-96735111D01*
X113384418Y-96754053D01*
X113372867Y-96775664D01*
X113365754Y-96799113D01*
X113363352Y-96823499D01*
X113363352Y-96842359D01*
X113361763Y-96858498D01*
X113358848Y-96868107D01*
X113354110Y-96876971D01*
X113347737Y-96884736D01*
X113339972Y-96891109D01*
X113331108Y-96895847D01*
X113321499Y-96898762D01*
X113305360Y-96900351D01*
X112167640Y-96900351D01*
X112151501Y-96898762D01*
X112141892Y-96895847D01*
X112133028Y-96891109D01*
X112125263Y-96884736D01*
X112118890Y-96876971D01*
X112114152Y-96868107D01*
X112111237Y-96858498D01*
X112109648Y-96842359D01*
X112109648Y-96204638D01*
X112111237Y-96188499D01*
X112114152Y-96178890D01*
X112118890Y-96170026D01*
X112125263Y-96162261D01*
X112133030Y-96155886D01*
X112145427Y-96149260D01*
X112165801Y-96135646D01*
X112183128Y-96118319D01*
X112196741Y-96097944D01*
X112206118Y-96075305D01*
X112211500Y-96039022D01*
X112211500Y-95448500D01*
X112867082Y-95448500D01*
X112876887Y-95448115D01*
X112880523Y-95447829D01*
X112908251Y-95446740D01*
X112912720Y-95446652D01*
X113305360Y-95446648D01*
X113318052Y-95447898D01*
G37*
G36*
X91366781Y-95446652D02*
G01*
X91371250Y-95446740D01*
X91398976Y-95447829D01*
X91402613Y-95448115D01*
X91412418Y-95448500D01*
X92068000Y-95448500D01*
X92068000Y-96039022D01*
X92070402Y-96063408D01*
X92077515Y-96086857D01*
X92089066Y-96108468D01*
X92104611Y-96127410D01*
X92134073Y-96149260D01*
X92146470Y-96155886D01*
X92154237Y-96162261D01*
X92160610Y-96170026D01*
X92165348Y-96178890D01*
X92168263Y-96188499D01*
X92169852Y-96204638D01*
X92169852Y-96842359D01*
X92168263Y-96858498D01*
X92165348Y-96868107D01*
X92160610Y-96876971D01*
X92154237Y-96884736D01*
X92146472Y-96891109D01*
X92137608Y-96895847D01*
X92127999Y-96898762D01*
X92111860Y-96900351D01*
X90974140Y-96900351D01*
X90958001Y-96898762D01*
X90948392Y-96895847D01*
X90939528Y-96891109D01*
X90931763Y-96884736D01*
X90925390Y-96876971D01*
X90920652Y-96868107D01*
X90917737Y-96858498D01*
X90916148Y-96842359D01*
X90916148Y-96823499D01*
X90913746Y-96799113D01*
X90906633Y-96775664D01*
X90895082Y-96754053D01*
X90879537Y-96735111D01*
X90860595Y-96719566D01*
X90838984Y-96708015D01*
X90815535Y-96700902D01*
X90791149Y-96698500D01*
X90498000Y-96698500D01*
X90498000Y-95448500D01*
X90949196Y-95448500D01*
X90961447Y-95447898D01*
X90974139Y-95446648D01*
X91366781Y-95446652D01*
G37*
G36*
X115657794Y-94551155D02*
G01*
X115764150Y-94572311D01*
X115811217Y-94591807D01*
X115964520Y-94655307D01*
X116144844Y-94775795D01*
X116298205Y-94929156D01*
X116418693Y-95109480D01*
X116501689Y-95309851D01*
X116544000Y-95522560D01*
X116544000Y-95739440D01*
X116501689Y-95952149D01*
X116418693Y-96152520D01*
X116298205Y-96332844D01*
X116144844Y-96486205D01*
X115964520Y-96606693D01*
X115917452Y-96626189D01*
X115764150Y-96689689D01*
X115672019Y-96708015D01*
X115551440Y-96732000D01*
X115334560Y-96732000D01*
X115213981Y-96708015D01*
X115121850Y-96689689D01*
X114968548Y-96626189D01*
X114921480Y-96606693D01*
X114741156Y-96486205D01*
X114587795Y-96332844D01*
X114467307Y-96152520D01*
X114384311Y-95952149D01*
X114342000Y-95739440D01*
X114342000Y-95522560D01*
X114384311Y-95309851D01*
X114467307Y-95109480D01*
X114587795Y-94929156D01*
X114741156Y-94775795D01*
X114921480Y-94655307D01*
X115074783Y-94591807D01*
X115121850Y-94572311D01*
X115228205Y-94551156D01*
X115334560Y-94530000D01*
X115551440Y-94530000D01*
X115657794Y-94551155D01*
G37*
G36*
X88543294Y-94487655D02*
G01*
X88649650Y-94508811D01*
X88700804Y-94530000D01*
X88850020Y-94591807D01*
X89030344Y-94712295D01*
X89183705Y-94865656D01*
X89304193Y-95045980D01*
X89387189Y-95246351D01*
X89429500Y-95459060D01*
X89429500Y-95675940D01*
X89412583Y-95760984D01*
X89391873Y-95865104D01*
X89387189Y-95888649D01*
X89304193Y-96089020D01*
X89183705Y-96269344D01*
X89030344Y-96422705D01*
X88850020Y-96543193D01*
X88749834Y-96584691D01*
X88649650Y-96626189D01*
X88543295Y-96647344D01*
X88436940Y-96668500D01*
X88220060Y-96668500D01*
X88113705Y-96647344D01*
X88007350Y-96626189D01*
X87907166Y-96584691D01*
X87806980Y-96543193D01*
X87626656Y-96422705D01*
X87473295Y-96269344D01*
X87352807Y-96089020D01*
X87269811Y-95888649D01*
X87265128Y-95865104D01*
X87244417Y-95760984D01*
X87227500Y-95675940D01*
X87227500Y-95459060D01*
X87269811Y-95246351D01*
X87352807Y-95045980D01*
X87473295Y-94865656D01*
X87626656Y-94712295D01*
X87806980Y-94591807D01*
X87956196Y-94530000D01*
X88007350Y-94508811D01*
X88113706Y-94487655D01*
X88220060Y-94466500D01*
X88436940Y-94466500D01*
X88543294Y-94487655D01*
G37*
G36*
X98531500Y-96182000D02*
G01*
X97429500Y-96182000D01*
X97429500Y-95080000D01*
X98531500Y-95080000D01*
X98531500Y-96182000D01*
G37*
G36*
X100627000Y-96182000D02*
G01*
X99525000Y-96182000D01*
X99525000Y-95080000D01*
X100627000Y-95080000D01*
X100627000Y-96182000D01*
G37*
G36*
X102722500Y-96182000D02*
G01*
X101620500Y-96182000D01*
X101620500Y-95080000D01*
X102722500Y-95080000D01*
X102722500Y-96182000D01*
G37*
G36*
X104881500Y-96182000D02*
G01*
X103779500Y-96182000D01*
X103779500Y-95080000D01*
X104881500Y-95080000D01*
X104881500Y-96182000D01*
G37*
G36*
X106977000Y-96182000D02*
G01*
X105875000Y-96182000D01*
X105875000Y-95080000D01*
X106977000Y-95080000D01*
X106977000Y-96182000D01*
G37*
G36*
X95268000Y-95148500D02*
G01*
X94268000Y-95148500D01*
X94268000Y-95123499D01*
X94265598Y-95099113D01*
X94258485Y-95075664D01*
X94246934Y-95054053D01*
X94231389Y-95035111D01*
X94212447Y-95019566D01*
X94190836Y-95008015D01*
X94167387Y-95000902D01*
X94143001Y-94998500D01*
X92292999Y-94998500D01*
X92268613Y-95000902D01*
X92245164Y-95008015D01*
X92223553Y-95019566D01*
X92204611Y-95035111D01*
X92189066Y-95054053D01*
X92177515Y-95075664D01*
X92170402Y-95099113D01*
X92168000Y-95123499D01*
X92168000Y-95148500D01*
X91168000Y-95148500D01*
X91168000Y-93648500D01*
X95268000Y-93648500D01*
X95268000Y-95148500D01*
G37*
G36*
X113111500Y-95148500D02*
G01*
X112111500Y-95148500D01*
X112111500Y-95123499D01*
X112109098Y-95099113D01*
X112101985Y-95075664D01*
X112090434Y-95054053D01*
X112074889Y-95035111D01*
X112055947Y-95019566D01*
X112034336Y-95008015D01*
X112010887Y-95000902D01*
X111986501Y-94998500D01*
X110136499Y-94998500D01*
X110112113Y-95000902D01*
X110088664Y-95008015D01*
X110067053Y-95019566D01*
X110048111Y-95035111D01*
X110032566Y-95054053D01*
X110021015Y-95075664D01*
X110013902Y-95099113D01*
X110011500Y-95123499D01*
X110011500Y-95148500D01*
X109011500Y-95148500D01*
X109011500Y-93648500D01*
X113111500Y-93648500D01*
X113111500Y-95148500D01*
G37*
G36*
X109150150Y-92739210D02*
G01*
X107847130Y-92739210D01*
X107847130Y-91537790D01*
X109150150Y-91537790D01*
X109150150Y-92739210D01*
G37*
G36*
X110846870Y-92739210D02*
G01*
X109543850Y-92739210D01*
X109543850Y-91537790D01*
X110846870Y-91537790D01*
X110846870Y-92739210D01*
G37*
G36*
X102288340Y-92544900D02*
G01*
X101287580Y-92544900D01*
X101287580Y-91442540D01*
X102288340Y-91442540D01*
X102288340Y-92544900D01*
G37*
G36*
X100388420Y-92544900D02*
G01*
X99387660Y-92544900D01*
X99387660Y-91442540D01*
X100388420Y-91442540D01*
X100388420Y-92544900D01*
G37*
G36*
X98962210Y-92495370D02*
G01*
X97760790Y-92495370D01*
X97760790Y-91192350D01*
X98962210Y-91192350D01*
X98962210Y-92495370D01*
G37*
G36*
X94009210Y-92495370D02*
G01*
X92807790Y-92495370D01*
X92807790Y-91192350D01*
X94009210Y-91192350D01*
X94009210Y-92495370D01*
G37*
G36*
X97374710Y-92495370D02*
G01*
X96173290Y-92495370D01*
X96173290Y-91192350D01*
X97374710Y-91192350D01*
X97374710Y-92495370D01*
G37*
G36*
X95596710Y-92482670D02*
G01*
X94395290Y-92482670D01*
X94395290Y-91179650D01*
X95596710Y-91179650D01*
X95596710Y-92482670D01*
G37*
G36*
X114689810Y-91469210D02*
G01*
X113386790Y-91469210D01*
X113386790Y-90267790D01*
X114689810Y-90267790D01*
X114689810Y-91469210D01*
G37*
G36*
X112993090Y-91469210D02*
G01*
X111690070Y-91469210D01*
X111690070Y-90267790D01*
X112993090Y-90267790D01*
X112993090Y-91469210D01*
G37*
G36*
X94009210Y-90798650D02*
G01*
X92807790Y-90798650D01*
X92807790Y-89495630D01*
X94009210Y-89495630D01*
X94009210Y-90798650D01*
G37*
G36*
X97374710Y-90798650D02*
G01*
X96173290Y-90798650D01*
X96173290Y-89495630D01*
X97374710Y-89495630D01*
X97374710Y-90798650D01*
G37*
G36*
X98962210Y-90798650D02*
G01*
X97760790Y-90798650D01*
X97760790Y-89495630D01*
X98962210Y-89495630D01*
X98962210Y-90798650D01*
G37*
G36*
X95596710Y-90785950D02*
G01*
X94395290Y-90785950D01*
X94395290Y-89482930D01*
X95596710Y-89482930D01*
X95596710Y-90785950D01*
G37*
G36*
X110850680Y-90699590D02*
G01*
X108747560Y-90699590D01*
X108747560Y-89396570D01*
X110850680Y-89396570D01*
X110850680Y-90699590D01*
G37*
G36*
X107152440Y-90699590D02*
G01*
X105049320Y-90699590D01*
X105049320Y-89396570D01*
X107152440Y-89396570D01*
X107152440Y-90699590D01*
G37*
G36*
X104613710Y-90653870D02*
G01*
X103412290Y-90653870D01*
X103412290Y-89350850D01*
X104613710Y-89350850D01*
X104613710Y-90653870D01*
G37*
G36*
X102741591Y-89535145D02*
G01*
X102775569Y-89545453D01*
X102806890Y-89562194D01*
X102834339Y-89584721D01*
X102856866Y-89612170D01*
X102873607Y-89643491D01*
X102883915Y-89677469D01*
X102888000Y-89718950D01*
X102888000Y-90320170D01*
X102883915Y-90361651D01*
X102873607Y-90395629D01*
X102856866Y-90426950D01*
X102834339Y-90454399D01*
X102806890Y-90476926D01*
X102775569Y-90493667D01*
X102741591Y-90503975D01*
X102700110Y-90508060D01*
X102023890Y-90508060D01*
X101982409Y-90503975D01*
X101948431Y-90493667D01*
X101917110Y-90476926D01*
X101889661Y-90454399D01*
X101867134Y-90426950D01*
X101850393Y-90395629D01*
X101840085Y-90361651D01*
X101836000Y-90320170D01*
X101836000Y-89718950D01*
X101840085Y-89677469D01*
X101850393Y-89643491D01*
X101867134Y-89612170D01*
X101889661Y-89584721D01*
X101917110Y-89562194D01*
X101948431Y-89545453D01*
X101982409Y-89535145D01*
X102023890Y-89531060D01*
X102700110Y-89531060D01*
X102741591Y-89535145D01*
G37*
G36*
X101338380Y-90446860D02*
G01*
X100337620Y-90446860D01*
X100337620Y-89344500D01*
X101338380Y-89344500D01*
X101338380Y-90446860D01*
G37*
G36*
X113389000Y-89789000D02*
G01*
X112487000Y-89789000D01*
X112487000Y-89187000D01*
X113389000Y-89187000D01*
X113389000Y-89789000D01*
G37*
G36*
X114589000Y-89789000D02*
G01*
X113687000Y-89789000D01*
X113687000Y-89187000D01*
X114589000Y-89187000D01*
X114589000Y-89789000D01*
G37*
G36*
X116234210Y-89385930D02*
G01*
X115032790Y-89385930D01*
X115032790Y-88082910D01*
X116234210Y-88082910D01*
X116234210Y-89385930D01*
G37*
G36*
X104613710Y-88957150D02*
G01*
X103412290Y-88957150D01*
X103412290Y-87654130D01*
X104613710Y-87654130D01*
X104613710Y-88957150D01*
G37*
G36*
X102741591Y-87960145D02*
G01*
X102775569Y-87970453D01*
X102806890Y-87987194D01*
X102834339Y-88009721D01*
X102856866Y-88037170D01*
X102873607Y-88068491D01*
X102883915Y-88102469D01*
X102888000Y-88143950D01*
X102888000Y-88745170D01*
X102883915Y-88786651D01*
X102873607Y-88820629D01*
X102856866Y-88851950D01*
X102834339Y-88879399D01*
X102806890Y-88901926D01*
X102775569Y-88918667D01*
X102741591Y-88928975D01*
X102700110Y-88933060D01*
X102023890Y-88933060D01*
X101982409Y-88928975D01*
X101948431Y-88918667D01*
X101917110Y-88901926D01*
X101889661Y-88879399D01*
X101867134Y-88851950D01*
X101850393Y-88820629D01*
X101840085Y-88786651D01*
X101836000Y-88745170D01*
X101836000Y-88143950D01*
X101840085Y-88102469D01*
X101850393Y-88068491D01*
X101867134Y-88037170D01*
X101889661Y-88009721D01*
X101917110Y-87987194D01*
X101948431Y-87970453D01*
X101982409Y-87960145D01*
X102023890Y-87956060D01*
X102700110Y-87956060D01*
X102741591Y-87960145D01*
G37*
G36*
X114589000Y-88889000D02*
G01*
X113687000Y-88889000D01*
X113687000Y-88287000D01*
X114589000Y-88287000D01*
X114589000Y-88889000D01*
G37*
G36*
X113389000Y-88889000D02*
G01*
X112487000Y-88889000D01*
X112487000Y-88287000D01*
X113389000Y-88287000D01*
X113389000Y-88889000D01*
G37*
G36*
X100516531Y-87890585D02*
G01*
X100550509Y-87900893D01*
X100581830Y-87917634D01*
X100609279Y-87940161D01*
X100631806Y-87967610D01*
X100648547Y-87998931D01*
X100658855Y-88032909D01*
X100662940Y-88074390D01*
X100662940Y-88675610D01*
X100658855Y-88717091D01*
X100648547Y-88751069D01*
X100631806Y-88782390D01*
X100609279Y-88809839D01*
X100581830Y-88832366D01*
X100550509Y-88849107D01*
X100516531Y-88859415D01*
X100475050Y-88863500D01*
X99798830Y-88863500D01*
X99757349Y-88859415D01*
X99723371Y-88849107D01*
X99692050Y-88832366D01*
X99664601Y-88809839D01*
X99642074Y-88782390D01*
X99625333Y-88751069D01*
X99615025Y-88717091D01*
X99610940Y-88675610D01*
X99610940Y-88074390D01*
X99615025Y-88032909D01*
X99625333Y-87998931D01*
X99642074Y-87967610D01*
X99664601Y-87940161D01*
X99692050Y-87917634D01*
X99723371Y-87900893D01*
X99757349Y-87890585D01*
X99798830Y-87886500D01*
X100475050Y-87886500D01*
X100516531Y-87890585D01*
G37*
G36*
X95967550Y-88494870D02*
G01*
X94766130Y-88494870D01*
X94766130Y-87191850D01*
X95967550Y-87191850D01*
X95967550Y-88494870D01*
G37*
G36*
X97476310Y-88469470D02*
G01*
X96274890Y-88469470D01*
X96274890Y-87166450D01*
X97476310Y-87166450D01*
X97476310Y-88469470D01*
G37*
G36*
X110850680Y-88403430D02*
G01*
X108747560Y-88403430D01*
X108747560Y-87100410D01*
X110850680Y-87100410D01*
X110850680Y-88403430D01*
G37*
G36*
X107152440Y-88403430D02*
G01*
X105049320Y-88403430D01*
X105049320Y-87100410D01*
X107152440Y-87100410D01*
X107152440Y-88403430D01*
G37*
G36*
X89306400Y-88117680D02*
G01*
X87604600Y-88117680D01*
X87604600Y-86116160D01*
X89306400Y-86116160D01*
X89306400Y-88117680D01*
G37*
G36*
X113389000Y-87989000D02*
G01*
X112487000Y-87989000D01*
X112487000Y-87387000D01*
X113389000Y-87387000D01*
X113389000Y-87989000D01*
G37*
G36*
X114589000Y-87989000D02*
G01*
X113687000Y-87989000D01*
X113687000Y-87387000D01*
X114589000Y-87387000D01*
X114589000Y-87989000D01*
G37*
G36*
X116234210Y-87689210D02*
G01*
X115032790Y-87689210D01*
X115032790Y-86386190D01*
X116234210Y-86386190D01*
X116234210Y-87689210D01*
G37*
G36*
X94453710Y-87605870D02*
G01*
X93252290Y-87605870D01*
X93252290Y-86302850D01*
X94453710Y-86302850D01*
X94453710Y-87605870D01*
G37*
G36*
X102825550Y-87367110D02*
G01*
X101522530Y-87367110D01*
X101522530Y-86165690D01*
X102825550Y-86165690D01*
X102825550Y-87367110D01*
G37*
G36*
X104522270Y-87367110D02*
G01*
X103219250Y-87367110D01*
X103219250Y-86165690D01*
X104522270Y-86165690D01*
X104522270Y-87367110D01*
G37*
G36*
X100516531Y-86315585D02*
G01*
X100550509Y-86325893D01*
X100581830Y-86342634D01*
X100609279Y-86365161D01*
X100631806Y-86392610D01*
X100648547Y-86423931D01*
X100658855Y-86457909D01*
X100662940Y-86499390D01*
X100662940Y-87100610D01*
X100658855Y-87142091D01*
X100648547Y-87176069D01*
X100631806Y-87207390D01*
X100609279Y-87234839D01*
X100581830Y-87257366D01*
X100550509Y-87274107D01*
X100516531Y-87284415D01*
X100475050Y-87288500D01*
X99798830Y-87288500D01*
X99757349Y-87284415D01*
X99723371Y-87274107D01*
X99692050Y-87257366D01*
X99664601Y-87234839D01*
X99642074Y-87207390D01*
X99625333Y-87176069D01*
X99615025Y-87142091D01*
X99610940Y-87100610D01*
X99610940Y-86499390D01*
X99615025Y-86457909D01*
X99625333Y-86423931D01*
X99642074Y-86392610D01*
X99664601Y-86365161D01*
X99692050Y-86342634D01*
X99723371Y-86325893D01*
X99757349Y-86315585D01*
X99798830Y-86311500D01*
X100475050Y-86311500D01*
X100516531Y-86315585D01*
G37*
G36*
X114589000Y-87089000D02*
G01*
X113687000Y-87089000D01*
X113687000Y-86487000D01*
X114589000Y-86487000D01*
X114589000Y-87089000D01*
G37*
G36*
X113389000Y-87089000D02*
G01*
X112487000Y-87089000D01*
X112487000Y-86487000D01*
X113389000Y-86487000D01*
X113389000Y-87089000D01*
G37*
G36*
X95967550Y-86798150D02*
G01*
X94766130Y-86798150D01*
X94766130Y-85495130D01*
X95967550Y-85495130D01*
X95967550Y-86798150D01*
G37*
G36*
X97476310Y-86772750D02*
G01*
X96274890Y-86772750D01*
X96274890Y-85469730D01*
X97476310Y-85469730D01*
X97476310Y-86772750D01*
G37*
G36*
X111100870Y-86706710D02*
G01*
X109797850Y-86706710D01*
X109797850Y-85505290D01*
X111100870Y-85505290D01*
X111100870Y-86706710D01*
G37*
G36*
X109404150Y-86706710D02*
G01*
X108101130Y-86706710D01*
X108101130Y-85505290D01*
X109404150Y-85505290D01*
X109404150Y-86706710D01*
G37*
G36*
X107798870Y-86706710D02*
G01*
X106495850Y-86706710D01*
X106495850Y-85505290D01*
X107798870Y-85505290D01*
X107798870Y-86706710D01*
G37*
G36*
X106102150Y-86706710D02*
G01*
X104799130Y-86706710D01*
X104799130Y-85505290D01*
X106102150Y-85505290D01*
X106102150Y-86706710D01*
G37*
G36*
X114656870Y-85944710D02*
G01*
X113353850Y-85944710D01*
X113353850Y-84743290D01*
X114656870Y-84743290D01*
X114656870Y-85944710D01*
G37*
G36*
X112960150Y-85944710D02*
G01*
X111657130Y-85944710D01*
X111657130Y-84743290D01*
X112960150Y-84743290D01*
X112960150Y-85944710D01*
G37*
G36*
X94453710Y-85909150D02*
G01*
X93252290Y-85909150D01*
X93252290Y-84606130D01*
X94453710Y-84606130D01*
X94453710Y-85909150D01*
G37*
G36*
X98974910Y-85827870D02*
G01*
X97773490Y-85827870D01*
X97773490Y-84524850D01*
X98974910Y-84524850D01*
X98974910Y-85827870D01*
G37*
G36*
X101047550Y-85817710D02*
G01*
X99744530Y-85817710D01*
X99744530Y-84616290D01*
X101047550Y-84616290D01*
X101047550Y-85817710D01*
G37*
G36*
X102744270Y-85817710D02*
G01*
X101441250Y-85817710D01*
X101441250Y-84616290D01*
X102744270Y-84616290D01*
X102744270Y-85817710D01*
G37*
G36*
X91954350Y-85037930D02*
G01*
X90351610Y-85037930D01*
X90351610Y-81840070D01*
X91954350Y-81840070D01*
X91954350Y-85037930D01*
G37*
G36*
X95871500Y-84946500D02*
G01*
X94909500Y-84946500D01*
X94909500Y-83074500D01*
X95871500Y-83074500D01*
X95871500Y-84946500D01*
G37*
G36*
X97241500Y-84946500D02*
G01*
X96279500Y-84946500D01*
X96279500Y-83074500D01*
X97241500Y-83074500D01*
X97241500Y-84946500D01*
G37*
G36*
X89306400Y-84790280D02*
G01*
X87604600Y-84790280D01*
X87604600Y-82087720D01*
X89306400Y-82087720D01*
X89306400Y-84790280D01*
G37*
G36*
X109957900Y-83438299D02*
G01*
X109957900Y-84548300D01*
X104595900Y-84548300D01*
X104595900Y-83438299D01*
X104595682Y-83436082D01*
X104597899Y-83436300D01*
X109955901Y-83436300D01*
X109958118Y-83436082D01*
X109957900Y-83438299D01*
G37*
G36*
X94453710Y-84314030D02*
G01*
X93252290Y-84314030D01*
X93252290Y-83011010D01*
X94453710Y-83011010D01*
X94453710Y-84314030D01*
G37*
G36*
X101047550Y-84192110D02*
G01*
X99744530Y-84192110D01*
X99744530Y-82990690D01*
X101047550Y-82990690D01*
X101047550Y-84192110D01*
G37*
G36*
X102744270Y-84192110D02*
G01*
X101441250Y-84192110D01*
X101441250Y-82990690D01*
X102744270Y-82990690D01*
X102744270Y-84192110D01*
G37*
G36*
X98974910Y-84131150D02*
G01*
X97773490Y-84131150D01*
X97773490Y-82828130D01*
X98974910Y-82828130D01*
X98974910Y-84131150D01*
G37*
G36*
X114656870Y-84103210D02*
G01*
X113353850Y-84103210D01*
X113353850Y-82901790D01*
X114656870Y-82901790D01*
X114656870Y-84103210D01*
G37*
G36*
X112960150Y-84103210D02*
G01*
X111657130Y-84103210D01*
X111657130Y-82901790D01*
X112960150Y-82901790D01*
X112960150Y-84103210D01*
G37*
G36*
X110082899Y-77951300D02*
G01*
X111192900Y-77951300D01*
X111192900Y-83313300D01*
X110082899Y-83313300D01*
X110080682Y-83313518D01*
X110080900Y-83311301D01*
X110080900Y-77953299D01*
X110080682Y-77951082D01*
X110082899Y-77951300D01*
G37*
G36*
X104472900Y-77953299D02*
G01*
X104472900Y-83311301D01*
X104473118Y-83313518D01*
X104470901Y-83313300D01*
X103360900Y-83313300D01*
X103360900Y-77951300D01*
X104470901Y-77951300D01*
X104473118Y-77951082D01*
X104472900Y-77953299D01*
G37*
G36*
X94453710Y-82617310D02*
G01*
X93252290Y-82617310D01*
X93252290Y-81314290D01*
X94453710Y-81314290D01*
X94453710Y-82617310D01*
G37*
G36*
X114656870Y-82579210D02*
G01*
X113353850Y-82579210D01*
X113353850Y-81377790D01*
X114656870Y-81377790D01*
X114656870Y-82579210D01*
G37*
G36*
X112960150Y-82579210D02*
G01*
X111657130Y-82579210D01*
X111657130Y-81377790D01*
X112960150Y-81377790D01*
X112960150Y-82579210D01*
G37*
G36*
X96069150Y-82515710D02*
G01*
X94766130Y-82515710D01*
X94766130Y-81314290D01*
X96069150Y-81314290D01*
X96069150Y-82515710D01*
G37*
G36*
X97765870Y-82515710D02*
G01*
X96462850Y-82515710D01*
X96462850Y-81314290D01*
X97765870Y-81314290D01*
X97765870Y-82515710D01*
G37*
G36*
X102464870Y-82452210D02*
G01*
X101161850Y-82452210D01*
X101161850Y-81250790D01*
X102464870Y-81250790D01*
X102464870Y-82452210D01*
G37*
G36*
X100768150Y-82452210D02*
G01*
X99465130Y-82452210D01*
X99465130Y-81250790D01*
X100768150Y-81250790D01*
X100768150Y-82452210D01*
G37*
G36*
X112960150Y-80991710D02*
G01*
X111657130Y-80991710D01*
X111657130Y-79790290D01*
X112960150Y-79790290D01*
X112960150Y-80991710D01*
G37*
G36*
X114656870Y-80991710D02*
G01*
X113353850Y-80991710D01*
X113353850Y-79790290D01*
X114656870Y-79790290D01*
X114656870Y-80991710D01*
G37*
G36*
X99229300Y-80941100D02*
G01*
X98127300Y-80941100D01*
X98127300Y-80139100D01*
X99229300Y-80139100D01*
X99229300Y-80941100D01*
G37*
G36*
X100729300Y-80941100D02*
G01*
X100027300Y-80941100D01*
X100027300Y-80139100D01*
X100729300Y-80139100D01*
X100729300Y-80941100D01*
G37*
G36*
X96069150Y-80940910D02*
G01*
X94766130Y-80940910D01*
X94766130Y-79739490D01*
X96069150Y-79739490D01*
X96069150Y-80940910D01*
G37*
G36*
X97765870Y-80940910D02*
G01*
X96462850Y-80940910D01*
X96462850Y-79739490D01*
X97765870Y-79739490D01*
X97765870Y-80940910D01*
G37*
G36*
X89306400Y-80761840D02*
G01*
X87604600Y-80761840D01*
X87604600Y-78760320D01*
X89306400Y-78760320D01*
X89306400Y-80761840D01*
G37*
G36*
X114656870Y-79404210D02*
G01*
X113353850Y-79404210D01*
X113353850Y-78202790D01*
X114656870Y-78202790D01*
X114656870Y-79404210D01*
G37*
G36*
X112960150Y-79404210D02*
G01*
X111657130Y-79404210D01*
X111657130Y-78202790D01*
X112960150Y-78202790D01*
X112960150Y-79404210D01*
G37*
G36*
X97765870Y-79378810D02*
G01*
X96462850Y-79378810D01*
X96462850Y-78177390D01*
X97765870Y-78177390D01*
X97765870Y-79378810D01*
G37*
G36*
X96069150Y-79378810D02*
G01*
X94766130Y-79378810D01*
X94766130Y-78177390D01*
X96069150Y-78177390D01*
X96069150Y-79378810D01*
G37*
G36*
X98829300Y-78941100D02*
G01*
X98127300Y-78941100D01*
X98127300Y-78139100D01*
X98829300Y-78139100D01*
X98829300Y-78941100D01*
G37*
G36*
X100729300Y-78941100D02*
G01*
X100027300Y-78941100D01*
X100027300Y-78139100D01*
X100729300Y-78139100D01*
X100729300Y-78941100D01*
G37*
G36*
X109957900Y-77826301D02*
G01*
X109958118Y-77828518D01*
X109955901Y-77828300D01*
X104597899Y-77828300D01*
X104595682Y-77828518D01*
X104595900Y-77826301D01*
X104595900Y-76716300D01*
X109957900Y-76716300D01*
X109957900Y-77826301D01*
G37*
G36*
X114656870Y-77816710D02*
G01*
X113353850Y-77816710D01*
X113353850Y-76615290D01*
X114656870Y-76615290D01*
X114656870Y-77816710D01*
G37*
G36*
X112960150Y-77816710D02*
G01*
X111657130Y-77816710D01*
X111657130Y-76615290D01*
X112960150Y-76615290D01*
X112960150Y-77816710D01*
G37*
G36*
X100676710Y-77750670D02*
G01*
X99475290Y-77750670D01*
X99475290Y-76447650D01*
X100676710Y-76447650D01*
X100676710Y-77750670D01*
G37*
G36*
X102454710Y-77750670D02*
G01*
X101253290Y-77750670D01*
X101253290Y-76447650D01*
X102454710Y-76447650D01*
X102454710Y-77750670D01*
G37*
G36*
X104578150Y-76229210D02*
G01*
X103275130Y-76229210D01*
X103275130Y-75027790D01*
X104578150Y-75027790D01*
X104578150Y-76229210D01*
G37*
G36*
X106274870Y-76229210D02*
G01*
X104971850Y-76229210D01*
X104971850Y-75027790D01*
X106274870Y-75027790D01*
X106274870Y-76229210D01*
G37*
G36*
X102454710Y-76053950D02*
G01*
X101253290Y-76053950D01*
X101253290Y-74750930D01*
X102454710Y-74750930D01*
X102454710Y-76053950D01*
G37*
G36*
X100676710Y-76053950D02*
G01*
X99475290Y-76053950D01*
X99475290Y-74750930D01*
X100676710Y-74750930D01*
X100676710Y-76053950D01*
G37*
G36*
X92168000Y-73596001D02*
G01*
X92170402Y-73620387D01*
X92177515Y-73643836D01*
X92189066Y-73665447D01*
X92204611Y-73684389D01*
X92223553Y-73699934D01*
X92245164Y-73711485D01*
X92268613Y-73718598D01*
X92292999Y-73721000D01*
X94143001Y-73721000D01*
X94167387Y-73718598D01*
X94190836Y-73711485D01*
X94212447Y-73699934D01*
X94231389Y-73684389D01*
X94246934Y-73665447D01*
X94258485Y-73643836D01*
X94265598Y-73620387D01*
X94268000Y-73596001D01*
X94268000Y-73571000D01*
X95268000Y-73571000D01*
X95268000Y-75071000D01*
X91168000Y-75071000D01*
X91168000Y-73571000D01*
X92168000Y-73571000D01*
X92168000Y-73596001D01*
G37*
G36*
X110011500Y-73596001D02*
G01*
X110013902Y-73620387D01*
X110021015Y-73643836D01*
X110032566Y-73665447D01*
X110048111Y-73684389D01*
X110067053Y-73699934D01*
X110088664Y-73711485D01*
X110112113Y-73718598D01*
X110136499Y-73721000D01*
X111986501Y-73721000D01*
X112010887Y-73718598D01*
X112034336Y-73711485D01*
X112055947Y-73699934D01*
X112074889Y-73684389D01*
X112090434Y-73665447D01*
X112101985Y-73643836D01*
X112109098Y-73620387D01*
X112111500Y-73596001D01*
X112111500Y-73571000D01*
X113111500Y-73571000D01*
X113111500Y-75071000D01*
X109011500Y-75071000D01*
X109011500Y-73571000D01*
X110011500Y-73571000D01*
X110011500Y-73596001D01*
G37*
G36*
X88489731Y-71871001D02*
G01*
X88649650Y-71902811D01*
X88748693Y-71943836D01*
X88850020Y-71985807D01*
X89030344Y-72106295D01*
X89183705Y-72259656D01*
X89304193Y-72439980D01*
X89304193Y-72439981D01*
X89383997Y-72632643D01*
X89387189Y-72640351D01*
X89429500Y-72853060D01*
X89429500Y-73069940D01*
X89421033Y-73112504D01*
X89389387Y-73271602D01*
X89387189Y-73282649D01*
X89304193Y-73483020D01*
X89183705Y-73663344D01*
X89030344Y-73816705D01*
X88850020Y-73937193D01*
X88749834Y-73978691D01*
X88649650Y-74020189D01*
X88543295Y-74041344D01*
X88436940Y-74062500D01*
X88220060Y-74062500D01*
X88113705Y-74041344D01*
X88007350Y-74020189D01*
X87907166Y-73978691D01*
X87806980Y-73937193D01*
X87626656Y-73816705D01*
X87473295Y-73663344D01*
X87352807Y-73483020D01*
X87269811Y-73282649D01*
X87267614Y-73271602D01*
X87235967Y-73112504D01*
X87227500Y-73069940D01*
X87227500Y-72853060D01*
X87269811Y-72640351D01*
X87273004Y-72632643D01*
X87352807Y-72439981D01*
X87352807Y-72439980D01*
X87473295Y-72259656D01*
X87626656Y-72106295D01*
X87806980Y-71985807D01*
X87908307Y-71943836D01*
X88007350Y-71902811D01*
X88167269Y-71871001D01*
X88220060Y-71860500D01*
X88436940Y-71860500D01*
X88489731Y-71871001D01*
G37*
G36*
X115604231Y-71871001D02*
G01*
X115764150Y-71902811D01*
X115863193Y-71943836D01*
X115964520Y-71985807D01*
X116144844Y-72106295D01*
X116298205Y-72259656D01*
X116418693Y-72439980D01*
X116418693Y-72439981D01*
X116498497Y-72632643D01*
X116501689Y-72640351D01*
X116544000Y-72853060D01*
X116544000Y-73069940D01*
X116535533Y-73112504D01*
X116503887Y-73271602D01*
X116501689Y-73282649D01*
X116418693Y-73483020D01*
X116298205Y-73663344D01*
X116144844Y-73816705D01*
X115964520Y-73937193D01*
X115864334Y-73978691D01*
X115764150Y-74020189D01*
X115657795Y-74041344D01*
X115551440Y-74062500D01*
X115334560Y-74062500D01*
X115228205Y-74041344D01*
X115121850Y-74020189D01*
X115021666Y-73978691D01*
X114921480Y-73937193D01*
X114741156Y-73816705D01*
X114587795Y-73663344D01*
X114467307Y-73483020D01*
X114384311Y-73282649D01*
X114382114Y-73271602D01*
X114350467Y-73112504D01*
X114342000Y-73069940D01*
X114342000Y-72853060D01*
X114384311Y-72640351D01*
X114387504Y-72632643D01*
X114467307Y-72439981D01*
X114467307Y-72439980D01*
X114587795Y-72259656D01*
X114741156Y-72106295D01*
X114921480Y-71985807D01*
X115022807Y-71943836D01*
X115121850Y-71902811D01*
X115281769Y-71871001D01*
X115334560Y-71860500D01*
X115551440Y-71860500D01*
X115604231Y-71871001D01*
G37*
G36*
X101459265Y-71833120D02*
G01*
X101648788Y-71911623D01*
X101819354Y-72025592D01*
X101964408Y-72170646D01*
X102078377Y-72341212D01*
X102078378Y-72341214D01*
X102156880Y-72530735D01*
X102196900Y-72731930D01*
X102196900Y-72937070D01*
X102156880Y-73138265D01*
X102101385Y-73272243D01*
X102078377Y-73327788D01*
X101964408Y-73498354D01*
X101819354Y-73643408D01*
X101648788Y-73757377D01*
X101648787Y-73757378D01*
X101648786Y-73757378D01*
X101459265Y-73835880D01*
X101258070Y-73875900D01*
X101052930Y-73875900D01*
X100851735Y-73835880D01*
X100662214Y-73757378D01*
X100662213Y-73757378D01*
X100662212Y-73757377D01*
X100491646Y-73643408D01*
X100346592Y-73498354D01*
X100232623Y-73327788D01*
X100209616Y-73272243D01*
X100154120Y-73138265D01*
X100114100Y-72937070D01*
X100114100Y-72731930D01*
X100154120Y-72530735D01*
X100232622Y-72341214D01*
X100232623Y-72341212D01*
X100346592Y-72170646D01*
X100491646Y-72025592D01*
X100662212Y-71911623D01*
X100851735Y-71833120D01*
X101052930Y-71793100D01*
X101258070Y-71793100D01*
X101459265Y-71833120D01*
G37*
G36*
X98919265Y-71833120D02*
G01*
X99108788Y-71911623D01*
X99279354Y-72025592D01*
X99424408Y-72170646D01*
X99538377Y-72341212D01*
X99538378Y-72341214D01*
X99616880Y-72530735D01*
X99656900Y-72731930D01*
X99656900Y-72937070D01*
X99616880Y-73138265D01*
X99561385Y-73272243D01*
X99538377Y-73327788D01*
X99424408Y-73498354D01*
X99279354Y-73643408D01*
X99108788Y-73757377D01*
X99108787Y-73757378D01*
X99108786Y-73757378D01*
X98919265Y-73835880D01*
X98718070Y-73875900D01*
X98512930Y-73875900D01*
X98311735Y-73835880D01*
X98122214Y-73757378D01*
X98122213Y-73757378D01*
X98122212Y-73757377D01*
X97951646Y-73643408D01*
X97806592Y-73498354D01*
X97692623Y-73327788D01*
X97669616Y-73272243D01*
X97614120Y-73138265D01*
X97574100Y-72937070D01*
X97574100Y-72731930D01*
X97614120Y-72530735D01*
X97692622Y-72341214D01*
X97692623Y-72341212D01*
X97806592Y-72170646D01*
X97951646Y-72025592D01*
X98122212Y-71911623D01*
X98311735Y-71833120D01*
X98512930Y-71793100D01*
X98718070Y-71793100D01*
X98919265Y-71833120D01*
G37*
G36*
X109971499Y-71820738D02*
G01*
X109981108Y-71823653D01*
X109989972Y-71828391D01*
X109997737Y-71834764D01*
X110004110Y-71842529D01*
X110008848Y-71851393D01*
X110011763Y-71861002D01*
X110013352Y-71877141D01*
X110013352Y-72514862D01*
X110011763Y-72531001D01*
X110008848Y-72540610D01*
X110004110Y-72549474D01*
X109997737Y-72557239D01*
X109989970Y-72563614D01*
X109977573Y-72570240D01*
X109957199Y-72583854D01*
X109939872Y-72601181D01*
X109926259Y-72621556D01*
X109916882Y-72644195D01*
X109911500Y-72680478D01*
X109911500Y-73271000D01*
X109255918Y-73271000D01*
X109246113Y-73271385D01*
X109242477Y-73271671D01*
X109214749Y-73272760D01*
X109210280Y-73272848D01*
X108817640Y-73272852D01*
X108804948Y-73271602D01*
X108792697Y-73271000D01*
X108341500Y-73271000D01*
X108341500Y-72021000D01*
X108634649Y-72021000D01*
X108659035Y-72018598D01*
X108682484Y-72011485D01*
X108704095Y-71999934D01*
X108723037Y-71984389D01*
X108738582Y-71965447D01*
X108750133Y-71943836D01*
X108757246Y-71920387D01*
X108759648Y-71896001D01*
X108759648Y-71877141D01*
X108761237Y-71861002D01*
X108764152Y-71851393D01*
X108768890Y-71842529D01*
X108775263Y-71834764D01*
X108783028Y-71828391D01*
X108791892Y-71823653D01*
X108801501Y-71820738D01*
X108817640Y-71819149D01*
X109955360Y-71819149D01*
X109971499Y-71820738D01*
G37*
G36*
X92127999Y-71820738D02*
G01*
X92137608Y-71823653D01*
X92146472Y-71828391D01*
X92154237Y-71834764D01*
X92160610Y-71842529D01*
X92165348Y-71851393D01*
X92168263Y-71861002D01*
X92169852Y-71877141D01*
X92169852Y-72514862D01*
X92168263Y-72531001D01*
X92165348Y-72540610D01*
X92160610Y-72549474D01*
X92154237Y-72557239D01*
X92146470Y-72563614D01*
X92134073Y-72570240D01*
X92113699Y-72583854D01*
X92096372Y-72601181D01*
X92082759Y-72621556D01*
X92073382Y-72644195D01*
X92068000Y-72680478D01*
X92068000Y-73271000D01*
X91412418Y-73271000D01*
X91402613Y-73271385D01*
X91398977Y-73271671D01*
X91371249Y-73272760D01*
X91366780Y-73272848D01*
X90974140Y-73272852D01*
X90961448Y-73271602D01*
X90949197Y-73271000D01*
X90498000Y-73271000D01*
X90498000Y-72021000D01*
X90791149Y-72021000D01*
X90815535Y-72018598D01*
X90838984Y-72011485D01*
X90860595Y-71999934D01*
X90879537Y-71984389D01*
X90895082Y-71965447D01*
X90906633Y-71943836D01*
X90913746Y-71920387D01*
X90916148Y-71896001D01*
X90916148Y-71877141D01*
X90917737Y-71861002D01*
X90920652Y-71851393D01*
X90925390Y-71842529D01*
X90931763Y-71834764D01*
X90939528Y-71828391D01*
X90948392Y-71823653D01*
X90958001Y-71820738D01*
X90974140Y-71819149D01*
X92111860Y-71819149D01*
X92127999Y-71820738D01*
G37*
G36*
X113321499Y-71820738D02*
G01*
X113331108Y-71823653D01*
X113339972Y-71828391D01*
X113347737Y-71834764D01*
X113354110Y-71842529D01*
X113358848Y-71851393D01*
X113361763Y-71861002D01*
X113363352Y-71877141D01*
X113363352Y-71896001D01*
X113365754Y-71920387D01*
X113372867Y-71943836D01*
X113384418Y-71965447D01*
X113399963Y-71984389D01*
X113418905Y-71999934D01*
X113440516Y-72011485D01*
X113463965Y-72018598D01*
X113488351Y-72021000D01*
X113781500Y-72021000D01*
X113781500Y-73271000D01*
X113330304Y-73271000D01*
X113318053Y-73271602D01*
X113305361Y-73272852D01*
X112912719Y-73272848D01*
X112908250Y-73272760D01*
X112880524Y-73271671D01*
X112876887Y-73271385D01*
X112867082Y-73271000D01*
X112211500Y-73271000D01*
X112211500Y-72680478D01*
X112209098Y-72656092D01*
X112201985Y-72632643D01*
X112190434Y-72611032D01*
X112174889Y-72592090D01*
X112145427Y-72570240D01*
X112133030Y-72563614D01*
X112125263Y-72557239D01*
X112118890Y-72549474D01*
X112114152Y-72540610D01*
X112111237Y-72531001D01*
X112109648Y-72514862D01*
X112109648Y-71877141D01*
X112111237Y-71861002D01*
X112114152Y-71851393D01*
X112118890Y-71842529D01*
X112125263Y-71834764D01*
X112133028Y-71828391D01*
X112141892Y-71823653D01*
X112151501Y-71820738D01*
X112167640Y-71819149D01*
X113305360Y-71819149D01*
X113321499Y-71820738D01*
G37*
G36*
X95477999Y-71820738D02*
G01*
X95487608Y-71823653D01*
X95496472Y-71828391D01*
X95504237Y-71834764D01*
X95510610Y-71842529D01*
X95515348Y-71851393D01*
X95518263Y-71861002D01*
X95519852Y-71877141D01*
X95519852Y-71896001D01*
X95522254Y-71920387D01*
X95529367Y-71943836D01*
X95540918Y-71965447D01*
X95556463Y-71984389D01*
X95575405Y-71999934D01*
X95597016Y-72011485D01*
X95620465Y-72018598D01*
X95644851Y-72021000D01*
X95938000Y-72021000D01*
X95938000Y-73271000D01*
X95486804Y-73271000D01*
X95474553Y-73271602D01*
X95461861Y-73272852D01*
X95069219Y-73272848D01*
X95064750Y-73272760D01*
X95037024Y-73271671D01*
X95033387Y-73271385D01*
X95023582Y-73271000D01*
X94368000Y-73271000D01*
X94368000Y-72680478D01*
X94365598Y-72656092D01*
X94358485Y-72632643D01*
X94346934Y-72611032D01*
X94331389Y-72592090D01*
X94301927Y-72570240D01*
X94289530Y-72563614D01*
X94281763Y-72557239D01*
X94275390Y-72549474D01*
X94270652Y-72540610D01*
X94267737Y-72531001D01*
X94266148Y-72514862D01*
X94266148Y-71877141D01*
X94267737Y-71861002D01*
X94270652Y-71851393D01*
X94275390Y-71842529D01*
X94281763Y-71834764D01*
X94289528Y-71828391D01*
X94298392Y-71823653D01*
X94308001Y-71820738D01*
X94324140Y-71819149D01*
X95461860Y-71819149D01*
X95477999Y-71820738D01*
G37*
M02*
