%TF.GenerationSoftware,KiCad,Pcbnew,(5.1.6)-1*%
%TF.CreationDate,2020-11-07T21:38:27+01:00*%
%TF.ProjectId,ArduinoProMicroUSB,41726475-696e-46f5-9072-6f4d6963726f,rev?*%
%TF.SameCoordinates,Original*%
%TF.FileFunction,Copper,L1,Top*%
%TF.FilePolarity,Positive*%
%FSLAX46Y46*%
G04 Gerber Fmt 4.6, Leading zero omitted, Abs format (unit mm)*
G04 Created by KiCad (PCBNEW (5.1.6)-1) date 2020-11-07 21:38:27*
%MOMM*%
%LPD*%
G01*
G04 APERTURE LIST*
%TA.AperFunction,SMDPad,CuDef*%
%ADD10R,1.399540X0.398780*%
%TD*%
%TA.AperFunction,SMDPad,CuDef*%
%ADD11R,1.498600X2.499360*%
%TD*%
%TA.AperFunction,SMDPad,CuDef*%
%ADD12R,1.498600X1.798320*%
%TD*%
%TA.AperFunction,SMDPad,CuDef*%
%ADD13R,0.260000X1.010000*%
%TD*%
%TA.AperFunction,SMDPad,CuDef*%
%ADD14R,1.010000X0.260000*%
%TD*%
%TA.AperFunction,SMDPad,CuDef*%
%ADD15R,0.998220X1.099820*%
%TD*%
%TA.AperFunction,SMDPad,CuDef*%
%ADD16R,0.860000X0.270000*%
%TD*%
%TA.AperFunction,SMDPad,CuDef*%
%ADD17R,0.800000X0.500000*%
%TD*%
%TA.AperFunction,ViaPad*%
%ADD18C,0.800000*%
%TD*%
%TA.AperFunction,SMDPad,CuDef*%
%ADD19C,0.100000*%
%TD*%
%TA.AperFunction,Conductor*%
%ADD20R,1.400000X1.100000*%
%TD*%
%TA.AperFunction,Conductor*%
%ADD21R,0.700000X1.100000*%
%TD*%
%TA.AperFunction,ComponentPad*%
%ADD22C,1.879600*%
%TD*%
%TA.AperFunction,SMDPad,CuDef*%
%ADD23R,1.000000X0.700000*%
%TD*%
%TA.AperFunction,SMDPad,CuDef*%
%ADD24R,0.600000X0.700000*%
%TD*%
%TA.AperFunction,SMDPad,CuDef*%
%ADD25R,0.797560X0.899160*%
%TD*%
%TA.AperFunction,SMDPad,CuDef*%
%ADD26R,1.000000X1.000000*%
%TD*%
%TA.AperFunction,SMDPad,CuDef*%
%ADD27R,1.899920X1.099820*%
%TD*%
%TA.AperFunction,SMDPad,CuDef*%
%ADD28R,1.099820X0.998220*%
%TD*%
%TA.AperFunction,ViaPad*%
%ADD29C,0.600000*%
%TD*%
%TA.AperFunction,Conductor*%
%ADD30C,0.200000*%
%TD*%
%TA.AperFunction,Conductor*%
%ADD31C,0.300000*%
%TD*%
%TA.AperFunction,Conductor*%
%ADD32C,0.250000*%
%TD*%
G04 APERTURE END LIST*
D10*
%TO.P,U3,VBUS*%
%TO.N,VCC*%
X91152980Y-82141060D03*
D11*
%TO.P,U3,SHLD*%
%TO.N,N/C*%
X88455500Y-83439000D03*
D12*
X88455500Y-79761080D03*
X88455500Y-87116920D03*
D10*
%TO.P,U3,ID*%
%TO.N,Net-(U3-PadID)*%
X91152980Y-84086700D03*
%TO.P,U3,GND*%
%TO.N,GND*%
X91152980Y-84736940D03*
%TO.P,U3,D-*%
%TO.N,Net-(R5-Pad2)*%
X91152980Y-82791300D03*
%TO.P,U3,D+*%
%TO.N,Net-(R7-Pad2)*%
X91152980Y-83439000D03*
%TD*%
%TO.P,D2,A*%
%TO.N,3.3V*%
%TA.AperFunction,SMDPad,CuDef*%
G36*
G01*
X102618250Y-88882060D02*
X102105750Y-88882060D01*
G75*
G02*
X101887000Y-88663310I0J218750D01*
G01*
X101887000Y-88225810D01*
G75*
G02*
X102105750Y-88007060I218750J0D01*
G01*
X102618250Y-88007060D01*
G75*
G02*
X102837000Y-88225810I0J-218750D01*
G01*
X102837000Y-88663310D01*
G75*
G02*
X102618250Y-88882060I-218750J0D01*
G01*
G37*
%TD.AperFunction*%
%TO.P,D2,C*%
%TO.N,Net-(D2-PadC)*%
%TA.AperFunction,SMDPad,CuDef*%
G36*
G01*
X102618250Y-90457060D02*
X102105750Y-90457060D01*
G75*
G02*
X101887000Y-90238310I0J218750D01*
G01*
X101887000Y-89800810D01*
G75*
G02*
X102105750Y-89582060I218750J0D01*
G01*
X102618250Y-89582060D01*
G75*
G02*
X102837000Y-89800810I0J-218750D01*
G01*
X102837000Y-90238310D01*
G75*
G02*
X102618250Y-90457060I-218750J0D01*
G01*
G37*
%TD.AperFunction*%
%TD*%
%TO.P,D3,A*%
%TO.N,3.3V*%
%TA.AperFunction,SMDPad,CuDef*%
G36*
G01*
X99880690Y-87937500D02*
X100393190Y-87937500D01*
G75*
G02*
X100611940Y-88156250I0J-218750D01*
G01*
X100611940Y-88593750D01*
G75*
G02*
X100393190Y-88812500I-218750J0D01*
G01*
X99880690Y-88812500D01*
G75*
G02*
X99661940Y-88593750I0J218750D01*
G01*
X99661940Y-88156250D01*
G75*
G02*
X99880690Y-87937500I218750J0D01*
G01*
G37*
%TD.AperFunction*%
%TO.P,D3,C*%
%TO.N,Net-(D3-PadC)*%
%TA.AperFunction,SMDPad,CuDef*%
G36*
G01*
X99880690Y-86362500D02*
X100393190Y-86362500D01*
G75*
G02*
X100611940Y-86581250I0J-218750D01*
G01*
X100611940Y-87018750D01*
G75*
G02*
X100393190Y-87237500I-218750J0D01*
G01*
X99880690Y-87237500D01*
G75*
G02*
X99661940Y-87018750I0J218750D01*
G01*
X99661940Y-86581250D01*
G75*
G02*
X99880690Y-86362500I218750J0D01*
G01*
G37*
%TD.AperFunction*%
%TD*%
D13*
%TO.P,U5,12*%
%TO.N,/D11*%
X104776900Y-83992300D03*
%TO.P,U5,13*%
%TO.N,Net-(R4-Pad2)*%
X105276900Y-83992300D03*
%TO.P,U5,14*%
%TO.N,3.3V*%
X105776900Y-83992300D03*
%TO.P,U5,15*%
%TO.N,GND*%
X106276900Y-83992300D03*
%TO.P,U5,16*%
%TO.N,Net-(C6-Pad1)*%
X106776900Y-83992300D03*
%TO.P,U5,17*%
%TO.N,Net-(C5-Pad1)*%
X107276900Y-83992300D03*
%TO.P,U5,18*%
%TO.N,/D3*%
X107776900Y-83992300D03*
%TO.P,U5,19*%
%TO.N,/D2*%
X108276900Y-83992300D03*
%TO.P,U5,20*%
%TO.N,/RXI*%
X108776900Y-83992300D03*
%TO.P,U5,21*%
%TO.N,/TXO*%
X109276900Y-83992300D03*
%TO.P,U5,22*%
%TO.N,Net-(R6-Pad1)*%
X109776900Y-83992300D03*
%TO.P,U5,34*%
%TO.N,3.3V*%
X109776900Y-77272300D03*
%TO.P,U5,35*%
%TO.N,GND*%
X109276900Y-77272300D03*
%TO.P,U5,36*%
%TO.N,Net-(U5-Pad36)*%
X108776900Y-77272300D03*
%TO.P,U5,37*%
%TO.N,Net-(U5-Pad37)*%
X108276900Y-77272300D03*
%TO.P,U5,38*%
%TO.N,Net-(U5-Pad38)*%
X107776900Y-77272300D03*
%TO.P,U5,39*%
%TO.N,/A3*%
X107276900Y-77272300D03*
%TO.P,U5,40*%
%TO.N,/A4*%
X106776900Y-77272300D03*
%TO.P,U5,41*%
%TO.N,/A5*%
X106276900Y-77272300D03*
%TO.P,U5,42*%
%TO.N,/AREF*%
X105776900Y-77272300D03*
%TO.P,U5,43*%
%TO.N,GND*%
X105276900Y-77272300D03*
%TO.P,U5,44*%
%TO.N,3.3V*%
X104776900Y-77272300D03*
D14*
%TO.P,U5,1*%
%TO.N,/BTN1*%
X103916900Y-78132300D03*
%TO.P,U5,2*%
%TO.N,Net-(U5-Pad2)*%
X103916900Y-78632300D03*
%TO.P,U5,3*%
%TO.N,/D-*%
X103916900Y-79132300D03*
%TO.P,U5,4*%
%TO.N,/D+*%
X103916900Y-79632300D03*
%TO.P,U5,5*%
%TO.N,GND*%
X103916900Y-80132300D03*
%TO.P,U5,6*%
%TO.N,3.3V*%
X103916900Y-80632300D03*
%TO.P,U5,7*%
%TO.N,VCC*%
X103916900Y-81132300D03*
%TO.P,U5,8*%
%TO.N,/D14*%
X103916900Y-81632300D03*
%TO.P,U5,9*%
%TO.N,/SCK*%
X103916900Y-82132300D03*
%TO.P,U5,10*%
%TO.N,/MOSI*%
X103916900Y-82632300D03*
%TO.P,U5,11*%
%TO.N,/MISO*%
X103916900Y-83132300D03*
%TO.P,U5,23*%
%TO.N,GND*%
X110636900Y-83132300D03*
%TO.P,U5,24*%
%TO.N,3.3V*%
X110636900Y-82632300D03*
%TO.P,U5,25*%
%TO.N,/D4*%
X110636900Y-82132300D03*
%TO.P,U5,26*%
%TO.N,/D12*%
X110636900Y-81632300D03*
%TO.P,U5,27*%
%TO.N,/D6*%
X110636900Y-81132300D03*
%TO.P,U5,28*%
%TO.N,/BTN3*%
X110636900Y-80632300D03*
%TO.P,U5,29*%
%TO.N,/BTN4*%
X110636900Y-80132300D03*
%TO.P,U5,30*%
%TO.N,/BTN2*%
X110636900Y-79632300D03*
%TO.P,U5,31*%
%TO.N,/D5*%
X110636900Y-79132300D03*
%TO.P,U5,32*%
%TO.N,/D13*%
X110636900Y-78632300D03*
%TO.P,U5,33*%
%TO.N,GND*%
X110636900Y-78132300D03*
%TD*%
D15*
%TO.P,C9,2*%
%TO.N,GND*%
X100076000Y-75402440D03*
%TO.P,C9,1*%
%TO.N,/BTN1*%
X100076000Y-77099160D03*
%TD*%
D16*
%TO.P,U4,1*%
%TO.N,GND*%
X95390500Y-83260500D03*
%TO.P,U4,2*%
%TO.N,VCC*%
X95390500Y-83760500D03*
%TO.P,U4,3*%
%TO.N,Net-(R2-Pad1)*%
X95390500Y-84260500D03*
%TO.P,U4,4*%
%TO.N,Net-(R10-Pad2)*%
X95390500Y-84760500D03*
%TO.P,U4,5*%
%TO.N,Net-(R16-Pad1)*%
X96760500Y-84760500D03*
%TO.P,U4,6*%
%TO.N,Net-(U4-Pad6)*%
X96760500Y-84260500D03*
%TO.P,U4,7*%
%TO.N,Net-(L1-Pad1)*%
X96760500Y-83760500D03*
%TO.P,U4,8*%
%TO.N,3.3V*%
X96760500Y-83260500D03*
%TD*%
D17*
%TO.P,U1,1*%
%TO.N,Net-(U1-Pad1)*%
X112938000Y-86788000D03*
%TO.P,U1,2*%
%TO.N,/D11*%
X112938000Y-87688000D03*
%TO.P,U1,3*%
%TO.N,/D3*%
X112938000Y-88588000D03*
%TO.P,U1,4*%
%TO.N,/D2*%
X112938000Y-89488000D03*
%TO.P,U1,5*%
%TO.N,GND*%
X114138000Y-89488000D03*
%TO.P,U1,6*%
%TO.N,3.3V*%
X114138000Y-88588000D03*
%TO.P,U1,7*%
X114138000Y-87688000D03*
%TO.P,U1,8*%
%TO.N,Net-(R9-Pad2)*%
X114138000Y-86788000D03*
%TD*%
D18*
%TO.N,/BTN3*%
%TO.C,SW1*%
X112911500Y-95898500D03*
%TA.AperFunction,SMDPad,CuDef*%
D19*
%TD*%
%TO.P,SW1,1*%
%TO.N,/BTN3*%
G36*
X112161500Y-96848499D02*
G01*
X112161500Y-96198498D01*
X112511500Y-96198498D01*
X112511500Y-95898500D01*
X112512733Y-95867116D01*
X112516424Y-95835926D01*
X112522551Y-95805122D01*
X112531076Y-95774894D01*
X112541947Y-95745427D01*
X112555095Y-95716904D01*
X112570442Y-95689501D01*
X112587891Y-95663387D01*
X112607335Y-95638722D01*
X112628655Y-95615658D01*
X112651718Y-95594339D01*
X112676383Y-95574894D01*
X112702498Y-95557445D01*
X112729901Y-95542099D01*
X112758424Y-95528950D01*
X112787891Y-95518080D01*
X112818119Y-95509555D01*
X112848923Y-95503428D01*
X112880113Y-95499737D01*
X112911497Y-95498504D01*
X113311500Y-95498500D01*
X113311500Y-96848499D01*
X112161500Y-96848499D01*
G37*
%TD.AperFunction*%
%TA.AperFunction,SMDPad,CuDef*%
%TO.P,SW1,2*%
%TO.N,GND*%
G36*
X108811500Y-96848499D02*
G01*
X108811500Y-95498500D01*
X109211504Y-95498504D01*
X109242887Y-95499737D01*
X109274077Y-95503428D01*
X109304882Y-95509555D01*
X109335110Y-95518080D01*
X109364577Y-95528950D01*
X109393099Y-95542099D01*
X109420503Y-95557446D01*
X109446617Y-95574895D01*
X109471282Y-95594339D01*
X109494346Y-95615658D01*
X109515665Y-95638722D01*
X109535109Y-95663387D01*
X109552558Y-95689501D01*
X109567905Y-95716905D01*
X109581054Y-95745427D01*
X109591924Y-95774894D01*
X109600449Y-95805122D01*
X109606576Y-95835927D01*
X109610267Y-95867117D01*
X109611500Y-95898500D01*
X109611500Y-96198498D01*
X109961500Y-96198498D01*
X109961500Y-96848499D01*
X108811500Y-96848499D01*
G37*
%TD.AperFunction*%
D18*
%TD*%
%TO.N,GND*%
%TO.C,SW1*%
X109211500Y-95898500D03*
D20*
%TO.N,GND*%
%TO.C,SW1*%
X111061500Y-94398500D03*
D21*
%TO.N,N/C*%
X112461500Y-94548500D03*
X109661500Y-94548500D03*
%TD*%
D18*
%TO.N,/BTN2*%
%TO.C,SW4*%
X109211500Y-72821000D03*
%TA.AperFunction,SMDPad,CuDef*%
D19*
%TD*%
%TO.P,SW4,1*%
%TO.N,/BTN2*%
G36*
X109961500Y-71871001D02*
G01*
X109961500Y-72521002D01*
X109611500Y-72521002D01*
X109611500Y-72821000D01*
X109610267Y-72852384D01*
X109606576Y-72883574D01*
X109600449Y-72914378D01*
X109591924Y-72944606D01*
X109581053Y-72974073D01*
X109567905Y-73002596D01*
X109552558Y-73029999D01*
X109535109Y-73056113D01*
X109515665Y-73080778D01*
X109494345Y-73103842D01*
X109471282Y-73125161D01*
X109446617Y-73144606D01*
X109420502Y-73162055D01*
X109393099Y-73177401D01*
X109364576Y-73190550D01*
X109335109Y-73201420D01*
X109304881Y-73209945D01*
X109274077Y-73216072D01*
X109242887Y-73219763D01*
X109211503Y-73220996D01*
X108811500Y-73221000D01*
X108811500Y-71871001D01*
X109961500Y-71871001D01*
G37*
%TD.AperFunction*%
%TA.AperFunction,SMDPad,CuDef*%
%TO.P,SW4,2*%
%TO.N,GND*%
G36*
X113311500Y-71871001D02*
G01*
X113311500Y-73221000D01*
X112911496Y-73220996D01*
X112880113Y-73219763D01*
X112848923Y-73216072D01*
X112818118Y-73209945D01*
X112787890Y-73201420D01*
X112758423Y-73190550D01*
X112729901Y-73177401D01*
X112702497Y-73162054D01*
X112676383Y-73144605D01*
X112651718Y-73125161D01*
X112628654Y-73103842D01*
X112607335Y-73080778D01*
X112587891Y-73056113D01*
X112570442Y-73029999D01*
X112555095Y-73002595D01*
X112541946Y-72974073D01*
X112531076Y-72944606D01*
X112522551Y-72914378D01*
X112516424Y-72883573D01*
X112512733Y-72852383D01*
X112511500Y-72821000D01*
X112511500Y-72521002D01*
X112161500Y-72521002D01*
X112161500Y-71871001D01*
X113311500Y-71871001D01*
G37*
%TD.AperFunction*%
D18*
%TD*%
%TO.N,GND*%
%TO.C,SW4*%
X112911500Y-72821000D03*
D20*
%TO.N,GND*%
%TO.C,SW4*%
X111061500Y-74321000D03*
D21*
%TO.N,N/C*%
X109661500Y-74171000D03*
X112461500Y-74171000D03*
%TD*%
D18*
%TO.N,/BTN1*%
%TO.C,SW2*%
X91368000Y-72821000D03*
%TA.AperFunction,SMDPad,CuDef*%
D19*
%TD*%
%TO.P,SW2,1*%
%TO.N,/BTN1*%
G36*
X92118000Y-71871001D02*
G01*
X92118000Y-72521002D01*
X91768000Y-72521002D01*
X91768000Y-72821000D01*
X91766767Y-72852384D01*
X91763076Y-72883574D01*
X91756949Y-72914378D01*
X91748424Y-72944606D01*
X91737553Y-72974073D01*
X91724405Y-73002596D01*
X91709058Y-73029999D01*
X91691609Y-73056113D01*
X91672165Y-73080778D01*
X91650845Y-73103842D01*
X91627782Y-73125161D01*
X91603117Y-73144606D01*
X91577002Y-73162055D01*
X91549599Y-73177401D01*
X91521076Y-73190550D01*
X91491609Y-73201420D01*
X91461381Y-73209945D01*
X91430577Y-73216072D01*
X91399387Y-73219763D01*
X91368003Y-73220996D01*
X90968000Y-73221000D01*
X90968000Y-71871001D01*
X92118000Y-71871001D01*
G37*
%TD.AperFunction*%
%TA.AperFunction,SMDPad,CuDef*%
%TO.P,SW2,2*%
%TO.N,GND*%
G36*
X95468000Y-71871001D02*
G01*
X95468000Y-73221000D01*
X95067996Y-73220996D01*
X95036613Y-73219763D01*
X95005423Y-73216072D01*
X94974618Y-73209945D01*
X94944390Y-73201420D01*
X94914923Y-73190550D01*
X94886401Y-73177401D01*
X94858997Y-73162054D01*
X94832883Y-73144605D01*
X94808218Y-73125161D01*
X94785154Y-73103842D01*
X94763835Y-73080778D01*
X94744391Y-73056113D01*
X94726942Y-73029999D01*
X94711595Y-73002595D01*
X94698446Y-72974073D01*
X94687576Y-72944606D01*
X94679051Y-72914378D01*
X94672924Y-72883573D01*
X94669233Y-72852383D01*
X94668000Y-72821000D01*
X94668000Y-72521002D01*
X94318000Y-72521002D01*
X94318000Y-71871001D01*
X95468000Y-71871001D01*
G37*
%TD.AperFunction*%
D18*
%TD*%
%TO.N,GND*%
%TO.C,SW2*%
X95068000Y-72821000D03*
D20*
%TO.N,GND*%
%TO.C,SW2*%
X93218000Y-74321000D03*
D21*
%TO.N,N/C*%
X91818000Y-74171000D03*
X94618000Y-74171000D03*
%TD*%
D22*
%TO.P,J1,2*%
%TO.N,GND*%
X101155500Y-72834500D03*
%TO.P,J1,1*%
%TO.N,VCC*%
X98615500Y-72834500D03*
%TD*%
D23*
%TO.P,D4,1*%
%TO.N,GND*%
X98678300Y-80540100D03*
D24*
%TO.P,D4,2*%
%TO.N,/D+*%
X100378300Y-80540100D03*
%TO.P,D4,3*%
%TO.N,/D-*%
X100378300Y-78540100D03*
%TO.P,D4,4*%
%TO.N,VCC*%
X98478300Y-78540100D03*
%TD*%
D25*
%TO.P,Q1,3*%
%TO.N,Net-(Q1-Pad3)*%
X100838000Y-89895680D03*
%TO.P,Q1,2*%
%TO.N,GND*%
X101787960Y-91993720D03*
%TO.P,Q1,1*%
%TO.N,Net-(Q1-Pad1)*%
X99888040Y-91993720D03*
%TD*%
D26*
%TO.P,CS,1*%
%TO.N,/D12*%
X97980500Y-95631000D03*
%TD*%
%TO.P,MOSI,1*%
%TO.N,/MOSI*%
X102171500Y-95631000D03*
%TD*%
%TO.P,SCK,1*%
%TO.N,/SCK*%
X100076000Y-95631000D03*
%TD*%
%TO.P,GND,1*%
%TO.N,GND*%
X106426000Y-95631000D03*
%TD*%
%TO.P,VCC,1*%
%TO.N,VCC*%
X104330500Y-95631000D03*
%TD*%
D27*
%TO.P,Y1,4*%
%TO.N,N/C*%
X106100880Y-87751920D03*
%TO.P,Y1,3*%
%TO.N,Net-(C5-Pad1)*%
X109799120Y-87751920D03*
%TO.P,Y1,2*%
%TO.N,N/C*%
X109799120Y-90048080D03*
%TO.P,Y1,1*%
%TO.N,Net-(C6-Pad1)*%
X106100880Y-90048080D03*
%TD*%
D18*
%TO.N,/BTN4*%
%TO.C,SW3*%
X95068000Y-95898500D03*
%TA.AperFunction,SMDPad,CuDef*%
D19*
%TD*%
%TO.P,SW3,1*%
%TO.N,/BTN4*%
G36*
X94318000Y-96848499D02*
G01*
X94318000Y-96198498D01*
X94668000Y-96198498D01*
X94668000Y-95898500D01*
X94669233Y-95867116D01*
X94672924Y-95835926D01*
X94679051Y-95805122D01*
X94687576Y-95774894D01*
X94698447Y-95745427D01*
X94711595Y-95716904D01*
X94726942Y-95689501D01*
X94744391Y-95663387D01*
X94763835Y-95638722D01*
X94785155Y-95615658D01*
X94808218Y-95594339D01*
X94832883Y-95574894D01*
X94858998Y-95557445D01*
X94886401Y-95542099D01*
X94914924Y-95528950D01*
X94944391Y-95518080D01*
X94974619Y-95509555D01*
X95005423Y-95503428D01*
X95036613Y-95499737D01*
X95067997Y-95498504D01*
X95468000Y-95498500D01*
X95468000Y-96848499D01*
X94318000Y-96848499D01*
G37*
%TD.AperFunction*%
%TA.AperFunction,SMDPad,CuDef*%
%TO.P,SW3,2*%
%TO.N,GND*%
G36*
X90968000Y-96848499D02*
G01*
X90968000Y-95498500D01*
X91368004Y-95498504D01*
X91399387Y-95499737D01*
X91430577Y-95503428D01*
X91461382Y-95509555D01*
X91491610Y-95518080D01*
X91521077Y-95528950D01*
X91549599Y-95542099D01*
X91577003Y-95557446D01*
X91603117Y-95574895D01*
X91627782Y-95594339D01*
X91650846Y-95615658D01*
X91672165Y-95638722D01*
X91691609Y-95663387D01*
X91709058Y-95689501D01*
X91724405Y-95716905D01*
X91737554Y-95745427D01*
X91748424Y-95774894D01*
X91756949Y-95805122D01*
X91763076Y-95835927D01*
X91766767Y-95867117D01*
X91768000Y-95898500D01*
X91768000Y-96198498D01*
X92118000Y-96198498D01*
X92118000Y-96848499D01*
X90968000Y-96848499D01*
G37*
%TD.AperFunction*%
D18*
%TD*%
%TO.N,GND*%
%TO.C,SW3*%
X91368000Y-95898500D03*
D20*
%TO.N,GND*%
%TO.C,SW3*%
X93218000Y-94398500D03*
D21*
%TO.N,N/C*%
X94618000Y-94548500D03*
X91818000Y-94548500D03*
%TD*%
D28*
%TO.P,C1,2*%
%TO.N,GND*%
X112341580Y-90868500D03*
%TO.P,C1,1*%
%TO.N,3.3V*%
X114038300Y-90868500D03*
%TD*%
%TO.P,C2,2*%
%TO.N,GND*%
X108498640Y-92138500D03*
%TO.P,C2,1*%
%TO.N,3.3V*%
X110195360Y-92138500D03*
%TD*%
%TO.P,C5,2*%
%TO.N,GND*%
X110449360Y-86106000D03*
%TO.P,C5,1*%
%TO.N,Net-(C5-Pad1)*%
X108752640Y-86106000D03*
%TD*%
%TO.P,C6,2*%
%TO.N,GND*%
X105450640Y-86106000D03*
%TO.P,C6,1*%
%TO.N,Net-(C6-Pad1)*%
X107147360Y-86106000D03*
%TD*%
D15*
%TO.P,C7,2*%
%TO.N,GND*%
X93408500Y-91843860D03*
%TO.P,C7,1*%
%TO.N,3.3V*%
X93408500Y-90147140D03*
%TD*%
D28*
%TO.P,C10,2*%
%TO.N,/AREF*%
X105623360Y-75628500D03*
%TO.P,C10,1*%
%TO.N,GND*%
X103926640Y-75628500D03*
%TD*%
%TO.P,C11,2*%
%TO.N,3.3V*%
X101813360Y-81851500D03*
%TO.P,C11,1*%
%TO.N,GND*%
X100116640Y-81851500D03*
%TD*%
%TO.P,C12,2*%
%TO.N,GND*%
X100396040Y-83591400D03*
%TO.P,C12,1*%
%TO.N,VCC*%
X102092760Y-83591400D03*
%TD*%
%TO.P,C14,2*%
%TO.N,GND*%
X114005360Y-83502500D03*
%TO.P,C14,1*%
%TO.N,/BTN3*%
X112308640Y-83502500D03*
%TD*%
%TO.P,C15,2*%
%TO.N,GND*%
X114005360Y-81978500D03*
%TO.P,C15,1*%
%TO.N,/BTN4*%
X112308640Y-81978500D03*
%TD*%
%TO.P,C16,2*%
%TO.N,GND*%
X114005360Y-77216000D03*
%TO.P,C16,1*%
%TO.N,/BTN2*%
X112308640Y-77216000D03*
%TD*%
D15*
%TO.P,C17,2*%
%TO.N,GND*%
X93853000Y-81965800D03*
%TO.P,C17,1*%
%TO.N,VCC*%
X93853000Y-83662520D03*
%TD*%
D28*
%TO.P,C18,2*%
%TO.N,GND*%
X95417640Y-81915000D03*
%TO.P,C18,1*%
%TO.N,3.3V*%
X97114360Y-81915000D03*
%TD*%
D15*
%TO.P,L1,2*%
%TO.N,3.3V*%
X98374200Y-83479640D03*
%TO.P,L1,1*%
%TO.N,Net-(L1-Pad1)*%
X98374200Y-85176360D03*
%TD*%
%TO.P,R1,2*%
%TO.N,3.3V*%
X94996000Y-90134440D03*
%TO.P,R1,1*%
%TO.N,Net-(Q1-Pad1)*%
X94996000Y-91831160D03*
%TD*%
%TO.P,R2,2*%
%TO.N,GND*%
X93853000Y-86954360D03*
%TO.P,R2,1*%
%TO.N,Net-(R2-Pad1)*%
X93853000Y-85257640D03*
%TD*%
%TO.P,R3,2*%
%TO.N,3.3V*%
X96774000Y-90147140D03*
%TO.P,R3,1*%
%TO.N,Net-(Q1-Pad1)*%
X96774000Y-91843860D03*
%TD*%
D28*
%TO.P,R4,2*%
%TO.N,Net-(R4-Pad2)*%
X102174040Y-86766400D03*
%TO.P,R4,1*%
%TO.N,3.3V*%
X103870760Y-86766400D03*
%TD*%
%TO.P,R5,2*%
%TO.N,Net-(R5-Pad2)*%
X95417640Y-78778100D03*
%TO.P,R5,1*%
%TO.N,/D-*%
X97114360Y-78778100D03*
%TD*%
D15*
%TO.P,R6,2*%
%TO.N,Net-(D2-PadC)*%
X104013000Y-88305640D03*
%TO.P,R6,1*%
%TO.N,Net-(R6-Pad1)*%
X104013000Y-90002360D03*
%TD*%
D28*
%TO.P,R7,2*%
%TO.N,Net-(R7-Pad2)*%
X95417640Y-80340200D03*
%TO.P,R7,1*%
%TO.N,/D+*%
X97114360Y-80340200D03*
%TD*%
D15*
%TO.P,R8,2*%
%TO.N,Net-(Q1-Pad3)*%
X98361500Y-90147140D03*
%TO.P,R8,1*%
%TO.N,/LEDK*%
X98361500Y-91843860D03*
%TD*%
%TO.P,R9,2*%
%TO.N,Net-(R9-Pad2)*%
X115633500Y-87037700D03*
%TO.P,R9,1*%
%TO.N,3.3V*%
X115633500Y-88734420D03*
%TD*%
%TO.P,R10,2*%
%TO.N,Net-(R10-Pad2)*%
X95366840Y-86146640D03*
%TO.P,R10,1*%
%TO.N,VCC*%
X95366840Y-87843360D03*
%TD*%
D28*
%TO.P,R11,2*%
%TO.N,Net-(D3-PadC)*%
X100396040Y-85217000D03*
%TO.P,R11,1*%
%TO.N,/D14*%
X102092760Y-85217000D03*
%TD*%
D15*
%TO.P,R12,2*%
%TO.N,/BTN1*%
X101854000Y-77099160D03*
%TO.P,R12,1*%
%TO.N,3.3V*%
X101854000Y-75402440D03*
%TD*%
D28*
%TO.P,R13,2*%
%TO.N,/BTN3*%
X112308640Y-85344000D03*
%TO.P,R13,1*%
%TO.N,3.3V*%
X114005360Y-85344000D03*
%TD*%
%TO.P,R14,2*%
%TO.N,/BTN4*%
X112308640Y-80391000D03*
%TO.P,R14,1*%
%TO.N,3.3V*%
X114005360Y-80391000D03*
%TD*%
%TO.P,R15,2*%
%TO.N,/BTN2*%
X112308640Y-78803500D03*
%TO.P,R15,1*%
%TO.N,3.3V*%
X114005360Y-78803500D03*
%TD*%
D15*
%TO.P,R16,2*%
%TO.N,GND*%
X96875600Y-87817960D03*
%TO.P,R16,1*%
%TO.N,Net-(R16-Pad1)*%
X96875600Y-86121240D03*
%TD*%
D29*
%TO.N,3.3V*%
X105854500Y-79121000D03*
X112141000Y-86868000D03*
X108762800Y-82931000D03*
X105283000Y-82931000D03*
%TO.N,GND*%
X113995200Y-76225400D03*
X93700600Y-79298800D03*
X108204000Y-88798400D03*
X107950000Y-76200000D03*
X107950000Y-80035400D03*
X92329000Y-91846400D03*
X102908100Y-75628500D03*
X99326700Y-83883500D03*
X104965500Y-79057500D03*
X106362500Y-92138500D03*
X98933000Y-81534000D03*
X94234000Y-88074500D03*
X106172000Y-78295500D03*
X107442000Y-92138500D03*
X109702600Y-85090000D03*
X106299000Y-82931000D03*
X114274600Y-84378800D03*
X108508800Y-78282800D03*
X93154500Y-78295500D03*
X96240600Y-88976200D03*
X92659200Y-83540600D03*
%TO.N,/BTN1*%
X98742500Y-77279500D03*
%TO.N,VCC*%
X93599000Y-88798400D03*
X105600500Y-92138500D03*
X98679000Y-88265000D03*
%TO.N,/BTN3*%
X109118400Y-81178400D03*
%TO.N,/BTN4*%
X108521500Y-80645000D03*
%TO.N,/BTN2*%
X109156500Y-80010000D03*
%TO.N,/LEDK*%
X94170500Y-78168500D03*
X100838000Y-90995500D03*
%TO.N,/D4*%
X109220000Y-82423000D03*
%TO.N,/D5*%
X106553000Y-81724500D03*
X107315000Y-79375000D03*
%TO.N,/SCK*%
X103987600Y-92138500D03*
X105600500Y-80581500D03*
%TO.N,/MOSI*%
X104775000Y-92138500D03*
X106235500Y-81026000D03*
%TO.N,Net-(R6-Pad1)*%
X111379000Y-84836000D03*
X110490000Y-83820000D03*
%TO.N,/D3*%
X112141000Y-88582500D03*
X108966000Y-85090000D03*
%TO.N,/D2*%
X112141000Y-89471500D03*
X107315000Y-82931000D03*
%TO.N,/D11*%
X112141000Y-87693500D03*
X104140000Y-84010500D03*
%TO.N,/D12*%
X103187500Y-92138500D03*
X107823000Y-81788000D03*
%TD*%
D30*
%TO.N,3.3V*%
X101813360Y-81851500D02*
X101813360Y-81309037D01*
X102490097Y-80632300D02*
X103916900Y-80632300D01*
X101813360Y-81309037D02*
X102490097Y-80632300D01*
X105776900Y-83424900D02*
X105776900Y-83992300D01*
X105283000Y-82931000D02*
X105776900Y-83424900D01*
X109961898Y-82632300D02*
X110636900Y-82632300D01*
X109571197Y-83023001D02*
X109961898Y-82632300D01*
X108610400Y-82931000D02*
X108702401Y-83023001D01*
X108702401Y-83023001D02*
X109571197Y-83023001D01*
X108585000Y-82931000D02*
X108610400Y-82931000D01*
X103698460Y-77272300D02*
X104776900Y-77272300D01*
X101854000Y-75427840D02*
X103698460Y-77272300D01*
X101854000Y-75377040D02*
X101854000Y-75427840D01*
X103870760Y-86766400D02*
X103870760Y-85918040D01*
X104578190Y-85210610D02*
X105299291Y-85210610D01*
X103870760Y-85918040D02*
X104578190Y-85210610D01*
X105776900Y-84733001D02*
X105776900Y-83992300D01*
X105299291Y-85210610D02*
X105776900Y-84733001D01*
X105854500Y-79435400D02*
X105854500Y-79121000D01*
X104657600Y-80632300D02*
X105854500Y-79435400D01*
X103916900Y-80632300D02*
X104657600Y-80632300D01*
X114005360Y-78803500D02*
X114005360Y-80391000D01*
X114855271Y-77955111D02*
X114006882Y-78803500D01*
X110591600Y-77698600D02*
X110813302Y-77698600D01*
X111029790Y-77482112D02*
X111029790Y-76415311D01*
X110813302Y-77698600D02*
X111029790Y-77482112D01*
X109776900Y-77272300D02*
X110165300Y-77272300D01*
X111029790Y-76415311D02*
X111543511Y-75901590D01*
X110165300Y-77272300D02*
X110591600Y-77698600D01*
X114006882Y-78803500D02*
X114005360Y-78803500D01*
X114874601Y-84666801D02*
X114197402Y-85344000D01*
X114197402Y-85344000D02*
X114005360Y-85344000D01*
X114874601Y-80510331D02*
X114874601Y-84666801D01*
X114755270Y-80391000D02*
X114874601Y-80510331D01*
X114005360Y-80391000D02*
X114755270Y-80391000D01*
X114138000Y-87688000D02*
X114138000Y-88588000D01*
X115489140Y-88588000D02*
X115633500Y-88732360D01*
X114138000Y-88588000D02*
X115489140Y-88588000D01*
X115633500Y-89240360D02*
X115633500Y-88732360D01*
X114005360Y-90868500D02*
X115633500Y-89240360D01*
X112735360Y-92138500D02*
X114005360Y-90868500D01*
X110195360Y-92138500D02*
X112735360Y-92138500D01*
X112141000Y-86394998D02*
X112141000Y-86868000D01*
X112392887Y-86143111D02*
X112141000Y-86394998D01*
X113206249Y-86143111D02*
X112392887Y-86143111D01*
X114005360Y-85344000D02*
X113206249Y-86143111D01*
X114005360Y-85344000D02*
X114503200Y-85344000D01*
X114005360Y-85344000D02*
X114528600Y-85344000D01*
X114528600Y-85344000D02*
X115316000Y-86131400D01*
X116318282Y-86131400D02*
X116509800Y-86322918D01*
X115316000Y-86131400D02*
X116318282Y-86131400D01*
X116509800Y-87856060D02*
X115633500Y-88732360D01*
X116509800Y-86322918D02*
X116509800Y-87856060D01*
X102362000Y-88493500D02*
X102362000Y-88366600D01*
X103870760Y-86857840D02*
X103870760Y-86766400D01*
X102362000Y-88366600D02*
X103870760Y-86857840D01*
X100212940Y-88493500D02*
X100136940Y-88417500D01*
X102362000Y-88493500D02*
X100212940Y-88493500D01*
X97623911Y-89297229D02*
X96774000Y-90147140D01*
X99257211Y-89297229D02*
X97623911Y-89297229D01*
X100136940Y-88417500D02*
X99257211Y-89297229D01*
X96774000Y-90147140D02*
X93408500Y-90147140D01*
X105854500Y-79090600D02*
X105854500Y-79121000D01*
X109776900Y-78013000D02*
X109776900Y-77272300D01*
X108907099Y-78882801D02*
X109776900Y-78013000D01*
X108220799Y-78882801D02*
X108907099Y-78882801D01*
X108077998Y-78740000D02*
X108220799Y-78882801D01*
X107061998Y-78740000D02*
X108077998Y-78740000D01*
X106680998Y-79121000D02*
X107061998Y-78740000D01*
X105854500Y-79121000D02*
X106680998Y-79121000D01*
X109706901Y-77202301D02*
X109776900Y-77272300D01*
X109706901Y-76527299D02*
X109706901Y-77202301D01*
X101854000Y-75377040D02*
X102401651Y-74829389D01*
X108008991Y-74829389D02*
X109706901Y-76527299D01*
X102401651Y-74829389D02*
X108008991Y-74829389D01*
X111543511Y-75901590D02*
X111543511Y-75883089D01*
X111801201Y-75625399D02*
X114283201Y-75625399D01*
X111543511Y-75883089D02*
X111801201Y-75625399D01*
X114855271Y-76197469D02*
X114855271Y-77955111D01*
X114283201Y-75625399D02*
X114855271Y-76197469D01*
D31*
X98155060Y-83260500D02*
X98374200Y-83479640D01*
X96760500Y-83260500D02*
X98155060Y-83260500D01*
X96760500Y-82268860D02*
X97114360Y-81915000D01*
X96760500Y-83260500D02*
X96760500Y-82268860D01*
X101721681Y-82742289D02*
X99111551Y-82742289D01*
X99111551Y-82742289D02*
X98374200Y-83479640D01*
X101813360Y-82650610D02*
X101721681Y-82742289D01*
X101813360Y-81851500D02*
X101813360Y-82650610D01*
D30*
%TO.N,GND*%
X103916900Y-80132300D02*
X102424398Y-80132300D01*
X102424398Y-80132300D02*
X101556098Y-81000600D01*
X101107802Y-81000600D02*
X100256902Y-81851500D01*
X100256902Y-81851500D02*
X100116640Y-81851500D01*
X101556098Y-81000600D02*
X101107802Y-81000600D01*
X106299000Y-83970200D02*
X106276900Y-83992300D01*
X106299000Y-82931000D02*
X106299000Y-83970200D01*
X99250500Y-81851500D02*
X98933000Y-81534000D01*
X100116640Y-81851500D02*
X99250500Y-81851500D01*
X98933000Y-80794800D02*
X98678300Y-80540100D01*
X98933000Y-81534000D02*
X98933000Y-80794800D01*
X100116640Y-83312000D02*
X100396040Y-83591400D01*
X99618800Y-83591400D02*
X99326700Y-83883500D01*
X100396040Y-83591400D02*
X99618800Y-83591400D01*
X95377000Y-81955640D02*
X95417640Y-81915000D01*
X95417640Y-83233360D02*
X95390500Y-83260500D01*
X93769096Y-81955640D02*
X93853000Y-81955640D01*
X92684600Y-83124040D02*
X93853000Y-81955640D01*
X92684600Y-83502500D02*
X92684600Y-83124040D01*
X92684600Y-83994242D02*
X92684600Y-83502500D01*
X91941902Y-84736940D02*
X92684600Y-83994242D01*
X91152980Y-84736940D02*
X91941902Y-84736940D01*
X105450640Y-86106000D02*
X105450640Y-85658960D01*
X106276900Y-84832700D02*
X106276900Y-83992300D01*
X105450640Y-85658960D02*
X106276900Y-84832700D01*
X104965500Y-79758702D02*
X104965500Y-79057500D01*
X104591902Y-80132300D02*
X104965500Y-79758702D01*
X103916900Y-80132300D02*
X104591902Y-80132300D01*
X105276900Y-77947302D02*
X105276900Y-77272300D01*
X105625098Y-78295500D02*
X105276900Y-77947302D01*
X106172000Y-78295500D02*
X105625098Y-78295500D01*
X107950000Y-80035400D02*
X107950000Y-79883000D01*
X107253009Y-80732391D02*
X107950000Y-80035400D01*
X107253009Y-81590190D02*
X107253009Y-80732391D01*
X107153001Y-81690198D02*
X107253009Y-81590190D01*
X107153001Y-82076999D02*
X107153001Y-81690198D01*
X106299000Y-82931000D02*
X107153001Y-82076999D01*
X114005360Y-84109560D02*
X114274600Y-84378800D01*
X114005360Y-83502500D02*
X114005360Y-84109560D01*
X114005360Y-83502500D02*
X114005360Y-81978500D01*
X110636900Y-78132300D02*
X110945300Y-78132300D01*
X110945300Y-78132300D02*
X111429800Y-77647800D01*
X111429800Y-77647800D02*
X111429800Y-76581000D01*
X111429800Y-76581000D02*
X111709200Y-76301600D01*
X113090960Y-76301600D02*
X114005360Y-77216000D01*
X111709200Y-76301600D02*
X113090960Y-76301600D01*
X114006611Y-90069389D02*
X113107751Y-90069389D01*
X114138000Y-89938000D02*
X114006611Y-90069389D01*
X113107751Y-90069389D02*
X112308640Y-90868500D01*
X114138000Y-89488000D02*
X114138000Y-89938000D01*
X111940340Y-91236800D02*
X112308640Y-90868500D01*
X106362500Y-95567500D02*
X106426000Y-95631000D01*
X106362500Y-92138500D02*
X106362500Y-95567500D01*
X106362500Y-92138500D02*
X107442000Y-92138500D01*
X108498640Y-92138500D02*
X107442000Y-92138500D01*
X111061500Y-95148500D02*
X110311500Y-95898500D01*
X111061500Y-94398500D02*
X111061500Y-95148500D01*
X93218000Y-94626885D02*
X93218000Y-94411200D01*
X91933685Y-95911200D02*
X93218000Y-94626885D01*
X91368000Y-95911200D02*
X91933685Y-95911200D01*
X93218000Y-74094001D02*
X93218000Y-74194000D01*
X94893000Y-72419001D02*
X93218000Y-74094001D01*
X111061500Y-74105315D02*
X111061500Y-74321000D01*
X112345815Y-72821000D02*
X111061500Y-74105315D01*
X112911500Y-72821000D02*
X112345815Y-72821000D01*
X92331540Y-91843860D02*
X92329000Y-91846400D01*
X93408500Y-91843860D02*
X92331540Y-91843860D01*
X105888501Y-91538499D02*
X106362500Y-92012498D01*
X102243181Y-91538499D02*
X105888501Y-91538499D01*
X106362500Y-92012498D02*
X106362500Y-92138500D01*
X101787960Y-91993720D02*
X102243181Y-91538499D01*
X110449360Y-85811360D02*
X109728000Y-85090000D01*
X110449360Y-86106000D02*
X110449360Y-85811360D01*
X110690302Y-83132300D02*
X110636900Y-83132300D01*
X111090001Y-83531999D02*
X110690302Y-83132300D01*
X111090001Y-84152263D02*
X111090001Y-83531999D01*
X110152264Y-85090000D02*
X111090001Y-84152263D01*
X109728000Y-85090000D02*
X110152264Y-85090000D01*
X108498640Y-92138500D02*
X108498640Y-91932760D01*
X108498640Y-91932760D02*
X109133399Y-91298001D01*
X111879139Y-91298001D02*
X112308640Y-90868500D01*
X109133399Y-91298001D02*
X111879139Y-91298001D01*
X103926640Y-75628500D02*
X102908100Y-75628500D01*
X105206901Y-77202301D02*
X105276900Y-77272300D01*
X105206901Y-76527299D02*
X105206901Y-77202301D01*
X104725751Y-76427611D02*
X105107213Y-76427611D01*
X105107213Y-76427611D02*
X105206901Y-76527299D01*
X103926640Y-75628500D02*
X104725751Y-76427611D01*
X100076000Y-73914000D02*
X101155500Y-72834500D01*
X100076000Y-75402440D02*
X100076000Y-73914000D01*
X109276900Y-77947302D02*
X109276900Y-77272300D01*
X108941402Y-78282800D02*
X109276900Y-77947302D01*
X108508800Y-78282800D02*
X108941402Y-78282800D01*
X105727500Y-78295500D02*
X106172000Y-78295500D01*
X104965500Y-79057500D02*
X105727500Y-78295500D01*
X113995200Y-77205840D02*
X114005360Y-77216000D01*
X113995200Y-76225400D02*
X113995200Y-77205840D01*
X111049081Y-88541831D02*
X110792512Y-88798400D01*
X111049081Y-86705721D02*
X111049081Y-88541831D01*
X110792512Y-88798400D02*
X108204000Y-88798400D01*
X110449360Y-86106000D02*
X111049081Y-86705721D01*
D32*
X97165160Y-87843360D02*
X97165160Y-88051640D01*
X96240600Y-88452960D02*
X96875600Y-87817960D01*
X96240600Y-88976200D02*
X96240600Y-88452960D01*
D31*
X95390500Y-81942140D02*
X95417640Y-81915000D01*
X95390500Y-83260500D02*
X95390500Y-81942140D01*
X93903800Y-81915000D02*
X93853000Y-81965800D01*
X95417640Y-81915000D02*
X93903800Y-81915000D01*
D30*
X110311500Y-95898500D02*
X109211500Y-95898500D01*
D32*
X93853000Y-87693500D02*
X94234000Y-88074500D01*
X93853000Y-86954360D02*
X93853000Y-87693500D01*
D30*
%TO.N,Net-(C5-Pad1)*%
X108649899Y-86106000D02*
X108752640Y-86106000D01*
X107276900Y-83992300D02*
X107276900Y-84733001D01*
X107276900Y-84733001D02*
X108649899Y-86106000D01*
X108752640Y-86705440D02*
X109799120Y-87751920D01*
X108752640Y-86106000D02*
X108752640Y-86705440D01*
%TO.N,Net-(C6-Pad1)*%
X106776900Y-83992300D02*
X106776900Y-84907500D01*
X107147360Y-85277960D02*
X107147360Y-86106000D01*
X106776900Y-84907500D02*
X107147360Y-85277960D01*
X107350841Y-86309481D02*
X107147360Y-86106000D01*
X107350841Y-88798119D02*
X107350841Y-86309481D01*
X106100880Y-90048080D02*
X107350841Y-88798119D01*
%TO.N,/BTN1*%
X101854000Y-77073760D02*
X101854000Y-77876400D01*
X102109900Y-78132300D02*
X103916900Y-78132300D01*
X101854000Y-77876400D02*
X102109900Y-78132300D01*
X100101400Y-77073760D02*
X100076000Y-77099160D01*
X101854000Y-77073760D02*
X100101400Y-77073760D01*
X98922840Y-77099160D02*
X98742500Y-77279500D01*
X100076000Y-77099160D02*
X98922840Y-77099160D01*
%TO.N,/AREF*%
X105623360Y-76413360D02*
X105846899Y-76636899D01*
X105623360Y-75628500D02*
X105623360Y-76413360D01*
X105846899Y-77202301D02*
X105776900Y-77272300D01*
X105846899Y-76636899D02*
X105846899Y-77202301D01*
%TO.N,VCC*%
X93961140Y-83760500D02*
X93853000Y-83652360D01*
X103188601Y-81132300D02*
X103916900Y-81132300D01*
X102663271Y-81657630D02*
X103188601Y-81132300D01*
X102663271Y-82590611D02*
X102663271Y-81657630D01*
X102092760Y-83591400D02*
X102092760Y-83161122D01*
X102092760Y-83161122D02*
X102663271Y-82590611D01*
X91152980Y-82141060D02*
X91970484Y-82141060D01*
X91970484Y-82121116D02*
X92253869Y-81837731D01*
X91970484Y-82141060D02*
X91970484Y-82121116D01*
X92253869Y-78308129D02*
X92993499Y-77568499D01*
X92253869Y-81837731D02*
X92253869Y-78308129D01*
X97506699Y-77568499D02*
X98478300Y-78540100D01*
X92993499Y-77568499D02*
X97506699Y-77568499D01*
X92008209Y-85236331D02*
X93192600Y-84051940D01*
X90153209Y-85176331D02*
X90213209Y-85236331D01*
X90364058Y-82141060D02*
X90153209Y-82351909D01*
X91152980Y-82141060D02*
X90364058Y-82141060D01*
X90153209Y-82351909D02*
X90153209Y-85176331D01*
X90213209Y-85236331D02*
X92008209Y-85236331D01*
X93453420Y-84051940D02*
X93853000Y-83652360D01*
X93192600Y-84051940D02*
X93453420Y-84051940D01*
X94421960Y-88798400D02*
X93599000Y-88798400D01*
X95377000Y-87843360D02*
X94421960Y-88798400D01*
X101266271Y-84417889D02*
X102092760Y-83591400D01*
X99606129Y-84417889D02*
X101266271Y-84417889D01*
X99173311Y-84850707D02*
X99606129Y-84417889D01*
X99173311Y-87770689D02*
X99173311Y-84850707D01*
X98679000Y-88265000D02*
X99173311Y-87770689D01*
X93053889Y-84451471D02*
X93853000Y-83652360D01*
X93053889Y-88253289D02*
X93053889Y-84451471D01*
X93599000Y-88798400D02*
X93053889Y-88253289D01*
X104330500Y-95631000D02*
X104330500Y-94399100D01*
X104330500Y-94399100D02*
X105562400Y-93167200D01*
X105562400Y-92176600D02*
X105600500Y-92138500D01*
X105562400Y-93167200D02*
X105562400Y-92176600D01*
X98142499Y-78204299D02*
X98478300Y-78540100D01*
X98142499Y-73307501D02*
X98142499Y-78204299D01*
X98615500Y-72834500D02*
X98142499Y-73307501D01*
D31*
X93950980Y-83760500D02*
X93853000Y-83662520D01*
X95390500Y-83760500D02*
X93950980Y-83760500D01*
D30*
%TO.N,/BTN3*%
X109156500Y-81280000D02*
X109340200Y-81280000D01*
X109987900Y-80632300D02*
X110636900Y-80632300D01*
X109340200Y-81280000D02*
X109987900Y-80632300D01*
X112308640Y-83502500D02*
X112308640Y-85344000D01*
X111458729Y-80814828D02*
X111458729Y-82652589D01*
X111458729Y-82652589D02*
X112308640Y-83502500D01*
X111276201Y-80632300D02*
X111458729Y-80814828D01*
X110636900Y-80632300D02*
X111276201Y-80632300D01*
%TO.N,/BTN4*%
X109922202Y-80132300D02*
X110636900Y-80132300D01*
X108521500Y-80645000D02*
X109409502Y-80645000D01*
X109409502Y-80645000D02*
X109922202Y-80132300D01*
X112308640Y-80391000D02*
X112308640Y-81978500D01*
X111341900Y-80132300D02*
X111575200Y-80365600D01*
X110636900Y-80132300D02*
X111341900Y-80132300D01*
X112283240Y-80365600D02*
X112308640Y-80391000D01*
X111575200Y-80365600D02*
X112283240Y-80365600D01*
%TO.N,/BTN2*%
X109534200Y-79632300D02*
X109156500Y-80010000D01*
X110636900Y-79632300D02*
X109534200Y-79632300D01*
X112308640Y-77216000D02*
X112308640Y-78803500D01*
X111311902Y-79632300D02*
X111582200Y-79362002D01*
X110636900Y-79632300D02*
X111311902Y-79632300D01*
X111582200Y-79362002D02*
X111582200Y-78968600D01*
X111747300Y-78803500D02*
X112308640Y-78803500D01*
X111582200Y-78968600D02*
X111747300Y-78803500D01*
%TO.N,/D-*%
X103916900Y-79132300D02*
X102500300Y-79132300D01*
X101908100Y-78540100D02*
X100378300Y-78540100D01*
X102500300Y-79132300D02*
X101908100Y-78540100D01*
X100378300Y-78540100D02*
X99728299Y-79190101D01*
D32*
X99703299Y-79215101D02*
X99728299Y-79190101D01*
X97551361Y-79215101D02*
X99703299Y-79215101D01*
X97114360Y-78778100D02*
X97551361Y-79215101D01*
D30*
%TO.N,/D+*%
X100378300Y-80540100D02*
X101450900Y-80540100D01*
X102358700Y-79632300D02*
X103916900Y-79632300D01*
X101450900Y-80540100D02*
X102358700Y-79632300D01*
X99728299Y-79890099D02*
X100378300Y-80540100D01*
D32*
X99438301Y-79865099D02*
X97589461Y-79865099D01*
X97589461Y-79865099D02*
X97114360Y-80340200D01*
X99463301Y-79890099D02*
X99438301Y-79865099D01*
X99728299Y-79890099D02*
X99463301Y-79890099D01*
D30*
%TO.N,/LEDK*%
X99209860Y-90995500D02*
X100838000Y-90995500D01*
X98361500Y-91843860D02*
X99209860Y-90995500D01*
%TO.N,/D4*%
X109220000Y-82423000D02*
X109499400Y-82423000D01*
X109790100Y-82132300D02*
X110636900Y-82132300D01*
X109499400Y-82423000D02*
X109790100Y-82132300D01*
%TO.N,/D5*%
X106852999Y-79837001D02*
X107315000Y-79375000D01*
X106852999Y-81424501D02*
X106852999Y-79837001D01*
X106553000Y-81724500D02*
X106852999Y-81424501D01*
X107315000Y-79375000D02*
X109194600Y-79375000D01*
X109194600Y-79375000D02*
X109448600Y-79121000D01*
X110625600Y-79121000D02*
X110636900Y-79132300D01*
X109448600Y-79121000D02*
X110625600Y-79121000D01*
%TO.N,/SCK*%
X105600500Y-81123702D02*
X105600500Y-80581500D01*
X104591902Y-82132300D02*
X105600500Y-81123702D01*
X103916900Y-82132300D02*
X104591902Y-82132300D01*
X100533200Y-93903800D02*
X100076000Y-94361000D01*
X100076000Y-94361000D02*
X100076000Y-95631000D01*
X102671964Y-93903800D02*
X100533200Y-93903800D01*
X104013000Y-92138500D02*
X104013000Y-92562764D01*
X104013000Y-92562764D02*
X102671964Y-93903800D01*
%TO.N,/MOSI*%
X104657600Y-82632300D02*
X106235500Y-81054400D01*
X106235500Y-81054400D02*
X106235500Y-81026000D01*
X103916900Y-82632300D02*
X104657600Y-82632300D01*
X102171500Y-95631000D02*
X102171500Y-95313500D01*
X104775000Y-92710000D02*
X104775000Y-92138500D01*
X102171500Y-95313500D02*
X104775000Y-92710000D01*
D32*
%TO.N,Net-(L1-Pad1)*%
X97550089Y-84352249D02*
X98374200Y-85176360D01*
X97550089Y-83870089D02*
X97550089Y-84352249D01*
X97440500Y-83760500D02*
X97550089Y-83870089D01*
X96760500Y-83760500D02*
X97440500Y-83760500D01*
D30*
%TO.N,Net-(Q1-Pad1)*%
X96761300Y-91831160D02*
X96774000Y-91843860D01*
X94996000Y-91831160D02*
X96761300Y-91831160D01*
X97623911Y-92693771D02*
X96774000Y-91843860D01*
X99187989Y-92693771D02*
X97623911Y-92693771D01*
X99888040Y-91993720D02*
X99187989Y-92693771D01*
%TO.N,Net-(Q1-Pad3)*%
X100586540Y-90147140D02*
X100838000Y-89895680D01*
X98361500Y-90147140D02*
X100586540Y-90147140D01*
%TO.N,Net-(R2-Pad1)*%
X94850140Y-84260500D02*
X93853000Y-85257640D01*
X95390500Y-84260500D02*
X94850140Y-84260500D01*
%TO.N,Net-(R4-Pad2)*%
X102174040Y-86766400D02*
X104129840Y-84810600D01*
X105276900Y-84667302D02*
X105276900Y-83992300D01*
X105133602Y-84810600D02*
X105276900Y-84667302D01*
X104129840Y-84810600D02*
X105133602Y-84810600D01*
%TO.N,Net-(R5-Pad2)*%
X91152980Y-82791300D02*
X91885942Y-82791300D01*
X91885942Y-82791300D02*
X92653879Y-82023363D01*
X92653879Y-82023363D02*
X92653879Y-81000040D01*
X93713730Y-79940190D02*
X92808660Y-80845260D01*
X93947212Y-79940190D02*
X93713730Y-79940190D01*
X95109302Y-78778100D02*
X93947212Y-79940190D01*
X95341440Y-78778100D02*
X95109302Y-78778100D01*
X92808660Y-80845260D02*
X92888200Y-80765719D01*
X92653879Y-81000040D02*
X92808660Y-80845260D01*
%TO.N,Net-(D2-PadC)*%
X102362000Y-89956640D02*
X104013000Y-88305640D01*
X102362000Y-90068500D02*
X102362000Y-89956640D01*
%TO.N,Net-(R6-Pad1)*%
X104908631Y-90897991D02*
X110989081Y-90897991D01*
X104013000Y-90002360D02*
X104908631Y-90897991D01*
X109949200Y-83820000D02*
X109776900Y-83992300D01*
X110490000Y-83820000D02*
X109949200Y-83820000D01*
X111449091Y-90437981D02*
X111116236Y-90770836D01*
X111379000Y-84836000D02*
X111449091Y-84906091D01*
X110989081Y-90897991D02*
X111116236Y-90770836D01*
X111449091Y-84906091D02*
X111449091Y-90437981D01*
X111116236Y-90770836D02*
X111379000Y-90508072D01*
%TO.N,Net-(R7-Pad2)*%
X91871800Y-83439000D02*
X92284590Y-83026210D01*
X93879418Y-80340200D02*
X95341440Y-80340200D01*
X91152980Y-83439000D02*
X91871800Y-83439000D01*
X92284590Y-82958351D02*
X93053889Y-82189053D01*
X92284590Y-83026210D02*
X92284590Y-82958351D01*
X93053889Y-81165729D02*
X93879418Y-80340200D01*
X93053889Y-82189053D02*
X93053889Y-81165729D01*
%TO.N,Net-(R9-Pad2)*%
X114385640Y-87035640D02*
X114138000Y-86788000D01*
X115633500Y-87035640D02*
X114385640Y-87035640D01*
%TO.N,Net-(R10-Pad2)*%
X95390500Y-86133140D02*
X95377000Y-86146640D01*
X95390500Y-84760500D02*
X95390500Y-86133140D01*
%TO.N,/D14*%
X103063281Y-84209901D02*
X102092760Y-85180422D01*
X102092760Y-85180422D02*
X102092760Y-85217000D01*
X103063281Y-84209901D02*
X103063281Y-81823319D01*
X103254300Y-81632300D02*
X103916900Y-81632300D01*
X103063281Y-81823319D02*
X103254300Y-81632300D01*
%TO.N,Net-(D3-PadC)*%
X100136940Y-85476100D02*
X100396040Y-85217000D01*
X100136940Y-86842500D02*
X100136940Y-85476100D01*
%TO.N,Net-(R16-Pad1)*%
X96760500Y-86006140D02*
X96901000Y-86146640D01*
D32*
X96875600Y-84875600D02*
X96760500Y-84760500D01*
X96875600Y-86121240D02*
X96875600Y-84875600D01*
D30*
%TO.N,/D3*%
X108199598Y-85090000D02*
X107776900Y-84667302D01*
X107776900Y-84667302D02*
X107776900Y-83992300D01*
X108966000Y-85090000D02*
X108199598Y-85090000D01*
X112146500Y-88588000D02*
X112141000Y-88582500D01*
X112938000Y-88588000D02*
X112146500Y-88588000D01*
%TO.N,/D2*%
X107920600Y-82931000D02*
X107315000Y-82931000D01*
X108276900Y-83287300D02*
X107920600Y-82931000D01*
X108276900Y-83992300D02*
X108276900Y-83287300D01*
X112921500Y-89471500D02*
X112938000Y-89488000D01*
X112141000Y-89471500D02*
X112921500Y-89471500D01*
%TO.N,/D11*%
X112932500Y-87693500D02*
X112938000Y-87688000D01*
X112141000Y-87693500D02*
X112932500Y-87693500D01*
X104758700Y-84010500D02*
X104776900Y-83992300D01*
X104140000Y-84010500D02*
X104758700Y-84010500D01*
%TO.N,/D12*%
X109724401Y-81632300D02*
X110636900Y-81632300D01*
X109568701Y-81788000D02*
X109724401Y-81632300D01*
X107823000Y-81788000D02*
X109568701Y-81788000D01*
X97980500Y-95631000D02*
X100418900Y-93192600D01*
X102133400Y-93192600D02*
X103187500Y-92138500D01*
X100418900Y-93192600D02*
X102133400Y-93192600D01*
%TD*%
M02*
