%TF.GenerationSoftware,KiCad,Pcbnew,(5.1.6)-1*%
%TF.CreationDate,2020-10-28T20:54:40+01:00*%
%TF.ProjectId,ArduinoProMicroUSB,41726475-696e-46f5-9072-6f4d6963726f,rev?*%
%TF.SameCoordinates,Original*%
%TF.FileFunction,Soldermask,Top*%
%TF.FilePolarity,Negative*%
%FSLAX46Y46*%
G04 Gerber Fmt 4.6, Leading zero omitted, Abs format (unit mm)*
G04 Created by KiCad (PCBNEW (5.1.6)-1) date 2020-10-28 20:54:40*
%MOMM*%
%LPD*%
G01*
G04 APERTURE LIST*
%ADD10C,0.100000*%
G04 APERTURE END LIST*
D10*
G36*
X156516073Y-98462138D02*
G01*
X156643649Y-98514982D01*
X156758459Y-98591695D01*
X156856105Y-98689341D01*
X156932818Y-98804151D01*
X156985662Y-98931727D01*
X157012600Y-99067156D01*
X157012600Y-99205244D01*
X156985662Y-99340673D01*
X156932818Y-99468249D01*
X156856105Y-99583059D01*
X156758459Y-99680705D01*
X156643649Y-99757418D01*
X156516073Y-99810262D01*
X156380644Y-99837200D01*
X156242556Y-99837200D01*
X156107127Y-99810262D01*
X155979551Y-99757418D01*
X155864741Y-99680705D01*
X155767095Y-99583059D01*
X155690382Y-99468249D01*
X155637538Y-99340673D01*
X155610600Y-99205244D01*
X155610600Y-99067156D01*
X155637538Y-98931727D01*
X155690382Y-98804151D01*
X155767095Y-98689341D01*
X155864741Y-98591695D01*
X155979551Y-98514982D01*
X156107127Y-98462138D01*
X156242556Y-98435200D01*
X156380644Y-98435200D01*
X156516073Y-98462138D01*
G37*
G36*
X128017273Y-98462138D02*
G01*
X128144849Y-98514982D01*
X128259659Y-98591695D01*
X128357305Y-98689341D01*
X128434018Y-98804151D01*
X128486862Y-98931727D01*
X128513800Y-99067156D01*
X128513800Y-99205244D01*
X128486862Y-99340673D01*
X128434018Y-99468249D01*
X128357305Y-99583059D01*
X128259659Y-99680705D01*
X128144849Y-99757418D01*
X128017273Y-99810262D01*
X127881844Y-99837200D01*
X127743756Y-99837200D01*
X127608327Y-99810262D01*
X127480751Y-99757418D01*
X127365941Y-99680705D01*
X127268295Y-99583059D01*
X127191582Y-99468249D01*
X127138738Y-99340673D01*
X127111800Y-99205244D01*
X127111800Y-99067156D01*
X127138738Y-98931727D01*
X127191582Y-98804151D01*
X127268295Y-98689341D01*
X127365941Y-98591695D01*
X127480751Y-98514982D01*
X127608327Y-98462138D01*
X127743756Y-98435200D01*
X127881844Y-98435200D01*
X128017273Y-98462138D01*
G37*
G36*
X145328640Y-98510090D02*
G01*
X143225520Y-98510090D01*
X143225520Y-97207070D01*
X145328640Y-97207070D01*
X145328640Y-98510090D01*
G37*
G36*
X149026880Y-98510090D02*
G01*
X146923760Y-98510090D01*
X146923760Y-97207070D01*
X149026880Y-97207070D01*
X149026880Y-98510090D01*
G37*
G36*
X139362180Y-98501200D02*
G01*
X136659620Y-98501200D01*
X136659620Y-96799400D01*
X139362180Y-96799400D01*
X139362180Y-98501200D01*
G37*
G36*
X135333740Y-98501200D02*
G01*
X133332220Y-98501200D01*
X133332220Y-96799400D01*
X135333740Y-96799400D01*
X135333740Y-98501200D01*
G37*
G36*
X142689580Y-98501200D02*
G01*
X140688060Y-98501200D01*
X140688060Y-96799400D01*
X142689580Y-96799400D01*
X142689580Y-98501200D01*
G37*
G36*
X152170691Y-97128385D02*
G01*
X152204669Y-97138693D01*
X152235990Y-97155434D01*
X152263439Y-97177961D01*
X152285966Y-97205410D01*
X152302707Y-97236731D01*
X152313015Y-97270709D01*
X152317100Y-97312190D01*
X152317100Y-97988410D01*
X152313015Y-98029891D01*
X152302707Y-98063869D01*
X152285966Y-98095190D01*
X152263439Y-98122639D01*
X152235990Y-98145166D01*
X152204669Y-98161907D01*
X152170691Y-98172215D01*
X152129210Y-98176300D01*
X151527990Y-98176300D01*
X151486509Y-98172215D01*
X151452531Y-98161907D01*
X151421210Y-98145166D01*
X151393761Y-98122639D01*
X151371234Y-98095190D01*
X151354493Y-98063869D01*
X151344185Y-98029891D01*
X151340100Y-97988410D01*
X151340100Y-97312190D01*
X151344185Y-97270709D01*
X151354493Y-97236731D01*
X151371234Y-97205410D01*
X151393761Y-97177961D01*
X151421210Y-97155434D01*
X151452531Y-97138693D01*
X151486509Y-97128385D01*
X151527990Y-97124300D01*
X152129210Y-97124300D01*
X152170691Y-97128385D01*
G37*
G36*
X150595691Y-97128385D02*
G01*
X150629669Y-97138693D01*
X150660990Y-97155434D01*
X150688439Y-97177961D01*
X150710966Y-97205410D01*
X150727707Y-97236731D01*
X150738015Y-97270709D01*
X150742100Y-97312190D01*
X150742100Y-97988410D01*
X150738015Y-98029891D01*
X150727707Y-98063869D01*
X150710966Y-98095190D01*
X150688439Y-98122639D01*
X150660990Y-98145166D01*
X150629669Y-98161907D01*
X150595691Y-98172215D01*
X150554210Y-98176300D01*
X149952990Y-98176300D01*
X149911509Y-98172215D01*
X149877531Y-98161907D01*
X149846210Y-98145166D01*
X149818761Y-98122639D01*
X149796234Y-98095190D01*
X149779493Y-98063869D01*
X149769185Y-98029891D01*
X149765100Y-97988410D01*
X149765100Y-97312190D01*
X149769185Y-97270709D01*
X149779493Y-97236731D01*
X149796234Y-97205410D01*
X149818761Y-97177961D01*
X149846210Y-97155434D01*
X149877531Y-97138693D01*
X149911509Y-97128385D01*
X149952990Y-97124300D01*
X150554210Y-97124300D01*
X150595691Y-97128385D01*
G37*
G36*
X150692100Y-96396200D02*
G01*
X149690100Y-96396200D01*
X149690100Y-95894200D01*
X150692100Y-95894200D01*
X150692100Y-96396200D01*
G37*
G36*
X152392100Y-96396200D02*
G01*
X151390100Y-96396200D01*
X151390100Y-95894200D01*
X152392100Y-95894200D01*
X152392100Y-96396200D01*
G37*
G36*
X145328640Y-96213930D02*
G01*
X143225520Y-96213930D01*
X143225520Y-94910910D01*
X145328640Y-94910910D01*
X145328640Y-96213930D01*
G37*
G36*
X149026880Y-96213930D02*
G01*
X146923760Y-96213930D01*
X146923760Y-94910910D01*
X149026880Y-94910910D01*
X149026880Y-96213930D01*
G37*
G36*
X129502800Y-96203400D02*
G01*
X127900800Y-96203400D01*
X127900800Y-94601400D01*
X129502800Y-94601400D01*
X129502800Y-96203400D01*
G37*
G36*
X154308400Y-95808800D02*
G01*
X153406400Y-95808800D01*
X153406400Y-95206800D01*
X154308400Y-95206800D01*
X154308400Y-95808800D01*
G37*
G36*
X155508400Y-95808800D02*
G01*
X154606400Y-95808800D01*
X154606400Y-95206800D01*
X155508400Y-95206800D01*
X155508400Y-95808800D01*
G37*
G36*
X139609830Y-95754190D02*
G01*
X136411970Y-95754190D01*
X136411970Y-94151450D01*
X139609830Y-94151450D01*
X139609830Y-95754190D01*
G37*
G36*
X150692100Y-95596200D02*
G01*
X149690100Y-95596200D01*
X149690100Y-95094200D01*
X150692100Y-95094200D01*
X150692100Y-95596200D01*
G37*
G36*
X152392100Y-95596200D02*
G01*
X151390100Y-95596200D01*
X151390100Y-95094200D01*
X152392100Y-95094200D01*
X152392100Y-95596200D01*
G37*
G36*
X154308400Y-94908800D02*
G01*
X153406400Y-94908800D01*
X153406400Y-94306800D01*
X154308400Y-94306800D01*
X154308400Y-94908800D01*
G37*
G36*
X155508400Y-94908800D02*
G01*
X154606400Y-94908800D01*
X154606400Y-94306800D01*
X155508400Y-94306800D01*
X155508400Y-94908800D01*
G37*
G36*
X150692100Y-94796200D02*
G01*
X149690100Y-94796200D01*
X149690100Y-94294200D01*
X150692100Y-94294200D01*
X150692100Y-94796200D01*
G37*
G36*
X152392100Y-94796200D02*
G01*
X151390100Y-94796200D01*
X151390100Y-94294200D01*
X152392100Y-94294200D01*
X152392100Y-94796200D01*
G37*
G36*
X145782591Y-93432685D02*
G01*
X145816569Y-93442993D01*
X145847890Y-93459734D01*
X145875339Y-93482261D01*
X145897866Y-93509710D01*
X145914607Y-93541031D01*
X145924915Y-93575009D01*
X145929000Y-93616490D01*
X145929000Y-94292710D01*
X145924915Y-94334191D01*
X145914607Y-94368169D01*
X145897866Y-94399490D01*
X145875339Y-94426939D01*
X145847890Y-94449466D01*
X145816569Y-94466207D01*
X145782591Y-94476515D01*
X145741110Y-94480600D01*
X145139890Y-94480600D01*
X145098409Y-94476515D01*
X145064431Y-94466207D01*
X145033110Y-94449466D01*
X145005661Y-94426939D01*
X144983134Y-94399490D01*
X144966393Y-94368169D01*
X144956085Y-94334191D01*
X144952000Y-94292710D01*
X144952000Y-93616490D01*
X144956085Y-93575009D01*
X144966393Y-93541031D01*
X144983134Y-93509710D01*
X145005661Y-93482261D01*
X145033110Y-93459734D01*
X145064431Y-93442993D01*
X145098409Y-93432685D01*
X145139890Y-93428600D01*
X145741110Y-93428600D01*
X145782591Y-93432685D01*
G37*
G36*
X144207591Y-93432685D02*
G01*
X144241569Y-93442993D01*
X144272890Y-93459734D01*
X144300339Y-93482261D01*
X144322866Y-93509710D01*
X144339607Y-93541031D01*
X144349915Y-93575009D01*
X144354000Y-93616490D01*
X144354000Y-94292710D01*
X144349915Y-94334191D01*
X144339607Y-94368169D01*
X144322866Y-94399490D01*
X144300339Y-94426939D01*
X144272890Y-94449466D01*
X144241569Y-94466207D01*
X144207591Y-94476515D01*
X144166110Y-94480600D01*
X143564890Y-94480600D01*
X143523409Y-94476515D01*
X143489431Y-94466207D01*
X143458110Y-94449466D01*
X143430661Y-94426939D01*
X143408134Y-94399490D01*
X143391393Y-94368169D01*
X143381085Y-94334191D01*
X143377000Y-94292710D01*
X143377000Y-93616490D01*
X143381085Y-93575009D01*
X143391393Y-93541031D01*
X143408134Y-93509710D01*
X143430661Y-93482261D01*
X143458110Y-93459734D01*
X143489431Y-93442993D01*
X143523409Y-93432685D01*
X143564890Y-93428600D01*
X144166110Y-93428600D01*
X144207591Y-93432685D01*
G37*
G36*
X147128591Y-93432685D02*
G01*
X147162569Y-93442993D01*
X147193890Y-93459734D01*
X147221339Y-93482261D01*
X147243866Y-93509710D01*
X147260607Y-93541031D01*
X147270915Y-93575009D01*
X147275000Y-93616490D01*
X147275000Y-94292710D01*
X147270915Y-94334191D01*
X147260607Y-94368169D01*
X147243866Y-94399490D01*
X147221339Y-94426939D01*
X147193890Y-94449466D01*
X147162569Y-94466207D01*
X147128591Y-94476515D01*
X147087110Y-94480600D01*
X146485890Y-94480600D01*
X146444409Y-94476515D01*
X146410431Y-94466207D01*
X146379110Y-94449466D01*
X146351661Y-94426939D01*
X146329134Y-94399490D01*
X146312393Y-94368169D01*
X146302085Y-94334191D01*
X146298000Y-94292710D01*
X146298000Y-93616490D01*
X146302085Y-93575009D01*
X146312393Y-93541031D01*
X146329134Y-93509710D01*
X146351661Y-93482261D01*
X146379110Y-93459734D01*
X146410431Y-93442993D01*
X146444409Y-93432685D01*
X146485890Y-93428600D01*
X147087110Y-93428600D01*
X147128591Y-93432685D01*
G37*
G36*
X148703591Y-93432685D02*
G01*
X148737569Y-93442993D01*
X148768890Y-93459734D01*
X148796339Y-93482261D01*
X148818866Y-93509710D01*
X148835607Y-93541031D01*
X148845915Y-93575009D01*
X148850000Y-93616490D01*
X148850000Y-94292710D01*
X148845915Y-94334191D01*
X148835607Y-94368169D01*
X148818866Y-94399490D01*
X148796339Y-94426939D01*
X148768890Y-94449466D01*
X148737569Y-94466207D01*
X148703591Y-94476515D01*
X148662110Y-94480600D01*
X148060890Y-94480600D01*
X148019409Y-94476515D01*
X147985431Y-94466207D01*
X147954110Y-94449466D01*
X147926661Y-94426939D01*
X147904134Y-94399490D01*
X147887393Y-94368169D01*
X147877085Y-94334191D01*
X147873000Y-94292710D01*
X147873000Y-93616490D01*
X147877085Y-93575009D01*
X147887393Y-93541031D01*
X147904134Y-93509710D01*
X147926661Y-93482261D01*
X147954110Y-93459734D01*
X147985431Y-93442993D01*
X148019409Y-93432685D01*
X148060890Y-93428600D01*
X148662110Y-93428600D01*
X148703591Y-93432685D01*
G37*
G36*
X133921307Y-92866898D02*
G01*
X133959318Y-92878429D01*
X133994342Y-92897149D01*
X134025049Y-92922351D01*
X134050251Y-92953058D01*
X134068971Y-92988082D01*
X134080502Y-93026093D01*
X134085000Y-93071763D01*
X134085000Y-93880037D01*
X134080502Y-93925707D01*
X134068971Y-93963718D01*
X134050251Y-93998742D01*
X134025049Y-94029449D01*
X133994342Y-94054651D01*
X133959318Y-94073371D01*
X133921307Y-94084902D01*
X133875637Y-94089400D01*
X130792363Y-94089400D01*
X130746693Y-94084902D01*
X130708682Y-94073371D01*
X130673658Y-94054651D01*
X130642951Y-94029449D01*
X130617749Y-93998742D01*
X130599029Y-93963718D01*
X130587498Y-93925707D01*
X130583000Y-93880037D01*
X130583000Y-93071763D01*
X130587498Y-93026093D01*
X130599029Y-92988082D01*
X130617749Y-92953058D01*
X130642951Y-92922351D01*
X130673658Y-92897149D01*
X130708682Y-92878429D01*
X130746693Y-92866898D01*
X130792363Y-92862400D01*
X133875637Y-92862400D01*
X133921307Y-92866898D01*
G37*
G36*
X155508400Y-94008800D02*
G01*
X154606400Y-94008800D01*
X154606400Y-93406800D01*
X155508400Y-93406800D01*
X155508400Y-94008800D01*
G37*
G36*
X154308400Y-94008800D02*
G01*
X153406400Y-94008800D01*
X153406400Y-93406800D01*
X154308400Y-93406800D01*
X154308400Y-94008800D01*
G37*
G36*
X152392100Y-93996200D02*
G01*
X151390100Y-93996200D01*
X151390100Y-93494200D01*
X152392100Y-93494200D01*
X152392100Y-93996200D01*
G37*
G36*
X150692100Y-93996200D02*
G01*
X149690100Y-93996200D01*
X149690100Y-93494200D01*
X150692100Y-93494200D01*
X150692100Y-93996200D01*
G37*
G36*
X142810791Y-92924685D02*
G01*
X142844769Y-92934993D01*
X142876090Y-92951734D01*
X142903539Y-92974261D01*
X142926066Y-93001710D01*
X142942807Y-93033031D01*
X142953115Y-93067009D01*
X142957200Y-93108490D01*
X142957200Y-93784710D01*
X142953115Y-93826191D01*
X142942807Y-93860169D01*
X142926066Y-93891490D01*
X142903539Y-93918939D01*
X142876090Y-93941466D01*
X142844769Y-93958207D01*
X142810791Y-93968515D01*
X142769310Y-93972600D01*
X142168090Y-93972600D01*
X142126609Y-93968515D01*
X142092631Y-93958207D01*
X142061310Y-93941466D01*
X142033861Y-93918939D01*
X142011334Y-93891490D01*
X141994593Y-93860169D01*
X141984285Y-93826191D01*
X141980200Y-93784710D01*
X141980200Y-93108490D01*
X141984285Y-93067009D01*
X141994593Y-93033031D01*
X142011334Y-93001710D01*
X142033861Y-92974261D01*
X142061310Y-92951734D01*
X142092631Y-92934993D01*
X142126609Y-92924685D01*
X142168090Y-92920600D01*
X142769310Y-92920600D01*
X142810791Y-92924685D01*
G37*
G36*
X141235791Y-92924685D02*
G01*
X141269769Y-92934993D01*
X141301090Y-92951734D01*
X141328539Y-92974261D01*
X141351066Y-93001710D01*
X141367807Y-93033031D01*
X141378115Y-93067009D01*
X141382200Y-93108490D01*
X141382200Y-93784710D01*
X141378115Y-93826191D01*
X141367807Y-93860169D01*
X141351066Y-93891490D01*
X141328539Y-93918939D01*
X141301090Y-93941466D01*
X141269769Y-93958207D01*
X141235791Y-93968515D01*
X141194310Y-93972600D01*
X140593090Y-93972600D01*
X140551609Y-93968515D01*
X140517631Y-93958207D01*
X140486310Y-93941466D01*
X140458861Y-93918939D01*
X140436334Y-93891490D01*
X140419593Y-93860169D01*
X140409285Y-93826191D01*
X140405200Y-93784710D01*
X140405200Y-93108490D01*
X140409285Y-93067009D01*
X140419593Y-93033031D01*
X140436334Y-93001710D01*
X140458861Y-92974261D01*
X140486310Y-92951734D01*
X140517631Y-92934993D01*
X140551609Y-92924685D01*
X140593090Y-92920600D01*
X141194310Y-92920600D01*
X141235791Y-92924685D01*
G37*
G36*
X129502800Y-93917400D02*
G01*
X127900800Y-93917400D01*
X127900800Y-92315400D01*
X129502800Y-92315400D01*
X129502800Y-93917400D01*
G37*
G36*
X138157191Y-92162185D02*
G01*
X138191169Y-92172493D01*
X138222490Y-92189234D01*
X138249939Y-92211761D01*
X138272466Y-92239210D01*
X138289207Y-92270531D01*
X138299515Y-92304509D01*
X138303600Y-92345990D01*
X138303600Y-92947210D01*
X138299515Y-92988691D01*
X138289207Y-93022669D01*
X138272466Y-93053990D01*
X138249939Y-93081439D01*
X138222490Y-93103966D01*
X138191169Y-93120707D01*
X138157191Y-93131015D01*
X138115710Y-93135100D01*
X137439490Y-93135100D01*
X137398009Y-93131015D01*
X137364031Y-93120707D01*
X137332710Y-93103966D01*
X137305261Y-93081439D01*
X137282734Y-93053990D01*
X137265993Y-93022669D01*
X137255685Y-92988691D01*
X137251600Y-92947210D01*
X137251600Y-92345990D01*
X137255685Y-92304509D01*
X137265993Y-92270531D01*
X137282734Y-92239210D01*
X137305261Y-92211761D01*
X137332710Y-92189234D01*
X137364031Y-92172493D01*
X137398009Y-92162185D01*
X137439490Y-92158100D01*
X138115710Y-92158100D01*
X138157191Y-92162185D01*
G37*
G36*
X136617191Y-92162185D02*
G01*
X136651169Y-92172493D01*
X136682490Y-92189234D01*
X136709939Y-92211761D01*
X136732466Y-92239210D01*
X136749207Y-92270531D01*
X136759515Y-92304509D01*
X136763600Y-92345990D01*
X136763600Y-92947210D01*
X136759515Y-92988691D01*
X136749207Y-93022669D01*
X136732466Y-93053990D01*
X136709939Y-93081439D01*
X136682490Y-93103966D01*
X136651169Y-93120707D01*
X136617191Y-93131015D01*
X136575710Y-93135100D01*
X135899490Y-93135100D01*
X135858009Y-93131015D01*
X135824031Y-93120707D01*
X135792710Y-93103966D01*
X135765261Y-93081439D01*
X135742734Y-93053990D01*
X135725993Y-93022669D01*
X135715685Y-92988691D01*
X135711600Y-92947210D01*
X135711600Y-92345990D01*
X135715685Y-92304509D01*
X135725993Y-92270531D01*
X135742734Y-92239210D01*
X135765261Y-92211761D01*
X135792710Y-92189234D01*
X135824031Y-92172493D01*
X135858009Y-92162185D01*
X135899490Y-92158100D01*
X136575710Y-92158100D01*
X136617191Y-92162185D01*
G37*
G36*
X155508400Y-93108800D02*
G01*
X154606400Y-93108800D01*
X154606400Y-92506800D01*
X155508400Y-92506800D01*
X155508400Y-93108800D01*
G37*
G36*
X154308400Y-93108800D02*
G01*
X153406400Y-93108800D01*
X153406400Y-92506800D01*
X154308400Y-92506800D01*
X154308400Y-93108800D01*
G37*
G36*
X149829900Y-92365700D02*
G01*
X141177900Y-92365700D01*
X141177900Y-90763700D01*
X149829900Y-90763700D01*
X149829900Y-92365700D01*
G37*
G36*
X151802191Y-91045085D02*
G01*
X151836169Y-91055393D01*
X151867490Y-91072134D01*
X151894939Y-91094661D01*
X151917466Y-91122110D01*
X151934207Y-91153431D01*
X151944515Y-91187409D01*
X151948600Y-91228890D01*
X151948600Y-91905110D01*
X151944515Y-91946591D01*
X151934207Y-91980569D01*
X151917466Y-92011890D01*
X151894939Y-92039339D01*
X151867490Y-92061866D01*
X151836169Y-92078607D01*
X151802191Y-92088915D01*
X151760710Y-92093000D01*
X151159490Y-92093000D01*
X151118009Y-92088915D01*
X151084031Y-92078607D01*
X151052710Y-92061866D01*
X151025261Y-92039339D01*
X151002734Y-92011890D01*
X150985993Y-91980569D01*
X150975685Y-91946591D01*
X150971600Y-91905110D01*
X150971600Y-91228890D01*
X150975685Y-91187409D01*
X150985993Y-91153431D01*
X151002734Y-91122110D01*
X151025261Y-91094661D01*
X151052710Y-91072134D01*
X151084031Y-91055393D01*
X151118009Y-91045085D01*
X151159490Y-91041000D01*
X151760710Y-91041000D01*
X151802191Y-91045085D01*
G37*
G36*
X153377191Y-91045085D02*
G01*
X153411169Y-91055393D01*
X153442490Y-91072134D01*
X153469939Y-91094661D01*
X153492466Y-91122110D01*
X153509207Y-91153431D01*
X153519515Y-91187409D01*
X153523600Y-91228890D01*
X153523600Y-91905110D01*
X153519515Y-91946591D01*
X153509207Y-91980569D01*
X153492466Y-92011890D01*
X153469939Y-92039339D01*
X153442490Y-92061866D01*
X153411169Y-92078607D01*
X153377191Y-92088915D01*
X153335710Y-92093000D01*
X152734490Y-92093000D01*
X152693009Y-92088915D01*
X152659031Y-92078607D01*
X152627710Y-92061866D01*
X152600261Y-92039339D01*
X152577734Y-92011890D01*
X152560993Y-91980569D01*
X152550685Y-91946591D01*
X152546600Y-91905110D01*
X152546600Y-91228890D01*
X152550685Y-91187409D01*
X152560993Y-91153431D01*
X152577734Y-91122110D01*
X152600261Y-91094661D01*
X152627710Y-91072134D01*
X152659031Y-91055393D01*
X152693009Y-91045085D01*
X152734490Y-91041000D01*
X153335710Y-91041000D01*
X153377191Y-91045085D01*
G37*
G36*
X129502800Y-91631400D02*
G01*
X127900800Y-91631400D01*
X127900800Y-90029400D01*
X129502800Y-90029400D01*
X129502800Y-91631400D01*
G37*
G36*
X138157191Y-90587185D02*
G01*
X138191169Y-90597493D01*
X138222490Y-90614234D01*
X138249939Y-90636761D01*
X138272466Y-90664210D01*
X138289207Y-90695531D01*
X138299515Y-90729509D01*
X138303600Y-90770990D01*
X138303600Y-91372210D01*
X138299515Y-91413691D01*
X138289207Y-91447669D01*
X138272466Y-91478990D01*
X138249939Y-91506439D01*
X138222490Y-91528966D01*
X138191169Y-91545707D01*
X138157191Y-91556015D01*
X138115710Y-91560100D01*
X137439490Y-91560100D01*
X137398009Y-91556015D01*
X137364031Y-91545707D01*
X137332710Y-91528966D01*
X137305261Y-91506439D01*
X137282734Y-91478990D01*
X137265993Y-91447669D01*
X137255685Y-91413691D01*
X137251600Y-91372210D01*
X137251600Y-90770990D01*
X137255685Y-90729509D01*
X137265993Y-90695531D01*
X137282734Y-90664210D01*
X137305261Y-90636761D01*
X137332710Y-90614234D01*
X137364031Y-90597493D01*
X137398009Y-90587185D01*
X137439490Y-90583100D01*
X138115710Y-90583100D01*
X138157191Y-90587185D01*
G37*
G36*
X136617191Y-90587185D02*
G01*
X136651169Y-90597493D01*
X136682490Y-90614234D01*
X136709939Y-90636761D01*
X136732466Y-90664210D01*
X136749207Y-90695531D01*
X136759515Y-90729509D01*
X136763600Y-90770990D01*
X136763600Y-91372210D01*
X136759515Y-91413691D01*
X136749207Y-91447669D01*
X136732466Y-91478990D01*
X136709939Y-91506439D01*
X136682490Y-91528966D01*
X136651169Y-91545707D01*
X136617191Y-91556015D01*
X136575710Y-91560100D01*
X135899490Y-91560100D01*
X135858009Y-91556015D01*
X135824031Y-91545707D01*
X135792710Y-91528966D01*
X135765261Y-91506439D01*
X135742734Y-91478990D01*
X135725993Y-91447669D01*
X135715685Y-91413691D01*
X135711600Y-91372210D01*
X135711600Y-90770990D01*
X135715685Y-90729509D01*
X135725993Y-90695531D01*
X135742734Y-90664210D01*
X135765261Y-90636761D01*
X135792710Y-90614234D01*
X135824031Y-90597493D01*
X135858009Y-90587185D01*
X135899490Y-90583100D01*
X136575710Y-90583100D01*
X136617191Y-90587185D01*
G37*
G36*
X152004900Y-90190700D02*
G01*
X150402900Y-90190700D01*
X150402900Y-81538700D01*
X152004900Y-81538700D01*
X152004900Y-90190700D01*
G37*
G36*
X140604900Y-90190700D02*
G01*
X139002900Y-90190700D01*
X139002900Y-81538700D01*
X140604900Y-81538700D01*
X140604900Y-90190700D01*
G37*
G36*
X153566991Y-89121485D02*
G01*
X153600969Y-89131793D01*
X153632290Y-89148534D01*
X153659739Y-89171061D01*
X153682266Y-89198510D01*
X153699007Y-89229831D01*
X153709315Y-89263809D01*
X153713400Y-89305290D01*
X153713400Y-89906510D01*
X153709315Y-89947991D01*
X153699007Y-89981969D01*
X153682266Y-90013290D01*
X153659739Y-90040739D01*
X153632290Y-90063266D01*
X153600969Y-90080007D01*
X153566991Y-90090315D01*
X153525510Y-90094400D01*
X152849290Y-90094400D01*
X152807809Y-90090315D01*
X152773831Y-90080007D01*
X152742510Y-90063266D01*
X152715061Y-90040739D01*
X152692534Y-90013290D01*
X152675793Y-89981969D01*
X152665485Y-89947991D01*
X152661400Y-89906510D01*
X152661400Y-89305290D01*
X152665485Y-89263809D01*
X152675793Y-89229831D01*
X152692534Y-89198510D01*
X152715061Y-89171061D01*
X152742510Y-89148534D01*
X152773831Y-89131793D01*
X152807809Y-89121485D01*
X152849290Y-89117400D01*
X153525510Y-89117400D01*
X153566991Y-89121485D01*
G37*
G36*
X155065591Y-89101485D02*
G01*
X155099569Y-89111793D01*
X155130890Y-89128534D01*
X155158339Y-89151061D01*
X155180866Y-89178510D01*
X155197607Y-89209831D01*
X155207915Y-89243809D01*
X155212000Y-89285290D01*
X155212000Y-89886510D01*
X155207915Y-89927991D01*
X155197607Y-89961969D01*
X155180866Y-89993290D01*
X155158339Y-90020739D01*
X155130890Y-90043266D01*
X155099569Y-90060007D01*
X155065591Y-90070315D01*
X155024110Y-90074400D01*
X154347890Y-90074400D01*
X154306409Y-90070315D01*
X154272431Y-90060007D01*
X154241110Y-90043266D01*
X154213661Y-90020739D01*
X154191134Y-89993290D01*
X154174393Y-89961969D01*
X154164085Y-89927991D01*
X154160000Y-89886510D01*
X154160000Y-89285290D01*
X154164085Y-89243809D01*
X154174393Y-89209831D01*
X154191134Y-89178510D01*
X154213661Y-89151061D01*
X154241110Y-89128534D01*
X154272431Y-89111793D01*
X154306409Y-89101485D01*
X154347890Y-89097400D01*
X155024110Y-89097400D01*
X155065591Y-89101485D01*
G37*
G36*
X133921307Y-88591898D02*
G01*
X133959318Y-88603429D01*
X133994342Y-88622149D01*
X134025049Y-88647351D01*
X134050251Y-88678058D01*
X134068971Y-88713082D01*
X134080502Y-88751093D01*
X134085000Y-88796763D01*
X134085000Y-89605037D01*
X134080502Y-89650707D01*
X134068971Y-89688718D01*
X134050251Y-89723742D01*
X134025049Y-89754449D01*
X133994342Y-89779651D01*
X133959318Y-89798371D01*
X133921307Y-89809902D01*
X133875637Y-89814400D01*
X130792363Y-89814400D01*
X130746693Y-89809902D01*
X130708682Y-89798371D01*
X130673658Y-89779651D01*
X130642951Y-89754449D01*
X130617749Y-89723742D01*
X130599029Y-89688718D01*
X130587498Y-89650707D01*
X130583000Y-89605037D01*
X130583000Y-88796763D01*
X130587498Y-88751093D01*
X130599029Y-88713082D01*
X130617749Y-88678058D01*
X130642951Y-88647351D01*
X130673658Y-88622149D01*
X130708682Y-88603429D01*
X130746693Y-88591898D01*
X130792363Y-88587400D01*
X133875637Y-88587400D01*
X133921307Y-88591898D01*
G37*
G36*
X136582191Y-88682885D02*
G01*
X136616169Y-88693193D01*
X136647490Y-88709934D01*
X136674939Y-88732461D01*
X136697466Y-88759910D01*
X136714207Y-88791231D01*
X136724515Y-88825209D01*
X136728600Y-88866690D01*
X136728600Y-89542910D01*
X136724515Y-89584391D01*
X136714207Y-89618369D01*
X136697466Y-89649690D01*
X136674939Y-89677139D01*
X136647490Y-89699666D01*
X136616169Y-89716407D01*
X136582191Y-89726715D01*
X136540710Y-89730800D01*
X135939490Y-89730800D01*
X135898009Y-89726715D01*
X135864031Y-89716407D01*
X135832710Y-89699666D01*
X135805261Y-89677139D01*
X135782734Y-89649690D01*
X135765993Y-89618369D01*
X135755685Y-89584391D01*
X135751600Y-89542910D01*
X135751600Y-88866690D01*
X135755685Y-88825209D01*
X135765993Y-88791231D01*
X135782734Y-88759910D01*
X135805261Y-88732461D01*
X135832710Y-88709934D01*
X135864031Y-88693193D01*
X135898009Y-88682885D01*
X135939490Y-88678800D01*
X136540710Y-88678800D01*
X136582191Y-88682885D01*
G37*
G36*
X138157191Y-88682885D02*
G01*
X138191169Y-88693193D01*
X138222490Y-88709934D01*
X138249939Y-88732461D01*
X138272466Y-88759910D01*
X138289207Y-88791231D01*
X138299515Y-88825209D01*
X138303600Y-88866690D01*
X138303600Y-89542910D01*
X138299515Y-89584391D01*
X138289207Y-89618369D01*
X138272466Y-89649690D01*
X138249939Y-89677139D01*
X138222490Y-89699666D01*
X138191169Y-89716407D01*
X138157191Y-89726715D01*
X138115710Y-89730800D01*
X137514490Y-89730800D01*
X137473009Y-89726715D01*
X137439031Y-89716407D01*
X137407710Y-89699666D01*
X137380261Y-89677139D01*
X137357734Y-89649690D01*
X137340993Y-89618369D01*
X137330685Y-89584391D01*
X137326600Y-89542910D01*
X137326600Y-88866690D01*
X137330685Y-88825209D01*
X137340993Y-88791231D01*
X137357734Y-88759910D01*
X137380261Y-88732461D01*
X137407710Y-88709934D01*
X137439031Y-88693193D01*
X137473009Y-88682885D01*
X137514490Y-88678800D01*
X138115710Y-88678800D01*
X138157191Y-88682885D01*
G37*
G36*
X129502800Y-89345400D02*
G01*
X127900800Y-89345400D01*
X127900800Y-87743400D01*
X129502800Y-87743400D01*
X129502800Y-89345400D01*
G37*
G36*
X153566991Y-87546485D02*
G01*
X153600969Y-87556793D01*
X153632290Y-87573534D01*
X153659739Y-87596061D01*
X153682266Y-87623510D01*
X153699007Y-87654831D01*
X153709315Y-87688809D01*
X153713400Y-87730290D01*
X153713400Y-88331510D01*
X153709315Y-88372991D01*
X153699007Y-88406969D01*
X153682266Y-88438290D01*
X153659739Y-88465739D01*
X153632290Y-88488266D01*
X153600969Y-88505007D01*
X153566991Y-88515315D01*
X153525510Y-88519400D01*
X152849290Y-88519400D01*
X152807809Y-88515315D01*
X152773831Y-88505007D01*
X152742510Y-88488266D01*
X152715061Y-88465739D01*
X152692534Y-88438290D01*
X152675793Y-88406969D01*
X152665485Y-88372991D01*
X152661400Y-88331510D01*
X152661400Y-87730290D01*
X152665485Y-87688809D01*
X152675793Y-87654831D01*
X152692534Y-87623510D01*
X152715061Y-87596061D01*
X152742510Y-87573534D01*
X152773831Y-87556793D01*
X152807809Y-87546485D01*
X152849290Y-87542400D01*
X153525510Y-87542400D01*
X153566991Y-87546485D01*
G37*
G36*
X155065591Y-87526485D02*
G01*
X155099569Y-87536793D01*
X155130890Y-87553534D01*
X155158339Y-87576061D01*
X155180866Y-87603510D01*
X155197607Y-87634831D01*
X155207915Y-87668809D01*
X155212000Y-87710290D01*
X155212000Y-88311510D01*
X155207915Y-88352991D01*
X155197607Y-88386969D01*
X155180866Y-88418290D01*
X155158339Y-88445739D01*
X155130890Y-88468266D01*
X155099569Y-88485007D01*
X155065591Y-88495315D01*
X155024110Y-88499400D01*
X154347890Y-88499400D01*
X154306409Y-88495315D01*
X154272431Y-88485007D01*
X154241110Y-88468266D01*
X154213661Y-88445739D01*
X154191134Y-88418290D01*
X154174393Y-88386969D01*
X154164085Y-88352991D01*
X154160000Y-88311510D01*
X154160000Y-87710290D01*
X154164085Y-87668809D01*
X154174393Y-87634831D01*
X154191134Y-87603510D01*
X154213661Y-87576061D01*
X154241110Y-87553534D01*
X154272431Y-87536793D01*
X154306409Y-87526485D01*
X154347890Y-87522400D01*
X155024110Y-87522400D01*
X155065591Y-87526485D01*
G37*
G36*
X136562191Y-87209685D02*
G01*
X136596169Y-87219993D01*
X136627490Y-87236734D01*
X136654939Y-87259261D01*
X136677466Y-87286710D01*
X136694207Y-87318031D01*
X136704515Y-87352009D01*
X136708600Y-87393490D01*
X136708600Y-88069710D01*
X136704515Y-88111191D01*
X136694207Y-88145169D01*
X136677466Y-88176490D01*
X136654939Y-88203939D01*
X136627490Y-88226466D01*
X136596169Y-88243207D01*
X136562191Y-88253515D01*
X136520710Y-88257600D01*
X135919490Y-88257600D01*
X135878009Y-88253515D01*
X135844031Y-88243207D01*
X135812710Y-88226466D01*
X135785261Y-88203939D01*
X135762734Y-88176490D01*
X135745993Y-88145169D01*
X135735685Y-88111191D01*
X135731600Y-88069710D01*
X135731600Y-87393490D01*
X135735685Y-87352009D01*
X135745993Y-87318031D01*
X135762734Y-87286710D01*
X135785261Y-87259261D01*
X135812710Y-87236734D01*
X135844031Y-87219993D01*
X135878009Y-87209685D01*
X135919490Y-87205600D01*
X136520710Y-87205600D01*
X136562191Y-87209685D01*
G37*
G36*
X138137191Y-87209685D02*
G01*
X138171169Y-87219993D01*
X138202490Y-87236734D01*
X138229939Y-87259261D01*
X138252466Y-87286710D01*
X138269207Y-87318031D01*
X138279515Y-87352009D01*
X138283600Y-87393490D01*
X138283600Y-88069710D01*
X138279515Y-88111191D01*
X138269207Y-88145169D01*
X138252466Y-88176490D01*
X138229939Y-88203939D01*
X138202490Y-88226466D01*
X138171169Y-88243207D01*
X138137191Y-88253515D01*
X138095710Y-88257600D01*
X137494490Y-88257600D01*
X137453009Y-88253515D01*
X137419031Y-88243207D01*
X137387710Y-88226466D01*
X137360261Y-88203939D01*
X137337734Y-88176490D01*
X137320993Y-88145169D01*
X137310685Y-88111191D01*
X137306600Y-88069710D01*
X137306600Y-87393490D01*
X137310685Y-87352009D01*
X137320993Y-87318031D01*
X137337734Y-87286710D01*
X137360261Y-87259261D01*
X137387710Y-87236734D01*
X137419031Y-87219993D01*
X137453009Y-87209685D01*
X137494490Y-87205600D01*
X138095710Y-87205600D01*
X138137191Y-87209685D01*
G37*
G36*
X132680200Y-87863300D02*
G01*
X131378200Y-87863300D01*
X131378200Y-86861300D01*
X132680200Y-86861300D01*
X132680200Y-87863300D01*
G37*
G36*
X155066291Y-86053985D02*
G01*
X155100269Y-86064293D01*
X155131590Y-86081034D01*
X155159039Y-86103561D01*
X155181566Y-86131010D01*
X155198307Y-86162331D01*
X155208615Y-86196309D01*
X155212700Y-86237790D01*
X155212700Y-86914010D01*
X155208615Y-86955491D01*
X155198307Y-86989469D01*
X155181566Y-87020790D01*
X155159039Y-87048239D01*
X155131590Y-87070766D01*
X155100269Y-87087507D01*
X155066291Y-87097815D01*
X155024810Y-87101900D01*
X154423590Y-87101900D01*
X154382109Y-87097815D01*
X154348131Y-87087507D01*
X154316810Y-87070766D01*
X154289361Y-87048239D01*
X154266834Y-87020790D01*
X154250093Y-86989469D01*
X154239785Y-86955491D01*
X154235700Y-86914010D01*
X154235700Y-86237790D01*
X154239785Y-86196309D01*
X154250093Y-86162331D01*
X154266834Y-86131010D01*
X154289361Y-86103561D01*
X154316810Y-86081034D01*
X154348131Y-86064293D01*
X154382109Y-86053985D01*
X154423590Y-86049900D01*
X155024810Y-86049900D01*
X155066291Y-86053985D01*
G37*
G36*
X153491291Y-86053985D02*
G01*
X153525269Y-86064293D01*
X153556590Y-86081034D01*
X153584039Y-86103561D01*
X153606566Y-86131010D01*
X153623307Y-86162331D01*
X153633615Y-86196309D01*
X153637700Y-86237790D01*
X153637700Y-86914010D01*
X153633615Y-86955491D01*
X153623307Y-86989469D01*
X153606566Y-87020790D01*
X153584039Y-87048239D01*
X153556590Y-87070766D01*
X153525269Y-87087507D01*
X153491291Y-87097815D01*
X153449810Y-87101900D01*
X152848590Y-87101900D01*
X152807109Y-87097815D01*
X152773131Y-87087507D01*
X152741810Y-87070766D01*
X152714361Y-87048239D01*
X152691834Y-87020790D01*
X152675093Y-86989469D01*
X152664785Y-86955491D01*
X152660700Y-86914010D01*
X152660700Y-86237790D01*
X152664785Y-86196309D01*
X152675093Y-86162331D01*
X152691834Y-86131010D01*
X152714361Y-86103561D01*
X152741810Y-86081034D01*
X152773131Y-86064293D01*
X152807109Y-86053985D01*
X152848590Y-86049900D01*
X153449810Y-86049900D01*
X153491291Y-86053985D01*
G37*
G36*
X129502800Y-87059400D02*
G01*
X127900800Y-87059400D01*
X127900800Y-85457400D01*
X129502800Y-85457400D01*
X129502800Y-87059400D01*
G37*
G36*
X136562191Y-85838085D02*
G01*
X136596169Y-85848393D01*
X136627490Y-85865134D01*
X136654939Y-85887661D01*
X136677466Y-85915110D01*
X136694207Y-85946431D01*
X136704515Y-85980409D01*
X136708600Y-86021890D01*
X136708600Y-86698110D01*
X136704515Y-86739591D01*
X136694207Y-86773569D01*
X136677466Y-86804890D01*
X136654939Y-86832339D01*
X136627490Y-86854866D01*
X136596169Y-86871607D01*
X136562191Y-86881915D01*
X136520710Y-86886000D01*
X135919490Y-86886000D01*
X135878009Y-86881915D01*
X135844031Y-86871607D01*
X135812710Y-86854866D01*
X135785261Y-86832339D01*
X135762734Y-86804890D01*
X135745993Y-86773569D01*
X135735685Y-86739591D01*
X135731600Y-86698110D01*
X135731600Y-86021890D01*
X135735685Y-85980409D01*
X135745993Y-85946431D01*
X135762734Y-85915110D01*
X135785261Y-85887661D01*
X135812710Y-85865134D01*
X135844031Y-85848393D01*
X135878009Y-85838085D01*
X135919490Y-85834000D01*
X136520710Y-85834000D01*
X136562191Y-85838085D01*
G37*
G36*
X138137191Y-85838085D02*
G01*
X138171169Y-85848393D01*
X138202490Y-85865134D01*
X138229939Y-85887661D01*
X138252466Y-85915110D01*
X138269207Y-85946431D01*
X138279515Y-85980409D01*
X138283600Y-86021890D01*
X138283600Y-86698110D01*
X138279515Y-86739591D01*
X138269207Y-86773569D01*
X138252466Y-86804890D01*
X138229939Y-86832339D01*
X138202490Y-86854866D01*
X138171169Y-86871607D01*
X138137191Y-86881915D01*
X138095710Y-86886000D01*
X137494490Y-86886000D01*
X137453009Y-86881915D01*
X137419031Y-86871607D01*
X137387710Y-86854866D01*
X137360261Y-86832339D01*
X137337734Y-86804890D01*
X137320993Y-86773569D01*
X137310685Y-86739591D01*
X137306600Y-86698110D01*
X137306600Y-86021890D01*
X137310685Y-85980409D01*
X137320993Y-85946431D01*
X137337734Y-85915110D01*
X137360261Y-85887661D01*
X137387710Y-85865134D01*
X137419031Y-85848393D01*
X137453009Y-85838085D01*
X137494490Y-85834000D01*
X138095710Y-85834000D01*
X138137191Y-85838085D01*
G37*
G36*
X153491291Y-84580785D02*
G01*
X153525269Y-84591093D01*
X153556590Y-84607834D01*
X153584039Y-84630361D01*
X153606566Y-84657810D01*
X153623307Y-84689131D01*
X153633615Y-84723109D01*
X153637700Y-84764590D01*
X153637700Y-85440810D01*
X153633615Y-85482291D01*
X153623307Y-85516269D01*
X153606566Y-85547590D01*
X153584039Y-85575039D01*
X153556590Y-85597566D01*
X153525269Y-85614307D01*
X153491291Y-85624615D01*
X153449810Y-85628700D01*
X152848590Y-85628700D01*
X152807109Y-85624615D01*
X152773131Y-85614307D01*
X152741810Y-85597566D01*
X152714361Y-85575039D01*
X152691834Y-85547590D01*
X152675093Y-85516269D01*
X152664785Y-85482291D01*
X152660700Y-85440810D01*
X152660700Y-84764590D01*
X152664785Y-84723109D01*
X152675093Y-84689131D01*
X152691834Y-84657810D01*
X152714361Y-84630361D01*
X152741810Y-84607834D01*
X152773131Y-84591093D01*
X152807109Y-84580785D01*
X152848590Y-84576700D01*
X153449810Y-84576700D01*
X153491291Y-84580785D01*
G37*
G36*
X155066291Y-84580785D02*
G01*
X155100269Y-84591093D01*
X155131590Y-84607834D01*
X155159039Y-84630361D01*
X155181566Y-84657810D01*
X155198307Y-84689131D01*
X155208615Y-84723109D01*
X155212700Y-84764590D01*
X155212700Y-85440810D01*
X155208615Y-85482291D01*
X155198307Y-85516269D01*
X155181566Y-85547590D01*
X155159039Y-85575039D01*
X155131590Y-85597566D01*
X155100269Y-85614307D01*
X155066291Y-85624615D01*
X155024810Y-85628700D01*
X154423590Y-85628700D01*
X154382109Y-85624615D01*
X154348131Y-85614307D01*
X154316810Y-85597566D01*
X154289361Y-85575039D01*
X154266834Y-85547590D01*
X154250093Y-85516269D01*
X154239785Y-85482291D01*
X154235700Y-85440810D01*
X154235700Y-84764590D01*
X154239785Y-84723109D01*
X154250093Y-84689131D01*
X154266834Y-84657810D01*
X154289361Y-84630361D01*
X154316810Y-84607834D01*
X154348131Y-84591093D01*
X154382109Y-84580785D01*
X154423590Y-84576700D01*
X155024810Y-84576700D01*
X155066291Y-84580785D01*
G37*
G36*
X136562191Y-84466485D02*
G01*
X136596169Y-84476793D01*
X136627490Y-84493534D01*
X136654939Y-84516061D01*
X136677466Y-84543510D01*
X136694207Y-84574831D01*
X136704515Y-84608809D01*
X136708600Y-84650290D01*
X136708600Y-85326510D01*
X136704515Y-85367991D01*
X136694207Y-85401969D01*
X136677466Y-85433290D01*
X136654939Y-85460739D01*
X136627490Y-85483266D01*
X136596169Y-85500007D01*
X136562191Y-85510315D01*
X136520710Y-85514400D01*
X135919490Y-85514400D01*
X135878009Y-85510315D01*
X135844031Y-85500007D01*
X135812710Y-85483266D01*
X135785261Y-85460739D01*
X135762734Y-85433290D01*
X135745993Y-85401969D01*
X135735685Y-85367991D01*
X135731600Y-85326510D01*
X135731600Y-84650290D01*
X135735685Y-84608809D01*
X135745993Y-84574831D01*
X135762734Y-84543510D01*
X135785261Y-84516061D01*
X135812710Y-84493534D01*
X135844031Y-84476793D01*
X135878009Y-84466485D01*
X135919490Y-84462400D01*
X136520710Y-84462400D01*
X136562191Y-84466485D01*
G37*
G36*
X138137191Y-84466485D02*
G01*
X138171169Y-84476793D01*
X138202490Y-84493534D01*
X138229939Y-84516061D01*
X138252466Y-84543510D01*
X138269207Y-84574831D01*
X138279515Y-84608809D01*
X138283600Y-84650290D01*
X138283600Y-85326510D01*
X138279515Y-85367991D01*
X138269207Y-85401969D01*
X138252466Y-85433290D01*
X138229939Y-85460739D01*
X138202490Y-85483266D01*
X138171169Y-85500007D01*
X138137191Y-85510315D01*
X138095710Y-85514400D01*
X137494490Y-85514400D01*
X137453009Y-85510315D01*
X137419031Y-85500007D01*
X137387710Y-85483266D01*
X137360261Y-85460739D01*
X137337734Y-85433290D01*
X137320993Y-85401969D01*
X137310685Y-85367991D01*
X137306600Y-85326510D01*
X137306600Y-84650290D01*
X137310685Y-84608809D01*
X137320993Y-84574831D01*
X137337734Y-84543510D01*
X137360261Y-84516061D01*
X137387710Y-84493534D01*
X137419031Y-84476793D01*
X137453009Y-84466485D01*
X137494490Y-84462400D01*
X138095710Y-84462400D01*
X138137191Y-84466485D01*
G37*
G36*
X129502800Y-84773400D02*
G01*
X127900800Y-84773400D01*
X127900800Y-83171400D01*
X129502800Y-83171400D01*
X129502800Y-84773400D01*
G37*
G36*
X132680200Y-84563300D02*
G01*
X131378200Y-84563300D01*
X131378200Y-83561300D01*
X132680200Y-83561300D01*
X132680200Y-84563300D01*
G37*
G36*
X155066291Y-83132985D02*
G01*
X155100269Y-83143293D01*
X155131590Y-83160034D01*
X155159039Y-83182561D01*
X155181566Y-83210010D01*
X155198307Y-83241331D01*
X155208615Y-83275309D01*
X155212700Y-83316790D01*
X155212700Y-83993010D01*
X155208615Y-84034491D01*
X155198307Y-84068469D01*
X155181566Y-84099790D01*
X155159039Y-84127239D01*
X155131590Y-84149766D01*
X155100269Y-84166507D01*
X155066291Y-84176815D01*
X155024810Y-84180900D01*
X154423590Y-84180900D01*
X154382109Y-84176815D01*
X154348131Y-84166507D01*
X154316810Y-84149766D01*
X154289361Y-84127239D01*
X154266834Y-84099790D01*
X154250093Y-84068469D01*
X154239785Y-84034491D01*
X154235700Y-83993010D01*
X154235700Y-83316790D01*
X154239785Y-83275309D01*
X154250093Y-83241331D01*
X154266834Y-83210010D01*
X154289361Y-83182561D01*
X154316810Y-83160034D01*
X154348131Y-83143293D01*
X154382109Y-83132985D01*
X154423590Y-83128900D01*
X155024810Y-83128900D01*
X155066291Y-83132985D01*
G37*
G36*
X153491291Y-83132985D02*
G01*
X153525269Y-83143293D01*
X153556590Y-83160034D01*
X153584039Y-83182561D01*
X153606566Y-83210010D01*
X153623307Y-83241331D01*
X153633615Y-83275309D01*
X153637700Y-83316790D01*
X153637700Y-83993010D01*
X153633615Y-84034491D01*
X153623307Y-84068469D01*
X153606566Y-84099790D01*
X153584039Y-84127239D01*
X153556590Y-84149766D01*
X153525269Y-84166507D01*
X153491291Y-84176815D01*
X153449810Y-84180900D01*
X152848590Y-84180900D01*
X152807109Y-84176815D01*
X152773131Y-84166507D01*
X152741810Y-84149766D01*
X152714361Y-84127239D01*
X152691834Y-84099790D01*
X152675093Y-84068469D01*
X152664785Y-84034491D01*
X152660700Y-83993010D01*
X152660700Y-83316790D01*
X152664785Y-83275309D01*
X152675093Y-83241331D01*
X152691834Y-83210010D01*
X152714361Y-83182561D01*
X152741810Y-83160034D01*
X152773131Y-83143293D01*
X152807109Y-83132985D01*
X152848590Y-83128900D01*
X153449810Y-83128900D01*
X153491291Y-83132985D01*
G37*
G36*
X134428791Y-81621685D02*
G01*
X134462769Y-81631993D01*
X134494090Y-81648734D01*
X134521539Y-81671261D01*
X134544066Y-81698710D01*
X134560807Y-81730031D01*
X134571115Y-81764009D01*
X134575200Y-81805490D01*
X134575200Y-82481710D01*
X134571115Y-82523191D01*
X134560807Y-82557169D01*
X134544066Y-82588490D01*
X134521539Y-82615939D01*
X134494090Y-82638466D01*
X134462769Y-82655207D01*
X134428791Y-82665515D01*
X134387310Y-82669600D01*
X133786090Y-82669600D01*
X133744609Y-82665515D01*
X133710631Y-82655207D01*
X133679310Y-82638466D01*
X133651861Y-82615939D01*
X133629334Y-82588490D01*
X133612593Y-82557169D01*
X133602285Y-82523191D01*
X133598200Y-82481710D01*
X133598200Y-81805490D01*
X133602285Y-81764009D01*
X133612593Y-81730031D01*
X133629334Y-81698710D01*
X133651861Y-81671261D01*
X133679310Y-81648734D01*
X133710631Y-81631993D01*
X133744609Y-81621685D01*
X133786090Y-81617600D01*
X134387310Y-81617600D01*
X134428791Y-81621685D01*
G37*
G36*
X132853791Y-81621685D02*
G01*
X132887769Y-81631993D01*
X132919090Y-81648734D01*
X132946539Y-81671261D01*
X132969066Y-81698710D01*
X132985807Y-81730031D01*
X132996115Y-81764009D01*
X133000200Y-81805490D01*
X133000200Y-82481710D01*
X132996115Y-82523191D01*
X132985807Y-82557169D01*
X132969066Y-82588490D01*
X132946539Y-82615939D01*
X132919090Y-82638466D01*
X132887769Y-82655207D01*
X132853791Y-82665515D01*
X132812310Y-82669600D01*
X132211090Y-82669600D01*
X132169609Y-82665515D01*
X132135631Y-82655207D01*
X132104310Y-82638466D01*
X132076861Y-82615939D01*
X132054334Y-82588490D01*
X132037593Y-82557169D01*
X132027285Y-82523191D01*
X132023200Y-82481710D01*
X132023200Y-81805490D01*
X132027285Y-81764009D01*
X132037593Y-81730031D01*
X132054334Y-81698710D01*
X132076861Y-81671261D01*
X132104310Y-81648734D01*
X132135631Y-81631993D01*
X132169609Y-81621685D01*
X132211090Y-81617600D01*
X132812310Y-81617600D01*
X132853791Y-81621685D01*
G37*
G36*
X138137191Y-81621685D02*
G01*
X138171169Y-81631993D01*
X138202490Y-81648734D01*
X138229939Y-81671261D01*
X138252466Y-81698710D01*
X138269207Y-81730031D01*
X138279515Y-81764009D01*
X138283600Y-81805490D01*
X138283600Y-82481710D01*
X138279515Y-82523191D01*
X138269207Y-82557169D01*
X138252466Y-82588490D01*
X138229939Y-82615939D01*
X138202490Y-82638466D01*
X138171169Y-82655207D01*
X138137191Y-82665515D01*
X138095710Y-82669600D01*
X137494490Y-82669600D01*
X137453009Y-82665515D01*
X137419031Y-82655207D01*
X137387710Y-82638466D01*
X137360261Y-82615939D01*
X137337734Y-82588490D01*
X137320993Y-82557169D01*
X137310685Y-82523191D01*
X137306600Y-82481710D01*
X137306600Y-81805490D01*
X137310685Y-81764009D01*
X137320993Y-81730031D01*
X137337734Y-81698710D01*
X137360261Y-81671261D01*
X137387710Y-81648734D01*
X137419031Y-81631993D01*
X137453009Y-81621685D01*
X137494490Y-81617600D01*
X138095710Y-81617600D01*
X138137191Y-81621685D01*
G37*
G36*
X136562191Y-81621685D02*
G01*
X136596169Y-81631993D01*
X136627490Y-81648734D01*
X136654939Y-81671261D01*
X136677466Y-81698710D01*
X136694207Y-81730031D01*
X136704515Y-81764009D01*
X136708600Y-81805490D01*
X136708600Y-82481710D01*
X136704515Y-82523191D01*
X136694207Y-82557169D01*
X136677466Y-82588490D01*
X136654939Y-82615939D01*
X136627490Y-82638466D01*
X136596169Y-82655207D01*
X136562191Y-82665515D01*
X136520710Y-82669600D01*
X135919490Y-82669600D01*
X135878009Y-82665515D01*
X135844031Y-82655207D01*
X135812710Y-82638466D01*
X135785261Y-82615939D01*
X135762734Y-82588490D01*
X135745993Y-82557169D01*
X135735685Y-82523191D01*
X135731600Y-82481710D01*
X135731600Y-81805490D01*
X135735685Y-81764009D01*
X135745993Y-81730031D01*
X135762734Y-81698710D01*
X135785261Y-81671261D01*
X135812710Y-81648734D01*
X135844031Y-81631993D01*
X135878009Y-81621685D01*
X135919490Y-81617600D01*
X136520710Y-81617600D01*
X136562191Y-81621685D01*
G37*
G36*
X129502800Y-82347700D02*
G01*
X127900800Y-82347700D01*
X127900800Y-80745700D01*
X129502800Y-80745700D01*
X129502800Y-82347700D01*
G37*
G36*
X153644600Y-81206340D02*
G01*
X152542240Y-81206340D01*
X152542240Y-80205580D01*
X153644600Y-80205580D01*
X153644600Y-81206340D01*
G37*
G36*
X154963991Y-80059085D02*
G01*
X154997969Y-80069393D01*
X155029290Y-80086134D01*
X155056739Y-80108661D01*
X155079266Y-80136110D01*
X155096007Y-80167431D01*
X155106315Y-80201409D01*
X155110400Y-80242890D01*
X155110400Y-80844110D01*
X155106315Y-80885591D01*
X155096007Y-80919569D01*
X155079266Y-80950890D01*
X155056739Y-80978339D01*
X155029290Y-81000866D01*
X154997969Y-81017607D01*
X154963991Y-81027915D01*
X154922510Y-81032000D01*
X154246290Y-81032000D01*
X154204809Y-81027915D01*
X154170831Y-81017607D01*
X154139510Y-81000866D01*
X154112061Y-80978339D01*
X154089534Y-80950890D01*
X154072793Y-80919569D01*
X154062485Y-80885591D01*
X154058400Y-80844110D01*
X154058400Y-80242890D01*
X154062485Y-80201409D01*
X154072793Y-80167431D01*
X154089534Y-80136110D01*
X154112061Y-80108661D01*
X154139510Y-80086134D01*
X154170831Y-80069393D01*
X154204809Y-80059085D01*
X154246290Y-80055000D01*
X154922510Y-80055000D01*
X154963991Y-80059085D01*
G37*
G36*
X156424491Y-80059085D02*
G01*
X156458469Y-80069393D01*
X156489790Y-80086134D01*
X156517239Y-80108661D01*
X156539766Y-80136110D01*
X156556507Y-80167431D01*
X156566815Y-80201409D01*
X156570900Y-80242890D01*
X156570900Y-80844110D01*
X156566815Y-80885591D01*
X156556507Y-80919569D01*
X156539766Y-80950890D01*
X156517239Y-80978339D01*
X156489790Y-81000866D01*
X156458469Y-81017607D01*
X156424491Y-81027915D01*
X156383010Y-81032000D01*
X155706790Y-81032000D01*
X155665309Y-81027915D01*
X155631331Y-81017607D01*
X155600010Y-81000866D01*
X155572561Y-80978339D01*
X155550034Y-80950890D01*
X155533293Y-80919569D01*
X155522985Y-80885591D01*
X155518900Y-80844110D01*
X155518900Y-80242890D01*
X155522985Y-80201409D01*
X155533293Y-80167431D01*
X155550034Y-80136110D01*
X155572561Y-80108661D01*
X155600010Y-80086134D01*
X155631331Y-80069393D01*
X155665309Y-80059085D01*
X155706790Y-80055000D01*
X156383010Y-80055000D01*
X156424491Y-80059085D01*
G37*
G36*
X149829900Y-80965700D02*
G01*
X141177900Y-80965700D01*
X141177900Y-79363700D01*
X149829900Y-79363700D01*
X149829900Y-80965700D01*
G37*
G36*
X139940030Y-80890110D02*
G01*
X138139170Y-80890110D01*
X138139170Y-79287370D01*
X139940030Y-79287370D01*
X139940030Y-80890110D01*
G37*
G36*
X135958580Y-80846980D02*
G01*
X134556500Y-80846980D01*
X134556500Y-80095140D01*
X135958580Y-80095140D01*
X135958580Y-80846980D01*
G37*
G36*
X133362700Y-80846980D02*
G01*
X131960620Y-80846980D01*
X131960620Y-78195220D01*
X133362700Y-78195220D01*
X133362700Y-80846980D01*
G37*
G36*
X137577691Y-79843185D02*
G01*
X137611669Y-79853493D01*
X137642990Y-79870234D01*
X137670439Y-79892761D01*
X137692966Y-79920210D01*
X137709707Y-79951531D01*
X137720015Y-79985509D01*
X137724100Y-80026990D01*
X137724100Y-80628210D01*
X137720015Y-80669691D01*
X137709707Y-80703669D01*
X137692966Y-80734990D01*
X137670439Y-80762439D01*
X137642990Y-80784966D01*
X137611669Y-80801707D01*
X137577691Y-80812015D01*
X137536210Y-80816100D01*
X136859990Y-80816100D01*
X136818509Y-80812015D01*
X136784531Y-80801707D01*
X136753210Y-80784966D01*
X136725761Y-80762439D01*
X136703234Y-80734990D01*
X136686493Y-80703669D01*
X136676185Y-80669691D01*
X136672100Y-80628210D01*
X136672100Y-80026990D01*
X136676185Y-79985509D01*
X136686493Y-79951531D01*
X136703234Y-79920210D01*
X136725761Y-79892761D01*
X136753210Y-79870234D01*
X136784531Y-79853493D01*
X136818509Y-79843185D01*
X136859990Y-79839100D01*
X137536210Y-79839100D01*
X137577691Y-79843185D01*
G37*
G36*
X151546560Y-80256380D02*
G01*
X150444200Y-80256380D01*
X150444200Y-79255620D01*
X151546560Y-79255620D01*
X151546560Y-80256380D01*
G37*
G36*
X129502800Y-79934700D02*
G01*
X127900800Y-79934700D01*
X127900800Y-78332700D01*
X129502800Y-78332700D01*
X129502800Y-79934700D01*
G37*
G36*
X154963991Y-78484085D02*
G01*
X154997969Y-78494393D01*
X155029290Y-78511134D01*
X155056739Y-78533661D01*
X155079266Y-78561110D01*
X155096007Y-78592431D01*
X155106315Y-78626409D01*
X155110400Y-78667890D01*
X155110400Y-79269110D01*
X155106315Y-79310591D01*
X155096007Y-79344569D01*
X155079266Y-79375890D01*
X155056739Y-79403339D01*
X155029290Y-79425866D01*
X154997969Y-79442607D01*
X154963991Y-79452915D01*
X154922510Y-79457000D01*
X154246290Y-79457000D01*
X154204809Y-79452915D01*
X154170831Y-79442607D01*
X154139510Y-79425866D01*
X154112061Y-79403339D01*
X154089534Y-79375890D01*
X154072793Y-79344569D01*
X154062485Y-79310591D01*
X154058400Y-79269110D01*
X154058400Y-78667890D01*
X154062485Y-78626409D01*
X154072793Y-78592431D01*
X154089534Y-78561110D01*
X154112061Y-78533661D01*
X154139510Y-78511134D01*
X154170831Y-78494393D01*
X154204809Y-78484085D01*
X154246290Y-78480000D01*
X154922510Y-78480000D01*
X154963991Y-78484085D01*
G37*
G36*
X156424491Y-78484085D02*
G01*
X156458469Y-78494393D01*
X156489790Y-78511134D01*
X156517239Y-78533661D01*
X156539766Y-78561110D01*
X156556507Y-78592431D01*
X156566815Y-78626409D01*
X156570900Y-78667890D01*
X156570900Y-79269110D01*
X156566815Y-79310591D01*
X156556507Y-79344569D01*
X156539766Y-79375890D01*
X156517239Y-79403339D01*
X156489790Y-79425866D01*
X156458469Y-79442607D01*
X156424491Y-79452915D01*
X156383010Y-79457000D01*
X155706790Y-79457000D01*
X155665309Y-79452915D01*
X155631331Y-79442607D01*
X155600010Y-79425866D01*
X155572561Y-79403339D01*
X155550034Y-79375890D01*
X155533293Y-79344569D01*
X155522985Y-79310591D01*
X155518900Y-79269110D01*
X155518900Y-78667890D01*
X155522985Y-78626409D01*
X155533293Y-78592431D01*
X155550034Y-78561110D01*
X155572561Y-78533661D01*
X155600010Y-78511134D01*
X155631331Y-78494393D01*
X155665309Y-78484085D01*
X155706790Y-78480000D01*
X156383010Y-78480000D01*
X156424491Y-78484085D01*
G37*
G36*
X153644600Y-79306420D02*
G01*
X152542240Y-79306420D01*
X152542240Y-78305660D01*
X153644600Y-78305660D01*
X153644600Y-79306420D01*
G37*
G36*
X137577691Y-78268185D02*
G01*
X137611669Y-78278493D01*
X137642990Y-78295234D01*
X137670439Y-78317761D01*
X137692966Y-78345210D01*
X137709707Y-78376531D01*
X137720015Y-78410509D01*
X137724100Y-78451990D01*
X137724100Y-79053210D01*
X137720015Y-79094691D01*
X137709707Y-79128669D01*
X137692966Y-79159990D01*
X137670439Y-79187439D01*
X137642990Y-79209966D01*
X137611669Y-79226707D01*
X137577691Y-79237015D01*
X137536210Y-79241100D01*
X136859990Y-79241100D01*
X136818509Y-79237015D01*
X136784531Y-79226707D01*
X136753210Y-79209966D01*
X136725761Y-79187439D01*
X136703234Y-79159990D01*
X136686493Y-79128669D01*
X136676185Y-79094691D01*
X136672100Y-79053210D01*
X136672100Y-78451990D01*
X136676185Y-78410509D01*
X136686493Y-78376531D01*
X136703234Y-78345210D01*
X136725761Y-78317761D01*
X136753210Y-78295234D01*
X136784531Y-78278493D01*
X136818509Y-78268185D01*
X136859990Y-78264100D01*
X137536210Y-78264100D01*
X137577691Y-78268185D01*
G37*
G36*
X135958580Y-78947060D02*
G01*
X134556500Y-78947060D01*
X134556500Y-78195220D01*
X135958580Y-78195220D01*
X135958580Y-78947060D01*
G37*
G36*
X149756991Y-77874685D02*
G01*
X149790969Y-77884993D01*
X149822290Y-77901734D01*
X149849739Y-77924261D01*
X149872266Y-77951710D01*
X149889007Y-77983031D01*
X149899315Y-78017009D01*
X149903400Y-78058490D01*
X149903400Y-78659710D01*
X149899315Y-78701191D01*
X149889007Y-78735169D01*
X149872266Y-78766490D01*
X149849739Y-78793939D01*
X149822290Y-78816466D01*
X149790969Y-78833207D01*
X149756991Y-78843515D01*
X149715510Y-78847600D01*
X149039290Y-78847600D01*
X148997809Y-78843515D01*
X148963831Y-78833207D01*
X148932510Y-78816466D01*
X148905061Y-78793939D01*
X148882534Y-78766490D01*
X148865793Y-78735169D01*
X148855485Y-78701191D01*
X148851400Y-78659710D01*
X148851400Y-78058490D01*
X148855485Y-78017009D01*
X148865793Y-77983031D01*
X148882534Y-77951710D01*
X148905061Y-77924261D01*
X148932510Y-77901734D01*
X148963831Y-77884993D01*
X148997809Y-77874685D01*
X149039290Y-77870600D01*
X149715510Y-77870600D01*
X149756991Y-77874685D01*
G37*
G36*
X148232991Y-77874685D02*
G01*
X148266969Y-77884993D01*
X148298290Y-77901734D01*
X148325739Y-77924261D01*
X148348266Y-77951710D01*
X148365007Y-77983031D01*
X148375315Y-78017009D01*
X148379400Y-78058490D01*
X148379400Y-78659710D01*
X148375315Y-78701191D01*
X148365007Y-78735169D01*
X148348266Y-78766490D01*
X148325739Y-78793939D01*
X148298290Y-78816466D01*
X148266969Y-78833207D01*
X148232991Y-78843515D01*
X148191510Y-78847600D01*
X147515290Y-78847600D01*
X147473809Y-78843515D01*
X147439831Y-78833207D01*
X147408510Y-78816466D01*
X147381061Y-78793939D01*
X147358534Y-78766490D01*
X147341793Y-78735169D01*
X147331485Y-78701191D01*
X147327400Y-78659710D01*
X147327400Y-78058490D01*
X147331485Y-78017009D01*
X147341793Y-77983031D01*
X147358534Y-77951710D01*
X147381061Y-77924261D01*
X147408510Y-77901734D01*
X147439831Y-77884993D01*
X147473809Y-77874685D01*
X147515290Y-77870600D01*
X148191510Y-77870600D01*
X148232991Y-77874685D01*
G37*
G36*
X143406991Y-77874685D02*
G01*
X143440969Y-77884993D01*
X143472290Y-77901734D01*
X143499739Y-77924261D01*
X143522266Y-77951710D01*
X143539007Y-77983031D01*
X143549315Y-78017009D01*
X143553400Y-78058490D01*
X143553400Y-78659710D01*
X143549315Y-78701191D01*
X143539007Y-78735169D01*
X143522266Y-78766490D01*
X143499739Y-78793939D01*
X143472290Y-78816466D01*
X143440969Y-78833207D01*
X143406991Y-78843515D01*
X143365510Y-78847600D01*
X142689290Y-78847600D01*
X142647809Y-78843515D01*
X142613831Y-78833207D01*
X142582510Y-78816466D01*
X142555061Y-78793939D01*
X142532534Y-78766490D01*
X142515793Y-78735169D01*
X142505485Y-78701191D01*
X142501400Y-78659710D01*
X142501400Y-78058490D01*
X142505485Y-78017009D01*
X142515793Y-77983031D01*
X142532534Y-77951710D01*
X142555061Y-77924261D01*
X142582510Y-77901734D01*
X142613831Y-77884993D01*
X142647809Y-77874685D01*
X142689290Y-77870600D01*
X143365510Y-77870600D01*
X143406991Y-77874685D01*
G37*
G36*
X141933791Y-77874685D02*
G01*
X141967769Y-77884993D01*
X141999090Y-77901734D01*
X142026539Y-77924261D01*
X142049066Y-77951710D01*
X142065807Y-77983031D01*
X142076115Y-78017009D01*
X142080200Y-78058490D01*
X142080200Y-78659710D01*
X142076115Y-78701191D01*
X142065807Y-78735169D01*
X142049066Y-78766490D01*
X142026539Y-78793939D01*
X141999090Y-78816466D01*
X141967769Y-78833207D01*
X141933791Y-78843515D01*
X141892310Y-78847600D01*
X141216090Y-78847600D01*
X141174609Y-78843515D01*
X141140631Y-78833207D01*
X141109310Y-78816466D01*
X141081861Y-78793939D01*
X141059334Y-78766490D01*
X141042593Y-78735169D01*
X141032285Y-78701191D01*
X141028200Y-78659710D01*
X141028200Y-78058490D01*
X141032285Y-78017009D01*
X141042593Y-77983031D01*
X141059334Y-77951710D01*
X141081861Y-77924261D01*
X141109310Y-77901734D01*
X141140631Y-77884993D01*
X141174609Y-77874685D01*
X141216090Y-77870600D01*
X141892310Y-77870600D01*
X141933791Y-77874685D01*
G37*
G36*
X139940030Y-78091030D02*
G01*
X138139170Y-78091030D01*
X138139170Y-76488290D01*
X139940030Y-76488290D01*
X139940030Y-78091030D01*
G37*
G36*
X154850191Y-76846485D02*
G01*
X154884169Y-76856793D01*
X154915490Y-76873534D01*
X154942939Y-76896061D01*
X154965466Y-76923510D01*
X154982207Y-76954831D01*
X154992515Y-76988809D01*
X154996600Y-77030290D01*
X154996600Y-77706510D01*
X154992515Y-77747991D01*
X154982207Y-77781969D01*
X154965466Y-77813290D01*
X154942939Y-77840739D01*
X154915490Y-77863266D01*
X154884169Y-77880007D01*
X154850191Y-77890315D01*
X154808710Y-77894400D01*
X154207490Y-77894400D01*
X154166009Y-77890315D01*
X154132031Y-77880007D01*
X154100710Y-77863266D01*
X154073261Y-77840739D01*
X154050734Y-77813290D01*
X154033993Y-77781969D01*
X154023685Y-77747991D01*
X154019600Y-77706510D01*
X154019600Y-77030290D01*
X154023685Y-76988809D01*
X154033993Y-76954831D01*
X154050734Y-76923510D01*
X154073261Y-76896061D01*
X154100710Y-76873534D01*
X154132031Y-76856793D01*
X154166009Y-76846485D01*
X154207490Y-76842400D01*
X154808710Y-76842400D01*
X154850191Y-76846485D01*
G37*
G36*
X156425191Y-76846485D02*
G01*
X156459169Y-76856793D01*
X156490490Y-76873534D01*
X156517939Y-76896061D01*
X156540466Y-76923510D01*
X156557207Y-76954831D01*
X156567515Y-76988809D01*
X156571600Y-77030290D01*
X156571600Y-77706510D01*
X156567515Y-77747991D01*
X156557207Y-77781969D01*
X156540466Y-77813290D01*
X156517939Y-77840739D01*
X156490490Y-77863266D01*
X156459169Y-77880007D01*
X156425191Y-77890315D01*
X156383710Y-77894400D01*
X155782490Y-77894400D01*
X155741009Y-77890315D01*
X155707031Y-77880007D01*
X155675710Y-77863266D01*
X155648261Y-77840739D01*
X155625734Y-77813290D01*
X155608993Y-77781969D01*
X155598685Y-77747991D01*
X155594600Y-77706510D01*
X155594600Y-77030290D01*
X155598685Y-76988809D01*
X155608993Y-76954831D01*
X155625734Y-76923510D01*
X155648261Y-76896061D01*
X155675710Y-76873534D01*
X155707031Y-76856793D01*
X155741009Y-76846485D01*
X155782490Y-76842400D01*
X156383710Y-76842400D01*
X156425191Y-76846485D01*
G37*
G36*
X151903791Y-76846485D02*
G01*
X151937769Y-76856793D01*
X151969090Y-76873534D01*
X151996539Y-76896061D01*
X152019066Y-76923510D01*
X152035807Y-76954831D01*
X152046115Y-76988809D01*
X152050200Y-77030290D01*
X152050200Y-77706510D01*
X152046115Y-77747991D01*
X152035807Y-77781969D01*
X152019066Y-77813290D01*
X151996539Y-77840739D01*
X151969090Y-77863266D01*
X151937769Y-77880007D01*
X151903791Y-77890315D01*
X151862310Y-77894400D01*
X151261090Y-77894400D01*
X151219609Y-77890315D01*
X151185631Y-77880007D01*
X151154310Y-77863266D01*
X151126861Y-77840739D01*
X151104334Y-77813290D01*
X151087593Y-77781969D01*
X151077285Y-77747991D01*
X151073200Y-77706510D01*
X151073200Y-77030290D01*
X151077285Y-76988809D01*
X151087593Y-76954831D01*
X151104334Y-76923510D01*
X151126861Y-76896061D01*
X151154310Y-76873534D01*
X151185631Y-76856793D01*
X151219609Y-76846485D01*
X151261090Y-76842400D01*
X151862310Y-76842400D01*
X151903791Y-76846485D01*
G37*
G36*
X153478791Y-76846485D02*
G01*
X153512769Y-76856793D01*
X153544090Y-76873534D01*
X153571539Y-76896061D01*
X153594066Y-76923510D01*
X153610807Y-76954831D01*
X153621115Y-76988809D01*
X153625200Y-77030290D01*
X153625200Y-77706510D01*
X153621115Y-77747991D01*
X153610807Y-77781969D01*
X153594066Y-77813290D01*
X153571539Y-77840739D01*
X153544090Y-77863266D01*
X153512769Y-77880007D01*
X153478791Y-77890315D01*
X153437310Y-77894400D01*
X152836090Y-77894400D01*
X152794609Y-77890315D01*
X152760631Y-77880007D01*
X152729310Y-77863266D01*
X152701861Y-77840739D01*
X152679334Y-77813290D01*
X152662593Y-77781969D01*
X152652285Y-77747991D01*
X152648200Y-77706510D01*
X152648200Y-77030290D01*
X152652285Y-76988809D01*
X152662593Y-76954831D01*
X152679334Y-76923510D01*
X152701861Y-76896061D01*
X152729310Y-76873534D01*
X152760631Y-76856793D01*
X152794609Y-76846485D01*
X152836090Y-76842400D01*
X153437310Y-76842400D01*
X153478791Y-76846485D01*
G37*
G36*
X134862570Y-77557630D02*
G01*
X133259830Y-77557630D01*
X133259830Y-75756770D01*
X134862570Y-75756770D01*
X134862570Y-77557630D01*
G37*
G36*
X137661650Y-77557630D02*
G01*
X136058910Y-77557630D01*
X136058910Y-75756770D01*
X137661650Y-75756770D01*
X137661650Y-77557630D01*
G37*
G36*
X141933791Y-76299685D02*
G01*
X141967769Y-76309993D01*
X141999090Y-76326734D01*
X142026539Y-76349261D01*
X142049066Y-76376710D01*
X142065807Y-76408031D01*
X142076115Y-76442009D01*
X142080200Y-76483490D01*
X142080200Y-77084710D01*
X142076115Y-77126191D01*
X142065807Y-77160169D01*
X142049066Y-77191490D01*
X142026539Y-77218939D01*
X141999090Y-77241466D01*
X141967769Y-77258207D01*
X141933791Y-77268515D01*
X141892310Y-77272600D01*
X141216090Y-77272600D01*
X141174609Y-77268515D01*
X141140631Y-77258207D01*
X141109310Y-77241466D01*
X141081861Y-77218939D01*
X141059334Y-77191490D01*
X141042593Y-77160169D01*
X141032285Y-77126191D01*
X141028200Y-77084710D01*
X141028200Y-76483490D01*
X141032285Y-76442009D01*
X141042593Y-76408031D01*
X141059334Y-76376710D01*
X141081861Y-76349261D01*
X141109310Y-76326734D01*
X141140631Y-76309993D01*
X141174609Y-76299685D01*
X141216090Y-76295600D01*
X141892310Y-76295600D01*
X141933791Y-76299685D01*
G37*
G36*
X143406991Y-76299685D02*
G01*
X143440969Y-76309993D01*
X143472290Y-76326734D01*
X143499739Y-76349261D01*
X143522266Y-76376710D01*
X143539007Y-76408031D01*
X143549315Y-76442009D01*
X143553400Y-76483490D01*
X143553400Y-77084710D01*
X143549315Y-77126191D01*
X143539007Y-77160169D01*
X143522266Y-77191490D01*
X143499739Y-77218939D01*
X143472290Y-77241466D01*
X143440969Y-77258207D01*
X143406991Y-77268515D01*
X143365510Y-77272600D01*
X142689290Y-77272600D01*
X142647809Y-77268515D01*
X142613831Y-77258207D01*
X142582510Y-77241466D01*
X142555061Y-77218939D01*
X142532534Y-77191490D01*
X142515793Y-77160169D01*
X142505485Y-77126191D01*
X142501400Y-77084710D01*
X142501400Y-76483490D01*
X142505485Y-76442009D01*
X142515793Y-76408031D01*
X142532534Y-76376710D01*
X142555061Y-76349261D01*
X142582510Y-76326734D01*
X142613831Y-76309993D01*
X142647809Y-76299685D01*
X142689290Y-76295600D01*
X143365510Y-76295600D01*
X143406991Y-76299685D01*
G37*
G36*
X149756991Y-76299685D02*
G01*
X149790969Y-76309993D01*
X149822290Y-76326734D01*
X149849739Y-76349261D01*
X149872266Y-76376710D01*
X149889007Y-76408031D01*
X149899315Y-76442009D01*
X149903400Y-76483490D01*
X149903400Y-77084710D01*
X149899315Y-77126191D01*
X149889007Y-77160169D01*
X149872266Y-77191490D01*
X149849739Y-77218939D01*
X149822290Y-77241466D01*
X149790969Y-77258207D01*
X149756991Y-77268515D01*
X149715510Y-77272600D01*
X149039290Y-77272600D01*
X148997809Y-77268515D01*
X148963831Y-77258207D01*
X148932510Y-77241466D01*
X148905061Y-77218939D01*
X148882534Y-77191490D01*
X148865793Y-77160169D01*
X148855485Y-77126191D01*
X148851400Y-77084710D01*
X148851400Y-76483490D01*
X148855485Y-76442009D01*
X148865793Y-76408031D01*
X148882534Y-76376710D01*
X148905061Y-76349261D01*
X148932510Y-76326734D01*
X148963831Y-76309993D01*
X148997809Y-76299685D01*
X149039290Y-76295600D01*
X149715510Y-76295600D01*
X149756991Y-76299685D01*
G37*
G36*
X148232991Y-76299685D02*
G01*
X148266969Y-76309993D01*
X148298290Y-76326734D01*
X148325739Y-76349261D01*
X148348266Y-76376710D01*
X148365007Y-76408031D01*
X148375315Y-76442009D01*
X148379400Y-76483490D01*
X148379400Y-77084710D01*
X148375315Y-77126191D01*
X148365007Y-77160169D01*
X148348266Y-77191490D01*
X148325739Y-77218939D01*
X148298290Y-77241466D01*
X148266969Y-77258207D01*
X148232991Y-77268515D01*
X148191510Y-77272600D01*
X147515290Y-77272600D01*
X147473809Y-77268515D01*
X147439831Y-77258207D01*
X147408510Y-77241466D01*
X147381061Y-77218939D01*
X147358534Y-77191490D01*
X147341793Y-77160169D01*
X147331485Y-77126191D01*
X147327400Y-77084710D01*
X147327400Y-76483490D01*
X147331485Y-76442009D01*
X147341793Y-76408031D01*
X147358534Y-76376710D01*
X147381061Y-76349261D01*
X147408510Y-76326734D01*
X147439831Y-76309993D01*
X147473809Y-76299685D01*
X147515290Y-76295600D01*
X148191510Y-76295600D01*
X148232991Y-76299685D01*
G37*
G36*
X156490673Y-75043338D02*
G01*
X156618249Y-75096182D01*
X156733059Y-75172895D01*
X156830705Y-75270541D01*
X156907418Y-75385351D01*
X156960262Y-75512927D01*
X156987200Y-75648356D01*
X156987200Y-75786444D01*
X156960262Y-75921873D01*
X156907418Y-76049449D01*
X156830705Y-76164259D01*
X156733059Y-76261905D01*
X156618249Y-76338618D01*
X156490673Y-76391462D01*
X156355244Y-76418400D01*
X156217156Y-76418400D01*
X156081727Y-76391462D01*
X155954151Y-76338618D01*
X155839341Y-76261905D01*
X155741695Y-76164259D01*
X155664982Y-76049449D01*
X155612138Y-75921873D01*
X155585200Y-75786444D01*
X155585200Y-75648356D01*
X155612138Y-75512927D01*
X155664982Y-75385351D01*
X155741695Y-75270541D01*
X155839341Y-75172895D01*
X155954151Y-75096182D01*
X156081727Y-75043338D01*
X156217156Y-75016400D01*
X156355244Y-75016400D01*
X156490673Y-75043338D01*
G37*
G36*
X127966473Y-75043338D02*
G01*
X128094049Y-75096182D01*
X128208859Y-75172895D01*
X128306505Y-75270541D01*
X128383218Y-75385351D01*
X128436062Y-75512927D01*
X128463000Y-75648356D01*
X128463000Y-75786444D01*
X128436062Y-75921873D01*
X128383218Y-76049449D01*
X128306505Y-76164259D01*
X128208859Y-76261905D01*
X128094049Y-76338618D01*
X127966473Y-76391462D01*
X127831044Y-76418400D01*
X127692956Y-76418400D01*
X127557527Y-76391462D01*
X127429951Y-76338618D01*
X127315141Y-76261905D01*
X127217495Y-76164259D01*
X127140782Y-76049449D01*
X127087938Y-75921873D01*
X127061000Y-75786444D01*
X127061000Y-75648356D01*
X127087938Y-75512927D01*
X127140782Y-75385351D01*
X127217495Y-75270541D01*
X127315141Y-75172895D01*
X127429951Y-75096182D01*
X127557527Y-75043338D01*
X127692956Y-75016400D01*
X127831044Y-75016400D01*
X127966473Y-75043338D01*
G37*
M02*
